<?xml version="1.0" encoding="UTF-8" standalone="no"?>
<!DOCTYPE svg PUBLIC "-//W3C//DTD SVG 1.1//EN"
 "http://www.w3.org/Graphics/SVG/1.1/DTD/svg11.dtd">
<!-- Generated by graphviz version 2.44.0 (0)
 -->
<!-- Title: G Pages: 1 -->
<svg width="521pt" height="1412pt"
 viewBox="0.00 0.00 521.34 1412.00" xmlns="http://www.w3.org/2000/svg" xmlns:xlink="http://www.w3.org/1999/xlink">
<g id="graph0" class="graph" transform="scale(1 1) rotate(0) translate(4 1408)">
<title>G</title>
<polygon fill="white" stroke="transparent" points="-4,4 -4,-1408 517.34,-1408 517.34,4 -4,4"/>
<!-- START -->
<g id="node1" class="node">
<title>START</title>
<ellipse fill="red" stroke="red" cx="367.14" cy="-1386" rx="38.19" ry="18"/>
<text text-anchor="middle" x="367.14" y="-1382.3" font-family="Times,serif" font-size="14.00">START</text>
</g>
<!-- audit -->
<g id="node2" class="node">
<title>audit</title>
<ellipse fill="green" stroke="green" cx="367.14" cy="-1314" rx="28.7" ry="18"/>
<text text-anchor="middle" x="367.14" y="-1310.3" font-family="Times,serif" font-size="14.00">audit</text>
</g>
<!-- START&#45;&gt;audit -->
<g id="edge1" class="edge">
<title>START&#45;&gt;audit</title>
<path fill="none" stroke="black" d="M367.14,-1367.7C367.14,-1359.98 367.14,-1350.71 367.14,-1342.11"/>
<polygon fill="black" stroke="black" points="370.64,-1342.1 367.14,-1332.1 363.64,-1342.1 370.64,-1342.1"/>
</g>
<!-- krb5 -->
<g id="node3" class="node">
<title>krb5</title>
<ellipse fill="green" stroke="green" cx="340.14" cy="-1242" rx="27.1" ry="18"/>
<text text-anchor="middle" x="340.14" y="-1238.3" font-family="Times,serif" font-size="14.00">krb5</text>
</g>
<!-- audit&#45;&gt;krb5 -->
<g id="edge2" class="edge">
<title>audit&#45;&gt;krb5</title>
<path fill="none" stroke="#8b4513" d="M360.74,-1296.41C357.63,-1288.34 353.81,-1278.43 350.31,-1269.35"/>
<polygon fill="#8b4513" stroke="#8b4513" points="353.55,-1268.03 346.68,-1259.96 347.01,-1270.55 353.55,-1268.03"/>
</g>
<!-- libcap&#45;ng -->
<g id="node28" class="node">
<title>libcap&#45;ng</title>
<ellipse fill="green" stroke="green" cx="469.14" cy="-1170" rx="44.39" ry="18"/>
<text text-anchor="middle" x="469.14" y="-1166.3" font-family="Times,serif" font-size="14.00">libcap&#45;ng</text>
</g>
<!-- audit&#45;&gt;libcap&#45;ng -->
<g id="edge43" class="edge">
<title>audit&#45;&gt;libcap&#45;ng</title>
<path fill="none" stroke="#8b4513" d="M378.45,-1297.26C396.03,-1272.79 430.08,-1225.38 451.09,-1196.14"/>
<polygon fill="#8b4513" stroke="#8b4513" points="454.16,-1197.85 457.15,-1187.69 448.48,-1193.77 454.16,-1197.85"/>
</g>
<!-- e2fsprogs -->
<g id="node4" class="node">
<title>e2fsprogs</title>
<ellipse fill="green" stroke="green" cx="272.14" cy="-1098" rx="44.69" ry="18"/>
<text text-anchor="middle" x="272.14" y="-1094.3" font-family="Times,serif" font-size="14.00">e2fsprogs</text>
</g>
<!-- krb5&#45;&gt;e2fsprogs -->
<g id="edge3" class="edge">
<title>krb5&#45;&gt;e2fsprogs</title>
<path fill="none" stroke="#8b4513" d="M333.68,-1224.35C326.52,-1206.28 314.36,-1176.7 302.14,-1152 297.67,-1142.95 292.36,-1133.28 287.46,-1124.71"/>
<polygon fill="#8b4513" stroke="#8b4513" points="290.41,-1122.82 282.36,-1115.93 284.35,-1126.33 290.41,-1122.82"/>
</g>
<!-- libldap -->
<g id="node20" class="node">
<title>libldap</title>
<ellipse fill="green" stroke="green" cx="258.14" cy="-1170" rx="35.19" ry="18"/>
<text text-anchor="middle" x="258.14" y="-1166.3" font-family="Times,serif" font-size="14.00">libldap</text>
</g>
<!-- krb5&#45;&gt;libldap -->
<g id="edge24" class="edge">
<title>krb5&#45;&gt;libldap</title>
<path fill="none" stroke="#8b4513" d="M323.94,-1227.17C312.35,-1217.27 296.51,-1203.75 283.28,-1192.46"/>
<polygon fill="#8b4513" stroke="#8b4513" points="285.32,-1189.6 275.44,-1185.77 280.77,-1194.92 285.32,-1189.6"/>
</g>
<!-- keyutils -->
<g id="node27" class="node">
<title>keyutils</title>
<ellipse fill="green" stroke="green" cx="359.14" cy="-810" rx="38.19" ry="18"/>
<text text-anchor="middle" x="359.14" y="-806.3" font-family="Times,serif" font-size="14.00">keyutils</text>
</g>
<!-- krb5&#45;&gt;keyutils -->
<g id="edge39" class="edge">
<title>krb5&#45;&gt;keyutils</title>
<path fill="none" stroke="#8b4513" d="M343.9,-1224.05C349.43,-1197.52 359.14,-1144.52 359.14,-1099 359.14,-1099 359.14,-1099 359.14,-953 359.14,-913 359.14,-866.65 359.14,-838.08"/>
<polygon fill="#8b4513" stroke="#8b4513" points="362.64,-838.05 359.14,-828.05 355.64,-838.05 362.64,-838.05"/>
</g>
<!-- sh -->
<g id="node5" class="node">
<title>sh</title>
<ellipse fill="green" stroke="green" cx="272.14" cy="-738" rx="27" ry="18"/>
<text text-anchor="middle" x="272.14" y="-734.3" font-family="Times,serif" font-size="14.00">sh</text>
</g>
<!-- e2fsprogs&#45;&gt;sh -->
<g id="edge4" class="edge">
<title>e2fsprogs&#45;&gt;sh</title>
<path fill="none" stroke="#8b4513" d="M274.31,-1079.98C277.52,-1053.37 283.14,-1000.25 283.14,-955 283.14,-955 283.14,-955 283.14,-881 283.14,-840.88 278.72,-794.57 275.49,-766.03"/>
<polygon fill="#8b4513" stroke="#8b4513" points="278.95,-765.54 274.31,-756.02 272,-766.36 278.95,-765.54"/>
</g>
<!-- libutil&#45;linux -->
<g id="node19" class="node">
<title>libutil&#45;linux</title>
<ellipse fill="green" stroke="green" cx="202.14" cy="-1026" rx="52.79" ry="18"/>
<text text-anchor="middle" x="202.14" y="-1022.3" font-family="Times,serif" font-size="14.00">libutil&#45;linux</text>
</g>
<!-- e2fsprogs&#45;&gt;libutil&#45;linux -->
<g id="edge23" class="edge">
<title>e2fsprogs&#45;&gt;libutil&#45;linux</title>
<path fill="none" stroke="#8b4513" d="M256.26,-1081.12C247.26,-1072.12 235.82,-1060.68 225.79,-1050.65"/>
<polygon fill="#8b4513" stroke="#8b4513" points="227.99,-1047.9 218.45,-1043.31 223.04,-1052.85 227.99,-1047.9"/>
</g>
<!-- bash -->
<g id="node6" class="node">
<title>bash</title>
<ellipse fill="green" stroke="green" cx="272.14" cy="-666" rx="27" ry="18"/>
<text text-anchor="middle" x="272.14" y="-662.3" font-family="Times,serif" font-size="14.00">bash</text>
</g>
<!-- sh&#45;&gt;bash -->
<g id="edge5" class="edge">
<title>sh&#45;&gt;bash</title>
<path fill="none" stroke="grey" d="M255.77,-723.5C250.59,-711.11 250.6,-692.84 255.78,-680.46"/>
</g>
<!-- sh&#45;&gt;bash -->
<g id="edge32" class="edge">
<title>sh&#45;&gt;bash</title>
<path fill="none" stroke="grey" d="M266.3,-720.41C265.1,-709.41 265.09,-695.03 266.26,-683.96"/>
</g>
<!-- sh&#45;&gt;bash -->
<g id="edge36" class="edge">
<title>sh&#45;&gt;bash</title>
<path fill="none" stroke="grey" d="M277.98,-720.41C279.18,-709.41 279.19,-695.03 278.02,-683.96"/>
</g>
<!-- sh&#45;&gt;bash -->
<g id="edge42" class="edge">
<title>sh&#45;&gt;bash</title>
<path fill="none" stroke="grey" d="M288.52,-723.5C293.69,-711.11 293.68,-692.84 288.5,-680.46"/>
</g>
<!-- readline&gt;=7.0 -->
<g id="node7" class="node">
<title>readline&gt;=7.0</title>
<ellipse fill="green" stroke="green" cx="272.14" cy="-594" rx="61.19" ry="18"/>
<text text-anchor="middle" x="272.14" y="-590.3" font-family="Times,serif" font-size="14.00">readline&gt;=7.0</text>
</g>
<!-- bash&#45;&gt;readline&gt;=7.0 -->
<g id="edge6" class="edge">
<title>bash&#45;&gt;readline&gt;=7.0</title>
<path fill="none" stroke="#8b4513" d="M272.14,-647.7C272.14,-639.98 272.14,-630.71 272.14,-622.11"/>
<polygon fill="#8b4513" stroke="#8b4513" points="275.64,-622.1 272.14,-612.1 268.64,-622.1 275.64,-622.1"/>
</g>
<!-- glibc -->
<g id="node9" class="node">
<title>glibc</title>
<ellipse fill="green" stroke="green" cx="246.14" cy="-162" rx="28.7" ry="18"/>
<text text-anchor="middle" x="246.14" y="-158.3" font-family="Times,serif" font-size="14.00">glibc</text>
</g>
<!-- bash&#45;&gt;glibc -->
<g id="edge21" class="edge">
<title>bash&#45;&gt;glibc</title>
<path fill="none" stroke="#8b4513" d="M249.36,-656.01C207.4,-637.77 122.14,-592.21 122.14,-523 122.14,-523 122.14,-523 122.14,-305 122.14,-264.55 116.44,-248.03 141.14,-216 158.19,-193.88 186.99,-180.27 210.12,-172.39"/>
<polygon fill="#8b4513" stroke="#8b4513" points="211.49,-175.63 219.96,-169.26 209.37,-168.96 211.49,-175.63"/>
</g>
<!-- ncurses -->
<g id="node15" class="node">
<title>ncurses</title>
<ellipse fill="green" stroke="green" cx="272.14" cy="-378" rx="37.09" ry="18"/>
<text text-anchor="middle" x="272.14" y="-374.3" font-family="Times,serif" font-size="14.00">ncurses</text>
</g>
<!-- bash&#45;&gt;ncurses -->
<g id="edge22" class="edge">
<title>bash&#45;&gt;ncurses</title>
<path fill="none" stroke="#8b4513" d="M293.46,-654.62C309.53,-645.64 330.69,-631.08 342.14,-612 375.49,-556.43 360.01,-532.61 365.14,-468 366.41,-452.05 373.18,-445.83 365.14,-432 353.83,-412.53 332.39,-399.62 312.94,-391.42"/>
<polygon fill="#8b4513" stroke="#8b4513" points="314.2,-388.15 303.61,-387.76 311.65,-394.67 314.2,-388.15"/>
</g>
<!-- readline -->
<g id="node8" class="node">
<title>readline</title>
<ellipse fill="green" stroke="green" cx="272.14" cy="-522" rx="38.99" ry="18"/>
<text text-anchor="middle" x="272.14" y="-518.3" font-family="Times,serif" font-size="14.00">readline</text>
</g>
<!-- readline&gt;=7.0&#45;&gt;readline -->
<g id="edge7" class="edge">
<title>readline&gt;=7.0&#45;&gt;readline</title>
<path fill="none" stroke="grey" d="M272.14,-575.7C272.14,-564.85 272.14,-550.92 272.14,-540.1"/>
</g>
<!-- readline&#45;&gt;glibc -->
<g id="edge8" class="edge">
<title>readline&#45;&gt;glibc</title>
<path fill="none" stroke="#8b4513" d="M303.11,-510.97C323.78,-502.68 349.89,-488.85 365.14,-468 389.02,-435.36 384.14,-419.45 384.14,-379 384.14,-379 384.14,-379 384.14,-305 384.14,-244.24 318.37,-199.7 277.64,-177.94"/>
<polygon fill="#8b4513" stroke="#8b4513" points="279.11,-174.76 268.62,-173.27 275.89,-180.97 279.11,-174.76"/>
</g>
<!-- readline&#45;&gt;ncurses -->
<g id="edge14" class="edge">
<title>readline&#45;&gt;ncurses</title>
<path fill="none" stroke="#8b4513" d="M239.75,-511.9C218.42,-504.04 192.12,-490.33 179.14,-468 171.1,-454.17 171.1,-445.83 179.14,-432 190.46,-412.53 211.89,-399.62 231.34,-391.42"/>
<polygon fill="#8b4513" stroke="#8b4513" points="232.64,-394.67 240.67,-387.76 230.08,-388.15 232.64,-394.67"/>
</g>
<!-- libncursesw.so=6&#45;64 -->
<g id="node18" class="node">
<title>libncursesw.so=6&#45;64</title>
<ellipse fill="green" stroke="green" cx="272.14" cy="-450" rx="83.69" ry="18"/>
<text text-anchor="middle" x="272.14" y="-446.3" font-family="Times,serif" font-size="14.00">libncursesw.so=6&#45;64</text>
</g>
<!-- readline&#45;&gt;libncursesw.so=6&#45;64 -->
<g id="edge19" class="edge">
<title>readline&#45;&gt;libncursesw.so=6&#45;64</title>
<path fill="none" stroke="#8b4513" d="M272.14,-503.7C272.14,-495.98 272.14,-486.71 272.14,-478.11"/>
<polygon fill="#8b4513" stroke="#8b4513" points="275.64,-478.1 272.14,-468.1 268.64,-478.1 275.64,-478.1"/>
</g>
<!-- linux&#45;api&#45;headers&gt;=4.10 -->
<g id="node10" class="node">
<title>linux&#45;api&#45;headers&gt;=4.10</title>
<ellipse fill="green" stroke="green" cx="98.14" cy="-90" rx="98.28" ry="18"/>
<text text-anchor="middle" x="98.14" y="-86.3" font-family="Times,serif" font-size="14.00">linux&#45;api&#45;headers&gt;=4.10</text>
</g>
<!-- glibc&#45;&gt;linux&#45;api&#45;headers&gt;=4.10 -->
<g id="edge9" class="edge">
<title>glibc&#45;&gt;linux&#45;api&#45;headers&gt;=4.10</title>
<path fill="none" stroke="#8b4513" d="M223.98,-150.52C202.2,-140.22 168.37,-124.22 141.27,-111.4"/>
<polygon fill="#8b4513" stroke="#8b4513" points="142.53,-108.12 132,-107.01 139.54,-114.45 142.53,-108.12"/>
</g>
<!-- tzdata -->
<g id="node12" class="node">
<title>tzdata</title>
<ellipse fill="green" stroke="green" cx="246.14" cy="-90" rx="31.7" ry="18"/>
<text text-anchor="middle" x="246.14" y="-86.3" font-family="Times,serif" font-size="14.00">tzdata</text>
</g>
<!-- glibc&#45;&gt;tzdata -->
<g id="edge11" class="edge">
<title>glibc&#45;&gt;tzdata</title>
<path fill="none" stroke="#8b4513" d="M246.14,-143.7C246.14,-135.98 246.14,-126.71 246.14,-118.11"/>
<polygon fill="#8b4513" stroke="#8b4513" points="249.64,-118.1 246.14,-108.1 242.64,-118.1 249.64,-118.1"/>
</g>
<!-- filesystem -->
<g id="node13" class="node">
<title>filesystem</title>
<ellipse fill="green" stroke="green" cx="343.14" cy="-90" rx="46.59" ry="18"/>
<text text-anchor="middle" x="343.14" y="-86.3" font-family="Times,serif" font-size="14.00">filesystem</text>
</g>
<!-- glibc&#45;&gt;filesystem -->
<g id="edge12" class="edge">
<title>glibc&#45;&gt;filesystem</title>
<path fill="none" stroke="#8b4513" d="M264.39,-147.83C278.19,-137.88 297.42,-123.99 313.43,-112.44"/>
<polygon fill="#8b4513" stroke="#8b4513" points="315.88,-114.99 321.94,-106.3 311.78,-109.31 315.88,-114.99"/>
</g>
<!-- linux&#45;api&#45;headers -->
<g id="node11" class="node">
<title>linux&#45;api&#45;headers</title>
<ellipse fill="green" stroke="green" cx="98.14" cy="-18" rx="71.49" ry="18"/>
<text text-anchor="middle" x="98.14" y="-14.3" font-family="Times,serif" font-size="14.00">linux&#45;api&#45;headers</text>
</g>
<!-- linux&#45;api&#45;headers&gt;=4.10&#45;&gt;linux&#45;api&#45;headers -->
<g id="edge10" class="edge">
<title>linux&#45;api&#45;headers&gt;=4.10&#45;&gt;linux&#45;api&#45;headers</title>
<path fill="none" stroke="grey" d="M98.14,-71.7C98.14,-60.85 98.14,-46.92 98.14,-36.1"/>
</g>
<!-- iana&#45;etc -->
<g id="node14" class="node">
<title>iana&#45;etc</title>
<ellipse fill="green" stroke="green" cx="343.14" cy="-18" rx="38.19" ry="18"/>
<text text-anchor="middle" x="343.14" y="-14.3" font-family="Times,serif" font-size="14.00">iana&#45;etc</text>
</g>
<!-- filesystem&#45;&gt;iana&#45;etc -->
<g id="edge13" class="edge">
<title>filesystem&#45;&gt;iana&#45;etc</title>
<path fill="none" stroke="#8b4513" d="M343.14,-71.7C343.14,-63.98 343.14,-54.71 343.14,-46.11"/>
<polygon fill="#8b4513" stroke="#8b4513" points="346.64,-46.1 343.14,-36.1 339.64,-46.1 346.64,-46.1"/>
</g>
<!-- ncurses&#45;&gt;glibc -->
<g id="edge15" class="edge">
<title>ncurses&#45;&gt;glibc</title>
<path fill="none" stroke="#8b4513" d="M273.98,-359.83C276.69,-330.11 280.3,-267.36 269.14,-216 267.1,-206.6 263.36,-196.8 259.48,-188.23"/>
<polygon fill="#8b4513" stroke="#8b4513" points="262.6,-186.65 255.12,-179.15 256.29,-189.68 262.6,-186.65"/>
</g>
<!-- gcc&#45;libs -->
<g id="node16" class="node">
<title>gcc&#45;libs</title>
<ellipse fill="green" stroke="green" cx="205.14" cy="-306" rx="38.19" ry="18"/>
<text text-anchor="middle" x="205.14" y="-302.3" font-family="Times,serif" font-size="14.00">gcc&#45;libs</text>
</g>
<!-- ncurses&#45;&gt;gcc&#45;libs -->
<g id="edge16" class="edge">
<title>ncurses&#45;&gt;gcc&#45;libs</title>
<path fill="none" stroke="#8b4513" d="M257.27,-361.46C248.55,-352.35 237.35,-340.65 227.57,-330.43"/>
<polygon fill="#8b4513" stroke="#8b4513" points="229.88,-327.78 220.43,-322.98 224.82,-332.62 229.88,-327.78"/>
</g>
<!-- glibc&gt;=2.27 -->
<g id="node17" class="node">
<title>glibc&gt;=2.27</title>
<ellipse fill="green" stroke="green" cx="205.14" cy="-234" rx="54.69" ry="18"/>
<text text-anchor="middle" x="205.14" y="-230.3" font-family="Times,serif" font-size="14.00">glibc&gt;=2.27</text>
</g>
<!-- gcc&#45;libs&#45;&gt;glibc&gt;=2.27 -->
<g id="edge17" class="edge">
<title>gcc&#45;libs&#45;&gt;glibc&gt;=2.27</title>
<path fill="none" stroke="#8b4513" d="M205.14,-287.7C205.14,-279.98 205.14,-270.71 205.14,-262.11"/>
<polygon fill="#8b4513" stroke="#8b4513" points="208.64,-262.1 205.14,-252.1 201.64,-262.1 208.64,-262.1"/>
</g>
<!-- glibc&gt;=2.27&#45;&gt;glibc -->
<g id="edge18" class="edge">
<title>glibc&gt;=2.27&#45;&gt;glibc</title>
<path fill="none" stroke="grey" d="M215.07,-216.05C221.61,-204.89 230.13,-190.34 236.59,-179.31"/>
</g>
<!-- libncursesw.so=6&#45;64&#45;&gt;ncurses -->
<g id="edge20" class="edge">
<title>libncursesw.so=6&#45;64&#45;&gt;ncurses</title>
<path fill="none" stroke="grey" d="M272.14,-431.7C272.14,-420.85 272.14,-406.92 272.14,-396.1"/>
</g>
<!-- libldap&#45;&gt;e2fsprogs -->
<g id="edge38" class="edge">
<title>libldap&#45;&gt;e2fsprogs</title>
<path fill="none" stroke="#8b4513" d="M261.53,-1152.05C263.07,-1144.35 264.94,-1135.03 266.67,-1126.36"/>
<polygon fill="#8b4513" stroke="#8b4513" points="270.16,-1126.77 268.69,-1116.28 263.29,-1125.39 270.16,-1126.77"/>
</g>
<!-- libsasl -->
<g id="node21" class="node">
<title>libsasl</title>
<ellipse fill="green" stroke="green" cx="133.14" cy="-1098" rx="33.29" ry="18"/>
<text text-anchor="middle" x="133.14" y="-1094.3" font-family="Times,serif" font-size="14.00">libsasl</text>
</g>
<!-- libldap&#45;&gt;libsasl -->
<g id="edge25" class="edge">
<title>libldap&#45;&gt;libsasl</title>
<path fill="none" stroke="#8b4513" d="M235.21,-1156.16C215.36,-1145.04 186.44,-1128.85 164.46,-1116.54"/>
<polygon fill="#8b4513" stroke="#8b4513" points="165.94,-1113.35 155.5,-1111.52 162.52,-1119.46 165.94,-1113.35"/>
</g>
<!-- openssl -->
<g id="node22" class="node">
<title>openssl</title>
<ellipse fill="green" stroke="green" cx="94.14" cy="-1026" rx="37.09" ry="18"/>
<text text-anchor="middle" x="94.14" y="-1022.3" font-family="Times,serif" font-size="14.00">openssl</text>
</g>
<!-- libsasl&#45;&gt;openssl -->
<g id="edge26" class="edge">
<title>libsasl&#45;&gt;openssl</title>
<path fill="none" stroke="#8b4513" d="M123.9,-1080.41C119.24,-1072.04 113.48,-1061.71 108.28,-1052.37"/>
<polygon fill="#8b4513" stroke="#8b4513" points="111.24,-1050.5 103.32,-1043.47 105.13,-1053.91 111.24,-1050.5"/>
</g>
<!-- perl -->
<g id="node23" class="node">
<title>perl</title>
<ellipse fill="green" stroke="green" cx="94.14" cy="-954" rx="27" ry="18"/>
<text text-anchor="middle" x="94.14" y="-950.3" font-family="Times,serif" font-size="14.00">perl</text>
</g>
<!-- openssl&#45;&gt;perl -->
<g id="edge27" class="edge">
<title>openssl&#45;&gt;perl</title>
<path fill="none" stroke="#8b4513" d="M94.14,-1007.7C94.14,-999.98 94.14,-990.71 94.14,-982.11"/>
<polygon fill="#8b4513" stroke="#8b4513" points="97.64,-982.1 94.14,-972.1 90.64,-982.1 97.64,-982.1"/>
</g>
<!-- perl&#45;&gt;glibc -->
<g id="edge37" class="edge">
<title>perl&#45;&gt;glibc</title>
<path fill="none" stroke="#8b4513" d="M73.68,-942.05C58.48,-932.84 38.49,-918.27 27.14,-900 5.8,-865.64 8.14,-851.45 8.14,-811 8.14,-811 8.14,-811 8.14,-305 8.14,-258.5 26.11,-244.13 63.14,-216 105.82,-183.59 167.78,-170.97 207.52,-166.08"/>
<polygon fill="#8b4513" stroke="#8b4513" points="208.06,-169.54 217.61,-164.94 207.28,-162.58 208.06,-169.54"/>
</g>
<!-- gdbm&gt;=1.17 -->
<g id="node24" class="node">
<title>gdbm&gt;=1.17</title>
<ellipse fill="green" stroke="green" cx="94.14" cy="-882" rx="57.69" ry="18"/>
<text text-anchor="middle" x="94.14" y="-878.3" font-family="Times,serif" font-size="14.00">gdbm&gt;=1.17</text>
</g>
<!-- perl&#45;&gt;gdbm&gt;=1.17 -->
<g id="edge28" class="edge">
<title>perl&#45;&gt;gdbm&gt;=1.17</title>
<path fill="none" stroke="#8b4513" d="M94.14,-935.7C94.14,-927.98 94.14,-918.71 94.14,-910.11"/>
<polygon fill="#8b4513" stroke="#8b4513" points="97.64,-910.1 94.14,-900.1 90.64,-910.1 97.64,-910.1"/>
</g>
<!-- db -->
<g id="node26" class="node">
<title>db</title>
<ellipse fill="green" stroke="green" cx="180.14" cy="-810" rx="27" ry="18"/>
<text text-anchor="middle" x="180.14" y="-806.3" font-family="Times,serif" font-size="14.00">db</text>
</g>
<!-- perl&#45;&gt;db -->
<g id="edge33" class="edge">
<title>perl&#45;&gt;db</title>
<path fill="none" stroke="#8b4513" d="M114.61,-942.05C129.8,-932.84 149.79,-918.27 161.14,-900 172.71,-881.38 177.32,-856.79 179.12,-838.18"/>
<polygon fill="#8b4513" stroke="#8b4513" points="182.62,-838.24 179.88,-828.01 175.64,-837.72 182.62,-838.24"/>
</g>
<!-- gdbm -->
<g id="node25" class="node">
<title>gdbm</title>
<ellipse fill="green" stroke="green" cx="94.14" cy="-810" rx="31.4" ry="18"/>
<text text-anchor="middle" x="94.14" y="-806.3" font-family="Times,serif" font-size="14.00">gdbm</text>
</g>
<!-- gdbm&gt;=1.17&#45;&gt;gdbm -->
<g id="edge29" class="edge">
<title>gdbm&gt;=1.17&#45;&gt;gdbm</title>
<path fill="none" stroke="grey" d="M94.14,-863.7C94.14,-852.85 94.14,-838.92 94.14,-828.1"/>
</g>
<!-- gdbm&#45;&gt;sh -->
<g id="edge31" class="edge">
<title>gdbm&#45;&gt;sh</title>
<path fill="none" stroke="#8b4513" d="M119.27,-799.12C150.84,-786.7 205.08,-765.37 239.75,-751.74"/>
<polygon fill="#8b4513" stroke="#8b4513" points="241.37,-754.86 249.4,-747.94 238.81,-748.35 241.37,-754.86"/>
</g>
<!-- gdbm&#45;&gt;glibc -->
<g id="edge30" class="edge">
<title>gdbm&#45;&gt;glibc</title>
<path fill="none" stroke="#8b4513" d="M84.66,-792.56C70.67,-766.72 46.14,-714.62 46.14,-667 46.14,-667 46.14,-667 46.14,-305 46.14,-225.66 152.08,-186.59 209.75,-171.2"/>
<polygon fill="#8b4513" stroke="#8b4513" points="210.76,-174.55 219.58,-168.68 209.03,-167.77 210.76,-174.55"/>
</g>
<!-- db&#45;&gt;sh -->
<g id="edge35" class="edge">
<title>db&#45;&gt;sh</title>
<path fill="none" stroke="#8b4513" d="M197.45,-795.83C211.32,-785.27 231,-770.3 246.68,-758.37"/>
<polygon fill="#8b4513" stroke="#8b4513" points="249.08,-760.95 254.91,-752.11 244.84,-755.38 249.08,-760.95"/>
</g>
<!-- db&#45;&gt;gcc&#45;libs -->
<g id="edge34" class="edge">
<title>db&#45;&gt;gcc&#45;libs</title>
<path fill="none" stroke="#8b4513" d="M162.98,-795.74C135.37,-772.77 84.14,-722.65 84.14,-667 84.14,-667 84.14,-667 84.14,-449 84.14,-394.21 136.98,-349.83 172.82,-326.02"/>
<polygon fill="#8b4513" stroke="#8b4513" points="175.01,-328.77 181.52,-320.42 171.22,-322.89 175.01,-328.77"/>
</g>
<!-- keyutils&#45;&gt;sh -->
<g id="edge41" class="edge">
<title>keyutils&#45;&gt;sh</title>
<path fill="none" stroke="#8b4513" d="M340.69,-794.15C327.85,-783.82 310.59,-769.93 296.6,-758.68"/>
<polygon fill="#8b4513" stroke="#8b4513" points="298.79,-755.95 288.8,-752.4 294.4,-761.4 298.79,-755.95"/>
</g>
<!-- keyutils&#45;&gt;glibc -->
<g id="edge40" class="edge">
<title>keyutils&#45;&gt;glibc</title>
<path fill="none" stroke="#8b4513" d="M379.1,-794.45C408.53,-771.14 460.14,-722.36 460.14,-667 460.14,-667 460.14,-667 460.14,-305 460.14,-221.12 344.59,-183.84 283.3,-169.97"/>
<polygon fill="#8b4513" stroke="#8b4513" points="283.76,-166.48 273.24,-167.79 282.28,-173.32 283.76,-166.48"/>
</g>
<!-- libcap&#45;ng&#45;&gt;glibc -->
<g id="edge44" class="edge">
<title>libcap&#45;ng&#45;&gt;glibc</title>
<path fill="none" stroke="#8b4513" d="M475.01,-1151.74C483.48,-1125.25 498.14,-1072.79 498.14,-1027 498.14,-1027 498.14,-1027 498.14,-305 498.14,-208.27 355.49,-176.71 284.84,-167.02"/>
<polygon fill="#8b4513" stroke="#8b4513" points="284.92,-163.5 274.56,-165.69 284.03,-170.44 284.92,-163.5"/>
</g>
</g>
</svg>
