<?xml version="1.0" encoding="UTF-8" standalone="no"?>
<!DOCTYPE svg PUBLIC "-//W3C//DTD SVG 1.1//EN"
 "http://www.w3.org/Graphics/SVG/1.1/DTD/svg11.dtd">
<!-- Generated by graphviz version 2.44.0 (0)
 -->
<!-- Title: G Pages: 1 -->
<svg width="611pt" height="1124pt"
 viewBox="0.00 0.00 611.14 1124.00" xmlns="http://www.w3.org/2000/svg" xmlns:xlink="http://www.w3.org/1999/xlink">
<g id="graph0" class="graph" transform="scale(1 1) rotate(0) translate(4 1120)">
<title>G</title>
<polygon fill="white" stroke="transparent" points="-4,4 -4,-1120 607.14,-1120 607.14,4 -4,4"/>
<!-- START -->
<g id="node1" class="node">
<title>START</title>
<ellipse fill="red" stroke="red" cx="332.14" cy="-1098" rx="38.19" ry="18"/>
<text text-anchor="middle" x="332.14" y="-1094.3" font-family="Times,serif" font-size="14.00">START</text>
</g>
<!-- automake -->
<g id="node2" class="node">
<title>automake</title>
<ellipse fill="green" stroke="green" cx="332.14" cy="-1026" rx="45.49" ry="18"/>
<text text-anchor="middle" x="332.14" y="-1022.3" font-family="Times,serif" font-size="14.00">automake</text>
</g>
<!-- START&#45;&gt;automake -->
<g id="edge1" class="edge">
<title>START&#45;&gt;automake</title>
<path fill="none" stroke="black" d="M332.14,-1079.7C332.14,-1071.98 332.14,-1062.71 332.14,-1054.11"/>
<polygon fill="black" stroke="black" points="335.64,-1054.1 332.14,-1044.1 328.64,-1054.1 335.64,-1054.1"/>
</g>
<!-- perl -->
<g id="node3" class="node">
<title>perl</title>
<ellipse fill="green" stroke="green" cx="219.14" cy="-954" rx="27" ry="18"/>
<text text-anchor="middle" x="219.14" y="-950.3" font-family="Times,serif" font-size="14.00">perl</text>
</g>
<!-- automake&#45;&gt;perl -->
<g id="edge2" class="edge">
<title>automake&#45;&gt;perl</title>
<path fill="none" stroke="#8b4513" d="M308.73,-1010.5C290.76,-999.36 265.89,-983.96 246.92,-972.21"/>
<polygon fill="#8b4513" stroke="#8b4513" points="248.74,-969.22 238.4,-966.93 245.05,-975.17 248.74,-969.22"/>
</g>
<!-- bash -->
<g id="node13" class="node">
<title>bash</title>
<ellipse fill="green" stroke="green" cx="377.14" cy="-666" rx="27" ry="18"/>
<text text-anchor="middle" x="377.14" y="-662.3" font-family="Times,serif" font-size="14.00">bash</text>
</g>
<!-- automake&#45;&gt;bash -->
<g id="edge29" class="edge">
<title>automake&#45;&gt;bash</title>
<path fill="none" stroke="#8b4513" d="M376.59,-1021.71C453.47,-1013.33 603.14,-984.05 603.14,-883 603.14,-883 603.14,-883 603.14,-809 603.14,-720.55 477.5,-685.06 413.58,-672.72"/>
<polygon fill="#8b4513" stroke="#8b4513" points="413.98,-669.24 403.51,-670.87 412.71,-676.12 413.98,-669.24"/>
</g>
<!-- gdbm&gt;=1.17 -->
<g id="node4" class="node">
<title>gdbm&gt;=1.17</title>
<ellipse fill="green" stroke="green" cx="109.14" cy="-882" rx="57.69" ry="18"/>
<text text-anchor="middle" x="109.14" y="-878.3" font-family="Times,serif" font-size="14.00">gdbm&gt;=1.17</text>
</g>
<!-- perl&#45;&gt;gdbm&gt;=1.17 -->
<g id="edge3" class="edge">
<title>perl&#45;&gt;gdbm&gt;=1.17</title>
<path fill="none" stroke="#8b4513" d="M199.98,-940.81C184.04,-930.66 160.98,-915.99 142.09,-903.97"/>
<polygon fill="#8b4513" stroke="#8b4513" points="143.78,-900.9 133.47,-898.48 140.03,-906.8 143.78,-900.9"/>
</g>
<!-- glibc -->
<g id="node6" class="node">
<title>glibc</title>
<ellipse fill="green" stroke="green" cx="246.14" cy="-162" rx="28.7" ry="18"/>
<text text-anchor="middle" x="246.14" y="-158.3" font-family="Times,serif" font-size="14.00">glibc</text>
</g>
<!-- perl&#45;&gt;glibc -->
<g id="edge28" class="edge">
<title>perl&#45;&gt;glibc</title>
<path fill="none" stroke="#8b4513" d="M217.08,-935.83C210.3,-877.83 189.14,-683.89 189.14,-523 189.14,-523 189.14,-523 189.14,-305 189.14,-261.09 212.91,-214.67 229.75,-187.3"/>
<polygon fill="#8b4513" stroke="#8b4513" points="232.75,-189.1 235.15,-178.78 226.84,-185.35 232.75,-189.1"/>
</g>
<!-- db -->
<g id="node20" class="node">
<title>db</title>
<ellipse fill="green" stroke="green" cx="330.14" cy="-810" rx="27" ry="18"/>
<text text-anchor="middle" x="330.14" y="-806.3" font-family="Times,serif" font-size="14.00">db</text>
</g>
<!-- perl&#45;&gt;db -->
<g id="edge25" class="edge">
<title>perl&#45;&gt;db</title>
<path fill="none" stroke="#8b4513" d="M231.02,-937.8C250.36,-913.06 288.8,-863.88 311.71,-834.57"/>
<polygon fill="#8b4513" stroke="#8b4513" points="314.61,-836.55 318.01,-826.52 309.1,-832.24 314.61,-836.55"/>
</g>
<!-- gdbm -->
<g id="node5" class="node">
<title>gdbm</title>
<ellipse fill="green" stroke="green" cx="136.14" cy="-810" rx="31.4" ry="18"/>
<text text-anchor="middle" x="136.14" y="-806.3" font-family="Times,serif" font-size="14.00">gdbm</text>
</g>
<!-- gdbm&gt;=1.17&#45;&gt;gdbm -->
<g id="edge4" class="edge">
<title>gdbm&gt;=1.17&#45;&gt;gdbm</title>
<path fill="none" stroke="grey" d="M115.68,-864.05C119.92,-853.05 125.43,-838.76 129.67,-827.79"/>
</g>
<!-- gdbm&#45;&gt;glibc -->
<g id="edge5" class="edge">
<title>gdbm&#45;&gt;glibc</title>
<path fill="none" stroke="#8b4513" d="M138.12,-791.98C141.03,-765.36 146.14,-712.23 146.14,-667 146.14,-667 146.14,-667 146.14,-305 146.14,-263.4 150.89,-249.8 175.14,-216 185.73,-201.24 201.67,-188.81 215.76,-179.71"/>
<polygon fill="#8b4513" stroke="#8b4513" points="218,-182.45 224.68,-174.22 214.33,-176.48 218,-182.45"/>
</g>
<!-- sh -->
<g id="node12" class="node">
<title>sh</title>
<ellipse fill="green" stroke="green" cx="330.14" cy="-738" rx="27" ry="18"/>
<text text-anchor="middle" x="330.14" y="-734.3" font-family="Times,serif" font-size="14.00">sh</text>
</g>
<!-- gdbm&#45;&gt;sh -->
<g id="edge11" class="edge">
<title>gdbm&#45;&gt;sh</title>
<path fill="none" stroke="#8b4513" d="M161.9,-799.7C196.82,-787.11 259.17,-764.61 297.37,-750.82"/>
<polygon fill="#8b4513" stroke="#8b4513" points="298.78,-754.04 307,-747.35 296.41,-747.45 298.78,-754.04"/>
</g>
<!-- linux&#45;api&#45;headers&gt;=4.10 -->
<g id="node7" class="node">
<title>linux&#45;api&#45;headers&gt;=4.10</title>
<ellipse fill="green" stroke="green" cx="98.14" cy="-90" rx="98.28" ry="18"/>
<text text-anchor="middle" x="98.14" y="-86.3" font-family="Times,serif" font-size="14.00">linux&#45;api&#45;headers&gt;=4.10</text>
</g>
<!-- glibc&#45;&gt;linux&#45;api&#45;headers&gt;=4.10 -->
<g id="edge6" class="edge">
<title>glibc&#45;&gt;linux&#45;api&#45;headers&gt;=4.10</title>
<path fill="none" stroke="#8b4513" d="M223.98,-150.52C202.2,-140.22 168.37,-124.22 141.27,-111.4"/>
<polygon fill="#8b4513" stroke="#8b4513" points="142.53,-108.12 132,-107.01 139.54,-114.45 142.53,-108.12"/>
</g>
<!-- tzdata -->
<g id="node9" class="node">
<title>tzdata</title>
<ellipse fill="green" stroke="green" cx="246.14" cy="-90" rx="31.7" ry="18"/>
<text text-anchor="middle" x="246.14" y="-86.3" font-family="Times,serif" font-size="14.00">tzdata</text>
</g>
<!-- glibc&#45;&gt;tzdata -->
<g id="edge8" class="edge">
<title>glibc&#45;&gt;tzdata</title>
<path fill="none" stroke="#8b4513" d="M246.14,-143.7C246.14,-135.98 246.14,-126.71 246.14,-118.11"/>
<polygon fill="#8b4513" stroke="#8b4513" points="249.64,-118.1 246.14,-108.1 242.64,-118.1 249.64,-118.1"/>
</g>
<!-- filesystem -->
<g id="node10" class="node">
<title>filesystem</title>
<ellipse fill="green" stroke="green" cx="343.14" cy="-90" rx="46.59" ry="18"/>
<text text-anchor="middle" x="343.14" y="-86.3" font-family="Times,serif" font-size="14.00">filesystem</text>
</g>
<!-- glibc&#45;&gt;filesystem -->
<g id="edge9" class="edge">
<title>glibc&#45;&gt;filesystem</title>
<path fill="none" stroke="#8b4513" d="M264.39,-147.83C278.19,-137.88 297.42,-123.99 313.43,-112.44"/>
<polygon fill="#8b4513" stroke="#8b4513" points="315.88,-114.99 321.94,-106.3 311.78,-109.31 315.88,-114.99"/>
</g>
<!-- linux&#45;api&#45;headers -->
<g id="node8" class="node">
<title>linux&#45;api&#45;headers</title>
<ellipse fill="green" stroke="green" cx="98.14" cy="-18" rx="71.49" ry="18"/>
<text text-anchor="middle" x="98.14" y="-14.3" font-family="Times,serif" font-size="14.00">linux&#45;api&#45;headers</text>
</g>
<!-- linux&#45;api&#45;headers&gt;=4.10&#45;&gt;linux&#45;api&#45;headers -->
<g id="edge7" class="edge">
<title>linux&#45;api&#45;headers&gt;=4.10&#45;&gt;linux&#45;api&#45;headers</title>
<path fill="none" stroke="grey" d="M98.14,-71.7C98.14,-60.85 98.14,-46.92 98.14,-36.1"/>
</g>
<!-- iana&#45;etc -->
<g id="node11" class="node">
<title>iana&#45;etc</title>
<ellipse fill="green" stroke="green" cx="343.14" cy="-18" rx="38.19" ry="18"/>
<text text-anchor="middle" x="343.14" y="-14.3" font-family="Times,serif" font-size="14.00">iana&#45;etc</text>
</g>
<!-- filesystem&#45;&gt;iana&#45;etc -->
<g id="edge10" class="edge">
<title>filesystem&#45;&gt;iana&#45;etc</title>
<path fill="none" stroke="#8b4513" d="M343.14,-71.7C343.14,-63.98 343.14,-54.71 343.14,-46.11"/>
<polygon fill="#8b4513" stroke="#8b4513" points="346.64,-46.1 343.14,-36.1 339.64,-46.1 346.64,-46.1"/>
</g>
<!-- sh&#45;&gt;bash -->
<g id="edge12" class="edge">
<title>sh&#45;&gt;bash</title>
<path fill="none" stroke="grey" d="M340.81,-721.12C348.5,-709.66 358.84,-694.26 366.52,-682.82"/>
</g>
<!-- bash&#45;&gt;glibc -->
<g id="edge23" class="edge">
<title>bash&#45;&gt;glibc</title>
<path fill="none" stroke="#8b4513" d="M354.36,-656.01C312.4,-637.77 227.14,-592.21 227.14,-523 227.14,-523 227.14,-523 227.14,-305 227.14,-264.64 234.78,-218.39 240.37,-189.94"/>
<polygon fill="#8b4513" stroke="#8b4513" points="243.83,-190.45 242.39,-179.95 236.97,-189.06 243.83,-190.45"/>
</g>
<!-- readline&gt;=7.0 -->
<g id="node14" class="node">
<title>readline&gt;=7.0</title>
<ellipse fill="green" stroke="green" cx="377.14" cy="-594" rx="61.19" ry="18"/>
<text text-anchor="middle" x="377.14" y="-590.3" font-family="Times,serif" font-size="14.00">readline&gt;=7.0</text>
</g>
<!-- bash&#45;&gt;readline&gt;=7.0 -->
<g id="edge13" class="edge">
<title>bash&#45;&gt;readline&gt;=7.0</title>
<path fill="none" stroke="#8b4513" d="M377.14,-647.7C377.14,-639.98 377.14,-630.71 377.14,-622.11"/>
<polygon fill="#8b4513" stroke="#8b4513" points="380.64,-622.1 377.14,-612.1 373.64,-622.1 380.64,-622.1"/>
</g>
<!-- ncurses -->
<g id="node16" class="node">
<title>ncurses</title>
<ellipse fill="green" stroke="green" cx="476.14" cy="-378" rx="37.09" ry="18"/>
<text text-anchor="middle" x="476.14" y="-374.3" font-family="Times,serif" font-size="14.00">ncurses</text>
</g>
<!-- bash&#45;&gt;ncurses -->
<g id="edge24" class="edge">
<title>bash&#45;&gt;ncurses</title>
<path fill="none" stroke="#8b4513" d="M397.78,-654.18C413.47,-644.95 434.46,-630.29 447.14,-612 494.02,-544.42 500.73,-513.57 490.14,-432 489.01,-423.28 486.87,-413.95 484.6,-405.58"/>
<polygon fill="#8b4513" stroke="#8b4513" points="487.96,-404.6 481.82,-395.96 481.23,-406.54 487.96,-404.6"/>
</g>
<!-- readline -->
<g id="node15" class="node">
<title>readline</title>
<ellipse fill="green" stroke="green" cx="377.14" cy="-522" rx="38.99" ry="18"/>
<text text-anchor="middle" x="377.14" y="-518.3" font-family="Times,serif" font-size="14.00">readline</text>
</g>
<!-- readline&gt;=7.0&#45;&gt;readline -->
<g id="edge14" class="edge">
<title>readline&gt;=7.0&#45;&gt;readline</title>
<path fill="none" stroke="grey" d="M377.14,-575.7C377.14,-564.85 377.14,-550.92 377.14,-540.1"/>
</g>
<!-- readline&#45;&gt;glibc -->
<g id="edge15" class="edge">
<title>readline&#45;&gt;glibc</title>
<path fill="none" stroke="#8b4513" d="M346.18,-510.97C325.5,-502.68 299.39,-488.85 284.14,-468 260.26,-435.36 265.14,-419.45 265.14,-379 265.14,-379 265.14,-379 265.14,-305 265.14,-264.64 257.51,-218.39 251.92,-189.94"/>
<polygon fill="#8b4513" stroke="#8b4513" points="255.31,-189.06 249.9,-179.95 248.45,-190.45 255.31,-189.06"/>
</g>
<!-- readline&#45;&gt;ncurses -->
<g id="edge16" class="edge">
<title>readline&#45;&gt;ncurses</title>
<path fill="none" stroke="#8b4513" d="M409.06,-511.62C430.18,-503.63 456.42,-489.88 470.14,-468 481.61,-449.71 482.37,-424.94 480.68,-406.18"/>
<polygon fill="#8b4513" stroke="#8b4513" points="484.15,-405.71 479.5,-396.19 477.19,-406.53 484.15,-405.71"/>
</g>
<!-- libncursesw.so=6&#45;64 -->
<g id="node19" class="node">
<title>libncursesw.so=6&#45;64</title>
<ellipse fill="green" stroke="green" cx="377.14" cy="-450" rx="83.69" ry="18"/>
<text text-anchor="middle" x="377.14" y="-446.3" font-family="Times,serif" font-size="14.00">libncursesw.so=6&#45;64</text>
</g>
<!-- readline&#45;&gt;libncursesw.so=6&#45;64 -->
<g id="edge21" class="edge">
<title>readline&#45;&gt;libncursesw.so=6&#45;64</title>
<path fill="none" stroke="#8b4513" d="M377.14,-503.7C377.14,-495.98 377.14,-486.71 377.14,-478.11"/>
<polygon fill="#8b4513" stroke="#8b4513" points="380.64,-478.1 377.14,-468.1 373.64,-478.1 380.64,-478.1"/>
</g>
<!-- ncurses&#45;&gt;glibc -->
<g id="edge17" class="edge">
<title>ncurses&#45;&gt;glibc</title>
<path fill="none" stroke="#8b4513" d="M459.6,-361.61C419.19,-324.01 315.39,-227.43 269.06,-184.32"/>
<polygon fill="#8b4513" stroke="#8b4513" points="271.33,-181.65 261.62,-177.4 266.56,-186.78 271.33,-181.65"/>
</g>
<!-- gcc&#45;libs -->
<g id="node17" class="node">
<title>gcc&#45;libs</title>
<ellipse fill="green" stroke="green" cx="476.14" cy="-306" rx="38.19" ry="18"/>
<text text-anchor="middle" x="476.14" y="-302.3" font-family="Times,serif" font-size="14.00">gcc&#45;libs</text>
</g>
<!-- ncurses&#45;&gt;gcc&#45;libs -->
<g id="edge18" class="edge">
<title>ncurses&#45;&gt;gcc&#45;libs</title>
<path fill="none" stroke="#8b4513" d="M476.14,-359.7C476.14,-351.98 476.14,-342.71 476.14,-334.11"/>
<polygon fill="#8b4513" stroke="#8b4513" points="479.64,-334.1 476.14,-324.1 472.64,-334.1 479.64,-334.1"/>
</g>
<!-- glibc&gt;=2.27 -->
<g id="node18" class="node">
<title>glibc&gt;=2.27</title>
<ellipse fill="green" stroke="green" cx="463.14" cy="-234" rx="54.69" ry="18"/>
<text text-anchor="middle" x="463.14" y="-230.3" font-family="Times,serif" font-size="14.00">glibc&gt;=2.27</text>
</g>
<!-- gcc&#45;libs&#45;&gt;glibc&gt;=2.27 -->
<g id="edge19" class="edge">
<title>gcc&#45;libs&#45;&gt;glibc&gt;=2.27</title>
<path fill="none" stroke="#8b4513" d="M472.99,-288.05C471.56,-280.35 469.83,-271.03 468.22,-262.36"/>
<polygon fill="#8b4513" stroke="#8b4513" points="471.62,-261.47 466.35,-252.28 464.73,-262.75 471.62,-261.47"/>
</g>
<!-- glibc&gt;=2.27&#45;&gt;glibc -->
<g id="edge20" class="edge">
<title>glibc&gt;=2.27&#45;&gt;glibc</title>
<path fill="none" stroke="grey" d="M425.34,-220.81C381.02,-206.51 308.82,-183.22 271.01,-171.02"/>
</g>
<!-- libncursesw.so=6&#45;64&#45;&gt;ncurses -->
<g id="edge22" class="edge">
<title>libncursesw.so=6&#45;64&#45;&gt;ncurses</title>
<path fill="none" stroke="grey" d="M400.35,-432.59C417.27,-420.63 439.96,-404.59 456.09,-393.18"/>
</g>
<!-- db&#45;&gt;sh -->
<g id="edge27" class="edge">
<title>db&#45;&gt;sh</title>
<path fill="none" stroke="#8b4513" d="M330.14,-791.7C330.14,-783.98 330.14,-774.71 330.14,-766.11"/>
<polygon fill="#8b4513" stroke="#8b4513" points="333.64,-766.1 330.14,-756.1 326.64,-766.1 333.64,-766.1"/>
</g>
<!-- db&#45;&gt;gcc&#45;libs -->
<g id="edge26" class="edge">
<title>db&#45;&gt;gcc&#45;libs</title>
<path fill="none" stroke="#8b4513" d="M356.64,-805.63C418.1,-796.2 565.14,-763.53 565.14,-667 565.14,-667 565.14,-667 565.14,-449 565.14,-400.54 527.47,-355.03 501.14,-329.14"/>
<polygon fill="#8b4513" stroke="#8b4513" points="503.38,-326.44 493.72,-322.07 498.54,-331.5 503.38,-326.44"/>
</g>
</g>
</svg>
