<?xml version="1.0" encoding="UTF-8" standalone="no"?>
<!DOCTYPE svg PUBLIC "-//W3C//DTD SVG 1.1//EN"
 "http://www.w3.org/Graphics/SVG/1.1/DTD/svg11.dtd">
<!-- Generated by graphviz version 2.44.0 (0)
 -->
<!-- Title: G Pages: 1 -->
<svg width="633pt" height="1268pt"
 viewBox="0.00 0.00 633.00 1268.00" xmlns="http://www.w3.org/2000/svg" xmlns:xlink="http://www.w3.org/1999/xlink">
<g id="graph0" class="graph" transform="scale(1 1) rotate(0) translate(4 1264)">
<title>G</title>
<polygon fill="white" stroke="transparent" points="-4,4 -4,-1264 629,-1264 629,4 -4,4"/>
<!-- START -->
<g id="node1" class="node">
<title>START</title>
<ellipse fill="red" stroke="red" cx="400" cy="-1242" rx="38.19" ry="18"/>
<text text-anchor="middle" x="400" y="-1238.3" font-family="Times,serif" font-size="14.00">START</text>
</g>
<!-- autoconf -->
<g id="node2" class="node">
<title>autoconf</title>
<ellipse fill="green" stroke="green" cx="400" cy="-1170" rx="41.69" ry="18"/>
<text text-anchor="middle" x="400" y="-1166.3" font-family="Times,serif" font-size="14.00">autoconf</text>
</g>
<!-- START&#45;&gt;autoconf -->
<g id="edge1" class="edge">
<title>START&#45;&gt;autoconf</title>
<path fill="none" stroke="black" d="M400,-1223.7C400,-1215.98 400,-1206.71 400,-1198.11"/>
<polygon fill="black" stroke="black" points="403.5,-1198.1 400,-1188.1 396.5,-1198.1 403.5,-1198.1"/>
</g>
<!-- awk -->
<g id="node3" class="node">
<title>awk</title>
<ellipse fill="green" stroke="green" cx="259" cy="-1098" rx="27" ry="18"/>
<text text-anchor="middle" x="259" y="-1094.3" font-family="Times,serif" font-size="14.00">awk</text>
</g>
<!-- autoconf&#45;&gt;awk -->
<g id="edge2" class="edge">
<title>autoconf&#45;&gt;awk</title>
<path fill="none" stroke="#8b4513" d="M373.81,-1156C349.8,-1144.08 314.26,-1126.43 289.09,-1113.94"/>
<polygon fill="#8b4513" stroke="#8b4513" points="290.51,-1110.74 280,-1109.42 287.4,-1117.01 290.51,-1110.74"/>
</g>
<!-- sh -->
<g id="node5" class="node">
<title>sh</title>
<ellipse fill="green" stroke="green" cx="363" cy="-738" rx="27" ry="18"/>
<text text-anchor="middle" x="363" y="-734.3" font-family="Times,serif" font-size="14.00">sh</text>
</g>
<!-- autoconf&#45;&gt;sh -->
<g id="edge46" class="edge">
<title>autoconf&#45;&gt;sh</title>
<path fill="none" stroke="#8b4513" d="M400,-1151.95C400,-1125.29 400,-1072.11 400,-1027 400,-1027 400,-1027 400,-881 400,-839.48 385,-793.27 374.1,-765.17"/>
<polygon fill="#8b4513" stroke="#8b4513" points="377.27,-763.67 370.31,-755.68 370.77,-766.27 377.27,-763.67"/>
</g>
<!-- m4 -->
<g id="node22" class="node">
<title>m4</title>
<ellipse fill="green" stroke="green" cx="437" cy="-738" rx="27" ry="18"/>
<text text-anchor="middle" x="437" y="-734.3" font-family="Times,serif" font-size="14.00">m4</text>
</g>
<!-- autoconf&#45;&gt;m4 -->
<g id="edge29" class="edge">
<title>autoconf&#45;&gt;m4</title>
<path fill="none" stroke="#8b4513" d="M407.69,-1151.91C418.79,-1125.62 438,-1073.45 438,-1027 438,-1027 438,-1027 438,-881 438,-841 437.6,-794.65 437.3,-766.08"/>
<polygon fill="#8b4513" stroke="#8b4513" points="440.8,-766.01 437.2,-756.05 433.8,-766.09 440.8,-766.01"/>
</g>
<!-- diffutils -->
<g id="node23" class="node">
<title>diffutils</title>
<ellipse fill="green" stroke="green" cx="520" cy="-738" rx="38.19" ry="18"/>
<text text-anchor="middle" x="520" y="-734.3" font-family="Times,serif" font-size="14.00">diffutils</text>
</g>
<!-- autoconf&#45;&gt;diffutils -->
<g id="edge32" class="edge">
<title>autoconf&#45;&gt;diffutils</title>
<path fill="none" stroke="#8b4513" d="M419.83,-1153.93C448.47,-1130.29 498,-1081.52 498,-1027 498,-1027 498,-1027 498,-881 498,-840.52 506.84,-794.3 513.31,-765.89"/>
<polygon fill="#8b4513" stroke="#8b4513" points="516.77,-766.45 515.65,-755.92 509.96,-764.85 516.77,-766.45"/>
</g>
<!-- perl -->
<g id="node24" class="node">
<title>perl</title>
<ellipse fill="green" stroke="green" cx="223" cy="-954" rx="27" ry="18"/>
<text text-anchor="middle" x="223" y="-950.3" font-family="Times,serif" font-size="14.00">perl</text>
</g>
<!-- autoconf&#45;&gt;perl -->
<g id="edge35" class="edge">
<title>autoconf&#45;&gt;perl</title>
<path fill="none" stroke="#8b4513" d="M386.7,-1152.92C355.58,-1115.29 277.96,-1021.45 241.93,-977.88"/>
<polygon fill="#8b4513" stroke="#8b4513" points="244.57,-975.59 235.5,-970.12 239.18,-980.05 244.57,-975.59"/>
</g>
<!-- gawk -->
<g id="node4" class="node">
<title>gawk</title>
<ellipse fill="green" stroke="green" cx="164" cy="-1026" rx="29.8" ry="18"/>
<text text-anchor="middle" x="164" y="-1022.3" font-family="Times,serif" font-size="14.00">gawk</text>
</g>
<!-- awk&#45;&gt;gawk -->
<g id="edge3" class="edge">
<title>awk&#45;&gt;gawk</title>
<path fill="none" stroke="grey" d="M241.58,-1084.16C224.76,-1071.77 199.39,-1053.08 182.29,-1040.47"/>
</g>
<!-- gawk&#45;&gt;sh -->
<g id="edge4" class="edge">
<title>gawk&#45;&gt;sh</title>
<path fill="none" stroke="#8b4513" d="M189.02,-1016.13C229.84,-1000.16 309.55,-962.28 343,-900 365.85,-857.46 367.06,-799.69 365.37,-766.17"/>
<polygon fill="#8b4513" stroke="#8b4513" points="368.87,-765.95 364.75,-756.18 361.88,-766.38 368.87,-765.95"/>
</g>
<!-- glibc -->
<g id="node9" class="node">
<title>glibc</title>
<ellipse fill="green" stroke="green" cx="290" cy="-162" rx="28.7" ry="18"/>
<text text-anchor="middle" x="290" y="-158.3" font-family="Times,serif" font-size="14.00">glibc</text>
</g>
<!-- gawk&#45;&gt;glibc -->
<g id="edge23" class="edge">
<title>gawk&#45;&gt;glibc</title>
<path fill="none" stroke="#8b4513" d="M138.38,-1016.37C92.25,-999.03 0,-955.31 0,-883 0,-883 0,-883 0,-305 0,-194.35 172.41,-169.91 251.36,-164.52"/>
<polygon fill="#8b4513" stroke="#8b4513" points="251.63,-168.01 261.4,-163.9 251.2,-161.02 251.63,-168.01"/>
</g>
<!-- mpfr -->
<g id="node19" class="node">
<title>mpfr</title>
<ellipse fill="green" stroke="green" cx="130" cy="-954" rx="27.9" ry="18"/>
<text text-anchor="middle" x="130" y="-950.3" font-family="Times,serif" font-size="14.00">mpfr</text>
</g>
<!-- gawk&#45;&gt;mpfr -->
<g id="edge24" class="edge">
<title>gawk&#45;&gt;mpfr</title>
<path fill="none" stroke="#8b4513" d="M155.94,-1008.41C151.92,-1000.13 146.96,-989.92 142.46,-980.66"/>
<polygon fill="#8b4513" stroke="#8b4513" points="145.52,-978.94 138,-971.47 139.22,-981.99 145.52,-978.94"/>
</g>
<!-- bash -->
<g id="node6" class="node">
<title>bash</title>
<ellipse fill="green" stroke="green" cx="363" cy="-666" rx="27" ry="18"/>
<text text-anchor="middle" x="363" y="-662.3" font-family="Times,serif" font-size="14.00">bash</text>
</g>
<!-- sh&#45;&gt;bash -->
<g id="edge5" class="edge">
<title>sh&#45;&gt;bash</title>
<path fill="none" stroke="grey" d="M346.63,-723.5C341.45,-711.11 341.46,-692.84 346.64,-680.46"/>
</g>
<!-- sh&#45;&gt;bash -->
<g id="edge40" class="edge">
<title>sh&#45;&gt;bash</title>
<path fill="none" stroke="grey" d="M357.16,-720.41C355.96,-709.41 355.95,-695.03 357.12,-683.96"/>
</g>
<!-- sh&#45;&gt;bash -->
<g id="edge44" class="edge">
<title>sh&#45;&gt;bash</title>
<path fill="none" stroke="grey" d="M368.84,-720.41C370.04,-709.41 370.05,-695.03 368.88,-683.96"/>
</g>
<!-- sh&#45;&gt;bash -->
<g id="edge47" class="edge">
<title>sh&#45;&gt;bash</title>
<path fill="none" stroke="grey" d="M379.37,-723.5C384.55,-711.11 384.54,-692.84 379.36,-680.46"/>
</g>
<!-- readline&gt;=7.0 -->
<g id="node7" class="node">
<title>readline&gt;=7.0</title>
<ellipse fill="green" stroke="green" cx="374" cy="-594" rx="61.19" ry="18"/>
<text text-anchor="middle" x="374" y="-590.3" font-family="Times,serif" font-size="14.00">readline&gt;=7.0</text>
</g>
<!-- bash&#45;&gt;readline&gt;=7.0 -->
<g id="edge6" class="edge">
<title>bash&#45;&gt;readline&gt;=7.0</title>
<path fill="none" stroke="#8b4513" d="M365.66,-648.05C366.87,-640.35 368.34,-631.03 369.7,-622.36"/>
<polygon fill="#8b4513" stroke="#8b4513" points="373.19,-622.7 371.29,-612.28 366.28,-621.61 373.19,-622.7"/>
</g>
<!-- bash&#45;&gt;glibc -->
<g id="edge21" class="edge">
<title>bash&#45;&gt;glibc</title>
<path fill="none" stroke="#8b4513" d="M387.7,-658.71C438.3,-644.19 549,-603.24 549,-523 549,-523 549,-523 549,-305 549,-205.54 400.32,-175.28 328.26,-166.45"/>
<polygon fill="#8b4513" stroke="#8b4513" points="328.54,-162.96 318.21,-165.3 327.75,-169.92 328.54,-162.96"/>
</g>
<!-- ncurses -->
<g id="node15" class="node">
<title>ncurses</title>
<ellipse fill="green" stroke="green" cx="287" cy="-378" rx="37.09" ry="18"/>
<text text-anchor="middle" x="287" y="-374.3" font-family="Times,serif" font-size="14.00">ncurses</text>
</g>
<!-- bash&#45;&gt;ncurses -->
<g id="edge22" class="edge">
<title>bash&#45;&gt;ncurses</title>
<path fill="none" stroke="#8b4513" d="M343.64,-653.18C330.11,-643.79 312.94,-629.39 304,-612 269.33,-544.54 276.24,-451.3 282.48,-405.95"/>
<polygon fill="#8b4513" stroke="#8b4513" points="285.95,-406.41 283.95,-396 279.03,-405.38 285.95,-406.41"/>
</g>
<!-- readline -->
<g id="node8" class="node">
<title>readline</title>
<ellipse fill="green" stroke="green" cx="388" cy="-522" rx="38.99" ry="18"/>
<text text-anchor="middle" x="388" y="-518.3" font-family="Times,serif" font-size="14.00">readline</text>
</g>
<!-- readline&gt;=7.0&#45;&gt;readline -->
<g id="edge7" class="edge">
<title>readline&gt;=7.0&#45;&gt;readline</title>
<path fill="none" stroke="grey" d="M377.46,-575.7C379.63,-564.85 382.42,-550.92 384.58,-540.1"/>
</g>
<!-- readline&#45;&gt;glibc -->
<g id="edge8" class="edge">
<title>readline&#45;&gt;glibc</title>
<path fill="none" stroke="#8b4513" d="M421.08,-512.41C444.39,-504.63 474.47,-490.82 492,-468 516.64,-435.92 511,-419.45 511,-379 511,-379 511,-379 511,-305 511,-218.81 390.57,-182.49 327.51,-169.38"/>
<polygon fill="#8b4513" stroke="#8b4513" points="328.03,-165.92 317.54,-167.4 326.67,-172.78 328.03,-165.92"/>
</g>
<!-- readline&#45;&gt;ncurses -->
<g id="edge14" class="edge">
<title>readline&#45;&gt;ncurses</title>
<path fill="none" stroke="#8b4513" d="M359.47,-509.49C341.41,-500.75 319.09,-486.98 306,-468 293.5,-449.87 288.98,-425.09 287.45,-406.28"/>
<polygon fill="#8b4513" stroke="#8b4513" points="290.94,-406.04 286.87,-396.26 283.96,-406.45 290.94,-406.04"/>
</g>
<!-- libncursesw.so=6&#45;64 -->
<g id="node18" class="node">
<title>libncursesw.so=6&#45;64</title>
<ellipse fill="green" stroke="green" cx="399" cy="-450" rx="83.69" ry="18"/>
<text text-anchor="middle" x="399" y="-446.3" font-family="Times,serif" font-size="14.00">libncursesw.so=6&#45;64</text>
</g>
<!-- readline&#45;&gt;libncursesw.so=6&#45;64 -->
<g id="edge19" class="edge">
<title>readline&#45;&gt;libncursesw.so=6&#45;64</title>
<path fill="none" stroke="#8b4513" d="M390.72,-503.7C391.93,-495.98 393.39,-486.71 394.74,-478.11"/>
<polygon fill="#8b4513" stroke="#8b4513" points="398.22,-478.53 396.31,-468.1 391.3,-477.44 398.22,-478.53"/>
</g>
<!-- linux&#45;api&#45;headers&gt;=4.10 -->
<g id="node10" class="node">
<title>linux&#45;api&#45;headers&gt;=4.10</title>
<ellipse fill="green" stroke="green" cx="142" cy="-90" rx="98.28" ry="18"/>
<text text-anchor="middle" x="142" y="-86.3" font-family="Times,serif" font-size="14.00">linux&#45;api&#45;headers&gt;=4.10</text>
</g>
<!-- glibc&#45;&gt;linux&#45;api&#45;headers&gt;=4.10 -->
<g id="edge9" class="edge">
<title>glibc&#45;&gt;linux&#45;api&#45;headers&gt;=4.10</title>
<path fill="none" stroke="#8b4513" d="M267.84,-150.52C246.06,-140.22 212.23,-124.22 185.13,-111.4"/>
<polygon fill="#8b4513" stroke="#8b4513" points="186.39,-108.12 175.85,-107.01 183.4,-114.45 186.39,-108.12"/>
</g>
<!-- tzdata -->
<g id="node12" class="node">
<title>tzdata</title>
<ellipse fill="green" stroke="green" cx="290" cy="-90" rx="31.7" ry="18"/>
<text text-anchor="middle" x="290" y="-86.3" font-family="Times,serif" font-size="14.00">tzdata</text>
</g>
<!-- glibc&#45;&gt;tzdata -->
<g id="edge11" class="edge">
<title>glibc&#45;&gt;tzdata</title>
<path fill="none" stroke="#8b4513" d="M290,-143.7C290,-135.98 290,-126.71 290,-118.11"/>
<polygon fill="#8b4513" stroke="#8b4513" points="293.5,-118.1 290,-108.1 286.5,-118.1 293.5,-118.1"/>
</g>
<!-- filesystem -->
<g id="node13" class="node">
<title>filesystem</title>
<ellipse fill="green" stroke="green" cx="387" cy="-90" rx="46.59" ry="18"/>
<text text-anchor="middle" x="387" y="-86.3" font-family="Times,serif" font-size="14.00">filesystem</text>
</g>
<!-- glibc&#45;&gt;filesystem -->
<g id="edge12" class="edge">
<title>glibc&#45;&gt;filesystem</title>
<path fill="none" stroke="#8b4513" d="M308.24,-147.83C322.04,-137.88 341.28,-123.99 357.29,-112.44"/>
<polygon fill="#8b4513" stroke="#8b4513" points="359.74,-114.99 365.8,-106.3 355.64,-109.31 359.74,-114.99"/>
</g>
<!-- linux&#45;api&#45;headers -->
<g id="node11" class="node">
<title>linux&#45;api&#45;headers</title>
<ellipse fill="green" stroke="green" cx="142" cy="-18" rx="71.49" ry="18"/>
<text text-anchor="middle" x="142" y="-14.3" font-family="Times,serif" font-size="14.00">linux&#45;api&#45;headers</text>
</g>
<!-- linux&#45;api&#45;headers&gt;=4.10&#45;&gt;linux&#45;api&#45;headers -->
<g id="edge10" class="edge">
<title>linux&#45;api&#45;headers&gt;=4.10&#45;&gt;linux&#45;api&#45;headers</title>
<path fill="none" stroke="grey" d="M142,-71.7C142,-60.85 142,-46.92 142,-36.1"/>
</g>
<!-- iana&#45;etc -->
<g id="node14" class="node">
<title>iana&#45;etc</title>
<ellipse fill="green" stroke="green" cx="387" cy="-18" rx="38.19" ry="18"/>
<text text-anchor="middle" x="387" y="-14.3" font-family="Times,serif" font-size="14.00">iana&#45;etc</text>
</g>
<!-- filesystem&#45;&gt;iana&#45;etc -->
<g id="edge13" class="edge">
<title>filesystem&#45;&gt;iana&#45;etc</title>
<path fill="none" stroke="#8b4513" d="M387,-71.7C387,-63.98 387,-54.71 387,-46.11"/>
<polygon fill="#8b4513" stroke="#8b4513" points="390.5,-46.1 387,-36.1 383.5,-46.1 390.5,-46.1"/>
</g>
<!-- ncurses&#45;&gt;glibc -->
<g id="edge15" class="edge">
<title>ncurses&#45;&gt;glibc</title>
<path fill="none" stroke="#8b4513" d="M287.24,-359.85C287.76,-322.83 288.99,-235.18 289.62,-190.39"/>
<polygon fill="#8b4513" stroke="#8b4513" points="293.12,-190.28 289.76,-180.23 286.12,-190.18 293.12,-190.28"/>
</g>
<!-- gcc&#45;libs -->
<g id="node16" class="node">
<title>gcc&#45;libs</title>
<ellipse fill="green" stroke="green" cx="171" cy="-306" rx="38.19" ry="18"/>
<text text-anchor="middle" x="171" y="-302.3" font-family="Times,serif" font-size="14.00">gcc&#45;libs</text>
</g>
<!-- ncurses&#45;&gt;gcc&#45;libs -->
<g id="edge16" class="edge">
<title>ncurses&#45;&gt;gcc&#45;libs</title>
<path fill="none" stroke="#8b4513" d="M264.63,-363.5C246.94,-352.82 222.01,-337.78 202.32,-325.9"/>
<polygon fill="#8b4513" stroke="#8b4513" points="204.06,-322.86 193.69,-320.69 200.45,-328.86 204.06,-322.86"/>
</g>
<!-- glibc&gt;=2.27 -->
<g id="node17" class="node">
<title>glibc&gt;=2.27</title>
<ellipse fill="green" stroke="green" cx="169" cy="-234" rx="54.69" ry="18"/>
<text text-anchor="middle" x="169" y="-230.3" font-family="Times,serif" font-size="14.00">glibc&gt;=2.27</text>
</g>
<!-- gcc&#45;libs&#45;&gt;glibc&gt;=2.27 -->
<g id="edge17" class="edge">
<title>gcc&#45;libs&#45;&gt;glibc&gt;=2.27</title>
<path fill="none" stroke="#8b4513" d="M170.51,-287.7C170.29,-279.98 170.02,-270.71 169.77,-262.11"/>
<polygon fill="#8b4513" stroke="#8b4513" points="173.27,-262 169.49,-252.1 166.28,-262.2 173.27,-262"/>
</g>
<!-- glibc&gt;=2.27&#45;&gt;glibc -->
<g id="edge18" class="edge">
<title>glibc&gt;=2.27&#45;&gt;glibc</title>
<path fill="none" stroke="grey" d="M194.96,-217.98C217.32,-205.05 249.14,-186.64 269.69,-174.75"/>
</g>
<!-- libncursesw.so=6&#45;64&#45;&gt;ncurses -->
<g id="edge20" class="edge">
<title>libncursesw.so=6&#45;64&#45;&gt;ncurses</title>
<path fill="none" stroke="grey" d="M373.02,-432.76C353.64,-420.65 327.44,-404.27 309.06,-392.79"/>
</g>
<!-- gmp&gt;=5.0 -->
<g id="node20" class="node">
<title>gmp&gt;=5.0</title>
<ellipse fill="green" stroke="green" cx="76" cy="-882" rx="48.19" ry="18"/>
<text text-anchor="middle" x="76" y="-878.3" font-family="Times,serif" font-size="14.00">gmp&gt;=5.0</text>
</g>
<!-- mpfr&#45;&gt;gmp&gt;=5.0 -->
<g id="edge25" class="edge">
<title>mpfr&#45;&gt;gmp&gt;=5.0</title>
<path fill="none" stroke="#8b4513" d="M118.02,-937.46C111.22,-928.65 102.56,-917.43 94.87,-907.46"/>
<polygon fill="#8b4513" stroke="#8b4513" points="97.58,-905.25 88.7,-899.47 92.04,-909.52 97.58,-905.25"/>
</g>
<!-- gmp -->
<g id="node21" class="node">
<title>gmp</title>
<ellipse fill="green" stroke="green" cx="141" cy="-810" rx="27" ry="18"/>
<text text-anchor="middle" x="141" y="-806.3" font-family="Times,serif" font-size="14.00">gmp</text>
</g>
<!-- gmp&gt;=5.0&#45;&gt;gmp -->
<g id="edge26" class="edge">
<title>gmp&gt;=5.0&#45;&gt;gmp</title>
<path fill="none" stroke="grey" d="M91.08,-864.76C102.03,-852.97 116.72,-837.14 127.33,-825.72"/>
</g>
<!-- gmp&#45;&gt;sh -->
<g id="edge28" class="edge">
<title>gmp&#45;&gt;sh</title>
<path fill="none" stroke="#8b4513" d="M162.07,-798.35C166.91,-796.1 172.08,-793.85 177,-792 228.43,-772.68 290.1,-756.41 327.91,-747.18"/>
<polygon fill="#8b4513" stroke="#8b4513" points="329.01,-750.51 337.91,-744.76 327.37,-743.71 329.01,-750.51"/>
</g>
<!-- gmp&#45;&gt;gcc&#45;libs -->
<g id="edge27" class="edge">
<title>gmp&#45;&gt;gcc&#45;libs</title>
<path fill="none" stroke="#8b4513" d="M139.81,-791.96C138.07,-765.31 135,-712.15 135,-667 135,-667 135,-667 135,-449 135,-407.55 149.59,-361.32 160.2,-333.2"/>
<polygon fill="#8b4513" stroke="#8b4513" points="163.53,-334.29 163.89,-323.7 157,-331.75 163.53,-334.29"/>
</g>
<!-- m4&#45;&gt;bash -->
<g id="edge31" class="edge">
<title>m4&#45;&gt;bash</title>
<path fill="none" stroke="#8b4513" d="M422.02,-722.83C411.49,-712.87 397.22,-699.37 385.34,-688.14"/>
<polygon fill="#8b4513" stroke="#8b4513" points="387.62,-685.47 377.95,-681.14 382.81,-690.56 387.62,-685.47"/>
</g>
<!-- m4&#45;&gt;glibc -->
<g id="edge30" class="edge">
<title>m4&#45;&gt;glibc</title>
<path fill="none" stroke="#8b4513" d="M455.39,-724.74C495.45,-697.36 587,-630.86 587,-595 587,-595 587,-595 587,-305 587,-191.91 409.57,-168.81 328.99,-164.15"/>
<polygon fill="#8b4513" stroke="#8b4513" points="328.91,-160.64 318.75,-163.62 328.56,-167.63 328.91,-160.64"/>
</g>
<!-- diffutils&#45;&gt;bash -->
<g id="edge34" class="edge">
<title>diffutils&#45;&gt;bash</title>
<path fill="none" stroke="#8b4513" d="M493.01,-724.97C465.6,-712.74 423.18,-693.83 394.31,-680.96"/>
<polygon fill="#8b4513" stroke="#8b4513" points="395.64,-677.72 385.08,-676.84 392.79,-684.11 395.64,-677.72"/>
</g>
<!-- diffutils&#45;&gt;glibc -->
<g id="edge33" class="edge">
<title>diffutils&#45;&gt;glibc</title>
<path fill="none" stroke="#8b4513" d="M540.74,-722.63C571.34,-699.56 625,-651.11 625,-595 625,-595 625,-595 625,-305 625,-177.68 417.34,-162.82 329.01,-162.26"/>
<polygon fill="#8b4513" stroke="#8b4513" points="328.85,-158.76 318.85,-162.26 328.85,-165.76 328.85,-158.76"/>
</g>
<!-- perl&#45;&gt;glibc -->
<g id="edge45" class="edge">
<title>perl&#45;&gt;glibc</title>
<path fill="none" stroke="#8b4513" d="M208.63,-938.67C178.7,-908.7 111.87,-841.08 105,-828 86.2,-792.19 86,-779.45 86,-739 86,-739 86,-739 86,-305 86,-264.55 77.4,-245.57 105,-216 142.73,-175.59 208.98,-165.28 251.12,-163.04"/>
<polygon fill="#8b4513" stroke="#8b4513" points="251.43,-166.53 261.28,-162.63 251.14,-159.53 251.43,-166.53"/>
</g>
<!-- gdbm&gt;=1.17 -->
<g id="node25" class="node">
<title>gdbm&gt;=1.17</title>
<ellipse fill="green" stroke="green" cx="276" cy="-882" rx="57.69" ry="18"/>
<text text-anchor="middle" x="276" y="-878.3" font-family="Times,serif" font-size="14.00">gdbm&gt;=1.17</text>
</g>
<!-- perl&#45;&gt;gdbm&gt;=1.17 -->
<g id="edge36" class="edge">
<title>perl&#45;&gt;gdbm&gt;=1.17</title>
<path fill="none" stroke="#8b4513" d="M234.76,-937.46C241.27,-928.87 249.52,-917.97 256.93,-908.19"/>
<polygon fill="#8b4513" stroke="#8b4513" points="259.91,-910.05 263.16,-899.96 254.33,-905.82 259.91,-910.05"/>
</g>
<!-- db -->
<g id="node27" class="node">
<title>db</title>
<ellipse fill="green" stroke="green" cx="213" cy="-810" rx="27" ry="18"/>
<text text-anchor="middle" x="213" y="-806.3" font-family="Times,serif" font-size="14.00">db</text>
</g>
<!-- perl&#45;&gt;db -->
<g id="edge41" class="edge">
<title>perl&#45;&gt;db</title>
<path fill="none" stroke="#8b4513" d="M217.32,-936.04C214.18,-925.74 210.59,-912.27 209,-900 206.33,-879.42 207.56,-855.97 209.33,-838.31"/>
<polygon fill="#8b4513" stroke="#8b4513" points="212.83,-838.46 210.47,-828.14 205.88,-837.68 212.83,-838.46"/>
</g>
<!-- gdbm -->
<g id="node26" class="node">
<title>gdbm</title>
<ellipse fill="green" stroke="green" cx="289" cy="-810" rx="31.4" ry="18"/>
<text text-anchor="middle" x="289" y="-806.3" font-family="Times,serif" font-size="14.00">gdbm</text>
</g>
<!-- gdbm&gt;=1.17&#45;&gt;gdbm -->
<g id="edge37" class="edge">
<title>gdbm&gt;=1.17&#45;&gt;gdbm</title>
<path fill="none" stroke="grey" d="M279.21,-863.7C281.23,-852.85 283.82,-838.92 285.82,-828.1"/>
</g>
<!-- gdbm&#45;&gt;sh -->
<g id="edge39" class="edge">
<title>gdbm&#45;&gt;sh</title>
<path fill="none" stroke="#8b4513" d="M304.69,-794.15C315.1,-784.31 328.93,-771.23 340.5,-760.28"/>
<polygon fill="#8b4513" stroke="#8b4513" points="343.23,-762.52 348.09,-753.11 338.42,-757.44 343.23,-762.52"/>
</g>
<!-- gdbm&#45;&gt;glibc -->
<g id="edge38" class="edge">
<title>gdbm&#45;&gt;glibc</title>
<path fill="none" stroke="#8b4513" d="M273.96,-793.9C251.29,-769.47 211,-718.75 211,-667 211,-667 211,-667 211,-521 211,-394.31 258.76,-248.2 280.01,-189.46"/>
<polygon fill="#8b4513" stroke="#8b4513" points="283.38,-190.44 283.54,-179.85 276.81,-188.03 283.38,-190.44"/>
</g>
<!-- db&#45;&gt;sh -->
<g id="edge43" class="edge">
<title>db&#45;&gt;sh</title>
<path fill="none" stroke="#8b4513" d="M234.31,-798.91C239.14,-796.63 244.24,-794.23 249,-792 277.02,-778.87 308.96,-764.03 331.89,-753.4"/>
<polygon fill="#8b4513" stroke="#8b4513" points="333.53,-756.5 341.13,-749.12 330.58,-750.15 333.53,-756.5"/>
</g>
<!-- db&#45;&gt;gcc&#45;libs -->
<g id="edge42" class="edge">
<title>db&#45;&gt;gcc&#45;libs</title>
<path fill="none" stroke="#8b4513" d="M205.1,-792.38C193.44,-766.29 173,-713.87 173,-667 173,-667 173,-667 173,-449 173,-408.99 172.2,-362.65 171.61,-334.08"/>
<polygon fill="#8b4513" stroke="#8b4513" points="175.11,-333.97 171.4,-324.05 168.11,-334.12 175.11,-333.97"/>
</g>
</g>
</svg>
