<?xml version="1.0" encoding="UTF-8" standalone="no"?>
<!DOCTYPE svg PUBLIC "-//W3C//DTD SVG 1.1//EN"
 "http://www.w3.org/Graphics/SVG/1.1/DTD/svg11.dtd">
<!-- Generated by graphviz version 2.44.0 (0)
 -->
<!-- Title: G Pages: 1 -->
<svg width="1232pt" height="1700pt"
 viewBox="0.00 0.00 1232.10 1700.00" xmlns="http://www.w3.org/2000/svg" xmlns:xlink="http://www.w3.org/1999/xlink">
<g id="graph0" class="graph" transform="scale(1 1) rotate(0) translate(4 1696)">
<title>G</title>
<polygon fill="white" stroke="transparent" points="-4,4 -4,-1696 1228.1,-1696 1228.1,4 -4,4"/>
<!-- START -->
<g id="node1" class="node">
<title>START</title>
<ellipse fill="red" stroke="red" cx="673" cy="-1674" rx="38.19" ry="18"/>
<text text-anchor="middle" x="673" y="-1670.3" font-family="Times,serif" font-size="14.00">START</text>
</g>
<!-- avahi -->
<g id="node2" class="node">
<title>avahi</title>
<ellipse fill="green" stroke="green" cx="673" cy="-1602" rx="29.8" ry="18"/>
<text text-anchor="middle" x="673" y="-1598.3" font-family="Times,serif" font-size="14.00">avahi</text>
</g>
<!-- START&#45;&gt;avahi -->
<g id="edge1" class="edge">
<title>START&#45;&gt;avahi</title>
<path fill="none" stroke="black" d="M673,-1655.7C673,-1647.98 673,-1638.71 673,-1630.11"/>
<polygon fill="black" stroke="black" points="676.5,-1630.1 673,-1620.1 669.5,-1630.1 676.5,-1630.1"/>
</g>
<!-- expat -->
<g id="node3" class="node">
<title>expat</title>
<ellipse fill="green" stroke="green" cx="330" cy="-1386" rx="29.8" ry="18"/>
<text text-anchor="middle" x="330" y="-1382.3" font-family="Times,serif" font-size="14.00">expat</text>
</g>
<!-- avahi&#45;&gt;expat -->
<g id="edge2" class="edge">
<title>avahi&#45;&gt;expat</title>
<path fill="none" stroke="#8b4513" d="M643.2,-1599.67C575.54,-1596.05 413.18,-1583.76 374,-1548 336.37,-1513.66 329.67,-1450.55 329.17,-1414.39"/>
<polygon fill="#8b4513" stroke="#8b4513" points="332.67,-1414.09 329.19,-1404.09 325.67,-1414.08 332.67,-1414.09"/>
</g>
<!-- libdaemon -->
<g id="node10" class="node">
<title>libdaemon</title>
<ellipse fill="green" stroke="green" cx="1176" cy="-1530" rx="48.19" ry="18"/>
<text text-anchor="middle" x="1176" y="-1526.3" font-family="Times,serif" font-size="14.00">libdaemon</text>
</g>
<!-- avahi&#45;&gt;libdaemon -->
<g id="edge9" class="edge">
<title>avahi&#45;&gt;libdaemon</title>
<path fill="none" stroke="#8b4513" d="M702.65,-1598.96C774.02,-1593.72 960.76,-1578.04 1114,-1548 1119.14,-1546.99 1124.48,-1545.78 1129.77,-1544.48"/>
<polygon fill="#8b4513" stroke="#8b4513" points="1131.01,-1547.77 1139.82,-1541.89 1129.27,-1541 1131.01,-1547.77"/>
</g>
<!-- glib2 -->
<g id="node11" class="node">
<title>glib2</title>
<ellipse fill="green" stroke="green" cx="225" cy="-954" rx="28.7" ry="18"/>
<text text-anchor="middle" x="225" y="-950.3" font-family="Times,serif" font-size="14.00">glib2</text>
</g>
<!-- avahi&#45;&gt;glib2 -->
<g id="edge10" class="edge">
<title>avahi&#45;&gt;glib2</title>
<path fill="none" stroke="#8b4513" d="M643.31,-1599.81C570.31,-1595.15 388,-1572.19 388,-1459 388,-1459 388,-1459 388,-1097 388,-1029.23 306.91,-986.42 259.12,-967.07"/>
<polygon fill="#8b4513" stroke="#8b4513" points="260.34,-963.79 249.76,-963.41 257.79,-970.31 260.34,-963.79"/>
</g>
<!-- libcap -->
<g id="node26" class="node">
<title>libcap</title>
<ellipse fill="green" stroke="green" cx="1100" cy="-882" rx="32.49" ry="18"/>
<text text-anchor="middle" x="1100" y="-878.3" font-family="Times,serif" font-size="14.00">libcap</text>
</g>
<!-- avahi&#45;&gt;libcap -->
<g id="edge39" class="edge">
<title>avahi&#45;&gt;libcap</title>
<path fill="none" stroke="#8b4513" d="M702.35,-1597.7C798.82,-1586.06 1100,-1542.98 1100,-1459 1100,-1459 1100,-1459 1100,-1025 1100,-985 1100,-938.65 1100,-910.08"/>
<polygon fill="#8b4513" stroke="#8b4513" points="1103.5,-910.05 1100,-900.05 1096.5,-910.05 1103.5,-910.05"/>
</g>
<!-- gdbm -->
<g id="node28" class="node">
<title>gdbm</title>
<ellipse fill="green" stroke="green" cx="605" cy="-810" rx="31.4" ry="18"/>
<text text-anchor="middle" x="605" y="-806.3" font-family="Times,serif" font-size="14.00">gdbm</text>
</g>
<!-- avahi&#45;&gt;gdbm -->
<g id="edge43" class="edge">
<title>avahi&#45;&gt;gdbm</title>
<path fill="none" stroke="#8b4513" d="M647.03,-1592.96C599.19,-1576.37 502,-1533.48 502,-1459 502,-1459 502,-1459 502,-953 502,-901.22 547.43,-855.59 577.95,-830.77"/>
<polygon fill="#8b4513" stroke="#8b4513" points="580.42,-833.28 586.11,-824.34 576.09,-827.78 580.42,-833.28"/>
</g>
<!-- dbus -->
<g id="node29" class="node">
<title>dbus</title>
<ellipse fill="green" stroke="green" cx="776" cy="-1458" rx="27.1" ry="18"/>
<text text-anchor="middle" x="776" y="-1454.3" font-family="Times,serif" font-size="14.00">dbus</text>
</g>
<!-- avahi&#45;&gt;dbus -->
<g id="edge47" class="edge">
<title>avahi&#45;&gt;dbus</title>
<path fill="none" stroke="#8b4513" d="M697.83,-1591.66C716.95,-1583.18 742.5,-1568.79 757,-1548 769.6,-1529.93 774.11,-1505.15 775.61,-1486.32"/>
<polygon fill="#8b4513" stroke="#8b4513" points="779.11,-1486.47 776.17,-1476.29 772.12,-1486.08 779.11,-1486.47"/>
</g>
<!-- libdbus&#45;1.so=3&#45;64 -->
<g id="node48" class="node">
<title>libdbus&#45;1.so=3&#45;64</title>
<ellipse fill="green" stroke="green" cx="673" cy="-1530" rx="75.29" ry="18"/>
<text text-anchor="middle" x="673" y="-1526.3" font-family="Times,serif" font-size="14.00">libdbus&#45;1.so=3&#45;64</text>
</g>
<!-- avahi&#45;&gt;libdbus&#45;1.so=3&#45;64 -->
<g id="edge90" class="edge">
<title>avahi&#45;&gt;libdbus&#45;1.so=3&#45;64</title>
<path fill="none" stroke="#8b4513" d="M673,-1583.7C673,-1575.98 673,-1566.71 673,-1558.11"/>
<polygon fill="#8b4513" stroke="#8b4513" points="676.5,-1558.1 673,-1548.1 669.5,-1558.1 676.5,-1558.1"/>
</g>
<!-- glibc -->
<g id="node4" class="node">
<title>glibc</title>
<ellipse fill="green" stroke="green" cx="692" cy="-162" rx="28.7" ry="18"/>
<text text-anchor="middle" x="692" y="-158.3" font-family="Times,serif" font-size="14.00">glibc</text>
</g>
<!-- expat&#45;&gt;glibc -->
<g id="edge3" class="edge">
<title>expat&#45;&gt;glibc</title>
<path fill="none" stroke="#8b4513" d="M299.84,-1385.58C218.38,-1385.42 0,-1372.89 0,-1243 0,-1243 0,-1243 0,-305 0,-257.05 19.55,-240.11 61,-216 112.12,-186.26 523.19,-169.07 652.92,-164.34"/>
<polygon fill="#8b4513" stroke="#8b4513" points="653.31,-167.83 663.18,-163.97 653.06,-160.84 653.31,-167.83"/>
</g>
<!-- linux&#45;api&#45;headers&gt;=4.10 -->
<g id="node5" class="node">
<title>linux&#45;api&#45;headers&gt;=4.10</title>
<ellipse fill="green" stroke="green" cx="544" cy="-90" rx="98.28" ry="18"/>
<text text-anchor="middle" x="544" y="-86.3" font-family="Times,serif" font-size="14.00">linux&#45;api&#45;headers&gt;=4.10</text>
</g>
<!-- glibc&#45;&gt;linux&#45;api&#45;headers&gt;=4.10 -->
<g id="edge4" class="edge">
<title>glibc&#45;&gt;linux&#45;api&#45;headers&gt;=4.10</title>
<path fill="none" stroke="#8b4513" d="M669.84,-150.52C648.06,-140.22 614.23,-124.22 587.13,-111.4"/>
<polygon fill="#8b4513" stroke="#8b4513" points="588.39,-108.12 577.85,-107.01 585.4,-114.45 588.39,-108.12"/>
</g>
<!-- tzdata -->
<g id="node7" class="node">
<title>tzdata</title>
<ellipse fill="green" stroke="green" cx="692" cy="-90" rx="31.7" ry="18"/>
<text text-anchor="middle" x="692" y="-86.3" font-family="Times,serif" font-size="14.00">tzdata</text>
</g>
<!-- glibc&#45;&gt;tzdata -->
<g id="edge6" class="edge">
<title>glibc&#45;&gt;tzdata</title>
<path fill="none" stroke="#8b4513" d="M692,-143.7C692,-135.98 692,-126.71 692,-118.11"/>
<polygon fill="#8b4513" stroke="#8b4513" points="695.5,-118.1 692,-108.1 688.5,-118.1 695.5,-118.1"/>
</g>
<!-- filesystem -->
<g id="node8" class="node">
<title>filesystem</title>
<ellipse fill="green" stroke="green" cx="789" cy="-90" rx="46.59" ry="18"/>
<text text-anchor="middle" x="789" y="-86.3" font-family="Times,serif" font-size="14.00">filesystem</text>
</g>
<!-- glibc&#45;&gt;filesystem -->
<g id="edge7" class="edge">
<title>glibc&#45;&gt;filesystem</title>
<path fill="none" stroke="#8b4513" d="M710.24,-147.83C724.04,-137.88 743.28,-123.99 759.29,-112.44"/>
<polygon fill="#8b4513" stroke="#8b4513" points="761.74,-114.99 767.8,-106.3 757.64,-109.31 761.74,-114.99"/>
</g>
<!-- linux&#45;api&#45;headers -->
<g id="node6" class="node">
<title>linux&#45;api&#45;headers</title>
<ellipse fill="green" stroke="green" cx="544" cy="-18" rx="71.49" ry="18"/>
<text text-anchor="middle" x="544" y="-14.3" font-family="Times,serif" font-size="14.00">linux&#45;api&#45;headers</text>
</g>
<!-- linux&#45;api&#45;headers&gt;=4.10&#45;&gt;linux&#45;api&#45;headers -->
<g id="edge5" class="edge">
<title>linux&#45;api&#45;headers&gt;=4.10&#45;&gt;linux&#45;api&#45;headers</title>
<path fill="none" stroke="grey" d="M544,-71.7C544,-60.85 544,-46.92 544,-36.1"/>
</g>
<!-- iana&#45;etc -->
<g id="node9" class="node">
<title>iana&#45;etc</title>
<ellipse fill="green" stroke="green" cx="789" cy="-18" rx="38.19" ry="18"/>
<text text-anchor="middle" x="789" y="-14.3" font-family="Times,serif" font-size="14.00">iana&#45;etc</text>
</g>
<!-- filesystem&#45;&gt;iana&#45;etc -->
<g id="edge8" class="edge">
<title>filesystem&#45;&gt;iana&#45;etc</title>
<path fill="none" stroke="#8b4513" d="M789,-71.7C789,-63.98 789,-54.71 789,-46.11"/>
<polygon fill="#8b4513" stroke="#8b4513" points="792.5,-46.1 789,-36.1 785.5,-46.1 792.5,-46.1"/>
</g>
<!-- pcre -->
<g id="node12" class="node">
<title>pcre</title>
<ellipse fill="green" stroke="green" cx="165" cy="-882" rx="27" ry="18"/>
<text text-anchor="middle" x="165" y="-878.3" font-family="Times,serif" font-size="14.00">pcre</text>
</g>
<!-- glib2&#45;&gt;pcre -->
<g id="edge11" class="edge">
<title>glib2&#45;&gt;pcre</title>
<path fill="none" stroke="#8b4513" d="M211.98,-937.81C203.96,-928.45 193.53,-916.28 184.53,-905.79"/>
<polygon fill="#8b4513" stroke="#8b4513" points="187.16,-903.47 177.99,-898.16 181.84,-908.03 187.16,-903.47"/>
</g>
<!-- zlib -->
<g id="node18" class="node">
<title>zlib</title>
<ellipse fill="green" stroke="green" cx="55" cy="-810" rx="27" ry="18"/>
<text text-anchor="middle" x="55" y="-806.3" font-family="Times,serif" font-size="14.00">zlib</text>
</g>
<!-- glib2&#45;&gt;zlib -->
<g id="edge36" class="edge">
<title>glib2&#45;&gt;zlib</title>
<path fill="none" stroke="#8b4513" d="M197.84,-947.97C169.27,-941.42 124.57,-927.4 96,-900 78.41,-883.13 67.67,-857.27 61.62,-837.77"/>
<polygon fill="#8b4513" stroke="#8b4513" points="64.92,-836.6 58.8,-827.96 58.2,-838.53 64.92,-836.6"/>
</g>
<!-- libffi -->
<g id="node23" class="node">
<title>libffi</title>
<ellipse fill="green" stroke="green" cx="101" cy="-738" rx="27.9" ry="18"/>
<text text-anchor="middle" x="101" y="-734.3" font-family="Times,serif" font-size="14.00">libffi</text>
</g>
<!-- glib2&#45;&gt;libffi -->
<g id="edge33" class="edge">
<title>glib2&#45;&gt;libffi</title>
<path fill="none" stroke="#8b4513" d="M199.09,-945.68C176.9,-938.02 145.91,-923.72 129,-900 100.62,-860.18 97.76,-801.01 98.92,-766.58"/>
<polygon fill="#8b4513" stroke="#8b4513" points="102.43,-766.49 99.42,-756.33 95.44,-766.15 102.43,-766.49"/>
</g>
<!-- libutil&#45;linux -->
<g id="node24" class="node">
<title>libutil&#45;linux</title>
<ellipse fill="green" stroke="green" cx="393" cy="-810" rx="52.79" ry="18"/>
<text text-anchor="middle" x="393" y="-806.3" font-family="Times,serif" font-size="14.00">libutil&#45;linux</text>
</g>
<!-- glib2&#45;&gt;libutil&#45;linux -->
<g id="edge35" class="edge">
<title>glib2&#45;&gt;libutil&#45;linux</title>
<path fill="none" stroke="#8b4513" d="M253.06,-950.31C285.59,-945.68 338.62,-933.22 369,-900 384.31,-883.26 390.02,-857.77 392.07,-838.35"/>
<polygon fill="#8b4513" stroke="#8b4513" points="395.57,-838.53 392.87,-828.29 388.59,-837.98 395.57,-838.53"/>
</g>
<!-- libmount.so=1&#45;64 -->
<g id="node25" class="node">
<title>libmount.so=1&#45;64</title>
<ellipse fill="green" stroke="green" cx="285" cy="-882" rx="74.99" ry="18"/>
<text text-anchor="middle" x="285" y="-878.3" font-family="Times,serif" font-size="14.00">libmount.so=1&#45;64</text>
</g>
<!-- glib2&#45;&gt;libmount.so=1&#45;64 -->
<g id="edge37" class="edge">
<title>glib2&#45;&gt;libmount.so=1&#45;64</title>
<path fill="none" stroke="#8b4513" d="M238.02,-937.81C245.53,-929.05 255.15,-917.83 263.72,-907.82"/>
<polygon fill="#8b4513" stroke="#8b4513" points="266.47,-910 270.32,-900.13 261.15,-905.44 266.47,-910"/>
</g>
<!-- gcc&#45;libs -->
<g id="node13" class="node">
<title>gcc&#45;libs</title>
<ellipse fill="green" stroke="green" cx="271" cy="-306" rx="38.19" ry="18"/>
<text text-anchor="middle" x="271" y="-302.3" font-family="Times,serif" font-size="14.00">gcc&#45;libs</text>
</g>
<!-- pcre&#45;&gt;gcc&#45;libs -->
<g id="edge12" class="edge">
<title>pcre&#45;&gt;gcc&#45;libs</title>
<path fill="none" stroke="#8b4513" d="M168.17,-863.82C183.23,-782.29 247.51,-434.18 266.01,-334.05"/>
<polygon fill="#8b4513" stroke="#8b4513" points="269.47,-334.58 267.84,-324.11 262.58,-333.31 269.47,-334.58"/>
</g>
<!-- readline -->
<g id="node15" class="node">
<title>readline</title>
<ellipse fill="green" stroke="green" cx="466" cy="-522" rx="38.99" ry="18"/>
<text text-anchor="middle" x="466" y="-518.3" font-family="Times,serif" font-size="14.00">readline</text>
</g>
<!-- pcre&#45;&gt;readline -->
<g id="edge15" class="edge">
<title>pcre&#45;&gt;readline</title>
<path fill="none" stroke="#8b4513" d="M172.31,-864.5C180.83,-846.04 195.96,-815.64 213,-792 285.63,-691.26 393.21,-588.95 441.26,-545.13"/>
<polygon fill="#8b4513" stroke="#8b4513" points="443.66,-547.68 448.71,-538.37 438.95,-542.5 443.66,-547.68"/>
</g>
<!-- pcre&#45;&gt;zlib -->
<g id="edge22" class="edge">
<title>pcre&#45;&gt;zlib</title>
<path fill="none" stroke="#8b4513" d="M145.84,-868.81C128.33,-857.67 102.24,-841.06 82.51,-828.5"/>
<polygon fill="#8b4513" stroke="#8b4513" points="84.26,-825.47 73.94,-823.05 80.5,-831.37 84.26,-825.47"/>
</g>
<!-- bzip2 -->
<g id="node19" class="node">
<title>bzip2</title>
<ellipse fill="green" stroke="green" cx="253" cy="-810" rx="30.59" ry="18"/>
<text text-anchor="middle" x="253" y="-806.3" font-family="Times,serif" font-size="14.00">bzip2</text>
</g>
<!-- pcre&#45;&gt;bzip2 -->
<g id="edge24" class="edge">
<title>pcre&#45;&gt;bzip2</title>
<path fill="none" stroke="#8b4513" d="M181.97,-867.5C194.83,-857.27 212.72,-843.04 227.32,-831.42"/>
<polygon fill="#8b4513" stroke="#8b4513" points="229.84,-833.9 235.48,-824.93 225.48,-828.42 229.84,-833.9"/>
</g>
<!-- bash -->
<g id="node21" class="node">
<title>bash</title>
<ellipse fill="green" stroke="green" cx="605" cy="-666" rx="27" ry="18"/>
<text text-anchor="middle" x="605" y="-662.3" font-family="Times,serif" font-size="14.00">bash</text>
</g>
<!-- pcre&#45;&gt;bash -->
<g id="edge32" class="edge">
<title>pcre&#45;&gt;bash</title>
<path fill="none" stroke="#8b4513" d="M186.21,-870.69C191.04,-868.42 196.18,-866.08 201,-864 241.32,-846.62 255.93,-851.53 293,-828 312.64,-815.53 311.71,-805.01 331,-792 411.03,-738.04 518.12,-696.9 571.63,-678.15"/>
<polygon fill="#8b4513" stroke="#8b4513" points="572.98,-681.39 581.28,-674.81 570.69,-674.78 572.98,-681.39"/>
</g>
<!-- glibc&gt;=2.27 -->
<g id="node14" class="node">
<title>glibc&gt;=2.27</title>
<ellipse fill="green" stroke="green" cx="271" cy="-234" rx="54.69" ry="18"/>
<text text-anchor="middle" x="271" y="-230.3" font-family="Times,serif" font-size="14.00">glibc&gt;=2.27</text>
</g>
<!-- gcc&#45;libs&#45;&gt;glibc&gt;=2.27 -->
<g id="edge13" class="edge">
<title>gcc&#45;libs&#45;&gt;glibc&gt;=2.27</title>
<path fill="none" stroke="#8b4513" d="M271,-287.7C271,-279.98 271,-270.71 271,-262.11"/>
<polygon fill="#8b4513" stroke="#8b4513" points="274.5,-262.1 271,-252.1 267.5,-262.1 274.5,-262.1"/>
</g>
<!-- glibc&gt;=2.27&#45;&gt;glibc -->
<g id="edge14" class="edge">
<title>glibc&gt;=2.27&#45;&gt;glibc</title>
<path fill="none" stroke="grey" d="M312.46,-222.13C321.5,-219.94 331.04,-217.77 340,-216 459.73,-192.29 604.23,-173.62 664.01,-166.32"/>
</g>
<!-- readline&#45;&gt;glibc -->
<g id="edge16" class="edge">
<title>readline&#45;&gt;glibc</title>
<path fill="none" stroke="#8b4513" d="M435.04,-510.97C414.36,-502.68 388.25,-488.85 373,-468 349.12,-435.36 354,-419.45 354,-379 354,-379 354,-379 354,-305 354,-176.56 564.02,-162.38 652.96,-162.13"/>
<polygon fill="#8b4513" stroke="#8b4513" points="653.17,-165.63 663.18,-162.16 653.19,-158.63 653.17,-165.63"/>
</g>
<!-- ncurses -->
<g id="node16" class="node">
<title>ncurses</title>
<ellipse fill="green" stroke="green" cx="578" cy="-378" rx="37.09" ry="18"/>
<text text-anchor="middle" x="578" y="-374.3" font-family="Times,serif" font-size="14.00">ncurses</text>
</g>
<!-- readline&#45;&gt;ncurses -->
<g id="edge17" class="edge">
<title>readline&#45;&gt;ncurses</title>
<path fill="none" stroke="#8b4513" d="M496.96,-510.97C517.64,-502.68 543.75,-488.85 559,-468 572.08,-450.11 576.53,-425.11 577.88,-406.16"/>
<polygon fill="#8b4513" stroke="#8b4513" points="581.38,-406.22 578.36,-396.07 574.39,-405.9 581.38,-406.22"/>
</g>
<!-- libncursesw.so=6&#45;64 -->
<g id="node17" class="node">
<title>libncursesw.so=6&#45;64</title>
<ellipse fill="green" stroke="green" cx="466" cy="-450" rx="83.69" ry="18"/>
<text text-anchor="middle" x="466" y="-446.3" font-family="Times,serif" font-size="14.00">libncursesw.so=6&#45;64</text>
</g>
<!-- readline&#45;&gt;libncursesw.so=6&#45;64 -->
<g id="edge20" class="edge">
<title>readline&#45;&gt;libncursesw.so=6&#45;64</title>
<path fill="none" stroke="#8b4513" d="M466,-503.7C466,-495.98 466,-486.71 466,-478.11"/>
<polygon fill="#8b4513" stroke="#8b4513" points="469.5,-478.1 466,-468.1 462.5,-478.1 469.5,-478.1"/>
</g>
<!-- ncurses&#45;&gt;glibc -->
<g id="edge18" class="edge">
<title>ncurses&#45;&gt;glibc</title>
<path fill="none" stroke="#8b4513" d="M582.1,-359.96C589.97,-329.36 609.21,-263.86 640,-216 647.6,-204.2 658.14,-192.84 667.74,-183.7"/>
<polygon fill="#8b4513" stroke="#8b4513" points="670.18,-186.21 675.18,-176.87 665.45,-181.06 670.18,-186.21"/>
</g>
<!-- ncurses&#45;&gt;gcc&#45;libs -->
<g id="edge19" class="edge">
<title>ncurses&#45;&gt;gcc&#45;libs</title>
<path fill="none" stroke="#8b4513" d="M545.15,-369.51C489.61,-356.85 377.17,-331.21 314.93,-317.02"/>
<polygon fill="#8b4513" stroke="#8b4513" points="315.55,-313.57 305.02,-314.76 313.99,-320.39 315.55,-313.57"/>
</g>
<!-- libncursesw.so=6&#45;64&#45;&gt;ncurses -->
<g id="edge21" class="edge">
<title>libncursesw.so=6&#45;64&#45;&gt;ncurses</title>
<path fill="none" stroke="grey" d="M491.98,-432.76C511.36,-420.65 537.56,-404.27 555.94,-392.79"/>
</g>
<!-- zlib&#45;&gt;glibc -->
<g id="edge23" class="edge">
<title>zlib&#45;&gt;glibc</title>
<path fill="none" stroke="#8b4513" d="M53.02,-791.98C50.11,-765.36 45,-712.23 45,-667 45,-667 45,-667 45,-305 45,-252.4 76.15,-239.92 123,-216 215.99,-168.53 540.65,-163.29 653.22,-162.93"/>
<polygon fill="#8b4513" stroke="#8b4513" points="653.44,-166.43 663.43,-162.91 653.43,-159.43 653.44,-166.43"/>
</g>
<!-- bzip2&#45;&gt;glibc -->
<g id="edge25" class="edge">
<title>bzip2&#45;&gt;glibc</title>
<path fill="none" stroke="#8b4513" d="M248.53,-791.94C233.85,-734.29 188,-541.33 188,-379 188,-379 188,-379 188,-305 188,-264.55 176.99,-243.11 207,-216 239.92,-186.26 543.84,-169.7 653.1,-164.67"/>
<polygon fill="#8b4513" stroke="#8b4513" points="653.52,-168.15 663.35,-164.2 653.2,-161.16 653.52,-168.15"/>
</g>
<!-- sh -->
<g id="node20" class="node">
<title>sh</title>
<ellipse fill="green" stroke="green" cx="605" cy="-738" rx="27" ry="18"/>
<text text-anchor="middle" x="605" y="-734.3" font-family="Times,serif" font-size="14.00">sh</text>
</g>
<!-- bzip2&#45;&gt;sh -->
<g id="edge26" class="edge">
<title>bzip2&#45;&gt;sh</title>
<path fill="none" stroke="#8b4513" d="M281.13,-802.7C295.95,-799.43 314.44,-795.41 331,-792 416.25,-774.47 516.76,-755.45 569.15,-745.66"/>
<polygon fill="#8b4513" stroke="#8b4513" points="570.08,-749.04 579.27,-743.77 568.8,-742.16 570.08,-749.04"/>
</g>
<!-- sh&#45;&gt;bash -->
<g id="edge27" class="edge">
<title>sh&#45;&gt;bash</title>
<path fill="none" stroke="grey" d="M580.32,-730.54C559.22,-717.2 559.23,-686.77 580.35,-673.44"/>
</g>
<!-- sh&#45;&gt;bash -->
<g id="edge46" class="edge">
<title>sh&#45;&gt;bash</title>
<path fill="none" stroke="grey" d="M584.75,-726.06C575.79,-712.99 575.75,-691.23 584.64,-678.09"/>
</g>
<!-- sh&#45;&gt;bash -->
<g id="edge55" class="edge">
<title>sh&#45;&gt;bash</title>
<path fill="none" stroke="grey" d="M593.56,-721.46C590.81,-709.86 590.81,-694.08 593.57,-682.49"/>
</g>
<!-- sh&#45;&gt;bash -->
<g id="edge60" class="edge">
<title>sh&#45;&gt;bash</title>
<path fill="none" stroke="grey" d="M605,-719.7C605,-708.85 605,-694.92 605,-684.1"/>
</g>
<!-- sh&#45;&gt;bash -->
<g id="edge66" class="edge">
<title>sh&#45;&gt;bash</title>
<path fill="none" stroke="grey" d="M616.44,-721.46C619.19,-709.86 619.19,-694.08 616.43,-682.49"/>
</g>
<!-- sh&#45;&gt;bash -->
<g id="edge77" class="edge">
<title>sh&#45;&gt;bash</title>
<path fill="none" stroke="grey" d="M625.25,-726.06C634.21,-712.99 634.25,-691.23 625.36,-678.09"/>
</g>
<!-- sh&#45;&gt;bash -->
<g id="edge83" class="edge">
<title>sh&#45;&gt;bash</title>
<path fill="none" stroke="grey" d="M629.68,-730.54C650.78,-717.2 650.77,-686.77 629.65,-673.44"/>
</g>
<!-- bash&#45;&gt;glibc -->
<g id="edge30" class="edge">
<title>bash&#45;&gt;glibc</title>
<path fill="none" stroke="#8b4513" d="M614.45,-649.01C628.69,-623.35 654,-570.99 654,-523 654,-523 654,-523 654,-305 654,-263.41 669.4,-217.22 680.6,-189.14"/>
<polygon fill="#8b4513" stroke="#8b4513" points="683.93,-190.24 684.49,-179.66 677.45,-187.58 683.93,-190.24"/>
</g>
<!-- bash&#45;&gt;ncurses -->
<g id="edge31" class="edge">
<title>bash&#45;&gt;ncurses</title>
<path fill="none" stroke="#8b4513" d="M603.39,-647.97C598.88,-600.19 586.08,-464.62 580.57,-406.27"/>
<polygon fill="#8b4513" stroke="#8b4513" points="584.06,-405.93 579.63,-396.31 577.09,-406.59 584.06,-405.93"/>
</g>
<!-- readline&gt;=7.0 -->
<g id="node22" class="node">
<title>readline&gt;=7.0</title>
<ellipse fill="green" stroke="green" cx="496" cy="-594" rx="61.19" ry="18"/>
<text text-anchor="middle" x="496" y="-590.3" font-family="Times,serif" font-size="14.00">readline&gt;=7.0</text>
</g>
<!-- bash&#45;&gt;readline&gt;=7.0 -->
<g id="edge28" class="edge">
<title>bash&#45;&gt;readline&gt;=7.0</title>
<path fill="none" stroke="#8b4513" d="M586.01,-652.81C570.32,-642.73 547.67,-628.19 529.02,-616.21"/>
<polygon fill="#8b4513" stroke="#8b4513" points="530.81,-613.2 520.5,-610.74 527.03,-619.09 530.81,-613.2"/>
</g>
<!-- readline&gt;=7.0&#45;&gt;readline -->
<g id="edge29" class="edge">
<title>readline&gt;=7.0&#45;&gt;readline</title>
<path fill="none" stroke="grey" d="M488.74,-576.05C484.02,-565.05 477.9,-550.76 473.2,-539.79"/>
</g>
<!-- libffi&#45;&gt;glibc -->
<g id="edge34" class="edge">
<title>libffi&#45;&gt;glibc</title>
<path fill="none" stroke="#8b4513" d="M102.78,-719.97C105.4,-693.34 110,-640.21 110,-595 110,-595 110,-595 110,-305 110,-256.28 131.83,-240.41 174,-216 255.41,-168.88 546.76,-163.35 652.94,-162.92"/>
<polygon fill="#8b4513" stroke="#8b4513" points="653.21,-166.42 663.2,-162.9 653.19,-159.42 653.21,-166.42"/>
</g>
<!-- libmount.so=1&#45;64&#45;&gt;libutil&#45;linux -->
<g id="edge38" class="edge">
<title>libmount.so=1&#45;64&#45;&gt;libutil&#45;linux</title>
<path fill="none" stroke="grey" d="M309.78,-864.94C327.71,-853.32 351.8,-837.7 369.45,-826.26"/>
</g>
<!-- libcap&#45;&gt;glibc -->
<g id="edge40" class="edge">
<title>libcap&#45;&gt;glibc</title>
<path fill="none" stroke="#8b4513" d="M1099.01,-863.96C1097.56,-837.31 1095,-784.14 1095,-739 1095,-739 1095,-739 1095,-305 1095,-254.95 1069.07,-241.49 1026,-216 976.54,-186.73 807.37,-171.23 730.53,-165.56"/>
<polygon fill="#8b4513" stroke="#8b4513" points="730.55,-162.05 720.32,-164.82 730.04,-169.03 730.55,-162.05"/>
</g>
<!-- attr -->
<g id="node27" class="node">
<title>attr</title>
<ellipse fill="green" stroke="green" cx="1150" cy="-594" rx="27" ry="18"/>
<text text-anchor="middle" x="1150" y="-590.3" font-family="Times,serif" font-size="14.00">attr</text>
</g>
<!-- libcap&#45;&gt;attr -->
<g id="edge41" class="edge">
<title>libcap&#45;&gt;attr</title>
<path fill="none" stroke="#8b4513" d="M1102.98,-863.97C1111.35,-816.08 1135.14,-679.98 1145.31,-621.85"/>
<polygon fill="#8b4513" stroke="#8b4513" points="1148.76,-622.4 1147.04,-611.94 1141.87,-621.19 1148.76,-622.4"/>
</g>
<!-- attr&#45;&gt;glibc -->
<g id="edge42" class="edge">
<title>attr&#45;&gt;glibc</title>
<path fill="none" stroke="#8b4513" d="M1148.22,-575.97C1145.6,-549.34 1141,-496.21 1141,-451 1141,-451 1141,-451 1141,-305 1141,-262.97 1141.79,-242.3 1109,-216 1051.24,-169.67 823.02,-163.49 730.89,-162.92"/>
<polygon fill="#8b4513" stroke="#8b4513" points="730.87,-159.42 720.86,-162.87 730.84,-166.42 730.87,-159.42"/>
</g>
<!-- gdbm&#45;&gt;glibc -->
<g id="edge44" class="edge">
<title>gdbm&#45;&gt;glibc</title>
<path fill="none" stroke="#8b4513" d="M621.36,-794.63C646.57,-770.83 692,-720.49 692,-667 692,-667 692,-667 692,-305 692,-265 692,-218.65 692,-190.08"/>
<polygon fill="#8b4513" stroke="#8b4513" points="695.5,-190.05 692,-180.05 688.5,-190.05 695.5,-190.05"/>
</g>
<!-- gdbm&#45;&gt;sh -->
<g id="edge45" class="edge">
<title>gdbm&#45;&gt;sh</title>
<path fill="none" stroke="#8b4513" d="M605,-791.7C605,-783.98 605,-774.71 605,-766.11"/>
<polygon fill="#8b4513" stroke="#8b4513" points="608.5,-766.1 605,-756.1 601.5,-766.1 608.5,-766.1"/>
</g>
<!-- dbus&#45;&gt;expat -->
<g id="edge61" class="edge">
<title>dbus&#45;&gt;expat</title>
<path fill="none" stroke="#8b4513" d="M749.77,-1452.88C674.51,-1441.07 457.62,-1407.03 368.71,-1393.08"/>
<polygon fill="#8b4513" stroke="#8b4513" points="369.19,-1389.61 358.77,-1391.52 368.11,-1396.52 369.19,-1389.61"/>
</g>
<!-- systemd&#45;libs -->
<g id="node30" class="node">
<title>systemd&#45;libs</title>
<ellipse fill="green" stroke="green" cx="991" cy="-954" rx="55.79" ry="18"/>
<text text-anchor="middle" x="991" y="-950.3" font-family="Times,serif" font-size="14.00">systemd&#45;libs</text>
</g>
<!-- dbus&#45;&gt;systemd&#45;libs -->
<g id="edge48" class="edge">
<title>dbus&#45;&gt;systemd&#45;libs</title>
<path fill="none" stroke="#8b4513" d="M790.9,-1442.3C800.48,-1432.21 812.66,-1418.14 821,-1404 908.41,-1255.82 965.38,-1054.7 984.17,-982.34"/>
<polygon fill="#8b4513" stroke="#8b4513" points="987.67,-982.8 986.76,-972.24 980.89,-981.06 987.67,-982.8"/>
</g>
<!-- audit -->
<g id="node35" class="node">
<title>audit</title>
<ellipse fill="green" stroke="green" cx="776" cy="-1314" rx="28.7" ry="18"/>
<text text-anchor="middle" x="776" y="-1310.3" font-family="Times,serif" font-size="14.00">audit</text>
</g>
<!-- dbus&#45;&gt;audit -->
<g id="edge62" class="edge">
<title>dbus&#45;&gt;audit</title>
<path fill="none" stroke="#8b4513" d="M787.8,-1441.24C794.58,-1431.17 802.45,-1417.5 806,-1404 810.08,-1388.53 810.08,-1383.47 806,-1368 803.36,-1357.98 798.35,-1347.87 793.17,-1339.2"/>
<polygon fill="#8b4513" stroke="#8b4513" points="796.11,-1337.32 787.8,-1330.76 790.21,-1341.08 796.11,-1337.32"/>
</g>
<!-- libsystemd.so=0&#45;64 -->
<g id="node46" class="node">
<title>libsystemd.so=0&#45;64</title>
<ellipse fill="green" stroke="green" cx="991" cy="-1314" rx="81.49" ry="18"/>
<text text-anchor="middle" x="991" y="-1310.3" font-family="Times,serif" font-size="14.00">libsystemd.so=0&#45;64</text>
</g>
<!-- dbus&#45;&gt;libsystemd.so=0&#45;64 -->
<g id="edge86" class="edge">
<title>dbus&#45;&gt;libsystemd.so=0&#45;64</title>
<path fill="none" stroke="#8b4513" d="M800.21,-1449.04C825.35,-1440.17 865.23,-1424.35 896,-1404 923.83,-1385.59 951.16,-1358.81 969.31,-1339.44"/>
<polygon fill="#8b4513" stroke="#8b4513" points="972.06,-1341.62 976.27,-1331.89 966.92,-1336.87 972.06,-1341.62"/>
</g>
<!-- libaudit.so=1&#45;64 -->
<g id="node47" class="node">
<title>libaudit.so=1&#45;64</title>
<ellipse fill="green" stroke="green" cx="727" cy="-1386" rx="69.59" ry="18"/>
<text text-anchor="middle" x="727" y="-1382.3" font-family="Times,serif" font-size="14.00">libaudit.so=1&#45;64</text>
</g>
<!-- dbus&#45;&gt;libaudit.so=1&#45;64 -->
<g id="edge88" class="edge">
<title>dbus&#45;&gt;libaudit.so=1&#45;64</title>
<path fill="none" stroke="#8b4513" d="M765.13,-1441.46C759.11,-1432.87 751.48,-1421.97 744.63,-1412.19"/>
<polygon fill="#8b4513" stroke="#8b4513" points="747.48,-1410.15 738.87,-1403.96 741.74,-1414.16 747.48,-1410.15"/>
</g>
<!-- systemd&#45;libs&#45;&gt;glibc -->
<g id="edge49" class="edge">
<title>systemd&#45;libs&#45;&gt;glibc</title>
<path fill="none" stroke="#8b4513" d="M990.51,-935.86C989.08,-884.31 985,-726.16 985,-595 985,-595 985,-595 985,-305 985,-193.29 810.39,-169.43 730.75,-164.36"/>
<polygon fill="#8b4513" stroke="#8b4513" points="730.81,-160.85 720.63,-163.78 730.41,-167.84 730.81,-160.85"/>
</g>
<!-- systemd&#45;libs&#45;&gt;libcap -->
<g id="edge50" class="edge">
<title>systemd&#45;libs&#45;&gt;libcap</title>
<path fill="none" stroke="#8b4513" d="M1014.92,-937.64C1031.36,-927.08 1053.28,-913 1070.76,-901.78"/>
<polygon fill="#8b4513" stroke="#8b4513" points="1072.91,-904.56 1079.44,-896.21 1069.13,-898.67 1072.91,-904.56"/>
</g>
<!-- libgcrypt -->
<g id="node31" class="node">
<title>libgcrypt</title>
<ellipse fill="green" stroke="green" cx="931" cy="-882" rx="42.79" ry="18"/>
<text text-anchor="middle" x="931" y="-878.3" font-family="Times,serif" font-size="14.00">libgcrypt</text>
</g>
<!-- systemd&#45;libs&#45;&gt;libgcrypt -->
<g id="edge51" class="edge">
<title>systemd&#45;libs&#45;&gt;libgcrypt</title>
<path fill="none" stroke="#8b4513" d="M976.78,-936.41C969.31,-927.69 960.01,-916.85 951.75,-907.21"/>
<polygon fill="#8b4513" stroke="#8b4513" points="954.28,-904.78 945.12,-899.47 948.97,-909.34 954.28,-904.78"/>
</g>
<!-- lz4 -->
<g id="node33" class="node">
<title>lz4</title>
<ellipse fill="green" stroke="green" cx="1040" cy="-666" rx="27" ry="18"/>
<text text-anchor="middle" x="1040" y="-662.3" font-family="Times,serif" font-size="14.00">lz4</text>
</g>
<!-- systemd&#45;libs&#45;&gt;lz4 -->
<g id="edge56" class="edge">
<title>systemd&#45;libs&#45;&gt;lz4</title>
<path fill="none" stroke="#8b4513" d="M1000.88,-935.91C1006.26,-925.79 1012.51,-912.54 1016,-900 1036.17,-827.59 1039.73,-738.28 1040.14,-694.22"/>
<polygon fill="#8b4513" stroke="#8b4513" points="1043.64,-694.05 1040.19,-684.03 1036.64,-694.01 1043.64,-694.05"/>
</g>
<!-- xz -->
<g id="node34" class="node">
<title>xz</title>
<ellipse fill="green" stroke="green" cx="767" cy="-882" rx="27" ry="18"/>
<text text-anchor="middle" x="767" y="-878.3" font-family="Times,serif" font-size="14.00">xz</text>
</g>
<!-- systemd&#45;libs&#45;&gt;xz -->
<g id="edge58" class="edge">
<title>systemd&#45;libs&#45;&gt;xz</title>
<path fill="none" stroke="#8b4513" d="M952.24,-940.89C909.53,-927.54 841.51,-906.28 800.86,-893.58"/>
<polygon fill="#8b4513" stroke="#8b4513" points="801.74,-890.19 791.15,-890.55 799.65,-896.87 801.74,-890.19"/>
</g>
<!-- libgpg&#45;error -->
<g id="node32" class="node">
<title>libgpg&#45;error</title>
<ellipse fill="green" stroke="green" cx="920" cy="-810" rx="53.89" ry="18"/>
<text text-anchor="middle" x="920" y="-806.3" font-family="Times,serif" font-size="14.00">libgpg&#45;error</text>
</g>
<!-- libgcrypt&#45;&gt;libgpg&#45;error -->
<g id="edge52" class="edge">
<title>libgcrypt&#45;&gt;libgpg&#45;error</title>
<path fill="none" stroke="#8b4513" d="M928.28,-863.7C927.07,-855.98 925.61,-846.71 924.26,-838.11"/>
<polygon fill="#8b4513" stroke="#8b4513" points="927.7,-837.44 922.69,-828.1 920.78,-838.53 927.7,-837.44"/>
</g>
<!-- libgpg&#45;error&#45;&gt;glibc -->
<g id="edge53" class="edge">
<title>libgpg&#45;error&#45;&gt;glibc</title>
<path fill="none" stroke="#8b4513" d="M915.55,-791.65C909.12,-765.02 898,-712.4 898,-667 898,-667 898,-667 898,-305 898,-260.47 885.86,-244.92 852,-216 817.17,-186.25 765.1,-173.07 729.91,-167.31"/>
<polygon fill="#8b4513" stroke="#8b4513" points="730.42,-163.85 720.01,-165.82 729.38,-170.77 730.42,-163.85"/>
</g>
<!-- libgpg&#45;error&#45;&gt;sh -->
<g id="edge54" class="edge">
<title>libgpg&#45;error&#45;&gt;sh</title>
<path fill="none" stroke="#8b4513" d="M876.53,-799.34C813.48,-785.33 697.89,-759.64 639.99,-746.77"/>
<polygon fill="#8b4513" stroke="#8b4513" points="640.73,-743.35 630.21,-744.6 639.21,-750.19 640.73,-743.35"/>
</g>
<!-- lz4&#45;&gt;glibc -->
<g id="edge57" class="edge">
<title>lz4&#45;&gt;glibc</title>
<path fill="none" stroke="#8b4513" d="M1038.42,-647.97C1036.09,-621.33 1032,-568.19 1032,-523 1032,-523 1032,-523 1032,-305 1032,-262.81 1031.45,-242.96 999,-216 958.76,-182.56 803.98,-169.39 730.78,-164.96"/>
<polygon fill="#8b4513" stroke="#8b4513" points="730.78,-161.45 720.6,-164.36 730.38,-168.44 730.78,-161.45"/>
</g>
<!-- xz&#45;&gt;sh -->
<g id="edge59" class="edge">
<title>xz&#45;&gt;sh</title>
<path fill="none" stroke="#8b4513" d="M746.19,-870.1C728.46,-860.31 702.8,-844.91 683,-828 659.84,-808.21 637.34,-781.48 622.5,-762.5"/>
<polygon fill="#8b4513" stroke="#8b4513" points="625.12,-760.16 616.25,-754.37 619.58,-764.43 625.12,-760.16"/>
</g>
<!-- krb5 -->
<g id="node36" class="node">
<title>krb5</title>
<ellipse fill="green" stroke="green" cx="699" cy="-1242" rx="27.1" ry="18"/>
<text text-anchor="middle" x="699" y="-1238.3" font-family="Times,serif" font-size="14.00">krb5</text>
</g>
<!-- audit&#45;&gt;krb5 -->
<g id="edge63" class="edge">
<title>audit&#45;&gt;krb5</title>
<path fill="none" stroke="#8b4513" d="M760.42,-1298.83C749.46,-1288.87 734.61,-1275.37 722.25,-1264.14"/>
<polygon fill="#8b4513" stroke="#8b4513" points="724.31,-1261.28 714.56,-1257.14 719.6,-1266.46 724.31,-1261.28"/>
</g>
<!-- libcap&#45;ng -->
<g id="node45" class="node">
<title>libcap&#45;ng</title>
<ellipse fill="green" stroke="green" cx="843" cy="-1170" rx="44.39" ry="18"/>
<text text-anchor="middle" x="843" y="-1166.3" font-family="Times,serif" font-size="14.00">libcap&#45;ng</text>
</g>
<!-- audit&#45;&gt;libcap&#45;ng -->
<g id="edge84" class="edge">
<title>audit&#45;&gt;libcap&#45;ng</title>
<path fill="none" stroke="#8b4513" d="M783.82,-1296.43C795.35,-1271.98 817.05,-1226 830.72,-1197.02"/>
<polygon fill="#8b4513" stroke="#8b4513" points="833.92,-1198.44 835.03,-1187.9 827.59,-1195.45 833.92,-1198.44"/>
</g>
<!-- e2fsprogs -->
<g id="node37" class="node">
<title>e2fsprogs</title>
<ellipse fill="green" stroke="green" cx="575" cy="-1098" rx="44.69" ry="18"/>
<text text-anchor="middle" x="575" y="-1094.3" font-family="Times,serif" font-size="14.00">e2fsprogs</text>
</g>
<!-- krb5&#45;&gt;e2fsprogs -->
<g id="edge64" class="edge">
<title>krb5&#45;&gt;e2fsprogs</title>
<path fill="none" stroke="#8b4513" d="M678.94,-1229.39C663.44,-1219.72 642.15,-1204.85 627,-1188 610.08,-1169.19 595.99,-1144.02 586.77,-1125.24"/>
<polygon fill="#8b4513" stroke="#8b4513" points="589.86,-1123.6 582.4,-1116.08 583.54,-1126.61 589.86,-1123.6"/>
</g>
<!-- libldap -->
<g id="node38" class="node">
<title>libldap</title>
<ellipse fill="green" stroke="green" cx="671" cy="-1170" rx="35.19" ry="18"/>
<text text-anchor="middle" x="671" y="-1166.3" font-family="Times,serif" font-size="14.00">libldap</text>
</g>
<!-- krb5&#45;&gt;libldap -->
<g id="edge68" class="edge">
<title>krb5&#45;&gt;libldap</title>
<path fill="none" stroke="#8b4513" d="M692.36,-1224.41C689.13,-1216.34 685.17,-1206.43 681.54,-1197.35"/>
<polygon fill="#8b4513" stroke="#8b4513" points="684.75,-1195.94 677.78,-1187.96 678.25,-1198.54 684.75,-1195.94"/>
</g>
<!-- keyutils -->
<g id="node44" class="node">
<title>keyutils</title>
<ellipse fill="green" stroke="green" cx="730" cy="-810" rx="38.19" ry="18"/>
<text text-anchor="middle" x="730" y="-806.3" font-family="Times,serif" font-size="14.00">keyutils</text>
</g>
<!-- krb5&#45;&gt;keyutils -->
<g id="edge80" class="edge">
<title>krb5&#45;&gt;keyutils</title>
<path fill="none" stroke="#8b4513" d="M706.01,-1224.38C726.13,-1175.66 783.83,-1028.56 803,-900 805.36,-884.17 810.27,-878.25 803,-864 795.11,-848.52 780.34,-836.5 766.14,-827.85"/>
<polygon fill="#8b4513" stroke="#8b4513" points="767.86,-824.8 757.44,-822.9 764.4,-830.89 767.86,-824.8"/>
</g>
<!-- e2fsprogs&#45;&gt;sh -->
<g id="edge65" class="edge">
<title>e2fsprogs&#45;&gt;sh</title>
<path fill="none" stroke="#8b4513" d="M560.35,-1080.94C527.41,-1042.78 453.02,-943.9 488,-864 497.46,-842.39 510.54,-844.89 527,-828 548.02,-806.44 570.53,-780.39 585.94,-762.07"/>
<polygon fill="#8b4513" stroke="#8b4513" points="588.76,-764.15 592.49,-754.23 583.39,-759.66 588.76,-764.15"/>
</g>
<!-- e2fsprogs&#45;&gt;libutil&#45;linux -->
<g id="edge67" class="edge">
<title>e2fsprogs&#45;&gt;libutil&#45;linux</title>
<path fill="none" stroke="#8b4513" d="M534.73,-1089.77C507.01,-1082.73 471.46,-1069.23 450,-1044 423.57,-1012.92 404.21,-892.92 396.58,-838.33"/>
<polygon fill="#8b4513" stroke="#8b4513" points="400.03,-837.76 395.21,-828.33 393.09,-838.71 400.03,-837.76"/>
</g>
<!-- libldap&#45;&gt;e2fsprogs -->
<g id="edge79" class="edge">
<title>libldap&#45;&gt;e2fsprogs</title>
<path fill="none" stroke="#8b4513" d="M651.57,-1154.83C637.89,-1144.86 619.34,-1131.33 603.92,-1120.09"/>
<polygon fill="#8b4513" stroke="#8b4513" points="605.87,-1117.18 595.73,-1114.11 601.75,-1122.83 605.87,-1117.18"/>
</g>
<!-- libsasl -->
<g id="node39" class="node">
<title>libsasl</title>
<ellipse fill="green" stroke="green" cx="671" cy="-1098" rx="33.29" ry="18"/>
<text text-anchor="middle" x="671" y="-1094.3" font-family="Times,serif" font-size="14.00">libsasl</text>
</g>
<!-- libldap&#45;&gt;libsasl -->
<g id="edge69" class="edge">
<title>libldap&#45;&gt;libsasl</title>
<path fill="none" stroke="#8b4513" d="M671,-1151.7C671,-1143.98 671,-1134.71 671,-1126.11"/>
<polygon fill="#8b4513" stroke="#8b4513" points="674.5,-1126.1 671,-1116.1 667.5,-1126.1 674.5,-1126.1"/>
</g>
<!-- openssl -->
<g id="node40" class="node">
<title>openssl</title>
<ellipse fill="green" stroke="green" cx="660" cy="-1026" rx="37.09" ry="18"/>
<text text-anchor="middle" x="660" y="-1022.3" font-family="Times,serif" font-size="14.00">openssl</text>
</g>
<!-- libsasl&#45;&gt;openssl -->
<g id="edge70" class="edge">
<title>libsasl&#45;&gt;openssl</title>
<path fill="none" stroke="#8b4513" d="M668.34,-1080.05C667.13,-1072.35 665.66,-1063.03 664.3,-1054.36"/>
<polygon fill="#8b4513" stroke="#8b4513" points="667.72,-1053.61 662.71,-1044.28 660.81,-1054.7 667.72,-1053.61"/>
</g>
<!-- perl -->
<g id="node41" class="node">
<title>perl</title>
<ellipse fill="green" stroke="green" cx="648" cy="-954" rx="27" ry="18"/>
<text text-anchor="middle" x="648" y="-950.3" font-family="Times,serif" font-size="14.00">perl</text>
</g>
<!-- openssl&#45;&gt;perl -->
<g id="edge71" class="edge">
<title>openssl&#45;&gt;perl</title>
<path fill="none" stroke="#8b4513" d="M657.1,-1008.05C655.77,-1000.35 654.18,-991.03 652.69,-982.36"/>
<polygon fill="#8b4513" stroke="#8b4513" points="656.1,-981.54 650.96,-972.28 649.2,-982.72 656.1,-981.54"/>
</g>
<!-- perl&#45;&gt;glibc -->
<g id="edge78" class="edge">
<title>perl&#45;&gt;glibc</title>
<path fill="none" stroke="#8b4513" d="M660.85,-937.84C676.61,-919.56 704.53,-888.28 731,-864 750.13,-846.45 763.24,-850.02 777,-828 798.43,-793.7 796,-779.45 796,-739 796,-739 796,-739 796,-305 796,-252.77 749.64,-206.98 718.82,-182.32"/>
<polygon fill="#8b4513" stroke="#8b4513" points="720.64,-179.3 710.59,-175.93 716.35,-184.83 720.64,-179.3"/>
</g>
<!-- gdbm&gt;=1.17 -->
<g id="node42" class="node">
<title>gdbm&gt;=1.17</title>
<ellipse fill="green" stroke="green" cx="626" cy="-882" rx="57.69" ry="18"/>
<text text-anchor="middle" x="626" y="-878.3" font-family="Times,serif" font-size="14.00">gdbm&gt;=1.17</text>
</g>
<!-- perl&#45;&gt;gdbm&gt;=1.17 -->
<g id="edge72" class="edge">
<title>perl&#45;&gt;gdbm&gt;=1.17</title>
<path fill="none" stroke="#8b4513" d="M642.67,-936.05C640.22,-928.26 637.26,-918.82 634.51,-910.08"/>
<polygon fill="#8b4513" stroke="#8b4513" points="637.77,-908.77 631.43,-900.28 631.09,-910.86 637.77,-908.77"/>
</g>
<!-- db -->
<g id="node43" class="node">
<title>db</title>
<ellipse fill="green" stroke="green" cx="491" cy="-810" rx="27" ry="18"/>
<text text-anchor="middle" x="491" y="-806.3" font-family="Times,serif" font-size="14.00">db</text>
</g>
<!-- perl&#45;&gt;db -->
<g id="edge74" class="edge">
<title>perl&#45;&gt;db</title>
<path fill="none" stroke="#8b4513" d="M626.35,-943.05C607.32,-933.66 579.54,-918.3 559,-900 537.69,-881.02 518.47,-854.55 505.94,-835.42"/>
<polygon fill="#8b4513" stroke="#8b4513" points="508.85,-833.47 500.51,-826.94 502.95,-837.25 508.85,-833.47"/>
</g>
<!-- gdbm&gt;=1.17&#45;&gt;gdbm -->
<g id="edge73" class="edge">
<title>gdbm&gt;=1.17&#45;&gt;gdbm</title>
<path fill="none" stroke="grey" d="M620.92,-864.05C617.61,-853.05 613.33,-838.76 610.04,-827.79"/>
</g>
<!-- db&#45;&gt;gcc&#45;libs -->
<g id="edge75" class="edge">
<title>db&#45;&gt;gcc&#45;libs</title>
<path fill="none" stroke="#8b4513" d="M470.3,-798.18C415.54,-769.23 271,-690.58 271,-667 271,-667 271,-667 271,-449 271,-409 271,-362.65 271,-334.08"/>
<polygon fill="#8b4513" stroke="#8b4513" points="274.5,-334.05 271,-324.05 267.5,-334.05 274.5,-334.05"/>
</g>
<!-- db&#45;&gt;sh -->
<g id="edge76" class="edge">
<title>db&#45;&gt;sh</title>
<path fill="none" stroke="#8b4513" d="M510.34,-797.13C528.6,-785.91 556.19,-768.97 576.89,-756.26"/>
<polygon fill="#8b4513" stroke="#8b4513" points="578.88,-759.15 585.57,-750.93 575.21,-753.18 578.88,-759.15"/>
</g>
<!-- keyutils&#45;&gt;glibc -->
<g id="edge81" class="edge">
<title>keyutils&#45;&gt;glibc</title>
<path fill="none" stroke="#8b4513" d="M730,-791.95C730,-765.29 730,-712.11 730,-667 730,-667 730,-667 730,-305 730,-263.41 714.6,-217.22 703.4,-189.14"/>
<polygon fill="#8b4513" stroke="#8b4513" points="706.55,-187.58 699.51,-179.66 700.07,-190.24 706.55,-187.58"/>
</g>
<!-- keyutils&#45;&gt;sh -->
<g id="edge82" class="edge">
<title>keyutils&#45;&gt;sh</title>
<path fill="none" stroke="#8b4513" d="M706.19,-795.67C685.62,-784.15 655.81,-767.46 633.88,-755.17"/>
<polygon fill="#8b4513" stroke="#8b4513" points="635.44,-752.04 625.01,-750.2 632.02,-758.14 635.44,-752.04"/>
</g>
<!-- libcap&#45;ng&#45;&gt;glibc -->
<g id="edge85" class="edge">
<title>libcap&#45;ng&#45;&gt;glibc</title>
<path fill="none" stroke="#8b4513" d="M846.36,-1152.03C851.31,-1125.48 860,-1072.44 860,-1027 860,-1027 860,-1027 860,-953 860,-857.39 838,-834.61 838,-739 838,-739 838,-739 838,-305 838,-242.05 767.39,-197.98 724.38,-176.97"/>
<polygon fill="#8b4513" stroke="#8b4513" points="725.67,-173.71 715.13,-172.61 722.68,-180.04 725.67,-173.71"/>
</g>
<!-- libsystemd.so=0&#45;64&#45;&gt;systemd&#45;libs -->
<g id="edge87" class="edge">
<title>libsystemd.so=0&#45;64&#45;&gt;systemd&#45;libs</title>
<path fill="none" stroke="grey" d="M991,-1295.95C991,-1269.29 991,-1216.11 991,-1171 991,-1171 991,-1171 991,-1097 991,-1051.89 991,-998.71 991,-972.05"/>
</g>
<!-- libaudit.so=1&#45;64&#45;&gt;audit -->
<g id="edge89" class="edge">
<title>libaudit.so=1&#45;64&#45;&gt;audit</title>
<path fill="none" stroke="grey" d="M738.86,-1368.05C746.79,-1356.73 757.16,-1341.92 764.92,-1330.83"/>
</g>
<!-- libdbus&#45;1.so=3&#45;64&#45;&gt;dbus -->
<g id="edge91" class="edge">
<title>libdbus&#45;1.so=3&#45;64&#45;&gt;dbus</title>
<path fill="none" stroke="grey" d="M696.89,-1512.76C715.43,-1500.16 740.75,-1482.96 757.7,-1471.43"/>
</g>
</g>
</svg>
