<?xml version="1.0" encoding="UTF-8" standalone="no"?>
<!DOCTYPE svg PUBLIC "-//W3C//DTD SVG 1.1//EN"
 "http://www.w3.org/Graphics/SVG/1.1/DTD/svg11.dtd">
<!-- Generated by graphviz version 2.44.0 (0)
 -->
<!-- Title: G Pages: 1 -->
<svg width="490pt" height="1052pt"
 viewBox="0.00 0.00 489.80 1052.00" xmlns="http://www.w3.org/2000/svg" xmlns:xlink="http://www.w3.org/1999/xlink">
<g id="graph0" class="graph" transform="scale(1 1) rotate(0) translate(4 1048)">
<title>G</title>
<polygon fill="white" stroke="transparent" points="-4,4 -4,-1048 485.8,-1048 485.8,4 -4,4"/>
<!-- START -->
<g id="node1" class="node">
<title>START</title>
<ellipse fill="red" stroke="red" cx="276" cy="-1026" rx="38.19" ry="18"/>
<text text-anchor="middle" x="276" y="-1022.3" font-family="Times,serif" font-size="14.00">START</text>
</g>
<!-- boost&#45;libs -->
<g id="node2" class="node">
<title>boost&#45;libs</title>
<ellipse fill="green" stroke="green" cx="276" cy="-954" rx="45.49" ry="18"/>
<text text-anchor="middle" x="276" y="-950.3" font-family="Times,serif" font-size="14.00">boost&#45;libs</text>
</g>
<!-- START&#45;&gt;boost&#45;libs -->
<g id="edge1" class="edge">
<title>START&#45;&gt;boost&#45;libs</title>
<path fill="none" stroke="black" d="M276,-1007.7C276,-999.98 276,-990.71 276,-982.11"/>
<polygon fill="black" stroke="black" points="279.5,-982.1 276,-972.1 272.5,-982.1 279.5,-982.1"/>
</g>
<!-- bzip2 -->
<g id="node3" class="node">
<title>bzip2</title>
<ellipse fill="green" stroke="green" cx="150" cy="-810" rx="30.59" ry="18"/>
<text text-anchor="middle" x="150" y="-806.3" font-family="Times,serif" font-size="14.00">bzip2</text>
</g>
<!-- boost&#45;libs&#45;&gt;bzip2 -->
<g id="edge2" class="edge">
<title>boost&#45;libs&#45;&gt;bzip2</title>
<path fill="none" stroke="#8b4513" d="M261.55,-936.71C239.09,-911.41 195.77,-862.58 170.22,-833.79"/>
<polygon fill="#8b4513" stroke="#8b4513" points="172.78,-831.4 163.52,-826.24 167.54,-836.04 172.78,-831.4"/>
</g>
<!-- zlib -->
<g id="node18" class="node">
<title>zlib</title>
<ellipse fill="green" stroke="green" cx="408" cy="-810" rx="27" ry="18"/>
<text text-anchor="middle" x="408" y="-806.3" font-family="Times,serif" font-size="14.00">zlib</text>
</g>
<!-- boost&#45;libs&#45;&gt;zlib -->
<g id="edge23" class="edge">
<title>boost&#45;libs&#45;&gt;zlib</title>
<path fill="none" stroke="#8b4513" d="M299.66,-938.59C314.55,-928.83 333.6,-915.01 348,-900 366.54,-880.67 383.17,-855 394.2,-836.19"/>
<polygon fill="#8b4513" stroke="#8b4513" points="397.35,-837.73 399.29,-827.31 391.28,-834.25 397.35,-837.73"/>
</g>
<!-- icu -->
<g id="node19" class="node">
<title>icu</title>
<ellipse fill="green" stroke="green" cx="226" cy="-810" rx="27" ry="18"/>
<text text-anchor="middle" x="226" y="-806.3" font-family="Times,serif" font-size="14.00">icu</text>
</g>
<!-- boost&#45;libs&#45;&gt;icu -->
<g id="edge25" class="edge">
<title>boost&#45;libs&#45;&gt;icu</title>
<path fill="none" stroke="#8b4513" d="M270.07,-936.15C261.46,-911.71 245.43,-866.17 235.26,-837.29"/>
<polygon fill="#8b4513" stroke="#8b4513" points="238.55,-836.09 231.92,-827.82 231.94,-838.42 238.55,-836.09"/>
</g>
<!-- zstd -->
<g id="node20" class="node">
<title>zstd</title>
<ellipse fill="green" stroke="green" cx="312" cy="-882" rx="27" ry="18"/>
<text text-anchor="middle" x="312" y="-878.3" font-family="Times,serif" font-size="14.00">zstd</text>
</g>
<!-- boost&#45;libs&#45;&gt;zstd -->
<g id="edge29" class="edge">
<title>boost&#45;libs&#45;&gt;zstd</title>
<path fill="none" stroke="#8b4513" d="M284.71,-936.05C288.98,-927.77 294.2,-917.62 298.92,-908.42"/>
<polygon fill="#8b4513" stroke="#8b4513" points="302.15,-909.8 303.61,-899.31 295.93,-906.6 302.15,-909.8"/>
</g>
<!-- glibc -->
<g id="node4" class="node">
<title>glibc</title>
<ellipse fill="green" stroke="green" cx="338" cy="-162" rx="28.7" ry="18"/>
<text text-anchor="middle" x="338" y="-158.3" font-family="Times,serif" font-size="14.00">glibc</text>
</g>
<!-- bzip2&#45;&gt;glibc -->
<g id="edge3" class="edge">
<title>bzip2&#45;&gt;glibc</title>
<path fill="none" stroke="#8b4513" d="M125.23,-799.14C82.63,-780.35 0,-735.13 0,-667 0,-667 0,-667 0,-305 0,-176.56 210.02,-162.38 298.96,-162.13"/>
<polygon fill="#8b4513" stroke="#8b4513" points="299.17,-165.63 309.18,-162.16 299.19,-158.63 299.17,-165.63"/>
</g>
<!-- sh -->
<g id="node10" class="node">
<title>sh</title>
<ellipse fill="green" stroke="green" cx="226" cy="-738" rx="27" ry="18"/>
<text text-anchor="middle" x="226" y="-734.3" font-family="Times,serif" font-size="14.00">sh</text>
</g>
<!-- bzip2&#45;&gt;sh -->
<g id="edge9" class="edge">
<title>bzip2&#45;&gt;sh</title>
<path fill="none" stroke="#8b4513" d="M165.75,-794.5C176.59,-784.51 191.16,-771.09 203.26,-759.94"/>
<polygon fill="#8b4513" stroke="#8b4513" points="205.81,-762.36 210.79,-753.01 201.06,-757.21 205.81,-762.36"/>
</g>
<!-- linux&#45;api&#45;headers&gt;=4.10 -->
<g id="node5" class="node">
<title>linux&#45;api&#45;headers&gt;=4.10</title>
<ellipse fill="green" stroke="green" cx="190" cy="-90" rx="98.28" ry="18"/>
<text text-anchor="middle" x="190" y="-86.3" font-family="Times,serif" font-size="14.00">linux&#45;api&#45;headers&gt;=4.10</text>
</g>
<!-- glibc&#45;&gt;linux&#45;api&#45;headers&gt;=4.10 -->
<g id="edge4" class="edge">
<title>glibc&#45;&gt;linux&#45;api&#45;headers&gt;=4.10</title>
<path fill="none" stroke="#8b4513" d="M315.84,-150.52C294.06,-140.22 260.23,-124.22 233.13,-111.4"/>
<polygon fill="#8b4513" stroke="#8b4513" points="234.39,-108.12 223.85,-107.01 231.4,-114.45 234.39,-108.12"/>
</g>
<!-- tzdata -->
<g id="node7" class="node">
<title>tzdata</title>
<ellipse fill="green" stroke="green" cx="338" cy="-90" rx="31.7" ry="18"/>
<text text-anchor="middle" x="338" y="-86.3" font-family="Times,serif" font-size="14.00">tzdata</text>
</g>
<!-- glibc&#45;&gt;tzdata -->
<g id="edge6" class="edge">
<title>glibc&#45;&gt;tzdata</title>
<path fill="none" stroke="#8b4513" d="M338,-143.7C338,-135.98 338,-126.71 338,-118.11"/>
<polygon fill="#8b4513" stroke="#8b4513" points="341.5,-118.1 338,-108.1 334.5,-118.1 341.5,-118.1"/>
</g>
<!-- filesystem -->
<g id="node8" class="node">
<title>filesystem</title>
<ellipse fill="green" stroke="green" cx="435" cy="-90" rx="46.59" ry="18"/>
<text text-anchor="middle" x="435" y="-86.3" font-family="Times,serif" font-size="14.00">filesystem</text>
</g>
<!-- glibc&#45;&gt;filesystem -->
<g id="edge7" class="edge">
<title>glibc&#45;&gt;filesystem</title>
<path fill="none" stroke="#8b4513" d="M356.24,-147.83C370.04,-137.88 389.28,-123.99 405.29,-112.44"/>
<polygon fill="#8b4513" stroke="#8b4513" points="407.74,-114.99 413.8,-106.3 403.64,-109.31 407.74,-114.99"/>
</g>
<!-- linux&#45;api&#45;headers -->
<g id="node6" class="node">
<title>linux&#45;api&#45;headers</title>
<ellipse fill="green" stroke="green" cx="190" cy="-18" rx="71.49" ry="18"/>
<text text-anchor="middle" x="190" y="-14.3" font-family="Times,serif" font-size="14.00">linux&#45;api&#45;headers</text>
</g>
<!-- linux&#45;api&#45;headers&gt;=4.10&#45;&gt;linux&#45;api&#45;headers -->
<g id="edge5" class="edge">
<title>linux&#45;api&#45;headers&gt;=4.10&#45;&gt;linux&#45;api&#45;headers</title>
<path fill="none" stroke="grey" d="M190,-71.7C190,-60.85 190,-46.92 190,-36.1"/>
</g>
<!-- iana&#45;etc -->
<g id="node9" class="node">
<title>iana&#45;etc</title>
<ellipse fill="green" stroke="green" cx="435" cy="-18" rx="38.19" ry="18"/>
<text text-anchor="middle" x="435" y="-14.3" font-family="Times,serif" font-size="14.00">iana&#45;etc</text>
</g>
<!-- filesystem&#45;&gt;iana&#45;etc -->
<g id="edge8" class="edge">
<title>filesystem&#45;&gt;iana&#45;etc</title>
<path fill="none" stroke="#8b4513" d="M435,-71.7C435,-63.98 435,-54.71 435,-46.11"/>
<polygon fill="#8b4513" stroke="#8b4513" points="438.5,-46.1 435,-36.1 431.5,-46.1 438.5,-46.1"/>
</g>
<!-- bash -->
<g id="node11" class="node">
<title>bash</title>
<ellipse fill="green" stroke="green" cx="226" cy="-666" rx="27" ry="18"/>
<text text-anchor="middle" x="226" y="-662.3" font-family="Times,serif" font-size="14.00">bash</text>
</g>
<!-- sh&#45;&gt;bash -->
<g id="edge10" class="edge">
<title>sh&#45;&gt;bash</title>
<path fill="none" stroke="grey" d="M214.56,-721.46C211.81,-709.86 211.81,-694.08 214.57,-682.49"/>
</g>
<!-- sh&#45;&gt;bash -->
<g id="edge28" class="edge">
<title>sh&#45;&gt;bash</title>
<path fill="none" stroke="grey" d="M226,-719.7C226,-708.85 226,-694.92 226,-684.1"/>
</g>
<!-- sh&#45;&gt;bash -->
<g id="edge33" class="edge">
<title>sh&#45;&gt;bash</title>
<path fill="none" stroke="grey" d="M237.44,-721.46C240.19,-709.86 240.19,-694.08 237.43,-682.49"/>
</g>
<!-- bash&#45;&gt;glibc -->
<g id="edge21" class="edge">
<title>bash&#45;&gt;glibc</title>
<path fill="none" stroke="#8b4513" d="M248.78,-656.01C290.74,-637.77 376,-592.21 376,-523 376,-523 376,-523 376,-305 376,-263.41 360.6,-217.22 349.4,-189.14"/>
<polygon fill="#8b4513" stroke="#8b4513" points="352.55,-187.58 345.51,-179.66 346.07,-190.24 352.55,-187.58"/>
</g>
<!-- readline&gt;=7.0 -->
<g id="node12" class="node">
<title>readline&gt;=7.0</title>
<ellipse fill="green" stroke="green" cx="226" cy="-594" rx="61.19" ry="18"/>
<text text-anchor="middle" x="226" y="-590.3" font-family="Times,serif" font-size="14.00">readline&gt;=7.0</text>
</g>
<!-- bash&#45;&gt;readline&gt;=7.0 -->
<g id="edge11" class="edge">
<title>bash&#45;&gt;readline&gt;=7.0</title>
<path fill="none" stroke="#8b4513" d="M226,-647.7C226,-639.98 226,-630.71 226,-622.11"/>
<polygon fill="#8b4513" stroke="#8b4513" points="229.5,-622.1 226,-612.1 222.5,-622.1 229.5,-622.1"/>
</g>
<!-- ncurses -->
<g id="node14" class="node">
<title>ncurses</title>
<ellipse fill="green" stroke="green" cx="127" cy="-378" rx="37.09" ry="18"/>
<text text-anchor="middle" x="127" y="-374.3" font-family="Times,serif" font-size="14.00">ncurses</text>
</g>
<!-- bash&#45;&gt;ncurses -->
<g id="edge22" class="edge">
<title>bash&#45;&gt;ncurses</title>
<path fill="none" stroke="#8b4513" d="M205.2,-654.29C189.41,-645.13 168.39,-630.49 156,-612 110.48,-544.08 111.13,-513.47 118,-432 118.72,-423.5 120.07,-414.31 121.51,-406.01"/>
<polygon fill="#8b4513" stroke="#8b4513" points="124.97,-406.56 123.35,-396.09 118.09,-405.29 124.97,-406.56"/>
</g>
<!-- readline -->
<g id="node13" class="node">
<title>readline</title>
<ellipse fill="green" stroke="green" cx="226" cy="-522" rx="38.99" ry="18"/>
<text text-anchor="middle" x="226" y="-518.3" font-family="Times,serif" font-size="14.00">readline</text>
</g>
<!-- readline&gt;=7.0&#45;&gt;readline -->
<g id="edge12" class="edge">
<title>readline&gt;=7.0&#45;&gt;readline</title>
<path fill="none" stroke="grey" d="M226,-575.7C226,-564.85 226,-550.92 226,-540.1"/>
</g>
<!-- readline&#45;&gt;glibc -->
<g id="edge13" class="edge">
<title>readline&#45;&gt;glibc</title>
<path fill="none" stroke="#8b4513" d="M256.96,-510.97C277.64,-502.68 303.75,-488.85 319,-468 342.88,-435.36 338,-419.45 338,-379 338,-379 338,-379 338,-305 338,-265 338,-218.65 338,-190.08"/>
<polygon fill="#8b4513" stroke="#8b4513" points="341.5,-190.05 338,-180.05 334.5,-190.05 341.5,-190.05"/>
</g>
<!-- readline&#45;&gt;ncurses -->
<g id="edge14" class="edge">
<title>readline&#45;&gt;ncurses</title>
<path fill="none" stroke="#8b4513" d="M194.08,-511.62C172.96,-503.63 146.72,-489.88 133,-468 121.53,-449.71 120.77,-424.94 122.46,-406.18"/>
<polygon fill="#8b4513" stroke="#8b4513" points="125.95,-406.53 123.64,-396.19 118.99,-405.71 125.95,-406.53"/>
</g>
<!-- libncursesw.so=6&#45;64 -->
<g id="node17" class="node">
<title>libncursesw.so=6&#45;64</title>
<ellipse fill="green" stroke="green" cx="226" cy="-450" rx="83.69" ry="18"/>
<text text-anchor="middle" x="226" y="-446.3" font-family="Times,serif" font-size="14.00">libncursesw.so=6&#45;64</text>
</g>
<!-- readline&#45;&gt;libncursesw.so=6&#45;64 -->
<g id="edge19" class="edge">
<title>readline&#45;&gt;libncursesw.so=6&#45;64</title>
<path fill="none" stroke="#8b4513" d="M226,-503.7C226,-495.98 226,-486.71 226,-478.11"/>
<polygon fill="#8b4513" stroke="#8b4513" points="229.5,-478.1 226,-468.1 222.5,-478.1 229.5,-478.1"/>
</g>
<!-- ncurses&#45;&gt;glibc -->
<g id="edge15" class="edge">
<title>ncurses&#45;&gt;glibc</title>
<path fill="none" stroke="#8b4513" d="M142.52,-361.26C179.68,-323.57 273.89,-228.02 316.49,-184.81"/>
<polygon fill="#8b4513" stroke="#8b4513" points="319.06,-187.2 323.59,-177.62 314.07,-182.28 319.06,-187.2"/>
</g>
<!-- gcc&#45;libs -->
<g id="node15" class="node">
<title>gcc&#45;libs</title>
<ellipse fill="green" stroke="green" cx="127" cy="-306" rx="38.19" ry="18"/>
<text text-anchor="middle" x="127" y="-302.3" font-family="Times,serif" font-size="14.00">gcc&#45;libs</text>
</g>
<!-- ncurses&#45;&gt;gcc&#45;libs -->
<g id="edge16" class="edge">
<title>ncurses&#45;&gt;gcc&#45;libs</title>
<path fill="none" stroke="#8b4513" d="M127,-359.7C127,-351.98 127,-342.71 127,-334.11"/>
<polygon fill="#8b4513" stroke="#8b4513" points="130.5,-334.1 127,-324.1 123.5,-334.1 130.5,-334.1"/>
</g>
<!-- glibc&gt;=2.27 -->
<g id="node16" class="node">
<title>glibc&gt;=2.27</title>
<ellipse fill="green" stroke="green" cx="140" cy="-234" rx="54.69" ry="18"/>
<text text-anchor="middle" x="140" y="-230.3" font-family="Times,serif" font-size="14.00">glibc&gt;=2.27</text>
</g>
<!-- gcc&#45;libs&#45;&gt;glibc&gt;=2.27 -->
<g id="edge17" class="edge">
<title>gcc&#45;libs&#45;&gt;glibc&gt;=2.27</title>
<path fill="none" stroke="#8b4513" d="M130.15,-288.05C131.58,-280.35 133.31,-271.03 134.92,-262.36"/>
<polygon fill="#8b4513" stroke="#8b4513" points="138.41,-262.75 136.79,-252.28 131.52,-261.47 138.41,-262.75"/>
</g>
<!-- glibc&gt;=2.27&#45;&gt;glibc -->
<g id="edge18" class="edge">
<title>glibc&gt;=2.27&#45;&gt;glibc</title>
<path fill="none" stroke="grey" d="M175.86,-220.32C215.75,-206.22 279.13,-183.81 313.65,-171.61"/>
</g>
<!-- libncursesw.so=6&#45;64&#45;&gt;ncurses -->
<g id="edge20" class="edge">
<title>libncursesw.so=6&#45;64&#45;&gt;ncurses</title>
<path fill="none" stroke="grey" d="M202.79,-432.59C185.87,-420.63 163.18,-404.59 147.05,-393.18"/>
</g>
<!-- zlib&#45;&gt;glibc -->
<g id="edge24" class="edge">
<title>zlib&#45;&gt;glibc</title>
<path fill="none" stroke="#8b4513" d="M416.48,-792.89C429.27,-767.07 452,-714.49 452,-667 452,-667 452,-667 452,-305 452,-250.44 400.19,-204.91 366.43,-181.03"/>
<polygon fill="#8b4513" stroke="#8b4513" points="368.08,-177.92 357.86,-175.15 364.13,-183.69 368.08,-177.92"/>
</g>
<!-- icu&#45;&gt;sh -->
<g id="edge27" class="edge">
<title>icu&#45;&gt;sh</title>
<path fill="none" stroke="#8b4513" d="M226,-791.7C226,-783.98 226,-774.71 226,-766.11"/>
<polygon fill="#8b4513" stroke="#8b4513" points="229.5,-766.1 226,-756.1 222.5,-766.1 229.5,-766.1"/>
</g>
<!-- icu&#45;&gt;gcc&#45;libs -->
<g id="edge26" class="edge">
<title>icu&#45;&gt;gcc&#45;libs</title>
<path fill="none" stroke="#8b4513" d="M204.8,-798.41C155.63,-773.16 38,-708.41 38,-667 38,-667 38,-667 38,-449 38,-400.54 75.67,-355.03 102,-329.14"/>
<polygon fill="#8b4513" stroke="#8b4513" points="104.6,-331.5 109.42,-322.07 99.77,-326.44 104.6,-331.5"/>
</g>
<!-- zstd&#45;&gt;zlib -->
<g id="edge30" class="edge">
<title>zstd&#45;&gt;zlib</title>
<path fill="none" stroke="#8b4513" d="M329.61,-868.16C344.36,-857.41 365.61,-841.91 382.27,-829.76"/>
<polygon fill="#8b4513" stroke="#8b4513" points="384.49,-832.48 390.5,-823.76 380.36,-826.82 384.49,-832.48"/>
</g>
<!-- xz -->
<g id="node21" class="node">
<title>xz</title>
<ellipse fill="green" stroke="green" cx="298" cy="-810" rx="27" ry="18"/>
<text text-anchor="middle" x="298" y="-806.3" font-family="Times,serif" font-size="14.00">xz</text>
</g>
<!-- zstd&#45;&gt;xz -->
<g id="edge31" class="edge">
<title>zstd&#45;&gt;xz</title>
<path fill="none" stroke="#8b4513" d="M308.61,-864.05C307.07,-856.35 305.21,-847.03 303.47,-838.36"/>
<polygon fill="#8b4513" stroke="#8b4513" points="306.85,-837.39 301.46,-828.28 299.98,-838.77 306.85,-837.39"/>
</g>
<!-- lz4 -->
<g id="node22" class="node">
<title>lz4</title>
<ellipse fill="green" stroke="green" cx="375" cy="-738" rx="27" ry="18"/>
<text text-anchor="middle" x="375" y="-734.3" font-family="Times,serif" font-size="14.00">lz4</text>
</g>
<!-- zstd&#45;&gt;lz4 -->
<g id="edge34" class="edge">
<title>zstd&#45;&gt;lz4</title>
<path fill="none" stroke="#8b4513" d="M319.35,-864.43C330.21,-839.96 350.64,-793.91 363.49,-764.94"/>
<polygon fill="#8b4513" stroke="#8b4513" points="366.84,-766.02 367.7,-755.46 360.44,-763.18 366.84,-766.02"/>
</g>
<!-- xz&#45;&gt;sh -->
<g id="edge32" class="edge">
<title>xz&#45;&gt;sh</title>
<path fill="none" stroke="#8b4513" d="M283.43,-794.83C273.25,-784.94 259.48,-771.55 247.97,-760.36"/>
<polygon fill="#8b4513" stroke="#8b4513" points="250.41,-757.85 240.8,-753.38 245.53,-762.87 250.41,-757.85"/>
</g>
<!-- lz4&#45;&gt;glibc -->
<g id="edge35" class="edge">
<title>lz4&#45;&gt;glibc</title>
<path fill="none" stroke="#8b4513" d="M382.71,-720.36C394.07,-694.24 414,-641.79 414,-595 414,-595 414,-595 414,-305 414,-258.12 381.4,-211.74 358.91,-185.31"/>
<polygon fill="#8b4513" stroke="#8b4513" points="361.52,-182.98 352.3,-177.77 356.26,-187.6 361.52,-182.98"/>
</g>
</g>
</svg>
