<?xml version="1.0" encoding="UTF-8" standalone="no"?>
<!DOCTYPE svg PUBLIC "-//W3C//DTD SVG 1.1//EN"
 "http://www.w3.org/Graphics/SVG/1.1/DTD/svg11.dtd">
<!-- Generated by graphviz version 2.44.0 (0)
 -->
<!-- Title: G Pages: 1 -->
<svg width="1161pt" height="1556pt"
 viewBox="0.00 0.00 1161.34 1556.00" xmlns="http://www.w3.org/2000/svg" xmlns:xlink="http://www.w3.org/1999/xlink">
<g id="graph0" class="graph" transform="scale(1 1) rotate(0) translate(4 1552)">
<title>G</title>
<polygon fill="white" stroke="transparent" points="-4,4 -4,-1552 1157.34,-1552 1157.34,4 -4,4"/>
<!-- START -->
<g id="node1" class="node">
<title>START</title>
<ellipse fill="red" stroke="red" cx="361" cy="-1530" rx="38.19" ry="18"/>
<text text-anchor="middle" x="361" y="-1526.3" font-family="Times,serif" font-size="14.00">START</text>
</g>
<!-- ca&#45;certificates&#45;mozilla -->
<g id="node2" class="node">
<title>ca&#45;certificates&#45;mozilla</title>
<ellipse fill="green" stroke="green" cx="361" cy="-1458" rx="89.88" ry="18"/>
<text text-anchor="middle" x="361" y="-1454.3" font-family="Times,serif" font-size="14.00">ca&#45;certificates&#45;mozilla</text>
</g>
<!-- START&#45;&gt;ca&#45;certificates&#45;mozilla -->
<g id="edge1" class="edge">
<title>START&#45;&gt;ca&#45;certificates&#45;mozilla</title>
<path fill="none" stroke="black" d="M361,-1511.7C361,-1503.98 361,-1494.71 361,-1486.11"/>
<polygon fill="black" stroke="black" points="364.5,-1486.1 361,-1476.1 357.5,-1486.1 364.5,-1486.1"/>
</g>
<!-- ca&#45;certificates&#45;utils&gt;=20181109&#45;3 -->
<g id="node3" class="node">
<title>ca&#45;certificates&#45;utils&gt;=20181109&#45;3</title>
<ellipse fill="green" stroke="green" cx="361" cy="-1386" rx="131.08" ry="18"/>
<text text-anchor="middle" x="361" y="-1382.3" font-family="Times,serif" font-size="14.00">ca&#45;certificates&#45;utils&gt;=20181109&#45;3</text>
</g>
<!-- ca&#45;certificates&#45;mozilla&#45;&gt;ca&#45;certificates&#45;utils&gt;=20181109&#45;3 -->
<g id="edge2" class="edge">
<title>ca&#45;certificates&#45;mozilla&#45;&gt;ca&#45;certificates&#45;utils&gt;=20181109&#45;3</title>
<path fill="none" stroke="#8b4513" d="M361,-1439.7C361,-1431.98 361,-1422.71 361,-1414.11"/>
<polygon fill="#8b4513" stroke="#8b4513" points="364.5,-1414.1 361,-1404.1 357.5,-1414.1 364.5,-1414.1"/>
</g>
<!-- ca&#45;certificates&#45;utils -->
<g id="node4" class="node">
<title>ca&#45;certificates&#45;utils</title>
<ellipse fill="green" stroke="green" cx="361" cy="-1314" rx="77.99" ry="18"/>
<text text-anchor="middle" x="361" y="-1310.3" font-family="Times,serif" font-size="14.00">ca&#45;certificates&#45;utils</text>
</g>
<!-- ca&#45;certificates&#45;utils&gt;=20181109&#45;3&#45;&gt;ca&#45;certificates&#45;utils -->
<g id="edge3" class="edge">
<title>ca&#45;certificates&#45;utils&gt;=20181109&#45;3&#45;&gt;ca&#45;certificates&#45;utils</title>
<path fill="none" stroke="grey" d="M361,-1367.7C361,-1356.85 361,-1342.92 361,-1332.1"/>
</g>
<!-- bash -->
<g id="node5" class="node">
<title>bash</title>
<ellipse fill="green" stroke="green" cx="237" cy="-666" rx="27" ry="18"/>
<text text-anchor="middle" x="237" y="-662.3" font-family="Times,serif" font-size="14.00">bash</text>
</g>
<!-- ca&#45;certificates&#45;utils&#45;&gt;bash -->
<g id="edge4" class="edge">
<title>ca&#45;certificates&#45;utils&#45;&gt;bash</title>
<path fill="none" stroke="#8b4513" d="M311.81,-1299.8C255.22,-1281.28 170,-1241.66 170,-1171 170,-1171 170,-1171 170,-809 170,-763.5 198.49,-716.96 218.31,-690.08"/>
<polygon fill="#8b4513" stroke="#8b4513" points="221.13,-692.15 224.4,-682.07 215.56,-687.92 221.13,-692.15"/>
</g>
<!-- coreutils -->
<g id="node18" class="node">
<title>coreutils</title>
<ellipse fill="green" stroke="green" cx="540" cy="-1098" rx="40.89" ry="18"/>
<text text-anchor="middle" x="540" y="-1094.3" font-family="Times,serif" font-size="14.00">coreutils</text>
</g>
<!-- ca&#45;certificates&#45;utils&#45;&gt;coreutils -->
<g id="edge22" class="edge">
<title>ca&#45;certificates&#45;utils&#45;&gt;coreutils</title>
<path fill="none" stroke="#8b4513" d="M375.05,-1296.21C406.64,-1258.44 483.37,-1166.7 519.96,-1122.96"/>
<polygon fill="#8b4513" stroke="#8b4513" points="522.78,-1125.04 526.51,-1115.13 517.41,-1120.55 522.78,-1125.04"/>
</g>
<!-- findutils -->
<g id="node29" class="node">
<title>findutils</title>
<ellipse fill="green" stroke="green" cx="102" cy="-810" rx="39.79" ry="18"/>
<text text-anchor="middle" x="102" y="-806.3" font-family="Times,serif" font-size="14.00">findutils</text>
</g>
<!-- ca&#45;certificates&#45;utils&#45;&gt;findutils -->
<g id="edge47" class="edge">
<title>ca&#45;certificates&#45;utils&#45;&gt;findutils</title>
<path fill="none" stroke="#8b4513" d="M285.37,-1309.38C243.07,-1303.76 191.82,-1290.51 156,-1260 123.12,-1232 117,-1214.19 117,-1171 117,-1171 117,-1171 117,-953 117,-912.77 110.97,-866.49 106.56,-837.99"/>
<polygon fill="#8b4513" stroke="#8b4513" points="110,-837.31 104.96,-827.99 103.08,-838.41 110,-837.31"/>
</g>
<!-- p11&#45;kit&gt;=0.23.19 -->
<g id="node30" class="node">
<title>p11&#45;kit&gt;=0.23.19</title>
<ellipse fill="green" stroke="green" cx="566" cy="-1242" rx="74.19" ry="18"/>
<text text-anchor="middle" x="566" y="-1238.3" font-family="Times,serif" font-size="14.00">p11&#45;kit&gt;=0.23.19</text>
</g>
<!-- ca&#45;certificates&#45;utils&#45;&gt;p11&#45;kit&gt;=0.23.19 -->
<g id="edge51" class="edge">
<title>ca&#45;certificates&#45;utils&#45;&gt;p11&#45;kit&gt;=0.23.19</title>
<path fill="none" stroke="#8b4513" d="M402.98,-1298.67C435.39,-1287.6 480.38,-1272.24 514.89,-1260.45"/>
<polygon fill="#8b4513" stroke="#8b4513" points="516.44,-1263.62 524.78,-1257.08 514.18,-1257 516.44,-1263.62"/>
</g>
<!-- readline&gt;=7.0 -->
<g id="node6" class="node">
<title>readline&gt;=7.0</title>
<ellipse fill="green" stroke="green" cx="203" cy="-594" rx="61.19" ry="18"/>
<text text-anchor="middle" x="203" y="-590.3" font-family="Times,serif" font-size="14.00">readline&gt;=7.0</text>
</g>
<!-- bash&#45;&gt;readline&gt;=7.0 -->
<g id="edge5" class="edge">
<title>bash&#45;&gt;readline&gt;=7.0</title>
<path fill="none" stroke="#8b4513" d="M229.11,-648.76C225.15,-640.61 220.26,-630.53 215.78,-621.31"/>
<polygon fill="#8b4513" stroke="#8b4513" points="218.83,-619.59 211.32,-612.12 212.54,-622.65 218.83,-619.59"/>
</g>
<!-- glibc -->
<g id="node8" class="node">
<title>glibc</title>
<ellipse fill="green" stroke="green" cx="569" cy="-162" rx="28.7" ry="18"/>
<text text-anchor="middle" x="569" y="-158.3" font-family="Times,serif" font-size="14.00">glibc</text>
</g>
<!-- bash&#45;&gt;glibc -->
<g id="edge20" class="edge">
<title>bash&#45;&gt;glibc</title>
<path fill="none" stroke="#8b4513" d="M211.39,-659.48C157.64,-646.22 38,-607.25 38,-523 38,-523 38,-523 38,-305 38,-252.7 68.77,-240.47 115,-216 186.74,-178.02 433.76,-166.9 530.09,-163.96"/>
<polygon fill="#8b4513" stroke="#8b4513" points="530.38,-167.45 540.27,-163.66 530.18,-160.46 530.38,-167.45"/>
</g>
<!-- ncurses -->
<g id="node14" class="node">
<title>ncurses</title>
<ellipse fill="green" stroke="green" cx="286" cy="-378" rx="37.09" ry="18"/>
<text text-anchor="middle" x="286" y="-374.3" font-family="Times,serif" font-size="14.00">ncurses</text>
</g>
<!-- bash&#45;&gt;ncurses -->
<g id="edge21" class="edge">
<title>bash&#45;&gt;ncurses</title>
<path fill="none" stroke="#8b4513" d="M249.29,-649.49C256.92,-639.3 266.48,-625.4 273,-612 302.4,-551.59 308.65,-534.38 319,-468 321.46,-452.19 323.4,-447.38 319,-432 316.13,-421.94 310.73,-411.94 305.12,-403.38"/>
<polygon fill="#8b4513" stroke="#8b4513" points="307.89,-401.23 299.3,-395.03 302.15,-405.24 307.89,-401.23"/>
</g>
<!-- readline -->
<g id="node7" class="node">
<title>readline</title>
<ellipse fill="green" stroke="green" cx="169" cy="-522" rx="38.99" ry="18"/>
<text text-anchor="middle" x="169" y="-518.3" font-family="Times,serif" font-size="14.00">readline</text>
</g>
<!-- readline&gt;=7.0&#45;&gt;readline -->
<g id="edge6" class="edge">
<title>readline&gt;=7.0&#45;&gt;readline</title>
<path fill="none" stroke="grey" d="M194.77,-576.05C189.42,-565.05 182.49,-550.76 177.15,-539.79"/>
</g>
<!-- readline&#45;&gt;glibc -->
<g id="edge7" class="edge">
<title>readline&#45;&gt;glibc</title>
<path fill="none" stroke="#8b4513" d="M150.63,-506.1C123.52,-482.32 76,-432.93 76,-379 76,-379 76,-379 76,-305 76,-210.53 414.5,-175.12 530.52,-165.76"/>
<polygon fill="#8b4513" stroke="#8b4513" points="531.03,-169.23 540.72,-164.96 530.48,-162.25 531.03,-169.23"/>
</g>
<!-- readline&#45;&gt;ncurses -->
<g id="edge13" class="edge">
<title>readline&#45;&gt;ncurses</title>
<path fill="none" stroke="#8b4513" d="M153.69,-505.1C137.59,-486.38 116.66,-454.95 133,-432 156.82,-398.55 203.27,-386.01 238.77,-381.42"/>
<polygon fill="#8b4513" stroke="#8b4513" points="239.39,-384.87 248.93,-380.28 238.61,-377.92 239.39,-384.87"/>
</g>
<!-- libncursesw.so=6&#45;64 -->
<g id="node17" class="node">
<title>libncursesw.so=6&#45;64</title>
<ellipse fill="green" stroke="green" cx="226" cy="-450" rx="83.69" ry="18"/>
<text text-anchor="middle" x="226" y="-446.3" font-family="Times,serif" font-size="14.00">libncursesw.so=6&#45;64</text>
</g>
<!-- readline&#45;&gt;libncursesw.so=6&#45;64 -->
<g id="edge18" class="edge">
<title>readline&#45;&gt;libncursesw.so=6&#45;64</title>
<path fill="none" stroke="#8b4513" d="M182.22,-504.76C189.14,-496.27 197.76,-485.68 205.52,-476.15"/>
<polygon fill="#8b4513" stroke="#8b4513" points="208.46,-478.09 212.06,-468.12 203.03,-473.67 208.46,-478.09"/>
</g>
<!-- linux&#45;api&#45;headers&gt;=4.10 -->
<g id="node9" class="node">
<title>linux&#45;api&#45;headers&gt;=4.10</title>
<ellipse fill="green" stroke="green" cx="421" cy="-90" rx="98.28" ry="18"/>
<text text-anchor="middle" x="421" y="-86.3" font-family="Times,serif" font-size="14.00">linux&#45;api&#45;headers&gt;=4.10</text>
</g>
<!-- glibc&#45;&gt;linux&#45;api&#45;headers&gt;=4.10 -->
<g id="edge8" class="edge">
<title>glibc&#45;&gt;linux&#45;api&#45;headers&gt;=4.10</title>
<path fill="none" stroke="#8b4513" d="M546.84,-150.52C525.06,-140.22 491.23,-124.22 464.13,-111.4"/>
<polygon fill="#8b4513" stroke="#8b4513" points="465.39,-108.12 454.85,-107.01 462.4,-114.45 465.39,-108.12"/>
</g>
<!-- tzdata -->
<g id="node11" class="node">
<title>tzdata</title>
<ellipse fill="green" stroke="green" cx="569" cy="-90" rx="31.7" ry="18"/>
<text text-anchor="middle" x="569" y="-86.3" font-family="Times,serif" font-size="14.00">tzdata</text>
</g>
<!-- glibc&#45;&gt;tzdata -->
<g id="edge10" class="edge">
<title>glibc&#45;&gt;tzdata</title>
<path fill="none" stroke="#8b4513" d="M569,-143.7C569,-135.98 569,-126.71 569,-118.11"/>
<polygon fill="#8b4513" stroke="#8b4513" points="572.5,-118.1 569,-108.1 565.5,-118.1 572.5,-118.1"/>
</g>
<!-- filesystem -->
<g id="node12" class="node">
<title>filesystem</title>
<ellipse fill="green" stroke="green" cx="666" cy="-90" rx="46.59" ry="18"/>
<text text-anchor="middle" x="666" y="-86.3" font-family="Times,serif" font-size="14.00">filesystem</text>
</g>
<!-- glibc&#45;&gt;filesystem -->
<g id="edge11" class="edge">
<title>glibc&#45;&gt;filesystem</title>
<path fill="none" stroke="#8b4513" d="M587.24,-147.83C601.04,-137.88 620.28,-123.99 636.29,-112.44"/>
<polygon fill="#8b4513" stroke="#8b4513" points="638.74,-114.99 644.8,-106.3 634.64,-109.31 638.74,-114.99"/>
</g>
<!-- linux&#45;api&#45;headers -->
<g id="node10" class="node">
<title>linux&#45;api&#45;headers</title>
<ellipse fill="green" stroke="green" cx="421" cy="-18" rx="71.49" ry="18"/>
<text text-anchor="middle" x="421" y="-14.3" font-family="Times,serif" font-size="14.00">linux&#45;api&#45;headers</text>
</g>
<!-- linux&#45;api&#45;headers&gt;=4.10&#45;&gt;linux&#45;api&#45;headers -->
<g id="edge9" class="edge">
<title>linux&#45;api&#45;headers&gt;=4.10&#45;&gt;linux&#45;api&#45;headers</title>
<path fill="none" stroke="grey" d="M421,-71.7C421,-60.85 421,-46.92 421,-36.1"/>
</g>
<!-- iana&#45;etc -->
<g id="node13" class="node">
<title>iana&#45;etc</title>
<ellipse fill="green" stroke="green" cx="666" cy="-18" rx="38.19" ry="18"/>
<text text-anchor="middle" x="666" y="-14.3" font-family="Times,serif" font-size="14.00">iana&#45;etc</text>
</g>
<!-- filesystem&#45;&gt;iana&#45;etc -->
<g id="edge12" class="edge">
<title>filesystem&#45;&gt;iana&#45;etc</title>
<path fill="none" stroke="#8b4513" d="M666,-71.7C666,-63.98 666,-54.71 666,-46.11"/>
<polygon fill="#8b4513" stroke="#8b4513" points="669.5,-46.1 666,-36.1 662.5,-46.1 669.5,-46.1"/>
</g>
<!-- ncurses&#45;&gt;glibc -->
<g id="edge14" class="edge">
<title>ncurses&#45;&gt;glibc</title>
<path fill="none" stroke="#8b4513" d="M282.24,-360.05C276.11,-327.53 268.07,-256.03 305,-216 334.94,-183.55 464.43,-170.13 530.26,-165.33"/>
<polygon fill="#8b4513" stroke="#8b4513" points="530.52,-168.82 540.25,-164.63 530.03,-161.83 530.52,-168.82"/>
</g>
<!-- gcc&#45;libs -->
<g id="node15" class="node">
<title>gcc&#45;libs</title>
<ellipse fill="green" stroke="green" cx="372" cy="-306" rx="38.19" ry="18"/>
<text text-anchor="middle" x="372" y="-302.3" font-family="Times,serif" font-size="14.00">gcc&#45;libs</text>
</g>
<!-- ncurses&#45;&gt;gcc&#45;libs -->
<g id="edge15" class="edge">
<title>ncurses&#45;&gt;gcc&#45;libs</title>
<path fill="none" stroke="#8b4513" d="M304.24,-362.15C316.24,-352.38 332.15,-339.43 345.54,-328.54"/>
<polygon fill="#8b4513" stroke="#8b4513" points="347.95,-331.09 353.49,-322.07 343.53,-325.66 347.95,-331.09"/>
</g>
<!-- glibc&gt;=2.27 -->
<g id="node16" class="node">
<title>glibc&gt;=2.27</title>
<ellipse fill="green" stroke="green" cx="369" cy="-234" rx="54.69" ry="18"/>
<text text-anchor="middle" x="369" y="-230.3" font-family="Times,serif" font-size="14.00">glibc&gt;=2.27</text>
</g>
<!-- gcc&#45;libs&#45;&gt;glibc&gt;=2.27 -->
<g id="edge16" class="edge">
<title>gcc&#45;libs&#45;&gt;glibc&gt;=2.27</title>
<path fill="none" stroke="#8b4513" d="M371.26,-287.7C370.93,-279.98 370.53,-270.71 370.16,-262.11"/>
<polygon fill="#8b4513" stroke="#8b4513" points="373.66,-261.95 369.73,-252.1 366.66,-262.25 373.66,-261.95"/>
</g>
<!-- glibc&gt;=2.27&#45;&gt;glibc -->
<g id="edge17" class="edge">
<title>glibc&gt;=2.27&#45;&gt;glibc</title>
<path fill="none" stroke="grey" d="M405.22,-220.32C445.63,-206.18 509.89,-183.69 544.69,-171.51"/>
</g>
<!-- libncursesw.so=6&#45;64&#45;&gt;ncurses -->
<g id="edge19" class="edge">
<title>libncursesw.so=6&#45;64&#45;&gt;ncurses</title>
<path fill="none" stroke="grey" d="M240.52,-432.05C250.24,-420.73 262.93,-405.92 272.43,-394.83"/>
</g>
<!-- coreutils&#45;&gt;glibc -->
<g id="edge23" class="edge">
<title>coreutils&#45;&gt;glibc</title>
<path fill="none" stroke="#8b4513" d="M537.63,-1079.99C534.13,-1053.38 528,-1000.28 528,-955 528,-955 528,-955 528,-305 528,-263.18 544.62,-217.05 556.7,-189.05"/>
<polygon fill="#8b4513" stroke="#8b4513" points="560.03,-190.16 560.9,-179.6 553.64,-187.31 560.03,-190.16"/>
</g>
<!-- acl -->
<g id="node19" class="node">
<title>acl</title>
<ellipse fill="green" stroke="green" cx="808" cy="-954" rx="27" ry="18"/>
<text text-anchor="middle" x="808" y="-950.3" font-family="Times,serif" font-size="14.00">acl</text>
</g>
<!-- coreutils&#45;&gt;acl -->
<g id="edge24" class="edge">
<title>coreutils&#45;&gt;acl</title>
<path fill="none" stroke="#8b4513" d="M565.21,-1083.64C615,-1057.26 725.67,-998.62 778.64,-970.55"/>
<polygon fill="#8b4513" stroke="#8b4513" points="780.34,-973.62 787.54,-965.84 777.06,-967.43 780.34,-973.62"/>
</g>
<!-- attr -->
<g id="node20" class="node">
<title>attr</title>
<ellipse fill="green" stroke="green" cx="845" cy="-810" rx="27" ry="18"/>
<text text-anchor="middle" x="845" y="-806.3" font-family="Times,serif" font-size="14.00">attr</text>
</g>
<!-- coreutils&#45;&gt;attr -->
<g id="edge27" class="edge">
<title>coreutils&#45;&gt;attr</title>
<path fill="none" stroke="#8b4513" d="M571.4,-1086.37C645.9,-1060.84 828.3,-996.38 844,-972 870.34,-931.11 861.34,-871.43 852.87,-837.39"/>
<polygon fill="#8b4513" stroke="#8b4513" points="856.24,-836.46 850.29,-827.7 849.48,-838.26 856.24,-836.46"/>
</g>
<!-- gmp -->
<g id="node21" class="node">
<title>gmp</title>
<ellipse fill="green" stroke="green" cx="225" cy="-810" rx="27" ry="18"/>
<text text-anchor="middle" x="225" y="-806.3" font-family="Times,serif" font-size="14.00">gmp</text>
</g>
<!-- coreutils&#45;&gt;gmp -->
<g id="edge28" class="edge">
<title>coreutils&#45;&gt;gmp</title>
<path fill="none" stroke="#8b4513" d="M499.82,-1093.74C459.19,-1088.72 396.23,-1076.01 352,-1044 280.37,-992.17 244.76,-887.1 231.42,-837.75"/>
<polygon fill="#8b4513" stroke="#8b4513" points="234.75,-836.62 228.84,-827.83 227.97,-838.38 234.75,-836.62"/>
</g>
<!-- libcap -->
<g id="node23" class="node">
<title>libcap</title>
<ellipse fill="green" stroke="green" cx="692" cy="-882" rx="32.49" ry="18"/>
<text text-anchor="middle" x="692" y="-878.3" font-family="Times,serif" font-size="14.00">libcap</text>
</g>
<!-- coreutils&#45;&gt;libcap -->
<g id="edge32" class="edge">
<title>coreutils&#45;&gt;libcap</title>
<path fill="none" stroke="#8b4513" d="M546.5,-1080.18C558.93,-1049.37 588.32,-982.76 627,-936 637.48,-923.33 651.37,-911.52 663.61,-902.28"/>
<polygon fill="#8b4513" stroke="#8b4513" points="665.76,-905.05 671.76,-896.32 661.63,-899.4 665.76,-905.05"/>
</g>
<!-- openssl -->
<g id="node24" class="node">
<title>openssl</title>
<ellipse fill="green" stroke="green" cx="398" cy="-1026" rx="37.09" ry="18"/>
<text text-anchor="middle" x="398" y="-1022.3" font-family="Times,serif" font-size="14.00">openssl</text>
</g>
<!-- coreutils&#45;&gt;openssl -->
<g id="edge35" class="edge">
<title>coreutils&#45;&gt;openssl</title>
<path fill="none" stroke="#8b4513" d="M513.62,-1084C490.72,-1072.71 457.41,-1056.28 432.41,-1043.96"/>
<polygon fill="#8b4513" stroke="#8b4513" points="433.8,-1040.74 423.28,-1039.46 430.7,-1047.02 433.8,-1040.74"/>
</g>
<!-- acl&#45;&gt;attr -->
<g id="edge25" class="edge">
<title>acl&#45;&gt;attr</title>
<path fill="none" stroke="#8b4513" d="M812.39,-936.15C818.73,-911.81 830.52,-866.57 838.05,-837.67"/>
<polygon fill="#8b4513" stroke="#8b4513" points="841.48,-838.38 840.62,-827.82 834.71,-836.62 841.48,-838.38"/>
</g>
<!-- attr&#45;&gt;glibc -->
<g id="edge26" class="edge">
<title>attr&#45;&gt;glibc</title>
<path fill="none" stroke="#8b4513" d="M845,-791.95C845,-765.29 845,-712.11 845,-667 845,-667 845,-667 845,-305 845,-199.49 683.56,-172.31 607.62,-165.36"/>
<polygon fill="#8b4513" stroke="#8b4513" points="607.76,-161.86 597.5,-164.51 607.17,-168.84 607.76,-161.86"/>
</g>
<!-- gmp&#45;&gt;gcc&#45;libs -->
<g id="edge29" class="edge">
<title>gmp&#45;&gt;gcc&#45;libs</title>
<path fill="none" stroke="#8b4513" d="M247.93,-800.05C290.18,-781.89 376,-736.45 376,-667 376,-667 376,-667 376,-449 376,-408.98 374.39,-362.64 373.22,-334.07"/>
<polygon fill="#8b4513" stroke="#8b4513" points="376.71,-333.89 372.79,-324.04 369.72,-334.18 376.71,-333.89"/>
</g>
<!-- sh -->
<g id="node22" class="node">
<title>sh</title>
<ellipse fill="green" stroke="green" cx="237" cy="-738" rx="27" ry="18"/>
<text text-anchor="middle" x="237" y="-734.3" font-family="Times,serif" font-size="14.00">sh</text>
</g>
<!-- gmp&#45;&gt;sh -->
<g id="edge30" class="edge">
<title>gmp&#45;&gt;sh</title>
<path fill="none" stroke="#8b4513" d="M227.9,-792.05C229.23,-784.35 230.82,-775.03 232.31,-766.36"/>
<polygon fill="#8b4513" stroke="#8b4513" points="235.8,-766.72 234.04,-756.28 228.9,-765.54 235.8,-766.72"/>
</g>
<!-- sh&#45;&gt;bash -->
<g id="edge31" class="edge">
<title>sh&#45;&gt;bash</title>
<path fill="none" stroke="grey" d="M213.93,-728.42C199.72,-714.98 199.69,-689.13 213.85,-675.65"/>
</g>
<!-- sh&#45;&gt;bash -->
<g id="edge41" class="edge">
<title>sh&#45;&gt;bash</title>
<path fill="none" stroke="grey" d="M220.63,-723.5C215.45,-711.11 215.46,-692.84 220.64,-680.46"/>
</g>
<!-- sh&#45;&gt;bash -->
<g id="edge45" class="edge">
<title>sh&#45;&gt;bash</title>
<path fill="none" stroke="grey" d="M231.16,-720.41C229.96,-709.41 229.95,-695.03 231.12,-683.96"/>
</g>
<!-- sh&#45;&gt;bash -->
<g id="edge50" class="edge">
<title>sh&#45;&gt;bash</title>
<path fill="none" stroke="grey" d="M242.84,-720.41C244.04,-709.41 244.05,-695.03 242.88,-683.96"/>
</g>
<!-- sh&#45;&gt;bash -->
<g id="edge71" class="edge">
<title>sh&#45;&gt;bash</title>
<path fill="none" stroke="grey" d="M253.37,-723.5C258.55,-711.11 258.54,-692.84 253.36,-680.46"/>
</g>
<!-- sh&#45;&gt;bash -->
<g id="edge76" class="edge">
<title>sh&#45;&gt;bash</title>
<path fill="none" stroke="grey" d="M260.07,-728.42C274.28,-714.98 274.31,-689.13 260.15,-675.65"/>
</g>
<!-- libcap&#45;&gt;glibc -->
<g id="edge33" class="edge">
<title>libcap&#45;&gt;glibc</title>
<path fill="none" stroke="#8b4513" d="M692,-863.95C692,-837.29 692,-784.11 692,-739 692,-739 692,-739 692,-305 692,-248.17 635.02,-202.92 598.63,-179.81"/>
<polygon fill="#8b4513" stroke="#8b4513" points="600.22,-176.68 589.87,-174.42 596.55,-182.64 600.22,-176.68"/>
</g>
<!-- libcap&#45;&gt;attr -->
<g id="edge34" class="edge">
<title>libcap&#45;&gt;attr</title>
<path fill="none" stroke="#8b4513" d="M716.24,-869.91C742.74,-857.79 785.26,-838.33 814.12,-825.13"/>
<polygon fill="#8b4513" stroke="#8b4513" points="815.71,-828.25 823.34,-820.91 812.79,-821.89 815.71,-828.25"/>
</g>
<!-- perl -->
<g id="node25" class="node">
<title>perl</title>
<ellipse fill="green" stroke="green" cx="365" cy="-954" rx="27" ry="18"/>
<text text-anchor="middle" x="365" y="-950.3" font-family="Times,serif" font-size="14.00">perl</text>
</g>
<!-- openssl&#45;&gt;perl -->
<g id="edge36" class="edge">
<title>openssl&#45;&gt;perl</title>
<path fill="none" stroke="#8b4513" d="M390.01,-1008.05C386.1,-999.77 381.32,-989.62 376.99,-980.42"/>
<polygon fill="#8b4513" stroke="#8b4513" points="380.12,-978.86 372.69,-971.31 373.79,-981.84 380.12,-978.86"/>
</g>
<!-- perl&#45;&gt;glibc -->
<g id="edge46" class="edge">
<title>perl&#45;&gt;glibc</title>
<path fill="none" stroke="#8b4513" d="M390.04,-947.21C414.48,-940.23 450.85,-926.03 471,-900 495.76,-868.02 490,-851.45 490,-811 490,-811 490,-811 490,-305 490,-264.03 493.16,-251.27 514,-216 521.47,-203.35 532.77,-191.73 543.19,-182.61"/>
<polygon fill="#8b4513" stroke="#8b4513" points="545.49,-185.25 550.91,-176.15 541,-179.88 545.49,-185.25"/>
</g>
<!-- gdbm&gt;=1.17 -->
<g id="node26" class="node">
<title>gdbm&gt;=1.17</title>
<ellipse fill="green" stroke="green" cx="332" cy="-882" rx="57.69" ry="18"/>
<text text-anchor="middle" x="332" y="-878.3" font-family="Times,serif" font-size="14.00">gdbm&gt;=1.17</text>
</g>
<!-- perl&#45;&gt;gdbm&gt;=1.17 -->
<g id="edge37" class="edge">
<title>perl&#45;&gt;gdbm&gt;=1.17</title>
<path fill="none" stroke="#8b4513" d="M357.18,-936.41C353.33,-928.25 348.6,-918.22 344.29,-909.07"/>
<polygon fill="#8b4513" stroke="#8b4513" points="347.42,-907.51 339.99,-899.96 341.09,-910.49 347.42,-907.51"/>
</g>
<!-- db -->
<g id="node28" class="node">
<title>db</title>
<ellipse fill="green" stroke="green" cx="335" cy="-810" rx="27" ry="18"/>
<text text-anchor="middle" x="335" y="-806.3" font-family="Times,serif" font-size="14.00">db</text>
</g>
<!-- perl&#45;&gt;db -->
<g id="edge42" class="edge">
<title>perl&#45;&gt;db</title>
<path fill="none" stroke="#8b4513" d="M339.75,-947.47C315.78,-940.73 281.11,-926.77 265,-900 256.75,-886.29 257.88,-878.33 265,-864 273.26,-847.38 289.49,-834.59 304.25,-825.73"/>
<polygon fill="#8b4513" stroke="#8b4513" points="306.15,-828.68 313.16,-820.73 302.73,-822.57 306.15,-828.68"/>
</g>
<!-- gdbm -->
<g id="node27" class="node">
<title>gdbm</title>
<ellipse fill="green" stroke="green" cx="411" cy="-810" rx="31.4" ry="18"/>
<text text-anchor="middle" x="411" y="-806.3" font-family="Times,serif" font-size="14.00">gdbm</text>
</g>
<!-- gdbm&gt;=1.17&#45;&gt;gdbm -->
<g id="edge38" class="edge">
<title>gdbm&gt;=1.17&#45;&gt;gdbm</title>
<path fill="none" stroke="grey" d="M350.32,-864.76C363.72,-852.89 381.74,-836.93 394.66,-825.48"/>
</g>
<!-- gdbm&#45;&gt;glibc -->
<g id="edge39" class="edge">
<title>gdbm&#45;&gt;glibc</title>
<path fill="none" stroke="#8b4513" d="M419.1,-792.4C431.05,-766.34 452,-713.96 452,-667 452,-667 452,-667 452,-305 452,-264.03 450.94,-248.41 476,-216 490.85,-196.79 514.76,-183.39 534.61,-174.87"/>
<polygon fill="#8b4513" stroke="#8b4513" points="536.03,-178.07 543.98,-171.07 533.4,-171.58 536.03,-178.07"/>
</g>
<!-- gdbm&#45;&gt;sh -->
<g id="edge40" class="edge">
<title>gdbm&#45;&gt;sh</title>
<path fill="none" stroke="#8b4513" d="M386.5,-798.47C381.39,-796.31 376.03,-794.06 371,-792 336.37,-777.79 296.44,-762.09 269.24,-751.49"/>
<polygon fill="#8b4513" stroke="#8b4513" points="270.42,-748.19 259.83,-747.83 267.88,-754.72 270.42,-748.19"/>
</g>
<!-- db&#45;&gt;gcc&#45;libs -->
<g id="edge43" class="edge">
<title>db&#45;&gt;gcc&#45;libs</title>
<path fill="none" stroke="#8b4513" d="M352.57,-796.27C364.77,-786.54 380.49,-772.1 390,-756 410.84,-720.73 414,-707.97 414,-667 414,-667 414,-667 414,-449 414,-407.1 396.98,-360.99 384.6,-333.02"/>
<polygon fill="#8b4513" stroke="#8b4513" points="387.63,-331.22 380.3,-323.58 381.26,-334.13 387.63,-331.22"/>
</g>
<!-- db&#45;&gt;sh -->
<g id="edge44" class="edge">
<title>db&#45;&gt;sh</title>
<path fill="none" stroke="#8b4513" d="M317.03,-796.16C301.97,-785.41 280.27,-769.91 263.27,-757.76"/>
<polygon fill="#8b4513" stroke="#8b4513" points="265.03,-754.72 254.86,-751.76 260.96,-760.42 265.03,-754.72"/>
</g>
<!-- findutils&#45;&gt;glibc -->
<g id="edge48" class="edge">
<title>findutils&#45;&gt;glibc</title>
<path fill="none" stroke="#8b4513" d="M81.85,-794.5C52.12,-771.24 0,-722.55 0,-667 0,-667 0,-667 0,-305 0,-258.73 14.9,-240.73 54,-216 133.04,-166.01 423.89,-162.27 529.96,-162.62"/>
<polygon fill="#8b4513" stroke="#8b4513" points="530.2,-166.12 540.22,-162.67 530.24,-159.12 530.2,-166.12"/>
</g>
<!-- findutils&#45;&gt;sh -->
<g id="edge49" class="edge">
<title>findutils&#45;&gt;sh</title>
<path fill="none" stroke="#8b4513" d="M127.08,-796C149.69,-784.27 183,-767 207.02,-754.55"/>
<polygon fill="#8b4513" stroke="#8b4513" points="208.78,-757.58 216.05,-749.87 205.56,-751.36 208.78,-757.58"/>
</g>
<!-- p11&#45;kit -->
<g id="node31" class="node">
<title>p11&#45;kit</title>
<ellipse fill="green" stroke="green" cx="692" cy="-1170" rx="36.29" ry="18"/>
<text text-anchor="middle" x="692" y="-1166.3" font-family="Times,serif" font-size="14.00">p11&#45;kit</text>
</g>
<!-- p11&#45;kit&gt;=0.23.19&#45;&gt;p11&#45;kit -->
<g id="edge52" class="edge">
<title>p11&#45;kit&gt;=0.23.19&#45;&gt;p11&#45;kit</title>
<path fill="none" stroke="grey" d="M594.28,-1225.29C616.62,-1212.88 647.45,-1195.75 668.46,-1184.08"/>
</g>
<!-- p11&#45;kit&#45;&gt;coreutils -->
<g id="edge60" class="edge">
<title>p11&#45;kit&#45;&gt;coreutils</title>
<path fill="none" stroke="#8b4513" d="M666.22,-1157.13C641.59,-1145.79 604.24,-1128.58 576.55,-1115.83"/>
<polygon fill="#8b4513" stroke="#8b4513" points="577.74,-1112.53 567.2,-1111.52 574.81,-1118.89 577.74,-1112.53"/>
</g>
<!-- libp11&#45;kit=0.23.20&#45;5 -->
<g id="node32" class="node">
<title>libp11&#45;kit=0.23.20&#45;5</title>
<ellipse fill="green" stroke="green" cx="967" cy="-1026" rx="85.29" ry="18"/>
<text text-anchor="middle" x="967" y="-1022.3" font-family="Times,serif" font-size="14.00">libp11&#45;kit=0.23.20&#45;5</text>
</g>
<!-- p11&#45;kit&#45;&gt;libp11&#45;kit=0.23.20&#45;5 -->
<g id="edge53" class="edge">
<title>p11&#45;kit&#45;&gt;libp11&#45;kit=0.23.20&#45;5</title>
<path fill="none" stroke="#8b4513" d="M716.4,-1156.4C763.85,-1131.9 868.92,-1077.64 926.81,-1047.76"/>
<polygon fill="#8b4513" stroke="#8b4513" points="928.74,-1050.7 936.02,-1043 925.52,-1044.48 928.74,-1050.7"/>
</g>
<!-- libp11&#45;kit.so=0&#45;64 -->
<g id="node36" class="node">
<title>libp11&#45;kit.so=0&#45;64</title>
<ellipse fill="green" stroke="green" cx="1076" cy="-666" rx="77.19" ry="18"/>
<text text-anchor="middle" x="1076" y="-662.3" font-family="Times,serif" font-size="14.00">libp11&#45;kit.so=0&#45;64</text>
</g>
<!-- p11&#45;kit&#45;&gt;libp11&#45;kit.so=0&#45;64 -->
<g id="edge61" class="edge">
<title>p11&#45;kit&#45;&gt;libp11&#45;kit.so=0&#45;64</title>
<path fill="none" stroke="#8b4513" d="M726.43,-1163.98C821.39,-1149.17 1080,-1101.96 1080,-1027 1080,-1027 1080,-1027 1080,-809 1080,-768.98 1078.39,-722.64 1077.22,-694.07"/>
<polygon fill="#8b4513" stroke="#8b4513" points="1080.71,-693.89 1076.79,-684.04 1073.72,-694.18 1080.71,-693.89"/>
</g>
<!-- libsystemd.so=0&#45;64 -->
<g id="node37" class="node">
<title>libsystemd.so=0&#45;64</title>
<ellipse fill="green" stroke="green" cx="692" cy="-1098" rx="81.49" ry="18"/>
<text text-anchor="middle" x="692" y="-1094.3" font-family="Times,serif" font-size="14.00">libsystemd.so=0&#45;64</text>
</g>
<!-- p11&#45;kit&#45;&gt;libsystemd.so=0&#45;64 -->
<g id="edge63" class="edge">
<title>p11&#45;kit&#45;&gt;libsystemd.so=0&#45;64</title>
<path fill="none" stroke="#8b4513" d="M692,-1151.7C692,-1143.98 692,-1134.71 692,-1126.11"/>
<polygon fill="#8b4513" stroke="#8b4513" points="695.5,-1126.1 692,-1116.1 688.5,-1126.1 695.5,-1126.1"/>
</g>
<!-- libp11&#45;kit -->
<g id="node33" class="node">
<title>libp11&#45;kit</title>
<ellipse fill="green" stroke="green" cx="967" cy="-306" rx="46.29" ry="18"/>
<text text-anchor="middle" x="967" y="-302.3" font-family="Times,serif" font-size="14.00">libp11&#45;kit</text>
</g>
<!-- libp11&#45;kit=0.23.20&#45;5&#45;&gt;libp11&#45;kit -->
<g id="edge54" class="edge">
<title>libp11&#45;kit=0.23.20&#45;5&#45;&gt;libp11&#45;kit</title>
<path fill="none" stroke="grey" d="M967,-1007.95C967,-981.29 967,-928.11 967,-883 967,-883 967,-883 967,-449 967,-403.89 967,-350.71 967,-324.05"/>
</g>
<!-- libp11&#45;kit&#45;&gt;glibc -->
<g id="edge55" class="edge">
<title>libp11&#45;kit&#45;&gt;glibc</title>
<path fill="none" stroke="#8b4513" d="M966.57,-288C965.06,-267.59 959.27,-233.89 938,-216 888.6,-174.46 692.16,-165.47 607.81,-163.53"/>
<polygon fill="#8b4513" stroke="#8b4513" points="607.69,-160.03 597.62,-163.32 607.54,-167.03 607.69,-160.03"/>
</g>
<!-- libtasn1 -->
<g id="node34" class="node">
<title>libtasn1</title>
<ellipse fill="green" stroke="green" cx="1023" cy="-234" rx="38.19" ry="18"/>
<text text-anchor="middle" x="1023" y="-230.3" font-family="Times,serif" font-size="14.00">libtasn1</text>
</g>
<!-- libp11&#45;kit&#45;&gt;libtasn1 -->
<g id="edge56" class="edge">
<title>libp11&#45;kit&#45;&gt;libtasn1</title>
<path fill="none" stroke="#8b4513" d="M980.27,-288.41C987.28,-279.66 996,-268.75 1003.73,-259.08"/>
<polygon fill="#8b4513" stroke="#8b4513" points="1006.7,-260.98 1010.21,-250.99 1001.23,-256.61 1006.7,-260.98"/>
</g>
<!-- libffi -->
<g id="node35" class="node">
<title>libffi</title>
<ellipse fill="green" stroke="green" cx="901" cy="-234" rx="27.9" ry="18"/>
<text text-anchor="middle" x="901" y="-230.3" font-family="Times,serif" font-size="14.00">libffi</text>
</g>
<!-- libp11&#45;kit&#45;&gt;libffi -->
<g id="edge58" class="edge">
<title>libp11&#45;kit&#45;&gt;libffi</title>
<path fill="none" stroke="#8b4513" d="M951.69,-288.76C942.83,-279.37 931.55,-267.41 921.89,-257.15"/>
<polygon fill="#8b4513" stroke="#8b4513" points="924.28,-254.59 914.88,-249.72 919.19,-259.39 924.28,-254.59"/>
</g>
<!-- libtasn1&#45;&gt;glibc -->
<g id="edge57" class="edge">
<title>libtasn1&#45;&gt;glibc</title>
<path fill="none" stroke="#8b4513" d="M993.57,-222.33C986.27,-219.98 978.41,-217.68 971,-216 839.49,-186.1 679.68,-171.27 607.58,-165.7"/>
<polygon fill="#8b4513" stroke="#8b4513" points="607.82,-162.21 597.59,-164.94 607.29,-169.19 607.82,-162.21"/>
</g>
<!-- libffi&#45;&gt;glibc -->
<g id="edge59" class="edge">
<title>libffi&#45;&gt;glibc</title>
<path fill="none" stroke="#8b4513" d="M878.63,-222.96C872.37,-220.42 865.5,-217.89 859,-216 770.58,-190.32 663.21,-174.56 607.2,-167.46"/>
<polygon fill="#8b4513" stroke="#8b4513" points="607.38,-163.95 597.03,-166.19 606.52,-170.9 607.38,-163.95"/>
</g>
<!-- libp11&#45;kit.so=0&#45;64&#45;&gt;libp11&#45;kit -->
<g id="edge62" class="edge">
<title>libp11&#45;kit.so=0&#45;64&#45;&gt;libp11&#45;kit</title>
<path fill="none" stroke="grey" d="M1068.71,-647.87C1058.2,-621.53 1040,-569.29 1040,-523 1040,-523 1040,-523 1040,-449 1040,-398.55 1003.1,-348.06 981.77,-323.09"/>
</g>
<!-- systemd&#45;libs -->
<g id="node38" class="node">
<title>systemd&#45;libs</title>
<ellipse fill="green" stroke="green" cx="692" cy="-954" rx="55.79" ry="18"/>
<text text-anchor="middle" x="692" y="-950.3" font-family="Times,serif" font-size="14.00">systemd&#45;libs</text>
</g>
<!-- libsystemd.so=0&#45;64&#45;&gt;systemd&#45;libs -->
<g id="edge64" class="edge">
<title>libsystemd.so=0&#45;64&#45;&gt;systemd&#45;libs</title>
<path fill="none" stroke="grey" d="M692,-1079.87C692,-1052.58 692,-999.52 692,-972.19"/>
</g>
<!-- systemd&#45;libs&#45;&gt;glibc -->
<g id="edge65" class="edge">
<title>systemd&#45;libs&#45;&gt;glibc</title>
<path fill="none" stroke="#8b4513" d="M709.27,-936.59C718.19,-926.91 728.2,-913.85 733,-900 766.9,-802.15 735,-770.56 735,-667 735,-667 735,-667 735,-305 735,-236.34 651.99,-193.78 603.37,-174.74"/>
<polygon fill="#8b4513" stroke="#8b4513" points="604.44,-171.4 593.85,-171.14 601.97,-177.95 604.44,-171.4"/>
</g>
<!-- systemd&#45;libs&#45;&gt;libcap -->
<g id="edge66" class="edge">
<title>systemd&#45;libs&#45;&gt;libcap</title>
<path fill="none" stroke="#8b4513" d="M692,-935.7C692,-927.98 692,-918.71 692,-910.11"/>
<polygon fill="#8b4513" stroke="#8b4513" points="695.5,-910.1 692,-900.1 688.5,-910.1 695.5,-910.1"/>
</g>
<!-- libgcrypt -->
<g id="node39" class="node">
<title>libgcrypt</title>
<ellipse fill="green" stroke="green" cx="599" cy="-882" rx="42.79" ry="18"/>
<text text-anchor="middle" x="599" y="-878.3" font-family="Times,serif" font-size="14.00">libgcrypt</text>
</g>
<!-- systemd&#45;libs&#45;&gt;libgcrypt -->
<g id="edge67" class="edge">
<title>systemd&#45;libs&#45;&gt;libgcrypt</title>
<path fill="none" stroke="#8b4513" d="M670.9,-937.12C658.03,-927.43 641.41,-914.92 627.4,-904.37"/>
<polygon fill="#8b4513" stroke="#8b4513" points="629.16,-901.32 619.06,-898.1 624.95,-906.91 629.16,-901.32"/>
</g>
<!-- lz4 -->
<g id="node41" class="node">
<title>lz4</title>
<ellipse fill="green" stroke="green" cx="790" cy="-738" rx="27" ry="18"/>
<text text-anchor="middle" x="790" y="-734.3" font-family="Times,serif" font-size="14.00">lz4</text>
</g>
<!-- systemd&#45;libs&#45;&gt;lz4 -->
<g id="edge72" class="edge">
<title>systemd&#45;libs&#45;&gt;lz4</title>
<path fill="none" stroke="#8b4513" d="M722.21,-938.81C737.81,-929.89 755.7,-916.85 766,-900 791.27,-858.66 793.46,-800.48 792.14,-766.56"/>
<polygon fill="#8b4513" stroke="#8b4513" points="795.63,-766.26 791.62,-756.45 788.64,-766.62 795.63,-766.26"/>
</g>
<!-- xz -->
<g id="node42" class="node">
<title>xz</title>
<ellipse fill="green" stroke="green" cx="435" cy="-882" rx="27" ry="18"/>
<text text-anchor="middle" x="435" y="-878.3" font-family="Times,serif" font-size="14.00">xz</text>
</g>
<!-- systemd&#45;libs&#45;&gt;xz -->
<g id="edge74" class="edge">
<title>systemd&#45;libs&#45;&gt;xz</title>
<path fill="none" stroke="#8b4513" d="M650.71,-941.75C600.34,-928.04 516.14,-905.1 469.22,-892.32"/>
<polygon fill="#8b4513" stroke="#8b4513" points="470.09,-888.93 459.52,-889.68 468.25,-895.68 470.09,-888.93"/>
</g>
<!-- libgpg&#45;error -->
<g id="node40" class="node">
<title>libgpg&#45;error</title>
<ellipse fill="green" stroke="green" cx="610" cy="-810" rx="53.89" ry="18"/>
<text text-anchor="middle" x="610" y="-806.3" font-family="Times,serif" font-size="14.00">libgpg&#45;error</text>
</g>
<!-- libgcrypt&#45;&gt;libgpg&#45;error -->
<g id="edge68" class="edge">
<title>libgcrypt&#45;&gt;libgpg&#45;error</title>
<path fill="none" stroke="#8b4513" d="M601.72,-863.7C602.93,-855.98 604.39,-846.71 605.74,-838.11"/>
<polygon fill="#8b4513" stroke="#8b4513" points="609.22,-838.53 607.31,-828.1 602.3,-837.44 609.22,-838.53"/>
</g>
<!-- libgpg&#45;error&#45;&gt;glibc -->
<g id="edge69" class="edge">
<title>libgpg&#45;error&#45;&gt;glibc</title>
<path fill="none" stroke="#8b4513" d="M605.95,-791.62C600.11,-764.97 590,-712.31 590,-667 590,-667 590,-667 590,-305 590,-264.56 581.56,-218.33 575.38,-189.9"/>
<polygon fill="#8b4513" stroke="#8b4513" points="578.75,-188.92 573.15,-179.93 571.92,-190.45 578.75,-188.92"/>
</g>
<!-- libgpg&#45;error&#45;&gt;sh -->
<g id="edge70" class="edge">
<title>libgpg&#45;error&#45;&gt;sh</title>
<path fill="none" stroke="#8b4513" d="M564.26,-800.42C489.11,-786.31 341.04,-758.53 272.89,-745.73"/>
<polygon fill="#8b4513" stroke="#8b4513" points="273.13,-742.22 262.66,-743.81 271.84,-749.1 273.13,-742.22"/>
</g>
<!-- lz4&#45;&gt;glibc -->
<g id="edge73" class="edge">
<title>lz4&#45;&gt;glibc</title>
<path fill="none" stroke="#8b4513" d="M788.22,-719.97C785.6,-693.34 781,-640.21 781,-595 781,-595 781,-595 781,-305 781,-262.97 779.58,-244.84 749,-216 710.38,-179.59 648,-168.06 607.75,-164.48"/>
<polygon fill="#8b4513" stroke="#8b4513" points="607.76,-160.97 597.53,-163.7 607.23,-167.95 607.76,-160.97"/>
</g>
<!-- xz&#45;&gt;sh -->
<g id="edge75" class="edge">
<title>xz&#45;&gt;sh</title>
<path fill="none" stroke="#8b4513" d="M413.83,-870.59C409,-868.33 403.85,-866.01 399,-864 355.37,-845.89 336.49,-856.74 299,-828 277.04,-811.17 259.86,-784.33 249.21,-764.53"/>
<polygon fill="#8b4513" stroke="#8b4513" points="252.21,-762.72 244.51,-755.44 246,-765.93 252.21,-762.72"/>
</g>
</g>
</svg>
