<?xml version="1.0" encoding="UTF-8" standalone="no"?>
<!DOCTYPE svg PUBLIC "-//W3C//DTD SVG 1.1//EN"
 "http://www.w3.org/Graphics/SVG/1.1/DTD/svg11.dtd">
<!-- Generated by graphviz version 2.44.0 (0)
 -->
<!-- Title: G Pages: 1 -->
<svg width="644pt" height="1196pt"
 viewBox="0.00 0.00 644.14 1196.00" xmlns="http://www.w3.org/2000/svg" xmlns:xlink="http://www.w3.org/1999/xlink">
<g id="graph0" class="graph" transform="scale(1 1) rotate(0) translate(4 1192)">
<title>G</title>
<polygon fill="white" stroke="transparent" points="-4,4 -4,-1192 640.14,-1192 640.14,4 -4,4"/>
<!-- START -->
<g id="node1" class="node">
<title>START</title>
<ellipse fill="red" stroke="red" cx="148.14" cy="-1170" rx="38.19" ry="18"/>
<text text-anchor="middle" x="148.14" y="-1166.3" font-family="Times,serif" font-size="14.00">START</text>
</g>
<!-- coreutils -->
<g id="node2" class="node">
<title>coreutils</title>
<ellipse fill="green" stroke="green" cx="148.14" cy="-1098" rx="40.89" ry="18"/>
<text text-anchor="middle" x="148.14" y="-1094.3" font-family="Times,serif" font-size="14.00">coreutils</text>
</g>
<!-- START&#45;&gt;coreutils -->
<g id="edge1" class="edge">
<title>START&#45;&gt;coreutils</title>
<path fill="none" stroke="black" d="M148.14,-1151.7C148.14,-1143.98 148.14,-1134.71 148.14,-1126.11"/>
<polygon fill="black" stroke="black" points="151.64,-1126.1 148.14,-1116.1 144.64,-1126.1 151.64,-1126.1"/>
</g>
<!-- glibc -->
<g id="node3" class="node">
<title>glibc</title>
<ellipse fill="green" stroke="green" cx="246.14" cy="-162" rx="28.7" ry="18"/>
<text text-anchor="middle" x="246.14" y="-158.3" font-family="Times,serif" font-size="14.00">glibc</text>
</g>
<!-- coreutils&#45;&gt;glibc -->
<g id="edge2" class="edge">
<title>coreutils&#45;&gt;glibc</title>
<path fill="none" stroke="#8b4513" d="M120.96,-1084.21C103.4,-1074.93 80.97,-1061.04 65.14,-1044 34.55,-1011.07 17.14,-999.94 17.14,-955 17.14,-955 17.14,-955 17.14,-305 17.14,-215.97 143.71,-180.83 208.65,-168.66"/>
<polygon fill="#8b4513" stroke="#8b4513" points="209.29,-172.11 218.52,-166.9 208.06,-165.21 209.29,-172.11"/>
</g>
<!-- acl -->
<g id="node9" class="node">
<title>acl</title>
<ellipse fill="green" stroke="green" cx="110.14" cy="-1026" rx="27" ry="18"/>
<text text-anchor="middle" x="110.14" y="-1022.3" font-family="Times,serif" font-size="14.00">acl</text>
</g>
<!-- coreutils&#45;&gt;acl -->
<g id="edge8" class="edge">
<title>coreutils&#45;&gt;acl</title>
<path fill="none" stroke="#8b4513" d="M139.14,-1080.41C134.59,-1072.04 128.98,-1061.71 123.91,-1052.37"/>
<polygon fill="#8b4513" stroke="#8b4513" points="126.93,-1050.59 119.08,-1043.47 120.78,-1053.93 126.93,-1050.59"/>
</g>
<!-- attr -->
<g id="node10" class="node">
<title>attr</title>
<ellipse fill="green" stroke="green" cx="91.14" cy="-954" rx="27" ry="18"/>
<text text-anchor="middle" x="91.14" y="-950.3" font-family="Times,serif" font-size="14.00">attr</text>
</g>
<!-- coreutils&#45;&gt;attr -->
<g id="edge11" class="edge">
<title>coreutils&#45;&gt;attr</title>
<path fill="none" stroke="#8b4513" d="M119.58,-1084.8C103.05,-1076.06 83.67,-1062.55 74.14,-1044 63.96,-1024.19 70.24,-999.08 77.89,-980.58"/>
<polygon fill="#8b4513" stroke="#8b4513" points="81.14,-981.87 82.05,-971.32 74.76,-979 81.14,-981.87"/>
</g>
<!-- gmp -->
<g id="node11" class="node">
<title>gmp</title>
<ellipse fill="green" stroke="green" cx="247.14" cy="-810" rx="27" ry="18"/>
<text text-anchor="middle" x="247.14" y="-806.3" font-family="Times,serif" font-size="14.00">gmp</text>
</g>
<!-- coreutils&#45;&gt;gmp -->
<g id="edge12" class="edge">
<title>coreutils&#45;&gt;gmp</title>
<path fill="none" stroke="#8b4513" d="M177.6,-1085.46C195.4,-1076.84 216.79,-1063.22 228.14,-1044 266.84,-978.49 259.05,-883.97 252.1,-838.07"/>
<polygon fill="#8b4513" stroke="#8b4513" points="255.53,-837.32 250.48,-828 248.62,-838.43 255.53,-837.32"/>
</g>
<!-- libcap -->
<g id="node20" class="node">
<title>libcap</title>
<ellipse fill="green" stroke="green" cx="187.14" cy="-1026" rx="32.49" ry="18"/>
<text text-anchor="middle" x="187.14" y="-1022.3" font-family="Times,serif" font-size="14.00">libcap</text>
</g>
<!-- coreutils&#45;&gt;libcap -->
<g id="edge28" class="edge">
<title>coreutils&#45;&gt;libcap</title>
<path fill="none" stroke="#8b4513" d="M157.38,-1080.41C162.05,-1072.04 167.8,-1061.71 173.01,-1052.37"/>
<polygon fill="#8b4513" stroke="#8b4513" points="176.16,-1053.91 177.97,-1043.47 170.04,-1050.5 176.16,-1053.91"/>
</g>
<!-- openssl -->
<g id="node21" class="node">
<title>openssl</title>
<ellipse fill="green" stroke="green" cx="315.14" cy="-1026" rx="37.09" ry="18"/>
<text text-anchor="middle" x="315.14" y="-1022.3" font-family="Times,serif" font-size="14.00">openssl</text>
</g>
<!-- coreutils&#45;&gt;openssl -->
<g id="edge31" class="edge">
<title>coreutils&#45;&gt;openssl</title>
<path fill="none" stroke="#8b4513" d="M176.85,-1084.97C204.96,-1073.19 247.89,-1055.19 278.46,-1042.38"/>
<polygon fill="#8b4513" stroke="#8b4513" points="280.04,-1045.51 287.91,-1038.41 277.34,-1039.05 280.04,-1045.51"/>
</g>
<!-- linux&#45;api&#45;headers&gt;=4.10 -->
<g id="node4" class="node">
<title>linux&#45;api&#45;headers&gt;=4.10</title>
<ellipse fill="green" stroke="green" cx="98.14" cy="-90" rx="98.28" ry="18"/>
<text text-anchor="middle" x="98.14" y="-86.3" font-family="Times,serif" font-size="14.00">linux&#45;api&#45;headers&gt;=4.10</text>
</g>
<!-- glibc&#45;&gt;linux&#45;api&#45;headers&gt;=4.10 -->
<g id="edge3" class="edge">
<title>glibc&#45;&gt;linux&#45;api&#45;headers&gt;=4.10</title>
<path fill="none" stroke="#8b4513" d="M223.98,-150.52C202.2,-140.22 168.37,-124.22 141.27,-111.4"/>
<polygon fill="#8b4513" stroke="#8b4513" points="142.53,-108.12 132,-107.01 139.54,-114.45 142.53,-108.12"/>
</g>
<!-- tzdata -->
<g id="node6" class="node">
<title>tzdata</title>
<ellipse fill="green" stroke="green" cx="246.14" cy="-90" rx="31.7" ry="18"/>
<text text-anchor="middle" x="246.14" y="-86.3" font-family="Times,serif" font-size="14.00">tzdata</text>
</g>
<!-- glibc&#45;&gt;tzdata -->
<g id="edge5" class="edge">
<title>glibc&#45;&gt;tzdata</title>
<path fill="none" stroke="#8b4513" d="M246.14,-143.7C246.14,-135.98 246.14,-126.71 246.14,-118.11"/>
<polygon fill="#8b4513" stroke="#8b4513" points="249.64,-118.1 246.14,-108.1 242.64,-118.1 249.64,-118.1"/>
</g>
<!-- filesystem -->
<g id="node7" class="node">
<title>filesystem</title>
<ellipse fill="green" stroke="green" cx="343.14" cy="-90" rx="46.59" ry="18"/>
<text text-anchor="middle" x="343.14" y="-86.3" font-family="Times,serif" font-size="14.00">filesystem</text>
</g>
<!-- glibc&#45;&gt;filesystem -->
<g id="edge6" class="edge">
<title>glibc&#45;&gt;filesystem</title>
<path fill="none" stroke="#8b4513" d="M264.39,-147.83C278.19,-137.88 297.42,-123.99 313.43,-112.44"/>
<polygon fill="#8b4513" stroke="#8b4513" points="315.88,-114.99 321.94,-106.3 311.78,-109.31 315.88,-114.99"/>
</g>
<!-- linux&#45;api&#45;headers -->
<g id="node5" class="node">
<title>linux&#45;api&#45;headers</title>
<ellipse fill="green" stroke="green" cx="98.14" cy="-18" rx="71.49" ry="18"/>
<text text-anchor="middle" x="98.14" y="-14.3" font-family="Times,serif" font-size="14.00">linux&#45;api&#45;headers</text>
</g>
<!-- linux&#45;api&#45;headers&gt;=4.10&#45;&gt;linux&#45;api&#45;headers -->
<g id="edge4" class="edge">
<title>linux&#45;api&#45;headers&gt;=4.10&#45;&gt;linux&#45;api&#45;headers</title>
<path fill="none" stroke="grey" d="M98.14,-71.7C98.14,-60.85 98.14,-46.92 98.14,-36.1"/>
</g>
<!-- iana&#45;etc -->
<g id="node8" class="node">
<title>iana&#45;etc</title>
<ellipse fill="green" stroke="green" cx="343.14" cy="-18" rx="38.19" ry="18"/>
<text text-anchor="middle" x="343.14" y="-14.3" font-family="Times,serif" font-size="14.00">iana&#45;etc</text>
</g>
<!-- filesystem&#45;&gt;iana&#45;etc -->
<g id="edge7" class="edge">
<title>filesystem&#45;&gt;iana&#45;etc</title>
<path fill="none" stroke="#8b4513" d="M343.14,-71.7C343.14,-63.98 343.14,-54.71 343.14,-46.11"/>
<polygon fill="#8b4513" stroke="#8b4513" points="346.64,-46.1 343.14,-36.1 339.64,-46.1 346.64,-46.1"/>
</g>
<!-- acl&#45;&gt;attr -->
<g id="edge9" class="edge">
<title>acl&#45;&gt;attr</title>
<path fill="none" stroke="#8b4513" d="M105.54,-1008.05C103.39,-1000.14 100.79,-990.54 98.39,-981.69"/>
<polygon fill="#8b4513" stroke="#8b4513" points="101.7,-980.52 95.7,-971.79 94.94,-982.36 101.7,-980.52"/>
</g>
<!-- attr&#45;&gt;glibc -->
<g id="edge10" class="edge">
<title>attr&#45;&gt;glibc</title>
<path fill="none" stroke="#8b4513" d="M92.92,-935.97C95.54,-909.34 100.14,-856.21 100.14,-811 100.14,-811 100.14,-811 100.14,-305 100.14,-262.97 103.79,-247.03 132.14,-216 152.72,-193.48 184.8,-179.76 209.69,-171.93"/>
<polygon fill="#8b4513" stroke="#8b4513" points="210.93,-175.22 219.53,-169.03 208.94,-168.5 210.93,-175.22"/>
</g>
<!-- gcc&#45;libs -->
<g id="node12" class="node">
<title>gcc&#45;libs</title>
<ellipse fill="green" stroke="green" cx="321.14" cy="-306" rx="38.19" ry="18"/>
<text text-anchor="middle" x="321.14" y="-302.3" font-family="Times,serif" font-size="14.00">gcc&#45;libs</text>
</g>
<!-- gmp&#45;&gt;gcc&#45;libs -->
<g id="edge13" class="edge">
<title>gmp&#45;&gt;gcc&#45;libs</title>
<path fill="none" stroke="#8b4513" d="M235.29,-793.8C217.04,-768.83 184.14,-716.89 184.14,-667 184.14,-667 184.14,-667 184.14,-521 184.14,-439.7 255.15,-364.54 294.92,-328.82"/>
<polygon fill="#8b4513" stroke="#8b4513" points="297.47,-331.25 302.66,-322.01 292.84,-325.99 297.47,-331.25"/>
</g>
<!-- sh -->
<g id="node14" class="node">
<title>sh</title>
<ellipse fill="green" stroke="green" cx="305.14" cy="-738" rx="27" ry="18"/>
<text text-anchor="middle" x="305.14" y="-734.3" font-family="Times,serif" font-size="14.00">sh</text>
</g>
<!-- gmp&#45;&gt;sh -->
<g id="edge16" class="edge">
<title>gmp&#45;&gt;sh</title>
<path fill="none" stroke="#8b4513" d="M259.73,-793.81C267.4,-784.55 277.37,-772.52 286.01,-762.09"/>
<polygon fill="#8b4513" stroke="#8b4513" points="288.9,-764.09 292.58,-754.16 283.51,-759.63 288.9,-764.09"/>
</g>
<!-- glibc&gt;=2.27 -->
<g id="node13" class="node">
<title>glibc&gt;=2.27</title>
<ellipse fill="green" stroke="green" cx="329.14" cy="-234" rx="54.69" ry="18"/>
<text text-anchor="middle" x="329.14" y="-230.3" font-family="Times,serif" font-size="14.00">glibc&gt;=2.27</text>
</g>
<!-- gcc&#45;libs&#45;&gt;glibc&gt;=2.27 -->
<g id="edge14" class="edge">
<title>gcc&#45;libs&#45;&gt;glibc&gt;=2.27</title>
<path fill="none" stroke="#8b4513" d="M323.12,-287.7C324,-279.98 325.06,-270.71 326.04,-262.11"/>
<polygon fill="#8b4513" stroke="#8b4513" points="329.53,-262.44 327.19,-252.1 322.57,-261.64 329.53,-262.44"/>
</g>
<!-- glibc&gt;=2.27&#45;&gt;glibc -->
<g id="edge15" class="edge">
<title>glibc&gt;=2.27&#45;&gt;glibc</title>
<path fill="none" stroke="grey" d="M309.89,-216.76C295.52,-204.65 276.11,-188.27 262.49,-176.79"/>
</g>
<!-- bash -->
<g id="node15" class="node">
<title>bash</title>
<ellipse fill="green" stroke="green" cx="305.14" cy="-666" rx="27" ry="18"/>
<text text-anchor="middle" x="305.14" y="-662.3" font-family="Times,serif" font-size="14.00">bash</text>
</g>
<!-- sh&#45;&gt;bash -->
<g id="edge17" class="edge">
<title>sh&#45;&gt;bash</title>
<path fill="none" stroke="grey" d="M293.7,-721.46C290.95,-709.86 290.95,-694.08 293.71,-682.49"/>
</g>
<!-- sh&#45;&gt;bash -->
<g id="edge37" class="edge">
<title>sh&#45;&gt;bash</title>
<path fill="none" stroke="grey" d="M305.14,-719.7C305.14,-708.85 305.14,-694.92 305.14,-684.1"/>
</g>
<!-- sh&#45;&gt;bash -->
<g id="edge41" class="edge">
<title>sh&#45;&gt;bash</title>
<path fill="none" stroke="grey" d="M316.58,-721.46C319.33,-709.86 319.33,-694.08 316.57,-682.49"/>
</g>
<!-- bash&#45;&gt;glibc -->
<g id="edge26" class="edge">
<title>bash&#45;&gt;glibc</title>
<path fill="none" stroke="#8b4513" d="M299.2,-648.01C295.8,-637.7 291.71,-624.23 289.14,-612 255.95,-454.26 254.94,-412.89 245.14,-252 243.88,-231.31 244.22,-207.86 244.82,-190.23"/>
<polygon fill="#8b4513" stroke="#8b4513" points="248.32,-190.21 245.22,-180.08 241.33,-189.93 248.32,-190.21"/>
</g>
<!-- readline&gt;=7.0 -->
<g id="node16" class="node">
<title>readline&gt;=7.0</title>
<ellipse fill="green" stroke="green" cx="365.14" cy="-594" rx="61.19" ry="18"/>
<text text-anchor="middle" x="365.14" y="-590.3" font-family="Times,serif" font-size="14.00">readline&gt;=7.0</text>
</g>
<!-- bash&#45;&gt;readline&gt;=7.0 -->
<g id="edge18" class="edge">
<title>bash&#45;&gt;readline&gt;=7.0</title>
<path fill="none" stroke="#8b4513" d="M318.16,-649.81C325.78,-640.93 335.57,-629.5 344.24,-619.39"/>
<polygon fill="#8b4513" stroke="#8b4513" points="347.04,-621.5 350.89,-611.63 341.72,-616.94 347.04,-621.5"/>
</g>
<!-- ncurses -->
<g id="node18" class="node">
<title>ncurses</title>
<ellipse fill="green" stroke="green" cx="311.14" cy="-378" rx="37.09" ry="18"/>
<text text-anchor="middle" x="311.14" y="-374.3" font-family="Times,serif" font-size="14.00">ncurses</text>
</g>
<!-- bash&#45;&gt;ncurses -->
<g id="edge27" class="edge">
<title>bash&#45;&gt;ncurses</title>
<path fill="none" stroke="#8b4513" d="M301.08,-647.93C298.84,-637.6 296.27,-624.12 295.14,-612 288.18,-537.57 299.55,-449.49 306.45,-406.03"/>
<polygon fill="#8b4513" stroke="#8b4513" points="309.93,-406.41 308.1,-395.98 303.03,-405.28 309.93,-406.41"/>
</g>
<!-- readline -->
<g id="node17" class="node">
<title>readline</title>
<ellipse fill="green" stroke="green" cx="380.14" cy="-522" rx="38.99" ry="18"/>
<text text-anchor="middle" x="380.14" y="-518.3" font-family="Times,serif" font-size="14.00">readline</text>
</g>
<!-- readline&gt;=7.0&#45;&gt;readline -->
<g id="edge19" class="edge">
<title>readline&gt;=7.0&#45;&gt;readline</title>
<path fill="none" stroke="grey" d="M368.85,-575.7C371.17,-564.85 374.16,-550.92 376.48,-540.1"/>
</g>
<!-- readline&#45;&gt;glibc -->
<g id="edge20" class="edge">
<title>readline&#45;&gt;glibc</title>
<path fill="none" stroke="#8b4513" d="M415.97,-514.8C443.87,-508.07 481.39,-494.51 503.14,-468 528.8,-436.73 522.14,-419.45 522.14,-379 522.14,-379 522.14,-379 522.14,-305 522.14,-199.49 360.7,-172.31 284.76,-165.36"/>
<polygon fill="#8b4513" stroke="#8b4513" points="284.9,-161.86 274.64,-164.51 284.31,-168.84 284.9,-161.86"/>
</g>
<!-- readline&#45;&gt;ncurses -->
<g id="edge21" class="edge">
<title>readline&#45;&gt;ncurses</title>
<path fill="none" stroke="#8b4513" d="M356.12,-507.59C342.16,-498.39 325.68,-484.83 317.14,-468 307.48,-448.95 306.49,-424.59 307.63,-406.18"/>
<polygon fill="#8b4513" stroke="#8b4513" points="311.12,-406.37 308.5,-396.1 304.15,-405.77 311.12,-406.37"/>
</g>
<!-- libncursesw.so=6&#45;64 -->
<g id="node19" class="node">
<title>libncursesw.so=6&#45;64</title>
<ellipse fill="green" stroke="green" cx="410.14" cy="-450" rx="83.69" ry="18"/>
<text text-anchor="middle" x="410.14" y="-446.3" font-family="Times,serif" font-size="14.00">libncursesw.so=6&#45;64</text>
</g>
<!-- readline&#45;&gt;libncursesw.so=6&#45;64 -->
<g id="edge24" class="edge">
<title>readline&#45;&gt;libncursesw.so=6&#45;64</title>
<path fill="none" stroke="#8b4513" d="M387.4,-504.05C390.82,-496.09 394.97,-486.41 398.78,-477.51"/>
<polygon fill="#8b4513" stroke="#8b4513" points="402.02,-478.85 402.74,-468.28 395.58,-476.09 402.02,-478.85"/>
</g>
<!-- ncurses&#45;&gt;glibc -->
<g id="edge22" class="edge">
<title>ncurses&#45;&gt;glibc</title>
<path fill="none" stroke="#8b4513" d="M297.11,-360.92C289.15,-350.94 279.7,-337.49 274.14,-324 255.79,-279.46 249.46,-223.17 247.28,-190.32"/>
<polygon fill="#8b4513" stroke="#8b4513" points="250.77,-189.9 246.69,-180.12 243.78,-190.31 250.77,-189.9"/>
</g>
<!-- ncurses&#45;&gt;gcc&#45;libs -->
<g id="edge23" class="edge">
<title>ncurses&#45;&gt;gcc&#45;libs</title>
<path fill="none" stroke="#8b4513" d="M313.61,-359.7C314.72,-351.98 316.04,-342.71 317.27,-334.11"/>
<polygon fill="#8b4513" stroke="#8b4513" points="320.75,-334.5 318.7,-324.1 313.82,-333.51 320.75,-334.5"/>
</g>
<!-- libncursesw.so=6&#45;64&#45;&gt;ncurses -->
<g id="edge25" class="edge">
<title>libncursesw.so=6&#45;64&#45;&gt;ncurses</title>
<path fill="none" stroke="grey" d="M386.93,-432.59C370.01,-420.63 347.33,-404.59 331.19,-393.18"/>
</g>
<!-- libcap&#45;&gt;glibc -->
<g id="edge29" class="edge">
<title>libcap&#45;&gt;glibc</title>
<path fill="none" stroke="#8b4513" d="M179.04,-1008.4C167.09,-982.34 146.14,-929.96 146.14,-883 146.14,-883 146.14,-883 146.14,-305 146.14,-253.46 190.72,-207.44 220.35,-182.55"/>
<polygon fill="#8b4513" stroke="#8b4513" points="222.72,-185.13 228.26,-176.1 218.3,-179.7 222.72,-185.13"/>
</g>
<!-- libcap&#45;&gt;attr -->
<g id="edge30" class="edge">
<title>libcap&#45;&gt;attr</title>
<path fill="none" stroke="#8b4513" d="M168.17,-1011.17C153.61,-1000.55 133.32,-985.76 117.22,-974.02"/>
<polygon fill="#8b4513" stroke="#8b4513" points="118.92,-970.92 108.77,-967.86 114.79,-976.58 118.92,-970.92"/>
</g>
<!-- perl -->
<g id="node22" class="node">
<title>perl</title>
<ellipse fill="green" stroke="green" cx="392.14" cy="-954" rx="27" ry="18"/>
<text text-anchor="middle" x="392.14" y="-950.3" font-family="Times,serif" font-size="14.00">perl</text>
</g>
<!-- openssl&#45;&gt;perl -->
<g id="edge32" class="edge">
<title>openssl&#45;&gt;perl</title>
<path fill="none" stroke="#8b4513" d="M331.85,-1009.81C342.81,-999.85 357.28,-986.7 369.29,-975.77"/>
<polygon fill="#8b4513" stroke="#8b4513" points="371.73,-978.29 376.77,-968.97 367.02,-973.11 371.73,-978.29"/>
</g>
<!-- perl&#45;&gt;glibc -->
<g id="edge42" class="edge">
<title>perl&#45;&gt;glibc</title>
<path fill="none" stroke="#8b4513" d="M418.72,-950.12C481.96,-941.64 636.14,-910.74 636.14,-811 636.14,-811 636.14,-811 636.14,-305 636.14,-249.99 598.74,-241.77 550.14,-216 463.52,-170.07 345.38,-162.72 285.06,-162.27"/>
<polygon fill="#8b4513" stroke="#8b4513" points="284.85,-158.77 274.84,-162.25 284.84,-165.77 284.85,-158.77"/>
</g>
<!-- gdbm&gt;=1.17 -->
<g id="node23" class="node">
<title>gdbm&gt;=1.17</title>
<ellipse fill="green" stroke="green" cx="435.14" cy="-882" rx="57.69" ry="18"/>
<text text-anchor="middle" x="435.14" y="-878.3" font-family="Times,serif" font-size="14.00">gdbm&gt;=1.17</text>
</g>
<!-- perl&#45;&gt;gdbm&gt;=1.17 -->
<g id="edge33" class="edge">
<title>perl&#45;&gt;gdbm&gt;=1.17</title>
<path fill="none" stroke="#8b4513" d="M401.9,-937.12C407.08,-928.68 413.58,-918.1 419.45,-908.55"/>
<polygon fill="#8b4513" stroke="#8b4513" points="422.57,-910.15 424.82,-899.8 416.61,-906.49 422.57,-910.15"/>
</g>
<!-- db -->
<g id="node25" class="node">
<title>db</title>
<ellipse fill="green" stroke="green" cx="349.14" cy="-810" rx="27" ry="18"/>
<text text-anchor="middle" x="349.14" y="-806.3" font-family="Times,serif" font-size="14.00">db</text>
</g>
<!-- perl&#45;&gt;db -->
<g id="edge38" class="edge">
<title>perl&#45;&gt;db</title>
<path fill="none" stroke="#8b4513" d="M383.64,-936.66C378.56,-926.36 372.31,-912.67 368.14,-900 361.45,-879.65 356.51,-855.88 353.35,-838.03"/>
<polygon fill="#8b4513" stroke="#8b4513" points="356.78,-837.29 351.66,-828.02 349.88,-838.46 356.78,-837.29"/>
</g>
<!-- gdbm -->
<g id="node24" class="node">
<title>gdbm</title>
<ellipse fill="green" stroke="green" cx="435.14" cy="-810" rx="31.4" ry="18"/>
<text text-anchor="middle" x="435.14" y="-806.3" font-family="Times,serif" font-size="14.00">gdbm</text>
</g>
<!-- gdbm&gt;=1.17&#45;&gt;gdbm -->
<g id="edge34" class="edge">
<title>gdbm&gt;=1.17&#45;&gt;gdbm</title>
<path fill="none" stroke="grey" d="M435.14,-863.7C435.14,-852.85 435.14,-838.92 435.14,-828.1"/>
</g>
<!-- gdbm&#45;&gt;glibc -->
<g id="edge35" class="edge">
<title>gdbm&#45;&gt;glibc</title>
<path fill="none" stroke="#8b4513" d="M461.33,-800.05C507.41,-782.45 598.14,-738.68 598.14,-667 598.14,-667 598.14,-667 598.14,-305 598.14,-246.16 552.56,-242.73 500.14,-216 429.74,-180.11 336.56,-168.52 284.88,-164.78"/>
<polygon fill="#8b4513" stroke="#8b4513" points="285.01,-161.28 274.8,-164.11 284.55,-168.27 285.01,-161.28"/>
</g>
<!-- gdbm&#45;&gt;sh -->
<g id="edge36" class="edge">
<title>gdbm&#45;&gt;sh</title>
<path fill="none" stroke="#8b4513" d="M413.09,-797.13C391.47,-785.49 358.39,-767.67 334.54,-754.83"/>
<polygon fill="#8b4513" stroke="#8b4513" points="336.05,-751.67 325.59,-750.01 332.73,-757.83 336.05,-751.67"/>
</g>
<!-- db&#45;&gt;gcc&#45;libs -->
<g id="edge39" class="edge">
<title>db&#45;&gt;gcc&#45;libs</title>
<path fill="none" stroke="#8b4513" d="M371.32,-799.55C425.5,-775.78 560.14,-712.15 560.14,-667 560.14,-667 560.14,-667 560.14,-521 560.14,-415.1 428.28,-348.45 360.45,-321.17"/>
<polygon fill="#8b4513" stroke="#8b4513" points="361.51,-317.83 350.93,-317.43 358.96,-324.35 361.51,-317.83"/>
</g>
<!-- db&#45;&gt;sh -->
<g id="edge40" class="edge">
<title>db&#45;&gt;sh</title>
<path fill="none" stroke="#8b4513" d="M339.16,-793.12C333.64,-784.34 326.68,-773.26 320.49,-763.42"/>
<polygon fill="#8b4513" stroke="#8b4513" points="323.37,-761.42 315.09,-754.82 317.44,-765.15 323.37,-761.42"/>
</g>
</g>
</svg>
