<?xml version="1.0" encoding="UTF-8" standalone="no"?>
<!DOCTYPE svg PUBLIC "-//W3C//DTD SVG 1.1//EN"
 "http://www.w3.org/Graphics/SVG/1.1/DTD/svg11.dtd">
<!-- Generated by graphviz version 2.44.0 (0)
 -->
<!-- Title: G Pages: 1 -->
<svg width="1335pt" height="1340pt"
 viewBox="0.00 0.00 1335.09 1340.00" xmlns="http://www.w3.org/2000/svg" xmlns:xlink="http://www.w3.org/1999/xlink">
<g id="graph0" class="graph" transform="scale(1 1) rotate(0) translate(4 1336)">
<title>G</title>
<polygon fill="white" stroke="transparent" points="-4,4 -4,-1336 1331.09,-1336 1331.09,4 -4,4"/>
<!-- START -->
<g id="node1" class="node">
<title>START</title>
<ellipse fill="red" stroke="red" cx="803.5" cy="-1314" rx="38.19" ry="18"/>
<text text-anchor="middle" x="803.5" y="-1310.3" font-family="Times,serif" font-size="14.00">START</text>
</g>
<!-- cryptsetup -->
<g id="node2" class="node">
<title>cryptsetup</title>
<ellipse fill="green" stroke="green" cx="803.5" cy="-1242" rx="48.19" ry="18"/>
<text text-anchor="middle" x="803.5" y="-1238.3" font-family="Times,serif" font-size="14.00">cryptsetup</text>
</g>
<!-- START&#45;&gt;cryptsetup -->
<g id="edge1" class="edge">
<title>START&#45;&gt;cryptsetup</title>
<path fill="none" stroke="black" d="M803.5,-1295.7C803.5,-1287.98 803.5,-1278.71 803.5,-1270.11"/>
<polygon fill="black" stroke="black" points="807,-1270.1 803.5,-1260.1 800,-1270.1 807,-1270.1"/>
</g>
<!-- device&#45;mapper -->
<g id="node3" class="node">
<title>device&#45;mapper</title>
<ellipse fill="green" stroke="green" cx="417.5" cy="-1098" rx="63.89" ry="18"/>
<text text-anchor="middle" x="417.5" y="-1094.3" font-family="Times,serif" font-size="14.00">device&#45;mapper</text>
</g>
<!-- cryptsetup&#45;&gt;device&#45;mapper -->
<g id="edge2" class="edge">
<title>cryptsetup&#45;&gt;device&#45;mapper</title>
<path fill="none" stroke="#8b4513" d="M755.31,-1240.65C666.46,-1238.96 481.75,-1230.32 436.5,-1188 419.87,-1172.45 415.94,-1146.2 415.68,-1126.23"/>
<polygon fill="#8b4513" stroke="#8b4513" points="419.18,-1126.23 415.85,-1116.17 412.18,-1126.11 419.18,-1126.23"/>
</g>
<!-- libdevmapper.so=1.02&#45;64 -->
<g id="node26" class="node">
<title>libdevmapper.so=1.02&#45;64</title>
<ellipse fill="green" stroke="green" cx="547.5" cy="-1170" rx="102.08" ry="18"/>
<text text-anchor="middle" x="547.5" y="-1166.3" font-family="Times,serif" font-size="14.00">libdevmapper.so=1.02&#45;64</text>
</g>
<!-- cryptsetup&#45;&gt;libdevmapper.so=1.02&#45;64 -->
<g id="edge39" class="edge">
<title>cryptsetup&#45;&gt;libdevmapper.so=1.02&#45;64</title>
<path fill="none" stroke="#8b4513" d="M765.72,-1230.67C724.87,-1219.5 659.05,-1201.5 610.37,-1188.19"/>
<polygon fill="#8b4513" stroke="#8b4513" points="611.14,-1184.77 600.57,-1185.51 609.29,-1191.53 611.14,-1184.77"/>
</g>
<!-- openssl -->
<g id="node27" class="node">
<title>openssl</title>
<ellipse fill="green" stroke="green" cx="635.5" cy="-1026" rx="37.09" ry="18"/>
<text text-anchor="middle" x="635.5" y="-1022.3" font-family="Times,serif" font-size="14.00">openssl</text>
</g>
<!-- cryptsetup&#45;&gt;openssl -->
<g id="edge41" class="edge">
<title>cryptsetup&#45;&gt;openssl</title>
<path fill="none" stroke="#8b4513" d="M767.88,-1229.62C746.23,-1221.13 719.4,-1207.59 701.5,-1188 666.04,-1149.19 648.29,-1088.76 640.56,-1054.03"/>
<polygon fill="#8b4513" stroke="#8b4513" points="643.96,-1053.19 638.47,-1044.13 637.11,-1054.63 643.96,-1053.19"/>
</g>
<!-- popt -->
<g id="node32" class="node">
<title>popt</title>
<ellipse fill="green" stroke="green" cx="732.5" cy="-738" rx="27" ry="18"/>
<text text-anchor="middle" x="732.5" y="-734.3" font-family="Times,serif" font-size="14.00">popt</text>
</g>
<!-- cryptsetup&#45;&gt;popt -->
<g id="edge53" class="edge">
<title>cryptsetup&#45;&gt;popt</title>
<path fill="none" stroke="#8b4513" d="M785.26,-1225.09C759.49,-1200.74 715.5,-1151.5 715.5,-1099 715.5,-1099 715.5,-1099 715.5,-881 715.5,-840.71 722.33,-794.44 727.33,-765.96"/>
<polygon fill="#8b4513" stroke="#8b4513" points="730.8,-766.43 729.14,-755.97 723.91,-765.19 730.8,-766.43"/>
</g>
<!-- libutil&#45;linux -->
<g id="node33" class="node">
<title>libutil&#45;linux</title>
<ellipse fill="green" stroke="green" cx="1211.5" cy="-1098" rx="52.79" ry="18"/>
<text text-anchor="middle" x="1211.5" y="-1094.3" font-family="Times,serif" font-size="14.00">libutil&#45;linux</text>
</g>
<!-- cryptsetup&#45;&gt;libutil&#45;linux -->
<g id="edge55" class="edge">
<title>cryptsetup&#45;&gt;libutil&#45;linux</title>
<path fill="none" stroke="#8b4513" d="M850.72,-1238.04C932.35,-1232.2 1095.8,-1217.18 1144.5,-1188 1169.24,-1173.17 1187.9,-1145.41 1199.16,-1124.82"/>
<polygon fill="#8b4513" stroke="#8b4513" points="1202.27,-1126.42 1203.81,-1115.94 1196.07,-1123.17 1202.27,-1126.42"/>
</g>
<!-- libuuid.so=1&#45;64 -->
<g id="node34" class="node">
<title>libuuid.so=1&#45;64</title>
<ellipse fill="green" stroke="green" cx="1259.5" cy="-1170" rx="67.69" ry="18"/>
<text text-anchor="middle" x="1259.5" y="-1166.3" font-family="Times,serif" font-size="14.00">libuuid.so=1&#45;64</text>
</g>
<!-- cryptsetup&#45;&gt;libuuid.so=1&#45;64 -->
<g id="edge56" class="edge">
<title>cryptsetup&#45;&gt;libuuid.so=1&#45;64</title>
<path fill="none" stroke="#8b4513" d="M848.55,-1235.56C918.96,-1226.84 1059.27,-1208.61 1177.5,-1188 1184.49,-1186.78 1191.79,-1185.41 1199.04,-1183.99"/>
<polygon fill="#8b4513" stroke="#8b4513" points="1199.73,-1187.42 1208.85,-1182.02 1198.36,-1180.55 1199.73,-1187.42"/>
</g>
<!-- json&#45;c -->
<g id="node35" class="node">
<title>json&#45;c</title>
<ellipse fill="green" stroke="green" cx="787.5" cy="-1098" rx="32.49" ry="18"/>
<text text-anchor="middle" x="787.5" y="-1094.3" font-family="Times,serif" font-size="14.00">json&#45;c</text>
</g>
<!-- cryptsetup&#45;&gt;json&#45;c -->
<g id="edge58" class="edge">
<title>cryptsetup&#45;&gt;json&#45;c</title>
<path fill="none" stroke="#8b4513" d="M790.67,-1224.38C783.82,-1214.42 776.07,-1201.17 772.5,-1188 766.85,-1167.17 771.62,-1142.99 777.24,-1125.1"/>
<polygon fill="#8b4513" stroke="#8b4513" points="780.56,-1126.21 780.47,-1115.61 773.93,-1123.95 780.56,-1126.21"/>
</g>
<!-- libjson&#45;c.so=5&#45;64 -->
<g id="node36" class="node">
<title>libjson&#45;c.so=5&#45;64</title>
<ellipse fill="green" stroke="green" cx="854.5" cy="-1170" rx="73.39" ry="18"/>
<text text-anchor="middle" x="854.5" y="-1166.3" font-family="Times,serif" font-size="14.00">libjson&#45;c.so=5&#45;64</text>
</g>
<!-- cryptsetup&#45;&gt;libjson&#45;c.so=5&#45;64 -->
<g id="edge60" class="edge">
<title>cryptsetup&#45;&gt;libjson&#45;c.so=5&#45;64</title>
<path fill="none" stroke="#8b4513" d="M815.58,-1224.41C821.72,-1215.99 829.3,-1205.58 836.14,-1196.2"/>
<polygon fill="#8b4513" stroke="#8b4513" points="839.08,-1198.1 842.14,-1187.96 833.43,-1193.98 839.08,-1198.1"/>
</g>
<!-- argon2 -->
<g id="node37" class="node">
<title>argon2</title>
<ellipse fill="green" stroke="green" cx="955.5" cy="-1098" rx="35.19" ry="18"/>
<text text-anchor="middle" x="955.5" y="-1094.3" font-family="Times,serif" font-size="14.00">argon2</text>
</g>
<!-- cryptsetup&#45;&gt;argon2 -->
<g id="edge62" class="edge">
<title>cryptsetup&#45;&gt;argon2</title>
<path fill="none" stroke="#8b4513" d="M847.48,-1234.45C876.92,-1227.76 914.21,-1214.4 936.5,-1188 950.94,-1170.88 955.22,-1145.44 956.15,-1126.13"/>
<polygon fill="#8b4513" stroke="#8b4513" points="959.65,-1126.2 956.37,-1116.13 952.65,-1126.05 959.65,-1126.2"/>
</g>
<!-- libargon2.so=1&#45;64 -->
<g id="node38" class="node">
<title>libargon2.so=1&#45;64</title>
<ellipse fill="green" stroke="green" cx="1059.5" cy="-1170" rx="76.09" ry="18"/>
<text text-anchor="middle" x="1059.5" y="-1166.3" font-family="Times,serif" font-size="14.00">libargon2.so=1&#45;64</text>
</g>
<!-- cryptsetup&#45;&gt;libargon2.so=1&#45;64 -->
<g id="edge64" class="edge">
<title>cryptsetup&#45;&gt;libargon2.so=1&#45;64</title>
<path fill="none" stroke="#8b4513" d="M841.27,-1230.67C883.56,-1219.11 952.58,-1200.23 1001.67,-1186.81"/>
<polygon fill="#8b4513" stroke="#8b4513" points="1002.8,-1190.13 1011.52,-1184.12 1000.95,-1183.38 1002.8,-1190.13"/>
</g>
<!-- glibc -->
<g id="node4" class="node">
<title>glibc</title>
<ellipse fill="green" stroke="green" cx="371.5" cy="-162" rx="28.7" ry="18"/>
<text text-anchor="middle" x="371.5" y="-158.3" font-family="Times,serif" font-size="14.00">glibc</text>
</g>
<!-- device&#45;mapper&#45;&gt;glibc -->
<g id="edge3" class="edge">
<title>device&#45;mapper&#45;&gt;glibc</title>
<path fill="none" stroke="#8b4513" d="M425.17,-1080.11C459.99,-1003.3 601.5,-689.79 601.5,-667 601.5,-667 601.5,-667 601.5,-305 601.5,-215.69 474.38,-180.69 409.15,-168.61"/>
<polygon fill="#8b4513" stroke="#8b4513" points="409.7,-165.15 399.24,-166.86 408.48,-172.04 409.7,-165.15"/>
</g>
<!-- systemd&#45;libs -->
<g id="node10" class="node">
<title>systemd&#45;libs</title>
<ellipse fill="green" stroke="green" cx="234.5" cy="-954" rx="55.79" ry="18"/>
<text text-anchor="middle" x="234.5" y="-950.3" font-family="Times,serif" font-size="14.00">systemd&#45;libs</text>
</g>
<!-- device&#45;mapper&#45;&gt;systemd&#45;libs -->
<g id="edge9" class="edge">
<title>device&#45;mapper&#45;&gt;systemd&#45;libs</title>
<path fill="none" stroke="#8b4513" d="M403.89,-1080.1C387.94,-1061 360.03,-1029.75 331.5,-1008 314.08,-994.73 292.92,-982.75 274.81,-973.56"/>
<polygon fill="#8b4513" stroke="#8b4513" points="276.17,-970.33 265.66,-969.02 273.06,-976.6 276.17,-970.33"/>
</g>
<!-- libudev.so=1&#45;64 -->
<g id="node25" class="node">
<title>libudev.so=1&#45;64</title>
<ellipse fill="green" stroke="green" cx="254.5" cy="-1026" rx="68.49" ry="18"/>
<text text-anchor="middle" x="254.5" y="-1022.3" font-family="Times,serif" font-size="14.00">libudev.so=1&#45;64</text>
</g>
<!-- device&#45;mapper&#45;&gt;libudev.so=1&#45;64 -->
<g id="edge37" class="edge">
<title>device&#45;mapper&#45;&gt;libudev.so=1&#45;64</title>
<path fill="none" stroke="#8b4513" d="M384.12,-1082.67C359.21,-1071.97 324.95,-1057.26 297.91,-1045.64"/>
<polygon fill="#8b4513" stroke="#8b4513" points="299.24,-1042.41 288.67,-1041.68 296.48,-1048.84 299.24,-1042.41"/>
</g>
<!-- linux&#45;api&#45;headers&gt;=4.10 -->
<g id="node5" class="node">
<title>linux&#45;api&#45;headers&gt;=4.10</title>
<ellipse fill="green" stroke="green" cx="223.5" cy="-90" rx="98.28" ry="18"/>
<text text-anchor="middle" x="223.5" y="-86.3" font-family="Times,serif" font-size="14.00">linux&#45;api&#45;headers&gt;=4.10</text>
</g>
<!-- glibc&#45;&gt;linux&#45;api&#45;headers&gt;=4.10 -->
<g id="edge4" class="edge">
<title>glibc&#45;&gt;linux&#45;api&#45;headers&gt;=4.10</title>
<path fill="none" stroke="#8b4513" d="M349.34,-150.52C327.56,-140.22 293.73,-124.22 266.63,-111.4"/>
<polygon fill="#8b4513" stroke="#8b4513" points="267.89,-108.12 257.35,-107.01 264.89,-114.45 267.89,-108.12"/>
</g>
<!-- tzdata -->
<g id="node7" class="node">
<title>tzdata</title>
<ellipse fill="green" stroke="green" cx="371.5" cy="-90" rx="31.7" ry="18"/>
<text text-anchor="middle" x="371.5" y="-86.3" font-family="Times,serif" font-size="14.00">tzdata</text>
</g>
<!-- glibc&#45;&gt;tzdata -->
<g id="edge6" class="edge">
<title>glibc&#45;&gt;tzdata</title>
<path fill="none" stroke="#8b4513" d="M371.5,-143.7C371.5,-135.98 371.5,-126.71 371.5,-118.11"/>
<polygon fill="#8b4513" stroke="#8b4513" points="375,-118.1 371.5,-108.1 368,-118.1 375,-118.1"/>
</g>
<!-- filesystem -->
<g id="node8" class="node">
<title>filesystem</title>
<ellipse fill="green" stroke="green" cx="468.5" cy="-90" rx="46.59" ry="18"/>
<text text-anchor="middle" x="468.5" y="-86.3" font-family="Times,serif" font-size="14.00">filesystem</text>
</g>
<!-- glibc&#45;&gt;filesystem -->
<g id="edge7" class="edge">
<title>glibc&#45;&gt;filesystem</title>
<path fill="none" stroke="#8b4513" d="M389.74,-147.83C403.54,-137.88 422.78,-123.99 438.79,-112.44"/>
<polygon fill="#8b4513" stroke="#8b4513" points="441.23,-114.99 447.29,-106.3 437.14,-109.31 441.23,-114.99"/>
</g>
<!-- linux&#45;api&#45;headers -->
<g id="node6" class="node">
<title>linux&#45;api&#45;headers</title>
<ellipse fill="green" stroke="green" cx="223.5" cy="-18" rx="71.49" ry="18"/>
<text text-anchor="middle" x="223.5" y="-14.3" font-family="Times,serif" font-size="14.00">linux&#45;api&#45;headers</text>
</g>
<!-- linux&#45;api&#45;headers&gt;=4.10&#45;&gt;linux&#45;api&#45;headers -->
<g id="edge5" class="edge">
<title>linux&#45;api&#45;headers&gt;=4.10&#45;&gt;linux&#45;api&#45;headers</title>
<path fill="none" stroke="grey" d="M223.5,-71.7C223.5,-60.85 223.5,-46.92 223.5,-36.1"/>
</g>
<!-- iana&#45;etc -->
<g id="node9" class="node">
<title>iana&#45;etc</title>
<ellipse fill="green" stroke="green" cx="468.5" cy="-18" rx="38.19" ry="18"/>
<text text-anchor="middle" x="468.5" y="-14.3" font-family="Times,serif" font-size="14.00">iana&#45;etc</text>
</g>
<!-- filesystem&#45;&gt;iana&#45;etc -->
<g id="edge8" class="edge">
<title>filesystem&#45;&gt;iana&#45;etc</title>
<path fill="none" stroke="#8b4513" d="M468.5,-71.7C468.5,-63.98 468.5,-54.71 468.5,-46.11"/>
<polygon fill="#8b4513" stroke="#8b4513" points="472,-46.1 468.5,-36.1 465,-46.1 472,-46.1"/>
</g>
<!-- systemd&#45;libs&#45;&gt;glibc -->
<g id="edge10" class="edge">
<title>systemd&#45;libs&#45;&gt;glibc</title>
<path fill="none" stroke="#8b4513" d="M232.51,-935.77C223.56,-858.18 187.5,-544.05 187.5,-523 187.5,-523 187.5,-523 187.5,-305 187.5,-259.41 204.07,-245.88 238.5,-216 266.12,-192.03 305.93,-178.1 334.79,-170.59"/>
<polygon fill="#8b4513" stroke="#8b4513" points="335.63,-173.99 344.5,-168.2 333.96,-167.19 335.63,-173.99"/>
</g>
<!-- libcap -->
<g id="node11" class="node">
<title>libcap</title>
<ellipse fill="green" stroke="green" cx="32.5" cy="-306" rx="32.49" ry="18"/>
<text text-anchor="middle" x="32.5" y="-302.3" font-family="Times,serif" font-size="14.00">libcap</text>
</g>
<!-- systemd&#45;libs&#45;&gt;libcap -->
<g id="edge11" class="edge">
<title>systemd&#45;libs&#45;&gt;libcap</title>
<path fill="none" stroke="#8b4513" d="M185.14,-945.38C152.69,-938.26 110.94,-924.82 81.5,-900 46.98,-870.89 32.5,-856.15 32.5,-811 32.5,-811 32.5,-811 32.5,-449 32.5,-409 32.5,-362.65 32.5,-334.08"/>
<polygon fill="#8b4513" stroke="#8b4513" points="36,-334.05 32.5,-324.05 29,-334.05 36,-334.05"/>
</g>
<!-- libgcrypt -->
<g id="node13" class="node">
<title>libgcrypt</title>
<ellipse fill="green" stroke="green" cx="157.5" cy="-882" rx="42.79" ry="18"/>
<text text-anchor="middle" x="157.5" y="-878.3" font-family="Times,serif" font-size="14.00">libgcrypt</text>
</g>
<!-- systemd&#45;libs&#45;&gt;libgcrypt -->
<g id="edge15" class="edge">
<title>systemd&#45;libs&#45;&gt;libgcrypt</title>
<path fill="none" stroke="#8b4513" d="M216.64,-936.76C206.39,-927.45 193.36,-915.61 182.15,-905.41"/>
<polygon fill="#8b4513" stroke="#8b4513" points="184.48,-902.8 174.73,-898.67 179.77,-907.98 184.48,-902.8"/>
</g>
<!-- lz4 -->
<g id="node23" class="node">
<title>lz4</title>
<ellipse fill="green" stroke="green" cx="92.5" cy="-666" rx="27" ry="18"/>
<text text-anchor="middle" x="92.5" y="-662.3" font-family="Times,serif" font-size="14.00">lz4</text>
</g>
<!-- systemd&#45;libs&#45;&gt;lz4 -->
<g id="edge32" class="edge">
<title>systemd&#45;libs&#45;&gt;lz4</title>
<path fill="none" stroke="#8b4513" d="M186.56,-944.7C158.97,-937.47 125.85,-924.17 105.5,-900 55.89,-841.08 72.79,-741.16 84.78,-693.64"/>
<polygon fill="#8b4513" stroke="#8b4513" points="88.21,-694.36 87.38,-683.8 81.44,-692.57 88.21,-694.36"/>
</g>
<!-- xz -->
<g id="node24" class="node">
<title>xz</title>
<ellipse fill="green" stroke="green" cx="304.5" cy="-810" rx="27" ry="18"/>
<text text-anchor="middle" x="304.5" y="-806.3" font-family="Times,serif" font-size="14.00">xz</text>
</g>
<!-- systemd&#45;libs&#45;&gt;xz -->
<g id="edge34" class="edge">
<title>systemd&#45;libs&#45;&gt;xz</title>
<path fill="none" stroke="#8b4513" d="M242.8,-936.15C254.97,-911.47 277.74,-865.28 291.95,-836.44"/>
<polygon fill="#8b4513" stroke="#8b4513" points="295.14,-837.9 296.42,-827.39 288.86,-834.81 295.14,-837.9"/>
</g>
<!-- libcap&#45;&gt;glibc -->
<g id="edge12" class="edge">
<title>libcap&#45;&gt;glibc</title>
<path fill="none" stroke="#8b4513" d="M23.49,-288.42C14.17,-268.75 3.21,-236.09 20.5,-216 60.44,-169.57 249.92,-163.29 332.68,-162.8"/>
<polygon fill="#8b4513" stroke="#8b4513" points="332.7,-166.3 342.69,-162.77 332.68,-159.3 332.7,-166.3"/>
</g>
<!-- attr -->
<g id="node12" class="node">
<title>attr</title>
<ellipse fill="green" stroke="green" cx="56.5" cy="-234" rx="27" ry="18"/>
<text text-anchor="middle" x="56.5" y="-230.3" font-family="Times,serif" font-size="14.00">attr</text>
</g>
<!-- libcap&#45;&gt;attr -->
<g id="edge13" class="edge">
<title>libcap&#45;&gt;attr</title>
<path fill="none" stroke="#8b4513" d="M38.31,-288.05C41.05,-280.06 44.38,-270.33 47.45,-261.4"/>
<polygon fill="#8b4513" stroke="#8b4513" points="50.81,-262.38 50.74,-251.79 44.19,-260.11 50.81,-262.38"/>
</g>
<!-- attr&#45;&gt;glibc -->
<g id="edge14" class="edge">
<title>attr&#45;&gt;glibc</title>
<path fill="none" stroke="#8b4513" d="M78.33,-222.99C84.44,-220.45 91.15,-217.91 97.5,-216 179.93,-191.22 279.91,-175.31 333.38,-167.89"/>
<polygon fill="#8b4513" stroke="#8b4513" points="334,-171.34 343.44,-166.52 333.05,-164.4 334,-171.34"/>
</g>
<!-- libgpg&#45;error -->
<g id="node14" class="node">
<title>libgpg&#45;error</title>
<ellipse fill="green" stroke="green" cx="152.5" cy="-810" rx="53.89" ry="18"/>
<text text-anchor="middle" x="152.5" y="-806.3" font-family="Times,serif" font-size="14.00">libgpg&#45;error</text>
</g>
<!-- libgcrypt&#45;&gt;libgpg&#45;error -->
<g id="edge16" class="edge">
<title>libgcrypt&#45;&gt;libgpg&#45;error</title>
<path fill="none" stroke="#8b4513" d="M156.26,-863.7C155.71,-855.98 155.05,-846.71 154.43,-838.11"/>
<polygon fill="#8b4513" stroke="#8b4513" points="157.92,-837.83 153.72,-828.1 150.94,-838.33 157.92,-837.83"/>
</g>
<!-- libgpg&#45;error&#45;&gt;glibc -->
<g id="edge17" class="edge">
<title>libgpg&#45;error&#45;&gt;glibc</title>
<path fill="none" stroke="#8b4513" d="M151.9,-791.95C151.03,-765.3 149.5,-712.12 149.5,-667 149.5,-667 149.5,-667 149.5,-305 149.5,-264.03 144.5,-244.94 173.5,-216 215.82,-173.76 287.88,-164.14 332.42,-162.51"/>
<polygon fill="#8b4513" stroke="#8b4513" points="332.65,-166.01 342.57,-162.26 332.48,-159.01 332.65,-166.01"/>
</g>
<!-- sh -->
<g id="node15" class="node">
<title>sh</title>
<ellipse fill="green" stroke="green" cx="314.5" cy="-738" rx="27" ry="18"/>
<text text-anchor="middle" x="314.5" y="-734.3" font-family="Times,serif" font-size="14.00">sh</text>
</g>
<!-- libgpg&#45;error&#45;&gt;sh -->
<g id="edge18" class="edge">
<title>libgpg&#45;error&#45;&gt;sh</title>
<path fill="none" stroke="#8b4513" d="M184.12,-795.34C212.62,-783.02 254.3,-765.01 282.82,-752.69"/>
<polygon fill="#8b4513" stroke="#8b4513" points="284.52,-755.76 292.32,-748.58 281.75,-749.34 284.52,-755.76"/>
</g>
<!-- bash -->
<g id="node16" class="node">
<title>bash</title>
<ellipse fill="green" stroke="green" cx="314.5" cy="-666" rx="27" ry="18"/>
<text text-anchor="middle" x="314.5" y="-662.3" font-family="Times,serif" font-size="14.00">bash</text>
</g>
<!-- sh&#45;&gt;bash -->
<g id="edge19" class="edge">
<title>sh&#45;&gt;bash</title>
<path fill="none" stroke="grey" d="M298.12,-723.5C292.95,-711.11 292.96,-692.84 298.14,-680.46"/>
</g>
<!-- sh&#45;&gt;bash -->
<g id="edge36" class="edge">
<title>sh&#45;&gt;bash</title>
<path fill="none" stroke="grey" d="M308.66,-720.41C307.46,-709.41 307.44,-695.03 308.62,-683.96"/>
</g>
<!-- sh&#45;&gt;bash -->
<g id="edge47" class="edge">
<title>sh&#45;&gt;bash</title>
<path fill="none" stroke="grey" d="M320.34,-720.41C321.54,-709.41 321.55,-695.03 320.38,-683.96"/>
</g>
<!-- sh&#45;&gt;bash -->
<g id="edge51" class="edge">
<title>sh&#45;&gt;bash</title>
<path fill="none" stroke="grey" d="M330.87,-723.5C336.04,-711.11 336.04,-692.84 330.85,-680.46"/>
</g>
<!-- bash&#45;&gt;glibc -->
<g id="edge30" class="edge">
<title>bash&#45;&gt;glibc</title>
<path fill="none" stroke="#8b4513" d="M293.45,-654.45C277.53,-645.38 256.44,-630.78 244.5,-612 222.79,-577.87 225.5,-563.45 225.5,-523 225.5,-523 225.5,-523 225.5,-305 225.5,-259.63 243.3,-247.96 275.5,-216 293.26,-198.37 318.1,-184.86 338.07,-175.9"/>
<polygon fill="#8b4513" stroke="#8b4513" points="339.62,-179.04 347.42,-171.87 336.85,-172.61 339.62,-179.04"/>
</g>
<!-- readline&gt;=7.0 -->
<g id="node17" class="node">
<title>readline&gt;=7.0</title>
<ellipse fill="green" stroke="green" cx="314.5" cy="-594" rx="61.19" ry="18"/>
<text text-anchor="middle" x="314.5" y="-590.3" font-family="Times,serif" font-size="14.00">readline&gt;=7.0</text>
</g>
<!-- bash&#45;&gt;readline&gt;=7.0 -->
<g id="edge20" class="edge">
<title>bash&#45;&gt;readline&gt;=7.0</title>
<path fill="none" stroke="#8b4513" d="M314.5,-647.7C314.5,-639.98 314.5,-630.71 314.5,-622.11"/>
<polygon fill="#8b4513" stroke="#8b4513" points="318,-622.1 314.5,-612.1 311,-622.1 318,-622.1"/>
</g>
<!-- ncurses -->
<g id="node19" class="node">
<title>ncurses</title>
<ellipse fill="green" stroke="green" cx="413.5" cy="-378" rx="37.09" ry="18"/>
<text text-anchor="middle" x="413.5" y="-374.3" font-family="Times,serif" font-size="14.00">ncurses</text>
</g>
<!-- bash&#45;&gt;ncurses -->
<g id="edge31" class="edge">
<title>bash&#45;&gt;ncurses</title>
<path fill="none" stroke="#8b4513" d="M333.95,-653.32C375.91,-626.78 473.78,-557.23 506.5,-468 512.01,-452.98 514.54,-445.83 506.5,-432 495.18,-412.53 473.74,-399.62 454.3,-391.42"/>
<polygon fill="#8b4513" stroke="#8b4513" points="455.56,-388.15 444.97,-387.76 453,-394.67 455.56,-388.15"/>
</g>
<!-- readline -->
<g id="node18" class="node">
<title>readline</title>
<ellipse fill="green" stroke="green" cx="308.5" cy="-522" rx="38.99" ry="18"/>
<text text-anchor="middle" x="308.5" y="-518.3" font-family="Times,serif" font-size="14.00">readline</text>
</g>
<!-- readline&gt;=7.0&#45;&gt;readline -->
<g id="edge21" class="edge">
<title>readline&gt;=7.0&#45;&gt;readline</title>
<path fill="none" stroke="grey" d="M313.01,-575.7C312.08,-564.85 310.89,-550.92 309.96,-540.1"/>
</g>
<!-- readline&#45;&gt;glibc -->
<g id="edge22" class="edge">
<title>readline&#45;&gt;glibc</title>
<path fill="none" stroke="#8b4513" d="M299.39,-504.06C286.24,-477.98 263.5,-426.07 263.5,-379 263.5,-379 263.5,-379 263.5,-305 263.5,-251.69 312.32,-205.87 344.31,-181.57"/>
<polygon fill="#8b4513" stroke="#8b4513" points="346.46,-184.34 352.44,-175.59 342.31,-178.7 346.46,-184.34"/>
</g>
<!-- readline&#45;&gt;ncurses -->
<g id="edge23" class="edge">
<title>readline&#45;&gt;ncurses</title>
<path fill="none" stroke="#8b4513" d="M306.54,-503.69C305.28,-484.51 306.02,-453.46 320.5,-432 333.03,-413.42 354.4,-400.58 373.5,-392.2"/>
<polygon fill="#8b4513" stroke="#8b4513" points="375.01,-395.36 382.93,-388.33 372.35,-388.89 375.01,-395.36"/>
</g>
<!-- libncursesw.so=6&#45;64 -->
<g id="node22" class="node">
<title>libncursesw.so=6&#45;64</title>
<ellipse fill="green" stroke="green" cx="413.5" cy="-450" rx="83.69" ry="18"/>
<text text-anchor="middle" x="413.5" y="-446.3" font-family="Times,serif" font-size="14.00">libncursesw.so=6&#45;64</text>
</g>
<!-- readline&#45;&gt;libncursesw.so=6&#45;64 -->
<g id="edge28" class="edge">
<title>readline&#45;&gt;libncursesw.so=6&#45;64</title>
<path fill="none" stroke="#8b4513" d="M329.75,-506.83C344.34,-497.1 364,-484 380.6,-472.93"/>
<polygon fill="#8b4513" stroke="#8b4513" points="382.59,-475.81 388.97,-467.35 378.7,-469.99 382.59,-475.81"/>
</g>
<!-- ncurses&#45;&gt;glibc -->
<g id="edge24" class="edge">
<title>ncurses&#45;&gt;glibc</title>
<path fill="none" stroke="#8b4513" d="M410.13,-359.85C402.83,-322.66 385.51,-234.37 376.75,-189.77"/>
<polygon fill="#8b4513" stroke="#8b4513" points="380.18,-189.07 374.82,-179.94 373.31,-190.42 380.18,-189.07"/>
</g>
<!-- gcc&#45;libs -->
<g id="node20" class="node">
<title>gcc&#45;libs</title>
<ellipse fill="green" stroke="green" cx="454.5" cy="-306" rx="38.19" ry="18"/>
<text text-anchor="middle" x="454.5" y="-302.3" font-family="Times,serif" font-size="14.00">gcc&#45;libs</text>
</g>
<!-- ncurses&#45;&gt;gcc&#45;libs -->
<g id="edge25" class="edge">
<title>ncurses&#45;&gt;gcc&#45;libs</title>
<path fill="none" stroke="#8b4513" d="M423.21,-360.41C428.12,-352.04 434.17,-341.71 439.64,-332.37"/>
<polygon fill="#8b4513" stroke="#8b4513" points="442.82,-333.87 444.85,-323.47 436.78,-330.33 442.82,-333.87"/>
</g>
<!-- glibc&gt;=2.27 -->
<g id="node21" class="node">
<title>glibc&gt;=2.27</title>
<ellipse fill="green" stroke="green" cx="454.5" cy="-234" rx="54.69" ry="18"/>
<text text-anchor="middle" x="454.5" y="-230.3" font-family="Times,serif" font-size="14.00">glibc&gt;=2.27</text>
</g>
<!-- gcc&#45;libs&#45;&gt;glibc&gt;=2.27 -->
<g id="edge26" class="edge">
<title>gcc&#45;libs&#45;&gt;glibc&gt;=2.27</title>
<path fill="none" stroke="#8b4513" d="M454.5,-287.7C454.5,-279.98 454.5,-270.71 454.5,-262.11"/>
<polygon fill="#8b4513" stroke="#8b4513" points="458,-262.1 454.5,-252.1 451,-262.1 458,-262.1"/>
</g>
<!-- glibc&gt;=2.27&#45;&gt;glibc -->
<g id="edge27" class="edge">
<title>glibc&gt;=2.27&#45;&gt;glibc</title>
<path fill="none" stroke="grey" d="M435.25,-216.76C420.88,-204.65 401.46,-188.27 387.85,-176.79"/>
</g>
<!-- libncursesw.so=6&#45;64&#45;&gt;ncurses -->
<g id="edge29" class="edge">
<title>libncursesw.so=6&#45;64&#45;&gt;ncurses</title>
<path fill="none" stroke="grey" d="M413.5,-431.7C413.5,-420.85 413.5,-406.92 413.5,-396.1"/>
</g>
<!-- lz4&#45;&gt;glibc -->
<g id="edge33" class="edge">
<title>lz4&#45;&gt;glibc</title>
<path fill="none" stroke="#8b4513" d="M96.25,-648.05C101.79,-621.52 111.5,-568.52 111.5,-523 111.5,-523 111.5,-523 111.5,-305 111.5,-264.03 105.92,-244.35 135.5,-216 163.45,-189.21 273.61,-173.51 333.03,-166.83"/>
<polygon fill="#8b4513" stroke="#8b4513" points="333.59,-170.29 343.15,-165.72 332.83,-163.33 333.59,-170.29"/>
</g>
<!-- xz&#45;&gt;sh -->
<g id="edge35" class="edge">
<title>xz&#45;&gt;sh</title>
<path fill="none" stroke="#8b4513" d="M306.92,-792.05C308.02,-784.35 309.35,-775.03 310.59,-766.36"/>
<polygon fill="#8b4513" stroke="#8b4513" points="314.08,-766.67 312.03,-756.28 307.15,-765.68 314.08,-766.67"/>
</g>
<!-- libudev.so=1&#45;64&#45;&gt;systemd&#45;libs -->
<g id="edge38" class="edge">
<title>libudev.so=1&#45;64&#45;&gt;systemd&#45;libs</title>
<path fill="none" stroke="grey" d="M249.55,-1007.7C246.45,-996.85 242.47,-982.92 239.38,-972.1"/>
</g>
<!-- libdevmapper.so=1.02&#45;64&#45;&gt;device&#45;mapper -->
<g id="edge40" class="edge">
<title>libdevmapper.so=1.02&#45;64&#45;&gt;device&#45;mapper</title>
<path fill="none" stroke="grey" d="M517.35,-1152.76C495.74,-1141.13 466.85,-1125.58 445.71,-1114.19"/>
</g>
<!-- perl -->
<g id="node28" class="node">
<title>perl</title>
<ellipse fill="green" stroke="green" cx="620.5" cy="-954" rx="27" ry="18"/>
<text text-anchor="middle" x="620.5" y="-950.3" font-family="Times,serif" font-size="14.00">perl</text>
</g>
<!-- openssl&#45;&gt;perl -->
<g id="edge42" class="edge">
<title>openssl&#45;&gt;perl</title>
<path fill="none" stroke="#8b4513" d="M631.87,-1008.05C630.2,-1000.26 628.17,-990.82 626.3,-982.08"/>
<polygon fill="#8b4513" stroke="#8b4513" points="629.72,-981.32 624.2,-972.28 622.87,-982.79 629.72,-981.32"/>
</g>
<!-- perl&#45;&gt;glibc -->
<g id="edge52" class="edge">
<title>perl&#45;&gt;glibc</title>
<path fill="none" stroke="#8b4513" d="M633.61,-938.26C641.94,-928.16 652.27,-914.08 658.5,-900 674.85,-863.01 677.5,-851.45 677.5,-811 677.5,-811 677.5,-811 677.5,-305 677.5,-262.33 674.4,-243.16 641.5,-216 606.62,-187.2 475.6,-172.01 409.76,-166.05"/>
<polygon fill="#8b4513" stroke="#8b4513" points="410.05,-162.56 399.78,-165.17 409.43,-169.53 410.05,-162.56"/>
</g>
<!-- gdbm&gt;=1.17 -->
<g id="node29" class="node">
<title>gdbm&gt;=1.17</title>
<ellipse fill="green" stroke="green" cx="591.5" cy="-882" rx="57.69" ry="18"/>
<text text-anchor="middle" x="591.5" y="-878.3" font-family="Times,serif" font-size="14.00">gdbm&gt;=1.17</text>
</g>
<!-- perl&#45;&gt;gdbm&gt;=1.17 -->
<g id="edge43" class="edge">
<title>perl&#45;&gt;gdbm&gt;=1.17</title>
<path fill="none" stroke="#8b4513" d="M613.62,-936.41C610.28,-928.34 606.18,-918.43 602.42,-909.35"/>
<polygon fill="#8b4513" stroke="#8b4513" points="605.58,-907.86 598.52,-899.96 599.12,-910.53 605.58,-907.86"/>
</g>
<!-- db -->
<g id="node31" class="node">
<title>db</title>
<ellipse fill="green" stroke="green" cx="491.5" cy="-810" rx="27" ry="18"/>
<text text-anchor="middle" x="491.5" y="-806.3" font-family="Times,serif" font-size="14.00">db</text>
</g>
<!-- perl&#45;&gt;db -->
<g id="edge48" class="edge">
<title>perl&#45;&gt;db</title>
<path fill="none" stroke="#8b4513" d="M596.45,-945.2C574.88,-937.08 543.75,-922.36 524.5,-900 509.35,-882.4 500.88,-857.21 496.32,-838.12"/>
<polygon fill="#8b4513" stroke="#8b4513" points="499.72,-837.26 494.18,-828.23 492.88,-838.74 499.72,-837.26"/>
</g>
<!-- gdbm -->
<g id="node30" class="node">
<title>gdbm</title>
<ellipse fill="green" stroke="green" cx="605.5" cy="-810" rx="31.4" ry="18"/>
<text text-anchor="middle" x="605.5" y="-806.3" font-family="Times,serif" font-size="14.00">gdbm</text>
</g>
<!-- gdbm&gt;=1.17&#45;&gt;gdbm -->
<g id="edge44" class="edge">
<title>gdbm&gt;=1.17&#45;&gt;gdbm</title>
<path fill="none" stroke="grey" d="M594.96,-863.7C597.13,-852.85 599.91,-838.92 602.08,-828.1"/>
</g>
<!-- gdbm&#45;&gt;glibc -->
<g id="edge45" class="edge">
<title>gdbm&#45;&gt;glibc</title>
<path fill="none" stroke="#8b4513" d="M612.21,-792.26C622.12,-766.02 639.5,-713.39 639.5,-667 639.5,-667 639.5,-667 639.5,-305 639.5,-264.03 645.17,-244.24 615.5,-216 586.33,-188.24 471.03,-172.86 409.94,-166.51"/>
<polygon fill="#8b4513" stroke="#8b4513" points="410.21,-163.02 399.91,-165.5 409.51,-169.99 410.21,-163.02"/>
</g>
<!-- gdbm&#45;&gt;sh -->
<g id="edge46" class="edge">
<title>gdbm&#45;&gt;sh</title>
<path fill="none" stroke="#8b4513" d="M577.33,-802.22C523.91,-789.37 408.01,-761.49 349.62,-747.45"/>
<polygon fill="#8b4513" stroke="#8b4513" points="350.29,-744.01 339.75,-745.07 348.65,-750.82 350.29,-744.01"/>
</g>
<!-- db&#45;&gt;sh -->
<g id="edge50" class="edge">
<title>db&#45;&gt;sh</title>
<path fill="none" stroke="#8b4513" d="M468.72,-799.99C437.65,-787.71 381.84,-765.63 346.56,-751.68"/>
<polygon fill="#8b4513" stroke="#8b4513" points="347.77,-748.4 337.19,-747.97 345.2,-754.91 347.77,-748.4"/>
</g>
<!-- db&#45;&gt;gcc&#45;libs -->
<g id="edge49" class="edge">
<title>db&#45;&gt;gcc&#45;libs</title>
<path fill="none" stroke="#8b4513" d="M505.04,-794.09C525.9,-769.52 563.5,-718.14 563.5,-667 563.5,-667 563.5,-667 563.5,-449 563.5,-396.65 516.3,-351.71 484.02,-327.1"/>
<polygon fill="#8b4513" stroke="#8b4513" points="485.89,-324.13 475.77,-320.99 481.73,-329.75 485.89,-324.13"/>
</g>
<!-- popt&#45;&gt;glibc -->
<g id="edge54" class="edge">
<title>popt&#45;&gt;glibc</title>
<path fill="none" stroke="#8b4513" d="M730.72,-719.97C728.1,-693.34 723.5,-640.21 723.5,-595 723.5,-595 723.5,-595 723.5,-305 723.5,-262.97 723.79,-242.91 691.5,-216 649.31,-180.83 485.6,-168.49 410.07,-164.6"/>
<polygon fill="#8b4513" stroke="#8b4513" points="410.18,-161.1 400.02,-164.11 409.84,-168.09 410.18,-161.1"/>
</g>
<!-- libuuid.so=1&#45;64&#45;&gt;libutil&#45;linux -->
<g id="edge57" class="edge">
<title>libuuid.so=1&#45;64&#45;&gt;libutil&#45;linux</title>
<path fill="none" stroke="grey" d="M1247.88,-1152.05C1240.33,-1141.05 1230.53,-1126.76 1223.01,-1115.79"/>
</g>
<!-- json&#45;c&#45;&gt;glibc -->
<g id="edge59" class="edge">
<title>json&#45;c&#45;&gt;glibc</title>
<path fill="none" stroke="#8b4513" d="M787.5,-1079.95C787.5,-1053.29 787.5,-1000.11 787.5,-955 787.5,-955 787.5,-955 787.5,-305 787.5,-255.22 762.33,-241.37 719.5,-216 667.67,-185.3 489.28,-170.45 410,-165.25"/>
<polygon fill="#8b4513" stroke="#8b4513" points="410.14,-161.75 399.94,-164.6 409.7,-168.74 410.14,-161.75"/>
</g>
<!-- libjson&#45;c.so=5&#45;64&#45;&gt;json&#45;c -->
<g id="edge61" class="edge">
<title>libjson&#45;c.so=5&#45;64&#45;&gt;json&#45;c</title>
<path fill="none" stroke="grey" d="M838.62,-1152.41C827.63,-1140.93 813.1,-1125.75 802.34,-1114.51"/>
</g>
<!-- argon2&#45;&gt;glibc -->
<g id="edge63" class="edge">
<title>argon2&#45;&gt;glibc</title>
<path fill="none" stroke="#8b4513" d="M942.66,-1081.05C923.71,-1055.86 890.5,-1004.62 890.5,-955 890.5,-955 890.5,-955 890.5,-305 890.5,-234.61 825.22,-241.21 759.5,-216 638.44,-169.57 482.42,-162.9 410.71,-162.52"/>
<polygon fill="#8b4513" stroke="#8b4513" points="410.36,-159.02 400.35,-162.51 410.35,-166.02 410.36,-159.02"/>
</g>
<!-- libargon2.so=1&#45;64&#45;&gt;argon2 -->
<g id="edge65" class="edge">
<title>libargon2.so=1&#45;64&#45;&gt;argon2</title>
<path fill="none" stroke="grey" d="M1035.38,-1152.76C1017.37,-1140.65 993.04,-1124.27 975.98,-1112.79"/>
</g>
</g>
</svg>
