<?xml version="1.0" encoding="UTF-8" standalone="no"?>
<!DOCTYPE svg PUBLIC "-//W3C//DTD SVG 1.1//EN"
 "http://www.w3.org/Graphics/SVG/1.1/DTD/svg11.dtd">
<!-- Generated by graphviz version 2.44.0 (0)
 -->
<!-- Title: G Pages: 1 -->
<svg width="760pt" height="1556pt"
 viewBox="0.00 0.00 760.00 1556.00" xmlns="http://www.w3.org/2000/svg" xmlns:xlink="http://www.w3.org/1999/xlink">
<g id="graph0" class="graph" transform="scale(1 1) rotate(0) translate(4 1552)">
<title>G</title>
<polygon fill="white" stroke="transparent" points="-4,4 -4,-1552 756,-1552 756,4 -4,4"/>
<!-- START -->
<g id="node1" class="node">
<title>START</title>
<ellipse fill="red" stroke="red" cx="449" cy="-1530" rx="38.19" ry="18"/>
<text text-anchor="middle" x="449" y="-1526.3" font-family="Times,serif" font-size="14.00">START</text>
</g>
<!-- dbus -->
<g id="node2" class="node">
<title>dbus</title>
<ellipse fill="green" stroke="green" cx="449" cy="-1458" rx="27.1" ry="18"/>
<text text-anchor="middle" x="449" y="-1454.3" font-family="Times,serif" font-size="14.00">dbus</text>
</g>
<!-- START&#45;&gt;dbus -->
<g id="edge1" class="edge">
<title>START&#45;&gt;dbus</title>
<path fill="none" stroke="black" d="M449,-1511.7C449,-1503.98 449,-1494.71 449,-1486.11"/>
<polygon fill="black" stroke="black" points="452.5,-1486.1 449,-1476.1 445.5,-1486.1 452.5,-1486.1"/>
</g>
<!-- systemd&#45;libs -->
<g id="node3" class="node">
<title>systemd&#45;libs</title>
<ellipse fill="green" stroke="green" cx="171" cy="-954" rx="55.79" ry="18"/>
<text text-anchor="middle" x="171" y="-950.3" font-family="Times,serif" font-size="14.00">systemd&#45;libs</text>
</g>
<!-- dbus&#45;&gt;systemd&#45;libs -->
<g id="edge2" class="edge">
<title>dbus&#45;&gt;systemd&#45;libs</title>
<path fill="none" stroke="#8b4513" d="M421.92,-1455.14C362.34,-1450.49 222.59,-1436.32 190,-1404 161.28,-1375.52 171,-1355.45 171,-1315 171,-1315 171,-1315 171,-1097 171,-1057 171,-1010.65 171,-982.08"/>
<polygon fill="#8b4513" stroke="#8b4513" points="174.5,-982.05 171,-972.05 167.5,-982.05 174.5,-982.05"/>
</g>
<!-- expat -->
<g id="node24" class="node">
<title>expat</title>
<ellipse fill="green" stroke="green" cx="677" cy="-1314" rx="29.8" ry="18"/>
<text text-anchor="middle" x="677" y="-1310.3" font-family="Times,serif" font-size="14.00">expat</text>
</g>
<!-- dbus&#45;&gt;expat -->
<g id="edge35" class="edge">
<title>dbus&#45;&gt;expat</title>
<path fill="none" stroke="#8b4513" d="M470,-1446.45C490.09,-1436.17 521.08,-1419.82 547,-1404 583.71,-1381.59 624.36,-1353.14 650.27,-1334.52"/>
<polygon fill="#8b4513" stroke="#8b4513" points="652.4,-1337.29 658.46,-1328.6 648.31,-1331.62 652.4,-1337.29"/>
</g>
<!-- audit -->
<g id="node25" class="node">
<title>audit</title>
<ellipse fill="green" stroke="green" cx="537" cy="-1314" rx="28.7" ry="18"/>
<text text-anchor="middle" x="537" y="-1310.3" font-family="Times,serif" font-size="14.00">audit</text>
</g>
<!-- dbus&#45;&gt;audit -->
<g id="edge37" class="edge">
<title>dbus&#45;&gt;audit</title>
<path fill="none" stroke="#8b4513" d="M472.23,-1448.02C490.66,-1439.6 515.34,-1425.1 528,-1404 539.09,-1385.52 540.8,-1360.92 540.04,-1342.27"/>
<polygon fill="#8b4513" stroke="#8b4513" points="543.52,-1341.81 539.36,-1332.07 536.53,-1342.28 543.52,-1341.81"/>
</g>
<!-- libsystemd.so=0&#45;64 -->
<g id="node38" class="node">
<title>libsystemd.so=0&#45;64</title>
<ellipse fill="green" stroke="green" cx="280" cy="-1386" rx="81.49" ry="18"/>
<text text-anchor="middle" x="280" y="-1382.3" font-family="Times,serif" font-size="14.00">libsystemd.so=0&#45;64</text>
</g>
<!-- dbus&#45;&gt;libsystemd.so=0&#45;64 -->
<g id="edge64" class="edge">
<title>dbus&#45;&gt;libsystemd.so=0&#45;64</title>
<path fill="none" stroke="#8b4513" d="M426.56,-1447.7C400.98,-1437.11 358.49,-1419.51 325.83,-1405.98"/>
<polygon fill="#8b4513" stroke="#8b4513" points="327.05,-1402.7 316.47,-1402.11 324.37,-1409.17 327.05,-1402.7"/>
</g>
<!-- libaudit.so=1&#45;64 -->
<g id="node39" class="node">
<title>libaudit.so=1&#45;64</title>
<ellipse fill="green" stroke="green" cx="449" cy="-1386" rx="69.59" ry="18"/>
<text text-anchor="middle" x="449" y="-1382.3" font-family="Times,serif" font-size="14.00">libaudit.so=1&#45;64</text>
</g>
<!-- dbus&#45;&gt;libaudit.so=1&#45;64 -->
<g id="edge66" class="edge">
<title>dbus&#45;&gt;libaudit.so=1&#45;64</title>
<path fill="none" stroke="#8b4513" d="M449,-1439.7C449,-1431.98 449,-1422.71 449,-1414.11"/>
<polygon fill="#8b4513" stroke="#8b4513" points="452.5,-1414.1 449,-1404.1 445.5,-1414.1 452.5,-1414.1"/>
</g>
<!-- glibc -->
<g id="node4" class="node">
<title>glibc</title>
<ellipse fill="green" stroke="green" cx="281" cy="-162" rx="28.7" ry="18"/>
<text text-anchor="middle" x="281" y="-158.3" font-family="Times,serif" font-size="14.00">glibc</text>
</g>
<!-- systemd&#45;libs&#45;&gt;glibc -->
<g id="edge3" class="edge">
<title>systemd&#45;libs&#45;&gt;glibc</title>
<path fill="none" stroke="#8b4513" d="M133.05,-940.62C82.67,-921.51 0,-879.69 0,-811 0,-811 0,-811 0,-305 0,-260.68 10.03,-243.24 45,-216 75.55,-192.2 184.57,-175.19 243.14,-167.53"/>
<polygon fill="#8b4513" stroke="#8b4513" points="243.64,-171 253.11,-166.25 242.75,-164.05 243.64,-171"/>
</g>
<!-- libcap -->
<g id="node10" class="node">
<title>libcap</title>
<ellipse fill="green" stroke="green" cx="67" cy="-306" rx="32.49" ry="18"/>
<text text-anchor="middle" x="67" y="-302.3" font-family="Times,serif" font-size="14.00">libcap</text>
</g>
<!-- systemd&#45;libs&#45;&gt;libcap -->
<g id="edge9" class="edge">
<title>systemd&#45;libs&#45;&gt;libcap</title>
<path fill="none" stroke="#8b4513" d="M148.94,-937.43C118.42,-913.86 67,-866 67,-811 67,-811 67,-811 67,-449 67,-409 67,-362.65 67,-334.08"/>
<polygon fill="#8b4513" stroke="#8b4513" points="70.5,-334.05 67,-324.05 63.5,-334.05 70.5,-334.05"/>
</g>
<!-- libgcrypt -->
<g id="node12" class="node">
<title>libgcrypt</title>
<ellipse fill="green" stroke="green" cx="176" cy="-882" rx="42.79" ry="18"/>
<text text-anchor="middle" x="176" y="-878.3" font-family="Times,serif" font-size="14.00">libgcrypt</text>
</g>
<!-- systemd&#45;libs&#45;&gt;libgcrypt -->
<g id="edge13" class="edge">
<title>systemd&#45;libs&#45;&gt;libgcrypt</title>
<path fill="none" stroke="#8b4513" d="M172.24,-935.7C172.79,-927.98 173.45,-918.71 174.06,-910.11"/>
<polygon fill="#8b4513" stroke="#8b4513" points="177.56,-910.33 174.78,-900.1 170.57,-909.83 177.56,-910.33"/>
</g>
<!-- lz4 -->
<g id="node22" class="node">
<title>lz4</title>
<ellipse fill="green" stroke="green" cx="127" cy="-738" rx="27" ry="18"/>
<text text-anchor="middle" x="127" y="-734.3" font-family="Times,serif" font-size="14.00">lz4</text>
</g>
<!-- systemd&#45;libs&#45;&gt;lz4 -->
<g id="edge30" class="edge">
<title>systemd&#45;libs&#45;&gt;lz4</title>
<path fill="none" stroke="#8b4513" d="M151.2,-937.09C140.97,-927.55 129.5,-914.49 124,-900 107.08,-855.42 114.04,-798.79 120.56,-765.94"/>
<polygon fill="#8b4513" stroke="#8b4513" points="123.99,-766.67 122.64,-756.16 117.14,-765.22 123.99,-766.67"/>
</g>
<!-- xz -->
<g id="node23" class="node">
<title>xz</title>
<ellipse fill="green" stroke="green" cx="264" cy="-882" rx="27" ry="18"/>
<text text-anchor="middle" x="264" y="-878.3" font-family="Times,serif" font-size="14.00">xz</text>
</g>
<!-- systemd&#45;libs&#45;&gt;xz -->
<g id="edge32" class="edge">
<title>systemd&#45;libs&#45;&gt;xz</title>
<path fill="none" stroke="#8b4513" d="M192.1,-937.12C205.9,-926.73 224,-913.11 238.59,-902.12"/>
<polygon fill="#8b4513" stroke="#8b4513" points="240.83,-904.82 246.72,-896.01 236.62,-899.23 240.83,-904.82"/>
</g>
<!-- linux&#45;api&#45;headers&gt;=4.10 -->
<g id="node5" class="node">
<title>linux&#45;api&#45;headers&gt;=4.10</title>
<ellipse fill="green" stroke="green" cx="133" cy="-90" rx="98.28" ry="18"/>
<text text-anchor="middle" x="133" y="-86.3" font-family="Times,serif" font-size="14.00">linux&#45;api&#45;headers&gt;=4.10</text>
</g>
<!-- glibc&#45;&gt;linux&#45;api&#45;headers&gt;=4.10 -->
<g id="edge4" class="edge">
<title>glibc&#45;&gt;linux&#45;api&#45;headers&gt;=4.10</title>
<path fill="none" stroke="#8b4513" d="M258.84,-150.52C237.06,-140.22 203.23,-124.22 176.13,-111.4"/>
<polygon fill="#8b4513" stroke="#8b4513" points="177.39,-108.12 166.85,-107.01 174.4,-114.45 177.39,-108.12"/>
</g>
<!-- tzdata -->
<g id="node7" class="node">
<title>tzdata</title>
<ellipse fill="green" stroke="green" cx="281" cy="-90" rx="31.7" ry="18"/>
<text text-anchor="middle" x="281" y="-86.3" font-family="Times,serif" font-size="14.00">tzdata</text>
</g>
<!-- glibc&#45;&gt;tzdata -->
<g id="edge6" class="edge">
<title>glibc&#45;&gt;tzdata</title>
<path fill="none" stroke="#8b4513" d="M281,-143.7C281,-135.98 281,-126.71 281,-118.11"/>
<polygon fill="#8b4513" stroke="#8b4513" points="284.5,-118.1 281,-108.1 277.5,-118.1 284.5,-118.1"/>
</g>
<!-- filesystem -->
<g id="node8" class="node">
<title>filesystem</title>
<ellipse fill="green" stroke="green" cx="378" cy="-90" rx="46.59" ry="18"/>
<text text-anchor="middle" x="378" y="-86.3" font-family="Times,serif" font-size="14.00">filesystem</text>
</g>
<!-- glibc&#45;&gt;filesystem -->
<g id="edge7" class="edge">
<title>glibc&#45;&gt;filesystem</title>
<path fill="none" stroke="#8b4513" d="M299.24,-147.83C313.04,-137.88 332.28,-123.99 348.29,-112.44"/>
<polygon fill="#8b4513" stroke="#8b4513" points="350.74,-114.99 356.8,-106.3 346.64,-109.31 350.74,-114.99"/>
</g>
<!-- linux&#45;api&#45;headers -->
<g id="node6" class="node">
<title>linux&#45;api&#45;headers</title>
<ellipse fill="green" stroke="green" cx="133" cy="-18" rx="71.49" ry="18"/>
<text text-anchor="middle" x="133" y="-14.3" font-family="Times,serif" font-size="14.00">linux&#45;api&#45;headers</text>
</g>
<!-- linux&#45;api&#45;headers&gt;=4.10&#45;&gt;linux&#45;api&#45;headers -->
<g id="edge5" class="edge">
<title>linux&#45;api&#45;headers&gt;=4.10&#45;&gt;linux&#45;api&#45;headers</title>
<path fill="none" stroke="grey" d="M133,-71.7C133,-60.85 133,-46.92 133,-36.1"/>
</g>
<!-- iana&#45;etc -->
<g id="node9" class="node">
<title>iana&#45;etc</title>
<ellipse fill="green" stroke="green" cx="378" cy="-18" rx="38.19" ry="18"/>
<text text-anchor="middle" x="378" y="-14.3" font-family="Times,serif" font-size="14.00">iana&#45;etc</text>
</g>
<!-- filesystem&#45;&gt;iana&#45;etc -->
<g id="edge8" class="edge">
<title>filesystem&#45;&gt;iana&#45;etc</title>
<path fill="none" stroke="#8b4513" d="M378,-71.7C378,-63.98 378,-54.71 378,-46.11"/>
<polygon fill="#8b4513" stroke="#8b4513" points="381.5,-46.1 378,-36.1 374.5,-46.1 381.5,-46.1"/>
</g>
<!-- libcap&#45;&gt;glibc -->
<g id="edge10" class="edge">
<title>libcap&#45;&gt;glibc</title>
<path fill="none" stroke="#8b4513" d="M58.67,-288.29C50.28,-268.79 40.7,-236.61 57,-216 79.7,-187.31 184.52,-172.54 242.38,-166.46"/>
<polygon fill="#8b4513" stroke="#8b4513" points="243.01,-169.92 252.6,-165.43 242.3,-162.95 243.01,-169.92"/>
</g>
<!-- attr -->
<g id="node11" class="node">
<title>attr</title>
<ellipse fill="green" stroke="green" cx="93" cy="-234" rx="27" ry="18"/>
<text text-anchor="middle" x="93" y="-230.3" font-family="Times,serif" font-size="14.00">attr</text>
</g>
<!-- libcap&#45;&gt;attr -->
<g id="edge11" class="edge">
<title>libcap&#45;&gt;attr</title>
<path fill="none" stroke="#8b4513" d="M73.29,-288.05C76.26,-280.06 79.88,-270.33 83.19,-261.4"/>
<polygon fill="#8b4513" stroke="#8b4513" points="86.56,-262.38 86.76,-251.79 80,-259.94 86.56,-262.38"/>
</g>
<!-- attr&#45;&gt;glibc -->
<g id="edge12" class="edge">
<title>attr&#45;&gt;glibc</title>
<path fill="none" stroke="#8b4513" d="M115.48,-223.46C121.48,-220.97 127.96,-218.34 134,-216 172.41,-201.12 216.97,-185.25 246.87,-174.79"/>
<polygon fill="#8b4513" stroke="#8b4513" points="248.13,-178.06 256.42,-171.47 245.82,-171.45 248.13,-178.06"/>
</g>
<!-- libgpg&#45;error -->
<g id="node13" class="node">
<title>libgpg&#45;error</title>
<ellipse fill="green" stroke="green" cx="187" cy="-810" rx="53.89" ry="18"/>
<text text-anchor="middle" x="187" y="-806.3" font-family="Times,serif" font-size="14.00">libgpg&#45;error</text>
</g>
<!-- libgcrypt&#45;&gt;libgpg&#45;error -->
<g id="edge14" class="edge">
<title>libgcrypt&#45;&gt;libgpg&#45;error</title>
<path fill="none" stroke="#8b4513" d="M178.72,-863.7C179.93,-855.98 181.39,-846.71 182.74,-838.11"/>
<polygon fill="#8b4513" stroke="#8b4513" points="186.22,-838.53 184.31,-828.1 179.3,-837.44 186.22,-838.53"/>
</g>
<!-- libgpg&#45;error&#45;&gt;glibc -->
<g id="edge15" class="edge">
<title>libgpg&#45;error&#45;&gt;glibc</title>
<path fill="none" stroke="#8b4513" d="M186.8,-791.95C186.51,-765.29 186,-712.12 186,-667 186,-667 186,-667 186,-305 186,-264.03 186.99,-249.89 210,-216 220.3,-200.82 236.41,-188.29 250.69,-179.22"/>
<polygon fill="#8b4513" stroke="#8b4513" points="252.52,-182.2 259.27,-174.03 248.9,-176.21 252.52,-182.2"/>
</g>
<!-- sh -->
<g id="node14" class="node">
<title>sh</title>
<ellipse fill="green" stroke="green" cx="412" cy="-738" rx="27" ry="18"/>
<text text-anchor="middle" x="412" y="-734.3" font-family="Times,serif" font-size="14.00">sh</text>
</g>
<!-- libgpg&#45;error&#45;&gt;sh -->
<g id="edge16" class="edge">
<title>libgpg&#45;error&#45;&gt;sh</title>
<path fill="none" stroke="#8b4513" d="M225.17,-797.13C268.05,-783.78 337.01,-762.33 378.07,-749.55"/>
<polygon fill="#8b4513" stroke="#8b4513" points="379.37,-752.82 387.88,-746.5 377.29,-746.13 379.37,-752.82"/>
</g>
<!-- bash -->
<g id="node15" class="node">
<title>bash</title>
<ellipse fill="green" stroke="green" cx="412" cy="-666" rx="27" ry="18"/>
<text text-anchor="middle" x="412" y="-662.3" font-family="Times,serif" font-size="14.00">bash</text>
</g>
<!-- sh&#45;&gt;bash -->
<g id="edge17" class="edge">
<title>sh&#45;&gt;bash</title>
<path fill="none" stroke="grey" d="M388.93,-728.42C374.72,-714.98 374.69,-689.13 388.85,-675.65"/>
</g>
<!-- sh&#45;&gt;bash -->
<g id="edge34" class="edge">
<title>sh&#45;&gt;bash</title>
<path fill="none" stroke="grey" d="M395.63,-723.5C390.45,-711.11 390.46,-692.84 395.64,-680.46"/>
</g>
<!-- sh&#45;&gt;bash -->
<g id="edge41" class="edge">
<title>sh&#45;&gt;bash</title>
<path fill="none" stroke="grey" d="M406.16,-720.41C404.96,-709.41 404.95,-695.03 406.12,-683.96"/>
</g>
<!-- sh&#45;&gt;bash -->
<g id="edge51" class="edge">
<title>sh&#45;&gt;bash</title>
<path fill="none" stroke="grey" d="M417.84,-720.41C419.04,-709.41 419.05,-695.03 417.88,-683.96"/>
</g>
<!-- sh&#45;&gt;bash -->
<g id="edge55" class="edge">
<title>sh&#45;&gt;bash</title>
<path fill="none" stroke="grey" d="M428.37,-723.5C433.55,-711.11 433.54,-692.84 428.36,-680.46"/>
</g>
<!-- sh&#45;&gt;bash -->
<g id="edge61" class="edge">
<title>sh&#45;&gt;bash</title>
<path fill="none" stroke="grey" d="M435.07,-728.42C449.28,-714.98 449.31,-689.13 435.15,-675.65"/>
</g>
<!-- bash&#45;&gt;glibc -->
<g id="edge28" class="edge">
<title>bash&#45;&gt;glibc</title>
<path fill="none" stroke="#8b4513" d="M389.22,-656.01C347.26,-637.77 262,-592.21 262,-523 262,-523 262,-523 262,-305 262,-264.64 269.63,-218.39 275.22,-189.94"/>
<polygon fill="#8b4513" stroke="#8b4513" points="278.69,-190.45 277.25,-179.95 271.83,-189.06 278.69,-190.45"/>
</g>
<!-- readline&gt;=7.0 -->
<g id="node16" class="node">
<title>readline&gt;=7.0</title>
<ellipse fill="green" stroke="green" cx="412" cy="-594" rx="61.19" ry="18"/>
<text text-anchor="middle" x="412" y="-590.3" font-family="Times,serif" font-size="14.00">readline&gt;=7.0</text>
</g>
<!-- bash&#45;&gt;readline&gt;=7.0 -->
<g id="edge18" class="edge">
<title>bash&#45;&gt;readline&gt;=7.0</title>
<path fill="none" stroke="#8b4513" d="M412,-647.7C412,-639.98 412,-630.71 412,-622.11"/>
<polygon fill="#8b4513" stroke="#8b4513" points="415.5,-622.1 412,-612.1 408.5,-622.1 415.5,-622.1"/>
</g>
<!-- ncurses -->
<g id="node18" class="node">
<title>ncurses</title>
<ellipse fill="green" stroke="green" cx="511" cy="-378" rx="37.09" ry="18"/>
<text text-anchor="middle" x="511" y="-374.3" font-family="Times,serif" font-size="14.00">ncurses</text>
</g>
<!-- bash&#45;&gt;ncurses -->
<g id="edge29" class="edge">
<title>bash&#45;&gt;ncurses</title>
<path fill="none" stroke="#8b4513" d="M432.67,-654.2C448.38,-644.99 469.37,-630.33 482,-612 528.61,-544.35 533.86,-513.56 524,-432 522.96,-423.4 521.01,-414.19 518.92,-405.89"/>
<polygon fill="#8b4513" stroke="#8b4513" points="522.24,-404.75 516.27,-395.99 515.48,-406.56 522.24,-404.75"/>
</g>
<!-- readline -->
<g id="node17" class="node">
<title>readline</title>
<ellipse fill="green" stroke="green" cx="412" cy="-522" rx="38.99" ry="18"/>
<text text-anchor="middle" x="412" y="-518.3" font-family="Times,serif" font-size="14.00">readline</text>
</g>
<!-- readline&gt;=7.0&#45;&gt;readline -->
<g id="edge19" class="edge">
<title>readline&gt;=7.0&#45;&gt;readline</title>
<path fill="none" stroke="grey" d="M412,-575.7C412,-564.85 412,-550.92 412,-540.1"/>
</g>
<!-- readline&#45;&gt;glibc -->
<g id="edge20" class="edge">
<title>readline&#45;&gt;glibc</title>
<path fill="none" stroke="#8b4513" d="M381.04,-510.97C360.36,-502.68 334.25,-488.85 319,-468 295.12,-435.36 300,-419.45 300,-379 300,-379 300,-379 300,-305 300,-264.64 292.37,-218.39 286.78,-189.94"/>
<polygon fill="#8b4513" stroke="#8b4513" points="290.17,-189.06 284.75,-179.95 283.31,-190.45 290.17,-189.06"/>
</g>
<!-- readline&#45;&gt;ncurses -->
<g id="edge21" class="edge">
<title>readline&#45;&gt;ncurses</title>
<path fill="none" stroke="#8b4513" d="M443.92,-511.62C465.04,-503.63 491.28,-489.88 505,-468 516.47,-449.71 517.23,-424.94 515.54,-406.18"/>
<polygon fill="#8b4513" stroke="#8b4513" points="519.01,-405.71 514.36,-396.19 512.05,-406.53 519.01,-405.71"/>
</g>
<!-- libncursesw.so=6&#45;64 -->
<g id="node21" class="node">
<title>libncursesw.so=6&#45;64</title>
<ellipse fill="green" stroke="green" cx="412" cy="-450" rx="83.69" ry="18"/>
<text text-anchor="middle" x="412" y="-446.3" font-family="Times,serif" font-size="14.00">libncursesw.so=6&#45;64</text>
</g>
<!-- readline&#45;&gt;libncursesw.so=6&#45;64 -->
<g id="edge26" class="edge">
<title>readline&#45;&gt;libncursesw.so=6&#45;64</title>
<path fill="none" stroke="#8b4513" d="M412,-503.7C412,-495.98 412,-486.71 412,-478.11"/>
<polygon fill="#8b4513" stroke="#8b4513" points="415.5,-478.1 412,-468.1 408.5,-478.1 415.5,-478.1"/>
</g>
<!-- ncurses&#45;&gt;glibc -->
<g id="edge22" class="edge">
<title>ncurses&#45;&gt;glibc</title>
<path fill="none" stroke="#8b4513" d="M494.46,-361.61C454.05,-324.01 350.25,-227.43 303.92,-184.32"/>
<polygon fill="#8b4513" stroke="#8b4513" points="306.18,-181.65 296.48,-177.4 301.42,-186.78 306.18,-181.65"/>
</g>
<!-- gcc&#45;libs -->
<g id="node19" class="node">
<title>gcc&#45;libs</title>
<ellipse fill="green" stroke="green" cx="511" cy="-306" rx="38.19" ry="18"/>
<text text-anchor="middle" x="511" y="-302.3" font-family="Times,serif" font-size="14.00">gcc&#45;libs</text>
</g>
<!-- ncurses&#45;&gt;gcc&#45;libs -->
<g id="edge23" class="edge">
<title>ncurses&#45;&gt;gcc&#45;libs</title>
<path fill="none" stroke="#8b4513" d="M511,-359.7C511,-351.98 511,-342.71 511,-334.11"/>
<polygon fill="#8b4513" stroke="#8b4513" points="514.5,-334.1 511,-324.1 507.5,-334.1 514.5,-334.1"/>
</g>
<!-- glibc&gt;=2.27 -->
<g id="node20" class="node">
<title>glibc&gt;=2.27</title>
<ellipse fill="green" stroke="green" cx="498" cy="-234" rx="54.69" ry="18"/>
<text text-anchor="middle" x="498" y="-230.3" font-family="Times,serif" font-size="14.00">glibc&gt;=2.27</text>
</g>
<!-- gcc&#45;libs&#45;&gt;glibc&gt;=2.27 -->
<g id="edge24" class="edge">
<title>gcc&#45;libs&#45;&gt;glibc&gt;=2.27</title>
<path fill="none" stroke="#8b4513" d="M507.85,-288.05C506.42,-280.35 504.69,-271.03 503.08,-262.36"/>
<polygon fill="#8b4513" stroke="#8b4513" points="506.48,-261.47 501.21,-252.28 499.59,-262.75 506.48,-261.47"/>
</g>
<!-- glibc&gt;=2.27&#45;&gt;glibc -->
<g id="edge25" class="edge">
<title>glibc&gt;=2.27&#45;&gt;glibc</title>
<path fill="none" stroke="grey" d="M460.2,-220.81C415.88,-206.51 343.68,-183.22 305.87,-171.02"/>
</g>
<!-- libncursesw.so=6&#45;64&#45;&gt;ncurses -->
<g id="edge27" class="edge">
<title>libncursesw.so=6&#45;64&#45;&gt;ncurses</title>
<path fill="none" stroke="grey" d="M435.21,-432.59C452.13,-420.63 474.82,-404.59 490.95,-393.18"/>
</g>
<!-- lz4&#45;&gt;glibc -->
<g id="edge31" class="edge">
<title>lz4&#45;&gt;glibc</title>
<path fill="none" stroke="#8b4513" d="M131.15,-720.07C137.27,-693.57 148,-640.61 148,-595 148,-595 148,-595 148,-305 148,-264.03 145.9,-247.58 172,-216 190.54,-193.58 220.84,-179.92 244.8,-172.09"/>
<polygon fill="#8b4513" stroke="#8b4513" points="246.08,-175.36 254.62,-169.09 244.04,-168.67 246.08,-175.36"/>
</g>
<!-- xz&#45;&gt;sh -->
<g id="edge33" class="edge">
<title>xz&#45;&gt;sh</title>
<path fill="none" stroke="#8b4513" d="M268.14,-863.94C273.65,-844.42 285.08,-812.49 305,-792 325.01,-771.41 354.69,-757.59 377.72,-749.24"/>
<polygon fill="#8b4513" stroke="#8b4513" points="379.14,-752.45 387.45,-745.88 376.86,-745.83 379.14,-752.45"/>
</g>
<!-- expat&#45;&gt;glibc -->
<g id="edge36" class="edge">
<title>expat&#45;&gt;glibc</title>
<path fill="none" stroke="#8b4513" d="M691.46,-1297.79C713.25,-1273.21 752,-1222.3 752,-1171 752,-1171 752,-1171 752,-305 752,-254.68 725.73,-240.91 682,-216 620.58,-181.01 407.78,-168.28 319.67,-164.43"/>
<polygon fill="#8b4513" stroke="#8b4513" points="319.7,-160.93 309.56,-164.01 319.4,-167.92 319.7,-160.93"/>
</g>
<!-- krb5 -->
<g id="node26" class="node">
<title>krb5</title>
<ellipse fill="green" stroke="green" cx="517" cy="-1242" rx="27.1" ry="18"/>
<text text-anchor="middle" x="517" y="-1238.3" font-family="Times,serif" font-size="14.00">krb5</text>
</g>
<!-- audit&#45;&gt;krb5 -->
<g id="edge38" class="edge">
<title>audit&#45;&gt;krb5</title>
<path fill="none" stroke="#8b4513" d="M532.16,-1296.05C529.9,-1288.14 527.15,-1278.54 524.63,-1269.69"/>
<polygon fill="#8b4513" stroke="#8b4513" points="527.91,-1268.44 521.8,-1259.79 521.18,-1270.37 527.91,-1268.44"/>
</g>
<!-- libcap&#45;ng -->
<g id="node37" class="node">
<title>libcap&#45;ng</title>
<ellipse fill="green" stroke="green" cx="669" cy="-1170" rx="44.39" ry="18"/>
<text text-anchor="middle" x="669" y="-1166.3" font-family="Times,serif" font-size="14.00">libcap&#45;ng</text>
</g>
<!-- audit&#45;&gt;libcap&#45;ng -->
<g id="edge62" class="edge">
<title>audit&#45;&gt;libcap&#45;ng</title>
<path fill="none" stroke="#8b4513" d="M550.88,-1298.07C573.85,-1273.36 619.94,-1223.78 647.26,-1194.39"/>
<polygon fill="#8b4513" stroke="#8b4513" points="649.86,-1196.73 654.1,-1187.02 644.73,-1191.97 649.86,-1196.73"/>
</g>
<!-- e2fsprogs -->
<g id="node27" class="node">
<title>e2fsprogs</title>
<ellipse fill="green" stroke="green" cx="410" cy="-1098" rx="44.69" ry="18"/>
<text text-anchor="middle" x="410" y="-1094.3" font-family="Times,serif" font-size="14.00">e2fsprogs</text>
</g>
<!-- krb5&#45;&gt;e2fsprogs -->
<g id="edge39" class="edge">
<title>krb5&#45;&gt;e2fsprogs</title>
<path fill="none" stroke="#8b4513" d="M502.14,-1226.29C492.04,-1215.98 478.63,-1201.64 468,-1188 452,-1167.46 436.01,-1142.52 424.89,-1124.27"/>
<polygon fill="#8b4513" stroke="#8b4513" points="427.85,-1122.4 419.69,-1115.64 421.85,-1126.01 427.85,-1122.4"/>
</g>
<!-- libldap -->
<g id="node29" class="node">
<title>libldap</title>
<ellipse fill="green" stroke="green" cx="512" cy="-1170" rx="35.19" ry="18"/>
<text text-anchor="middle" x="512" y="-1166.3" font-family="Times,serif" font-size="14.00">libldap</text>
</g>
<!-- krb5&#45;&gt;libldap -->
<g id="edge43" class="edge">
<title>krb5&#45;&gt;libldap</title>
<path fill="none" stroke="#8b4513" d="M515.76,-1223.7C515.21,-1215.98 514.55,-1206.71 513.94,-1198.11"/>
<polygon fill="#8b4513" stroke="#8b4513" points="517.43,-1197.83 513.22,-1188.1 510.44,-1198.33 517.43,-1197.83"/>
</g>
<!-- keyutils -->
<g id="node36" class="node">
<title>keyutils</title>
<ellipse fill="green" stroke="green" cx="581" cy="-810" rx="38.19" ry="18"/>
<text text-anchor="middle" x="581" y="-806.3" font-family="Times,serif" font-size="14.00">keyutils</text>
</g>
<!-- krb5&#45;&gt;keyutils -->
<g id="edge58" class="edge">
<title>krb5&#45;&gt;keyutils</title>
<path fill="none" stroke="#8b4513" d="M530.23,-1226.21C538.67,-1216.08 549.26,-1202 556,-1188 573.78,-1151.09 580,-1139.97 580,-1099 580,-1099 580,-1099 580,-953 580,-913 580.4,-866.65 580.7,-838.08"/>
<polygon fill="#8b4513" stroke="#8b4513" points="584.2,-838.09 580.8,-828.05 577.2,-838.01 584.2,-838.09"/>
</g>
<!-- e2fsprogs&#45;&gt;sh -->
<g id="edge40" class="edge">
<title>e2fsprogs&#45;&gt;sh</title>
<path fill="none" stroke="#8b4513" d="M384.56,-1082.94C370.05,-1073.68 352.68,-1060.27 342,-1044 319.58,-1009.84 319,-995.86 319,-955 319,-955 319,-955 319,-881 319,-830.84 360.11,-784.61 387.66,-759.26"/>
<polygon fill="#8b4513" stroke="#8b4513" points="390.24,-761.65 395.37,-752.38 385.58,-756.42 390.24,-761.65"/>
</g>
<!-- libutil&#45;linux -->
<g id="node28" class="node">
<title>libutil&#45;linux</title>
<ellipse fill="green" stroke="green" cx="404" cy="-1026" rx="52.79" ry="18"/>
<text text-anchor="middle" x="404" y="-1022.3" font-family="Times,serif" font-size="14.00">libutil&#45;linux</text>
</g>
<!-- e2fsprogs&#45;&gt;libutil&#45;linux -->
<g id="edge42" class="edge">
<title>e2fsprogs&#45;&gt;libutil&#45;linux</title>
<path fill="none" stroke="#8b4513" d="M408.52,-1079.7C407.86,-1071.98 407.06,-1062.71 406.32,-1054.11"/>
<polygon fill="#8b4513" stroke="#8b4513" points="409.81,-1053.77 405.47,-1044.1 402.83,-1054.37 409.81,-1053.77"/>
</g>
<!-- libldap&#45;&gt;e2fsprogs -->
<g id="edge57" class="edge">
<title>libldap&#45;&gt;e2fsprogs</title>
<path fill="none" stroke="#8b4513" d="M491.85,-1155.17C477.11,-1145.06 456.88,-1131.17 440.22,-1119.74"/>
<polygon fill="#8b4513" stroke="#8b4513" points="442.1,-1116.79 431.88,-1114.01 438.14,-1122.56 442.1,-1116.79"/>
</g>
<!-- libsasl -->
<g id="node30" class="node">
<title>libsasl</title>
<ellipse fill="green" stroke="green" cx="512" cy="-1098" rx="33.29" ry="18"/>
<text text-anchor="middle" x="512" y="-1094.3" font-family="Times,serif" font-size="14.00">libsasl</text>
</g>
<!-- libldap&#45;&gt;libsasl -->
<g id="edge44" class="edge">
<title>libldap&#45;&gt;libsasl</title>
<path fill="none" stroke="#8b4513" d="M512,-1151.7C512,-1143.98 512,-1134.71 512,-1126.11"/>
<polygon fill="#8b4513" stroke="#8b4513" points="515.5,-1126.1 512,-1116.1 508.5,-1126.1 515.5,-1126.1"/>
</g>
<!-- openssl -->
<g id="node31" class="node">
<title>openssl</title>
<ellipse fill="green" stroke="green" cx="512" cy="-1026" rx="37.09" ry="18"/>
<text text-anchor="middle" x="512" y="-1022.3" font-family="Times,serif" font-size="14.00">openssl</text>
</g>
<!-- libsasl&#45;&gt;openssl -->
<g id="edge45" class="edge">
<title>libsasl&#45;&gt;openssl</title>
<path fill="none" stroke="#8b4513" d="M512,-1079.7C512,-1071.98 512,-1062.71 512,-1054.11"/>
<polygon fill="#8b4513" stroke="#8b4513" points="515.5,-1054.1 512,-1044.1 508.5,-1054.1 515.5,-1054.1"/>
</g>
<!-- perl -->
<g id="node32" class="node">
<title>perl</title>
<ellipse fill="green" stroke="green" cx="450" cy="-954" rx="27" ry="18"/>
<text text-anchor="middle" x="450" y="-950.3" font-family="Times,serif" font-size="14.00">perl</text>
</g>
<!-- openssl&#45;&gt;perl -->
<g id="edge46" class="edge">
<title>openssl&#45;&gt;perl</title>
<path fill="none" stroke="#8b4513" d="M497.93,-1009.12C489.62,-999.73 478.96,-987.7 469.81,-977.36"/>
<polygon fill="#8b4513" stroke="#8b4513" points="472.42,-975.03 463.17,-969.86 467.18,-979.67 472.42,-975.03"/>
</g>
<!-- perl&#45;&gt;glibc -->
<g id="edge56" class="edge">
<title>perl&#45;&gt;glibc</title>
<path fill="none" stroke="#8b4513" d="M435.52,-938.49C385.64,-886.89 224,-705.59 224,-523 224,-523 224,-523 224,-305 224,-261.09 247.77,-214.67 264.61,-187.3"/>
<polygon fill="#8b4513" stroke="#8b4513" points="267.61,-189.1 270.01,-178.78 261.7,-185.35 267.61,-189.1"/>
</g>
<!-- gdbm&gt;=1.17 -->
<g id="node33" class="node">
<title>gdbm&gt;=1.17</title>
<ellipse fill="green" stroke="green" cx="493" cy="-882" rx="57.69" ry="18"/>
<text text-anchor="middle" x="493" y="-878.3" font-family="Times,serif" font-size="14.00">gdbm&gt;=1.17</text>
</g>
<!-- perl&#45;&gt;gdbm&gt;=1.17 -->
<g id="edge47" class="edge">
<title>perl&#45;&gt;gdbm&gt;=1.17</title>
<path fill="none" stroke="#8b4513" d="M459.76,-937.12C464.94,-928.68 471.44,-918.1 477.31,-908.55"/>
<polygon fill="#8b4513" stroke="#8b4513" points="480.43,-910.15 482.68,-899.8 474.47,-906.49 480.43,-910.15"/>
</g>
<!-- db -->
<g id="node35" class="node">
<title>db</title>
<ellipse fill="green" stroke="green" cx="412" cy="-810" rx="27" ry="18"/>
<text text-anchor="middle" x="412" y="-806.3" font-family="Times,serif" font-size="14.00">db</text>
</g>
<!-- perl&#45;&gt;db -->
<g id="edge52" class="edge">
<title>perl&#45;&gt;db</title>
<path fill="none" stroke="#8b4513" d="M441.25,-936.73C436.08,-926.47 429.82,-912.77 426,-900 419.92,-879.68 416.35,-855.91 414.34,-838.05"/>
<polygon fill="#8b4513" stroke="#8b4513" points="417.82,-837.62 413.31,-828.03 410.85,-838.34 417.82,-837.62"/>
</g>
<!-- gdbm -->
<g id="node34" class="node">
<title>gdbm</title>
<ellipse fill="green" stroke="green" cx="493" cy="-810" rx="31.4" ry="18"/>
<text text-anchor="middle" x="493" y="-806.3" font-family="Times,serif" font-size="14.00">gdbm</text>
</g>
<!-- gdbm&gt;=1.17&#45;&gt;gdbm -->
<g id="edge48" class="edge">
<title>gdbm&gt;=1.17&#45;&gt;gdbm</title>
<path fill="none" stroke="grey" d="M493,-863.7C493,-852.85 493,-838.92 493,-828.1"/>
</g>
<!-- gdbm&#45;&gt;glibc -->
<g id="edge49" class="edge">
<title>gdbm&#45;&gt;glibc</title>
<path fill="none" stroke="#8b4513" d="M517.6,-798.6C558.97,-779.26 638,-733.59 638,-667 638,-667 638,-667 638,-305 638,-252.98 607,-242.08 562,-216 484.56,-171.12 376.84,-163.17 319.89,-162.39"/>
<polygon fill="#8b4513" stroke="#8b4513" points="319.88,-158.89 309.86,-162.32 319.84,-165.89 319.88,-158.89"/>
</g>
<!-- gdbm&#45;&gt;sh -->
<g id="edge50" class="edge">
<title>gdbm&#45;&gt;sh</title>
<path fill="none" stroke="#8b4513" d="M476.22,-794.5C464.47,-784.35 448.62,-770.65 435.61,-759.4"/>
<polygon fill="#8b4513" stroke="#8b4513" points="437.79,-756.66 427.94,-752.77 433.21,-761.96 437.79,-756.66"/>
</g>
<!-- db&#45;&gt;sh -->
<g id="edge54" class="edge">
<title>db&#45;&gt;sh</title>
<path fill="none" stroke="#8b4513" d="M412,-791.7C412,-783.98 412,-774.71 412,-766.11"/>
<polygon fill="#8b4513" stroke="#8b4513" points="415.5,-766.1 412,-756.1 408.5,-766.1 415.5,-766.1"/>
</g>
<!-- db&#45;&gt;gcc&#45;libs -->
<g id="edge53" class="edge">
<title>db&#45;&gt;gcc&#45;libs</title>
<path fill="none" stroke="#8b4513" d="M433.2,-798.41C482.37,-773.16 600,-708.41 600,-667 600,-667 600,-667 600,-449 600,-400.54 562.33,-355.03 536,-329.14"/>
<polygon fill="#8b4513" stroke="#8b4513" points="538.23,-326.44 528.58,-322.07 533.4,-331.5 538.23,-326.44"/>
</g>
<!-- keyutils&#45;&gt;glibc -->
<g id="edge59" class="edge">
<title>keyutils&#45;&gt;glibc</title>
<path fill="none" stroke="#8b4513" d="M599.77,-794.19C627.45,-770.52 676,-721.28 676,-667 676,-667 676,-667 676,-305 676,-253.84 647.31,-241.57 603,-216 555.3,-188.47 394.3,-172.18 319.63,-165.94"/>
<polygon fill="#8b4513" stroke="#8b4513" points="319.52,-162.42 309.26,-165.1 318.95,-169.4 319.52,-162.42"/>
</g>
<!-- keyutils&#45;&gt;sh -->
<g id="edge60" class="edge">
<title>keyutils&#45;&gt;sh</title>
<path fill="none" stroke="#8b4513" d="M553.09,-797.44C523.06,-785 475.38,-765.25 443.89,-752.21"/>
<polygon fill="#8b4513" stroke="#8b4513" points="444.85,-748.82 434.28,-748.23 442.18,-755.29 444.85,-748.82"/>
</g>
<!-- libcap&#45;ng&#45;&gt;glibc -->
<g id="edge63" class="edge">
<title>libcap&#45;ng&#45;&gt;glibc</title>
<path fill="none" stroke="#8b4513" d="M678.11,-1152.06C691.26,-1125.98 714,-1074.07 714,-1027 714,-1027 714,-1027 714,-305 714,-254.4 686.88,-241.2 643,-216 588.44,-184.66 401.54,-170.09 319.8,-165.1"/>
<polygon fill="#8b4513" stroke="#8b4513" points="319.63,-161.58 309.44,-164.48 319.22,-168.57 319.63,-161.58"/>
</g>
<!-- libsystemd.so=0&#45;64&#45;&gt;systemd&#45;libs -->
<g id="edge65" class="edge">
<title>libsystemd.so=0&#45;64&#45;&gt;systemd&#45;libs</title>
<path fill="none" stroke="grey" d="M279.21,-1367.96C278.04,-1341.3 276,-1288.13 276,-1243 276,-1243 276,-1243 276,-1097 276,-1041.81 224.09,-994.03 193.27,-970.52"/>
</g>
<!-- libaudit.so=1&#45;64&#45;&gt;audit -->
<g id="edge67" class="edge">
<title>libaudit.so=1&#45;64&#45;&gt;audit</title>
<path fill="none" stroke="grey" d="M469.41,-1368.76C484.74,-1356.57 505.5,-1340.05 519.95,-1328.56"/>
</g>
</g>
</svg>
