<?xml version="1.0" encoding="UTF-8" standalone="no"?>
<!DOCTYPE svg PUBLIC "-//W3C//DTD SVG 1.1//EN"
 "http://www.w3.org/Graphics/SVG/1.1/DTD/svg11.dtd">
<!-- Generated by graphviz version 2.44.0 (0)
 -->
<!-- Title: G Pages: 1 -->
<svg width="1224pt" height="1700pt"
 viewBox="0.00 0.00 1224.00 1700.00" xmlns="http://www.w3.org/2000/svg" xmlns:xlink="http://www.w3.org/1999/xlink">
<g id="graph0" class="graph" transform="scale(1 1) rotate(0) translate(4 1696)">
<title>G</title>
<polygon fill="white" stroke="transparent" points="-4,4 -4,-1696 1220,-1696 1220,4 -4,4"/>
<!-- START -->
<g id="node1" class="node">
<title>START</title>
<ellipse fill="red" stroke="red" cx="742" cy="-1674" rx="38.19" ry="18"/>
<text text-anchor="middle" x="742" y="-1670.3" font-family="Times,serif" font-size="14.00">START</text>
</g>
<!-- fakeroot -->
<g id="node2" class="node">
<title>fakeroot</title>
<ellipse fill="green" stroke="green" cx="742" cy="-1602" rx="40.09" ry="18"/>
<text text-anchor="middle" x="742" y="-1598.3" font-family="Times,serif" font-size="14.00">fakeroot</text>
</g>
<!-- START&#45;&gt;fakeroot -->
<g id="edge1" class="edge">
<title>START&#45;&gt;fakeroot</title>
<path fill="none" stroke="black" d="M742,-1655.7C742,-1647.98 742,-1638.71 742,-1630.11"/>
<polygon fill="black" stroke="black" points="745.5,-1630.1 742,-1620.1 738.5,-1630.1 745.5,-1630.1"/>
</g>
<!-- glibc -->
<g id="node3" class="node">
<title>glibc</title>
<ellipse fill="green" stroke="green" cx="787" cy="-162" rx="28.7" ry="18"/>
<text text-anchor="middle" x="787" y="-158.3" font-family="Times,serif" font-size="14.00">glibc</text>
</g>
<!-- fakeroot&#45;&gt;glibc -->
<g id="edge2" class="edge">
<title>fakeroot&#45;&gt;glibc</title>
<path fill="none" stroke="#8b4513" d="M780.69,-1596.81C887.4,-1584.19 1178,-1542.19 1178,-1459 1178,-1459 1178,-1459 1178,-305 1178,-251.52 1143.91,-241.68 1097,-216 1050.67,-190.64 897.29,-173.34 825.14,-166.4"/>
<polygon fill="#8b4513" stroke="#8b4513" points="825.39,-162.91 815.11,-165.45 824.74,-169.88 825.39,-162.91"/>
</g>
<!-- filesystem -->
<g id="node7" class="node">
<title>filesystem</title>
<ellipse fill="green" stroke="green" cx="1129" cy="-90" rx="46.59" ry="18"/>
<text text-anchor="middle" x="1129" y="-86.3" font-family="Times,serif" font-size="14.00">filesystem</text>
</g>
<!-- fakeroot&#45;&gt;filesystem -->
<g id="edge8" class="edge">
<title>fakeroot&#45;&gt;filesystem</title>
<path fill="none" stroke="#8b4513" d="M782.41,-1601.81C851.32,-1601.74 994.7,-1595.3 1104,-1548 1162.35,-1522.75 1216,-1522.58 1216,-1459 1216,-1459 1216,-1459 1216,-233 1216,-185.37 1179.97,-140.24 1154.29,-114.11"/>
<polygon fill="#8b4513" stroke="#8b4513" points="1156.6,-111.48 1147.03,-106.95 1151.69,-116.46 1156.6,-111.48"/>
</g>
<!-- sed -->
<g id="node9" class="node">
<title>sed</title>
<ellipse fill="green" stroke="green" cx="66" cy="-1098" rx="27" ry="18"/>
<text text-anchor="middle" x="66" y="-1094.3" font-family="Times,serif" font-size="14.00">sed</text>
</g>
<!-- fakeroot&#45;&gt;sed -->
<g id="edge9" class="edge">
<title>fakeroot&#45;&gt;sed</title>
<path fill="none" stroke="#8b4513" d="M702.76,-1597.52C590.65,-1586.5 277,-1547.74 277,-1459 277,-1459 277,-1459 277,-1241 277,-1157.52 161.92,-1119.89 101.73,-1105.93"/>
<polygon fill="#8b4513" stroke="#8b4513" points="102.39,-1102.49 91.87,-1103.73 100.88,-1109.32 102.39,-1102.49"/>
</g>
<!-- util&#45;linux -->
<g id="node12" class="node">
<title>util&#45;linux</title>
<ellipse fill="green" stroke="green" cx="742" cy="-1530" rx="43.59" ry="18"/>
<text text-anchor="middle" x="742" y="-1526.3" font-family="Times,serif" font-size="14.00">util&#45;linux</text>
</g>
<!-- fakeroot&#45;&gt;util&#45;linux -->
<g id="edge15" class="edge">
<title>fakeroot&#45;&gt;util&#45;linux</title>
<path fill="none" stroke="#8b4513" d="M742,-1583.7C742,-1575.98 742,-1566.71 742,-1558.11"/>
<polygon fill="#8b4513" stroke="#8b4513" points="745.5,-1558.1 742,-1548.1 738.5,-1558.1 745.5,-1558.1"/>
</g>
<!-- sh -->
<g id="node19" class="node">
<title>sh</title>
<ellipse fill="green" stroke="green" cx="680" cy="-738" rx="27" ry="18"/>
<text text-anchor="middle" x="680" y="-734.3" font-family="Times,serif" font-size="14.00">sh</text>
</g>
<!-- fakeroot&#45;&gt;sh -->
<g id="edge96" class="edge">
<title>fakeroot&#45;&gt;sh</title>
<path fill="none" stroke="#8b4513" d="M708.62,-1591.68C656.08,-1574.73 560,-1533.54 560,-1459 560,-1459 560,-1459 560,-1313 560,-1182.24 629,-1157.76 629,-1027 629,-1027 629,-1027 629,-953 629,-912.55 636.88,-902.89 648,-864 652.68,-847.64 656.32,-844.36 661,-828 666.89,-807.4 671.87,-783.65 675.25,-765.86"/>
<polygon fill="#8b4513" stroke="#8b4513" points="678.72,-766.37 677.1,-755.9 671.84,-765.09 678.72,-766.37"/>
</g>
<!-- linux&#45;api&#45;headers&gt;=4.10 -->
<g id="node4" class="node">
<title>linux&#45;api&#45;headers&gt;=4.10</title>
<ellipse fill="green" stroke="green" cx="861" cy="-90" rx="98.28" ry="18"/>
<text text-anchor="middle" x="861" y="-86.3" font-family="Times,serif" font-size="14.00">linux&#45;api&#45;headers&gt;=4.10</text>
</g>
<!-- glibc&#45;&gt;linux&#45;api&#45;headers&gt;=4.10 -->
<g id="edge3" class="edge">
<title>glibc&#45;&gt;linux&#45;api&#45;headers&gt;=4.10</title>
<path fill="none" stroke="#8b4513" d="M802.33,-146.5C811.96,-137.39 824.62,-125.41 835.71,-114.92"/>
<polygon fill="#8b4513" stroke="#8b4513" points="838.22,-117.37 843.08,-107.95 833.41,-112.28 838.22,-117.37"/>
</g>
<!-- tzdata -->
<g id="node6" class="node">
<title>tzdata</title>
<ellipse fill="green" stroke="green" cx="713" cy="-90" rx="31.7" ry="18"/>
<text text-anchor="middle" x="713" y="-86.3" font-family="Times,serif" font-size="14.00">tzdata</text>
</g>
<!-- glibc&#45;&gt;tzdata -->
<g id="edge5" class="edge">
<title>glibc&#45;&gt;tzdata</title>
<path fill="none" stroke="#8b4513" d="M771.67,-146.5C761.32,-136.71 747.48,-123.61 735.84,-112.6"/>
<polygon fill="#8b4513" stroke="#8b4513" points="738.24,-110.06 728.57,-105.73 733.43,-115.14 738.24,-110.06"/>
</g>
<!-- glibc&#45;&gt;filesystem -->
<g id="edge6" class="edge">
<title>glibc&#45;&gt;filesystem</title>
<path fill="none" stroke="#8b4513" d="M813.84,-155.51C870.91,-143.83 1005.12,-116.36 1078.65,-101.31"/>
<polygon fill="#8b4513" stroke="#8b4513" points="1079.51,-104.7 1088.61,-99.27 1078.11,-97.84 1079.51,-104.7"/>
</g>
<!-- linux&#45;api&#45;headers -->
<g id="node5" class="node">
<title>linux&#45;api&#45;headers</title>
<ellipse fill="green" stroke="green" cx="861" cy="-18" rx="71.49" ry="18"/>
<text text-anchor="middle" x="861" y="-14.3" font-family="Times,serif" font-size="14.00">linux&#45;api&#45;headers</text>
</g>
<!-- linux&#45;api&#45;headers&gt;=4.10&#45;&gt;linux&#45;api&#45;headers -->
<g id="edge4" class="edge">
<title>linux&#45;api&#45;headers&gt;=4.10&#45;&gt;linux&#45;api&#45;headers</title>
<path fill="none" stroke="grey" d="M861,-71.7C861,-60.85 861,-46.92 861,-36.1"/>
</g>
<!-- iana&#45;etc -->
<g id="node8" class="node">
<title>iana&#45;etc</title>
<ellipse fill="green" stroke="green" cx="1129" cy="-18" rx="38.19" ry="18"/>
<text text-anchor="middle" x="1129" y="-14.3" font-family="Times,serif" font-size="14.00">iana&#45;etc</text>
</g>
<!-- filesystem&#45;&gt;iana&#45;etc -->
<g id="edge7" class="edge">
<title>filesystem&#45;&gt;iana&#45;etc</title>
<path fill="none" stroke="#8b4513" d="M1129,-71.7C1129,-63.98 1129,-54.71 1129,-46.11"/>
<polygon fill="#8b4513" stroke="#8b4513" points="1132.5,-46.1 1129,-36.1 1125.5,-46.1 1132.5,-46.1"/>
</g>
<!-- sed&#45;&gt;glibc -->
<g id="edge10" class="edge">
<title>sed&#45;&gt;glibc</title>
<path fill="none" stroke="#8b4513" d="M53.59,-1081.9C34.47,-1057.05 0,-1005.29 0,-955 0,-955 0,-955 0,-305 0,-233.13 67.06,-239.42 135,-216 249.5,-176.53 625.78,-166.04 748.16,-163.64"/>
<polygon fill="#8b4513" stroke="#8b4513" points="748.27,-167.14 758.2,-163.45 748.14,-160.14 748.27,-167.14"/>
</g>
<!-- acl -->
<g id="node10" class="node">
<title>acl</title>
<ellipse fill="green" stroke="green" cx="93" cy="-1026" rx="27" ry="18"/>
<text text-anchor="middle" x="93" y="-1022.3" font-family="Times,serif" font-size="14.00">acl</text>
</g>
<!-- sed&#45;&gt;acl -->
<g id="edge11" class="edge">
<title>sed&#45;&gt;acl</title>
<path fill="none" stroke="#8b4513" d="M72.4,-1080.41C75.51,-1072.34 79.33,-1062.43 82.83,-1053.35"/>
<polygon fill="#8b4513" stroke="#8b4513" points="86.13,-1054.55 86.46,-1043.96 79.6,-1052.03 86.13,-1054.55"/>
</g>
<!-- attr -->
<g id="node11" class="node">
<title>attr</title>
<ellipse fill="green" stroke="green" cx="126" cy="-810" rx="27" ry="18"/>
<text text-anchor="middle" x="126" y="-806.3" font-family="Times,serif" font-size="14.00">attr</text>
</g>
<!-- sed&#45;&gt;attr -->
<g id="edge14" class="edge">
<title>sed&#45;&gt;attr</title>
<path fill="none" stroke="#8b4513" d="M61.62,-1080.18C57.57,-1062.21 52.76,-1032.96 57,-1008 67.83,-944.32 97.03,-873.82 113.77,-836.86"/>
<polygon fill="#8b4513" stroke="#8b4513" points="117.14,-837.91 118.13,-827.36 110.78,-834.98 117.14,-837.91"/>
</g>
<!-- acl&#45;&gt;attr -->
<g id="edge12" class="edge">
<title>acl&#45;&gt;attr</title>
<path fill="none" stroke="#8b4513" d="M95.64,-1007.85C101.37,-970.74 114.94,-882.75 121.83,-838.05"/>
<polygon fill="#8b4513" stroke="#8b4513" points="125.32,-838.35 123.39,-827.94 118.41,-837.29 125.32,-838.35"/>
</g>
<!-- attr&#45;&gt;glibc -->
<g id="edge13" class="edge">
<title>attr&#45;&gt;glibc</title>
<path fill="none" stroke="#8b4513" d="M127.58,-791.97C129.91,-765.33 134,-712.19 134,-667 134,-667 134,-667 134,-305 134,-262.81 133.43,-241.55 167,-216 213.25,-180.8 619.87,-167.33 748.3,-163.93"/>
<polygon fill="#8b4513" stroke="#8b4513" points="748.55,-167.42 758.46,-163.66 748.37,-160.42 748.55,-167.42"/>
</g>
<!-- pam -->
<g id="node13" class="node">
<title>pam</title>
<ellipse fill="green" stroke="green" cx="963" cy="-1386" rx="27" ry="18"/>
<text text-anchor="middle" x="963" y="-1382.3" font-family="Times,serif" font-size="14.00">pam</text>
</g>
<!-- util&#45;linux&#45;&gt;pam -->
<g id="edge16" class="edge">
<title>util&#45;linux&#45;&gt;pam</title>
<path fill="none" stroke="#8b4513" d="M773.42,-1517.18C797.22,-1507.6 830.27,-1492.95 857,-1476 888.49,-1456.03 920.75,-1427.57 941.28,-1408.25"/>
<polygon fill="#8b4513" stroke="#8b4513" points="943.72,-1410.76 948.55,-1401.33 938.89,-1405.69 943.72,-1410.76"/>
</g>
<!-- libutil&#45;linux -->
<g id="node27" class="node">
<title>libutil&#45;linux</title>
<ellipse fill="green" stroke="green" cx="869" cy="-1026" rx="52.79" ry="18"/>
<text text-anchor="middle" x="869" y="-1022.3" font-family="Times,serif" font-size="14.00">libutil&#45;linux</text>
</g>
<!-- util&#45;linux&#45;&gt;libutil&#45;linux -->
<g id="edge95" class="edge">
<title>util&#45;linux&#45;&gt;libutil&#45;linux</title>
<path fill="none" stroke="#8b4513" d="M739.48,-1511.62C735.5,-1482.12 728.46,-1420.33 731,-1368 734.17,-1302.7 731.02,-1282.1 761,-1224 788.51,-1170.68 814.88,-1169.52 842,-1116 852.01,-1096.25 859.04,-1072.13 863.41,-1053.99"/>
<polygon fill="#8b4513" stroke="#8b4513" points="866.86,-1054.6 865.68,-1044.07 860.04,-1053.04 866.86,-1054.6"/>
</g>
<!-- shadow -->
<g id="node37" class="node">
<title>shadow</title>
<ellipse fill="green" stroke="green" cx="810" cy="-1458" rx="37.89" ry="18"/>
<text text-anchor="middle" x="810" y="-1454.3" font-family="Times,serif" font-size="14.00">shadow</text>
</g>
<!-- util&#45;linux&#45;&gt;shadow -->
<g id="edge60" class="edge">
<title>util&#45;linux&#45;&gt;shadow</title>
<path fill="none" stroke="#8b4513" d="M757.43,-1513.12C766.3,-1503.99 777.6,-1492.36 787.45,-1482.22"/>
<polygon fill="#8b4513" stroke="#8b4513" points="790.17,-1484.43 794.63,-1474.82 785.15,-1479.56 790.17,-1484.43"/>
</g>
<!-- libcap&#45;ng -->
<g id="node39" class="node">
<title>libcap&#45;ng</title>
<ellipse fill="green" stroke="green" cx="1068" cy="-1242" rx="44.39" ry="18"/>
<text text-anchor="middle" x="1068" y="-1238.3" font-family="Times,serif" font-size="14.00">libcap&#45;ng</text>
</g>
<!-- util&#45;linux&#45;&gt;libcap&#45;ng -->
<g id="edge94" class="edge">
<title>util&#45;linux&#45;&gt;libcap&#45;ng</title>
<path fill="none" stroke="#8b4513" d="M779.1,-1520.21C834.25,-1505.33 937.89,-1470.14 999,-1404 1034.91,-1365.14 1053.88,-1304.72 1062.35,-1270.01"/>
<polygon fill="#8b4513" stroke="#8b4513" points="1065.79,-1270.65 1064.65,-1260.12 1058.98,-1269.06 1065.79,-1270.65"/>
</g>
<!-- coreutils -->
<g id="node41" class="node">
<title>coreutils</title>
<ellipse fill="green" stroke="green" cx="522" cy="-1098" rx="40.89" ry="18"/>
<text text-anchor="middle" x="522" y="-1094.3" font-family="Times,serif" font-size="14.00">coreutils</text>
</g>
<!-- util&#45;linux&#45;&gt;coreutils -->
<g id="edge69" class="edge">
<title>util&#45;linux&#45;&gt;coreutils</title>
<path fill="none" stroke="#8b4513" d="M702.67,-1522.14C639.39,-1508.59 522,-1472.01 522,-1387 522,-1387 522,-1387 522,-1241 522,-1201 522,-1154.65 522,-1126.08"/>
<polygon fill="#8b4513" stroke="#8b4513" points="525.5,-1126.05 522,-1116.05 518.5,-1126.05 525.5,-1126.05"/>
</g>
<!-- systemd&#45;libs -->
<g id="node44" class="node">
<title>systemd&#45;libs</title>
<ellipse fill="green" stroke="green" cx="374" cy="-954" rx="55.79" ry="18"/>
<text text-anchor="middle" x="374" y="-950.3" font-family="Times,serif" font-size="14.00">systemd&#45;libs</text>
</g>
<!-- util&#45;linux&#45;&gt;systemd&#45;libs -->
<g id="edge81" class="edge">
<title>util&#45;linux&#45;&gt;systemd&#45;libs</title>
<path fill="none" stroke="#8b4513" d="M720.55,-1514.3C689.58,-1491.14 636,-1442.99 636,-1387 636,-1387 636,-1387 636,-1241 636,-1164 621.19,-1139.24 572,-1080 529.9,-1029.3 461.72,-992.69 417.38,-972.65"/>
<polygon fill="#8b4513" stroke="#8b4513" points="418.58,-969.36 408.02,-968.51 415.75,-975.76 418.58,-969.36"/>
</g>
<!-- pam&#45;&gt;glibc -->
<g id="edge17" class="edge">
<title>pam&#45;&gt;glibc</title>
<path fill="none" stroke="#8b4513" d="M984,-1374.62C1018.45,-1356.43 1086.58,-1315.41 1121,-1260 1142.34,-1225.64 1140,-1211.45 1140,-1171 1140,-1171 1140,-1171 1140,-305 1140,-249.06 1100.31,-242.41 1051,-216 977.98,-176.89 879.57,-166.53 825.9,-163.86"/>
<polygon fill="#8b4513" stroke="#8b4513" points="825.92,-160.35 815.78,-163.42 825.62,-167.35 825.92,-160.35"/>
</g>
<!-- cracklib -->
<g id="node14" class="node">
<title>cracklib</title>
<ellipse fill="green" stroke="green" cx="962" cy="-306" rx="39.79" ry="18"/>
<text text-anchor="middle" x="962" y="-302.3" font-family="Times,serif" font-size="14.00">cracklib</text>
</g>
<!-- pam&#45;&gt;cracklib -->
<g id="edge18" class="edge">
<title>pam&#45;&gt;cracklib</title>
<path fill="none" stroke="#8b4513" d="M979.24,-1371.04C989.32,-1361.27 1001.39,-1347.27 1007,-1332 1018.37,-1301.08 1014,-771.95 1014,-739 1014,-739 1014,-739 1014,-593 1014,-496.18 984.79,-383.85 970.16,-333.63"/>
<polygon fill="#8b4513" stroke="#8b4513" points="973.47,-332.48 967.27,-323.89 966.76,-334.47 973.47,-332.48"/>
</g>
<!-- libtirpc -->
<g id="node16" class="node">
<title>libtirpc</title>
<ellipse fill="green" stroke="green" cx="859" cy="-1314" rx="36.29" ry="18"/>
<text text-anchor="middle" x="859" y="-1310.3" font-family="Times,serif" font-size="14.00">libtirpc</text>
</g>
<!-- pam&#45;&gt;libtirpc -->
<g id="edge22" class="edge">
<title>pam&#45;&gt;libtirpc</title>
<path fill="none" stroke="#8b4513" d="M944.41,-1372.49C928.84,-1362.01 906.35,-1346.87 888.36,-1334.76"/>
<polygon fill="#8b4513" stroke="#8b4513" points="890.18,-1331.77 879.93,-1329.09 886.28,-1337.58 890.18,-1331.77"/>
</g>
<!-- pambase -->
<g id="node36" class="node">
<title>pambase</title>
<ellipse fill="green" stroke="green" cx="956" cy="-1314" rx="42.49" ry="18"/>
<text text-anchor="middle" x="956" y="-1310.3" font-family="Times,serif" font-size="14.00">pambase</text>
</g>
<!-- pam&#45;&gt;pambase -->
<g id="edge59" class="edge">
<title>pam&#45;&gt;pambase</title>
<path fill="none" stroke="#8b4513" d="M961.27,-1367.7C960.5,-1359.98 959.57,-1350.71 958.71,-1342.11"/>
<polygon fill="#8b4513" stroke="#8b4513" points="962.19,-1341.71 957.71,-1332.1 955.22,-1342.4 962.19,-1341.71"/>
</g>
<!-- cracklib&#45;&gt;glibc -->
<g id="edge19" class="edge">
<title>cracklib&#45;&gt;glibc</title>
<path fill="none" stroke="#8b4513" d="M970.59,-288.08C979.1,-268.68 988.76,-236.88 973,-216 955.15,-192.36 873.54,-176.13 824.55,-168.32"/>
<polygon fill="#8b4513" stroke="#8b4513" points="825.04,-164.86 814.62,-166.79 823.97,-171.78 825.04,-164.86"/>
</g>
<!-- zlib -->
<g id="node15" class="node">
<title>zlib</title>
<ellipse fill="green" stroke="green" cx="937" cy="-234" rx="27" ry="18"/>
<text text-anchor="middle" x="937" y="-230.3" font-family="Times,serif" font-size="14.00">zlib</text>
</g>
<!-- cracklib&#45;&gt;zlib -->
<g id="edge20" class="edge">
<title>cracklib&#45;&gt;zlib</title>
<path fill="none" stroke="#8b4513" d="M955.95,-288.05C953.09,-280.06 949.62,-270.33 946.43,-261.4"/>
<polygon fill="#8b4513" stroke="#8b4513" points="949.66,-260.03 943,-251.79 943.06,-262.38 949.66,-260.03"/>
</g>
<!-- zlib&#45;&gt;glibc -->
<g id="edge21" class="edge">
<title>zlib&#45;&gt;glibc</title>
<path fill="none" stroke="#8b4513" d="M915.51,-222.97C890.18,-211.15 847.87,-191.4 818.75,-177.82"/>
<polygon fill="#8b4513" stroke="#8b4513" points="819.97,-174.53 809.43,-173.47 817.01,-180.87 819.97,-174.53"/>
</g>
<!-- krb5 -->
<g id="node17" class="node">
<title>krb5</title>
<ellipse fill="green" stroke="green" cx="797" cy="-1242" rx="27.1" ry="18"/>
<text text-anchor="middle" x="797" y="-1238.3" font-family="Times,serif" font-size="14.00">krb5</text>
</g>
<!-- libtirpc&#45;&gt;krb5 -->
<g id="edge23" class="edge">
<title>libtirpc&#45;&gt;krb5</title>
<path fill="none" stroke="#8b4513" d="M844.93,-1297.12C836.62,-1287.73 825.96,-1275.7 816.81,-1265.36"/>
<polygon fill="#8b4513" stroke="#8b4513" points="819.42,-1263.03 810.17,-1257.86 814.18,-1267.67 819.42,-1263.03"/>
</g>
<!-- e2fsprogs -->
<g id="node18" class="node">
<title>e2fsprogs</title>
<ellipse fill="green" stroke="green" cx="788" cy="-1098" rx="44.69" ry="18"/>
<text text-anchor="middle" x="788" y="-1094.3" font-family="Times,serif" font-size="14.00">e2fsprogs</text>
</g>
<!-- krb5&#45;&gt;e2fsprogs -->
<g id="edge24" class="edge">
<title>krb5&#45;&gt;e2fsprogs</title>
<path fill="none" stroke="#8b4513" d="M795.91,-1223.87C794.38,-1199.67 791.56,-1155.21 789.74,-1126.39"/>
<polygon fill="#8b4513" stroke="#8b4513" points="793.22,-1125.95 789.09,-1116.19 786.23,-1126.39 793.22,-1125.95"/>
</g>
<!-- libldap -->
<g id="node28" class="node">
<title>libldap</title>
<ellipse fill="green" stroke="green" cx="734" cy="-1170" rx="35.19" ry="18"/>
<text text-anchor="middle" x="734" y="-1166.3" font-family="Times,serif" font-size="14.00">libldap</text>
</g>
<!-- krb5&#45;&gt;libldap -->
<g id="edge40" class="edge">
<title>krb5&#45;&gt;libldap</title>
<path fill="none" stroke="#8b4513" d="M783.64,-1226.15C775.35,-1216.94 764.52,-1204.91 755.09,-1194.43"/>
<polygon fill="#8b4513" stroke="#8b4513" points="757.51,-1191.89 748.22,-1186.8 752.31,-1196.57 757.51,-1191.89"/>
</g>
<!-- keyutils -->
<g id="node35" class="node">
<title>keyutils</title>
<ellipse fill="green" stroke="green" cx="948" cy="-810" rx="38.19" ry="18"/>
<text text-anchor="middle" x="948" y="-806.3" font-family="Times,serif" font-size="14.00">keyutils</text>
</g>
<!-- krb5&#45;&gt;keyutils -->
<g id="edge55" class="edge">
<title>krb5&#45;&gt;keyutils</title>
<path fill="none" stroke="#8b4513" d="M820.24,-1232.14C863.04,-1214.13 950,-1168.94 950,-1099 950,-1099 950,-1099 950,-953 950,-912.99 949.2,-866.65 948.61,-838.08"/>
<polygon fill="#8b4513" stroke="#8b4513" points="952.11,-837.97 948.4,-828.05 945.11,-838.12 952.11,-837.97"/>
</g>
<!-- e2fsprogs&#45;&gt;sh -->
<g id="edge25" class="edge">
<title>e2fsprogs&#45;&gt;sh</title>
<path fill="none" stroke="#8b4513" d="M791.2,-1079.92C797.85,-1040.41 810.28,-940.26 782,-864 766.1,-821.11 728.97,-782.07 704.17,-759.42"/>
<polygon fill="#8b4513" stroke="#8b4513" points="706.39,-756.71 696.6,-752.66 701.73,-761.93 706.39,-756.71"/>
</g>
<!-- e2fsprogs&#45;&gt;libutil&#45;linux -->
<g id="edge39" class="edge">
<title>e2fsprogs&#45;&gt;libutil&#45;linux</title>
<path fill="none" stroke="#8b4513" d="M805.98,-1081.46C816.83,-1072.08 830.86,-1059.96 842.92,-1049.54"/>
<polygon fill="#8b4513" stroke="#8b4513" points="845.23,-1052.16 850.51,-1042.98 840.66,-1046.87 845.23,-1052.16"/>
</g>
<!-- bash -->
<g id="node20" class="node">
<title>bash</title>
<ellipse fill="green" stroke="green" cx="680" cy="-666" rx="27" ry="18"/>
<text text-anchor="middle" x="680" y="-662.3" font-family="Times,serif" font-size="14.00">bash</text>
</g>
<!-- sh&#45;&gt;bash -->
<g id="edge26" class="edge">
<title>sh&#45;&gt;bash</title>
<path fill="none" stroke="grey" d="M654.08,-731.97C625.61,-719.05 625.64,-684.85 654.18,-671.99"/>
</g>
<!-- sh&#45;&gt;bash -->
<g id="edge48" class="edge">
<title>sh&#45;&gt;bash</title>
<path fill="none" stroke="grey" d="M656.93,-728.42C642.72,-714.98 642.69,-689.13 656.85,-675.65"/>
</g>
<!-- sh&#45;&gt;bash -->
<g id="edge52" class="edge">
<title>sh&#45;&gt;bash</title>
<path fill="none" stroke="grey" d="M663.63,-723.5C658.45,-711.11 658.46,-692.84 663.64,-680.46"/>
</g>
<!-- sh&#45;&gt;bash -->
<g id="edge58" class="edge">
<title>sh&#45;&gt;bash</title>
<path fill="none" stroke="grey" d="M674.16,-720.41C672.96,-709.41 672.95,-695.03 674.12,-683.96"/>
</g>
<!-- sh&#45;&gt;bash -->
<g id="edge76" class="edge">
<title>sh&#45;&gt;bash</title>
<path fill="none" stroke="grey" d="M685.84,-720.41C687.04,-709.41 687.05,-695.03 685.88,-683.96"/>
</g>
<!-- sh&#45;&gt;bash -->
<g id="edge88" class="edge">
<title>sh&#45;&gt;bash</title>
<path fill="none" stroke="grey" d="M696.37,-723.5C701.55,-711.11 701.54,-692.84 696.36,-680.46"/>
</g>
<!-- sh&#45;&gt;bash -->
<g id="edge93" class="edge">
<title>sh&#45;&gt;bash</title>
<path fill="none" stroke="grey" d="M703.07,-728.42C717.28,-714.98 717.31,-689.13 703.15,-675.65"/>
</g>
<!-- sh&#45;&gt;bash -->
<g id="edge97" class="edge">
<title>sh&#45;&gt;bash</title>
<path fill="none" stroke="grey" d="M705.92,-731.97C734.39,-719.05 734.36,-684.85 705.82,-671.99"/>
</g>
<!-- bash&#45;&gt;glibc -->
<g id="edge37" class="edge">
<title>bash&#45;&gt;glibc</title>
<path fill="none" stroke="#8b4513" d="M702.65,-655.89C721.95,-647.13 749.31,-632.24 767,-612 795.42,-579.48 806,-566.19 806,-523 806,-523 806,-523 806,-305 806,-264.64 798.37,-218.39 792.78,-189.94"/>
<polygon fill="#8b4513" stroke="#8b4513" points="796.17,-189.06 790.75,-179.95 789.31,-190.45 796.17,-189.06"/>
</g>
<!-- readline&gt;=7.0 -->
<g id="node21" class="node">
<title>readline&gt;=7.0</title>
<ellipse fill="green" stroke="green" cx="697" cy="-594" rx="61.19" ry="18"/>
<text text-anchor="middle" x="697" y="-590.3" font-family="Times,serif" font-size="14.00">readline&gt;=7.0</text>
</g>
<!-- bash&#45;&gt;readline&gt;=7.0 -->
<g id="edge27" class="edge">
<title>bash&#45;&gt;readline&gt;=7.0</title>
<path fill="none" stroke="#8b4513" d="M684.12,-648.05C686.01,-640.26 688.3,-630.82 690.42,-622.08"/>
<polygon fill="#8b4513" stroke="#8b4513" points="693.85,-622.82 692.8,-612.28 687.04,-621.17 693.85,-622.82"/>
</g>
<!-- ncurses -->
<g id="node23" class="node">
<title>ncurses</title>
<ellipse fill="green" stroke="green" cx="618" cy="-378" rx="37.09" ry="18"/>
<text text-anchor="middle" x="618" y="-374.3" font-family="Times,serif" font-size="14.00">ncurses</text>
</g>
<!-- bash&#45;&gt;ncurses -->
<g id="edge38" class="edge">
<title>bash&#45;&gt;ncurses</title>
<path fill="none" stroke="#8b4513" d="M663.5,-651.67C629.17,-622.68 551.07,-549.9 525,-468 520.15,-452.75 516.96,-445.83 525,-432 536.31,-412.53 557.75,-399.62 577.2,-391.42"/>
<polygon fill="#8b4513" stroke="#8b4513" points="578.5,-394.67 586.53,-387.76 575.94,-388.15 578.5,-394.67"/>
</g>
<!-- readline -->
<g id="node22" class="node">
<title>readline</title>
<ellipse fill="green" stroke="green" cx="714" cy="-522" rx="38.99" ry="18"/>
<text text-anchor="middle" x="714" y="-518.3" font-family="Times,serif" font-size="14.00">readline</text>
</g>
<!-- readline&gt;=7.0&#45;&gt;readline -->
<g id="edge28" class="edge">
<title>readline&gt;=7.0&#45;&gt;readline</title>
<path fill="none" stroke="grey" d="M701.2,-575.7C703.84,-564.85 707.22,-550.92 709.85,-540.1"/>
</g>
<!-- readline&#45;&gt;glibc -->
<g id="edge29" class="edge">
<title>readline&#45;&gt;glibc</title>
<path fill="none" stroke="#8b4513" d="M724.93,-504.3C740.71,-478.52 768,-427 768,-379 768,-379 768,-379 768,-305 768,-264.64 775.63,-218.39 781.22,-189.94"/>
<polygon fill="#8b4513" stroke="#8b4513" points="784.69,-190.45 783.25,-179.95 777.83,-189.06 784.69,-190.45"/>
</g>
<!-- readline&#45;&gt;ncurses -->
<g id="edge30" class="edge">
<title>readline&#45;&gt;ncurses</title>
<path fill="none" stroke="#8b4513" d="M718.07,-503.88C721.59,-484.87 724.27,-453.97 711,-432 699.41,-412.81 678.1,-399.94 658.8,-391.69"/>
<polygon fill="#8b4513" stroke="#8b4513" points="659.83,-388.33 649.24,-387.9 657.24,-394.84 659.83,-388.33"/>
</g>
<!-- libncursesw.so=6&#45;64 -->
<g id="node26" class="node">
<title>libncursesw.so=6&#45;64</title>
<ellipse fill="green" stroke="green" cx="618" cy="-450" rx="83.69" ry="18"/>
<text text-anchor="middle" x="618" y="-446.3" font-family="Times,serif" font-size="14.00">libncursesw.so=6&#45;64</text>
</g>
<!-- readline&#45;&gt;libncursesw.so=6&#45;64 -->
<g id="edge35" class="edge">
<title>readline&#45;&gt;libncursesw.so=6&#45;64</title>
<path fill="none" stroke="#8b4513" d="M694.11,-506.5C681.07,-496.99 663.76,-484.37 648.94,-473.56"/>
<polygon fill="#8b4513" stroke="#8b4513" points="650.7,-470.51 640.56,-467.45 646.57,-476.17 650.7,-470.51"/>
</g>
<!-- ncurses&#45;&gt;glibc -->
<g id="edge31" class="edge">
<title>ncurses&#45;&gt;glibc</title>
<path fill="none" stroke="#8b4513" d="M630.7,-360.92C660.28,-323.46 733.86,-230.29 768.46,-186.48"/>
<polygon fill="#8b4513" stroke="#8b4513" points="771.39,-188.42 774.84,-178.4 765.89,-184.08 771.39,-188.42"/>
</g>
<!-- gcc&#45;libs -->
<g id="node24" class="node">
<title>gcc&#45;libs</title>
<ellipse fill="green" stroke="green" cx="500" cy="-306" rx="38.19" ry="18"/>
<text text-anchor="middle" x="500" y="-302.3" font-family="Times,serif" font-size="14.00">gcc&#45;libs</text>
</g>
<!-- ncurses&#45;&gt;gcc&#45;libs -->
<g id="edge32" class="edge">
<title>ncurses&#45;&gt;gcc&#45;libs</title>
<path fill="none" stroke="#8b4513" d="M595.53,-363.67C577.44,-352.94 551.79,-337.72 531.62,-325.76"/>
<polygon fill="#8b4513" stroke="#8b4513" points="533.18,-322.61 522.79,-320.52 529.61,-328.63 533.18,-322.61"/>
</g>
<!-- glibc&gt;=2.27 -->
<g id="node25" class="node">
<title>glibc&gt;=2.27</title>
<ellipse fill="green" stroke="green" cx="533" cy="-234" rx="54.69" ry="18"/>
<text text-anchor="middle" x="533" y="-230.3" font-family="Times,serif" font-size="14.00">glibc&gt;=2.27</text>
</g>
<!-- gcc&#45;libs&#45;&gt;glibc&gt;=2.27 -->
<g id="edge33" class="edge">
<title>gcc&#45;libs&#45;&gt;glibc&gt;=2.27</title>
<path fill="none" stroke="#8b4513" d="M507.99,-288.05C511.74,-280.09 516.31,-270.41 520.5,-261.51"/>
<polygon fill="#8b4513" stroke="#8b4513" points="523.76,-262.81 524.86,-252.28 517.43,-259.83 523.76,-262.81"/>
</g>
<!-- glibc&gt;=2.27&#45;&gt;glibc -->
<g id="edge34" class="edge">
<title>glibc&gt;=2.27&#45;&gt;glibc</title>
<path fill="none" stroke="grey" d="M573.53,-221.83C626.33,-207.28 717.11,-182.26 761.32,-170.08"/>
</g>
<!-- libncursesw.so=6&#45;64&#45;&gt;ncurses -->
<g id="edge36" class="edge">
<title>libncursesw.so=6&#45;64&#45;&gt;ncurses</title>
<path fill="none" stroke="grey" d="M618,-431.7C618,-420.85 618,-406.92 618,-396.1"/>
</g>
<!-- libldap&#45;&gt;e2fsprogs -->
<g id="edge54" class="edge">
<title>libldap&#45;&gt;e2fsprogs</title>
<path fill="none" stroke="#8b4513" d="M746.25,-1153.12C753.06,-1144.29 761.67,-1133.13 769.3,-1123.24"/>
<polygon fill="#8b4513" stroke="#8b4513" points="772.08,-1125.36 775.42,-1115.31 766.54,-1121.09 772.08,-1125.36"/>
</g>
<!-- libsasl -->
<g id="node29" class="node">
<title>libsasl</title>
<ellipse fill="green" stroke="green" cx="692" cy="-1098" rx="33.29" ry="18"/>
<text text-anchor="middle" x="692" y="-1094.3" font-family="Times,serif" font-size="14.00">libsasl</text>
</g>
<!-- libldap&#45;&gt;libsasl -->
<g id="edge41" class="edge">
<title>libldap&#45;&gt;libsasl</title>
<path fill="none" stroke="#8b4513" d="M724.05,-1152.41C718.97,-1143.95 712.7,-1133.49 707.05,-1124.08"/>
<polygon fill="#8b4513" stroke="#8b4513" points="710.03,-1122.24 701.88,-1115.47 704.03,-1125.85 710.03,-1122.24"/>
</g>
<!-- openssl -->
<g id="node30" class="node">
<title>openssl</title>
<ellipse fill="green" stroke="green" cx="694" cy="-1026" rx="37.09" ry="18"/>
<text text-anchor="middle" x="694" y="-1022.3" font-family="Times,serif" font-size="14.00">openssl</text>
</g>
<!-- libsasl&#45;&gt;openssl -->
<g id="edge42" class="edge">
<title>libsasl&#45;&gt;openssl</title>
<path fill="none" stroke="#8b4513" d="M692.49,-1079.7C692.71,-1071.98 692.98,-1062.71 693.23,-1054.11"/>
<polygon fill="#8b4513" stroke="#8b4513" points="696.72,-1054.2 693.51,-1044.1 689.73,-1054 696.72,-1054.2"/>
</g>
<!-- perl -->
<g id="node31" class="node">
<title>perl</title>
<ellipse fill="green" stroke="green" cx="705" cy="-954" rx="27" ry="18"/>
<text text-anchor="middle" x="705" y="-950.3" font-family="Times,serif" font-size="14.00">perl</text>
</g>
<!-- openssl&#45;&gt;perl -->
<g id="edge43" class="edge">
<title>openssl&#45;&gt;perl</title>
<path fill="none" stroke="#8b4513" d="M696.72,-1007.7C697.93,-999.98 699.39,-990.71 700.74,-982.11"/>
<polygon fill="#8b4513" stroke="#8b4513" points="704.22,-982.53 702.31,-972.1 697.3,-981.44 704.22,-982.53"/>
</g>
<!-- perl&#45;&gt;glibc -->
<g id="edge53" class="edge">
<title>perl&#45;&gt;glibc</title>
<path fill="none" stroke="#8b4513" d="M729.61,-945.98C778.25,-930.43 882,-888.22 882,-811 882,-811 882,-811 882,-305 882,-254.79 840.46,-208.89 812.31,-183.56"/>
<polygon fill="#8b4513" stroke="#8b4513" points="814.26,-180.61 804.42,-176.67 809.66,-185.88 814.26,-180.61"/>
</g>
<!-- gdbm&gt;=1.17 -->
<g id="node32" class="node">
<title>gdbm&gt;=1.17</title>
<ellipse fill="green" stroke="green" cx="715" cy="-882" rx="57.69" ry="18"/>
<text text-anchor="middle" x="715" y="-878.3" font-family="Times,serif" font-size="14.00">gdbm&gt;=1.17</text>
</g>
<!-- perl&#45;&gt;gdbm&gt;=1.17 -->
<g id="edge44" class="edge">
<title>perl&#45;&gt;gdbm&gt;=1.17</title>
<path fill="none" stroke="#8b4513" d="M707.42,-936.05C708.52,-928.35 709.85,-919.03 711.09,-910.36"/>
<polygon fill="#8b4513" stroke="#8b4513" points="714.58,-910.67 712.53,-900.28 707.65,-909.68 714.58,-910.67"/>
</g>
<!-- db -->
<g id="node34" class="node">
<title>db</title>
<ellipse fill="green" stroke="green" cx="625" cy="-810" rx="27" ry="18"/>
<text text-anchor="middle" x="625" y="-806.3" font-family="Times,serif" font-size="14.00">db</text>
</g>
<!-- perl&#45;&gt;db -->
<g id="edge49" class="edge">
<title>perl&#45;&gt;db</title>
<path fill="none" stroke="#8b4513" d="M686.73,-940.43C674.05,-930.78 657.75,-916.37 648,-900 636.73,-881.09 630.93,-856.72 627.97,-838.26"/>
<polygon fill="#8b4513" stroke="#8b4513" points="631.41,-837.58 626.54,-828.17 624.48,-838.56 631.41,-837.58"/>
</g>
<!-- gdbm -->
<g id="node33" class="node">
<title>gdbm</title>
<ellipse fill="green" stroke="green" cx="823" cy="-810" rx="31.4" ry="18"/>
<text text-anchor="middle" x="823" y="-806.3" font-family="Times,serif" font-size="14.00">gdbm</text>
</g>
<!-- gdbm&gt;=1.17&#45;&gt;gdbm -->
<g id="edge45" class="edge">
<title>gdbm&gt;=1.17&#45;&gt;gdbm</title>
<path fill="none" stroke="grey" d="M738.97,-865.46C758.23,-852.98 784.97,-835.65 803.08,-823.91"/>
</g>
<!-- gdbm&#45;&gt;glibc -->
<g id="edge46" class="edge">
<title>gdbm&#45;&gt;glibc</title>
<path fill="none" stroke="#8b4513" d="M827.15,-792.07C833.27,-765.57 844,-712.61 844,-667 844,-667 844,-667 844,-305 844,-261.09 820.23,-214.67 803.39,-187.3"/>
<polygon fill="#8b4513" stroke="#8b4513" points="806.3,-185.35 797.99,-178.78 800.39,-189.1 806.3,-185.35"/>
</g>
<!-- gdbm&#45;&gt;sh -->
<g id="edge47" class="edge">
<title>gdbm&#45;&gt;sh</title>
<path fill="none" stroke="#8b4513" d="M800.02,-797.75C775.7,-785.84 737.17,-766.99 710.36,-753.86"/>
<polygon fill="#8b4513" stroke="#8b4513" points="711.57,-750.56 701.05,-749.31 708.5,-756.85 711.57,-750.56"/>
</g>
<!-- db&#45;&gt;sh -->
<g id="edge51" class="edge">
<title>db&#45;&gt;sh</title>
<path fill="none" stroke="#8b4513" d="M636.93,-793.81C644.21,-784.55 653.66,-772.52 661.85,-762.09"/>
<polygon fill="#8b4513" stroke="#8b4513" points="664.66,-764.18 668.09,-754.16 659.16,-759.86 664.66,-764.18"/>
</g>
<!-- db&#45;&gt;gcc&#45;libs -->
<g id="edge50" class="edge">
<title>db&#45;&gt;gcc&#45;libs</title>
<path fill="none" stroke="#8b4513" d="M606.06,-797.07C564.3,-770.08 468,-703.84 468,-667 468,-667 468,-667 468,-449 468,-407.81 480.97,-361.51 490.4,-333.3"/>
<polygon fill="#8b4513" stroke="#8b4513" points="493.73,-334.37 493.68,-323.77 487.11,-332.09 493.73,-334.37"/>
</g>
<!-- keyutils&#45;&gt;glibc -->
<g id="edge56" class="edge">
<title>keyutils&#45;&gt;glibc</title>
<path fill="none" stroke="#8b4513" d="M953.53,-792.16C961.69,-765.79 976,-712.98 976,-667 976,-667 976,-667 976,-593 976,-494.91 1030,-477.09 1030,-379 1030,-379 1030,-379 1030,-305 1030,-261.81 1023.86,-244.02 991,-216 944.08,-176 870.55,-165.69 825.77,-163.32"/>
<polygon fill="#8b4513" stroke="#8b4513" points="825.72,-159.82 815.58,-162.89 825.42,-166.81 825.72,-159.82"/>
</g>
<!-- keyutils&#45;&gt;sh -->
<g id="edge57" class="edge">
<title>keyutils&#45;&gt;sh</title>
<path fill="none" stroke="#8b4513" d="M915.41,-800.49C864.53,-787.2 766.7,-761.65 714.61,-748.04"/>
<polygon fill="#8b4513" stroke="#8b4513" points="715.39,-744.63 704.83,-745.49 713.63,-751.4 715.39,-744.63"/>
</g>
<!-- shadow&#45;&gt;acl -->
<g id="edge62" class="edge">
<title>shadow&#45;&gt;acl</title>
<path fill="none" stroke="#8b4513" d="M787.36,-1443.42C681.79,-1380.11 238.14,-1114.04 121.3,-1043.97"/>
<polygon fill="#8b4513" stroke="#8b4513" points="122.92,-1040.86 112.54,-1038.72 119.32,-1046.86 122.92,-1040.86"/>
</g>
<!-- shadow&#45;&gt;pam -->
<g id="edge61" class="edge">
<title>shadow&#45;&gt;pam</title>
<path fill="none" stroke="#8b4513" d="M836.3,-1444.97C862.75,-1432.87 903.52,-1414.21 931.63,-1401.35"/>
<polygon fill="#8b4513" stroke="#8b4513" points="933.37,-1404.41 941,-1397.06 930.45,-1398.04 933.37,-1404.41"/>
</g>
<!-- audit -->
<g id="node38" class="node">
<title>audit</title>
<ellipse fill="green" stroke="green" cx="776" cy="-1314" rx="28.7" ry="18"/>
<text text-anchor="middle" x="776" y="-1310.3" font-family="Times,serif" font-size="14.00">audit</text>
</g>
<!-- shadow&#45;&gt;audit -->
<g id="edge63" class="edge">
<title>shadow&#45;&gt;audit</title>
<path fill="none" stroke="#8b4513" d="M838.83,-1446.05C856.79,-1437.54 878.43,-1423.82 889,-1404 896.53,-1389.88 897.58,-1381.5 889,-1368 887.8,-1366.11 840.84,-1344.47 807.84,-1329.44"/>
<polygon fill="#8b4513" stroke="#8b4513" points="809.09,-1326.16 798.54,-1325.2 806.19,-1332.53 809.09,-1326.16"/>
</g>
<!-- libaudit.so=1&#45;64 -->
<g id="node40" class="node">
<title>libaudit.so=1&#45;64</title>
<ellipse fill="green" stroke="green" cx="810" cy="-1386" rx="69.59" ry="18"/>
<text text-anchor="middle" x="810" y="-1382.3" font-family="Times,serif" font-size="14.00">libaudit.so=1&#45;64</text>
</g>
<!-- shadow&#45;&gt;libaudit.so=1&#45;64 -->
<g id="edge67" class="edge">
<title>shadow&#45;&gt;libaudit.so=1&#45;64</title>
<path fill="none" stroke="#8b4513" d="M810,-1439.7C810,-1431.98 810,-1422.71 810,-1414.11"/>
<polygon fill="#8b4513" stroke="#8b4513" points="813.5,-1414.1 810,-1404.1 806.5,-1414.1 813.5,-1414.1"/>
</g>
<!-- audit&#45;&gt;krb5 -->
<g id="edge64" class="edge">
<title>audit&#45;&gt;krb5</title>
<path fill="none" stroke="#8b4513" d="M781.08,-1296.05C783.48,-1288.06 786.4,-1278.33 789.08,-1269.4"/>
<polygon fill="#8b4513" stroke="#8b4513" points="792.44,-1270.37 791.96,-1259.79 785.74,-1268.36 792.44,-1270.37"/>
</g>
<!-- audit&#45;&gt;libcap&#45;ng -->
<g id="edge65" class="edge">
<title>audit&#45;&gt;libcap&#45;ng</title>
<path fill="none" stroke="#8b4513" d="M797.79,-1302.29C803.01,-1299.99 808.64,-1297.74 814,-1296 882.7,-1273.75 964.97,-1258.58 1016.86,-1250.35"/>
<polygon fill="#8b4513" stroke="#8b4513" points="1017.48,-1253.8 1026.83,-1248.8 1016.41,-1246.88 1017.48,-1253.8"/>
</g>
<!-- libcap&#45;ng&#45;&gt;glibc -->
<g id="edge66" class="edge">
<title>libcap&#45;ng&#45;&gt;glibc</title>
<path fill="none" stroke="#8b4513" d="M1068,-1223.95C1068,-1197.29 1068,-1144.11 1068,-1099 1068,-1099 1068,-1099 1068,-305 1068,-260.06 1055.78,-243.2 1020,-216 962.65,-172.41 875.9,-163.57 826.02,-162.39"/>
<polygon fill="#8b4513" stroke="#8b4513" points="826.01,-158.89 815.96,-162.25 825.91,-165.89 826.01,-158.89"/>
</g>
<!-- libaudit.so=1&#45;64&#45;&gt;audit -->
<g id="edge68" class="edge">
<title>libaudit.so=1&#45;64&#45;&gt;audit</title>
<path fill="none" stroke="grey" d="M801.77,-1368.05C796.35,-1356.89 789.28,-1342.34 783.92,-1331.31"/>
</g>
<!-- coreutils&#45;&gt;glibc -->
<g id="edge70" class="edge">
<title>coreutils&#45;&gt;glibc</title>
<path fill="none" stroke="#8b4513" d="M485.05,-1089.88C449.98,-1082.09 396.59,-1067.48 355,-1044 242.45,-980.46 181,-940.24 181,-811 181,-811 181,-811 181,-305 181,-257.3 200.01,-240.41 241,-216 326.72,-164.94 637.87,-161.96 748.02,-162.56"/>
<polygon fill="#8b4513" stroke="#8b4513" points="748.32,-166.06 758.34,-162.63 748.36,-159.06 748.32,-166.06"/>
</g>
<!-- coreutils&#45;&gt;acl -->
<g id="edge71" class="edge">
<title>coreutils&#45;&gt;acl</title>
<path fill="none" stroke="#8b4513" d="M490.86,-1086.24C483.14,-1083.88 474.83,-1081.62 467,-1080 321.22,-1049.88 278.22,-1080.88 134,-1044 130.61,-1043.13 127.14,-1042.04 123.71,-1040.83"/>
<polygon fill="#8b4513" stroke="#8b4513" points="124.9,-1037.53 114.31,-1037.18 122.37,-1044.06 124.9,-1037.53"/>
</g>
<!-- coreutils&#45;&gt;attr -->
<g id="edge72" class="edge">
<title>coreutils&#45;&gt;attr</title>
<path fill="none" stroke="#8b4513" d="M490.84,-1086.31C483.12,-1083.96 474.82,-1081.67 467,-1080 402.42,-1066.19 220.38,-1088.95 172,-1044 142.27,-1016.37 131.06,-893.44 127.47,-838.12"/>
<polygon fill="#8b4513" stroke="#8b4513" points="130.95,-837.78 126.85,-828.01 123.97,-838.21 130.95,-837.78"/>
</g>
<!-- coreutils&#45;&gt;openssl -->
<g id="edge80" class="edge">
<title>coreutils&#45;&gt;openssl</title>
<path fill="none" stroke="#8b4513" d="M551.18,-1085.13C580.36,-1073.25 625.35,-1054.94 657.02,-1042.05"/>
<polygon fill="#8b4513" stroke="#8b4513" points="658.45,-1045.25 666.39,-1038.24 655.81,-1038.76 658.45,-1045.25"/>
</g>
<!-- gmp -->
<g id="node42" class="node">
<title>gmp</title>
<ellipse fill="green" stroke="green" cx="553" cy="-810" rx="27" ry="18"/>
<text text-anchor="middle" x="553" y="-806.3" font-family="Times,serif" font-size="14.00">gmp</text>
</g>
<!-- coreutils&#45;&gt;gmp -->
<g id="edge73" class="edge">
<title>coreutils&#45;&gt;gmp</title>
<path fill="none" stroke="#8b4513" d="M523.85,-1079.97C529.02,-1032.19 543.72,-896.62 550.04,-838.27"/>
<polygon fill="#8b4513" stroke="#8b4513" points="553.53,-838.63 551.12,-828.31 546.57,-837.87 553.53,-838.63"/>
</g>
<!-- libcap -->
<g id="node43" class="node">
<title>libcap</title>
<ellipse fill="green" stroke="green" cx="241" cy="-882" rx="32.49" ry="18"/>
<text text-anchor="middle" x="241" y="-878.3" font-family="Times,serif" font-size="14.00">libcap</text>
</g>
<!-- coreutils&#45;&gt;libcap -->
<g id="edge77" class="edge">
<title>coreutils&#45;&gt;libcap</title>
<path fill="none" stroke="#8b4513" d="M493.9,-1084.83C450.9,-1065.31 367.59,-1023.86 309,-972 287.76,-953.2 268.64,-926.92 256.13,-907.79"/>
<polygon fill="#8b4513" stroke="#8b4513" points="259.03,-905.84 250.7,-899.3 253.14,-909.61 259.03,-905.84"/>
</g>
<!-- gmp&#45;&gt;sh -->
<g id="edge75" class="edge">
<title>gmp&#45;&gt;sh</title>
<path fill="none" stroke="#8b4513" d="M573.12,-797.91C593.99,-786.41 626.84,-768.3 650.61,-755.2"/>
<polygon fill="#8b4513" stroke="#8b4513" points="652.48,-758.16 659.55,-750.27 649.1,-752.03 652.48,-758.16"/>
</g>
<!-- gmp&#45;&gt;gcc&#45;libs -->
<g id="edge74" class="edge">
<title>gmp&#45;&gt;gcc&#45;libs</title>
<path fill="none" stroke="#8b4513" d="M528.58,-802.1C505.96,-794.47 473.04,-779.97 454,-756 428.52,-723.92 430,-707.97 430,-667 430,-667 430,-667 430,-449 430,-408.03 434.75,-396.17 454,-360 459.84,-349.02 468.34,-338.37 476.45,-329.53"/>
<polygon fill="#8b4513" stroke="#8b4513" points="479.01,-331.91 483.4,-322.27 473.96,-327.07 479.01,-331.91"/>
</g>
<!-- libcap&#45;&gt;glibc -->
<g id="edge78" class="edge">
<title>libcap&#45;&gt;glibc</title>
<path fill="none" stroke="#8b4513" d="M241.59,-863.95C242.47,-837.3 244,-784.12 244,-739 244,-739 244,-739 244,-305 244,-264.03 236.79,-242.54 268,-216 304.47,-185 634.62,-169.06 748.55,-164.44"/>
<polygon fill="#8b4513" stroke="#8b4513" points="748.72,-167.94 758.57,-164.04 748.44,-160.94 748.72,-167.94"/>
</g>
<!-- libcap&#45;&gt;attr -->
<g id="edge79" class="edge">
<title>libcap&#45;&gt;attr</title>
<path fill="none" stroke="#8b4513" d="M219.91,-868.16C201.46,-856.93 174.53,-840.54 154.23,-828.18"/>
<polygon fill="#8b4513" stroke="#8b4513" points="155.79,-825.03 145.43,-822.83 152.15,-831.01 155.79,-825.03"/>
</g>
<!-- systemd&#45;libs&#45;&gt;glibc -->
<g id="edge82" class="edge">
<title>systemd&#45;libs&#45;&gt;glibc</title>
<path fill="none" stroke="#8b4513" d="M364.5,-936.2C341,-893 282,-773.92 282,-667 282,-667 282,-667 282,-305 282,-256.02 304.74,-240.76 347,-216 414.68,-176.35 653.66,-166.24 748.14,-163.77"/>
<polygon fill="#8b4513" stroke="#8b4513" points="748.5,-167.26 758.41,-163.51 748.32,-160.26 748.5,-167.26"/>
</g>
<!-- systemd&#45;libs&#45;&gt;libcap -->
<g id="edge83" class="edge">
<title>systemd&#45;libs&#45;&gt;libcap</title>
<path fill="none" stroke="#8b4513" d="M346.12,-938.33C324.79,-927.1 295.35,-911.61 273.05,-899.87"/>
<polygon fill="#8b4513" stroke="#8b4513" points="274.46,-896.65 263.98,-895.09 271.2,-902.85 274.46,-896.65"/>
</g>
<!-- libgcrypt -->
<g id="node45" class="node">
<title>libgcrypt</title>
<ellipse fill="green" stroke="green" cx="410" cy="-882" rx="42.79" ry="18"/>
<text text-anchor="middle" x="410" y="-878.3" font-family="Times,serif" font-size="14.00">libgcrypt</text>
</g>
<!-- systemd&#45;libs&#45;&gt;libgcrypt -->
<g id="edge84" class="edge">
<title>systemd&#45;libs&#45;&gt;libgcrypt</title>
<path fill="none" stroke="#8b4513" d="M382.71,-936.05C386.92,-927.89 392.05,-917.91 396.72,-908.82"/>
<polygon fill="#8b4513" stroke="#8b4513" points="399.9,-910.28 401.37,-899.79 393.68,-907.08 399.9,-910.28"/>
</g>
<!-- lz4 -->
<g id="node47" class="node">
<title>lz4</title>
<ellipse fill="green" stroke="green" cx="337" cy="-738" rx="27" ry="18"/>
<text text-anchor="middle" x="337" y="-734.3" font-family="Times,serif" font-size="14.00">lz4</text>
</g>
<!-- systemd&#45;libs&#45;&gt;lz4 -->
<g id="edge89" class="edge">
<title>systemd&#45;libs&#45;&gt;lz4</title>
<path fill="none" stroke="#8b4513" d="M368.09,-936C364.71,-925.69 360.62,-912.22 358,-900 348.01,-853.45 342.06,-798.24 339.17,-766.06"/>
<polygon fill="#8b4513" stroke="#8b4513" points="342.65,-765.74 338.3,-756.08 335.68,-766.34 342.65,-765.74"/>
</g>
<!-- xz -->
<g id="node48" class="node">
<title>xz</title>
<ellipse fill="green" stroke="green" cx="498" cy="-882" rx="27" ry="18"/>
<text text-anchor="middle" x="498" y="-878.3" font-family="Times,serif" font-size="14.00">xz</text>
</g>
<!-- systemd&#45;libs&#45;&gt;xz -->
<g id="edge91" class="edge">
<title>systemd&#45;libs&#45;&gt;xz</title>
<path fill="none" stroke="#8b4513" d="M400.6,-937.98C420.72,-926.63 448.31,-911.05 469,-899.37"/>
<polygon fill="#8b4513" stroke="#8b4513" points="470.97,-902.28 477.96,-894.31 467.53,-896.18 470.97,-902.28"/>
</g>
<!-- libgpg&#45;error -->
<g id="node46" class="node">
<title>libgpg&#45;error</title>
<ellipse fill="green" stroke="green" cx="416" cy="-810" rx="53.89" ry="18"/>
<text text-anchor="middle" x="416" y="-806.3" font-family="Times,serif" font-size="14.00">libgpg&#45;error</text>
</g>
<!-- libgcrypt&#45;&gt;libgpg&#45;error -->
<g id="edge85" class="edge">
<title>libgcrypt&#45;&gt;libgpg&#45;error</title>
<path fill="none" stroke="#8b4513" d="M411.48,-863.7C412.14,-855.98 412.94,-846.71 413.68,-838.11"/>
<polygon fill="#8b4513" stroke="#8b4513" points="417.17,-838.37 414.53,-828.1 410.19,-837.77 417.17,-838.37"/>
</g>
<!-- libgpg&#45;error&#45;&gt;glibc -->
<g id="edge86" class="edge">
<title>libgpg&#45;error&#45;&gt;glibc</title>
<path fill="none" stroke="#8b4513" d="M411.14,-791.67C404.13,-765.08 392,-712.5 392,-667 392,-667 392,-667 392,-305 392,-252.7 423.39,-241.6 469,-216 516.34,-189.44 674.49,-172.7 748.36,-166.15"/>
<polygon fill="#8b4513" stroke="#8b4513" points="748.97,-169.61 758.63,-165.26 748.36,-162.64 748.97,-169.61"/>
</g>
<!-- libgpg&#45;error&#45;&gt;sh -->
<g id="edge87" class="edge">
<title>libgpg&#45;error&#45;&gt;sh</title>
<path fill="none" stroke="#8b4513" d="M456.96,-798.14C508.75,-784.41 596.98,-761.01 645.5,-748.15"/>
<polygon fill="#8b4513" stroke="#8b4513" points="646.45,-751.52 655.22,-745.57 644.66,-744.75 646.45,-751.52"/>
</g>
<!-- lz4&#45;&gt;glibc -->
<g id="edge90" class="edge">
<title>lz4&#45;&gt;glibc</title>
<path fill="none" stroke="#8b4513" d="M338.78,-719.97C341.4,-693.34 346,-640.21 346,-595 346,-595 346,-595 346,-305 346,-262.97 345.24,-242.34 378,-216 434.49,-170.57 657.49,-163.85 748.26,-163.02"/>
<polygon fill="#8b4513" stroke="#8b4513" points="748.42,-166.52 758.4,-162.95 748.37,-159.52 748.42,-166.52"/>
</g>
<!-- xz&#45;&gt;sh -->
<g id="edge92" class="edge">
<title>xz&#45;&gt;sh</title>
<path fill="none" stroke="#8b4513" d="M496.89,-863.67C496.6,-843.89 499.23,-811.72 517,-792 549.23,-756.23 605.82,-744.51 643.12,-740.72"/>
<polygon fill="#8b4513" stroke="#8b4513" points="643.43,-744.2 653.09,-739.85 642.82,-737.23 643.43,-744.2"/>
</g>
</g>
</svg>
