<?xml version="1.0" encoding="UTF-8" standalone="no"?>
<!DOCTYPE svg PUBLIC "-//W3C//DTD SVG 1.1//EN"
 "http://www.w3.org/Graphics/SVG/1.1/DTD/svg11.dtd">
<!-- Generated by graphviz version 2.44.0 (0)
 -->
<!-- Title: G Pages: 1 -->
<svg width="679pt" height="980pt"
 viewBox="0.00 0.00 678.68 980.00" xmlns="http://www.w3.org/2000/svg" xmlns:xlink="http://www.w3.org/1999/xlink">
<g id="graph0" class="graph" transform="scale(1 1) rotate(0) translate(4 976)">
<title>G</title>
<polygon fill="white" stroke="transparent" points="-4,4 -4,-976 674.68,-976 674.68,4 -4,4"/>
<!-- START -->
<g id="node1" class="node">
<title>START</title>
<ellipse fill="red" stroke="red" cx="319.14" cy="-954" rx="38.19" ry="18"/>
<text text-anchor="middle" x="319.14" y="-950.3" font-family="Times,serif" font-size="14.00">START</text>
</g>
<!-- file -->
<g id="node2" class="node">
<title>file</title>
<ellipse fill="green" stroke="green" cx="319.14" cy="-882" rx="27" ry="18"/>
<text text-anchor="middle" x="319.14" y="-878.3" font-family="Times,serif" font-size="14.00">file</text>
</g>
<!-- START&#45;&gt;file -->
<g id="edge1" class="edge">
<title>START&#45;&gt;file</title>
<path fill="none" stroke="black" d="M319.14,-935.7C319.14,-927.98 319.14,-918.71 319.14,-910.11"/>
<polygon fill="black" stroke="black" points="322.64,-910.1 319.14,-900.1 315.64,-910.1 322.64,-910.1"/>
</g>
<!-- glibc -->
<g id="node3" class="node">
<title>glibc</title>
<ellipse fill="green" stroke="green" cx="246.14" cy="-162" rx="28.7" ry="18"/>
<text text-anchor="middle" x="246.14" y="-158.3" font-family="Times,serif" font-size="14.00">glibc</text>
</g>
<!-- file&#45;&gt;glibc -->
<g id="edge2" class="edge">
<title>file&#45;&gt;glibc</title>
<path fill="none" stroke="#8b4513" d="M293.47,-875.97C238.25,-863.49 113.14,-825.66 113.14,-739 113.14,-739 113.14,-739 113.14,-305 113.14,-245.59 175.93,-200.78 215.23,-178.56"/>
<polygon fill="#8b4513" stroke="#8b4513" points="217.09,-181.53 224.18,-173.65 213.73,-175.39 217.09,-181.53"/>
</g>
<!-- zlib -->
<g id="node9" class="node">
<title>zlib</title>
<ellipse fill="green" stroke="green" cx="197.14" cy="-666" rx="27" ry="18"/>
<text text-anchor="middle" x="197.14" y="-662.3" font-family="Times,serif" font-size="14.00">zlib</text>
</g>
<!-- file&#45;&gt;zlib -->
<g id="edge8" class="edge">
<title>file&#45;&gt;zlib</title>
<path fill="none" stroke="#8b4513" d="M297.65,-870.64C281.03,-861.58 258.63,-846.91 245.14,-828 215.95,-787.07 204.31,-728.28 199.82,-694.23"/>
<polygon fill="#8b4513" stroke="#8b4513" points="203.27,-693.6 198.6,-684.1 196.32,-694.44 203.27,-693.6"/>
</g>
<!-- xz -->
<g id="node10" class="node">
<title>xz</title>
<ellipse fill="green" stroke="green" cx="281.14" cy="-810" rx="27" ry="18"/>
<text text-anchor="middle" x="281.14" y="-806.3" font-family="Times,serif" font-size="14.00">xz</text>
</g>
<!-- file&#45;&gt;xz -->
<g id="edge10" class="edge">
<title>file&#45;&gt;xz</title>
<path fill="none" stroke="#8b4513" d="M310.33,-864.76C305.72,-856.28 299.99,-845.71 294.82,-836.2"/>
<polygon fill="#8b4513" stroke="#8b4513" points="297.75,-834.27 289.91,-827.15 291.6,-837.61 297.75,-834.27"/>
</g>
<!-- bzip2 -->
<g id="node19" class="node">
<title>bzip2</title>
<ellipse fill="green" stroke="green" cx="357.14" cy="-810" rx="30.59" ry="18"/>
<text text-anchor="middle" x="357.14" y="-806.3" font-family="Times,serif" font-size="14.00">bzip2</text>
</g>
<!-- file&#45;&gt;bzip2 -->
<g id="edge25" class="edge">
<title>file&#45;&gt;bzip2</title>
<path fill="none" stroke="#8b4513" d="M327.95,-864.76C332.49,-856.4 338.13,-846.02 343.24,-836.61"/>
<polygon fill="#8b4513" stroke="#8b4513" points="346.42,-838.09 348.11,-827.63 340.26,-834.75 346.42,-838.09"/>
</g>
<!-- libseccomp -->
<g id="node20" class="node">
<title>libseccomp</title>
<ellipse fill="green" stroke="green" cx="591.14" cy="-738" rx="50.89" ry="18"/>
<text text-anchor="middle" x="591.14" y="-734.3" font-family="Times,serif" font-size="14.00">libseccomp</text>
</g>
<!-- file&#45;&gt;libseccomp -->
<g id="edge28" class="edge">
<title>file&#45;&gt;libseccomp</title>
<path fill="none" stroke="#8b4513" d="M340.03,-870.09C386.11,-846.04 496.93,-788.18 554.71,-758.02"/>
<polygon fill="#8b4513" stroke="#8b4513" points="556.6,-760.98 563.85,-753.25 553.36,-754.78 556.6,-760.98"/>
</g>
<!-- libseccomp.so=2&#45;64 -->
<g id="node21" class="node">
<title>libseccomp.so=2&#45;64</title>
<ellipse fill="green" stroke="green" cx="588.14" cy="-810" rx="82.59" ry="18"/>
<text text-anchor="middle" x="588.14" y="-806.3" font-family="Times,serif" font-size="14.00">libseccomp.so=2&#45;64</text>
</g>
<!-- file&#45;&gt;libseccomp.so=2&#45;64 -->
<g id="edge30" class="edge">
<title>file&#45;&gt;libseccomp.so=2&#45;64</title>
<path fill="none" stroke="#8b4513" d="M343.97,-874.54C385.34,-863.77 469.55,-841.86 527.41,-826.8"/>
<polygon fill="#8b4513" stroke="#8b4513" points="528.37,-830.17 537.17,-824.26 526.61,-823.4 528.37,-830.17"/>
</g>
<!-- linux&#45;api&#45;headers&gt;=4.10 -->
<g id="node4" class="node">
<title>linux&#45;api&#45;headers&gt;=4.10</title>
<ellipse fill="green" stroke="green" cx="98.14" cy="-90" rx="98.28" ry="18"/>
<text text-anchor="middle" x="98.14" y="-86.3" font-family="Times,serif" font-size="14.00">linux&#45;api&#45;headers&gt;=4.10</text>
</g>
<!-- glibc&#45;&gt;linux&#45;api&#45;headers&gt;=4.10 -->
<g id="edge3" class="edge">
<title>glibc&#45;&gt;linux&#45;api&#45;headers&gt;=4.10</title>
<path fill="none" stroke="#8b4513" d="M223.98,-150.52C202.2,-140.22 168.37,-124.22 141.27,-111.4"/>
<polygon fill="#8b4513" stroke="#8b4513" points="142.53,-108.12 132,-107.01 139.54,-114.45 142.53,-108.12"/>
</g>
<!-- tzdata -->
<g id="node6" class="node">
<title>tzdata</title>
<ellipse fill="green" stroke="green" cx="246.14" cy="-90" rx="31.7" ry="18"/>
<text text-anchor="middle" x="246.14" y="-86.3" font-family="Times,serif" font-size="14.00">tzdata</text>
</g>
<!-- glibc&#45;&gt;tzdata -->
<g id="edge5" class="edge">
<title>glibc&#45;&gt;tzdata</title>
<path fill="none" stroke="#8b4513" d="M246.14,-143.7C246.14,-135.98 246.14,-126.71 246.14,-118.11"/>
<polygon fill="#8b4513" stroke="#8b4513" points="249.64,-118.1 246.14,-108.1 242.64,-118.1 249.64,-118.1"/>
</g>
<!-- filesystem -->
<g id="node7" class="node">
<title>filesystem</title>
<ellipse fill="green" stroke="green" cx="343.14" cy="-90" rx="46.59" ry="18"/>
<text text-anchor="middle" x="343.14" y="-86.3" font-family="Times,serif" font-size="14.00">filesystem</text>
</g>
<!-- glibc&#45;&gt;filesystem -->
<g id="edge6" class="edge">
<title>glibc&#45;&gt;filesystem</title>
<path fill="none" stroke="#8b4513" d="M264.39,-147.83C278.19,-137.88 297.42,-123.99 313.43,-112.44"/>
<polygon fill="#8b4513" stroke="#8b4513" points="315.88,-114.99 321.94,-106.3 311.78,-109.31 315.88,-114.99"/>
</g>
<!-- linux&#45;api&#45;headers -->
<g id="node5" class="node">
<title>linux&#45;api&#45;headers</title>
<ellipse fill="green" stroke="green" cx="98.14" cy="-18" rx="71.49" ry="18"/>
<text text-anchor="middle" x="98.14" y="-14.3" font-family="Times,serif" font-size="14.00">linux&#45;api&#45;headers</text>
</g>
<!-- linux&#45;api&#45;headers&gt;=4.10&#45;&gt;linux&#45;api&#45;headers -->
<g id="edge4" class="edge">
<title>linux&#45;api&#45;headers&gt;=4.10&#45;&gt;linux&#45;api&#45;headers</title>
<path fill="none" stroke="grey" d="M98.14,-71.7C98.14,-60.85 98.14,-46.92 98.14,-36.1"/>
</g>
<!-- iana&#45;etc -->
<g id="node8" class="node">
<title>iana&#45;etc</title>
<ellipse fill="green" stroke="green" cx="343.14" cy="-18" rx="38.19" ry="18"/>
<text text-anchor="middle" x="343.14" y="-14.3" font-family="Times,serif" font-size="14.00">iana&#45;etc</text>
</g>
<!-- filesystem&#45;&gt;iana&#45;etc -->
<g id="edge7" class="edge">
<title>filesystem&#45;&gt;iana&#45;etc</title>
<path fill="none" stroke="#8b4513" d="M343.14,-71.7C343.14,-63.98 343.14,-54.71 343.14,-46.11"/>
<polygon fill="#8b4513" stroke="#8b4513" points="346.64,-46.1 343.14,-36.1 339.64,-46.1 346.64,-46.1"/>
</g>
<!-- zlib&#45;&gt;glibc -->
<g id="edge9" class="edge">
<title>zlib&#45;&gt;glibc</title>
<path fill="none" stroke="#8b4513" d="M188.27,-648.94C174.9,-623.18 151.14,-570.68 151.14,-523 151.14,-523 151.14,-523 151.14,-305 151.14,-254.79 192.68,-208.89 220.83,-183.56"/>
<polygon fill="#8b4513" stroke="#8b4513" points="223.48,-185.88 228.72,-176.67 218.88,-180.61 223.48,-185.88"/>
</g>
<!-- sh -->
<g id="node11" class="node">
<title>sh</title>
<ellipse fill="green" stroke="green" cx="281.14" cy="-738" rx="27" ry="18"/>
<text text-anchor="middle" x="281.14" y="-734.3" font-family="Times,serif" font-size="14.00">sh</text>
</g>
<!-- xz&#45;&gt;sh -->
<g id="edge11" class="edge">
<title>xz&#45;&gt;sh</title>
<path fill="none" stroke="#8b4513" d="M281.14,-791.7C281.14,-783.98 281.14,-774.71 281.14,-766.11"/>
<polygon fill="#8b4513" stroke="#8b4513" points="284.64,-766.1 281.14,-756.1 277.64,-766.1 284.64,-766.1"/>
</g>
<!-- bash -->
<g id="node12" class="node">
<title>bash</title>
<ellipse fill="green" stroke="green" cx="280.14" cy="-666" rx="27" ry="18"/>
<text text-anchor="middle" x="280.14" y="-662.3" font-family="Times,serif" font-size="14.00">bash</text>
</g>
<!-- sh&#45;&gt;bash -->
<g id="edge12" class="edge">
<title>sh&#45;&gt;bash</title>
<path fill="none" stroke="grey" d="M280.89,-719.7C280.74,-708.85 280.54,-694.92 280.39,-684.1"/>
</g>
<!-- bash&#45;&gt;glibc -->
<g id="edge23" class="edge">
<title>bash&#45;&gt;glibc</title>
<path fill="none" stroke="#8b4513" d="M258.85,-654.49C242.74,-645.43 221.36,-630.84 209.14,-612 187.08,-577.98 189.14,-563.54 189.14,-523 189.14,-523 189.14,-523 189.14,-305 189.14,-261.09 212.91,-214.67 229.75,-187.3"/>
<polygon fill="#8b4513" stroke="#8b4513" points="232.75,-189.1 235.15,-178.78 226.84,-185.35 232.75,-189.1"/>
</g>
<!-- readline&gt;=7.0 -->
<g id="node13" class="node">
<title>readline&gt;=7.0</title>
<ellipse fill="green" stroke="green" cx="279.14" cy="-594" rx="61.19" ry="18"/>
<text text-anchor="middle" x="279.14" y="-590.3" font-family="Times,serif" font-size="14.00">readline&gt;=7.0</text>
</g>
<!-- bash&#45;&gt;readline&gt;=7.0 -->
<g id="edge13" class="edge">
<title>bash&#45;&gt;readline&gt;=7.0</title>
<path fill="none" stroke="#8b4513" d="M279.89,-647.7C279.78,-639.98 279.65,-630.71 279.53,-622.11"/>
<polygon fill="#8b4513" stroke="#8b4513" points="283.03,-622.05 279.39,-612.1 276.03,-622.15 283.03,-622.05"/>
</g>
<!-- ncurses -->
<g id="node15" class="node">
<title>ncurses</title>
<ellipse fill="green" stroke="green" cx="348.14" cy="-378" rx="37.09" ry="18"/>
<text text-anchor="middle" x="348.14" y="-374.3" font-family="Times,serif" font-size="14.00">ncurses</text>
</g>
<!-- bash&#45;&gt;ncurses -->
<g id="edge24" class="edge">
<title>bash&#45;&gt;ncurses</title>
<path fill="none" stroke="#8b4513" d="M299.39,-653.26C340.92,-626.6 437.77,-556.84 470.14,-468 475.62,-452.97 478.92,-445.38 470.14,-432 453.17,-406.12 420.52,-392.81 393.27,-386"/>
<polygon fill="#8b4513" stroke="#8b4513" points="394.04,-382.59 383.51,-383.78 392.48,-389.41 394.04,-382.59"/>
</g>
<!-- readline -->
<g id="node14" class="node">
<title>readline</title>
<ellipse fill="green" stroke="green" cx="270.14" cy="-522" rx="38.99" ry="18"/>
<text text-anchor="middle" x="270.14" y="-518.3" font-family="Times,serif" font-size="14.00">readline</text>
</g>
<!-- readline&gt;=7.0&#45;&gt;readline -->
<g id="edge14" class="edge">
<title>readline&gt;=7.0&#45;&gt;readline</title>
<path fill="none" stroke="grey" d="M276.92,-575.7C275.52,-564.85 273.73,-550.92 272.34,-540.1"/>
</g>
<!-- readline&#45;&gt;glibc -->
<g id="edge15" class="edge">
<title>readline&#45;&gt;glibc</title>
<path fill="none" stroke="#8b4513" d="M261.44,-504.02C248.87,-477.87 227.14,-425.88 227.14,-379 227.14,-379 227.14,-379 227.14,-305 227.14,-264.64 234.78,-218.39 240.37,-189.94"/>
<polygon fill="#8b4513" stroke="#8b4513" points="243.83,-190.45 242.39,-179.95 236.97,-189.06 243.83,-190.45"/>
</g>
<!-- readline&#45;&gt;ncurses -->
<g id="edge16" class="edge">
<title>readline&#45;&gt;ncurses</title>
<path fill="none" stroke="#8b4513" d="M269.35,-503.76C269.25,-484.92 271.37,-454.43 284.14,-432 291.84,-418.48 304.41,-406.95 316.37,-398.13"/>
<polygon fill="#8b4513" stroke="#8b4513" points="318.7,-400.78 324.91,-392.19 314.7,-395.03 318.7,-400.78"/>
</g>
<!-- libncursesw.so=6&#45;64 -->
<g id="node18" class="node">
<title>libncursesw.so=6&#45;64</title>
<ellipse fill="green" stroke="green" cx="377.14" cy="-450" rx="83.69" ry="18"/>
<text text-anchor="middle" x="377.14" y="-446.3" font-family="Times,serif" font-size="14.00">libncursesw.so=6&#45;64</text>
</g>
<!-- readline&#45;&gt;libncursesw.so=6&#45;64 -->
<g id="edge21" class="edge">
<title>readline&#45;&gt;libncursesw.so=6&#45;64</title>
<path fill="none" stroke="#8b4513" d="M291.79,-506.83C306.67,-497.1 326.7,-484 343.62,-472.93"/>
<polygon fill="#8b4513" stroke="#8b4513" points="345.69,-475.76 352.14,-467.35 341.86,-469.9 345.69,-475.76"/>
</g>
<!-- ncurses&#45;&gt;glibc -->
<g id="edge17" class="edge">
<title>ncurses&#45;&gt;glibc</title>
<path fill="none" stroke="#8b4513" d="M331.49,-361.62C321.55,-351.68 309.31,-338.03 301.14,-324 275.66,-280.24 259.64,-222.88 251.84,-189.77"/>
<polygon fill="#8b4513" stroke="#8b4513" points="255.23,-188.89 249.59,-179.92 248.4,-190.44 255.23,-188.89"/>
</g>
<!-- gcc&#45;libs -->
<g id="node16" class="node">
<title>gcc&#45;libs</title>
<ellipse fill="green" stroke="green" cx="348.14" cy="-306" rx="38.19" ry="18"/>
<text text-anchor="middle" x="348.14" y="-302.3" font-family="Times,serif" font-size="14.00">gcc&#45;libs</text>
</g>
<!-- ncurses&#45;&gt;gcc&#45;libs -->
<g id="edge18" class="edge">
<title>ncurses&#45;&gt;gcc&#45;libs</title>
<path fill="none" stroke="#8b4513" d="M348.14,-359.7C348.14,-351.98 348.14,-342.71 348.14,-334.11"/>
<polygon fill="#8b4513" stroke="#8b4513" points="351.64,-334.1 348.14,-324.1 344.64,-334.1 351.64,-334.1"/>
</g>
<!-- glibc&gt;=2.27 -->
<g id="node17" class="node">
<title>glibc&gt;=2.27</title>
<ellipse fill="green" stroke="green" cx="348.14" cy="-234" rx="54.69" ry="18"/>
<text text-anchor="middle" x="348.14" y="-230.3" font-family="Times,serif" font-size="14.00">glibc&gt;=2.27</text>
</g>
<!-- gcc&#45;libs&#45;&gt;glibc&gt;=2.27 -->
<g id="edge19" class="edge">
<title>gcc&#45;libs&#45;&gt;glibc&gt;=2.27</title>
<path fill="none" stroke="#8b4513" d="M348.14,-287.7C348.14,-279.98 348.14,-270.71 348.14,-262.11"/>
<polygon fill="#8b4513" stroke="#8b4513" points="351.64,-262.1 348.14,-252.1 344.64,-262.1 351.64,-262.1"/>
</g>
<!-- glibc&gt;=2.27&#45;&gt;glibc -->
<g id="edge20" class="edge">
<title>glibc&gt;=2.27&#45;&gt;glibc</title>
<path fill="none" stroke="grey" d="M325.5,-217.46C307.31,-204.98 282.05,-187.65 264.96,-175.91"/>
</g>
<!-- libncursesw.so=6&#45;64&#45;&gt;ncurses -->
<g id="edge22" class="edge">
<title>libncursesw.so=6&#45;64&#45;&gt;ncurses</title>
<path fill="none" stroke="grey" d="M370.12,-432.05C365.56,-421.05 359.64,-406.76 355.1,-395.79"/>
</g>
<!-- bzip2&#45;&gt;glibc -->
<g id="edge26" class="edge">
<title>bzip2&#45;&gt;glibc</title>
<path fill="none" stroke="#8b4513" d="M373.44,-794.72C415.99,-755.77 527.14,-642.57 527.14,-523 527.14,-523 527.14,-523 527.14,-305 527.14,-197.72 361.97,-171.47 284.9,-165.06"/>
<polygon fill="#8b4513" stroke="#8b4513" points="284.87,-161.55 274.63,-164.28 284.34,-168.53 284.87,-161.55"/>
</g>
<!-- bzip2&#45;&gt;sh -->
<g id="edge27" class="edge">
<title>bzip2&#45;&gt;sh</title>
<path fill="none" stroke="#8b4513" d="M341.39,-794.5C330.55,-784.51 315.98,-771.09 303.88,-759.94"/>
<polygon fill="#8b4513" stroke="#8b4513" points="306.08,-757.21 296.35,-753.01 301.33,-762.36 306.08,-757.21"/>
</g>
<!-- libseccomp&#45;&gt;glibc -->
<g id="edge29" class="edge">
<title>libseccomp&#45;&gt;glibc</title>
<path fill="none" stroke="#8b4513" d="M588.57,-720C584.78,-693.4 578.14,-640.3 578.14,-595 578.14,-595 578.14,-595 578.14,-305 578.14,-262.16 574.52,-242.85 541.14,-216 502.19,-184.67 355.53,-170.51 284.78,-165.4"/>
<polygon fill="#8b4513" stroke="#8b4513" points="284.73,-161.89 274.51,-164.68 284.25,-168.87 284.73,-161.89"/>
</g>
<!-- libseccomp.so=2&#45;64&#45;&gt;libseccomp -->
<g id="edge31" class="edge">
<title>libseccomp.so=2&#45;64&#45;&gt;libseccomp</title>
<path fill="none" stroke="grey" d="M588.88,-791.7C589.35,-780.85 589.94,-766.92 590.41,-756.1"/>
</g>
</g>
</svg>
