<?xml version="1.0" encoding="UTF-8" standalone="no"?>
<!DOCTYPE svg PUBLIC "-//W3C//DTD SVG 1.1//EN"
 "http://www.w3.org/Graphics/SVG/1.1/DTD/svg11.dtd">
<!-- Generated by graphviz version 2.44.0 (0)
 -->
<!-- Title: G Pages: 1 -->
<svg width="102pt" height="188pt"
 viewBox="0.00 0.00 101.59 188.00" xmlns="http://www.w3.org/2000/svg" xmlns:xlink="http://www.w3.org/1999/xlink">
<g id="graph0" class="graph" transform="scale(1 1) rotate(0) translate(4 184)">
<title>G</title>
<polygon fill="white" stroke="transparent" points="-4,4 -4,-184 97.59,-184 97.59,4 -4,4"/>
<!-- START -->
<g id="node1" class="node">
<title>START</title>
<ellipse fill="red" stroke="red" cx="46.8" cy="-162" rx="38.19" ry="18"/>
<text text-anchor="middle" x="46.8" y="-158.3" font-family="Times,serif" font-size="14.00">START</text>
</g>
<!-- filesystem -->
<g id="node2" class="node">
<title>filesystem</title>
<ellipse fill="green" stroke="green" cx="46.8" cy="-90" rx="46.59" ry="18"/>
<text text-anchor="middle" x="46.8" y="-86.3" font-family="Times,serif" font-size="14.00">filesystem</text>
</g>
<!-- START&#45;&gt;filesystem -->
<g id="edge1" class="edge">
<title>START&#45;&gt;filesystem</title>
<path fill="none" stroke="black" d="M46.8,-143.7C46.8,-135.98 46.8,-126.71 46.8,-118.11"/>
<polygon fill="black" stroke="black" points="50.3,-118.1 46.8,-108.1 43.3,-118.1 50.3,-118.1"/>
</g>
<!-- iana&#45;etc -->
<g id="node3" class="node">
<title>iana&#45;etc</title>
<ellipse fill="green" stroke="green" cx="46.8" cy="-18" rx="38.19" ry="18"/>
<text text-anchor="middle" x="46.8" y="-14.3" font-family="Times,serif" font-size="14.00">iana&#45;etc</text>
</g>
<!-- filesystem&#45;&gt;iana&#45;etc -->
<g id="edge2" class="edge">
<title>filesystem&#45;&gt;iana&#45;etc</title>
<path fill="none" stroke="#8b4513" d="M46.8,-71.7C46.8,-63.98 46.8,-54.71 46.8,-46.11"/>
<polygon fill="#8b4513" stroke="#8b4513" points="50.3,-46.1 46.8,-36.1 43.3,-46.1 50.3,-46.1"/>
</g>
</g>
</svg>
