<?xml version="1.0" encoding="UTF-8" standalone="no"?>
<!DOCTYPE svg PUBLIC "-//W3C//DTD SVG 1.1//EN"
 "http://www.w3.org/Graphics/SVG/1.1/DTD/svg11.dtd">
<!-- Generated by graphviz version 2.44.0 (0)
 -->
<!-- Title: G Pages: 1 -->
<svg width="522pt" height="908pt"
 viewBox="0.00 0.00 521.70 908.00" xmlns="http://www.w3.org/2000/svg" xmlns:xlink="http://www.w3.org/1999/xlink">
<g id="graph0" class="graph" transform="scale(1 1) rotate(0) translate(4 904)">
<title>G</title>
<polygon fill="white" stroke="transparent" points="-4,4 -4,-904 517.7,-904 517.7,4 -4,4"/>
<!-- START -->
<g id="node1" class="node">
<title>START</title>
<ellipse fill="red" stroke="red" cx="206.14" cy="-882" rx="38.19" ry="18"/>
<text text-anchor="middle" x="206.14" y="-878.3" font-family="Times,serif" font-size="14.00">START</text>
</g>
<!-- flex -->
<g id="node2" class="node">
<title>flex</title>
<ellipse fill="green" stroke="green" cx="206.14" cy="-810" rx="27" ry="18"/>
<text text-anchor="middle" x="206.14" y="-806.3" font-family="Times,serif" font-size="14.00">flex</text>
</g>
<!-- START&#45;&gt;flex -->
<g id="edge1" class="edge">
<title>START&#45;&gt;flex</title>
<path fill="none" stroke="black" d="M206.14,-863.7C206.14,-855.98 206.14,-846.71 206.14,-838.11"/>
<polygon fill="black" stroke="black" points="209.64,-838.1 206.14,-828.1 202.64,-838.1 209.64,-838.1"/>
</g>
<!-- glibc -->
<g id="node3" class="node">
<title>glibc</title>
<ellipse fill="green" stroke="green" cx="246.14" cy="-162" rx="28.7" ry="18"/>
<text text-anchor="middle" x="246.14" y="-158.3" font-family="Times,serif" font-size="14.00">glibc</text>
</g>
<!-- flex&#45;&gt;glibc -->
<g id="edge2" class="edge">
<title>flex&#45;&gt;glibc</title>
<path fill="none" stroke="#8b4513" d="M193.39,-793.7C185.58,-783.59 175.99,-769.71 170.14,-756 154.26,-718.8 151.14,-707.45 151.14,-667 151.14,-667 151.14,-667 151.14,-305 151.14,-254.79 192.68,-208.89 220.83,-183.56"/>
<polygon fill="#8b4513" stroke="#8b4513" points="223.48,-185.88 228.72,-176.67 218.88,-180.61 223.48,-185.88"/>
</g>
<!-- m4 -->
<g id="node9" class="node">
<title>m4</title>
<ellipse fill="green" stroke="green" cx="206.14" cy="-738" rx="27" ry="18"/>
<text text-anchor="middle" x="206.14" y="-734.3" font-family="Times,serif" font-size="14.00">m4</text>
</g>
<!-- flex&#45;&gt;m4 -->
<g id="edge8" class="edge">
<title>flex&#45;&gt;m4</title>
<path fill="none" stroke="#8b4513" d="M206.14,-791.7C206.14,-783.98 206.14,-774.71 206.14,-766.11"/>
<polygon fill="#8b4513" stroke="#8b4513" points="209.64,-766.1 206.14,-756.1 202.64,-766.1 209.64,-766.1"/>
</g>
<!-- sh -->
<g id="node17" class="node">
<title>sh</title>
<ellipse fill="green" stroke="green" cx="278.14" cy="-738" rx="27" ry="18"/>
<text text-anchor="middle" x="278.14" y="-734.3" font-family="Times,serif" font-size="14.00">sh</text>
</g>
<!-- flex&#45;&gt;sh -->
<g id="edge23" class="edge">
<title>flex&#45;&gt;sh</title>
<path fill="none" stroke="#8b4513" d="M220.71,-794.83C230.89,-784.94 244.67,-771.55 256.17,-760.36"/>
<polygon fill="#8b4513" stroke="#8b4513" points="258.62,-762.87 263.35,-753.38 253.74,-757.85 258.62,-762.87"/>
</g>
<!-- linux&#45;api&#45;headers&gt;=4.10 -->
<g id="node4" class="node">
<title>linux&#45;api&#45;headers&gt;=4.10</title>
<ellipse fill="green" stroke="green" cx="98.14" cy="-90" rx="98.28" ry="18"/>
<text text-anchor="middle" x="98.14" y="-86.3" font-family="Times,serif" font-size="14.00">linux&#45;api&#45;headers&gt;=4.10</text>
</g>
<!-- glibc&#45;&gt;linux&#45;api&#45;headers&gt;=4.10 -->
<g id="edge3" class="edge">
<title>glibc&#45;&gt;linux&#45;api&#45;headers&gt;=4.10</title>
<path fill="none" stroke="#8b4513" d="M223.98,-150.52C202.2,-140.22 168.37,-124.22 141.27,-111.4"/>
<polygon fill="#8b4513" stroke="#8b4513" points="142.53,-108.12 132,-107.01 139.54,-114.45 142.53,-108.12"/>
</g>
<!-- tzdata -->
<g id="node6" class="node">
<title>tzdata</title>
<ellipse fill="green" stroke="green" cx="246.14" cy="-90" rx="31.7" ry="18"/>
<text text-anchor="middle" x="246.14" y="-86.3" font-family="Times,serif" font-size="14.00">tzdata</text>
</g>
<!-- glibc&#45;&gt;tzdata -->
<g id="edge5" class="edge">
<title>glibc&#45;&gt;tzdata</title>
<path fill="none" stroke="#8b4513" d="M246.14,-143.7C246.14,-135.98 246.14,-126.71 246.14,-118.11"/>
<polygon fill="#8b4513" stroke="#8b4513" points="249.64,-118.1 246.14,-108.1 242.64,-118.1 249.64,-118.1"/>
</g>
<!-- filesystem -->
<g id="node7" class="node">
<title>filesystem</title>
<ellipse fill="green" stroke="green" cx="343.14" cy="-90" rx="46.59" ry="18"/>
<text text-anchor="middle" x="343.14" y="-86.3" font-family="Times,serif" font-size="14.00">filesystem</text>
</g>
<!-- glibc&#45;&gt;filesystem -->
<g id="edge6" class="edge">
<title>glibc&#45;&gt;filesystem</title>
<path fill="none" stroke="#8b4513" d="M264.39,-147.83C278.19,-137.88 297.42,-123.99 313.43,-112.44"/>
<polygon fill="#8b4513" stroke="#8b4513" points="315.88,-114.99 321.94,-106.3 311.78,-109.31 315.88,-114.99"/>
</g>
<!-- linux&#45;api&#45;headers -->
<g id="node5" class="node">
<title>linux&#45;api&#45;headers</title>
<ellipse fill="green" stroke="green" cx="98.14" cy="-18" rx="71.49" ry="18"/>
<text text-anchor="middle" x="98.14" y="-14.3" font-family="Times,serif" font-size="14.00">linux&#45;api&#45;headers</text>
</g>
<!-- linux&#45;api&#45;headers&gt;=4.10&#45;&gt;linux&#45;api&#45;headers -->
<g id="edge4" class="edge">
<title>linux&#45;api&#45;headers&gt;=4.10&#45;&gt;linux&#45;api&#45;headers</title>
<path fill="none" stroke="grey" d="M98.14,-71.7C98.14,-60.85 98.14,-46.92 98.14,-36.1"/>
</g>
<!-- iana&#45;etc -->
<g id="node8" class="node">
<title>iana&#45;etc</title>
<ellipse fill="green" stroke="green" cx="343.14" cy="-18" rx="38.19" ry="18"/>
<text text-anchor="middle" x="343.14" y="-14.3" font-family="Times,serif" font-size="14.00">iana&#45;etc</text>
</g>
<!-- filesystem&#45;&gt;iana&#45;etc -->
<g id="edge7" class="edge">
<title>filesystem&#45;&gt;iana&#45;etc</title>
<path fill="none" stroke="#8b4513" d="M343.14,-71.7C343.14,-63.98 343.14,-54.71 343.14,-46.11"/>
<polygon fill="#8b4513" stroke="#8b4513" points="346.64,-46.1 343.14,-36.1 339.64,-46.1 346.64,-46.1"/>
</g>
<!-- m4&#45;&gt;glibc -->
<g id="edge9" class="edge">
<title>m4&#45;&gt;glibc</title>
<path fill="none" stroke="#8b4513" d="M202.78,-720.03C197.83,-693.48 189.14,-640.44 189.14,-595 189.14,-595 189.14,-595 189.14,-305 189.14,-261.09 212.91,-214.67 229.75,-187.3"/>
<polygon fill="#8b4513" stroke="#8b4513" points="232.75,-189.1 235.15,-178.78 226.84,-185.35 232.75,-189.1"/>
</g>
<!-- bash -->
<g id="node10" class="node">
<title>bash</title>
<ellipse fill="green" stroke="green" cx="278.14" cy="-666" rx="27" ry="18"/>
<text text-anchor="middle" x="278.14" y="-662.3" font-family="Times,serif" font-size="14.00">bash</text>
</g>
<!-- m4&#45;&gt;bash -->
<g id="edge10" class="edge">
<title>m4&#45;&gt;bash</title>
<path fill="none" stroke="#8b4513" d="M220.71,-722.83C230.89,-712.94 244.67,-699.55 256.17,-688.36"/>
<polygon fill="#8b4513" stroke="#8b4513" points="258.62,-690.87 263.35,-681.38 253.74,-685.85 258.62,-690.87"/>
</g>
<!-- bash&#45;&gt;glibc -->
<g id="edge21" class="edge">
<title>bash&#45;&gt;glibc</title>
<path fill="none" stroke="#8b4513" d="M266.88,-649.49C259.96,-639.29 251.44,-625.39 246.14,-612 231.26,-574.39 227.14,-563.45 227.14,-523 227.14,-523 227.14,-523 227.14,-305 227.14,-264.64 234.78,-218.39 240.37,-189.94"/>
<polygon fill="#8b4513" stroke="#8b4513" points="243.83,-190.45 242.39,-179.95 236.97,-189.06 243.83,-190.45"/>
</g>
<!-- readline&gt;=7.0 -->
<g id="node11" class="node">
<title>readline&gt;=7.0</title>
<ellipse fill="green" stroke="green" cx="316.14" cy="-594" rx="61.19" ry="18"/>
<text text-anchor="middle" x="316.14" y="-590.3" font-family="Times,serif" font-size="14.00">readline&gt;=7.0</text>
</g>
<!-- bash&#45;&gt;readline&gt;=7.0 -->
<g id="edge11" class="edge">
<title>bash&#45;&gt;readline&gt;=7.0</title>
<path fill="none" stroke="#8b4513" d="M286.95,-648.76C291.43,-640.53 296.97,-630.32 302.02,-621.02"/>
<polygon fill="#8b4513" stroke="#8b4513" points="305.15,-622.58 306.85,-612.12 299,-619.24 305.15,-622.58"/>
</g>
<!-- ncurses -->
<g id="node13" class="node">
<title>ncurses</title>
<ellipse fill="green" stroke="green" cx="386.14" cy="-378" rx="37.09" ry="18"/>
<text text-anchor="middle" x="386.14" y="-374.3" font-family="Times,serif" font-size="14.00">ncurses</text>
</g>
<!-- bash&#45;&gt;ncurses -->
<g id="edge22" class="edge">
<title>bash&#45;&gt;ncurses</title>
<path fill="none" stroke="#8b4513" d="M301.63,-656.73C324.63,-647.92 359.95,-632.42 386.14,-612 452.3,-560.43 479.27,-546.75 508.14,-468 513.65,-452.98 516.92,-445.38 508.14,-432 491.17,-406.12 458.52,-392.81 431.27,-386"/>
<polygon fill="#8b4513" stroke="#8b4513" points="432.04,-382.59 421.51,-383.78 430.48,-389.41 432.04,-382.59"/>
</g>
<!-- readline -->
<g id="node12" class="node">
<title>readline</title>
<ellipse fill="green" stroke="green" cx="309.14" cy="-522" rx="38.99" ry="18"/>
<text text-anchor="middle" x="309.14" y="-518.3" font-family="Times,serif" font-size="14.00">readline</text>
</g>
<!-- readline&gt;=7.0&#45;&gt;readline -->
<g id="edge12" class="edge">
<title>readline&gt;=7.0&#45;&gt;readline</title>
<path fill="none" stroke="grey" d="M314.41,-575.7C313.33,-564.85 311.93,-550.92 310.85,-540.1"/>
</g>
<!-- readline&#45;&gt;glibc -->
<g id="edge13" class="edge">
<title>readline&#45;&gt;glibc</title>
<path fill="none" stroke="#8b4513" d="M300.24,-504.04C287.38,-477.93 265.14,-425.97 265.14,-379 265.14,-379 265.14,-379 265.14,-305 265.14,-264.64 257.51,-218.39 251.92,-189.94"/>
<polygon fill="#8b4513" stroke="#8b4513" points="255.31,-189.06 249.9,-179.95 248.45,-190.45 255.31,-189.06"/>
</g>
<!-- readline&#45;&gt;ncurses -->
<g id="edge14" class="edge">
<title>readline&#45;&gt;ncurses</title>
<path fill="none" stroke="#8b4513" d="M308.12,-503.77C307.77,-484.94 309.52,-454.46 322.14,-432 329.76,-418.44 342.32,-406.9 354.3,-398.08"/>
<polygon fill="#8b4513" stroke="#8b4513" points="356.62,-400.73 362.84,-392.16 352.63,-394.98 356.62,-400.73"/>
</g>
<!-- libncursesw.so=6&#45;64 -->
<g id="node16" class="node">
<title>libncursesw.so=6&#45;64</title>
<ellipse fill="green" stroke="green" cx="415.14" cy="-450" rx="83.69" ry="18"/>
<text text-anchor="middle" x="415.14" y="-446.3" font-family="Times,serif" font-size="14.00">libncursesw.so=6&#45;64</text>
</g>
<!-- readline&#45;&gt;libncursesw.so=6&#45;64 -->
<g id="edge19" class="edge">
<title>readline&#45;&gt;libncursesw.so=6&#45;64</title>
<path fill="none" stroke="#8b4513" d="M330.59,-506.83C345.33,-497.1 365.17,-484 381.94,-472.93"/>
<polygon fill="#8b4513" stroke="#8b4513" points="383.96,-475.79 390.38,-467.35 380.1,-469.94 383.96,-475.79"/>
</g>
<!-- ncurses&#45;&gt;glibc -->
<g id="edge15" class="edge">
<title>ncurses&#45;&gt;glibc</title>
<path fill="none" stroke="#8b4513" d="M370.78,-361.52C361.1,-351.34 348.67,-337.45 339.14,-324 307.4,-279.19 306.99,-263.32 279.14,-216 273.67,-206.71 267.47,-196.64 261.94,-187.8"/>
<polygon fill="#8b4513" stroke="#8b4513" points="264.75,-185.7 256.46,-179.11 258.83,-189.44 264.75,-185.7"/>
</g>
<!-- gcc&#45;libs -->
<g id="node14" class="node">
<title>gcc&#45;libs</title>
<ellipse fill="green" stroke="green" cx="386.14" cy="-306" rx="38.19" ry="18"/>
<text text-anchor="middle" x="386.14" y="-302.3" font-family="Times,serif" font-size="14.00">gcc&#45;libs</text>
</g>
<!-- ncurses&#45;&gt;gcc&#45;libs -->
<g id="edge16" class="edge">
<title>ncurses&#45;&gt;gcc&#45;libs</title>
<path fill="none" stroke="#8b4513" d="M386.14,-359.7C386.14,-351.98 386.14,-342.71 386.14,-334.11"/>
<polygon fill="#8b4513" stroke="#8b4513" points="389.64,-334.1 386.14,-324.1 382.64,-334.1 389.64,-334.1"/>
</g>
<!-- glibc&gt;=2.27 -->
<g id="node15" class="node">
<title>glibc&gt;=2.27</title>
<ellipse fill="green" stroke="green" cx="386.14" cy="-234" rx="54.69" ry="18"/>
<text text-anchor="middle" x="386.14" y="-230.3" font-family="Times,serif" font-size="14.00">glibc&gt;=2.27</text>
</g>
<!-- gcc&#45;libs&#45;&gt;glibc&gt;=2.27 -->
<g id="edge17" class="edge">
<title>gcc&#45;libs&#45;&gt;glibc&gt;=2.27</title>
<path fill="none" stroke="#8b4513" d="M386.14,-287.7C386.14,-279.98 386.14,-270.71 386.14,-262.11"/>
<polygon fill="#8b4513" stroke="#8b4513" points="389.64,-262.1 386.14,-252.1 382.64,-262.1 389.64,-262.1"/>
</g>
<!-- glibc&gt;=2.27&#45;&gt;glibc -->
<g id="edge18" class="edge">
<title>glibc&gt;=2.27&#45;&gt;glibc</title>
<path fill="none" stroke="grey" d="M357.47,-218.67C330.91,-205.39 291.99,-185.92 267.9,-173.88"/>
</g>
<!-- libncursesw.so=6&#45;64&#45;&gt;ncurses -->
<g id="edge20" class="edge">
<title>libncursesw.so=6&#45;64&#45;&gt;ncurses</title>
<path fill="none" stroke="grey" d="M408.12,-432.05C403.56,-421.05 397.64,-406.76 393.1,-395.79"/>
</g>
<!-- sh&#45;&gt;bash -->
<g id="edge24" class="edge">
<title>sh&#45;&gt;bash</title>
<path fill="none" stroke="grey" d="M278.14,-719.7C278.14,-708.85 278.14,-694.92 278.14,-684.1"/>
</g>
</g>
</svg>
