<?xml version="1.0" encoding="UTF-8" standalone="no"?>
<!DOCTYPE svg PUBLIC "-//W3C//DTD SVG 1.1//EN"
 "http://www.w3.org/Graphics/SVG/1.1/DTD/svg11.dtd">
<!-- Generated by graphviz version 2.44.0 (0)
 -->
<!-- Title: G Pages: 1 -->
<svg width="554pt" height="1124pt"
 viewBox="0.00 0.00 554.14 1124.00" xmlns="http://www.w3.org/2000/svg" xmlns:xlink="http://www.w3.org/1999/xlink">
<g id="graph0" class="graph" transform="scale(1 1) rotate(0) translate(4 1120)">
<title>G</title>
<polygon fill="white" stroke="transparent" points="-4,4 -4,-1120 550.14,-1120 550.14,4 -4,4"/>
<!-- START -->
<g id="node1" class="node">
<title>START</title>
<ellipse fill="red" stroke="red" cx="259.14" cy="-1098" rx="38.19" ry="18"/>
<text text-anchor="middle" x="259.14" y="-1094.3" font-family="Times,serif" font-size="14.00">START</text>
</g>
<!-- gawk -->
<g id="node2" class="node">
<title>gawk</title>
<ellipse fill="green" stroke="green" cx="259.14" cy="-1026" rx="29.8" ry="18"/>
<text text-anchor="middle" x="259.14" y="-1022.3" font-family="Times,serif" font-size="14.00">gawk</text>
</g>
<!-- START&#45;&gt;gawk -->
<g id="edge1" class="edge">
<title>START&#45;&gt;gawk</title>
<path fill="none" stroke="black" d="M259.14,-1079.7C259.14,-1071.98 259.14,-1062.71 259.14,-1054.11"/>
<polygon fill="black" stroke="black" points="262.64,-1054.1 259.14,-1044.1 255.64,-1054.1 262.64,-1054.1"/>
</g>
<!-- sh -->
<g id="node3" class="node">
<title>sh</title>
<ellipse fill="green" stroke="green" cx="297.14" cy="-738" rx="27" ry="18"/>
<text text-anchor="middle" x="297.14" y="-734.3" font-family="Times,serif" font-size="14.00">sh</text>
</g>
<!-- gawk&#45;&gt;sh -->
<g id="edge2" class="edge">
<title>gawk&#45;&gt;sh</title>
<path fill="none" stroke="#8b4513" d="M261,-1007.58C264.21,-978.02 271.1,-916.16 278.14,-864 282.71,-830.12 288.76,-791.2 292.79,-765.91"/>
<polygon fill="#8b4513" stroke="#8b4513" points="296.25,-766.39 294.38,-755.96 289.34,-765.28 296.25,-766.39"/>
</g>
<!-- glibc -->
<g id="node7" class="node">
<title>glibc</title>
<ellipse fill="green" stroke="green" cx="246.14" cy="-162" rx="28.7" ry="18"/>
<text text-anchor="middle" x="246.14" y="-158.3" font-family="Times,serif" font-size="14.00">glibc</text>
</g>
<!-- gawk&#45;&gt;glibc -->
<g id="edge21" class="edge">
<title>gawk&#45;&gt;glibc</title>
<path fill="none" stroke="#8b4513" d="M242.4,-1010.71C216.62,-987.01 170.14,-936.83 170.14,-883 170.14,-883 170.14,-883 170.14,-305 170.14,-258.12 202.74,-211.74 225.24,-185.31"/>
<polygon fill="#8b4513" stroke="#8b4513" points="227.89,-187.6 231.85,-177.77 222.62,-182.98 227.89,-187.6"/>
</g>
<!-- mpfr -->
<g id="node17" class="node">
<title>mpfr</title>
<ellipse fill="green" stroke="green" cx="325.14" cy="-954" rx="27.9" ry="18"/>
<text text-anchor="middle" x="325.14" y="-950.3" font-family="Times,serif" font-size="14.00">mpfr</text>
</g>
<!-- gawk&#45;&gt;mpfr -->
<g id="edge22" class="edge">
<title>gawk&#45;&gt;mpfr</title>
<path fill="none" stroke="#8b4513" d="M273.46,-1009.81C282.49,-1000.23 294.31,-987.7 304.36,-977.04"/>
<polygon fill="#8b4513" stroke="#8b4513" points="306.99,-979.36 311.3,-969.68 301.89,-974.55 306.99,-979.36"/>
</g>
<!-- bash -->
<g id="node4" class="node">
<title>bash</title>
<ellipse fill="green" stroke="green" cx="297.14" cy="-666" rx="27" ry="18"/>
<text text-anchor="middle" x="297.14" y="-662.3" font-family="Times,serif" font-size="14.00">bash</text>
</g>
<!-- sh&#45;&gt;bash -->
<g id="edge3" class="edge">
<title>sh&#45;&gt;bash</title>
<path fill="none" stroke="grey" d="M297.14,-719.7C297.14,-708.85 297.14,-694.92 297.14,-684.1"/>
</g>
<!-- readline&gt;=7.0 -->
<g id="node5" class="node">
<title>readline&gt;=7.0</title>
<ellipse fill="green" stroke="green" cx="297.14" cy="-594" rx="61.19" ry="18"/>
<text text-anchor="middle" x="297.14" y="-590.3" font-family="Times,serif" font-size="14.00">readline&gt;=7.0</text>
</g>
<!-- bash&#45;&gt;readline&gt;=7.0 -->
<g id="edge4" class="edge">
<title>bash&#45;&gt;readline&gt;=7.0</title>
<path fill="none" stroke="#8b4513" d="M297.14,-647.7C297.14,-639.98 297.14,-630.71 297.14,-622.11"/>
<polygon fill="#8b4513" stroke="#8b4513" points="300.64,-622.1 297.14,-612.1 293.64,-622.1 300.64,-622.1"/>
</g>
<!-- bash&#45;&gt;glibc -->
<g id="edge19" class="edge">
<title>bash&#45;&gt;glibc</title>
<path fill="none" stroke="#8b4513" d="M276.09,-654.45C260.17,-645.38 239.09,-630.78 227.14,-612 205.43,-577.87 208.14,-563.45 208.14,-523 208.14,-523 208.14,-523 208.14,-305 208.14,-263.41 223.54,-217.22 234.74,-189.14"/>
<polygon fill="#8b4513" stroke="#8b4513" points="238.07,-190.24 238.63,-179.66 231.59,-187.58 238.07,-190.24"/>
</g>
<!-- ncurses -->
<g id="node13" class="node">
<title>ncurses</title>
<ellipse fill="green" stroke="green" cx="392.14" cy="-378" rx="37.09" ry="18"/>
<text text-anchor="middle" x="392.14" y="-374.3" font-family="Times,serif" font-size="14.00">ncurses</text>
</g>
<!-- bash&#45;&gt;ncurses -->
<g id="edge20" class="edge">
<title>bash&#45;&gt;ncurses</title>
<path fill="none" stroke="#8b4513" d="M316.59,-653.32C358.55,-626.78 456.42,-557.23 489.14,-468 494.65,-452.98 497.3,-445.76 489.14,-432 477.14,-411.77 454.39,-398.76 433.94,-390.69"/>
<polygon fill="#8b4513" stroke="#8b4513" points="435.04,-387.37 424.45,-387.23 432.64,-393.95 435.04,-387.37"/>
</g>
<!-- readline -->
<g id="node6" class="node">
<title>readline</title>
<ellipse fill="green" stroke="green" cx="290.14" cy="-522" rx="38.99" ry="18"/>
<text text-anchor="middle" x="290.14" y="-518.3" font-family="Times,serif" font-size="14.00">readline</text>
</g>
<!-- readline&gt;=7.0&#45;&gt;readline -->
<g id="edge5" class="edge">
<title>readline&gt;=7.0&#45;&gt;readline</title>
<path fill="none" stroke="grey" d="M295.41,-575.7C294.33,-564.85 292.93,-550.92 291.85,-540.1"/>
</g>
<!-- readline&#45;&gt;glibc -->
<g id="edge6" class="edge">
<title>readline&#45;&gt;glibc</title>
<path fill="none" stroke="#8b4513" d="M281.24,-504.04C268.38,-477.93 246.14,-425.97 246.14,-379 246.14,-379 246.14,-379 246.14,-305 246.14,-265 246.14,-218.65 246.14,-190.08"/>
<polygon fill="#8b4513" stroke="#8b4513" points="249.64,-190.05 246.14,-180.05 242.64,-190.05 249.64,-190.05"/>
</g>
<!-- readline&#45;&gt;ncurses -->
<g id="edge12" class="edge">
<title>readline&#45;&gt;ncurses</title>
<path fill="none" stroke="#8b4513" d="M288.49,-503.72C287.54,-484.57 288.73,-453.55 303.14,-432 315.06,-414.18 335.18,-401.46 353.28,-392.96"/>
<polygon fill="#8b4513" stroke="#8b4513" points="354.76,-396.13 362.5,-388.89 351.94,-389.72 354.76,-396.13"/>
</g>
<!-- libncursesw.so=6&#45;64 -->
<g id="node16" class="node">
<title>libncursesw.so=6&#45;64</title>
<ellipse fill="green" stroke="green" cx="396.14" cy="-450" rx="83.69" ry="18"/>
<text text-anchor="middle" x="396.14" y="-446.3" font-family="Times,serif" font-size="14.00">libncursesw.so=6&#45;64</text>
</g>
<!-- readline&#45;&gt;libncursesw.so=6&#45;64 -->
<g id="edge17" class="edge">
<title>readline&#45;&gt;libncursesw.so=6&#45;64</title>
<path fill="none" stroke="#8b4513" d="M311.59,-506.83C326.33,-497.1 346.17,-484 362.94,-472.93"/>
<polygon fill="#8b4513" stroke="#8b4513" points="364.96,-475.79 371.38,-467.35 361.1,-469.94 364.96,-475.79"/>
</g>
<!-- linux&#45;api&#45;headers&gt;=4.10 -->
<g id="node8" class="node">
<title>linux&#45;api&#45;headers&gt;=4.10</title>
<ellipse fill="green" stroke="green" cx="98.14" cy="-90" rx="98.28" ry="18"/>
<text text-anchor="middle" x="98.14" y="-86.3" font-family="Times,serif" font-size="14.00">linux&#45;api&#45;headers&gt;=4.10</text>
</g>
<!-- glibc&#45;&gt;linux&#45;api&#45;headers&gt;=4.10 -->
<g id="edge7" class="edge">
<title>glibc&#45;&gt;linux&#45;api&#45;headers&gt;=4.10</title>
<path fill="none" stroke="#8b4513" d="M223.98,-150.52C202.2,-140.22 168.37,-124.22 141.27,-111.4"/>
<polygon fill="#8b4513" stroke="#8b4513" points="142.53,-108.12 132,-107.01 139.54,-114.45 142.53,-108.12"/>
</g>
<!-- tzdata -->
<g id="node10" class="node">
<title>tzdata</title>
<ellipse fill="green" stroke="green" cx="246.14" cy="-90" rx="31.7" ry="18"/>
<text text-anchor="middle" x="246.14" y="-86.3" font-family="Times,serif" font-size="14.00">tzdata</text>
</g>
<!-- glibc&#45;&gt;tzdata -->
<g id="edge9" class="edge">
<title>glibc&#45;&gt;tzdata</title>
<path fill="none" stroke="#8b4513" d="M246.14,-143.7C246.14,-135.98 246.14,-126.71 246.14,-118.11"/>
<polygon fill="#8b4513" stroke="#8b4513" points="249.64,-118.1 246.14,-108.1 242.64,-118.1 249.64,-118.1"/>
</g>
<!-- filesystem -->
<g id="node11" class="node">
<title>filesystem</title>
<ellipse fill="green" stroke="green" cx="343.14" cy="-90" rx="46.59" ry="18"/>
<text text-anchor="middle" x="343.14" y="-86.3" font-family="Times,serif" font-size="14.00">filesystem</text>
</g>
<!-- glibc&#45;&gt;filesystem -->
<g id="edge10" class="edge">
<title>glibc&#45;&gt;filesystem</title>
<path fill="none" stroke="#8b4513" d="M264.39,-147.83C278.19,-137.88 297.42,-123.99 313.43,-112.44"/>
<polygon fill="#8b4513" stroke="#8b4513" points="315.88,-114.99 321.94,-106.3 311.78,-109.31 315.88,-114.99"/>
</g>
<!-- linux&#45;api&#45;headers -->
<g id="node9" class="node">
<title>linux&#45;api&#45;headers</title>
<ellipse fill="green" stroke="green" cx="98.14" cy="-18" rx="71.49" ry="18"/>
<text text-anchor="middle" x="98.14" y="-14.3" font-family="Times,serif" font-size="14.00">linux&#45;api&#45;headers</text>
</g>
<!-- linux&#45;api&#45;headers&gt;=4.10&#45;&gt;linux&#45;api&#45;headers -->
<g id="edge8" class="edge">
<title>linux&#45;api&#45;headers&gt;=4.10&#45;&gt;linux&#45;api&#45;headers</title>
<path fill="none" stroke="grey" d="M98.14,-71.7C98.14,-60.85 98.14,-46.92 98.14,-36.1"/>
</g>
<!-- iana&#45;etc -->
<g id="node12" class="node">
<title>iana&#45;etc</title>
<ellipse fill="green" stroke="green" cx="343.14" cy="-18" rx="38.19" ry="18"/>
<text text-anchor="middle" x="343.14" y="-14.3" font-family="Times,serif" font-size="14.00">iana&#45;etc</text>
</g>
<!-- filesystem&#45;&gt;iana&#45;etc -->
<g id="edge11" class="edge">
<title>filesystem&#45;&gt;iana&#45;etc</title>
<path fill="none" stroke="#8b4513" d="M343.14,-71.7C343.14,-63.98 343.14,-54.71 343.14,-46.11"/>
<polygon fill="#8b4513" stroke="#8b4513" points="346.64,-46.1 343.14,-36.1 339.64,-46.1 346.64,-46.1"/>
</g>
<!-- ncurses&#45;&gt;glibc -->
<g id="edge13" class="edge">
<title>ncurses&#45;&gt;glibc</title>
<path fill="none" stroke="#8b4513" d="M376.98,-361.38C367.38,-351.14 354.96,-337.23 345.14,-324 311.33,-278.43 278.02,-220.96 259.97,-188.46"/>
<polygon fill="#8b4513" stroke="#8b4513" points="262.98,-186.67 255.08,-179.6 256.85,-190.05 262.98,-186.67"/>
</g>
<!-- gcc&#45;libs -->
<g id="node14" class="node">
<title>gcc&#45;libs</title>
<ellipse fill="green" stroke="green" cx="392.14" cy="-306" rx="38.19" ry="18"/>
<text text-anchor="middle" x="392.14" y="-302.3" font-family="Times,serif" font-size="14.00">gcc&#45;libs</text>
</g>
<!-- ncurses&#45;&gt;gcc&#45;libs -->
<g id="edge14" class="edge">
<title>ncurses&#45;&gt;gcc&#45;libs</title>
<path fill="none" stroke="#8b4513" d="M392.14,-359.7C392.14,-351.98 392.14,-342.71 392.14,-334.11"/>
<polygon fill="#8b4513" stroke="#8b4513" points="395.64,-334.1 392.14,-324.1 388.64,-334.1 395.64,-334.1"/>
</g>
<!-- glibc&gt;=2.27 -->
<g id="node15" class="node">
<title>glibc&gt;=2.27</title>
<ellipse fill="green" stroke="green" cx="388.14" cy="-234" rx="54.69" ry="18"/>
<text text-anchor="middle" x="388.14" y="-230.3" font-family="Times,serif" font-size="14.00">glibc&gt;=2.27</text>
</g>
<!-- gcc&#45;libs&#45;&gt;glibc&gt;=2.27 -->
<g id="edge15" class="edge">
<title>gcc&#45;libs&#45;&gt;glibc&gt;=2.27</title>
<path fill="none" stroke="#8b4513" d="M391.15,-287.7C390.71,-279.98 390.18,-270.71 389.69,-262.11"/>
<polygon fill="#8b4513" stroke="#8b4513" points="393.18,-261.89 389.12,-252.1 386.19,-262.29 393.18,-261.89"/>
</g>
<!-- glibc&gt;=2.27&#45;&gt;glibc -->
<g id="edge16" class="edge">
<title>glibc&gt;=2.27&#45;&gt;glibc</title>
<path fill="none" stroke="grey" d="M359.06,-218.67C332.12,-205.39 292.64,-185.92 268.21,-173.88"/>
</g>
<!-- libncursesw.so=6&#45;64&#45;&gt;ncurses -->
<g id="edge18" class="edge">
<title>libncursesw.so=6&#45;64&#45;&gt;ncurses</title>
<path fill="none" stroke="grey" d="M395.15,-431.7C394.53,-420.85 393.74,-406.92 393.12,-396.1"/>
</g>
<!-- gmp&gt;=5.0 -->
<g id="node18" class="node">
<title>gmp&gt;=5.0</title>
<ellipse fill="green" stroke="green" cx="335.14" cy="-882" rx="48.19" ry="18"/>
<text text-anchor="middle" x="335.14" y="-878.3" font-family="Times,serif" font-size="14.00">gmp&gt;=5.0</text>
</g>
<!-- mpfr&#45;&gt;gmp&gt;=5.0 -->
<g id="edge23" class="edge">
<title>mpfr&#45;&gt;gmp&gt;=5.0</title>
<path fill="none" stroke="#8b4513" d="M327.56,-936.05C328.66,-928.35 329.99,-919.03 331.23,-910.36"/>
<polygon fill="#8b4513" stroke="#8b4513" points="334.72,-910.67 332.67,-900.28 327.79,-909.68 334.72,-910.67"/>
</g>
<!-- gmp -->
<g id="node19" class="node">
<title>gmp</title>
<ellipse fill="green" stroke="green" cx="335.14" cy="-810" rx="27" ry="18"/>
<text text-anchor="middle" x="335.14" y="-806.3" font-family="Times,serif" font-size="14.00">gmp</text>
</g>
<!-- gmp&gt;=5.0&#45;&gt;gmp -->
<g id="edge24" class="edge">
<title>gmp&gt;=5.0&#45;&gt;gmp</title>
<path fill="none" stroke="grey" d="M335.14,-863.7C335.14,-852.85 335.14,-838.92 335.14,-828.1"/>
</g>
<!-- gmp&#45;&gt;sh -->
<g id="edge26" class="edge">
<title>gmp&#45;&gt;sh</title>
<path fill="none" stroke="#8b4513" d="M326.33,-792.76C321.72,-784.28 315.99,-773.71 310.82,-764.2"/>
<polygon fill="#8b4513" stroke="#8b4513" points="313.75,-762.27 305.91,-755.15 307.6,-765.61 313.75,-762.27"/>
</g>
<!-- gmp&#45;&gt;gcc&#45;libs -->
<g id="edge25" class="edge">
<title>gmp&#45;&gt;gcc&#45;libs</title>
<path fill="none" stroke="#8b4513" d="M361.01,-804.27C417.36,-792.31 546.14,-755.31 546.14,-667 546.14,-667 546.14,-667 546.14,-449 546.14,-386.02 475.66,-343.26 430.07,-322.19"/>
<polygon fill="#8b4513" stroke="#8b4513" points="431.3,-318.91 420.75,-318.03 428.45,-325.3 431.3,-318.91"/>
</g>
</g>
</svg>
