<?xml version="1.0" encoding="UTF-8" standalone="no"?>
<!DOCTYPE svg PUBLIC "-//W3C//DTD SVG 1.1//EN"
 "http://www.w3.org/Graphics/SVG/1.1/DTD/svg11.dtd">
<!-- Generated by graphviz version 2.44.0 (0)
 -->
<!-- Title: G Pages: 1 -->
<svg width="864pt" height="1196pt"
 viewBox="0.00 0.00 864.00 1196.00" xmlns="http://www.w3.org/2000/svg" xmlns:xlink="http://www.w3.org/1999/xlink">
<g id="graph0" class="graph" transform="scale(1 1) rotate(0) translate(4 1192)">
<title>G</title>
<polygon fill="white" stroke="transparent" points="-4,4 -4,-1192 860,-1192 860,4 -4,4"/>
<!-- START -->
<g id="node1" class="node">
<title>START</title>
<ellipse fill="red" stroke="red" cx="427" cy="-1170" rx="38.19" ry="18"/>
<text text-anchor="middle" x="427" y="-1166.3" font-family="Times,serif" font-size="14.00">START</text>
</g>
<!-- gettext -->
<g id="node2" class="node">
<title>gettext</title>
<ellipse fill="green" stroke="green" cx="427" cy="-1098" rx="34.39" ry="18"/>
<text text-anchor="middle" x="427" y="-1094.3" font-family="Times,serif" font-size="14.00">gettext</text>
</g>
<!-- START&#45;&gt;gettext -->
<g id="edge1" class="edge">
<title>START&#45;&gt;gettext</title>
<path fill="none" stroke="black" d="M427,-1151.7C427,-1143.98 427,-1134.71 427,-1126.11"/>
<polygon fill="black" stroke="black" points="430.5,-1126.1 427,-1116.1 423.5,-1126.1 430.5,-1126.1"/>
</g>
<!-- gcc&#45;libs -->
<g id="node3" class="node">
<title>gcc&#45;libs</title>
<ellipse fill="green" stroke="green" cx="137" cy="-306" rx="38.19" ry="18"/>
<text text-anchor="middle" x="137" y="-302.3" font-family="Times,serif" font-size="14.00">gcc&#45;libs</text>
</g>
<!-- gettext&#45;&gt;gcc&#45;libs -->
<g id="edge2" class="edge">
<title>gettext&#45;&gt;gcc&#45;libs</title>
<path fill="none" stroke="#8b4513" d="M393.49,-1093.2C292.83,-1080.85 0,-1037.81 0,-955 0,-955 0,-955 0,-449 0,-390.24 61.5,-346.47 102.09,-323.99"/>
<polygon fill="#8b4513" stroke="#8b4513" points="103.76,-327.07 110.91,-319.25 100.44,-320.9 103.76,-327.07"/>
</g>
<!-- acl -->
<g id="node11" class="node">
<title>acl</title>
<ellipse fill="green" stroke="green" cx="623" cy="-1026" rx="27" ry="18"/>
<text text-anchor="middle" x="623" y="-1022.3" font-family="Times,serif" font-size="14.00">acl</text>
</g>
<!-- gettext&#45;&gt;acl -->
<g id="edge10" class="edge">
<title>gettext&#45;&gt;acl</title>
<path fill="none" stroke="#8b4513" d="M454.67,-1087.12C490.31,-1074.39 552.2,-1052.29 590.18,-1038.72"/>
<polygon fill="#8b4513" stroke="#8b4513" points="591.52,-1041.96 599.76,-1035.3 589.16,-1035.37 591.52,-1041.96"/>
</g>
<!-- sh -->
<g id="node13" class="node">
<title>sh</title>
<ellipse fill="green" stroke="green" cx="258" cy="-738" rx="27" ry="18"/>
<text text-anchor="middle" x="258" y="-734.3" font-family="Times,serif" font-size="14.00">sh</text>
</g>
<!-- gettext&#45;&gt;sh -->
<g id="edge13" class="edge">
<title>gettext&#45;&gt;sh</title>
<path fill="none" stroke="#8b4513" d="M398.33,-1087.8C350.12,-1070.31 258,-1027.43 258,-955 258,-955 258,-955 258,-881 258,-841 258,-794.65 258,-766.08"/>
<polygon fill="#8b4513" stroke="#8b4513" points="261.5,-766.05 258,-756.05 254.5,-766.05 261.5,-766.05"/>
</g>
<!-- glib2 -->
<g id="node19" class="node">
<title>glib2</title>
<ellipse fill="green" stroke="green" cx="461" cy="-954" rx="28.7" ry="18"/>
<text text-anchor="middle" x="461" y="-950.3" font-family="Times,serif" font-size="14.00">glib2</text>
</g>
<!-- gettext&#45;&gt;glib2 -->
<g id="edge25" class="edge">
<title>gettext&#45;&gt;glib2</title>
<path fill="none" stroke="#8b4513" d="M432.15,-1079.89C435.19,-1069.54 439.01,-1056.07 442,-1044 447.1,-1023.43 452.07,-999.97 455.65,-982.31"/>
<polygon fill="#8b4513" stroke="#8b4513" points="459.16,-982.63 457.69,-972.14 452.29,-981.26 459.16,-982.63"/>
</g>
<!-- libunistring -->
<g id="node26" class="node">
<title>libunistring</title>
<ellipse fill="green" stroke="green" cx="804" cy="-738" rx="51.99" ry="18"/>
<text text-anchor="middle" x="804" y="-734.3" font-family="Times,serif" font-size="14.00">libunistring</text>
</g>
<!-- gettext&#45;&gt;libunistring -->
<g id="edge41" class="edge">
<title>gettext&#45;&gt;libunistring</title>
<path fill="none" stroke="#8b4513" d="M460.6,-1093.56C506.95,-1087.89 592.33,-1074.06 659,-1044 720.84,-1016.12 783,-1022.84 783,-955 783,-955 783,-955 783,-881 783,-840.78 791.35,-794.84 797.51,-766.37"/>
<polygon fill="#8b4513" stroke="#8b4513" points="800.99,-766.89 799.75,-756.37 794.15,-765.36 800.99,-766.89"/>
</g>
<!-- libcroco -->
<g id="node27" class="node">
<title>libcroco</title>
<ellipse fill="green" stroke="green" cx="393" cy="-1026" rx="39.79" ry="18"/>
<text text-anchor="middle" x="393" y="-1022.3" font-family="Times,serif" font-size="14.00">libcroco</text>
</g>
<!-- gettext&#45;&gt;libcroco -->
<g id="edge43" class="edge">
<title>gettext&#45;&gt;libcroco</title>
<path fill="none" stroke="#8b4513" d="M418.94,-1080.41C414.98,-1072.25 410.11,-1062.22 405.66,-1053.07"/>
<polygon fill="#8b4513" stroke="#8b4513" points="408.75,-1051.42 401.24,-1043.96 402.46,-1054.48 408.75,-1051.42"/>
</g>
<!-- glibc&gt;=2.27 -->
<g id="node4" class="node">
<title>glibc&gt;=2.27</title>
<ellipse fill="green" stroke="green" cx="192" cy="-234" rx="54.69" ry="18"/>
<text text-anchor="middle" x="192" y="-230.3" font-family="Times,serif" font-size="14.00">glibc&gt;=2.27</text>
</g>
<!-- gcc&#45;libs&#45;&gt;glibc&gt;=2.27 -->
<g id="edge3" class="edge">
<title>gcc&#45;libs&#45;&gt;glibc&gt;=2.27</title>
<path fill="none" stroke="#8b4513" d="M149.76,-288.76C156.53,-280.14 165,-269.36 172.57,-259.73"/>
<polygon fill="#8b4513" stroke="#8b4513" points="175.5,-261.66 178.93,-251.63 170,-257.33 175.5,-261.66"/>
</g>
<!-- glibc -->
<g id="node5" class="node">
<title>glibc</title>
<ellipse fill="green" stroke="green" cx="551" cy="-162" rx="28.7" ry="18"/>
<text text-anchor="middle" x="551" y="-158.3" font-family="Times,serif" font-size="14.00">glibc</text>
</g>
<!-- glibc&gt;=2.27&#45;&gt;glibc -->
<g id="edge4" class="edge">
<title>glibc&gt;=2.27&#45;&gt;glibc</title>
<path fill="none" stroke="grey" d="M237.83,-224.06C313.63,-209.28 462.8,-180.2 523.91,-168.28"/>
</g>
<!-- linux&#45;api&#45;headers&gt;=4.10 -->
<g id="node6" class="node">
<title>linux&#45;api&#45;headers&gt;=4.10</title>
<ellipse fill="green" stroke="green" cx="403" cy="-90" rx="98.28" ry="18"/>
<text text-anchor="middle" x="403" y="-86.3" font-family="Times,serif" font-size="14.00">linux&#45;api&#45;headers&gt;=4.10</text>
</g>
<!-- glibc&#45;&gt;linux&#45;api&#45;headers&gt;=4.10 -->
<g id="edge5" class="edge">
<title>glibc&#45;&gt;linux&#45;api&#45;headers&gt;=4.10</title>
<path fill="none" stroke="#8b4513" d="M528.84,-150.52C507.06,-140.22 473.23,-124.22 446.13,-111.4"/>
<polygon fill="#8b4513" stroke="#8b4513" points="447.39,-108.12 436.85,-107.01 444.4,-114.45 447.39,-108.12"/>
</g>
<!-- tzdata -->
<g id="node8" class="node">
<title>tzdata</title>
<ellipse fill="green" stroke="green" cx="551" cy="-90" rx="31.7" ry="18"/>
<text text-anchor="middle" x="551" y="-86.3" font-family="Times,serif" font-size="14.00">tzdata</text>
</g>
<!-- glibc&#45;&gt;tzdata -->
<g id="edge7" class="edge">
<title>glibc&#45;&gt;tzdata</title>
<path fill="none" stroke="#8b4513" d="M551,-143.7C551,-135.98 551,-126.71 551,-118.11"/>
<polygon fill="#8b4513" stroke="#8b4513" points="554.5,-118.1 551,-108.1 547.5,-118.1 554.5,-118.1"/>
</g>
<!-- filesystem -->
<g id="node9" class="node">
<title>filesystem</title>
<ellipse fill="green" stroke="green" cx="648" cy="-90" rx="46.59" ry="18"/>
<text text-anchor="middle" x="648" y="-86.3" font-family="Times,serif" font-size="14.00">filesystem</text>
</g>
<!-- glibc&#45;&gt;filesystem -->
<g id="edge8" class="edge">
<title>glibc&#45;&gt;filesystem</title>
<path fill="none" stroke="#8b4513" d="M569.24,-147.83C583.04,-137.88 602.28,-123.99 618.29,-112.44"/>
<polygon fill="#8b4513" stroke="#8b4513" points="620.74,-114.99 626.8,-106.3 616.64,-109.31 620.74,-114.99"/>
</g>
<!-- linux&#45;api&#45;headers -->
<g id="node7" class="node">
<title>linux&#45;api&#45;headers</title>
<ellipse fill="green" stroke="green" cx="403" cy="-18" rx="71.49" ry="18"/>
<text text-anchor="middle" x="403" y="-14.3" font-family="Times,serif" font-size="14.00">linux&#45;api&#45;headers</text>
</g>
<!-- linux&#45;api&#45;headers&gt;=4.10&#45;&gt;linux&#45;api&#45;headers -->
<g id="edge6" class="edge">
<title>linux&#45;api&#45;headers&gt;=4.10&#45;&gt;linux&#45;api&#45;headers</title>
<path fill="none" stroke="grey" d="M403,-71.7C403,-60.85 403,-46.92 403,-36.1"/>
</g>
<!-- iana&#45;etc -->
<g id="node10" class="node">
<title>iana&#45;etc</title>
<ellipse fill="green" stroke="green" cx="648" cy="-18" rx="38.19" ry="18"/>
<text text-anchor="middle" x="648" y="-14.3" font-family="Times,serif" font-size="14.00">iana&#45;etc</text>
</g>
<!-- filesystem&#45;&gt;iana&#45;etc -->
<g id="edge9" class="edge">
<title>filesystem&#45;&gt;iana&#45;etc</title>
<path fill="none" stroke="#8b4513" d="M648,-71.7C648,-63.98 648,-54.71 648,-46.11"/>
<polygon fill="#8b4513" stroke="#8b4513" points="651.5,-46.1 648,-36.1 644.5,-46.1 651.5,-46.1"/>
</g>
<!-- attr -->
<g id="node12" class="node">
<title>attr</title>
<ellipse fill="green" stroke="green" cx="741" cy="-666" rx="27" ry="18"/>
<text text-anchor="middle" x="741" y="-662.3" font-family="Times,serif" font-size="14.00">attr</text>
</g>
<!-- acl&#45;&gt;attr -->
<g id="edge11" class="edge">
<title>acl&#45;&gt;attr</title>
<path fill="none" stroke="#8b4513" d="M640.59,-1012.3C669.53,-989.8 724,-939.88 724,-883 724,-883 724,-883 724,-809 724,-768.71 730.83,-722.44 735.83,-693.96"/>
<polygon fill="#8b4513" stroke="#8b4513" points="739.3,-694.43 737.64,-683.97 732.42,-693.19 739.3,-694.43"/>
</g>
<!-- attr&#45;&gt;glibc -->
<g id="edge12" class="edge">
<title>attr&#45;&gt;glibc</title>
<path fill="none" stroke="#8b4513" d="M738.83,-647.98C735.62,-621.37 730,-568.25 730,-523 730,-523 730,-523 730,-305 730,-232.33 638.34,-190.95 586.2,-173.29"/>
<polygon fill="#8b4513" stroke="#8b4513" points="587.24,-169.95 576.65,-170.17 585.06,-176.6 587.24,-169.95"/>
</g>
<!-- bash -->
<g id="node14" class="node">
<title>bash</title>
<ellipse fill="green" stroke="green" cx="452" cy="-666" rx="27" ry="18"/>
<text text-anchor="middle" x="452" y="-662.3" font-family="Times,serif" font-size="14.00">bash</text>
</g>
<!-- sh&#45;&gt;bash -->
<g id="edge14" class="edge">
<title>sh&#45;&gt;bash</title>
<path fill="none" stroke="grey" d="M281.4,-728.56C318.79,-715.07 391.57,-688.81 428.82,-675.36"/>
</g>
<!-- bash&#45;&gt;glibc -->
<g id="edge23" class="edge">
<title>bash&#45;&gt;glibc</title>
<path fill="none" stroke="#8b4513" d="M463.76,-649.34C481.49,-624.13 513,-572.37 513,-523 513,-523 513,-523 513,-305 513,-263.41 528.4,-217.22 539.6,-189.14"/>
<polygon fill="#8b4513" stroke="#8b4513" points="542.93,-190.24 543.49,-179.66 536.45,-187.58 542.93,-190.24"/>
</g>
<!-- readline&gt;=7.0 -->
<g id="node15" class="node">
<title>readline&gt;=7.0</title>
<ellipse fill="green" stroke="green" cx="367" cy="-594" rx="61.19" ry="18"/>
<text text-anchor="middle" x="367" y="-590.3" font-family="Times,serif" font-size="14.00">readline&gt;=7.0</text>
</g>
<!-- bash&#45;&gt;readline&gt;=7.0 -->
<g id="edge15" class="edge">
<title>bash&#45;&gt;readline&gt;=7.0</title>
<path fill="none" stroke="#8b4513" d="M435.61,-651.5C424.03,-641.96 408.21,-628.94 394.69,-617.8"/>
<polygon fill="#8b4513" stroke="#8b4513" points="396.57,-614.81 386.62,-611.16 392.12,-620.22 396.57,-614.81"/>
</g>
<!-- ncurses -->
<g id="node17" class="node">
<title>ncurses</title>
<ellipse fill="green" stroke="green" cx="269" cy="-378" rx="37.09" ry="18"/>
<text text-anchor="middle" x="269" y="-374.3" font-family="Times,serif" font-size="14.00">ncurses</text>
</g>
<!-- bash&#45;&gt;ncurses -->
<g id="edge24" class="edge">
<title>bash&#45;&gt;ncurses</title>
<path fill="none" stroke="#8b4513" d="M454.91,-648.05C461.08,-606.15 470.89,-496.48 418,-432 392.99,-401.51 349.14,-388.55 315.46,-383.05"/>
<polygon fill="#8b4513" stroke="#8b4513" points="315.77,-379.55 305.37,-381.57 314.75,-386.48 315.77,-379.55"/>
</g>
<!-- readline -->
<g id="node16" class="node">
<title>readline</title>
<ellipse fill="green" stroke="green" cx="301" cy="-522" rx="38.99" ry="18"/>
<text text-anchor="middle" x="301" y="-518.3" font-family="Times,serif" font-size="14.00">readline</text>
</g>
<!-- readline&gt;=7.0&#45;&gt;readline -->
<g id="edge16" class="edge">
<title>readline&gt;=7.0&#45;&gt;readline</title>
<path fill="none" stroke="grey" d="M351.36,-576.41C340.69,-565.09 326.63,-550.18 316.07,-538.99"/>
</g>
<!-- readline&#45;&gt;glibc -->
<g id="edge17" class="edge">
<title>readline&#45;&gt;glibc</title>
<path fill="none" stroke="#8b4513" d="M332.51,-511.36C382.65,-493.85 475,-451.72 475,-379 475,-379 475,-379 475,-305 475,-264.03 478.66,-251.56 499,-216 505.97,-203.82 516.42,-192.41 526.13,-183.32"/>
<polygon fill="#8b4513" stroke="#8b4513" points="528.56,-185.84 533.67,-176.56 523.89,-180.63 528.56,-185.84"/>
</g>
<!-- readline&#45;&gt;ncurses -->
<g id="edge18" class="edge">
<title>readline&#45;&gt;ncurses</title>
<path fill="none" stroke="#8b4513" d="M274.67,-508.53C259.16,-499.62 240.88,-486.02 232,-468 221.38,-446.46 234.3,-421.1 247.7,-402.97"/>
<polygon fill="#8b4513" stroke="#8b4513" points="250.77,-404.72 254.21,-394.7 245.28,-400.39 250.77,-404.72"/>
</g>
<!-- libncursesw.so=6&#45;64 -->
<g id="node18" class="node">
<title>libncursesw.so=6&#45;64</title>
<ellipse fill="green" stroke="green" cx="325" cy="-450" rx="83.69" ry="18"/>
<text text-anchor="middle" x="325" y="-446.3" font-family="Times,serif" font-size="14.00">libncursesw.so=6&#45;64</text>
</g>
<!-- readline&#45;&gt;libncursesw.so=6&#45;64 -->
<g id="edge21" class="edge">
<title>readline&#45;&gt;libncursesw.so=6&#45;64</title>
<path fill="none" stroke="#8b4513" d="M306.81,-504.05C309.51,-496.18 312.79,-486.62 315.81,-477.79"/>
<polygon fill="#8b4513" stroke="#8b4513" points="319.14,-478.87 319.08,-468.28 312.52,-476.6 319.14,-478.87"/>
</g>
<!-- ncurses&#45;&gt;gcc&#45;libs -->
<g id="edge20" class="edge">
<title>ncurses&#45;&gt;gcc&#45;libs</title>
<path fill="none" stroke="#8b4513" d="M244.79,-364.16C223.99,-353.13 193.78,-337.11 170.63,-324.83"/>
<polygon fill="#8b4513" stroke="#8b4513" points="171.98,-321.59 161.5,-319.99 168.7,-327.77 171.98,-321.59"/>
</g>
<!-- ncurses&#45;&gt;glibc -->
<g id="edge19" class="edge">
<title>ncurses&#45;&gt;glibc</title>
<path fill="none" stroke="#8b4513" d="M285.2,-361.81C317.35,-332.04 392.07,-264.69 461,-216 480.17,-202.46 502.96,-189.06 520.81,-179.12"/>
<polygon fill="#8b4513" stroke="#8b4513" points="522.58,-182.15 529.65,-174.26 519.21,-176.01 522.58,-182.15"/>
</g>
<!-- libncursesw.so=6&#45;64&#45;&gt;ncurses -->
<g id="edge22" class="edge">
<title>libncursesw.so=6&#45;64&#45;&gt;ncurses</title>
<path fill="none" stroke="grey" d="M311.44,-432.05C302.51,-420.89 290.87,-406.34 282.05,-395.31"/>
</g>
<!-- pcre -->
<g id="node20" class="node">
<title>pcre</title>
<ellipse fill="green" stroke="green" cx="387" cy="-882" rx="27" ry="18"/>
<text text-anchor="middle" x="387" y="-878.3" font-family="Times,serif" font-size="14.00">pcre</text>
</g>
<!-- glib2&#45;&gt;pcre -->
<g id="edge26" class="edge">
<title>glib2&#45;&gt;pcre</title>
<path fill="none" stroke="#8b4513" d="M445.67,-938.5C435.18,-928.58 421.11,-915.26 409.37,-904.16"/>
<polygon fill="#8b4513" stroke="#8b4513" points="411.73,-901.58 402.06,-897.25 406.92,-906.66 411.73,-901.58"/>
</g>
<!-- zlib -->
<g id="node21" class="node">
<title>zlib</title>
<ellipse fill="green" stroke="green" cx="507" cy="-810" rx="27" ry="18"/>
<text text-anchor="middle" x="507" y="-806.3" font-family="Times,serif" font-size="14.00">zlib</text>
</g>
<!-- glib2&#45;&gt;zlib -->
<g id="edge38" class="edge">
<title>glib2&#45;&gt;zlib</title>
<path fill="none" stroke="#8b4513" d="M459.03,-935.99C457.57,-917.62 457.12,-887.78 466,-864 470.24,-852.65 477.81,-841.77 485.3,-832.85"/>
<polygon fill="#8b4513" stroke="#8b4513" points="488.03,-835.05 492.07,-825.25 482.8,-830.39 488.03,-835.05"/>
</g>
<!-- libffi -->
<g id="node23" class="node">
<title>libffi</title>
<ellipse fill="green" stroke="green" cx="662" cy="-594" rx="27.9" ry="18"/>
<text text-anchor="middle" x="662" y="-590.3" font-family="Times,serif" font-size="14.00">libffi</text>
</g>
<!-- glib2&#45;&gt;libffi -->
<g id="edge35" class="edge">
<title>glib2&#45;&gt;libffi</title>
<path fill="none" stroke="#8b4513" d="M488.98,-949.46C539.39,-942.52 642.52,-925.52 667,-900 695,-870.81 686,-851.45 686,-811 686,-811 686,-811 686,-737 686,-696.43 676.36,-650.24 669.3,-621.85"/>
<polygon fill="#8b4513" stroke="#8b4513" points="672.62,-620.71 666.74,-611.89 665.84,-622.45 672.62,-620.71"/>
</g>
<!-- libutil&#45;linux -->
<g id="node24" class="node">
<title>libutil&#45;linux</title>
<ellipse fill="green" stroke="green" cx="605" cy="-810" rx="52.79" ry="18"/>
<text text-anchor="middle" x="605" y="-806.3" font-family="Times,serif" font-size="14.00">libutil&#45;linux</text>
</g>
<!-- glib2&#45;&gt;libutil&#45;linux -->
<g id="edge37" class="edge">
<title>glib2&#45;&gt;libutil&#45;linux</title>
<path fill="none" stroke="#8b4513" d="M464.52,-935.96C469.33,-916.46 479.65,-884.55 499,-864 514.95,-847.06 537.5,-834.74 557.69,-826.27"/>
<polygon fill="#8b4513" stroke="#8b4513" points="559.08,-829.49 567.08,-822.53 556.49,-822.98 559.08,-829.49"/>
</g>
<!-- libmount.so=1&#45;64 -->
<g id="node25" class="node">
<title>libmount.so=1&#45;64</title>
<ellipse fill="green" stroke="green" cx="583" cy="-882" rx="74.99" ry="18"/>
<text text-anchor="middle" x="583" y="-878.3" font-family="Times,serif" font-size="14.00">libmount.so=1&#45;64</text>
</g>
<!-- glib2&#45;&gt;libmount.so=1&#45;64 -->
<g id="edge39" class="edge">
<title>glib2&#45;&gt;libmount.so=1&#45;64</title>
<path fill="none" stroke="#8b4513" d="M481.42,-941.28C499.11,-931.14 525.13,-916.21 546.4,-904"/>
<polygon fill="#8b4513" stroke="#8b4513" points="548.26,-906.97 555.19,-898.96 544.78,-900.9 548.26,-906.97"/>
</g>
<!-- pcre&#45;&gt;gcc&#45;libs -->
<g id="edge27" class="edge">
<title>pcre&#45;&gt;gcc&#45;libs</title>
<path fill="none" stroke="#8b4513" d="M381.86,-864.09C376.24,-846.05 366.75,-816.73 357,-792 286.57,-613.32 185.58,-405.27 150,-333.17"/>
<polygon fill="#8b4513" stroke="#8b4513" points="153,-331.33 145.43,-323.91 146.72,-334.43 153,-331.33"/>
</g>
<!-- pcre&#45;&gt;bash -->
<g id="edge34" class="edge">
<title>pcre&#45;&gt;bash</title>
<path fill="none" stroke="#8b4513" d="M401.49,-866.57C410.61,-856.6 421.79,-842.55 428,-828 446.83,-783.86 451.24,-727.44 452.07,-694.45"/>
<polygon fill="#8b4513" stroke="#8b4513" points="455.58,-694.27 452.24,-684.22 448.58,-694.16 455.58,-694.27"/>
</g>
<!-- pcre&#45;&gt;readline -->
<g id="edge28" class="edge">
<title>pcre&#45;&gt;readline</title>
<path fill="none" stroke="#8b4513" d="M391.29,-863.87C397.99,-833.68 408.39,-769.53 390,-720 367.96,-660.62 319.04,-671.38 297,-612 289.62,-592.12 291.29,-568.01 294.44,-549.9"/>
<polygon fill="#8b4513" stroke="#8b4513" points="297.89,-550.5 296.4,-540.01 291.02,-549.13 297.89,-550.5"/>
</g>
<!-- pcre&#45;&gt;zlib -->
<g id="edge29" class="edge">
<title>pcre&#45;&gt;zlib</title>
<path fill="none" stroke="#8b4513" d="M406.82,-869.44C426.27,-858.09 456.16,-840.66 478.23,-827.78"/>
<polygon fill="#8b4513" stroke="#8b4513" points="480.28,-830.64 487.16,-822.58 476.75,-824.59 480.28,-830.64"/>
</g>
<!-- bzip2 -->
<g id="node22" class="node">
<title>bzip2</title>
<ellipse fill="green" stroke="green" cx="317" cy="-810" rx="30.59" ry="18"/>
<text text-anchor="middle" x="317" y="-806.3" font-family="Times,serif" font-size="14.00">bzip2</text>
</g>
<!-- pcre&#45;&gt;bzip2 -->
<g id="edge31" class="edge">
<title>pcre&#45;&gt;bzip2</title>
<path fill="none" stroke="#8b4513" d="M372.5,-866.5C362.86,-856.86 350.04,-844.04 339.14,-833.14"/>
<polygon fill="#8b4513" stroke="#8b4513" points="341.51,-830.56 331.97,-825.97 336.56,-835.51 341.51,-830.56"/>
</g>
<!-- zlib&#45;&gt;glibc -->
<g id="edge30" class="edge">
<title>zlib&#45;&gt;glibc</title>
<path fill="none" stroke="#8b4513" d="M522.04,-794.83C545.71,-770.92 589,-719.95 589,-667 589,-667 589,-667 589,-305 589,-263.41 573.6,-217.22 562.4,-189.14"/>
<polygon fill="#8b4513" stroke="#8b4513" points="565.55,-187.58 558.51,-179.66 559.07,-190.24 565.55,-187.58"/>
</g>
<!-- bzip2&#45;&gt;glibc -->
<g id="edge32" class="edge">
<title>bzip2&#45;&gt;glibc</title>
<path fill="none" stroke="#8b4513" d="M339.88,-797.77C376.06,-778.95 446.6,-737.75 488,-684 534.88,-623.12 551,-599.84 551,-523 551,-523 551,-523 551,-305 551,-265 551,-218.65 551,-190.08"/>
<polygon fill="#8b4513" stroke="#8b4513" points="554.5,-190.05 551,-180.05 547.5,-190.05 554.5,-190.05"/>
</g>
<!-- bzip2&#45;&gt;sh -->
<g id="edge33" class="edge">
<title>bzip2&#45;&gt;sh</title>
<path fill="none" stroke="#8b4513" d="M303.91,-793.46C296.08,-784.18 286.01,-772.23 277.29,-761.88"/>
<polygon fill="#8b4513" stroke="#8b4513" points="279.77,-759.4 270.65,-754.01 274.42,-763.91 279.77,-759.4"/>
</g>
<!-- libffi&#45;&gt;glibc -->
<g id="edge36" class="edge">
<title>libffi&#45;&gt;glibc</title>
<path fill="none" stroke="#8b4513" d="M658.05,-576.06C652.22,-549.55 642,-496.56 642,-451 642,-451 642,-451 642,-305 642,-255.43 602.21,-209.32 575.25,-183.78"/>
<polygon fill="#8b4513" stroke="#8b4513" points="577.42,-181.02 567.69,-176.83 572.68,-186.17 577.42,-181.02"/>
</g>
<!-- libmount.so=1&#45;64&#45;&gt;libutil&#45;linux -->
<g id="edge40" class="edge">
<title>libmount.so=1&#45;64&#45;&gt;libutil&#45;linux</title>
<path fill="none" stroke="grey" d="M588.44,-863.7C591.85,-852.85 596.23,-838.92 599.62,-828.1"/>
</g>
<!-- libunistring&#45;&gt;glibc -->
<g id="edge42" class="edge">
<title>libunistring&#45;&gt;glibc</title>
<path fill="none" stroke="#8b4513" d="M803.21,-719.96C802.04,-693.3 800,-640.13 800,-595 800,-595 800,-595 800,-305 800,-209.15 659.04,-177.15 589.24,-167.18"/>
<polygon fill="#8b4513" stroke="#8b4513" points="589.46,-163.67 579.08,-165.81 588.52,-170.61 589.46,-163.67"/>
</g>
<!-- libcroco&#45;&gt;glib2 -->
<g id="edge44" class="edge">
<title>libcroco&#45;&gt;glib2</title>
<path fill="none" stroke="#8b4513" d="M408.43,-1009.12C417.64,-999.64 429.47,-987.46 439.57,-977.06"/>
<polygon fill="#8b4513" stroke="#8b4513" points="442.1,-979.48 446.56,-969.86 437.08,-974.6 442.1,-979.48"/>
</g>
<!-- libxml2 -->
<g id="node28" class="node">
<title>libxml2</title>
<ellipse fill="green" stroke="green" cx="162" cy="-882" rx="38.19" ry="18"/>
<text text-anchor="middle" x="162" y="-878.3" font-family="Times,serif" font-size="14.00">libxml2</text>
</g>
<!-- libcroco&#45;&gt;libxml2 -->
<g id="edge45" class="edge">
<title>libcroco&#45;&gt;libxml2</title>
<path fill="none" stroke="#8b4513" d="M370.43,-1011.13C328.84,-985.56 240.04,-930.97 192.89,-901.99"/>
<polygon fill="#8b4513" stroke="#8b4513" points="194.67,-898.98 184.32,-896.72 191.01,-904.94 194.67,-898.98"/>
</g>
<!-- libxml2&#45;&gt;readline -->
<g id="edge47" class="edge">
<title>libxml2&#45;&gt;readline</title>
<path fill="none" stroke="#8b4513" d="M136.41,-868.35C121.34,-859.37 103.59,-845.76 95,-828 88.03,-813.6 89.86,-807.15 95,-792 131.23,-685.09 228.9,-587.31 275.54,-545.04"/>
<polygon fill="#8b4513" stroke="#8b4513" points="277.98,-547.55 283.1,-538.27 273.31,-542.34 277.98,-547.55"/>
</g>
<!-- libxml2&#45;&gt;ncurses -->
<g id="edge48" class="edge">
<title>libxml2&#45;&gt;ncurses</title>
<path fill="none" stroke="#8b4513" d="M134.21,-869.48C117.21,-860.81 96.9,-847.11 87,-828 79.64,-813.79 84.84,-807.85 87,-792 103.15,-673.52 196.92,-478.75 225,-432 231.22,-421.64 239.39,-411.2 247,-402.36"/>
<polygon fill="#8b4513" stroke="#8b4513" points="249.74,-404.54 253.75,-394.73 244.5,-399.9 249.74,-404.54"/>
</g>
<!-- libxml2&#45;&gt;zlib -->
<g id="edge46" class="edge">
<title>libxml2&#45;&gt;zlib</title>
<path fill="none" stroke="#8b4513" d="M196.66,-873.97C262.51,-860.61 405.06,-831.68 471.53,-818.2"/>
<polygon fill="#8b4513" stroke="#8b4513" points="472.42,-821.59 481.52,-816.17 471.03,-814.73 472.42,-821.59"/>
</g>
<!-- xz -->
<g id="node29" class="node">
<title>xz</title>
<ellipse fill="green" stroke="green" cx="203" cy="-810" rx="27" ry="18"/>
<text text-anchor="middle" x="203" y="-806.3" font-family="Times,serif" font-size="14.00">xz</text>
</g>
<!-- libxml2&#45;&gt;xz -->
<g id="edge49" class="edge">
<title>libxml2&#45;&gt;xz</title>
<path fill="none" stroke="#8b4513" d="M171.72,-864.41C176.74,-855.83 182.97,-845.19 188.55,-835.67"/>
<polygon fill="#8b4513" stroke="#8b4513" points="191.6,-837.39 193.64,-826.99 185.56,-833.85 191.6,-837.39"/>
</g>
<!-- icu -->
<g id="node30" class="node">
<title>icu</title>
<ellipse fill="green" stroke="green" cx="131" cy="-810" rx="27" ry="18"/>
<text text-anchor="middle" x="131" y="-806.3" font-family="Times,serif" font-size="14.00">icu</text>
</g>
<!-- libxml2&#45;&gt;icu -->
<g id="edge51" class="edge">
<title>libxml2&#45;&gt;icu</title>
<path fill="none" stroke="#8b4513" d="M154.5,-864.05C150.92,-855.97 146.55,-846.12 142.56,-837.11"/>
<polygon fill="#8b4513" stroke="#8b4513" points="145.68,-835.52 138.44,-827.79 139.28,-838.35 145.68,-835.52"/>
</g>
<!-- xz&#45;&gt;sh -->
<g id="edge50" class="edge">
<title>xz&#45;&gt;sh</title>
<path fill="none" stroke="#8b4513" d="M214.93,-793.81C222.21,-784.55 231.66,-772.52 239.85,-762.09"/>
<polygon fill="#8b4513" stroke="#8b4513" points="242.66,-764.18 246.09,-754.16 237.16,-759.86 242.66,-764.18"/>
</g>
<!-- icu&#45;&gt;gcc&#45;libs -->
<g id="edge52" class="edge">
<title>icu&#45;&gt;gcc&#45;libs</title>
<path fill="none" stroke="#8b4513" d="M130.46,-791.97C128.91,-742.15 124.46,-592.35 123,-468 122.44,-420 116.82,-407.6 123,-360 124.13,-351.28 126.27,-341.95 128.54,-333.58"/>
<polygon fill="#8b4513" stroke="#8b4513" points="131.91,-334.54 131.32,-323.96 125.18,-332.6 131.91,-334.54"/>
</g>
<!-- icu&#45;&gt;sh -->
<g id="edge53" class="edge">
<title>icu&#45;&gt;sh</title>
<path fill="none" stroke="#8b4513" d="M151.12,-797.91C171.99,-786.41 204.84,-768.3 228.61,-755.2"/>
<polygon fill="#8b4513" stroke="#8b4513" points="230.48,-758.16 237.55,-750.27 227.1,-752.03 230.48,-758.16"/>
</g>
</g>
</svg>
