<?xml version="1.0" encoding="UTF-8" standalone="no"?>
<!DOCTYPE svg PUBLIC "-//W3C//DTD SVG 1.1//EN"
 "http://www.w3.org/Graphics/SVG/1.1/DTD/svg11.dtd">
<!-- Generated by graphviz version 2.44.0 (0)
 -->
<!-- Title: G Pages: 1 -->
<svg width="747pt" height="1052pt"
 viewBox="0.00 0.00 746.79 1052.00" xmlns="http://www.w3.org/2000/svg" xmlns:xlink="http://www.w3.org/1999/xlink">
<g id="graph0" class="graph" transform="scale(1 1) rotate(0) translate(4 1048)">
<title>G</title>
<polygon fill="white" stroke="transparent" points="-4,4 -4,-1048 742.79,-1048 742.79,4 -4,4"/>
<!-- START -->
<g id="node1" class="node">
<title>START</title>
<ellipse fill="red" stroke="red" cx="532.14" cy="-1026" rx="38.19" ry="18"/>
<text text-anchor="middle" x="532.14" y="-1022.3" font-family="Times,serif" font-size="14.00">START</text>
</g>
<!-- glib2 -->
<g id="node2" class="node">
<title>glib2</title>
<ellipse fill="green" stroke="green" cx="532.14" cy="-954" rx="28.7" ry="18"/>
<text text-anchor="middle" x="532.14" y="-950.3" font-family="Times,serif" font-size="14.00">glib2</text>
</g>
<!-- START&#45;&gt;glib2 -->
<g id="edge1" class="edge">
<title>START&#45;&gt;glib2</title>
<path fill="none" stroke="black" d="M532.14,-1007.7C532.14,-999.98 532.14,-990.71 532.14,-982.11"/>
<polygon fill="black" stroke="black" points="535.64,-982.1 532.14,-972.1 528.64,-982.1 535.64,-982.1"/>
</g>
<!-- pcre -->
<g id="node3" class="node">
<title>pcre</title>
<ellipse fill="green" stroke="green" cx="400.14" cy="-882" rx="27" ry="18"/>
<text text-anchor="middle" x="400.14" y="-878.3" font-family="Times,serif" font-size="14.00">pcre</text>
</g>
<!-- glib2&#45;&gt;pcre -->
<g id="edge2" class="edge">
<title>glib2&#45;&gt;pcre</title>
<path fill="none" stroke="#8b4513" d="M510.93,-941.75C488.96,-930.1 454.45,-911.8 429.79,-898.72"/>
<polygon fill="#8b4513" stroke="#8b4513" points="431.34,-895.58 420.86,-893.99 428.06,-901.77 431.34,-895.58"/>
</g>
<!-- zlib -->
<g id="node15" class="node">
<title>zlib</title>
<ellipse fill="green" stroke="green" cx="477.14" cy="-810" rx="27" ry="18"/>
<text text-anchor="middle" x="477.14" y="-806.3" font-family="Times,serif" font-size="14.00">zlib</text>
</g>
<!-- glib2&#45;&gt;zlib -->
<g id="edge32" class="edge">
<title>glib2&#45;&gt;zlib</title>
<path fill="none" stroke="#8b4513" d="M525.72,-936.43C516.29,-912.09 498.6,-866.4 487.37,-837.4"/>
<polygon fill="#8b4513" stroke="#8b4513" points="490.56,-835.96 483.69,-827.9 484.04,-838.49 490.56,-835.96"/>
</g>
<!-- libffi -->
<g id="node20" class="node">
<title>libffi</title>
<ellipse fill="green" stroke="green" cx="532.14" cy="-738" rx="27.9" ry="18"/>
<text text-anchor="middle" x="532.14" y="-734.3" font-family="Times,serif" font-size="14.00">libffi</text>
</g>
<!-- glib2&#45;&gt;libffi -->
<g id="edge29" class="edge">
<title>glib2&#45;&gt;libffi</title>
<path fill="none" stroke="#8b4513" d="M532.14,-935.85C532.14,-898.83 532.14,-811.18 532.14,-766.39"/>
<polygon fill="#8b4513" stroke="#8b4513" points="535.64,-766.23 532.14,-756.23 528.64,-766.23 535.64,-766.23"/>
</g>
<!-- libutil&#45;linux -->
<g id="node21" class="node">
<title>libutil&#45;linux</title>
<ellipse fill="green" stroke="green" cx="686.14" cy="-810" rx="52.79" ry="18"/>
<text text-anchor="middle" x="686.14" y="-806.3" font-family="Times,serif" font-size="14.00">libutil&#45;linux</text>
</g>
<!-- glib2&#45;&gt;libutil&#45;linux -->
<g id="edge31" class="edge">
<title>glib2&#45;&gt;libutil&#45;linux</title>
<path fill="none" stroke="#8b4513" d="M559.91,-949.24C607.15,-942.2 699.91,-925.44 719.14,-900 733.62,-880.85 720.93,-854.67 707.31,-835.67"/>
<polygon fill="#8b4513" stroke="#8b4513" points="709.92,-833.32 701.08,-827.49 704.35,-837.57 709.92,-833.32"/>
</g>
<!-- libmount.so=1&#45;64 -->
<g id="node22" class="node">
<title>libmount.so=1&#45;64</title>
<ellipse fill="green" stroke="green" cx="635.14" cy="-882" rx="74.99" ry="18"/>
<text text-anchor="middle" x="635.14" y="-878.3" font-family="Times,serif" font-size="14.00">libmount.so=1&#45;64</text>
</g>
<!-- glib2&#45;&gt;libmount.so=1&#45;64 -->
<g id="edge33" class="edge">
<title>glib2&#45;&gt;libmount.so=1&#45;64</title>
<path fill="none" stroke="#8b4513" d="M551.03,-940.16C565.47,-930.35 585.73,-916.58 602.74,-905.02"/>
<polygon fill="#8b4513" stroke="#8b4513" points="604.99,-907.72 611.29,-899.21 601.05,-901.93 604.99,-907.72"/>
</g>
<!-- gcc&#45;libs -->
<g id="node4" class="node">
<title>gcc&#45;libs</title>
<ellipse fill="green" stroke="green" cx="329.14" cy="-306" rx="38.19" ry="18"/>
<text text-anchor="middle" x="329.14" y="-302.3" font-family="Times,serif" font-size="14.00">gcc&#45;libs</text>
</g>
<!-- pcre&#45;&gt;gcc&#45;libs -->
<g id="edge3" class="edge">
<title>pcre&#45;&gt;gcc&#45;libs</title>
<path fill="none" stroke="#8b4513" d="M403.13,-863.89C413.06,-803.51 441.93,-595.25 399.14,-432 389.2,-394.07 364.96,-355.46 347.8,-331.38"/>
<polygon fill="#8b4513" stroke="#8b4513" points="350.55,-329.22 341.84,-323.2 344.9,-333.34 350.55,-329.22"/>
</g>
<!-- readline -->
<g id="node12" class="node">
<title>readline</title>
<ellipse fill="green" stroke="green" cx="288.14" cy="-522" rx="38.99" ry="18"/>
<text text-anchor="middle" x="288.14" y="-518.3" font-family="Times,serif" font-size="14.00">readline</text>
</g>
<!-- pcre&#45;&gt;readline -->
<g id="edge11" class="edge">
<title>pcre&#45;&gt;readline</title>
<path fill="none" stroke="#8b4513" d="M394.02,-864.21C384.98,-837.9 369.14,-785.18 369.14,-739 369.14,-739 369.14,-739 369.14,-665 369.14,-624.25 368.11,-610.94 347.14,-576 339.69,-563.58 328.4,-552.42 317.68,-543.58"/>
<polygon fill="#8b4513" stroke="#8b4513" points="319.7,-540.71 309.67,-537.29 315.38,-546.22 319.7,-540.71"/>
</g>
<!-- pcre&#45;&gt;zlib -->
<g id="edge18" class="edge">
<title>pcre&#45;&gt;zlib</title>
<path fill="none" stroke="#8b4513" d="M415.72,-866.83C426.75,-856.81 441.73,-843.19 454.13,-831.92"/>
<polygon fill="#8b4513" stroke="#8b4513" points="456.8,-834.22 461.85,-824.91 452.09,-829.04 456.8,-834.22"/>
</g>
<!-- bzip2 -->
<g id="node16" class="node">
<title>bzip2</title>
<ellipse fill="green" stroke="green" cx="193.14" cy="-810" rx="30.59" ry="18"/>
<text text-anchor="middle" x="193.14" y="-806.3" font-family="Times,serif" font-size="14.00">bzip2</text>
</g>
<!-- pcre&#45;&gt;bzip2 -->
<g id="edge20" class="edge">
<title>pcre&#45;&gt;bzip2</title>
<path fill="none" stroke="#8b4513" d="M376.4,-872.97C340.22,-860.74 271.05,-837.34 228.81,-823.06"/>
<polygon fill="#8b4513" stroke="#8b4513" points="229.79,-819.7 219.2,-819.81 227.55,-826.33 229.79,-819.7"/>
</g>
<!-- bash -->
<g id="node18" class="node">
<title>bash</title>
<ellipse fill="green" stroke="green" cx="193.14" cy="-666" rx="27" ry="18"/>
<text text-anchor="middle" x="193.14" y="-662.3" font-family="Times,serif" font-size="14.00">bash</text>
</g>
<!-- pcre&#45;&gt;bash -->
<g id="edge28" class="edge">
<title>pcre&#45;&gt;bash</title>
<path fill="none" stroke="#8b4513" d="M385.91,-866.29C350.15,-829.32 256.37,-732.37 214.21,-688.78"/>
<polygon fill="#8b4513" stroke="#8b4513" points="216.66,-686.28 207.2,-681.53 211.63,-691.15 216.66,-686.28"/>
</g>
<!-- glibc&gt;=2.27 -->
<g id="node5" class="node">
<title>glibc&gt;=2.27</title>
<ellipse fill="green" stroke="green" cx="329.14" cy="-234" rx="54.69" ry="18"/>
<text text-anchor="middle" x="329.14" y="-230.3" font-family="Times,serif" font-size="14.00">glibc&gt;=2.27</text>
</g>
<!-- gcc&#45;libs&#45;&gt;glibc&gt;=2.27 -->
<g id="edge4" class="edge">
<title>gcc&#45;libs&#45;&gt;glibc&gt;=2.27</title>
<path fill="none" stroke="#8b4513" d="M329.14,-287.7C329.14,-279.98 329.14,-270.71 329.14,-262.11"/>
<polygon fill="#8b4513" stroke="#8b4513" points="332.64,-262.1 329.14,-252.1 325.64,-262.1 332.64,-262.1"/>
</g>
<!-- glibc -->
<g id="node6" class="node">
<title>glibc</title>
<ellipse fill="green" stroke="green" cx="246.14" cy="-162" rx="28.7" ry="18"/>
<text text-anchor="middle" x="246.14" y="-158.3" font-family="Times,serif" font-size="14.00">glibc</text>
</g>
<!-- glibc&gt;=2.27&#45;&gt;glibc -->
<g id="edge5" class="edge">
<title>glibc&gt;=2.27&#45;&gt;glibc</title>
<path fill="none" stroke="grey" d="M309.89,-216.76C295.52,-204.65 276.11,-188.27 262.49,-176.79"/>
</g>
<!-- linux&#45;api&#45;headers&gt;=4.10 -->
<g id="node7" class="node">
<title>linux&#45;api&#45;headers&gt;=4.10</title>
<ellipse fill="green" stroke="green" cx="98.14" cy="-90" rx="98.28" ry="18"/>
<text text-anchor="middle" x="98.14" y="-86.3" font-family="Times,serif" font-size="14.00">linux&#45;api&#45;headers&gt;=4.10</text>
</g>
<!-- glibc&#45;&gt;linux&#45;api&#45;headers&gt;=4.10 -->
<g id="edge6" class="edge">
<title>glibc&#45;&gt;linux&#45;api&#45;headers&gt;=4.10</title>
<path fill="none" stroke="#8b4513" d="M223.98,-150.52C202.2,-140.22 168.37,-124.22 141.27,-111.4"/>
<polygon fill="#8b4513" stroke="#8b4513" points="142.53,-108.12 132,-107.01 139.54,-114.45 142.53,-108.12"/>
</g>
<!-- tzdata -->
<g id="node9" class="node">
<title>tzdata</title>
<ellipse fill="green" stroke="green" cx="246.14" cy="-90" rx="31.7" ry="18"/>
<text text-anchor="middle" x="246.14" y="-86.3" font-family="Times,serif" font-size="14.00">tzdata</text>
</g>
<!-- glibc&#45;&gt;tzdata -->
<g id="edge8" class="edge">
<title>glibc&#45;&gt;tzdata</title>
<path fill="none" stroke="#8b4513" d="M246.14,-143.7C246.14,-135.98 246.14,-126.71 246.14,-118.11"/>
<polygon fill="#8b4513" stroke="#8b4513" points="249.64,-118.1 246.14,-108.1 242.64,-118.1 249.64,-118.1"/>
</g>
<!-- filesystem -->
<g id="node10" class="node">
<title>filesystem</title>
<ellipse fill="green" stroke="green" cx="343.14" cy="-90" rx="46.59" ry="18"/>
<text text-anchor="middle" x="343.14" y="-86.3" font-family="Times,serif" font-size="14.00">filesystem</text>
</g>
<!-- glibc&#45;&gt;filesystem -->
<g id="edge9" class="edge">
<title>glibc&#45;&gt;filesystem</title>
<path fill="none" stroke="#8b4513" d="M264.39,-147.83C278.19,-137.88 297.42,-123.99 313.43,-112.44"/>
<polygon fill="#8b4513" stroke="#8b4513" points="315.88,-114.99 321.94,-106.3 311.78,-109.31 315.88,-114.99"/>
</g>
<!-- linux&#45;api&#45;headers -->
<g id="node8" class="node">
<title>linux&#45;api&#45;headers</title>
<ellipse fill="green" stroke="green" cx="98.14" cy="-18" rx="71.49" ry="18"/>
<text text-anchor="middle" x="98.14" y="-14.3" font-family="Times,serif" font-size="14.00">linux&#45;api&#45;headers</text>
</g>
<!-- linux&#45;api&#45;headers&gt;=4.10&#45;&gt;linux&#45;api&#45;headers -->
<g id="edge7" class="edge">
<title>linux&#45;api&#45;headers&gt;=4.10&#45;&gt;linux&#45;api&#45;headers</title>
<path fill="none" stroke="grey" d="M98.14,-71.7C98.14,-60.85 98.14,-46.92 98.14,-36.1"/>
</g>
<!-- iana&#45;etc -->
<g id="node11" class="node">
<title>iana&#45;etc</title>
<ellipse fill="green" stroke="green" cx="343.14" cy="-18" rx="38.19" ry="18"/>
<text text-anchor="middle" x="343.14" y="-14.3" font-family="Times,serif" font-size="14.00">iana&#45;etc</text>
</g>
<!-- filesystem&#45;&gt;iana&#45;etc -->
<g id="edge10" class="edge">
<title>filesystem&#45;&gt;iana&#45;etc</title>
<path fill="none" stroke="#8b4513" d="M343.14,-71.7C343.14,-63.98 343.14,-54.71 343.14,-46.11"/>
<polygon fill="#8b4513" stroke="#8b4513" points="346.64,-46.1 343.14,-36.1 339.64,-46.1 346.64,-46.1"/>
</g>
<!-- readline&#45;&gt;glibc -->
<g id="edge12" class="edge">
<title>readline&#45;&gt;glibc</title>
<path fill="none" stroke="#8b4513" d="M259.57,-509.44C216.05,-489.71 138.14,-445.16 138.14,-379 138.14,-379 138.14,-379 138.14,-305 138.14,-251.69 186.96,-205.87 218.95,-181.57"/>
<polygon fill="#8b4513" stroke="#8b4513" points="221.11,-184.34 227.08,-175.59 216.96,-178.7 221.11,-184.34"/>
</g>
<!-- ncurses -->
<g id="node13" class="node">
<title>ncurses</title>
<ellipse fill="green" stroke="green" cx="288.14" cy="-378" rx="37.09" ry="18"/>
<text text-anchor="middle" x="288.14" y="-374.3" font-family="Times,serif" font-size="14.00">ncurses</text>
</g>
<!-- readline&#45;&gt;ncurses -->
<g id="edge13" class="edge">
<title>readline&#45;&gt;ncurses</title>
<path fill="none" stroke="#8b4513" d="M320.53,-511.9C341.86,-504.04 368.16,-490.33 381.14,-468 389.18,-454.17 389.18,-445.83 381.14,-432 369.83,-412.53 348.39,-399.62 328.94,-391.42"/>
<polygon fill="#8b4513" stroke="#8b4513" points="330.2,-388.15 319.61,-387.76 327.65,-394.67 330.2,-388.15"/>
</g>
<!-- libncursesw.so=6&#45;64 -->
<g id="node14" class="node">
<title>libncursesw.so=6&#45;64</title>
<ellipse fill="green" stroke="green" cx="288.14" cy="-450" rx="83.69" ry="18"/>
<text text-anchor="middle" x="288.14" y="-446.3" font-family="Times,serif" font-size="14.00">libncursesw.so=6&#45;64</text>
</g>
<!-- readline&#45;&gt;libncursesw.so=6&#45;64 -->
<g id="edge16" class="edge">
<title>readline&#45;&gt;libncursesw.so=6&#45;64</title>
<path fill="none" stroke="#8b4513" d="M288.14,-503.7C288.14,-495.98 288.14,-486.71 288.14,-478.11"/>
<polygon fill="#8b4513" stroke="#8b4513" points="291.64,-478.1 288.14,-468.1 284.64,-478.1 291.64,-478.1"/>
</g>
<!-- ncurses&#45;&gt;gcc&#45;libs -->
<g id="edge15" class="edge">
<title>ncurses&#45;&gt;gcc&#45;libs</title>
<path fill="none" stroke="#8b4513" d="M297.86,-360.41C302.76,-352.04 308.81,-341.71 314.28,-332.37"/>
<polygon fill="#8b4513" stroke="#8b4513" points="317.46,-333.87 319.49,-323.47 311.42,-330.33 317.46,-333.87"/>
</g>
<!-- ncurses&#45;&gt;glibc -->
<g id="edge14" class="edge">
<title>ncurses&#45;&gt;glibc</title>
<path fill="none" stroke="#8b4513" d="M284.78,-359.85C277.48,-322.66 260.15,-234.37 251.4,-189.77"/>
<polygon fill="#8b4513" stroke="#8b4513" points="254.83,-189.07 249.47,-179.94 247.96,-190.42 254.83,-189.07"/>
</g>
<!-- libncursesw.so=6&#45;64&#45;&gt;ncurses -->
<g id="edge17" class="edge">
<title>libncursesw.so=6&#45;64&#45;&gt;ncurses</title>
<path fill="none" stroke="grey" d="M288.14,-431.7C288.14,-420.85 288.14,-406.92 288.14,-396.1"/>
</g>
<!-- zlib&#45;&gt;glibc -->
<g id="edge19" class="edge">
<title>zlib&#45;&gt;glibc</title>
<path fill="none" stroke="#8b4513" d="M476.94,-791.95C476.65,-765.29 476.14,-712.12 476.14,-667 476.14,-667 476.14,-667 476.14,-305 476.14,-215.69 349.02,-180.69 283.79,-168.61"/>
<polygon fill="#8b4513" stroke="#8b4513" points="284.34,-165.15 273.88,-166.86 283.13,-172.04 284.34,-165.15"/>
</g>
<!-- bzip2&#45;&gt;glibc -->
<g id="edge21" class="edge">
<title>bzip2&#45;&gt;glibc</title>
<path fill="none" stroke="#8b4513" d="M170.62,-797.78C133.17,-777.33 62.14,-730.22 62.14,-667 62.14,-667 62.14,-667 62.14,-305 62.14,-259.41 78.71,-245.88 113.14,-216 140.76,-192.03 180.57,-178.1 209.44,-170.59"/>
<polygon fill="#8b4513" stroke="#8b4513" points="210.28,-173.99 219.15,-168.2 208.6,-167.19 210.28,-173.99"/>
</g>
<!-- sh -->
<g id="node17" class="node">
<title>sh</title>
<ellipse fill="green" stroke="green" cx="193.14" cy="-738" rx="27" ry="18"/>
<text text-anchor="middle" x="193.14" y="-734.3" font-family="Times,serif" font-size="14.00">sh</text>
</g>
<!-- bzip2&#45;&gt;sh -->
<g id="edge22" class="edge">
<title>bzip2&#45;&gt;sh</title>
<path fill="none" stroke="#8b4513" d="M193.14,-791.7C193.14,-783.98 193.14,-774.71 193.14,-766.11"/>
<polygon fill="#8b4513" stroke="#8b4513" points="196.64,-766.1 193.14,-756.1 189.64,-766.1 196.64,-766.1"/>
</g>
<!-- sh&#45;&gt;bash -->
<g id="edge23" class="edge">
<title>sh&#45;&gt;bash</title>
<path fill="none" stroke="grey" d="M193.14,-719.7C193.14,-708.85 193.14,-694.92 193.14,-684.1"/>
</g>
<!-- bash&#45;&gt;glibc -->
<g id="edge26" class="edge">
<title>bash&#45;&gt;glibc</title>
<path fill="none" stroke="#8b4513" d="M176.51,-651.62C149.76,-628.48 100.14,-578.11 100.14,-523 100.14,-523 100.14,-523 100.14,-305 100.14,-259.63 117.94,-247.96 150.14,-216 167.91,-198.37 192.75,-184.86 212.71,-175.9"/>
<polygon fill="#8b4513" stroke="#8b4513" points="214.27,-179.04 222.06,-171.87 211.5,-172.61 214.27,-179.04"/>
</g>
<!-- bash&#45;&gt;ncurses -->
<g id="edge27" class="edge">
<title>bash&#45;&gt;ncurses</title>
<path fill="none" stroke="#8b4513" d="M188.02,-648.28C176.67,-607.84 153.58,-502.82 195.14,-432 206.54,-412.58 227.98,-399.67 247.41,-391.46"/>
<polygon fill="#8b4513" stroke="#8b4513" points="248.7,-394.71 256.73,-387.8 246.14,-388.19 248.7,-394.71"/>
</g>
<!-- readline&gt;=7.0 -->
<g id="node19" class="node">
<title>readline&gt;=7.0</title>
<ellipse fill="green" stroke="green" cx="277.14" cy="-594" rx="61.19" ry="18"/>
<text text-anchor="middle" x="277.14" y="-590.3" font-family="Times,serif" font-size="14.00">readline&gt;=7.0</text>
</g>
<!-- bash&#45;&gt;readline&gt;=7.0 -->
<g id="edge24" class="edge">
<title>bash&#45;&gt;readline&gt;=7.0</title>
<path fill="none" stroke="#8b4513" d="M209.34,-651.5C220.79,-641.96 236.41,-628.94 249.78,-617.8"/>
<polygon fill="#8b4513" stroke="#8b4513" points="252.31,-620.25 257.75,-611.16 247.83,-614.87 252.31,-620.25"/>
</g>
<!-- readline&gt;=7.0&#45;&gt;readline -->
<g id="edge25" class="edge">
<title>readline&gt;=7.0&#45;&gt;readline</title>
<path fill="none" stroke="grey" d="M279.86,-575.7C281.57,-564.85 283.75,-550.92 285.45,-540.1"/>
</g>
<!-- libffi&#45;&gt;glibc -->
<g id="edge30" class="edge">
<title>libffi&#45;&gt;glibc</title>
<path fill="none" stroke="#8b4513" d="M530.36,-719.97C527.74,-693.34 523.14,-640.21 523.14,-595 523.14,-595 523.14,-595 523.14,-305 523.14,-262.81 522,-243.65 490.14,-216 459.74,-189.61 344.99,-173.61 284.31,-166.82"/>
<polygon fill="#8b4513" stroke="#8b4513" points="284.66,-163.34 274.34,-165.73 283.91,-170.3 284.66,-163.34"/>
</g>
<!-- libmount.so=1&#45;64&#45;&gt;libutil&#45;linux -->
<g id="edge34" class="edge">
<title>libmount.so=1&#45;64&#45;&gt;libutil&#45;linux</title>
<path fill="none" stroke="grey" d="M647.49,-864.05C655.51,-853.05 665.91,-838.76 673.91,-827.79"/>
</g>
</g>
</svg>
