<?xml version="1.0" encoding="UTF-8" standalone="no"?>
<!DOCTYPE svg PUBLIC "-//W3C//DTD SVG 1.1//EN"
 "http://www.w3.org/Graphics/SVG/1.1/DTD/svg11.dtd">
<!-- Generated by graphviz version 2.44.0 (0)
 -->
<!-- Title: G Pages: 1 -->
<svg width="504pt" height="1052pt"
 viewBox="0.00 0.00 504.00 1052.00" xmlns="http://www.w3.org/2000/svg" xmlns:xlink="http://www.w3.org/1999/xlink">
<g id="graph0" class="graph" transform="scale(1 1) rotate(0) translate(4 1048)">
<title>G</title>
<polygon fill="white" stroke="transparent" points="-4,4 -4,-1048 500,-1048 500,4 -4,4"/>
<!-- START -->
<g id="node1" class="node">
<title>START</title>
<ellipse fill="red" stroke="red" cx="80" cy="-1026" rx="38.19" ry="18"/>
<text text-anchor="middle" x="80" y="-1022.3" font-family="Times,serif" font-size="14.00">START</text>
</g>
<!-- grep -->
<g id="node2" class="node">
<title>grep</title>
<ellipse fill="green" stroke="green" cx="80" cy="-954" rx="27" ry="18"/>
<text text-anchor="middle" x="80" y="-950.3" font-family="Times,serif" font-size="14.00">grep</text>
</g>
<!-- START&#45;&gt;grep -->
<g id="edge1" class="edge">
<title>START&#45;&gt;grep</title>
<path fill="none" stroke="black" d="M80,-1007.7C80,-999.98 80,-990.71 80,-982.11"/>
<polygon fill="black" stroke="black" points="83.5,-982.1 80,-972.1 76.5,-982.1 83.5,-982.1"/>
</g>
<!-- glibc -->
<g id="node3" class="node">
<title>glibc</title>
<ellipse fill="green" stroke="green" cx="275" cy="-162" rx="28.7" ry="18"/>
<text text-anchor="middle" x="275" y="-158.3" font-family="Times,serif" font-size="14.00">glibc</text>
</g>
<!-- grep&#45;&gt;glibc -->
<g id="edge2" class="edge">
<title>grep&#45;&gt;glibc</title>
<path fill="none" stroke="#8b4513" d="M65.33,-938.76C42.23,-914.74 0,-863.63 0,-811 0,-811 0,-811 0,-305 0,-199.8 160.86,-172.45 236.52,-165.41"/>
<polygon fill="#8b4513" stroke="#8b4513" points="236.94,-168.89 246.61,-164.55 236.34,-161.91 236.94,-168.89"/>
</g>
<!-- pcre -->
<g id="node9" class="node">
<title>pcre</title>
<ellipse fill="green" stroke="green" cx="179" cy="-882" rx="27" ry="18"/>
<text text-anchor="middle" x="179" y="-878.3" font-family="Times,serif" font-size="14.00">pcre</text>
</g>
<!-- grep&#45;&gt;pcre -->
<g id="edge8" class="edge">
<title>grep&#45;&gt;pcre</title>
<path fill="none" stroke="#8b4513" d="M98.16,-940.16C113.37,-929.41 135.29,-913.91 152.47,-901.76"/>
<polygon fill="#8b4513" stroke="#8b4513" points="154.81,-904.39 160.96,-895.76 150.77,-898.67 154.81,-904.39"/>
</g>
<!-- linux&#45;api&#45;headers&gt;=4.10 -->
<g id="node4" class="node">
<title>linux&#45;api&#45;headers&gt;=4.10</title>
<ellipse fill="green" stroke="green" cx="127" cy="-90" rx="98.28" ry="18"/>
<text text-anchor="middle" x="127" y="-86.3" font-family="Times,serif" font-size="14.00">linux&#45;api&#45;headers&gt;=4.10</text>
</g>
<!-- glibc&#45;&gt;linux&#45;api&#45;headers&gt;=4.10 -->
<g id="edge3" class="edge">
<title>glibc&#45;&gt;linux&#45;api&#45;headers&gt;=4.10</title>
<path fill="none" stroke="#8b4513" d="M252.84,-150.52C231.06,-140.22 197.23,-124.22 170.13,-111.4"/>
<polygon fill="#8b4513" stroke="#8b4513" points="171.39,-108.12 160.85,-107.01 168.4,-114.45 171.39,-108.12"/>
</g>
<!-- tzdata -->
<g id="node6" class="node">
<title>tzdata</title>
<ellipse fill="green" stroke="green" cx="275" cy="-90" rx="31.7" ry="18"/>
<text text-anchor="middle" x="275" y="-86.3" font-family="Times,serif" font-size="14.00">tzdata</text>
</g>
<!-- glibc&#45;&gt;tzdata -->
<g id="edge5" class="edge">
<title>glibc&#45;&gt;tzdata</title>
<path fill="none" stroke="#8b4513" d="M275,-143.7C275,-135.98 275,-126.71 275,-118.11"/>
<polygon fill="#8b4513" stroke="#8b4513" points="278.5,-118.1 275,-108.1 271.5,-118.1 278.5,-118.1"/>
</g>
<!-- filesystem -->
<g id="node7" class="node">
<title>filesystem</title>
<ellipse fill="green" stroke="green" cx="372" cy="-90" rx="46.59" ry="18"/>
<text text-anchor="middle" x="372" y="-86.3" font-family="Times,serif" font-size="14.00">filesystem</text>
</g>
<!-- glibc&#45;&gt;filesystem -->
<g id="edge6" class="edge">
<title>glibc&#45;&gt;filesystem</title>
<path fill="none" stroke="#8b4513" d="M293.24,-147.83C307.04,-137.88 326.28,-123.99 342.29,-112.44"/>
<polygon fill="#8b4513" stroke="#8b4513" points="344.74,-114.99 350.8,-106.3 340.64,-109.31 344.74,-114.99"/>
</g>
<!-- linux&#45;api&#45;headers -->
<g id="node5" class="node">
<title>linux&#45;api&#45;headers</title>
<ellipse fill="green" stroke="green" cx="127" cy="-18" rx="71.49" ry="18"/>
<text text-anchor="middle" x="127" y="-14.3" font-family="Times,serif" font-size="14.00">linux&#45;api&#45;headers</text>
</g>
<!-- linux&#45;api&#45;headers&gt;=4.10&#45;&gt;linux&#45;api&#45;headers -->
<g id="edge4" class="edge">
<title>linux&#45;api&#45;headers&gt;=4.10&#45;&gt;linux&#45;api&#45;headers</title>
<path fill="none" stroke="grey" d="M127,-71.7C127,-60.85 127,-46.92 127,-36.1"/>
</g>
<!-- iana&#45;etc -->
<g id="node8" class="node">
<title>iana&#45;etc</title>
<ellipse fill="green" stroke="green" cx="372" cy="-18" rx="38.19" ry="18"/>
<text text-anchor="middle" x="372" y="-14.3" font-family="Times,serif" font-size="14.00">iana&#45;etc</text>
</g>
<!-- filesystem&#45;&gt;iana&#45;etc -->
<g id="edge7" class="edge">
<title>filesystem&#45;&gt;iana&#45;etc</title>
<path fill="none" stroke="#8b4513" d="M372,-71.7C372,-63.98 372,-54.71 372,-46.11"/>
<polygon fill="#8b4513" stroke="#8b4513" points="375.5,-46.1 372,-36.1 368.5,-46.1 375.5,-46.1"/>
</g>
<!-- gcc&#45;libs -->
<g id="node10" class="node">
<title>gcc&#45;libs</title>
<ellipse fill="green" stroke="green" cx="192" cy="-306" rx="38.19" ry="18"/>
<text text-anchor="middle" x="192" y="-302.3" font-family="Times,serif" font-size="14.00">gcc&#45;libs</text>
</g>
<!-- pcre&#45;&gt;gcc&#45;libs -->
<g id="edge9" class="edge">
<title>pcre&#45;&gt;gcc&#45;libs</title>
<path fill="none" stroke="#8b4513" d="M156.97,-871.32C117.31,-852.23 38,-805.7 38,-739 38,-739 38,-739 38,-521 38,-436.07 118.9,-361.84 163.42,-327.41"/>
<polygon fill="#8b4513" stroke="#8b4513" points="165.69,-330.08 171.55,-321.26 161.46,-324.5 165.69,-330.08"/>
</g>
<!-- readline -->
<g id="node12" class="node">
<title>readline</title>
<ellipse fill="green" stroke="green" cx="160" cy="-522" rx="38.99" ry="18"/>
<text text-anchor="middle" x="160" y="-518.3" font-family="Times,serif" font-size="14.00">readline</text>
</g>
<!-- pcre&#45;&gt;readline -->
<g id="edge12" class="edge">
<title>pcre&#45;&gt;readline</title>
<path fill="none" stroke="#8b4513" d="M175.25,-864.05C169.71,-837.52 160,-784.52 160,-739 160,-739 160,-739 160,-665 160,-625 160,-578.65 160,-550.08"/>
<polygon fill="#8b4513" stroke="#8b4513" points="163.5,-550.05 160,-540.05 156.5,-550.05 163.5,-550.05"/>
</g>
<!-- zlib -->
<g id="node15" class="node">
<title>zlib</title>
<ellipse fill="green" stroke="green" cx="469" cy="-738" rx="27" ry="18"/>
<text text-anchor="middle" x="469" y="-734.3" font-family="Times,serif" font-size="14.00">zlib</text>
</g>
<!-- pcre&#45;&gt;zlib -->
<g id="edge19" class="edge">
<title>pcre&#45;&gt;zlib</title>
<path fill="none" stroke="#8b4513" d="M204.93,-876.51C240.67,-869.62 306.39,-854.38 357,-828 391.72,-809.91 426.15,-780.35 447.48,-760.31"/>
<polygon fill="#8b4513" stroke="#8b4513" points="449.91,-762.83 454.72,-753.39 445.07,-757.77 449.91,-762.83"/>
</g>
<!-- bzip2 -->
<g id="node16" class="node">
<title>bzip2</title>
<ellipse fill="green" stroke="green" cx="317" cy="-810" rx="30.59" ry="18"/>
<text text-anchor="middle" x="317" y="-806.3" font-family="Times,serif" font-size="14.00">bzip2</text>
</g>
<!-- pcre&#45;&gt;bzip2 -->
<g id="edge21" class="edge">
<title>pcre&#45;&gt;bzip2</title>
<path fill="none" stroke="#8b4513" d="M199.96,-870.37C222.66,-858.86 259.12,-840.36 285.32,-827.07"/>
<polygon fill="#8b4513" stroke="#8b4513" points="287.13,-830.08 294.47,-822.43 283.96,-823.83 287.13,-830.08"/>
</g>
<!-- bash -->
<g id="node18" class="node">
<title>bash</title>
<ellipse fill="green" stroke="green" cx="317" cy="-666" rx="27" ry="18"/>
<text text-anchor="middle" x="317" y="-662.3" font-family="Times,serif" font-size="14.00">bash</text>
</g>
<!-- pcre&#45;&gt;bash -->
<g id="edge29" class="edge">
<title>pcre&#45;&gt;bash</title>
<path fill="none" stroke="#8b4513" d="M188.97,-864.9C207.03,-835.79 246.51,-772.56 281,-720 287.22,-710.51 294.2,-700.17 300.35,-691.16"/>
<polygon fill="#8b4513" stroke="#8b4513" points="303.39,-692.91 306.16,-682.68 297.62,-688.96 303.39,-692.91"/>
</g>
<!-- glibc&gt;=2.27 -->
<g id="node11" class="node">
<title>glibc&gt;=2.27</title>
<ellipse fill="green" stroke="green" cx="192" cy="-234" rx="54.69" ry="18"/>
<text text-anchor="middle" x="192" y="-230.3" font-family="Times,serif" font-size="14.00">glibc&gt;=2.27</text>
</g>
<!-- gcc&#45;libs&#45;&gt;glibc&gt;=2.27 -->
<g id="edge10" class="edge">
<title>gcc&#45;libs&#45;&gt;glibc&gt;=2.27</title>
<path fill="none" stroke="#8b4513" d="M192,-287.7C192,-279.98 192,-270.71 192,-262.11"/>
<polygon fill="#8b4513" stroke="#8b4513" points="195.5,-262.1 192,-252.1 188.5,-262.1 195.5,-262.1"/>
</g>
<!-- glibc&gt;=2.27&#45;&gt;glibc -->
<g id="edge11" class="edge">
<title>glibc&gt;=2.27&#45;&gt;glibc</title>
<path fill="none" stroke="grey" d="M211.25,-216.76C225.62,-204.65 245.03,-188.27 258.65,-176.79"/>
</g>
<!-- readline&#45;&gt;glibc -->
<g id="edge13" class="edge">
<title>readline&#45;&gt;glibc</title>
<path fill="none" stroke="#8b4513" d="M143,-505.33C118.46,-480.91 76,-431.13 76,-379 76,-379 76,-379 76,-305 76,-259.19 92.79,-245.3 128,-216 159.71,-189.62 205.6,-175.88 237.65,-169.07"/>
<polygon fill="#8b4513" stroke="#8b4513" points="238.41,-172.49 247.53,-167.09 237.04,-165.62 238.41,-172.49"/>
</g>
<!-- ncurses -->
<g id="node13" class="node">
<title>ncurses</title>
<ellipse fill="green" stroke="green" cx="226" cy="-378" rx="37.09" ry="18"/>
<text text-anchor="middle" x="226" y="-374.3" font-family="Times,serif" font-size="14.00">ncurses</text>
</g>
<!-- readline&#45;&gt;ncurses -->
<g id="edge14" class="edge">
<title>readline&#45;&gt;ncurses</title>
<path fill="none" stroke="#8b4513" d="M147.57,-504.66C135.07,-486.09 119.45,-455.31 133,-432 144.31,-412.53 165.75,-399.62 185.2,-391.42"/>
<polygon fill="#8b4513" stroke="#8b4513" points="186.5,-394.67 194.53,-387.76 183.94,-388.15 186.5,-394.67"/>
</g>
<!-- libncursesw.so=6&#45;64 -->
<g id="node14" class="node">
<title>libncursesw.so=6&#45;64</title>
<ellipse fill="green" stroke="green" cx="226" cy="-450" rx="83.69" ry="18"/>
<text text-anchor="middle" x="226" y="-446.3" font-family="Times,serif" font-size="14.00">libncursesw.so=6&#45;64</text>
</g>
<!-- readline&#45;&gt;libncursesw.so=6&#45;64 -->
<g id="edge17" class="edge">
<title>readline&#45;&gt;libncursesw.so=6&#45;64</title>
<path fill="none" stroke="#8b4513" d="M174.98,-505.12C183.34,-496.24 193.93,-485.01 203.3,-475.08"/>
<polygon fill="#8b4513" stroke="#8b4513" points="205.85,-477.47 210.16,-467.8 200.76,-472.67 205.85,-477.47"/>
</g>
<!-- ncurses&#45;&gt;glibc -->
<g id="edge15" class="edge">
<title>ncurses&#45;&gt;glibc</title>
<path fill="none" stroke="#8b4513" d="M230.25,-359.82C232.81,-349.45 236.12,-335.97 239,-324 246.69,-292.03 248.79,-284.08 256,-252 260.65,-231.32 265.64,-207.87 269.34,-190.24"/>
<polygon fill="#8b4513" stroke="#8b4513" points="272.85,-190.59 271.47,-180.09 265.99,-189.16 272.85,-190.59"/>
</g>
<!-- ncurses&#45;&gt;gcc&#45;libs -->
<g id="edge16" class="edge">
<title>ncurses&#45;&gt;gcc&#45;libs</title>
<path fill="none" stroke="#8b4513" d="M217.94,-360.41C213.98,-352.25 209.11,-342.22 204.66,-333.07"/>
<polygon fill="#8b4513" stroke="#8b4513" points="207.75,-331.42 200.24,-323.96 201.46,-334.48 207.75,-331.42"/>
</g>
<!-- libncursesw.so=6&#45;64&#45;&gt;ncurses -->
<g id="edge18" class="edge">
<title>libncursesw.so=6&#45;64&#45;&gt;ncurses</title>
<path fill="none" stroke="grey" d="M226,-431.7C226,-420.85 226,-406.92 226,-396.1"/>
</g>
<!-- zlib&#45;&gt;glibc -->
<g id="edge20" class="edge">
<title>zlib&#45;&gt;glibc</title>
<path fill="none" stroke="#8b4513" d="M467.22,-719.97C464.6,-693.34 460,-640.21 460,-595 460,-595 460,-595 460,-305 460,-262.97 457.9,-245.55 428,-216 397.02,-185.38 347.48,-172.41 313.2,-166.94"/>
<polygon fill="#8b4513" stroke="#8b4513" points="313.49,-163.45 303.09,-165.47 312.49,-170.37 313.49,-163.45"/>
</g>
<!-- bzip2&#45;&gt;glibc -->
<g id="edge22" class="edge">
<title>bzip2&#45;&gt;glibc</title>
<path fill="none" stroke="#8b4513" d="M335.24,-795.04C363.34,-771.79 414,-722.23 414,-667 414,-667 414,-667 414,-305 414,-244.03 347.75,-199.57 306.73,-177.88"/>
<polygon fill="#8b4513" stroke="#8b4513" points="308.14,-174.67 297.64,-173.22 304.95,-180.9 308.14,-174.67"/>
</g>
<!-- sh -->
<g id="node17" class="node">
<title>sh</title>
<ellipse fill="green" stroke="green" cx="317" cy="-738" rx="27" ry="18"/>
<text text-anchor="middle" x="317" y="-734.3" font-family="Times,serif" font-size="14.00">sh</text>
</g>
<!-- bzip2&#45;&gt;sh -->
<g id="edge23" class="edge">
<title>bzip2&#45;&gt;sh</title>
<path fill="none" stroke="#8b4513" d="M317,-791.7C317,-783.98 317,-774.71 317,-766.11"/>
<polygon fill="#8b4513" stroke="#8b4513" points="320.5,-766.1 317,-756.1 313.5,-766.1 320.5,-766.1"/>
</g>
<!-- sh&#45;&gt;bash -->
<g id="edge24" class="edge">
<title>sh&#45;&gt;bash</title>
<path fill="none" stroke="grey" d="M317,-719.7C317,-708.85 317,-694.92 317,-684.1"/>
</g>
<!-- bash&#45;&gt;glibc -->
<g id="edge27" class="edge">
<title>bash&#45;&gt;glibc</title>
<path fill="none" stroke="#8b4513" d="M328.38,-649.28C345.52,-623.99 376,-572.12 376,-523 376,-523 376,-523 376,-305 376,-253.29 330.97,-207.33 301.05,-182.49"/>
<polygon fill="#8b4513" stroke="#8b4513" points="303.04,-179.6 293.06,-176.06 298.65,-185.05 303.04,-179.6"/>
</g>
<!-- bash&#45;&gt;ncurses -->
<g id="edge28" class="edge">
<title>bash&#45;&gt;ncurses</title>
<path fill="none" stroke="#8b4513" d="M322.53,-648.3C334.83,-607.91 360.26,-503 319,-432 307.69,-412.53 286.25,-399.62 266.8,-391.42"/>
<polygon fill="#8b4513" stroke="#8b4513" points="268.06,-388.15 257.47,-387.76 265.5,-394.67 268.06,-388.15"/>
</g>
<!-- readline&gt;=7.0 -->
<g id="node19" class="node">
<title>readline&gt;=7.0</title>
<ellipse fill="green" stroke="green" cx="249" cy="-594" rx="61.19" ry="18"/>
<text text-anchor="middle" x="249" y="-590.3" font-family="Times,serif" font-size="14.00">readline&gt;=7.0</text>
</g>
<!-- bash&#45;&gt;readline&gt;=7.0 -->
<g id="edge25" class="edge">
<title>bash&#45;&gt;readline&gt;=7.0</title>
<path fill="none" stroke="#8b4513" d="M302.91,-650.5C294.02,-641.34 282.33,-629.31 272.1,-618.78"/>
<polygon fill="#8b4513" stroke="#8b4513" points="274.46,-616.18 264.98,-611.45 269.44,-621.06 274.46,-616.18"/>
</g>
<!-- readline&gt;=7.0&#45;&gt;readline -->
<g id="edge26" class="edge">
<title>readline&gt;=7.0&#45;&gt;readline</title>
<path fill="none" stroke="grey" d="M228.36,-576.76C213.47,-565.05 193.51,-549.36 179.01,-537.95"/>
</g>
</g>
</svg>
