<?xml version="1.0" encoding="UTF-8" standalone="no"?>
<!DOCTYPE svg PUBLIC "-//W3C//DTD SVG 1.1//EN"
 "http://www.w3.org/Graphics/SVG/1.1/DTD/svg11.dtd">
<!-- Generated by graphviz version 2.44.0 (0)
 -->
<!-- Title: G Pages: 1 -->
<svg width="578pt" height="1124pt"
 viewBox="0.00 0.00 578.49 1124.00" xmlns="http://www.w3.org/2000/svg" xmlns:xlink="http://www.w3.org/1999/xlink">
<g id="graph0" class="graph" transform="scale(1 1) rotate(0) translate(4 1120)">
<title>G</title>
<polygon fill="white" stroke="transparent" points="-4,4 -4,-1120 574.49,-1120 574.49,4 -4,4"/>
<!-- START -->
<g id="node1" class="node">
<title>START</title>
<ellipse fill="red" stroke="red" cx="532.14" cy="-1098" rx="38.19" ry="18"/>
<text text-anchor="middle" x="532.14" y="-1094.3" font-family="Times,serif" font-size="14.00">START</text>
</g>
<!-- groff -->
<g id="node2" class="node">
<title>groff</title>
<ellipse fill="green" stroke="green" cx="532.14" cy="-1026" rx="28.7" ry="18"/>
<text text-anchor="middle" x="532.14" y="-1022.3" font-family="Times,serif" font-size="14.00">groff</text>
</g>
<!-- START&#45;&gt;groff -->
<g id="edge1" class="edge">
<title>START&#45;&gt;groff</title>
<path fill="none" stroke="black" d="M532.14,-1079.7C532.14,-1071.98 532.14,-1062.71 532.14,-1054.11"/>
<polygon fill="black" stroke="black" points="535.64,-1054.1 532.14,-1044.1 528.64,-1054.1 535.64,-1054.1"/>
</g>
<!-- perl -->
<g id="node3" class="node">
<title>perl</title>
<ellipse fill="green" stroke="green" cx="505.14" cy="-954" rx="27" ry="18"/>
<text text-anchor="middle" x="505.14" y="-950.3" font-family="Times,serif" font-size="14.00">perl</text>
</g>
<!-- groff&#45;&gt;perl -->
<g id="edge2" class="edge">
<title>groff&#45;&gt;perl</title>
<path fill="none" stroke="#8b4513" d="M525.74,-1008.41C522.63,-1000.34 518.81,-990.43 515.31,-981.35"/>
<polygon fill="#8b4513" stroke="#8b4513" points="518.55,-980.03 511.68,-971.96 512.01,-982.55 518.55,-980.03"/>
</g>
<!-- gcc&#45;libs -->
<g id="node17" class="node">
<title>gcc&#45;libs</title>
<ellipse fill="green" stroke="green" cx="450.14" cy="-306" rx="38.19" ry="18"/>
<text text-anchor="middle" x="450.14" y="-302.3" font-family="Times,serif" font-size="14.00">gcc&#45;libs</text>
</g>
<!-- groff&#45;&gt;gcc&#45;libs -->
<g id="edge29" class="edge">
<title>groff&#45;&gt;gcc&#45;libs</title>
<path fill="none" stroke="#8b4513" d="M539.65,-1008.34C550.72,-982.2 570.14,-929.7 570.14,-883 570.14,-883 570.14,-883 570.14,-449 570.14,-394.4 517.74,-349.95 482.2,-326.08"/>
<polygon fill="#8b4513" stroke="#8b4513" points="483.85,-322.99 473.56,-320.47 480.03,-328.85 483.85,-322.99"/>
</g>
<!-- gdbm&gt;=1.17 -->
<g id="node4" class="node">
<title>gdbm&gt;=1.17</title>
<ellipse fill="green" stroke="green" cx="403.14" cy="-882" rx="57.69" ry="18"/>
<text text-anchor="middle" x="403.14" y="-878.3" font-family="Times,serif" font-size="14.00">gdbm&gt;=1.17</text>
</g>
<!-- perl&#45;&gt;gdbm&gt;=1.17 -->
<g id="edge3" class="edge">
<title>perl&#45;&gt;gdbm&gt;=1.17</title>
<path fill="none" stroke="#8b4513" d="M486.91,-940.49C472.36,-930.51 451.66,-916.3 434.47,-904.5"/>
<polygon fill="#8b4513" stroke="#8b4513" points="436.09,-901.36 425.86,-898.59 432.12,-907.14 436.09,-901.36"/>
</g>
<!-- glibc -->
<g id="node6" class="node">
<title>glibc</title>
<ellipse fill="green" stroke="green" cx="246.14" cy="-162" rx="28.7" ry="18"/>
<text text-anchor="middle" x="246.14" y="-158.3" font-family="Times,serif" font-size="14.00">glibc</text>
</g>
<!-- perl&#45;&gt;glibc -->
<g id="edge28" class="edge">
<title>perl&#45;&gt;glibc</title>
<path fill="none" stroke="#8b4513" d="M510.48,-936.15C518.34,-909.75 532.14,-856.92 532.14,-811 532.14,-811 532.14,-811 532.14,-305 532.14,-262.66 530.35,-243.49 498.14,-216 466.4,-188.9 346.92,-173.14 284.57,-166.59"/>
<polygon fill="#8b4513" stroke="#8b4513" points="284.65,-163.08 274.34,-165.55 283.94,-170.05 284.65,-163.08"/>
</g>
<!-- db -->
<g id="node20" class="node">
<title>db</title>
<ellipse fill="green" stroke="green" cx="477.14" cy="-810" rx="27" ry="18"/>
<text text-anchor="middle" x="477.14" y="-806.3" font-family="Times,serif" font-size="14.00">db</text>
</g>
<!-- perl&#45;&gt;db -->
<g id="edge25" class="edge">
<title>perl&#45;&gt;db</title>
<path fill="none" stroke="#8b4513" d="M501.76,-935.87C496.97,-911.56 488.15,-866.82 482.47,-838.01"/>
<polygon fill="#8b4513" stroke="#8b4513" points="485.9,-837.32 480.53,-828.19 479.03,-838.68 485.9,-837.32"/>
</g>
<!-- gdbm -->
<g id="node5" class="node">
<title>gdbm</title>
<ellipse fill="green" stroke="green" cx="354.14" cy="-810" rx="31.4" ry="18"/>
<text text-anchor="middle" x="354.14" y="-806.3" font-family="Times,serif" font-size="14.00">gdbm</text>
</g>
<!-- gdbm&gt;=1.17&#45;&gt;gdbm -->
<g id="edge4" class="edge">
<title>gdbm&gt;=1.17&#45;&gt;gdbm</title>
<path fill="none" stroke="grey" d="M391.28,-864.05C383.35,-852.73 372.99,-837.92 365.22,-826.83"/>
</g>
<!-- gdbm&#45;&gt;glibc -->
<g id="edge5" class="edge">
<title>gdbm&#45;&gt;glibc</title>
<path fill="none" stroke="#8b4513" d="M323.77,-805.09C260.03,-795.01 118.14,-761.92 118.14,-667 118.14,-667 118.14,-667 118.14,-305 118.14,-247.02 177.75,-202.04 215.61,-179.33"/>
<polygon fill="#8b4513" stroke="#8b4513" points="217.83,-182.08 224.72,-174.04 214.31,-176.03 217.83,-182.08"/>
</g>
<!-- sh -->
<g id="node12" class="node">
<title>sh</title>
<ellipse fill="green" stroke="green" cx="354.14" cy="-738" rx="27" ry="18"/>
<text text-anchor="middle" x="354.14" y="-734.3" font-family="Times,serif" font-size="14.00">sh</text>
</g>
<!-- gdbm&#45;&gt;sh -->
<g id="edge11" class="edge">
<title>gdbm&#45;&gt;sh</title>
<path fill="none" stroke="#8b4513" d="M354.14,-791.7C354.14,-783.98 354.14,-774.71 354.14,-766.11"/>
<polygon fill="#8b4513" stroke="#8b4513" points="357.64,-766.1 354.14,-756.1 350.64,-766.1 357.64,-766.1"/>
</g>
<!-- linux&#45;api&#45;headers&gt;=4.10 -->
<g id="node7" class="node">
<title>linux&#45;api&#45;headers&gt;=4.10</title>
<ellipse fill="green" stroke="green" cx="98.14" cy="-90" rx="98.28" ry="18"/>
<text text-anchor="middle" x="98.14" y="-86.3" font-family="Times,serif" font-size="14.00">linux&#45;api&#45;headers&gt;=4.10</text>
</g>
<!-- glibc&#45;&gt;linux&#45;api&#45;headers&gt;=4.10 -->
<g id="edge6" class="edge">
<title>glibc&#45;&gt;linux&#45;api&#45;headers&gt;=4.10</title>
<path fill="none" stroke="#8b4513" d="M223.98,-150.52C202.2,-140.22 168.37,-124.22 141.27,-111.4"/>
<polygon fill="#8b4513" stroke="#8b4513" points="142.53,-108.12 132,-107.01 139.54,-114.45 142.53,-108.12"/>
</g>
<!-- tzdata -->
<g id="node9" class="node">
<title>tzdata</title>
<ellipse fill="green" stroke="green" cx="246.14" cy="-90" rx="31.7" ry="18"/>
<text text-anchor="middle" x="246.14" y="-86.3" font-family="Times,serif" font-size="14.00">tzdata</text>
</g>
<!-- glibc&#45;&gt;tzdata -->
<g id="edge8" class="edge">
<title>glibc&#45;&gt;tzdata</title>
<path fill="none" stroke="#8b4513" d="M246.14,-143.7C246.14,-135.98 246.14,-126.71 246.14,-118.11"/>
<polygon fill="#8b4513" stroke="#8b4513" points="249.64,-118.1 246.14,-108.1 242.64,-118.1 249.64,-118.1"/>
</g>
<!-- filesystem -->
<g id="node10" class="node">
<title>filesystem</title>
<ellipse fill="green" stroke="green" cx="343.14" cy="-90" rx="46.59" ry="18"/>
<text text-anchor="middle" x="343.14" y="-86.3" font-family="Times,serif" font-size="14.00">filesystem</text>
</g>
<!-- glibc&#45;&gt;filesystem -->
<g id="edge9" class="edge">
<title>glibc&#45;&gt;filesystem</title>
<path fill="none" stroke="#8b4513" d="M264.39,-147.83C278.19,-137.88 297.42,-123.99 313.43,-112.44"/>
<polygon fill="#8b4513" stroke="#8b4513" points="315.88,-114.99 321.94,-106.3 311.78,-109.31 315.88,-114.99"/>
</g>
<!-- linux&#45;api&#45;headers -->
<g id="node8" class="node">
<title>linux&#45;api&#45;headers</title>
<ellipse fill="green" stroke="green" cx="98.14" cy="-18" rx="71.49" ry="18"/>
<text text-anchor="middle" x="98.14" y="-14.3" font-family="Times,serif" font-size="14.00">linux&#45;api&#45;headers</text>
</g>
<!-- linux&#45;api&#45;headers&gt;=4.10&#45;&gt;linux&#45;api&#45;headers -->
<g id="edge7" class="edge">
<title>linux&#45;api&#45;headers&gt;=4.10&#45;&gt;linux&#45;api&#45;headers</title>
<path fill="none" stroke="grey" d="M98.14,-71.7C98.14,-60.85 98.14,-46.92 98.14,-36.1"/>
</g>
<!-- iana&#45;etc -->
<g id="node11" class="node">
<title>iana&#45;etc</title>
<ellipse fill="green" stroke="green" cx="343.14" cy="-18" rx="38.19" ry="18"/>
<text text-anchor="middle" x="343.14" y="-14.3" font-family="Times,serif" font-size="14.00">iana&#45;etc</text>
</g>
<!-- filesystem&#45;&gt;iana&#45;etc -->
<g id="edge10" class="edge">
<title>filesystem&#45;&gt;iana&#45;etc</title>
<path fill="none" stroke="#8b4513" d="M343.14,-71.7C343.14,-63.98 343.14,-54.71 343.14,-46.11"/>
<polygon fill="#8b4513" stroke="#8b4513" points="346.64,-46.1 343.14,-36.1 339.64,-46.1 346.64,-46.1"/>
</g>
<!-- bash -->
<g id="node13" class="node">
<title>bash</title>
<ellipse fill="green" stroke="green" cx="348.14" cy="-666" rx="27" ry="18"/>
<text text-anchor="middle" x="348.14" y="-662.3" font-family="Times,serif" font-size="14.00">bash</text>
</g>
<!-- sh&#45;&gt;bash -->
<g id="edge12" class="edge">
<title>sh&#45;&gt;bash</title>
<path fill="none" stroke="grey" d="M352.66,-719.7C351.73,-708.85 350.53,-694.92 349.61,-684.1"/>
</g>
<!-- bash&#45;&gt;glibc -->
<g id="edge23" class="edge">
<title>bash&#45;&gt;glibc</title>
<path fill="none" stroke="#8b4513" d="M323.04,-659.08C271,-645.14 156.14,-605.09 156.14,-523 156.14,-523 156.14,-523 156.14,-305 156.14,-255.59 195.5,-209.43 222.16,-183.83"/>
<polygon fill="#8b4513" stroke="#8b4513" points="224.7,-186.25 229.63,-176.87 219.93,-181.12 224.7,-186.25"/>
</g>
<!-- readline&gt;=7.0 -->
<g id="node14" class="node">
<title>readline&gt;=7.0</title>
<ellipse fill="green" stroke="green" cx="336.14" cy="-594" rx="61.19" ry="18"/>
<text text-anchor="middle" x="336.14" y="-590.3" font-family="Times,serif" font-size="14.00">readline&gt;=7.0</text>
</g>
<!-- bash&#45;&gt;readline&gt;=7.0 -->
<g id="edge13" class="edge">
<title>bash&#45;&gt;readline&gt;=7.0</title>
<path fill="none" stroke="#8b4513" d="M345.24,-648.05C343.91,-640.35 342.32,-631.03 340.83,-622.36"/>
<polygon fill="#8b4513" stroke="#8b4513" points="344.24,-621.54 339.1,-612.28 337.34,-622.72 344.24,-621.54"/>
</g>
<!-- ncurses -->
<g id="node16" class="node">
<title>ncurses</title>
<ellipse fill="green" stroke="green" cx="418.14" cy="-378" rx="37.09" ry="18"/>
<text text-anchor="middle" x="418.14" y="-374.3" font-family="Times,serif" font-size="14.00">ncurses</text>
</g>
<!-- bash&#45;&gt;ncurses -->
<g id="edge24" class="edge">
<title>bash&#45;&gt;ncurses</title>
<path fill="none" stroke="#8b4513" d="M367.25,-653.14C380.58,-643.74 397.48,-629.32 406.14,-612 440.02,-544.25 430.8,-451.15 423.38,-405.89"/>
<polygon fill="#8b4513" stroke="#8b4513" points="426.81,-405.21 421.65,-395.96 419.92,-406.41 426.81,-405.21"/>
</g>
<!-- readline -->
<g id="node15" class="node">
<title>readline</title>
<ellipse fill="green" stroke="green" cx="312.14" cy="-522" rx="38.99" ry="18"/>
<text text-anchor="middle" x="312.14" y="-518.3" font-family="Times,serif" font-size="14.00">readline</text>
</g>
<!-- readline&gt;=7.0&#45;&gt;readline -->
<g id="edge14" class="edge">
<title>readline&gt;=7.0&#45;&gt;readline</title>
<path fill="none" stroke="grey" d="M330.33,-576.05C326.61,-565.21 321.8,-551.18 318.06,-540.28"/>
</g>
<!-- readline&#45;&gt;glibc -->
<g id="edge15" class="edge">
<title>readline&#45;&gt;glibc</title>
<path fill="none" stroke="#8b4513" d="M279.69,-511.65C257.62,-503.62 229.55,-489.81 213.14,-468 188.83,-435.67 194.14,-419.45 194.14,-379 194.14,-379 194.14,-379 194.14,-305 194.14,-261.79 215.64,-215.44 230.99,-187.86"/>
<polygon fill="#8b4513" stroke="#8b4513" points="234.18,-189.33 236.12,-178.92 228.1,-185.85 234.18,-189.33"/>
</g>
<!-- readline&#45;&gt;ncurses -->
<g id="edge16" class="edge">
<title>readline&#45;&gt;ncurses</title>
<path fill="none" stroke="#8b4513" d="M341.97,-510.1C361.19,-501.55 385.12,-487.76 399.14,-468 411.89,-450.03 416.38,-425.24 417.84,-406.39"/>
<polygon fill="#8b4513" stroke="#8b4513" points="421.34,-406.51 418.37,-396.33 414.35,-406.13 421.34,-406.51"/>
</g>
<!-- libncursesw.so=6&#45;64 -->
<g id="node19" class="node">
<title>libncursesw.so=6&#45;64</title>
<ellipse fill="green" stroke="green" cx="306.14" cy="-450" rx="83.69" ry="18"/>
<text text-anchor="middle" x="306.14" y="-446.3" font-family="Times,serif" font-size="14.00">libncursesw.so=6&#45;64</text>
</g>
<!-- readline&#45;&gt;libncursesw.so=6&#45;64 -->
<g id="edge21" class="edge">
<title>readline&#45;&gt;libncursesw.so=6&#45;64</title>
<path fill="none" stroke="#8b4513" d="M310.66,-503.7C310,-495.98 309.2,-486.71 308.47,-478.11"/>
<polygon fill="#8b4513" stroke="#8b4513" points="311.95,-477.77 307.61,-468.1 304.97,-478.37 311.95,-477.77"/>
</g>
<!-- ncurses&#45;&gt;glibc -->
<g id="edge17" class="edge">
<title>ncurses&#45;&gt;glibc</title>
<path fill="none" stroke="#8b4513" d="M405.21,-360.92C375.05,-323.38 299.91,-229.9 264.79,-186.2"/>
<polygon fill="#8b4513" stroke="#8b4513" points="267.51,-184 258.52,-178.4 262.06,-188.39 267.51,-184"/>
</g>
<!-- ncurses&#45;&gt;gcc&#45;libs -->
<g id="edge18" class="edge">
<title>ncurses&#45;&gt;gcc&#45;libs</title>
<path fill="none" stroke="#8b4513" d="M425.89,-360.05C429.58,-351.97 434.09,-342.12 438.2,-333.11"/>
<polygon fill="#8b4513" stroke="#8b4513" points="441.49,-334.34 442.47,-323.79 435.13,-331.43 441.49,-334.34"/>
</g>
<!-- glibc&gt;=2.27 -->
<g id="node18" class="node">
<title>glibc&gt;=2.27</title>
<ellipse fill="green" stroke="green" cx="434.14" cy="-234" rx="54.69" ry="18"/>
<text text-anchor="middle" x="434.14" y="-230.3" font-family="Times,serif" font-size="14.00">glibc&gt;=2.27</text>
</g>
<!-- gcc&#45;libs&#45;&gt;glibc&gt;=2.27 -->
<g id="edge19" class="edge">
<title>gcc&#45;libs&#45;&gt;glibc&gt;=2.27</title>
<path fill="none" stroke="#8b4513" d="M446.27,-288.05C444.49,-280.26 442.33,-270.82 440.33,-262.08"/>
<polygon fill="#8b4513" stroke="#8b4513" points="443.73,-261.24 438.09,-252.28 436.91,-262.8 443.73,-261.24"/>
</g>
<!-- glibc&gt;=2.27&#45;&gt;glibc -->
<g id="edge20" class="edge">
<title>glibc&gt;=2.27&#45;&gt;glibc</title>
<path fill="none" stroke="grey" d="M399.22,-220C361.63,-206 302.84,-184.11 270.14,-171.93"/>
</g>
<!-- libncursesw.so=6&#45;64&#45;&gt;ncurses -->
<g id="edge22" class="edge">
<title>libncursesw.so=6&#45;64&#45;&gt;ncurses</title>
<path fill="none" stroke="grey" d="M332.12,-432.76C351.5,-420.65 377.71,-404.27 396.08,-392.79"/>
</g>
<!-- db&#45;&gt;sh -->
<g id="edge27" class="edge">
<title>db&#45;&gt;sh</title>
<path fill="none" stroke="#8b4513" d="M457.11,-797.6C437,-786.16 405.84,-768.42 383.06,-755.46"/>
<polygon fill="#8b4513" stroke="#8b4513" points="384.59,-752.3 374.17,-750.4 381.13,-758.39 384.59,-752.3"/>
</g>
<!-- db&#45;&gt;gcc&#45;libs -->
<g id="edge26" class="edge">
<title>db&#45;&gt;gcc&#45;libs</title>
<path fill="none" stroke="#8b4513" d="M480.5,-792.03C485.45,-765.48 494.14,-712.44 494.14,-667 494.14,-667 494.14,-667 494.14,-449 494.14,-406.75 476.15,-360.47 463.18,-332.59"/>
<polygon fill="#8b4513" stroke="#8b4513" points="466.31,-331.04 458.83,-323.53 460,-334.06 466.31,-331.04"/>
</g>
</g>
</svg>
