<?xml version="1.0" encoding="UTF-8" standalone="no"?>
<!DOCTYPE svg PUBLIC "-//W3C//DTD SVG 1.1//EN"
 "http://www.w3.org/Graphics/SVG/1.1/DTD/svg11.dtd">
<!-- Generated by graphviz version 2.44.0 (0)
 -->
<!-- Title: G Pages: 1 -->
<svg width="1166pt" height="1268pt"
 viewBox="0.00 0.00 1165.95 1268.00" xmlns="http://www.w3.org/2000/svg" xmlns:xlink="http://www.w3.org/1999/xlink">
<g id="graph0" class="graph" transform="scale(1 1) rotate(0) translate(4 1264)">
<title>G</title>
<polygon fill="white" stroke="transparent" points="-4,4 -4,-1264 1161.95,-1264 1161.95,4 -4,4"/>
<!-- START -->
<g id="node1" class="node">
<title>START</title>
<ellipse fill="red" stroke="red" cx="404" cy="-1242" rx="38.19" ry="18"/>
<text text-anchor="middle" x="404" y="-1238.3" font-family="Times,serif" font-size="14.00">START</text>
</g>
<!-- grub -->
<g id="node2" class="node">
<title>grub</title>
<ellipse fill="green" stroke="green" cx="404" cy="-1170" rx="27.9" ry="18"/>
<text text-anchor="middle" x="404" y="-1166.3" font-family="Times,serif" font-size="14.00">grub</text>
</g>
<!-- START&#45;&gt;grub -->
<g id="edge1" class="edge">
<title>START&#45;&gt;grub</title>
<path fill="none" stroke="black" d="M404,-1223.7C404,-1215.98 404,-1206.71 404,-1198.11"/>
<polygon fill="black" stroke="black" points="407.5,-1198.1 404,-1188.1 400.5,-1198.1 407.5,-1198.1"/>
</g>
<!-- sh -->
<g id="node3" class="node">
<title>sh</title>
<ellipse fill="green" stroke="green" cx="393" cy="-738" rx="27" ry="18"/>
<text text-anchor="middle" x="393" y="-734.3" font-family="Times,serif" font-size="14.00">sh</text>
</g>
<!-- grub&#45;&gt;sh -->
<g id="edge2" class="edge">
<title>grub&#45;&gt;sh</title>
<path fill="none" stroke="#8b4513" d="M407.56,-1152.04C412.8,-1125.5 422,-1072.48 422,-1027 422,-1027 422,-1027 422,-881 422,-839.99 410.25,-793.64 401.7,-765.37"/>
<polygon fill="#8b4513" stroke="#8b4513" points="405.04,-764.33 398.73,-755.82 398.36,-766.41 405.04,-764.33"/>
</g>
<!-- xz -->
<g id="node17" class="node">
<title>xz</title>
<ellipse fill="green" stroke="green" cx="367" cy="-810" rx="27" ry="18"/>
<text text-anchor="middle" x="367" y="-806.3" font-family="Times,serif" font-size="14.00">xz</text>
</g>
<!-- grub&#45;&gt;xz -->
<g id="edge21" class="edge">
<title>grub&#45;&gt;xz</title>
<path fill="none" stroke="#8b4513" d="M399.65,-1152.08C393.24,-1125.6 382,-1072.65 382,-1027 382,-1027 382,-1027 382,-953 382,-912.77 375.97,-866.49 371.56,-837.99"/>
<polygon fill="#8b4513" stroke="#8b4513" points="375,-837.31 369.96,-827.99 368.08,-838.41 375,-837.31"/>
</g>
<!-- gettext -->
<g id="node18" class="node">
<title>gettext</title>
<ellipse fill="green" stroke="green" cx="498" cy="-1098" rx="34.39" ry="18"/>
<text text-anchor="middle" x="498" y="-1094.3" font-family="Times,serif" font-size="14.00">gettext</text>
</g>
<!-- grub&#45;&gt;gettext -->
<g id="edge23" class="edge">
<title>grub&#45;&gt;gettext</title>
<path fill="none" stroke="#8b4513" d="M421.68,-1155.83C435.5,-1145.54 454.95,-1131.06 470.76,-1119.28"/>
<polygon fill="#8b4513" stroke="#8b4513" points="473.18,-1121.85 479.11,-1113.07 469,-1116.23 473.18,-1121.85"/>
</g>
<!-- device&#45;mapper -->
<g id="node32" class="node">
<title>device&#45;mapper</title>
<ellipse fill="green" stroke="green" cx="165" cy="-1098" rx="63.89" ry="18"/>
<text text-anchor="middle" x="165" y="-1094.3" font-family="Times,serif" font-size="14.00">device&#45;mapper</text>
</g>
<!-- grub&#45;&gt;device&#45;mapper -->
<g id="edge57" class="edge">
<title>grub&#45;&gt;device&#45;mapper</title>
<path fill="none" stroke="#8b4513" d="M378.87,-1161.64C340.79,-1150.49 267.58,-1129.04 217.52,-1114.38"/>
<polygon fill="#8b4513" stroke="#8b4513" points="218.42,-1111 207.84,-1111.55 216.45,-1117.72 218.42,-1111"/>
</g>
<!-- bash -->
<g id="node4" class="node">
<title>bash</title>
<ellipse fill="green" stroke="green" cx="574" cy="-666" rx="27" ry="18"/>
<text text-anchor="middle" x="574" y="-662.3" font-family="Times,serif" font-size="14.00">bash</text>
</g>
<!-- sh&#45;&gt;bash -->
<g id="edge3" class="edge">
<title>sh&#45;&gt;bash</title>
<path fill="none" stroke="grey" d="M414.18,-726.61C419.01,-724.35 424.15,-722.03 429,-720 471.17,-702.38 521.48,-684.72 550.39,-674.89"/>
</g>
<!-- readline&gt;=7.0 -->
<g id="node5" class="node">
<title>readline&gt;=7.0</title>
<ellipse fill="green" stroke="green" cx="574" cy="-594" rx="61.19" ry="18"/>
<text text-anchor="middle" x="574" y="-590.3" font-family="Times,serif" font-size="14.00">readline&gt;=7.0</text>
</g>
<!-- bash&#45;&gt;readline&gt;=7.0 -->
<g id="edge4" class="edge">
<title>bash&#45;&gt;readline&gt;=7.0</title>
<path fill="none" stroke="#8b4513" d="M574,-647.7C574,-639.98 574,-630.71 574,-622.11"/>
<polygon fill="#8b4513" stroke="#8b4513" points="577.5,-622.1 574,-612.1 570.5,-622.1 577.5,-622.1"/>
</g>
<!-- glibc -->
<g id="node7" class="node">
<title>glibc</title>
<ellipse fill="green" stroke="green" cx="344" cy="-162" rx="28.7" ry="18"/>
<text text-anchor="middle" x="344" y="-158.3" font-family="Times,serif" font-size="14.00">glibc</text>
</g>
<!-- bash&#45;&gt;glibc -->
<g id="edge19" class="edge">
<title>bash&#45;&gt;glibc</title>
<path fill="none" stroke="#8b4513" d="M548.13,-660.27C491.78,-648.31 363,-611.31 363,-523 363,-523 363,-523 363,-305 363,-264.64 355.37,-218.39 349.78,-189.94"/>
<polygon fill="#8b4513" stroke="#8b4513" points="353.17,-189.06 347.75,-179.95 346.31,-190.45 353.17,-189.06"/>
</g>
<!-- ncurses -->
<g id="node13" class="node">
<title>ncurses</title>
<ellipse fill="green" stroke="green" cx="593" cy="-378" rx="37.09" ry="18"/>
<text text-anchor="middle" x="593" y="-374.3" font-family="Times,serif" font-size="14.00">ncurses</text>
</g>
<!-- bash&#45;&gt;ncurses -->
<g id="edge20" class="edge">
<title>bash&#45;&gt;ncurses</title>
<path fill="none" stroke="#8b4513" d="M595.84,-655.27C612.42,-646.56 634.02,-632.06 644,-612 679.61,-540.36 673.9,-506.2 644,-432 639.08,-419.79 629.85,-408.81 620.57,-400.06"/>
<polygon fill="#8b4513" stroke="#8b4513" points="622.68,-397.25 612.87,-393.25 618.05,-402.5 622.68,-397.25"/>
</g>
<!-- readline -->
<g id="node6" class="node">
<title>readline</title>
<ellipse fill="green" stroke="green" cx="518" cy="-522" rx="38.99" ry="18"/>
<text text-anchor="middle" x="518" y="-518.3" font-family="Times,serif" font-size="14.00">readline</text>
</g>
<!-- readline&gt;=7.0&#45;&gt;readline -->
<g id="edge5" class="edge">
<title>readline&gt;=7.0&#45;&gt;readline</title>
<path fill="none" stroke="grey" d="M560.73,-576.41C551.8,-565.25 540.08,-550.6 531.18,-539.47"/>
</g>
<!-- readline&#45;&gt;glibc -->
<g id="edge6" class="edge">
<title>readline&#45;&gt;glibc</title>
<path fill="none" stroke="#8b4513" d="M495.16,-507.39C461.11,-485.16 401,-437.62 401,-379 401,-379 401,-379 401,-305 401,-264.03 393.34,-253.57 377,-216 372.7,-206.11 366.76,-195.91 361.11,-187.13"/>
<polygon fill="#8b4513" stroke="#8b4513" points="363.85,-184.94 355.39,-178.56 358.03,-188.82 363.85,-184.94"/>
</g>
<!-- readline&#45;&gt;ncurses -->
<g id="edge12" class="edge">
<title>readline&#45;&gt;ncurses</title>
<path fill="none" stroke="#8b4513" d="M494.71,-507.51C481.26,-498.29 465.54,-484.72 458,-468 451.42,-453.41 448.99,-445.22 458,-432 477.75,-403.03 515.96,-389.89 546.7,-383.94"/>
<polygon fill="#8b4513" stroke="#8b4513" points="547.55,-387.34 556.81,-382.18 546.35,-380.45 547.55,-387.34"/>
</g>
<!-- libncursesw.so=6&#45;64 -->
<g id="node16" class="node">
<title>libncursesw.so=6&#45;64</title>
<ellipse fill="green" stroke="green" cx="551" cy="-450" rx="83.69" ry="18"/>
<text text-anchor="middle" x="551" y="-446.3" font-family="Times,serif" font-size="14.00">libncursesw.so=6&#45;64</text>
</g>
<!-- readline&#45;&gt;libncursesw.so=6&#45;64 -->
<g id="edge17" class="edge">
<title>readline&#45;&gt;libncursesw.so=6&#45;64</title>
<path fill="none" stroke="#8b4513" d="M525.99,-504.05C529.74,-496.09 534.31,-486.41 538.5,-477.51"/>
<polygon fill="#8b4513" stroke="#8b4513" points="541.76,-478.81 542.86,-468.28 535.43,-475.83 541.76,-478.81"/>
</g>
<!-- linux&#45;api&#45;headers&gt;=4.10 -->
<g id="node8" class="node">
<title>linux&#45;api&#45;headers&gt;=4.10</title>
<ellipse fill="green" stroke="green" cx="196" cy="-90" rx="98.28" ry="18"/>
<text text-anchor="middle" x="196" y="-86.3" font-family="Times,serif" font-size="14.00">linux&#45;api&#45;headers&gt;=4.10</text>
</g>
<!-- glibc&#45;&gt;linux&#45;api&#45;headers&gt;=4.10 -->
<g id="edge7" class="edge">
<title>glibc&#45;&gt;linux&#45;api&#45;headers&gt;=4.10</title>
<path fill="none" stroke="#8b4513" d="M321.84,-150.52C300.06,-140.22 266.23,-124.22 239.13,-111.4"/>
<polygon fill="#8b4513" stroke="#8b4513" points="240.39,-108.12 229.85,-107.01 237.4,-114.45 240.39,-108.12"/>
</g>
<!-- tzdata -->
<g id="node10" class="node">
<title>tzdata</title>
<ellipse fill="green" stroke="green" cx="344" cy="-90" rx="31.7" ry="18"/>
<text text-anchor="middle" x="344" y="-86.3" font-family="Times,serif" font-size="14.00">tzdata</text>
</g>
<!-- glibc&#45;&gt;tzdata -->
<g id="edge9" class="edge">
<title>glibc&#45;&gt;tzdata</title>
<path fill="none" stroke="#8b4513" d="M344,-143.7C344,-135.98 344,-126.71 344,-118.11"/>
<polygon fill="#8b4513" stroke="#8b4513" points="347.5,-118.1 344,-108.1 340.5,-118.1 347.5,-118.1"/>
</g>
<!-- filesystem -->
<g id="node11" class="node">
<title>filesystem</title>
<ellipse fill="green" stroke="green" cx="441" cy="-90" rx="46.59" ry="18"/>
<text text-anchor="middle" x="441" y="-86.3" font-family="Times,serif" font-size="14.00">filesystem</text>
</g>
<!-- glibc&#45;&gt;filesystem -->
<g id="edge10" class="edge">
<title>glibc&#45;&gt;filesystem</title>
<path fill="none" stroke="#8b4513" d="M362.24,-147.83C376.04,-137.88 395.28,-123.99 411.29,-112.44"/>
<polygon fill="#8b4513" stroke="#8b4513" points="413.74,-114.99 419.8,-106.3 409.64,-109.31 413.74,-114.99"/>
</g>
<!-- linux&#45;api&#45;headers -->
<g id="node9" class="node">
<title>linux&#45;api&#45;headers</title>
<ellipse fill="green" stroke="green" cx="196" cy="-18" rx="71.49" ry="18"/>
<text text-anchor="middle" x="196" y="-14.3" font-family="Times,serif" font-size="14.00">linux&#45;api&#45;headers</text>
</g>
<!-- linux&#45;api&#45;headers&gt;=4.10&#45;&gt;linux&#45;api&#45;headers -->
<g id="edge8" class="edge">
<title>linux&#45;api&#45;headers&gt;=4.10&#45;&gt;linux&#45;api&#45;headers</title>
<path fill="none" stroke="grey" d="M196,-71.7C196,-60.85 196,-46.92 196,-36.1"/>
</g>
<!-- iana&#45;etc -->
<g id="node12" class="node">
<title>iana&#45;etc</title>
<ellipse fill="green" stroke="green" cx="441" cy="-18" rx="38.19" ry="18"/>
<text text-anchor="middle" x="441" y="-14.3" font-family="Times,serif" font-size="14.00">iana&#45;etc</text>
</g>
<!-- filesystem&#45;&gt;iana&#45;etc -->
<g id="edge11" class="edge">
<title>filesystem&#45;&gt;iana&#45;etc</title>
<path fill="none" stroke="#8b4513" d="M441,-71.7C441,-63.98 441,-54.71 441,-46.11"/>
<polygon fill="#8b4513" stroke="#8b4513" points="444.5,-46.1 441,-36.1 437.5,-46.1 444.5,-46.1"/>
</g>
<!-- ncurses&#45;&gt;glibc -->
<g id="edge13" class="edge">
<title>ncurses&#45;&gt;glibc</title>
<path fill="none" stroke="#8b4513" d="M576.77,-361.37C546.02,-331.97 476.79,-266.82 415,-216 400.77,-204.3 384.32,-191.95 370.83,-182.11"/>
<polygon fill="#8b4513" stroke="#8b4513" points="372.61,-179.07 362.45,-176.05 368.5,-184.74 372.61,-179.07"/>
</g>
<!-- gcc&#45;libs -->
<g id="node14" class="node">
<title>gcc&#45;libs</title>
<ellipse fill="green" stroke="green" cx="784" cy="-306" rx="38.19" ry="18"/>
<text text-anchor="middle" x="784" y="-302.3" font-family="Times,serif" font-size="14.00">gcc&#45;libs</text>
</g>
<!-- ncurses&#45;&gt;gcc&#45;libs -->
<g id="edge14" class="edge">
<title>ncurses&#45;&gt;gcc&#45;libs</title>
<path fill="none" stroke="#8b4513" d="M621.59,-366.52C654.32,-354.53 708.1,-334.82 744.74,-321.39"/>
<polygon fill="#8b4513" stroke="#8b4513" points="746.4,-324.51 754.58,-317.78 743.99,-317.94 746.4,-324.51"/>
</g>
<!-- glibc&gt;=2.27 -->
<g id="node15" class="node">
<title>glibc&gt;=2.27</title>
<ellipse fill="green" stroke="green" cx="784" cy="-234" rx="54.69" ry="18"/>
<text text-anchor="middle" x="784" y="-230.3" font-family="Times,serif" font-size="14.00">glibc&gt;=2.27</text>
</g>
<!-- gcc&#45;libs&#45;&gt;glibc&gt;=2.27 -->
<g id="edge15" class="edge">
<title>gcc&#45;libs&#45;&gt;glibc&gt;=2.27</title>
<path fill="none" stroke="#8b4513" d="M784,-287.7C784,-279.98 784,-270.71 784,-262.11"/>
<polygon fill="#8b4513" stroke="#8b4513" points="787.5,-262.1 784,-252.1 780.5,-262.1 787.5,-262.1"/>
</g>
<!-- glibc&gt;=2.27&#45;&gt;glibc -->
<g id="edge16" class="edge">
<title>glibc&gt;=2.27&#45;&gt;glibc</title>
<path fill="none" stroke="grey" d="M742.55,-222.08C733.51,-219.89 723.96,-217.74 715,-216 587.9,-191.33 434.22,-172.99 372.08,-166.04"/>
</g>
<!-- libncursesw.so=6&#45;64&#45;&gt;ncurses -->
<g id="edge18" class="edge">
<title>libncursesw.so=6&#45;64&#45;&gt;ncurses</title>
<path fill="none" stroke="grey" d="M561.17,-432.05C567.77,-421.05 576.34,-406.76 582.93,-395.79"/>
</g>
<!-- xz&#45;&gt;sh -->
<g id="edge22" class="edge">
<title>xz&#45;&gt;sh</title>
<path fill="none" stroke="#8b4513" d="M373.16,-792.41C376.16,-784.34 379.84,-774.43 383.21,-765.35"/>
<polygon fill="#8b4513" stroke="#8b4513" points="386.5,-766.55 386.7,-755.96 379.94,-764.11 386.5,-766.55"/>
</g>
<!-- gettext&#45;&gt;sh -->
<g id="edge28" class="edge">
<title>gettext&#45;&gt;sh</title>
<path fill="none" stroke="#8b4513" d="M490.49,-1080.34C479.42,-1054.2 460,-1001.7 460,-955 460,-955 460,-955 460,-881 460,-840.03 454.65,-828.48 436,-792 430.38,-781.01 422.22,-770.2 414.52,-761.23"/>
<polygon fill="#8b4513" stroke="#8b4513" points="416.93,-758.68 407.65,-753.56 411.71,-763.35 416.93,-758.68"/>
</g>
<!-- gettext&#45;&gt;gcc&#45;libs -->
<g id="edge24" class="edge">
<title>gettext&#45;&gt;gcc&#45;libs</title>
<path fill="none" stroke="#8b4513" d="M532.33,-1096.48C661.63,-1093.59 1112,-1074.94 1112,-955 1112,-955 1112,-955 1112,-809 1112,-712.4 1074,-691.6 1074,-595 1074,-595 1074,-595 1074,-521 1074,-399.94 908.36,-339.63 827.45,-317.4"/>
<polygon fill="#8b4513" stroke="#8b4513" points="828.11,-313.95 817.55,-314.75 826.31,-320.71 828.11,-313.95"/>
</g>
<!-- acl -->
<g id="node19" class="node">
<title>acl</title>
<ellipse fill="green" stroke="green" cx="284" cy="-954" rx="27" ry="18"/>
<text text-anchor="middle" x="284" y="-950.3" font-family="Times,serif" font-size="14.00">acl</text>
</g>
<!-- gettext&#45;&gt;acl -->
<g id="edge25" class="edge">
<title>gettext&#45;&gt;acl</title>
<path fill="none" stroke="#8b4513" d="M477.48,-1083.38C438.63,-1057.6 354.33,-1001.67 310.96,-972.89"/>
<polygon fill="#8b4513" stroke="#8b4513" points="312.88,-969.96 302.61,-967.35 309.01,-975.8 312.88,-969.96"/>
</g>
<!-- glib2 -->
<g id="node21" class="node">
<title>glib2</title>
<ellipse fill="green" stroke="green" cx="756" cy="-954" rx="28.7" ry="18"/>
<text text-anchor="middle" x="756" y="-950.3" font-family="Times,serif" font-size="14.00">glib2</text>
</g>
<!-- gettext&#45;&gt;glib2 -->
<g id="edge29" class="edge">
<title>gettext&#45;&gt;glib2</title>
<path fill="none" stroke="#8b4513" d="M527.29,-1088.32C555.94,-1079.24 600.35,-1063.59 636,-1044 671.79,-1024.34 708.94,-995.2 732.25,-975.67"/>
<polygon fill="#8b4513" stroke="#8b4513" points="734.52,-978.34 739.89,-969.2 730,-973 734.52,-978.34"/>
</g>
<!-- libunistring -->
<g id="node28" class="node">
<title>libunistring</title>
<ellipse fill="green" stroke="green" cx="490" cy="-738" rx="51.99" ry="18"/>
<text text-anchor="middle" x="490" y="-734.3" font-family="Times,serif" font-size="14.00">libunistring</text>
</g>
<!-- gettext&#45;&gt;libunistring -->
<g id="edge45" class="edge">
<title>gettext&#45;&gt;libunistring</title>
<path fill="none" stroke="#8b4513" d="M498,-1079.95C498,-1053.29 498,-1000.11 498,-955 498,-955 498,-955 498,-881 498,-840.93 494.79,-794.61 492.43,-766.05"/>
<polygon fill="#8b4513" stroke="#8b4513" points="495.91,-765.7 491.58,-756.03 488.94,-766.29 495.91,-765.7"/>
</g>
<!-- libcroco -->
<g id="node29" class="node">
<title>libcroco</title>
<ellipse fill="green" stroke="green" cx="587" cy="-1026" rx="39.79" ry="18"/>
<text text-anchor="middle" x="587" y="-1022.3" font-family="Times,serif" font-size="14.00">libcroco</text>
</g>
<!-- gettext&#45;&gt;libcroco -->
<g id="edge47" class="edge">
<title>gettext&#45;&gt;libcroco</title>
<path fill="none" stroke="#8b4513" d="M516.44,-1082.5C529.04,-1072.59 545.94,-1059.29 560.04,-1048.2"/>
<polygon fill="#8b4513" stroke="#8b4513" points="562.27,-1050.9 567.97,-1041.97 557.94,-1045.4 562.27,-1050.9"/>
</g>
<!-- attr -->
<g id="node20" class="node">
<title>attr</title>
<ellipse fill="green" stroke="green" cx="169" cy="-810" rx="27" ry="18"/>
<text text-anchor="middle" x="169" y="-806.3" font-family="Times,serif" font-size="14.00">attr</text>
</g>
<!-- acl&#45;&gt;attr -->
<g id="edge26" class="edge">
<title>acl&#45;&gt;attr</title>
<path fill="none" stroke="#8b4513" d="M264.59,-941.13C249.9,-931.43 229.94,-916.64 216,-900 200.12,-881.04 187.43,-855.83 179.26,-837.09"/>
<polygon fill="#8b4513" stroke="#8b4513" points="182.4,-835.54 175.3,-827.68 175.95,-838.26 182.4,-835.54"/>
</g>
<!-- attr&#45;&gt;glibc -->
<g id="edge27" class="edge">
<title>attr&#45;&gt;glibc</title>
<path fill="none" stroke="#8b4513" d="M176.71,-792.36C188.07,-766.24 208,-713.79 208,-667 208,-667 208,-667 208,-305 208,-244.83 272.48,-200.2 312.64,-178.23"/>
<polygon fill="#8b4513" stroke="#8b4513" points="314.35,-181.29 321.54,-173.52 311.07,-175.11 314.35,-181.29"/>
</g>
<!-- pcre -->
<g id="node22" class="node">
<title>pcre</title>
<ellipse fill="green" stroke="green" cx="926" cy="-882" rx="27" ry="18"/>
<text text-anchor="middle" x="926" y="-878.3" font-family="Times,serif" font-size="14.00">pcre</text>
</g>
<!-- glib2&#45;&gt;pcre -->
<g id="edge30" class="edge">
<title>glib2&#45;&gt;pcre</title>
<path fill="none" stroke="#8b4513" d="M779.28,-943.41C809.08,-931.14 860.82,-909.84 894.22,-896.08"/>
<polygon fill="#8b4513" stroke="#8b4513" points="895.63,-899.29 903.54,-892.25 892.96,-892.82 895.63,-899.29"/>
</g>
<!-- zlib -->
<g id="node23" class="node">
<title>zlib</title>
<ellipse fill="green" stroke="green" cx="825" cy="-810" rx="27" ry="18"/>
<text text-anchor="middle" x="825" y="-806.3" font-family="Times,serif" font-size="14.00">zlib</text>
</g>
<!-- glib2&#45;&gt;zlib -->
<g id="edge42" class="edge">
<title>glib2&#45;&gt;zlib</title>
<path fill="none" stroke="#8b4513" d="M780.85,-944.91C800.82,-936.95 827.51,-922.65 840,-900 850.78,-880.46 844.92,-855.12 837.6,-836.48"/>
<polygon fill="#8b4513" stroke="#8b4513" points="840.76,-834.96 833.61,-827.15 834.33,-837.72 840.76,-834.96"/>
</g>
<!-- libffi -->
<g id="node25" class="node">
<title>libffi</title>
<ellipse fill="green" stroke="green" cx="1130" cy="-666" rx="27.9" ry="18"/>
<text text-anchor="middle" x="1130" y="-662.3" font-family="Times,serif" font-size="14.00">libffi</text>
</g>
<!-- glib2&#45;&gt;libffi -->
<g id="edge39" class="edge">
<title>glib2&#45;&gt;libffi</title>
<path fill="none" stroke="#8b4513" d="M784.01,-949.7C824.95,-944.03 902.7,-930.03 962,-900 1007.08,-877.17 1018.5,-867.51 1050,-828 1083.68,-785.76 1108.39,-727.03 1120.86,-693.43"/>
<polygon fill="#8b4513" stroke="#8b4513" points="1124.21,-694.45 1124.33,-683.85 1117.63,-692.06 1124.21,-694.45"/>
</g>
<!-- libutil&#45;linux -->
<g id="node26" class="node">
<title>libutil&#45;linux</title>
<ellipse fill="green" stroke="green" cx="727" cy="-810" rx="52.79" ry="18"/>
<text text-anchor="middle" x="727" y="-806.3" font-family="Times,serif" font-size="14.00">libutil&#45;linux</text>
</g>
<!-- glib2&#45;&gt;libutil&#45;linux -->
<g id="edge41" class="edge">
<title>glib2&#45;&gt;libutil&#45;linux</title>
<path fill="none" stroke="#8b4513" d="M731.15,-944.91C711.18,-936.95 684.49,-922.65 672,-900 664.27,-885.99 665.74,-878.72 672,-864 677.11,-851.99 686.42,-841.38 695.95,-832.87"/>
<polygon fill="#8b4513" stroke="#8b4513" points="698.47,-835.32 703.91,-826.23 693.99,-829.94 698.47,-835.32"/>
</g>
<!-- libmount.so=1&#45;64 -->
<g id="node27" class="node">
<title>libmount.so=1&#45;64</title>
<ellipse fill="green" stroke="green" cx="756" cy="-882" rx="74.99" ry="18"/>
<text text-anchor="middle" x="756" y="-878.3" font-family="Times,serif" font-size="14.00">libmount.so=1&#45;64</text>
</g>
<!-- glib2&#45;&gt;libmount.so=1&#45;64 -->
<g id="edge43" class="edge">
<title>glib2&#45;&gt;libmount.so=1&#45;64</title>
<path fill="none" stroke="#8b4513" d="M756,-935.7C756,-927.98 756,-918.71 756,-910.11"/>
<polygon fill="#8b4513" stroke="#8b4513" points="759.5,-910.1 756,-900.1 752.5,-910.1 759.5,-910.1"/>
</g>
<!-- pcre&#45;&gt;bash -->
<g id="edge38" class="edge">
<title>pcre&#45;&gt;bash</title>
<path fill="none" stroke="#8b4513" d="M917.71,-864.85C906.96,-845.29 886.54,-812.46 861,-792 781.97,-728.7 665.96,-691.33 608.65,-675.67"/>
<polygon fill="#8b4513" stroke="#8b4513" points="609.55,-672.29 598.99,-673.09 607.74,-679.05 609.55,-672.29"/>
</g>
<!-- pcre&#45;&gt;readline -->
<g id="edge32" class="edge">
<title>pcre&#45;&gt;readline</title>
<path fill="none" stroke="#8b4513" d="M944.49,-868.58C956.83,-859.1 972.03,-844.83 979,-828 985.12,-813.22 986.66,-806.05 979,-792 890.55,-629.73 660.11,-557.03 562.61,-532.83"/>
<polygon fill="#8b4513" stroke="#8b4513" points="563.31,-529.4 552.77,-530.44 561.66,-536.2 563.31,-529.4"/>
</g>
<!-- pcre&#45;&gt;gcc&#45;libs -->
<g id="edge31" class="edge">
<title>pcre&#45;&gt;gcc&#45;libs</title>
<path fill="none" stroke="#8b4513" d="M945.65,-869.6C960.73,-860.05 981.24,-845.23 995,-828 1022.17,-793.97 1036,-782.55 1036,-739 1036,-739 1036,-739 1036,-665 1036,-511.52 879.2,-377.42 812.97,-327.62"/>
<polygon fill="#8b4513" stroke="#8b4513" points="814.74,-324.57 804.62,-321.43 810.57,-330.2 814.74,-324.57"/>
</g>
<!-- pcre&#45;&gt;zlib -->
<g id="edge33" class="edge">
<title>pcre&#45;&gt;zlib</title>
<path fill="none" stroke="#8b4513" d="M907.94,-868.49C892.24,-857.6 869.28,-841.69 851.5,-829.37"/>
<polygon fill="#8b4513" stroke="#8b4513" points="853.45,-826.46 843.24,-823.64 849.47,-832.22 853.45,-826.46"/>
</g>
<!-- bzip2 -->
<g id="node24" class="node">
<title>bzip2</title>
<ellipse fill="green" stroke="green" cx="939" cy="-810" rx="30.59" ry="18"/>
<text text-anchor="middle" x="939" y="-806.3" font-family="Times,serif" font-size="14.00">bzip2</text>
</g>
<!-- pcre&#45;&gt;bzip2 -->
<g id="edge35" class="edge">
<title>pcre&#45;&gt;bzip2</title>
<path fill="none" stroke="#8b4513" d="M929.15,-864.05C930.58,-856.35 932.31,-847.03 933.92,-838.36"/>
<polygon fill="#8b4513" stroke="#8b4513" points="937.41,-838.75 935.79,-828.28 930.52,-837.47 937.41,-838.75"/>
</g>
<!-- zlib&#45;&gt;glibc -->
<g id="edge34" class="edge">
<title>zlib&#45;&gt;glibc</title>
<path fill="none" stroke="#8b4513" d="M822.32,-792.08C811.35,-727.84 764.33,-495.78 639,-360 567.13,-282.14 538.89,-272.1 449,-216 425.42,-201.28 397.22,-187.23 375.99,-177.29"/>
<polygon fill="#8b4513" stroke="#8b4513" points="377.31,-174.05 366.76,-173.03 374.37,-180.4 377.31,-174.05"/>
</g>
<!-- bzip2&#45;&gt;sh -->
<g id="edge37" class="edge">
<title>bzip2&#45;&gt;sh</title>
<path fill="none" stroke="#8b4513" d="M911.37,-802.05C896.52,-798.55 877.86,-794.53 861,-792 670.47,-763.42 615.08,-805.93 429,-756 427.05,-755.48 425.07,-754.85 423.1,-754.15"/>
<polygon fill="#8b4513" stroke="#8b4513" points="424.04,-750.75 413.46,-750.2 421.38,-757.23 424.04,-750.75"/>
</g>
<!-- bzip2&#45;&gt;glibc -->
<g id="edge36" class="edge">
<title>bzip2&#45;&gt;glibc</title>
<path fill="none" stroke="#8b4513" d="M943.11,-791.97C961.36,-711.64 1026.6,-368.13 848,-216 812.76,-185.98 494.82,-169.5 382.83,-164.59"/>
<polygon fill="#8b4513" stroke="#8b4513" points="382.79,-161.08 372.65,-164.15 382.49,-168.07 382.79,-161.08"/>
</g>
<!-- libffi&#45;&gt;glibc -->
<g id="edge40" class="edge">
<title>libffi&#45;&gt;glibc</title>
<path fill="none" stroke="#8b4513" d="M1128.22,-647.97C1125.6,-621.34 1121,-568.21 1121,-523 1121,-523 1121,-523 1121,-305 1121,-262.81 1121.75,-241.31 1088,-216 1031.34,-173.51 528.16,-164.94 383.02,-163.34"/>
<polygon fill="#8b4513" stroke="#8b4513" points="382.85,-159.84 372.81,-163.23 382.78,-166.84 382.85,-159.84"/>
</g>
<!-- libmount.so=1&#45;64&#45;&gt;libutil&#45;linux -->
<g id="edge44" class="edge">
<title>libmount.so=1&#45;64&#45;&gt;libutil&#45;linux</title>
<path fill="none" stroke="grey" d="M748.98,-864.05C744.49,-853.21 738.68,-839.18 734.16,-828.28"/>
</g>
<!-- libunistring&#45;&gt;glibc -->
<g id="edge46" class="edge">
<title>libunistring&#45;&gt;glibc</title>
<path fill="none" stroke="#8b4513" d="M454.6,-724.71C406.12,-705.36 325,-662.84 325,-595 325,-595 325,-595 325,-305 325,-264.64 332.63,-218.39 338.22,-189.94"/>
<polygon fill="#8b4513" stroke="#8b4513" points="341.69,-190.45 340.25,-179.95 334.83,-189.06 341.69,-190.45"/>
</g>
<!-- libcroco&#45;&gt;glib2 -->
<g id="edge48" class="edge">
<title>libcroco&#45;&gt;glib2</title>
<path fill="none" stroke="#8b4513" d="M615.29,-1013.28C645.05,-1000.96 691.83,-981.58 723.19,-968.59"/>
<polygon fill="#8b4513" stroke="#8b4513" points="724.89,-971.67 732.79,-964.61 722.21,-965.21 724.89,-971.67"/>
</g>
<!-- libxml2 -->
<g id="node30" class="node">
<title>libxml2</title>
<ellipse fill="green" stroke="green" cx="587" cy="-882" rx="38.19" ry="18"/>
<text text-anchor="middle" x="587" y="-878.3" font-family="Times,serif" font-size="14.00">libxml2</text>
</g>
<!-- libcroco&#45;&gt;libxml2 -->
<g id="edge49" class="edge">
<title>libcroco&#45;&gt;libxml2</title>
<path fill="none" stroke="#8b4513" d="M587,-1007.87C587,-983.67 587,-939.21 587,-910.39"/>
<polygon fill="#8b4513" stroke="#8b4513" points="590.5,-910.19 587,-900.19 583.5,-910.19 590.5,-910.19"/>
</g>
<!-- libxml2&#45;&gt;readline -->
<g id="edge51" class="edge">
<title>libxml2&#45;&gt;readline</title>
<path fill="none" stroke="#8b4513" d="M589.78,-864.03C592.19,-845.94 594.51,-816.58 589,-792 569.64,-705.67 523.36,-698.33 504,-612 499.34,-591.2 503.6,-567.33 508.62,-549.55"/>
<polygon fill="#8b4513" stroke="#8b4513" points="512,-550.44 511.59,-539.85 505.31,-548.39 512,-550.44"/>
</g>
<!-- libxml2&#45;&gt;ncurses -->
<g id="edge52" class="edge">
<title>libxml2&#45;&gt;ncurses</title>
<path fill="none" stroke="#8b4513" d="M595.66,-864.38C621.87,-812.15 697.58,-646.38 681,-504 677.2,-471.34 682.04,-459.49 664,-432 654.59,-417.65 639.89,-405.74 626.31,-396.87"/>
<polygon fill="#8b4513" stroke="#8b4513" points="627.96,-393.78 617.61,-391.49 624.27,-399.73 627.96,-393.78"/>
</g>
<!-- libxml2&#45;&gt;xz -->
<g id="edge53" class="edge">
<title>libxml2&#45;&gt;xz</title>
<path fill="none" stroke="#8b4513" d="M555.95,-871.12C514.83,-858.04 442.6,-835.05 400.35,-821.61"/>
<polygon fill="#8b4513" stroke="#8b4513" points="401.39,-818.27 390.8,-818.57 399.27,-824.94 401.39,-818.27"/>
</g>
<!-- libxml2&#45;&gt;zlib -->
<g id="edge50" class="edge">
<title>libxml2&#45;&gt;zlib</title>
<path fill="none" stroke="#8b4513" d="M621.54,-873.98C662.24,-865.24 731.59,-848.88 789,-828 790.85,-827.33 792.74,-826.59 794.63,-825.82"/>
<polygon fill="#8b4513" stroke="#8b4513" points="796.2,-828.95 803.96,-821.73 793.39,-822.54 796.2,-828.95"/>
</g>
<!-- icu -->
<g id="node31" class="node">
<title>icu</title>
<ellipse fill="green" stroke="green" cx="553" cy="-810" rx="27" ry="18"/>
<text text-anchor="middle" x="553" y="-806.3" font-family="Times,serif" font-size="14.00">icu</text>
</g>
<!-- libxml2&#45;&gt;icu -->
<g id="edge54" class="edge">
<title>libxml2&#45;&gt;icu</title>
<path fill="none" stroke="#8b4513" d="M578.77,-864.05C574.74,-855.77 569.81,-845.62 565.35,-836.42"/>
<polygon fill="#8b4513" stroke="#8b4513" points="568.44,-834.77 560.92,-827.31 562.14,-837.83 568.44,-834.77"/>
</g>
<!-- icu&#45;&gt;sh -->
<g id="edge56" class="edge">
<title>icu&#45;&gt;sh</title>
<path fill="none" stroke="#8b4513" d="M530.49,-799.68C505.56,-789.28 464.23,-771.84 429,-756 427.2,-755.19 425.36,-754.35 423.5,-753.5"/>
<polygon fill="#8b4513" stroke="#8b4513" points="424.8,-750.24 414.26,-749.2 421.85,-756.59 424.8,-750.24"/>
</g>
<!-- icu&#45;&gt;gcc&#45;libs -->
<g id="edge55" class="edge">
<title>icu&#45;&gt;gcc&#45;libs</title>
<path fill="none" stroke="#8b4513" d="M569.83,-795.87C615.62,-758.54 739,-646.49 739,-523 739,-523 739,-523 739,-449 739,-406.67 757.4,-360.41 770.67,-332.56"/>
<polygon fill="#8b4513" stroke="#8b4513" points="773.85,-334.03 775.11,-323.51 767.56,-330.94 773.85,-334.03"/>
</g>
<!-- device&#45;mapper&#45;&gt;glibc -->
<g id="edge58" class="edge">
<title>device&#45;mapper&#45;&gt;glibc</title>
<path fill="none" stroke="#8b4513" d="M117.45,-1085.95C91.84,-1077.94 61.22,-1064.78 40,-1044 9.01,-1013.66 0,-998.37 0,-955 0,-955 0,-955 0,-305 0,-259.41 13.76,-242.29 51,-216 91.47,-187.43 235.57,-171.93 305.45,-165.95"/>
<polygon fill="#8b4513" stroke="#8b4513" points="305.93,-169.42 315.6,-165.1 305.34,-162.44 305.93,-169.42"/>
</g>
<!-- systemd&#45;libs -->
<g id="node33" class="node">
<title>systemd&#45;libs</title>
<ellipse fill="green" stroke="green" cx="137" cy="-954" rx="55.79" ry="18"/>
<text text-anchor="middle" x="137" y="-950.3" font-family="Times,serif" font-size="14.00">systemd&#45;libs</text>
</g>
<!-- device&#45;mapper&#45;&gt;systemd&#45;libs -->
<g id="edge59" class="edge">
<title>device&#45;mapper&#45;&gt;systemd&#45;libs</title>
<path fill="none" stroke="#8b4513" d="M177.67,-1080.25C189.75,-1062.09 204.64,-1032.43 194,-1008 188.68,-995.78 178.99,-985.11 169.1,-976.61"/>
<polygon fill="#8b4513" stroke="#8b4513" points="171.19,-973.8 161.2,-970.27 166.81,-979.26 171.19,-973.8"/>
</g>
<!-- libudev.so=1&#45;64 -->
<g id="node38" class="node">
<title>libudev.so=1&#45;64</title>
<ellipse fill="green" stroke="green" cx="117" cy="-1026" rx="68.49" ry="18"/>
<text text-anchor="middle" x="117" y="-1022.3" font-family="Times,serif" font-size="14.00">libudev.so=1&#45;64</text>
</g>
<!-- device&#45;mapper&#45;&gt;libudev.so=1&#45;64 -->
<g id="edge71" class="edge">
<title>device&#45;mapper&#45;&gt;libudev.so=1&#45;64</title>
<path fill="none" stroke="#8b4513" d="M153.38,-1080.05C147.66,-1071.71 140.65,-1061.49 134.32,-1052.25"/>
<polygon fill="#8b4513" stroke="#8b4513" points="137.05,-1050.06 128.51,-1043.79 131.28,-1054.02 137.05,-1050.06"/>
</g>
<!-- systemd&#45;libs&#45;&gt;glibc -->
<g id="edge60" class="edge">
<title>systemd&#45;libs&#45;&gt;glibc</title>
<path fill="none" stroke="#8b4513" d="M116,-937.19C86.94,-913.32 38,-865.1 38,-811 38,-811 38,-811 38,-305 38,-188.58 222.51,-167.34 304.98,-163.66"/>
<polygon fill="#8b4513" stroke="#8b4513" points="305.35,-167.15 315.21,-163.27 305.09,-160.16 305.35,-167.15"/>
</g>
<!-- systemd&#45;libs&#45;&gt;xz -->
<g id="edge70" class="edge">
<title>systemd&#45;libs&#45;&gt;xz</title>
<path fill="none" stroke="#8b4513" d="M183.63,-943.84C230.62,-933.85 299.1,-917.02 320,-900 339.61,-884.03 352.08,-857.66 359.2,-837.76"/>
<polygon fill="#8b4513" stroke="#8b4513" points="362.6,-838.63 362.45,-828.03 355.96,-836.41 362.6,-838.63"/>
</g>
<!-- libcap -->
<g id="node34" class="node">
<title>libcap</title>
<ellipse fill="green" stroke="green" cx="137" cy="-882" rx="32.49" ry="18"/>
<text text-anchor="middle" x="137" y="-878.3" font-family="Times,serif" font-size="14.00">libcap</text>
</g>
<!-- systemd&#45;libs&#45;&gt;libcap -->
<g id="edge61" class="edge">
<title>systemd&#45;libs&#45;&gt;libcap</title>
<path fill="none" stroke="#8b4513" d="M137,-935.7C137,-927.98 137,-918.71 137,-910.11"/>
<polygon fill="#8b4513" stroke="#8b4513" points="140.5,-910.1 137,-900.1 133.5,-910.1 140.5,-910.1"/>
</g>
<!-- libgcrypt -->
<g id="node35" class="node">
<title>libgcrypt</title>
<ellipse fill="green" stroke="green" cx="268" cy="-882" rx="42.79" ry="18"/>
<text text-anchor="middle" x="268" y="-878.3" font-family="Times,serif" font-size="14.00">libgcrypt</text>
</g>
<!-- systemd&#45;libs&#45;&gt;libgcrypt -->
<g id="edge64" class="edge">
<title>systemd&#45;libs&#45;&gt;libgcrypt</title>
<path fill="none" stroke="#8b4513" d="M164.78,-938.15C184.8,-927.46 211.95,-912.95 233.38,-901.5"/>
<polygon fill="#8b4513" stroke="#8b4513" points="235.31,-904.44 242.48,-896.64 232.01,-898.26 235.31,-904.44"/>
</g>
<!-- lz4 -->
<g id="node37" class="node">
<title>lz4</title>
<ellipse fill="green" stroke="green" cx="93" cy="-594" rx="27" ry="18"/>
<text text-anchor="middle" x="93" y="-590.3" font-family="Times,serif" font-size="14.00">lz4</text>
</g>
<!-- systemd&#45;libs&#45;&gt;lz4 -->
<g id="edge68" class="edge">
<title>systemd&#45;libs&#45;&gt;lz4</title>
<path fill="none" stroke="#8b4513" d="M121.25,-936.61C112.59,-926.72 102.34,-913.47 96,-900 78.74,-863.31 76,-851.54 76,-811 76,-811 76,-811 76,-737 76,-696.71 82.83,-650.44 87.83,-621.96"/>
<polygon fill="#8b4513" stroke="#8b4513" points="91.3,-622.43 89.64,-611.97 84.42,-621.19 91.3,-622.43"/>
</g>
<!-- libcap&#45;&gt;glibc -->
<g id="edge62" class="edge">
<title>libcap&#45;&gt;glibc</title>
<path fill="none" stroke="#8b4513" d="M135.38,-863.83C134.48,-853.47 133.45,-839.99 133,-828 132.4,-812.01 132.55,-807.99 133,-792 136.33,-672.31 148,-642.74 148,-523 148,-523 148,-523 148,-305 148,-226.91 251.29,-187.36 307.91,-171.55"/>
<polygon fill="#8b4513" stroke="#8b4513" points="308.82,-174.93 317.57,-168.96 307,-168.17 308.82,-174.93"/>
</g>
<!-- libcap&#45;&gt;attr -->
<g id="edge63" class="edge">
<title>libcap&#45;&gt;attr</title>
<path fill="none" stroke="#8b4513" d="M144.58,-864.41C148.37,-856.13 153.03,-845.92 157.27,-836.66"/>
<polygon fill="#8b4513" stroke="#8b4513" points="160.5,-838.02 161.47,-827.47 154.13,-835.11 160.5,-838.02"/>
</g>
<!-- libgpg&#45;error -->
<g id="node36" class="node">
<title>libgpg&#45;error</title>
<ellipse fill="green" stroke="green" cx="268" cy="-810" rx="53.89" ry="18"/>
<text text-anchor="middle" x="268" y="-806.3" font-family="Times,serif" font-size="14.00">libgpg&#45;error</text>
</g>
<!-- libgcrypt&#45;&gt;libgpg&#45;error -->
<g id="edge65" class="edge">
<title>libgcrypt&#45;&gt;libgpg&#45;error</title>
<path fill="none" stroke="#8b4513" d="M268,-863.7C268,-855.98 268,-846.71 268,-838.11"/>
<polygon fill="#8b4513" stroke="#8b4513" points="271.5,-838.1 268,-828.1 264.5,-838.1 271.5,-838.1"/>
</g>
<!-- libgpg&#45;error&#45;&gt;sh -->
<g id="edge67" class="edge">
<title>libgpg&#45;error&#45;&gt;sh</title>
<path fill="none" stroke="#8b4513" d="M294.51,-794.15C314.86,-782.76 342.93,-767.04 363.9,-755.29"/>
<polygon fill="#8b4513" stroke="#8b4513" points="365.68,-758.31 372.7,-750.37 362.26,-752.2 365.68,-758.31"/>
</g>
<!-- libgpg&#45;error&#45;&gt;glibc -->
<g id="edge66" class="edge">
<title>libgpg&#45;error&#45;&gt;glibc</title>
<path fill="none" stroke="#8b4513" d="M268.4,-791.95C268.98,-765.29 270,-712.12 270,-667 270,-667 270,-667 270,-305 270,-258.59 301.47,-212.33 323.36,-185.75"/>
<polygon fill="#8b4513" stroke="#8b4513" points="326.27,-187.73 330.08,-177.84 320.94,-183.2 326.27,-187.73"/>
</g>
<!-- lz4&#45;&gt;glibc -->
<g id="edge69" class="edge">
<title>lz4&#45;&gt;glibc</title>
<path fill="none" stroke="#8b4513" d="M94.58,-575.97C96.91,-549.33 101,-496.19 101,-451 101,-451 101,-451 101,-305 101,-262.81 102.6,-244.18 134,-216 181.64,-173.24 258.78,-163.91 305.13,-162.46"/>
<polygon fill="#8b4513" stroke="#8b4513" points="305.44,-165.96 315.37,-162.26 305.3,-158.96 305.44,-165.96"/>
</g>
<!-- libudev.so=1&#45;64&#45;&gt;systemd&#45;libs -->
<g id="edge72" class="edge">
<title>libudev.so=1&#45;64&#45;&gt;systemd&#45;libs</title>
<path fill="none" stroke="grey" d="M121.94,-1007.7C125.04,-996.85 129.02,-982.92 132.11,-972.1"/>
</g>
</g>
</svg>
