<?xml version="1.0" encoding="UTF-8" standalone="no"?>
<!DOCTYPE svg PUBLIC "-//W3C//DTD SVG 1.1//EN"
 "http://www.w3.org/Graphics/SVG/1.1/DTD/svg11.dtd">
<!-- Generated by graphviz version 2.44.0 (0)
 -->
<!-- Title: G Pages: 1 -->
<svg width="1192pt" height="1268pt"
 viewBox="0.00 0.00 1191.95 1268.00" xmlns="http://www.w3.org/2000/svg" xmlns:xlink="http://www.w3.org/1999/xlink">
<g id="graph0" class="graph" transform="scale(1 1) rotate(0) translate(4 1264)">
<title>G</title>
<polygon fill="white" stroke="transparent" points="-4,4 -4,-1264 1187.95,-1264 1187.95,4 -4,4"/>
<!-- START -->
<g id="node1" class="node">
<title>START</title>
<ellipse fill="red" stroke="red" cx="933" cy="-1242" rx="38.19" ry="18"/>
<text text-anchor="middle" x="933" y="-1238.3" font-family="Times,serif" font-size="14.00">START</text>
</g>
<!-- guile -->
<g id="node2" class="node">
<title>guile</title>
<ellipse fill="green" stroke="green" cx="933" cy="-1170" rx="28.7" ry="18"/>
<text text-anchor="middle" x="933" y="-1166.3" font-family="Times,serif" font-size="14.00">guile</text>
</g>
<!-- START&#45;&gt;guile -->
<g id="edge1" class="edge">
<title>START&#45;&gt;guile</title>
<path fill="none" stroke="black" d="M933,-1223.7C933,-1215.98 933,-1206.71 933,-1198.11"/>
<polygon fill="black" stroke="black" points="936.5,-1198.1 933,-1188.1 929.5,-1198.1 936.5,-1198.1"/>
</g>
<!-- gmp -->
<g id="node3" class="node">
<title>gmp</title>
<ellipse fill="green" stroke="green" cx="923" cy="-810" rx="27" ry="18"/>
<text text-anchor="middle" x="923" y="-806.3" font-family="Times,serif" font-size="14.00">gmp</text>
</g>
<!-- guile&#45;&gt;gmp -->
<g id="edge2" class="edge">
<title>guile&#45;&gt;gmp</title>
<path fill="none" stroke="#8b4513" d="M933,-1151.95C933,-1125.29 933,-1072.11 933,-1027 933,-1027 933,-1027 933,-953 933,-912.9 928.98,-866.58 926.04,-838.04"/>
<polygon fill="#8b4513" stroke="#8b4513" points="929.51,-837.6 924.98,-828.02 922.55,-838.34 929.51,-837.6"/>
</g>
<!-- ncurses -->
<g id="node16" class="node">
<title>ncurses</title>
<ellipse fill="green" stroke="green" cx="619" cy="-378" rx="37.09" ry="18"/>
<text text-anchor="middle" x="619" y="-374.3" font-family="Times,serif" font-size="14.00">ncurses</text>
</g>
<!-- guile&#45;&gt;ncurses -->
<g id="edge34" class="edge">
<title>guile&#45;&gt;ncurses</title>
<path fill="none" stroke="#8b4513" d="M904.33,-1169.47C771.69,-1170.89 224,-1168.23 224,-1027 224,-1027 224,-1027 224,-953 224,-856.4 262,-835.6 262,-739 262,-739 262,-739 262,-665 262,-545.76 294.4,-496.02 395,-432 449.34,-397.42 524.04,-385.37 571.93,-381.19"/>
<polygon fill="#8b4513" stroke="#8b4513" points="572.33,-384.67 582.02,-380.4 571.78,-377.7 572.33,-384.67"/>
</g>
<!-- libltdl -->
<g id="node18" class="node">
<title>libltdl</title>
<ellipse fill="green" stroke="green" cx="156" cy="-1098" rx="31.7" ry="18"/>
<text text-anchor="middle" x="156" y="-1094.3" font-family="Times,serif" font-size="14.00">libltdl</text>
</g>
<!-- guile&#45;&gt;libltdl -->
<g id="edge23" class="edge">
<title>guile&#45;&gt;libltdl</title>
<path fill="none" stroke="#8b4513" d="M904.1,-1169.27C805.85,-1169.68 476.08,-1166.92 210,-1116 204.06,-1114.86 197.86,-1113.29 191.87,-1111.56"/>
<polygon fill="#8b4513" stroke="#8b4513" points="192.64,-1108.14 182.05,-1108.54 190.58,-1114.83 192.64,-1108.14"/>
</g>
<!-- texinfo -->
<g id="node23" class="node">
<title>texinfo</title>
<ellipse fill="green" stroke="green" cx="716" cy="-1098" rx="36" ry="18"/>
<text text-anchor="middle" x="716" y="-1094.3" font-family="Times,serif" font-size="14.00">texinfo</text>
</g>
<!-- guile&#45;&gt;texinfo -->
<g id="edge35" class="edge">
<title>guile&#45;&gt;texinfo</title>
<path fill="none" stroke="#8b4513" d="M908.11,-1160.97C870.64,-1148.88 799.43,-1125.91 755.02,-1111.59"/>
<polygon fill="#8b4513" stroke="#8b4513" points="756.02,-1108.23 745.43,-1108.49 753.87,-1114.89 756.02,-1108.23"/>
</g>
<!-- libunistring -->
<g id="node33" class="node">
<title>libunistring</title>
<ellipse fill="green" stroke="green" cx="1088" cy="-1026" rx="51.99" ry="18"/>
<text text-anchor="middle" x="1088" y="-1022.3" font-family="Times,serif" font-size="14.00">libunistring</text>
</g>
<!-- guile&#45;&gt;libunistring -->
<g id="edge66" class="edge">
<title>guile&#45;&gt;libunistring</title>
<path fill="none" stroke="#8b4513" d="M955.47,-1158.76C974.51,-1149.38 1001.85,-1134.21 1022,-1116 1042.48,-1097.49 1060.74,-1071.76 1072.83,-1052.73"/>
<polygon fill="#8b4513" stroke="#8b4513" points="1075.96,-1054.32 1078.26,-1043.98 1070.01,-1050.64 1075.96,-1054.32"/>
</g>
<!-- gc -->
<g id="node34" class="node">
<title>gc</title>
<ellipse fill="green" stroke="green" cx="1033" cy="-666" rx="27" ry="18"/>
<text text-anchor="middle" x="1033" y="-662.3" font-family="Times,serif" font-size="14.00">gc</text>
</g>
<!-- guile&#45;&gt;gc -->
<g id="edge68" class="edge">
<title>guile&#45;&gt;gc</title>
<path fill="none" stroke="#8b4513" d="M937.77,-1151.87C940.59,-1141.52 944.16,-1128.04 947,-1116 984.39,-957.62 1017.05,-764.93 1028.58,-694.47"/>
<polygon fill="#8b4513" stroke="#8b4513" points="1032.09,-694.67 1030.24,-684.24 1025.18,-693.55 1032.09,-694.67"/>
</g>
<!-- libffi -->
<g id="node35" class="node">
<title>libffi</title>
<ellipse fill="green" stroke="green" cx="1156" cy="-738" rx="27.9" ry="18"/>
<text text-anchor="middle" x="1156" y="-734.3" font-family="Times,serif" font-size="14.00">libffi</text>
</g>
<!-- guile&#45;&gt;libffi -->
<g id="edge70" class="edge">
<title>guile&#45;&gt;libffi</title>
<path fill="none" stroke="#8b4513" d="M960.88,-1165.42C1023.13,-1155.71 1168,-1122.81 1168,-1027 1168,-1027 1168,-1027 1168,-881 1168,-840.85 1163.18,-794.55 1159.65,-766.02"/>
<polygon fill="#8b4513" stroke="#8b4513" points="1163.11,-765.49 1158.37,-756.01 1156.16,-766.37 1163.11,-765.49"/>
</g>
<!-- gcc&#45;libs -->
<g id="node4" class="node">
<title>gcc&#45;libs</title>
<ellipse fill="green" stroke="green" cx="795" cy="-306" rx="38.19" ry="18"/>
<text text-anchor="middle" x="795" y="-302.3" font-family="Times,serif" font-size="14.00">gcc&#45;libs</text>
</g>
<!-- gmp&#45;&gt;gcc&#45;libs -->
<g id="edge3" class="edge">
<title>gmp&#45;&gt;gcc&#45;libs</title>
<path fill="none" stroke="#8b4513" d="M919.25,-792.05C913.71,-765.52 904,-712.52 904,-667 904,-667 904,-667 904,-449 904,-396.65 856.81,-351.71 824.53,-327.1"/>
<polygon fill="#8b4513" stroke="#8b4513" points="826.4,-324.13 816.28,-320.99 822.23,-329.75 826.4,-324.13"/>
</g>
<!-- sh -->
<g id="node12" class="node">
<title>sh</title>
<ellipse fill="green" stroke="green" cx="676" cy="-738" rx="27" ry="18"/>
<text text-anchor="middle" x="676" y="-734.3" font-family="Times,serif" font-size="14.00">sh</text>
</g>
<!-- gmp&#45;&gt;sh -->
<g id="edge11" class="edge">
<title>gmp&#45;&gt;sh</title>
<path fill="none" stroke="#8b4513" d="M901.97,-798.23C897.13,-795.99 891.95,-793.77 887,-792 826.88,-770.49 754.14,-754.27 711.68,-745.74"/>
<polygon fill="#8b4513" stroke="#8b4513" points="712.3,-742.3 701.81,-743.79 710.94,-749.17 712.3,-742.3"/>
</g>
<!-- glibc&gt;=2.27 -->
<g id="node5" class="node">
<title>glibc&gt;=2.27</title>
<ellipse fill="green" stroke="green" cx="783" cy="-234" rx="54.69" ry="18"/>
<text text-anchor="middle" x="783" y="-230.3" font-family="Times,serif" font-size="14.00">glibc&gt;=2.27</text>
</g>
<!-- gcc&#45;libs&#45;&gt;glibc&gt;=2.27 -->
<g id="edge4" class="edge">
<title>gcc&#45;libs&#45;&gt;glibc&gt;=2.27</title>
<path fill="none" stroke="#8b4513" d="M792.03,-287.7C790.71,-279.98 789.12,-270.71 787.65,-262.11"/>
<polygon fill="#8b4513" stroke="#8b4513" points="791.07,-261.37 785.93,-252.1 784.17,-262.55 791.07,-261.37"/>
</g>
<!-- glibc -->
<g id="node6" class="node">
<title>glibc</title>
<ellipse fill="green" stroke="green" cx="376" cy="-162" rx="28.7" ry="18"/>
<text text-anchor="middle" x="376" y="-158.3" font-family="Times,serif" font-size="14.00">glibc</text>
</g>
<!-- glibc&gt;=2.27&#45;&gt;glibc -->
<g id="edge5" class="edge">
<title>glibc&gt;=2.27&#45;&gt;glibc</title>
<path fill="none" stroke="grey" d="M741.53,-222.17C732.49,-219.98 722.95,-217.8 714,-216 599.58,-192.98 461.67,-174.07 403.75,-166.53"/>
</g>
<!-- linux&#45;api&#45;headers&gt;=4.10 -->
<g id="node7" class="node">
<title>linux&#45;api&#45;headers&gt;=4.10</title>
<ellipse fill="green" stroke="green" cx="228" cy="-90" rx="98.28" ry="18"/>
<text text-anchor="middle" x="228" y="-86.3" font-family="Times,serif" font-size="14.00">linux&#45;api&#45;headers&gt;=4.10</text>
</g>
<!-- glibc&#45;&gt;linux&#45;api&#45;headers&gt;=4.10 -->
<g id="edge6" class="edge">
<title>glibc&#45;&gt;linux&#45;api&#45;headers&gt;=4.10</title>
<path fill="none" stroke="#8b4513" d="M353.84,-150.52C332.06,-140.22 298.23,-124.22 271.13,-111.4"/>
<polygon fill="#8b4513" stroke="#8b4513" points="272.39,-108.12 261.85,-107.01 269.4,-114.45 272.39,-108.12"/>
</g>
<!-- tzdata -->
<g id="node9" class="node">
<title>tzdata</title>
<ellipse fill="green" stroke="green" cx="376" cy="-90" rx="31.7" ry="18"/>
<text text-anchor="middle" x="376" y="-86.3" font-family="Times,serif" font-size="14.00">tzdata</text>
</g>
<!-- glibc&#45;&gt;tzdata -->
<g id="edge8" class="edge">
<title>glibc&#45;&gt;tzdata</title>
<path fill="none" stroke="#8b4513" d="M376,-143.7C376,-135.98 376,-126.71 376,-118.11"/>
<polygon fill="#8b4513" stroke="#8b4513" points="379.5,-118.1 376,-108.1 372.5,-118.1 379.5,-118.1"/>
</g>
<!-- filesystem -->
<g id="node10" class="node">
<title>filesystem</title>
<ellipse fill="green" stroke="green" cx="473" cy="-90" rx="46.59" ry="18"/>
<text text-anchor="middle" x="473" y="-86.3" font-family="Times,serif" font-size="14.00">filesystem</text>
</g>
<!-- glibc&#45;&gt;filesystem -->
<g id="edge9" class="edge">
<title>glibc&#45;&gt;filesystem</title>
<path fill="none" stroke="#8b4513" d="M394.24,-147.83C408.04,-137.88 427.28,-123.99 443.29,-112.44"/>
<polygon fill="#8b4513" stroke="#8b4513" points="445.74,-114.99 451.8,-106.3 441.64,-109.31 445.74,-114.99"/>
</g>
<!-- linux&#45;api&#45;headers -->
<g id="node8" class="node">
<title>linux&#45;api&#45;headers</title>
<ellipse fill="green" stroke="green" cx="228" cy="-18" rx="71.49" ry="18"/>
<text text-anchor="middle" x="228" y="-14.3" font-family="Times,serif" font-size="14.00">linux&#45;api&#45;headers</text>
</g>
<!-- linux&#45;api&#45;headers&gt;=4.10&#45;&gt;linux&#45;api&#45;headers -->
<g id="edge7" class="edge">
<title>linux&#45;api&#45;headers&gt;=4.10&#45;&gt;linux&#45;api&#45;headers</title>
<path fill="none" stroke="grey" d="M228,-71.7C228,-60.85 228,-46.92 228,-36.1"/>
</g>
<!-- iana&#45;etc -->
<g id="node11" class="node">
<title>iana&#45;etc</title>
<ellipse fill="green" stroke="green" cx="473" cy="-18" rx="38.19" ry="18"/>
<text text-anchor="middle" x="473" y="-14.3" font-family="Times,serif" font-size="14.00">iana&#45;etc</text>
</g>
<!-- filesystem&#45;&gt;iana&#45;etc -->
<g id="edge10" class="edge">
<title>filesystem&#45;&gt;iana&#45;etc</title>
<path fill="none" stroke="#8b4513" d="M473,-71.7C473,-63.98 473,-54.71 473,-46.11"/>
<polygon fill="#8b4513" stroke="#8b4513" points="476.5,-46.1 473,-36.1 469.5,-46.1 476.5,-46.1"/>
</g>
<!-- bash -->
<g id="node13" class="node">
<title>bash</title>
<ellipse fill="green" stroke="green" cx="676" cy="-666" rx="27" ry="18"/>
<text text-anchor="middle" x="676" y="-662.3" font-family="Times,serif" font-size="14.00">bash</text>
</g>
<!-- sh&#45;&gt;bash -->
<g id="edge12" class="edge">
<title>sh&#45;&gt;bash</title>
<path fill="none" stroke="grey" d="M652.93,-728.42C638.72,-714.98 638.69,-689.13 652.85,-675.65"/>
</g>
<!-- sh&#45;&gt;bash -->
<g id="edge26" class="edge">
<title>sh&#45;&gt;bash</title>
<path fill="none" stroke="grey" d="M659.63,-723.5C654.45,-711.11 654.46,-692.84 659.64,-680.46"/>
</g>
<!-- sh&#45;&gt;bash -->
<g id="edge51" class="edge">
<title>sh&#45;&gt;bash</title>
<path fill="none" stroke="grey" d="M670.16,-720.41C668.96,-709.41 668.95,-695.03 670.12,-683.96"/>
</g>
<!-- sh&#45;&gt;bash -->
<g id="edge58" class="edge">
<title>sh&#45;&gt;bash</title>
<path fill="none" stroke="grey" d="M681.84,-720.41C683.04,-709.41 683.05,-695.03 681.88,-683.96"/>
</g>
<!-- sh&#45;&gt;bash -->
<g id="edge62" class="edge">
<title>sh&#45;&gt;bash</title>
<path fill="none" stroke="grey" d="M692.37,-723.5C697.55,-711.11 697.54,-692.84 692.36,-680.46"/>
</g>
<!-- sh&#45;&gt;bash -->
<g id="edge65" class="edge">
<title>sh&#45;&gt;bash</title>
<path fill="none" stroke="grey" d="M699.07,-728.42C713.28,-714.98 713.31,-689.13 699.15,-675.65"/>
</g>
<!-- bash&#45;&gt;glibc -->
<g id="edge21" class="edge">
<title>bash&#45;&gt;glibc</title>
<path fill="none" stroke="#8b4513" d="M682.08,-648.07C685.45,-637.79 689.29,-624.31 691,-612 693.2,-596.15 691.55,-591.99 691,-576 687.65,-479.37 714.49,-443.07 665,-360 605.41,-259.98 472.96,-199.27 410.22,-175.1"/>
<polygon fill="#8b4513" stroke="#8b4513" points="411.36,-171.79 400.77,-171.53 408.89,-178.34 411.36,-171.79"/>
</g>
<!-- readline&gt;=7.0 -->
<g id="node14" class="node">
<title>readline&gt;=7.0</title>
<ellipse fill="green" stroke="green" cx="587" cy="-594" rx="61.19" ry="18"/>
<text text-anchor="middle" x="587" y="-590.3" font-family="Times,serif" font-size="14.00">readline&gt;=7.0</text>
</g>
<!-- bash&#45;&gt;readline&gt;=7.0 -->
<g id="edge13" class="edge">
<title>bash&#45;&gt;readline&gt;=7.0</title>
<path fill="none" stroke="#8b4513" d="M659.26,-651.83C646.97,-642.17 629.97,-628.8 615.55,-617.46"/>
<polygon fill="#8b4513" stroke="#8b4513" points="617.44,-614.49 607.41,-611.06 613.11,-619.99 617.44,-614.49"/>
</g>
<!-- bash&#45;&gt;ncurses -->
<g id="edge22" class="edge">
<title>bash&#45;&gt;ncurses</title>
<path fill="none" stroke="#8b4513" d="M676.83,-647.77C678.17,-608.37 678.4,-509.14 652,-432 648.61,-422.11 643.09,-412.14 637.53,-403.56"/>
<polygon fill="#8b4513" stroke="#8b4513" points="640.33,-401.47 631.8,-395.19 634.55,-405.42 640.33,-401.47"/>
</g>
<!-- readline -->
<g id="node15" class="node">
<title>readline</title>
<ellipse fill="green" stroke="green" cx="488" cy="-522" rx="38.99" ry="18"/>
<text text-anchor="middle" x="488" y="-518.3" font-family="Times,serif" font-size="14.00">readline</text>
</g>
<!-- readline&gt;=7.0&#45;&gt;readline -->
<g id="edge14" class="edge">
<title>readline&gt;=7.0&#45;&gt;readline</title>
<path fill="none" stroke="grey" d="M564.54,-577.12C547.65,-565.18 524.71,-548.95 508.36,-537.39"/>
</g>
<!-- readline&#45;&gt;glibc -->
<g id="edge15" class="edge">
<title>readline&#45;&gt;glibc</title>
<path fill="none" stroke="#8b4513" d="M457.04,-510.97C436.36,-502.68 410.25,-488.85 395,-468 371.12,-435.36 376,-419.45 376,-379 376,-379 376,-379 376,-305 376,-265 376,-218.65 376,-190.08"/>
<polygon fill="#8b4513" stroke="#8b4513" points="379.5,-190.05 376,-180.05 372.5,-190.05 379.5,-190.05"/>
</g>
<!-- readline&#45;&gt;ncurses -->
<g id="edge16" class="edge">
<title>readline&#45;&gt;ncurses</title>
<path fill="none" stroke="#8b4513" d="M517.75,-509.99C537.87,-501.25 563.81,-487.28 581,-468 596.75,-450.33 606.68,-425.15 612.42,-406.08"/>
<polygon fill="#8b4513" stroke="#8b4513" points="615.86,-406.77 615.19,-396.2 609.12,-404.88 615.86,-406.77"/>
</g>
<!-- libncursesw.so=6&#45;64 -->
<g id="node17" class="node">
<title>libncursesw.so=6&#45;64</title>
<ellipse fill="green" stroke="green" cx="488" cy="-450" rx="83.69" ry="18"/>
<text text-anchor="middle" x="488" y="-446.3" font-family="Times,serif" font-size="14.00">libncursesw.so=6&#45;64</text>
</g>
<!-- readline&#45;&gt;libncursesw.so=6&#45;64 -->
<g id="edge19" class="edge">
<title>readline&#45;&gt;libncursesw.so=6&#45;64</title>
<path fill="none" stroke="#8b4513" d="M488,-503.7C488,-495.98 488,-486.71 488,-478.11"/>
<polygon fill="#8b4513" stroke="#8b4513" points="491.5,-478.1 488,-468.1 484.5,-478.1 491.5,-478.1"/>
</g>
<!-- ncurses&#45;&gt;gcc&#45;libs -->
<g id="edge18" class="edge">
<title>ncurses&#45;&gt;gcc&#45;libs</title>
<path fill="none" stroke="#8b4513" d="M646.89,-365.91C676.71,-354.05 724.16,-335.17 757.3,-322"/>
<polygon fill="#8b4513" stroke="#8b4513" points="758.66,-325.22 766.66,-318.27 756.07,-318.72 758.66,-325.22"/>
</g>
<!-- ncurses&#45;&gt;glibc -->
<g id="edge17" class="edge">
<title>ncurses&#45;&gt;glibc</title>
<path fill="none" stroke="#8b4513" d="M601.91,-361.95C559.34,-324.46 448.48,-226.83 399.66,-183.84"/>
<polygon fill="#8b4513" stroke="#8b4513" points="401.93,-181.17 392.11,-177.19 397.3,-186.42 401.93,-181.17"/>
</g>
<!-- libncursesw.so=6&#45;64&#45;&gt;ncurses -->
<g id="edge20" class="edge">
<title>libncursesw.so=6&#45;64&#45;&gt;ncurses</title>
<path fill="none" stroke="grey" d="M517.73,-433.12C541.13,-420.61 573.32,-403.41 595.07,-391.78"/>
</g>
<!-- libtool -->
<g id="node19" class="node">
<title>libtool</title>
<ellipse fill="green" stroke="green" cx="100" cy="-810" rx="33.6" ry="18"/>
<text text-anchor="middle" x="100" y="-806.3" font-family="Times,serif" font-size="14.00">libtool</text>
</g>
<!-- libltdl&#45;&gt;libtool -->
<g id="edge24" class="edge">
<title>libltdl&#45;&gt;libtool</title>
<path fill="none" stroke="grey" d="M152.66,-1079.97C142.7,-1029.1 113.26,-878.7 103.32,-827.94"/>
</g>
<!-- libtool&#45;&gt;glibc -->
<g id="edge33" class="edge">
<title>libtool&#45;&gt;glibc</title>
<path fill="none" stroke="#8b4513" d="M80.72,-794.79C51.66,-771.57 0,-722.48 0,-667 0,-667 0,-667 0,-305 0,-254.12 28.14,-241.79 72,-216 116.47,-189.85 266.12,-173.05 337.5,-166.33"/>
<polygon fill="#8b4513" stroke="#8b4513" points="338.21,-169.78 347.84,-165.37 337.57,-162.81 338.21,-169.78"/>
</g>
<!-- libtool&#45;&gt;sh -->
<g id="edge25" class="edge">
<title>libtool&#45;&gt;sh</title>
<path fill="none" stroke="#8b4513" d="M132.62,-805.04C232.59,-792.89 534.29,-756.22 639.41,-743.45"/>
<polygon fill="#8b4513" stroke="#8b4513" points="640.02,-746.9 649.53,-742.22 639.18,-739.95 640.02,-746.9"/>
</g>
<!-- tar -->
<g id="node20" class="node">
<title>tar</title>
<ellipse fill="green" stroke="green" cx="82" cy="-378" rx="27" ry="18"/>
<text text-anchor="middle" x="82" y="-374.3" font-family="Times,serif" font-size="14.00">tar</text>
</g>
<!-- libtool&#45;&gt;tar -->
<g id="edge27" class="edge">
<title>libtool&#45;&gt;tar</title>
<path fill="none" stroke="#8b4513" d="M98.81,-791.96C97.07,-765.31 94,-712.15 94,-667 94,-667 94,-667 94,-521 94,-480.85 89.18,-434.55 85.65,-406.02"/>
<polygon fill="#8b4513" stroke="#8b4513" points="89.11,-405.49 84.37,-396.01 82.16,-406.37 89.11,-405.49"/>
</g>
<!-- tar&#45;&gt;glibc -->
<g id="edge28" class="edge">
<title>tar&#45;&gt;glibc</title>
<path fill="none" stroke="#8b4513" d="M77.18,-360.04C68.97,-327.16 56.68,-254.62 95,-216 128.43,-182.31 268.65,-169.38 337.51,-164.99"/>
<polygon fill="#8b4513" stroke="#8b4513" points="337.76,-168.49 347.53,-164.38 337.33,-161.5 337.76,-168.49"/>
</g>
<!-- acl -->
<g id="node21" class="node">
<title>acl</title>
<ellipse fill="green" stroke="green" cx="131" cy="-306" rx="27" ry="18"/>
<text text-anchor="middle" x="131" y="-302.3" font-family="Times,serif" font-size="14.00">acl</text>
</g>
<!-- tar&#45;&gt;acl -->
<g id="edge29" class="edge">
<title>tar&#45;&gt;acl</title>
<path fill="none" stroke="#8b4513" d="M92.87,-361.46C99.16,-352.49 107.19,-341.02 114.26,-330.92"/>
<polygon fill="#8b4513" stroke="#8b4513" points="117.29,-332.69 120.16,-322.49 111.55,-328.68 117.29,-332.69"/>
</g>
<!-- attr -->
<g id="node22" class="node">
<title>attr</title>
<ellipse fill="green" stroke="green" cx="131" cy="-234" rx="27" ry="18"/>
<text text-anchor="middle" x="131" y="-230.3" font-family="Times,serif" font-size="14.00">attr</text>
</g>
<!-- tar&#45;&gt;attr -->
<g id="edge32" class="edge">
<title>tar&#45;&gt;attr</title>
<path fill="none" stroke="#8b4513" d="M82.25,-359.69C83.03,-341.32 85.78,-311.72 95,-288 99.05,-277.58 105.47,-267.17 111.77,-258.38"/>
<polygon fill="#8b4513" stroke="#8b4513" points="114.73,-260.27 117.95,-250.17 109.14,-256.06 114.73,-260.27"/>
</g>
<!-- acl&#45;&gt;attr -->
<g id="edge30" class="edge">
<title>acl&#45;&gt;attr</title>
<path fill="none" stroke="#8b4513" d="M131,-287.7C131,-279.98 131,-270.71 131,-262.11"/>
<polygon fill="#8b4513" stroke="#8b4513" points="134.5,-262.1 131,-252.1 127.5,-262.1 134.5,-262.1"/>
</g>
<!-- attr&#45;&gt;glibc -->
<g id="edge31" class="edge">
<title>attr&#45;&gt;glibc</title>
<path fill="none" stroke="#8b4513" d="M152.92,-223.25C159.03,-220.72 165.72,-218.11 172,-216 229.57,-196.69 298.22,-180.15 339.39,-170.89"/>
<polygon fill="#8b4513" stroke="#8b4513" points="340.25,-174.29 349.25,-168.7 338.73,-167.46 340.25,-174.29"/>
</g>
<!-- texinfo&#45;&gt;sh -->
<g id="edge64" class="edge">
<title>texinfo&#45;&gt;sh</title>
<path fill="none" stroke="#8b4513" d="M708.49,-1080.34C697.42,-1054.2 678,-1001.7 678,-955 678,-955 678,-955 678,-881 678,-840.99 677.2,-794.65 676.61,-766.08"/>
<polygon fill="#8b4513" stroke="#8b4513" points="680.11,-765.97 676.4,-756.05 673.11,-766.12 680.11,-765.97"/>
</g>
<!-- texinfo&#45;&gt;ncurses -->
<g id="edge36" class="edge">
<title>texinfo&#45;&gt;ncurses</title>
<path fill="none" stroke="#8b4513" d="M716,-1079.95C716,-1053.29 716,-1000.11 716,-955 716,-955 716,-955 716,-881 716,-824.67 732.32,-812.14 737,-756 743.75,-675.1 724.13,-655.13 706,-576 691.29,-511.8 702.99,-489.57 671,-432 664.49,-420.29 654.7,-409.36 645.37,-400.5"/>
<polygon fill="#8b4513" stroke="#8b4513" points="647.47,-397.68 637.71,-393.57 642.78,-402.87 647.47,-397.68"/>
</g>
<!-- gzip -->
<g id="node24" class="node">
<title>gzip</title>
<ellipse fill="green" stroke="green" cx="554" cy="-1026" rx="27" ry="18"/>
<text text-anchor="middle" x="554" y="-1022.3" font-family="Times,serif" font-size="14.00">gzip</text>
</g>
<!-- texinfo&#45;&gt;gzip -->
<g id="edge37" class="edge">
<title>texinfo&#45;&gt;gzip</title>
<path fill="none" stroke="#8b4513" d="M689.61,-1085.6C661.13,-1073.29 615.8,-1053.7 585.48,-1040.6"/>
<polygon fill="#8b4513" stroke="#8b4513" points="586.77,-1037.35 576.21,-1036.6 584,-1043.78 586.77,-1037.35"/>
</g>
<!-- perl -->
<g id="node29" class="node">
<title>perl</title>
<ellipse fill="green" stroke="green" cx="809" cy="-954" rx="27" ry="18"/>
<text text-anchor="middle" x="809" y="-950.3" font-family="Times,serif" font-size="14.00">perl</text>
</g>
<!-- texinfo&#45;&gt;perl -->
<g id="edge53" class="edge">
<title>texinfo&#45;&gt;perl</title>
<path fill="none" stroke="#8b4513" d="M726.67,-1080.71C742.94,-1055.86 774.07,-1008.33 793.04,-979.37"/>
<polygon fill="#8b4513" stroke="#8b4513" points="796.19,-980.95 798.74,-970.67 790.33,-977.11 796.19,-980.95"/>
</g>
<!-- gzip&#45;&gt;glibc -->
<g id="edge38" class="edge">
<title>gzip&#45;&gt;glibc</title>
<path fill="none" stroke="#8b4513" d="M527.53,-1022.38C443.16,-1012.44 186,-969.16 186,-811 186,-811 186,-811 186,-305 186,-260.68 197.87,-245.44 231,-216 261.37,-189.01 306.62,-175.4 338.47,-168.79"/>
<polygon fill="#8b4513" stroke="#8b4513" points="339.16,-172.22 348.31,-166.88 337.83,-165.35 339.16,-172.22"/>
</g>
<!-- gzip&#45;&gt;bash -->
<g id="edge39" class="edge">
<title>gzip&#45;&gt;bash</title>
<path fill="none" stroke="#8b4513" d="M563.25,-1008.98C577.2,-983.29 602,-930.88 602,-883 602,-883 602,-883 602,-809 602,-762.59 633.47,-716.33 655.36,-689.75"/>
<polygon fill="#8b4513" stroke="#8b4513" points="658.27,-691.73 662.08,-681.84 652.94,-687.2 658.27,-691.73"/>
</g>
<!-- less -->
<g id="node25" class="node">
<title>less</title>
<ellipse fill="green" stroke="green" cx="497" cy="-954" rx="27" ry="18"/>
<text text-anchor="middle" x="497" y="-950.3" font-family="Times,serif" font-size="14.00">less</text>
</g>
<!-- gzip&#45;&gt;less -->
<g id="edge40" class="edge">
<title>gzip&#45;&gt;less</title>
<path fill="none" stroke="#8b4513" d="M541.63,-1009.81C534.09,-1000.55 524.3,-988.52 515.81,-978.09"/>
<polygon fill="#8b4513" stroke="#8b4513" points="518.37,-975.7 509.34,-970.16 512.94,-980.12 518.37,-975.7"/>
</g>
<!-- less&#45;&gt;glibc -->
<g id="edge41" class="edge">
<title>less&#45;&gt;glibc</title>
<path fill="none" stroke="#8b4513" d="M472.29,-946.6C405.09,-927.55 224,-864.56 224,-739 224,-739 224,-739 224,-305 224,-261.81 232.86,-246.93 263,-216 284,-194.45 315.47,-180.69 339.87,-172.6"/>
<polygon fill="#8b4513" stroke="#8b4513" points="341.01,-175.91 349.51,-169.58 338.92,-169.23 341.01,-175.91"/>
</g>
<!-- less&#45;&gt;ncurses -->
<g id="edge42" class="edge">
<title>less&#45;&gt;ncurses</title>
<path fill="none" stroke="#8b4513" d="M505.55,-936.59C517.2,-913.23 537.46,-868.69 545,-828 565.54,-717.2 478.93,-682.06 517,-576 538.01,-517.46 580.8,-524.86 606,-468 614.63,-448.52 617.76,-424.52 618.79,-406.35"/>
<polygon fill="#8b4513" stroke="#8b4513" points="622.3,-406.28 619.19,-396.15 615.3,-406.01 622.3,-406.28"/>
</g>
<!-- pcre -->
<g id="node26" class="node">
<title>pcre</title>
<ellipse fill="green" stroke="green" cx="476" cy="-882" rx="27" ry="18"/>
<text text-anchor="middle" x="476" y="-878.3" font-family="Times,serif" font-size="14.00">pcre</text>
</g>
<!-- less&#45;&gt;pcre -->
<g id="edge43" class="edge">
<title>less&#45;&gt;pcre</title>
<path fill="none" stroke="#8b4513" d="M491.92,-936.05C489.52,-928.06 486.6,-918.33 483.92,-909.4"/>
<polygon fill="#8b4513" stroke="#8b4513" points="487.26,-908.36 481.04,-899.79 480.56,-910.37 487.26,-908.36"/>
</g>
<!-- pcre&#45;&gt;gcc&#45;libs -->
<g id="edge44" class="edge">
<title>pcre&#45;&gt;gcc&#45;libs</title>
<path fill="none" stroke="#8b4513" d="M501.46,-875.31C550.69,-862.91 658.77,-828.51 712,-756 809.69,-622.92 803.37,-409.22 797.61,-334.14"/>
<polygon fill="#8b4513" stroke="#8b4513" points="801.09,-333.77 796.78,-324.09 794.12,-334.35 801.09,-333.77"/>
</g>
<!-- pcre&#45;&gt;bash -->
<g id="edge52" class="edge">
<title>pcre&#45;&gt;bash</title>
<path fill="none" stroke="#8b4513" d="M468.27,-864.4C460.73,-845.58 452.13,-814.59 465,-792 502.97,-725.38 591.94,-690.63 641.36,-675.88"/>
<polygon fill="#8b4513" stroke="#8b4513" points="642.34,-679.24 650.98,-673.11 640.41,-672.51 642.34,-679.24"/>
</g>
<!-- pcre&#45;&gt;readline -->
<g id="edge45" class="edge">
<title>pcre&#45;&gt;readline</title>
<path fill="none" stroke="#8b4513" d="M467.72,-864.77C462.96,-854.52 457.45,-840.83 455,-828 452,-812.28 454.02,-807.97 455,-792 460.43,-703.15 475.86,-598.71 483.54,-550.25"/>
<polygon fill="#8b4513" stroke="#8b4513" points="487.02,-550.67 485.14,-540.24 480.1,-549.56 487.02,-550.67"/>
</g>
<!-- zlib -->
<g id="node27" class="node">
<title>zlib</title>
<ellipse fill="green" stroke="green" cx="317" cy="-594" rx="27" ry="18"/>
<text text-anchor="middle" x="317" y="-590.3" font-family="Times,serif" font-size="14.00">zlib</text>
</g>
<!-- pcre&#45;&gt;zlib -->
<g id="edge46" class="edge">
<title>pcre&#45;&gt;zlib</title>
<path fill="none" stroke="#8b4513" d="M453.46,-871.61C435.03,-862.86 409.55,-848.12 394,-828 345.03,-764.66 326.46,-668.75 320.05,-622.22"/>
<polygon fill="#8b4513" stroke="#8b4513" points="323.49,-621.5 318.73,-612.03 316.54,-622.39 323.49,-621.5"/>
</g>
<!-- bzip2 -->
<g id="node28" class="node">
<title>bzip2</title>
<ellipse fill="green" stroke="green" cx="505" cy="-810" rx="30.59" ry="18"/>
<text text-anchor="middle" x="505" y="-806.3" font-family="Times,serif" font-size="14.00">bzip2</text>
</g>
<!-- pcre&#45;&gt;bzip2 -->
<g id="edge48" class="edge">
<title>pcre&#45;&gt;bzip2</title>
<path fill="none" stroke="#8b4513" d="M482.87,-864.41C486.22,-856.34 490.32,-846.43 494.08,-837.35"/>
<polygon fill="#8b4513" stroke="#8b4513" points="497.38,-838.53 497.98,-827.96 490.91,-835.86 497.38,-838.53"/>
</g>
<!-- zlib&#45;&gt;glibc -->
<g id="edge47" class="edge">
<title>zlib&#45;&gt;glibc</title>
<path fill="none" stroke="#8b4513" d="M306.4,-577.16C290.41,-551.72 262,-499.64 262,-451 262,-451 262,-451 262,-305 262,-264.03 261.17,-248.59 286,-216 300.19,-197.37 322.98,-184.04 342.07,-175.42"/>
<polygon fill="#8b4513" stroke="#8b4513" points="343.55,-178.59 351.37,-171.44 340.8,-172.15 343.55,-178.59"/>
</g>
<!-- bzip2&#45;&gt;glibc -->
<g id="edge49" class="edge">
<title>bzip2&#45;&gt;glibc</title>
<path fill="none" stroke="#8b4513" d="M494.83,-792.67C453.47,-725.6 300,-470.59 300,-379 300,-379 300,-379 300,-305 300,-258.12 332.6,-211.74 355.09,-185.31"/>
<polygon fill="#8b4513" stroke="#8b4513" points="357.74,-187.6 361.7,-177.77 352.48,-182.98 357.74,-187.6"/>
</g>
<!-- bzip2&#45;&gt;sh -->
<g id="edge50" class="edge">
<title>bzip2&#45;&gt;sh</title>
<path fill="none" stroke="#8b4513" d="M529.5,-798.97C559.68,-786.62 611,-765.61 644.19,-752.02"/>
<polygon fill="#8b4513" stroke="#8b4513" points="645.53,-755.26 653.45,-748.23 642.87,-748.78 645.53,-755.26"/>
</g>
<!-- perl&#45;&gt;glibc -->
<g id="edge63" class="edge">
<title>perl&#45;&gt;glibc</title>
<path fill="none" stroke="#8b4513" d="M832.86,-945.51C879.44,-929.23 978,-885.92 978,-811 978,-811 978,-811 978,-593 978,-497.88 980,-474.12 980,-379 980,-379 980,-379 980,-305 980,-242.8 929.34,-240.1 872,-216 789.4,-181.29 516.26,-168.06 414.58,-164.27"/>
<polygon fill="#8b4513" stroke="#8b4513" points="414.57,-160.77 404.45,-163.9 414.32,-167.76 414.57,-160.77"/>
</g>
<!-- gdbm&gt;=1.17 -->
<g id="node30" class="node">
<title>gdbm&gt;=1.17</title>
<ellipse fill="green" stroke="green" cx="847" cy="-882" rx="57.69" ry="18"/>
<text text-anchor="middle" x="847" y="-878.3" font-family="Times,serif" font-size="14.00">gdbm&gt;=1.17</text>
</g>
<!-- perl&#45;&gt;gdbm&gt;=1.17 -->
<g id="edge54" class="edge">
<title>perl&#45;&gt;gdbm&gt;=1.17</title>
<path fill="none" stroke="#8b4513" d="M817.81,-936.76C822.29,-928.53 827.83,-918.32 832.88,-909.02"/>
<polygon fill="#8b4513" stroke="#8b4513" points="836.01,-910.58 837.7,-900.12 829.86,-907.24 836.01,-910.58"/>
</g>
<!-- db -->
<g id="node32" class="node">
<title>db</title>
<ellipse fill="green" stroke="green" cx="771" cy="-810" rx="27" ry="18"/>
<text text-anchor="middle" x="771" y="-806.3" font-family="Times,serif" font-size="14.00">db</text>
</g>
<!-- perl&#45;&gt;db -->
<g id="edge59" class="edge">
<title>perl&#45;&gt;db</title>
<path fill="none" stroke="#8b4513" d="M798.07,-937.05C791.68,-926.9 784.1,-913.22 780,-900 773.76,-879.88 771.61,-856.1 770.96,-838.19"/>
<polygon fill="#8b4513" stroke="#8b4513" points="774.46,-838.05 770.73,-828.13 767.46,-838.21 774.46,-838.05"/>
</g>
<!-- gdbm -->
<g id="node31" class="node">
<title>gdbm</title>
<ellipse fill="green" stroke="green" cx="847" cy="-810" rx="31.4" ry="18"/>
<text text-anchor="middle" x="847" y="-806.3" font-family="Times,serif" font-size="14.00">gdbm</text>
</g>
<!-- gdbm&gt;=1.17&#45;&gt;gdbm -->
<g id="edge55" class="edge">
<title>gdbm&gt;=1.17&#45;&gt;gdbm</title>
<path fill="none" stroke="grey" d="M847,-863.7C847,-852.85 847,-838.92 847,-828.1"/>
</g>
<!-- gdbm&#45;&gt;glibc -->
<g id="edge56" class="edge">
<title>gdbm&#45;&gt;glibc</title>
<path fill="none" stroke="#8b4513" d="M850.75,-792.05C856.29,-765.52 866,-712.52 866,-667 866,-667 866,-667 866,-305 866,-264.55 876.97,-243.16 847,-216 815.14,-187.12 521.26,-170.07 414.52,-164.78"/>
<polygon fill="#8b4513" stroke="#8b4513" points="414.65,-161.28 404.49,-164.29 414.31,-168.28 414.65,-161.28"/>
</g>
<!-- gdbm&#45;&gt;sh -->
<g id="edge57" class="edge">
<title>gdbm&#45;&gt;sh</title>
<path fill="none" stroke="#8b4513" d="M822.49,-798.5C817.38,-796.34 812.02,-794.08 807,-792 773.44,-778.08 734.87,-762.53 708.32,-751.89"/>
<polygon fill="#8b4513" stroke="#8b4513" points="709.35,-748.54 698.77,-748.07 706.75,-755.04 709.35,-748.54"/>
</g>
<!-- db&#45;&gt;gcc&#45;libs -->
<g id="edge60" class="edge">
<title>db&#45;&gt;gcc&#45;libs</title>
<path fill="none" stroke="#8b4513" d="M781.99,-793.22C798.55,-767.85 828,-715.88 828,-667 828,-667 828,-667 828,-449 828,-407.75 814.62,-361.47 804.9,-333.28"/>
<polygon fill="#8b4513" stroke="#8b4513" points="808.17,-332.01 801.52,-323.76 801.57,-334.35 808.17,-332.01"/>
</g>
<!-- db&#45;&gt;sh -->
<g id="edge61" class="edge">
<title>db&#45;&gt;sh</title>
<path fill="none" stroke="#8b4513" d="M753.58,-796.16C739.07,-785.47 718.21,-770.1 701.77,-757.99"/>
<polygon fill="#8b4513" stroke="#8b4513" points="703.76,-755.11 693.64,-751.99 699.61,-760.74 703.76,-755.11"/>
</g>
<!-- libunistring&#45;&gt;glibc -->
<g id="edge67" class="edge">
<title>libunistring&#45;&gt;glibc</title>
<path fill="none" stroke="#8b4513" d="M1088,-1007.95C1088,-981.29 1088,-928.11 1088,-883 1088,-883 1088,-883 1088,-305 1088,-166.52 563.48,-161.15 414.83,-162.4"/>
<polygon fill="#8b4513" stroke="#8b4513" points="414.76,-158.9 404.79,-162.5 414.83,-165.9 414.76,-158.9"/>
</g>
<!-- gc&#45;&gt;gcc&#45;libs -->
<g id="edge69" class="edge">
<title>gc&#45;&gt;gcc&#45;libs</title>
<path fill="none" stroke="#8b4513" d="M1031.19,-647.69C1024.99,-596.84 1000.26,-446.16 918,-360 896.93,-337.93 865.14,-324.56 839.15,-316.77"/>
<polygon fill="#8b4513" stroke="#8b4513" points="840.09,-313.4 829.51,-314.05 838.19,-320.13 840.09,-313.4"/>
</g>
<!-- libffi&#45;&gt;glibc -->
<g id="edge71" class="edge">
<title>libffi&#45;&gt;glibc</title>
<path fill="none" stroke="#8b4513" d="M1153.04,-720.01C1148.67,-693.43 1141,-640.37 1141,-595 1141,-595 1141,-595 1141,-305 1141,-261.81 1137.27,-240.93 1102,-216 1045.68,-176.19 557.55,-165.74 414.96,-163.52"/>
<polygon fill="#8b4513" stroke="#8b4513" points="414.97,-160.02 404.91,-163.37 414.86,-167.02 414.97,-160.02"/>
</g>
</g>
</svg>
