<?xml version="1.0" encoding="UTF-8" standalone="no"?>
<!DOCTYPE svg PUBLIC "-//W3C//DTD SVG 1.1//EN"
 "http://www.w3.org/Graphics/SVG/1.1/DTD/svg11.dtd">
<!-- Generated by graphviz version 2.44.0 (0)
 -->
<!-- Title: G Pages: 1 -->
<svg width="607pt" height="1124pt"
 viewBox="0.00 0.00 607.14 1124.00" xmlns="http://www.w3.org/2000/svg" xmlns:xlink="http://www.w3.org/1999/xlink">
<g id="graph0" class="graph" transform="scale(1 1) rotate(0) translate(4 1120)">
<title>G</title>
<polygon fill="white" stroke="transparent" points="-4,4 -4,-1120 603.14,-1120 603.14,4 -4,4"/>
<!-- START -->
<g id="node1" class="node">
<title>START</title>
<ellipse fill="red" stroke="red" cx="371.14" cy="-1098" rx="38.19" ry="18"/>
<text text-anchor="middle" x="371.14" y="-1094.3" font-family="Times,serif" font-size="14.00">START</text>
</g>
<!-- gzip -->
<g id="node2" class="node">
<title>gzip</title>
<ellipse fill="green" stroke="green" cx="371.14" cy="-1026" rx="27" ry="18"/>
<text text-anchor="middle" x="371.14" y="-1022.3" font-family="Times,serif" font-size="14.00">gzip</text>
</g>
<!-- START&#45;&gt;gzip -->
<g id="edge1" class="edge">
<title>START&#45;&gt;gzip</title>
<path fill="none" stroke="black" d="M371.14,-1079.7C371.14,-1071.98 371.14,-1062.71 371.14,-1054.11"/>
<polygon fill="black" stroke="black" points="374.64,-1054.1 371.14,-1044.1 367.64,-1054.1 374.64,-1054.1"/>
</g>
<!-- glibc -->
<g id="node3" class="node">
<title>glibc</title>
<ellipse fill="green" stroke="green" cx="246.14" cy="-162" rx="28.7" ry="18"/>
<text text-anchor="middle" x="246.14" y="-158.3" font-family="Times,serif" font-size="14.00">glibc</text>
</g>
<!-- gzip&#45;&gt;glibc -->
<g id="edge2" class="edge">
<title>gzip&#45;&gt;glibc</title>
<path fill="none" stroke="#8b4513" d="M344.09,-1025.7C264.58,-1026.23 37.14,-1016.11 37.14,-883 37.14,-883 37.14,-883 37.14,-305 37.14,-260.47 49.2,-244.82 83.14,-216 118.75,-185.76 171.99,-172.68 207.84,-167.08"/>
<polygon fill="#8b4513" stroke="#8b4513" points="208.52,-170.52 217.92,-165.63 207.52,-163.59 208.52,-170.52"/>
</g>
<!-- bash -->
<g id="node9" class="node">
<title>bash</title>
<ellipse fill="green" stroke="green" cx="362.14" cy="-666" rx="27" ry="18"/>
<text text-anchor="middle" x="362.14" y="-662.3" font-family="Times,serif" font-size="14.00">bash</text>
</g>
<!-- gzip&#45;&gt;bash -->
<g id="edge8" class="edge">
<title>gzip&#45;&gt;bash</title>
<path fill="none" stroke="#8b4513" d="M371.14,-1007.95C371.14,-981.29 371.14,-928.11 371.14,-883 371.14,-883 371.14,-883 371.14,-809 371.14,-768.92 367.53,-722.59 364.88,-694.05"/>
<polygon fill="#8b4513" stroke="#8b4513" points="368.36,-693.65 363.92,-684.03 361.39,-694.31 368.36,-693.65"/>
</g>
<!-- less -->
<g id="node16" class="node">
<title>less</title>
<ellipse fill="green" stroke="green" cx="493.14" cy="-954" rx="27" ry="18"/>
<text text-anchor="middle" x="493.14" y="-950.3" font-family="Times,serif" font-size="14.00">less</text>
</g>
<!-- gzip&#45;&gt;less -->
<g id="edge21" class="edge">
<title>gzip&#45;&gt;less</title>
<path fill="none" stroke="#8b4513" d="M391.01,-1013.6C410.95,-1002.16 441.87,-984.42 464.46,-971.46"/>
<polygon fill="#8b4513" stroke="#8b4513" points="466.35,-974.41 473.28,-966.4 462.86,-968.34 466.35,-974.41"/>
</g>
<!-- linux&#45;api&#45;headers&gt;=4.10 -->
<g id="node4" class="node">
<title>linux&#45;api&#45;headers&gt;=4.10</title>
<ellipse fill="green" stroke="green" cx="98.14" cy="-90" rx="98.28" ry="18"/>
<text text-anchor="middle" x="98.14" y="-86.3" font-family="Times,serif" font-size="14.00">linux&#45;api&#45;headers&gt;=4.10</text>
</g>
<!-- glibc&#45;&gt;linux&#45;api&#45;headers&gt;=4.10 -->
<g id="edge3" class="edge">
<title>glibc&#45;&gt;linux&#45;api&#45;headers&gt;=4.10</title>
<path fill="none" stroke="#8b4513" d="M223.98,-150.52C202.2,-140.22 168.37,-124.22 141.27,-111.4"/>
<polygon fill="#8b4513" stroke="#8b4513" points="142.53,-108.12 132,-107.01 139.54,-114.45 142.53,-108.12"/>
</g>
<!-- tzdata -->
<g id="node6" class="node">
<title>tzdata</title>
<ellipse fill="green" stroke="green" cx="246.14" cy="-90" rx="31.7" ry="18"/>
<text text-anchor="middle" x="246.14" y="-86.3" font-family="Times,serif" font-size="14.00">tzdata</text>
</g>
<!-- glibc&#45;&gt;tzdata -->
<g id="edge5" class="edge">
<title>glibc&#45;&gt;tzdata</title>
<path fill="none" stroke="#8b4513" d="M246.14,-143.7C246.14,-135.98 246.14,-126.71 246.14,-118.11"/>
<polygon fill="#8b4513" stroke="#8b4513" points="249.64,-118.1 246.14,-108.1 242.64,-118.1 249.64,-118.1"/>
</g>
<!-- filesystem -->
<g id="node7" class="node">
<title>filesystem</title>
<ellipse fill="green" stroke="green" cx="343.14" cy="-90" rx="46.59" ry="18"/>
<text text-anchor="middle" x="343.14" y="-86.3" font-family="Times,serif" font-size="14.00">filesystem</text>
</g>
<!-- glibc&#45;&gt;filesystem -->
<g id="edge6" class="edge">
<title>glibc&#45;&gt;filesystem</title>
<path fill="none" stroke="#8b4513" d="M264.39,-147.83C278.19,-137.88 297.42,-123.99 313.43,-112.44"/>
<polygon fill="#8b4513" stroke="#8b4513" points="315.88,-114.99 321.94,-106.3 311.78,-109.31 315.88,-114.99"/>
</g>
<!-- linux&#45;api&#45;headers -->
<g id="node5" class="node">
<title>linux&#45;api&#45;headers</title>
<ellipse fill="green" stroke="green" cx="98.14" cy="-18" rx="71.49" ry="18"/>
<text text-anchor="middle" x="98.14" y="-14.3" font-family="Times,serif" font-size="14.00">linux&#45;api&#45;headers</text>
</g>
<!-- linux&#45;api&#45;headers&gt;=4.10&#45;&gt;linux&#45;api&#45;headers -->
<g id="edge4" class="edge">
<title>linux&#45;api&#45;headers&gt;=4.10&#45;&gt;linux&#45;api&#45;headers</title>
<path fill="none" stroke="grey" d="M98.14,-71.7C98.14,-60.85 98.14,-46.92 98.14,-36.1"/>
</g>
<!-- iana&#45;etc -->
<g id="node8" class="node">
<title>iana&#45;etc</title>
<ellipse fill="green" stroke="green" cx="343.14" cy="-18" rx="38.19" ry="18"/>
<text text-anchor="middle" x="343.14" y="-14.3" font-family="Times,serif" font-size="14.00">iana&#45;etc</text>
</g>
<!-- filesystem&#45;&gt;iana&#45;etc -->
<g id="edge7" class="edge">
<title>filesystem&#45;&gt;iana&#45;etc</title>
<path fill="none" stroke="#8b4513" d="M343.14,-71.7C343.14,-63.98 343.14,-54.71 343.14,-46.11"/>
<polygon fill="#8b4513" stroke="#8b4513" points="346.64,-46.1 343.14,-36.1 339.64,-46.1 346.64,-46.1"/>
</g>
<!-- bash&#45;&gt;glibc -->
<g id="edge19" class="edge">
<title>bash&#45;&gt;glibc</title>
<path fill="none" stroke="#8b4513" d="M384.43,-655.4C403.14,-646.43 429.55,-631.5 447.14,-612 524.38,-526.41 561.14,-494.29 561.14,-379 561.14,-379 561.14,-379 561.14,-305 561.14,-185.2 369.44,-165.9 285.13,-163.2"/>
<polygon fill="#8b4513" stroke="#8b4513" points="285.02,-159.7 274.93,-162.94 284.84,-166.69 285.02,-159.7"/>
</g>
<!-- readline&gt;=7.0 -->
<g id="node10" class="node">
<title>readline&gt;=7.0</title>
<ellipse fill="green" stroke="green" cx="353.14" cy="-594" rx="61.19" ry="18"/>
<text text-anchor="middle" x="353.14" y="-590.3" font-family="Times,serif" font-size="14.00">readline&gt;=7.0</text>
</g>
<!-- bash&#45;&gt;readline&gt;=7.0 -->
<g id="edge9" class="edge">
<title>bash&#45;&gt;readline&gt;=7.0</title>
<path fill="none" stroke="#8b4513" d="M359.96,-648.05C358.97,-640.35 357.77,-631.03 356.66,-622.36"/>
<polygon fill="#8b4513" stroke="#8b4513" points="360.11,-621.75 355.36,-612.28 353.17,-622.64 360.11,-621.75"/>
</g>
<!-- ncurses -->
<g id="node12" class="node">
<title>ncurses</title>
<ellipse fill="green" stroke="green" cx="351.14" cy="-378" rx="37.09" ry="18"/>
<text text-anchor="middle" x="351.14" y="-374.3" font-family="Times,serif" font-size="14.00">ncurses</text>
</g>
<!-- bash&#45;&gt;ncurses -->
<g id="edge20" class="edge">
<title>bash&#45;&gt;ncurses</title>
<path fill="none" stroke="#8b4513" d="M381.65,-653.41C395.56,-644.05 413.46,-629.57 423.14,-612 462.03,-541.41 485.79,-501.59 445.14,-432 433.69,-412.4 412.02,-399.48 392.37,-391.31"/>
<polygon fill="#8b4513" stroke="#8b4513" points="393.53,-388 382.94,-387.67 391.01,-394.53 393.53,-388"/>
</g>
<!-- readline -->
<g id="node11" class="node">
<title>readline</title>
<ellipse fill="green" stroke="green" cx="335.14" cy="-522" rx="38.99" ry="18"/>
<text text-anchor="middle" x="335.14" y="-518.3" font-family="Times,serif" font-size="14.00">readline</text>
</g>
<!-- readline&gt;=7.0&#45;&gt;readline -->
<g id="edge10" class="edge">
<title>readline&gt;=7.0&#45;&gt;readline</title>
<path fill="none" stroke="grey" d="M348.69,-575.7C345.9,-564.85 342.32,-550.92 339.54,-540.1"/>
</g>
<!-- readline&#45;&gt;glibc -->
<g id="edge11" class="edge">
<title>readline&#45;&gt;glibc</title>
<path fill="none" stroke="#8b4513" d="M302.75,-511.9C281.42,-504.04 255.12,-490.33 242.14,-468 234.1,-454.17 240.95,-447.96 242.14,-432 248.16,-351.33 263.12,-332.67 269.14,-252 270.33,-236.04 272.39,-231.67 269.14,-216 267.19,-206.58 263.47,-196.78 259.58,-188.21"/>
<polygon fill="#8b4513" stroke="#8b4513" points="262.7,-186.62 255.21,-179.13 256.4,-189.66 262.7,-186.62"/>
</g>
<!-- readline&#45;&gt;ncurses -->
<g id="edge12" class="edge">
<title>readline&#45;&gt;ncurses</title>
<path fill="none" stroke="#8b4513" d="M367.53,-511.9C388.86,-504.04 415.16,-490.33 428.14,-468 436.18,-454.17 435.59,-446.16 428.14,-432 419.49,-415.55 403.17,-403.21 387.78,-394.6"/>
<polygon fill="#8b4513" stroke="#8b4513" points="389.37,-391.48 378.88,-389.95 386.13,-397.68 389.37,-391.48"/>
</g>
<!-- libncursesw.so=6&#45;64 -->
<g id="node15" class="node">
<title>libncursesw.so=6&#45;64</title>
<ellipse fill="green" stroke="green" cx="335.14" cy="-450" rx="83.69" ry="18"/>
<text text-anchor="middle" x="335.14" y="-446.3" font-family="Times,serif" font-size="14.00">libncursesw.so=6&#45;64</text>
</g>
<!-- readline&#45;&gt;libncursesw.so=6&#45;64 -->
<g id="edge17" class="edge">
<title>readline&#45;&gt;libncursesw.so=6&#45;64</title>
<path fill="none" stroke="#8b4513" d="M335.14,-503.7C335.14,-495.98 335.14,-486.71 335.14,-478.11"/>
<polygon fill="#8b4513" stroke="#8b4513" points="338.64,-478.1 335.14,-468.1 331.64,-478.1 338.64,-478.1"/>
</g>
<!-- ncurses&#45;&gt;glibc -->
<g id="edge13" class="edge">
<title>ncurses&#45;&gt;glibc</title>
<path fill="none" stroke="#8b4513" d="M348.88,-359.83C344.2,-329.03 331.35,-263.2 302.14,-216 294.34,-203.39 282.8,-191.77 272.23,-182.65"/>
<polygon fill="#8b4513" stroke="#8b4513" points="274.34,-179.85 264.41,-176.18 269.88,-185.25 274.34,-179.85"/>
</g>
<!-- gcc&#45;libs -->
<g id="node13" class="node">
<title>gcc&#45;libs</title>
<ellipse fill="green" stroke="green" cx="205.14" cy="-306" rx="38.19" ry="18"/>
<text text-anchor="middle" x="205.14" y="-302.3" font-family="Times,serif" font-size="14.00">gcc&#45;libs</text>
</g>
<!-- ncurses&#45;&gt;gcc&#45;libs -->
<g id="edge14" class="edge">
<title>ncurses&#45;&gt;gcc&#45;libs</title>
<path fill="none" stroke="#8b4513" d="M325.71,-364.81C302.13,-353.5 266.84,-336.58 240.52,-323.96"/>
<polygon fill="#8b4513" stroke="#8b4513" points="241.79,-320.69 231.26,-319.52 238.77,-327 241.79,-320.69"/>
</g>
<!-- glibc&gt;=2.27 -->
<g id="node14" class="node">
<title>glibc&gt;=2.27</title>
<ellipse fill="green" stroke="green" cx="205.14" cy="-234" rx="54.69" ry="18"/>
<text text-anchor="middle" x="205.14" y="-230.3" font-family="Times,serif" font-size="14.00">glibc&gt;=2.27</text>
</g>
<!-- gcc&#45;libs&#45;&gt;glibc&gt;=2.27 -->
<g id="edge15" class="edge">
<title>gcc&#45;libs&#45;&gt;glibc&gt;=2.27</title>
<path fill="none" stroke="#8b4513" d="M205.14,-287.7C205.14,-279.98 205.14,-270.71 205.14,-262.11"/>
<polygon fill="#8b4513" stroke="#8b4513" points="208.64,-262.1 205.14,-252.1 201.64,-262.1 208.64,-262.1"/>
</g>
<!-- glibc&gt;=2.27&#45;&gt;glibc -->
<g id="edge16" class="edge">
<title>glibc&gt;=2.27&#45;&gt;glibc</title>
<path fill="none" stroke="grey" d="M215.07,-216.05C221.61,-204.89 230.13,-190.34 236.59,-179.31"/>
</g>
<!-- libncursesw.so=6&#45;64&#45;&gt;ncurses -->
<g id="edge18" class="edge">
<title>libncursesw.so=6&#45;64&#45;&gt;ncurses</title>
<path fill="none" stroke="grey" d="M339.1,-431.7C341.58,-420.85 344.76,-406.92 347.23,-396.1"/>
</g>
<!-- less&#45;&gt;glibc -->
<g id="edge22" class="edge">
<title>less&#45;&gt;glibc</title>
<path fill="none" stroke="#8b4513" d="M511.61,-940.51C541.97,-918.31 599.14,-868.84 599.14,-811 599.14,-811 599.14,-811 599.14,-305 599.14,-258.27 581.9,-242.11 543.14,-216 501.41,-187.88 355.02,-172.12 284.58,-166"/>
<polygon fill="#8b4513" stroke="#8b4513" points="284.61,-162.49 274.35,-165.13 284.02,-169.47 284.61,-162.49"/>
</g>
<!-- less&#45;&gt;ncurses -->
<g id="edge23" class="edge">
<title>less&#45;&gt;ncurses</title>
<path fill="none" stroke="#8b4513" d="M505.93,-937.96C525.63,-913.21 561.14,-861.57 561.14,-811 561.14,-811 561.14,-811 561.14,-593 561.14,-509.92 527.79,-487.7 466.14,-432 445.02,-412.91 415.84,-399.58 392.16,-391.05"/>
<polygon fill="#8b4513" stroke="#8b4513" points="392.98,-387.63 382.38,-387.69 390.7,-394.25 392.98,-387.63"/>
</g>
<!-- pcre -->
<g id="node17" class="node">
<title>pcre</title>
<ellipse fill="green" stroke="green" cx="214.14" cy="-882" rx="27" ry="18"/>
<text text-anchor="middle" x="214.14" y="-878.3" font-family="Times,serif" font-size="14.00">pcre</text>
</g>
<!-- less&#45;&gt;pcre -->
<g id="edge24" class="edge">
<title>less&#45;&gt;pcre</title>
<path fill="none" stroke="#8b4513" d="M468.38,-946.79C418.66,-934.31 306.56,-906.19 249.28,-891.82"/>
<polygon fill="#8b4513" stroke="#8b4513" points="249.8,-888.34 239.25,-889.3 248.09,-895.13 249.8,-888.34"/>
</g>
<!-- pcre&#45;&gt;bash -->
<g id="edge33" class="edge">
<title>pcre&#45;&gt;bash</title>
<path fill="none" stroke="#8b4513" d="M233.99,-869.58C249.24,-860.03 270.03,-845.21 284.14,-828 318.24,-786.43 341.88,-727.47 353.63,-693.64"/>
<polygon fill="#8b4513" stroke="#8b4513" points="357,-694.59 356.89,-684 350.37,-692.35 357,-694.59"/>
</g>
<!-- pcre&#45;&gt;readline -->
<g id="edge26" class="edge">
<title>pcre&#45;&gt;readline</title>
<path fill="none" stroke="#8b4513" d="M208.41,-864.18C199.96,-837.82 185.14,-785.05 185.14,-739 185.14,-739 185.14,-739 185.14,-665 185.14,-603.23 253.05,-560.3 297.48,-538.82"/>
<polygon fill="#8b4513" stroke="#8b4513" points="299,-541.97 306.57,-534.56 296.03,-535.63 299,-541.97"/>
</g>
<!-- pcre&#45;&gt;gcc&#45;libs -->
<g id="edge25" class="edge">
<title>pcre&#45;&gt;gcc&#45;libs</title>
<path fill="none" stroke="#8b4513" d="M201.54,-865.93C182.13,-841.13 147.14,-789.43 147.14,-739 147.14,-739 147.14,-739 147.14,-521 147.14,-451.09 176.33,-372.67 193.29,-333"/>
<polygon fill="#8b4513" stroke="#8b4513" points="196.53,-334.34 197.32,-323.78 190.11,-331.54 196.53,-334.34"/>
</g>
<!-- zlib -->
<g id="node18" class="node">
<title>zlib</title>
<ellipse fill="green" stroke="green" cx="92.14" cy="-738" rx="27" ry="18"/>
<text text-anchor="middle" x="92.14" y="-734.3" font-family="Times,serif" font-size="14.00">zlib</text>
</g>
<!-- pcre&#45;&gt;zlib -->
<g id="edge27" class="edge">
<title>pcre&#45;&gt;zlib</title>
<path fill="none" stroke="#8b4513" d="M192.45,-871.08C174.58,-862.01 149.6,-847.09 133.14,-828 117.42,-809.76 106.54,-784.48 99.97,-765.52"/>
<polygon fill="#8b4513" stroke="#8b4513" points="103.28,-764.4 96.84,-755.99 96.63,-766.58 103.28,-764.4"/>
</g>
<!-- bzip2 -->
<g id="node19" class="node">
<title>bzip2</title>
<ellipse fill="green" stroke="green" cx="244.14" cy="-810" rx="30.59" ry="18"/>
<text text-anchor="middle" x="244.14" y="-806.3" font-family="Times,serif" font-size="14.00">bzip2</text>
</g>
<!-- pcre&#45;&gt;bzip2 -->
<g id="edge29" class="edge">
<title>pcre&#45;&gt;bzip2</title>
<path fill="none" stroke="#8b4513" d="M221.25,-864.41C224.71,-856.34 228.96,-846.43 232.85,-837.35"/>
<polygon fill="#8b4513" stroke="#8b4513" points="236.15,-838.53 236.87,-827.96 229.72,-835.77 236.15,-838.53"/>
</g>
<!-- zlib&#45;&gt;glibc -->
<g id="edge28" class="edge">
<title>zlib&#45;&gt;glibc</title>
<path fill="none" stroke="#8b4513" d="M90.56,-719.97C88.23,-693.33 84.14,-640.19 84.14,-595 84.14,-595 84.14,-595 84.14,-305 84.14,-264.03 80.71,-246.43 108.14,-216 133.93,-187.4 176.89,-174.12 208.04,-168.03"/>
<polygon fill="#8b4513" stroke="#8b4513" points="208.88,-171.43 218.11,-166.22 207.65,-164.54 208.88,-171.43"/>
</g>
<!-- bzip2&#45;&gt;glibc -->
<g id="edge30" class="edge">
<title>bzip2&#45;&gt;glibc</title>
<path fill="none" stroke="#8b4513" d="M239.78,-791.83C222.76,-723.95 160.89,-467.45 141.14,-252 139.68,-236.07 132.76,-229.63 141.14,-216 155.94,-191.96 185.37,-178.43 209.32,-171.06"/>
<polygon fill="#8b4513" stroke="#8b4513" points="210.52,-174.36 219.19,-168.27 208.62,-167.63 210.52,-174.36"/>
</g>
<!-- sh -->
<g id="node20" class="node">
<title>sh</title>
<ellipse fill="green" stroke="green" cx="278.14" cy="-738" rx="27" ry="18"/>
<text text-anchor="middle" x="278.14" y="-734.3" font-family="Times,serif" font-size="14.00">sh</text>
</g>
<!-- bzip2&#45;&gt;sh -->
<g id="edge31" class="edge">
<title>bzip2&#45;&gt;sh</title>
<path fill="none" stroke="#8b4513" d="M252.2,-792.41C256.22,-784.13 261.18,-773.92 265.68,-764.66"/>
<polygon fill="#8b4513" stroke="#8b4513" points="268.92,-765.99 270.14,-755.47 262.62,-762.94 268.92,-765.99"/>
</g>
<!-- sh&#45;&gt;bash -->
<g id="edge32" class="edge">
<title>sh&#45;&gt;bash</title>
<path fill="none" stroke="grey" d="M294.34,-723.5C309.21,-711.11 331.14,-692.84 345.99,-680.46"/>
</g>
</g>
</svg>
