<?xml version="1.0" encoding="UTF-8" standalone="no"?>
<!DOCTYPE svg PUBLIC "-//W3C//DTD SVG 1.1//EN"
 "http://www.w3.org/Graphics/SVG/1.1/DTD/svg11.dtd">
<!-- Generated by graphviz version 2.44.0 (0)
 -->
<!-- Title: G Pages: 1 -->
<svg width="1019pt" height="1700pt"
 viewBox="0.00 0.00 1019.00 1700.00" xmlns="http://www.w3.org/2000/svg" xmlns:xlink="http://www.w3.org/1999/xlink">
<g id="graph0" class="graph" transform="scale(1 1) rotate(0) translate(4 1696)">
<title>G</title>
<polygon fill="white" stroke="transparent" points="-4,4 -4,-1696 1015,-1696 1015,4 -4,4"/>
<!-- START -->
<g id="node1" class="node">
<title>START</title>
<ellipse fill="red" stroke="red" cx="324" cy="-1674" rx="38.19" ry="18"/>
<text text-anchor="middle" x="324" y="-1670.3" font-family="Times,serif" font-size="14.00">START</text>
</g>
<!-- iptables -->
<g id="node2" class="node">
<title>iptables</title>
<ellipse fill="green" stroke="green" cx="324" cy="-1602" rx="38.19" ry="18"/>
<text text-anchor="middle" x="324" y="-1598.3" font-family="Times,serif" font-size="14.00">iptables</text>
</g>
<!-- START&#45;&gt;iptables -->
<g id="edge1" class="edge">
<title>START&#45;&gt;iptables</title>
<path fill="none" stroke="black" d="M324,-1655.7C324,-1647.98 324,-1638.71 324,-1630.11"/>
<polygon fill="black" stroke="black" points="327.5,-1630.1 324,-1620.1 320.5,-1630.1 327.5,-1630.1"/>
</g>
<!-- libnftnl -->
<g id="node3" class="node">
<title>libnftnl</title>
<ellipse fill="green" stroke="green" cx="69" cy="-1530" rx="36.29" ry="18"/>
<text text-anchor="middle" x="69" y="-1526.3" font-family="Times,serif" font-size="14.00">libnftnl</text>
</g>
<!-- iptables&#45;&gt;libnftnl -->
<g id="edge2" class="edge">
<title>iptables&#45;&gt;libnftnl</title>
<path fill="none" stroke="#8b4513" d="M290.03,-1593.55C248.42,-1584.16 175.95,-1566.93 115,-1548 112.26,-1547.15 109.44,-1546.22 106.61,-1545.26"/>
<polygon fill="#8b4513" stroke="#8b4513" points="107.65,-1541.92 97.06,-1541.9 105.33,-1548.52 107.65,-1541.92"/>
</g>
<!-- libpcap -->
<g id="node11" class="node">
<title>libpcap</title>
<ellipse fill="green" stroke="green" cx="621" cy="-1530" rx="36.29" ry="18"/>
<text text-anchor="middle" x="621" y="-1526.3" font-family="Times,serif" font-size="14.00">libpcap</text>
</g>
<!-- iptables&#45;&gt;libpcap -->
<g id="edge10" class="edge">
<title>iptables&#45;&gt;libpcap</title>
<path fill="none" stroke="#8b4513" d="M357.49,-1593.11C411.84,-1580.3 519.16,-1555 578.7,-1540.97"/>
<polygon fill="#8b4513" stroke="#8b4513" points="579.6,-1544.35 588.53,-1538.65 578,-1537.54 579.6,-1544.35"/>
</g>
<!-- bash -->
<g id="node14" class="node">
<title>bash</title>
<ellipse fill="green" stroke="green" cx="637" cy="-666" rx="27" ry="18"/>
<text text-anchor="middle" x="637" y="-662.3" font-family="Times,serif" font-size="14.00">bash</text>
</g>
<!-- iptables&#45;&gt;bash -->
<g id="edge81" class="edge">
<title>iptables&#45;&gt;bash</title>
<path fill="none" stroke="#8b4513" d="M362.41,-1601.32C507.09,-1601.49 1011,-1592.51 1011,-1459 1011,-1459 1011,-1459 1011,-881 1011,-726.67 768.12,-682.1 673.82,-670.62"/>
<polygon fill="#8b4513" stroke="#8b4513" points="673.93,-667.11 663.6,-669.43 673.13,-674.06 673.93,-667.11"/>
</g>
<!-- libnfnetlink -->
<g id="node47" class="node">
<title>libnfnetlink</title>
<ellipse fill="green" stroke="green" cx="210" cy="-1458" rx="51.99" ry="18"/>
<text text-anchor="middle" x="210" y="-1454.3" font-family="Times,serif" font-size="14.00">libnfnetlink</text>
</g>
<!-- iptables&#45;&gt;libnfnetlink -->
<g id="edge76" class="edge">
<title>iptables&#45;&gt;libnfnetlink</title>
<path fill="none" stroke="#8b4513" d="M324.39,-1583.9C323.98,-1564.63 320.67,-1533.22 305,-1512 292.77,-1495.44 273.73,-1483.37 255.9,-1474.98"/>
<polygon fill="#8b4513" stroke="#8b4513" points="257.29,-1471.76 246.73,-1470.92 254.46,-1478.16 257.29,-1471.76"/>
</g>
<!-- libnetfilter_conntrack -->
<g id="node48" class="node">
<title>libnetfilter_conntrack</title>
<ellipse fill="green" stroke="green" cx="210" cy="-1530" rx="86.38" ry="18"/>
<text text-anchor="middle" x="210" y="-1526.3" font-family="Times,serif" font-size="14.00">libnetfilter_conntrack</text>
</g>
<!-- iptables&#45;&gt;libnetfilter_conntrack -->
<g id="edge78" class="edge">
<title>iptables&#45;&gt;libnetfilter_conntrack</title>
<path fill="none" stroke="#8b4513" d="M301.75,-1587.34C285.71,-1577.49 263.74,-1564 245.32,-1552.69"/>
<polygon fill="#8b4513" stroke="#8b4513" points="246.96,-1549.58 236.6,-1547.33 243.29,-1555.55 246.96,-1549.58"/>
</g>
<!-- libmnl -->
<g id="node4" class="node">
<title>libmnl</title>
<ellipse fill="green" stroke="green" cx="69" cy="-1458" rx="34.39" ry="18"/>
<text text-anchor="middle" x="69" y="-1454.3" font-family="Times,serif" font-size="14.00">libmnl</text>
</g>
<!-- libnftnl&#45;&gt;libmnl -->
<g id="edge3" class="edge">
<title>libnftnl&#45;&gt;libmnl</title>
<path fill="none" stroke="#8b4513" d="M69,-1511.7C69,-1503.98 69,-1494.71 69,-1486.11"/>
<polygon fill="#8b4513" stroke="#8b4513" points="72.5,-1486.1 69,-1476.1 65.5,-1486.1 72.5,-1486.1"/>
</g>
<!-- glibc -->
<g id="node5" class="node">
<title>glibc</title>
<ellipse fill="green" stroke="green" cx="411" cy="-162" rx="28.7" ry="18"/>
<text text-anchor="middle" x="411" y="-158.3" font-family="Times,serif" font-size="14.00">glibc</text>
</g>
<!-- libmnl&#45;&gt;glibc -->
<g id="edge4" class="edge">
<title>libmnl&#45;&gt;glibc</title>
<path fill="none" stroke="#8b4513" d="M55.37,-1441.18C35.26,-1416.17 0,-1365.16 0,-1315 0,-1315 0,-1315 0,-305 0,-260.27 10.46,-241.8 47,-216 98.84,-179.4 289.59,-167.68 372.31,-164.27"/>
<polygon fill="#8b4513" stroke="#8b4513" points="372.45,-167.77 382.31,-163.88 372.18,-160.78 372.45,-167.77"/>
</g>
<!-- linux&#45;api&#45;headers&gt;=4.10 -->
<g id="node6" class="node">
<title>linux&#45;api&#45;headers&gt;=4.10</title>
<ellipse fill="green" stroke="green" cx="263" cy="-90" rx="98.28" ry="18"/>
<text text-anchor="middle" x="263" y="-86.3" font-family="Times,serif" font-size="14.00">linux&#45;api&#45;headers&gt;=4.10</text>
</g>
<!-- glibc&#45;&gt;linux&#45;api&#45;headers&gt;=4.10 -->
<g id="edge5" class="edge">
<title>glibc&#45;&gt;linux&#45;api&#45;headers&gt;=4.10</title>
<path fill="none" stroke="#8b4513" d="M388.84,-150.52C367.06,-140.22 333.23,-124.22 306.13,-111.4"/>
<polygon fill="#8b4513" stroke="#8b4513" points="307.39,-108.12 296.85,-107.01 304.4,-114.45 307.39,-108.12"/>
</g>
<!-- tzdata -->
<g id="node8" class="node">
<title>tzdata</title>
<ellipse fill="green" stroke="green" cx="411" cy="-90" rx="31.7" ry="18"/>
<text text-anchor="middle" x="411" y="-86.3" font-family="Times,serif" font-size="14.00">tzdata</text>
</g>
<!-- glibc&#45;&gt;tzdata -->
<g id="edge7" class="edge">
<title>glibc&#45;&gt;tzdata</title>
<path fill="none" stroke="#8b4513" d="M411,-143.7C411,-135.98 411,-126.71 411,-118.11"/>
<polygon fill="#8b4513" stroke="#8b4513" points="414.5,-118.1 411,-108.1 407.5,-118.1 414.5,-118.1"/>
</g>
<!-- filesystem -->
<g id="node9" class="node">
<title>filesystem</title>
<ellipse fill="green" stroke="green" cx="508" cy="-90" rx="46.59" ry="18"/>
<text text-anchor="middle" x="508" y="-86.3" font-family="Times,serif" font-size="14.00">filesystem</text>
</g>
<!-- glibc&#45;&gt;filesystem -->
<g id="edge8" class="edge">
<title>glibc&#45;&gt;filesystem</title>
<path fill="none" stroke="#8b4513" d="M429.24,-147.83C443.04,-137.88 462.28,-123.99 478.29,-112.44"/>
<polygon fill="#8b4513" stroke="#8b4513" points="480.74,-114.99 486.8,-106.3 476.64,-109.31 480.74,-114.99"/>
</g>
<!-- linux&#45;api&#45;headers -->
<g id="node7" class="node">
<title>linux&#45;api&#45;headers</title>
<ellipse fill="green" stroke="green" cx="263" cy="-18" rx="71.49" ry="18"/>
<text text-anchor="middle" x="263" y="-14.3" font-family="Times,serif" font-size="14.00">linux&#45;api&#45;headers</text>
</g>
<!-- linux&#45;api&#45;headers&gt;=4.10&#45;&gt;linux&#45;api&#45;headers -->
<g id="edge6" class="edge">
<title>linux&#45;api&#45;headers&gt;=4.10&#45;&gt;linux&#45;api&#45;headers</title>
<path fill="none" stroke="grey" d="M263,-71.7C263,-60.85 263,-46.92 263,-36.1"/>
</g>
<!-- iana&#45;etc -->
<g id="node10" class="node">
<title>iana&#45;etc</title>
<ellipse fill="green" stroke="green" cx="508" cy="-18" rx="38.19" ry="18"/>
<text text-anchor="middle" x="508" y="-14.3" font-family="Times,serif" font-size="14.00">iana&#45;etc</text>
</g>
<!-- filesystem&#45;&gt;iana&#45;etc -->
<g id="edge9" class="edge">
<title>filesystem&#45;&gt;iana&#45;etc</title>
<path fill="none" stroke="#8b4513" d="M508,-71.7C508,-63.98 508,-54.71 508,-46.11"/>
<polygon fill="#8b4513" stroke="#8b4513" points="511.5,-46.1 508,-36.1 504.5,-46.1 511.5,-46.1"/>
</g>
<!-- libpcap&#45;&gt;glibc -->
<g id="edge11" class="edge">
<title>libpcap&#45;&gt;glibc</title>
<path fill="none" stroke="#8b4513" d="M657.03,-1527.1C732.66,-1520.98 901,-1495.19 901,-1387 901,-1387 901,-1387 901,-809 901,-712.4 939,-691.6 939,-595 939,-595 939,-595 939,-305 939,-262.16 936.3,-241.66 902,-216 830.88,-162.81 553.32,-161 450.02,-162.24"/>
<polygon fill="#8b4513" stroke="#8b4513" points="449.67,-158.75 439.72,-162.38 449.77,-165.75 449.67,-158.75"/>
</g>
<!-- libnl -->
<g id="node12" class="node">
<title>libnl</title>
<ellipse fill="green" stroke="green" cx="956" cy="-1314" rx="27" ry="18"/>
<text text-anchor="middle" x="956" y="-1310.3" font-family="Times,serif" font-size="14.00">libnl</text>
</g>
<!-- libpcap&#45;&gt;libnl -->
<g id="edge12" class="edge">
<title>libpcap&#45;&gt;libnl</title>
<path fill="none" stroke="#8b4513" d="M657.09,-1527.26C727.17,-1523.14 878.04,-1510.42 915,-1476 952.11,-1441.44 957.58,-1378.41 957.37,-1342.32"/>
<polygon fill="#8b4513" stroke="#8b4513" points="960.87,-1341.97 957.16,-1332.05 953.87,-1342.12 960.87,-1341.97"/>
</g>
<!-- sh -->
<g id="node13" class="node">
<title>sh</title>
<ellipse fill="green" stroke="green" cx="637" cy="-738" rx="27" ry="18"/>
<text text-anchor="middle" x="637" y="-734.3" font-family="Times,serif" font-size="14.00">sh</text>
</g>
<!-- libpcap&#45;&gt;sh -->
<g id="edge14" class="edge">
<title>libpcap&#45;&gt;sh</title>
<path fill="none" stroke="#8b4513" d="M652.38,-1520.64C705.16,-1504.45 806,-1463.52 806,-1387 806,-1387 806,-1387 806,-953 806,-862.97 712.75,-788.61 664.78,-756.32"/>
<polygon fill="#8b4513" stroke="#8b4513" points="666.66,-753.37 656.39,-750.78 662.81,-759.21 666.66,-753.37"/>
</g>
<!-- libusbx -->
<g id="node21" class="node">
<title>libusbx</title>
<ellipse fill="green" stroke="green" cx="102" cy="-1386" rx="36.29" ry="18"/>
<text text-anchor="middle" x="102" y="-1382.3" font-family="Times,serif" font-size="14.00">libusbx</text>
</g>
<!-- libpcap&#45;&gt;libusbx -->
<g id="edge28" class="edge">
<title>libpcap&#45;&gt;libusbx</title>
<path fill="none" stroke="#8b4513" d="M588.95,-1521.25C512.74,-1502.64 314.91,-1453.34 152,-1404 148.21,-1402.85 144.27,-1401.61 140.35,-1400.33"/>
<polygon fill="#8b4513" stroke="#8b4513" points="141.31,-1396.96 130.71,-1397.13 139.1,-1403.6 141.31,-1396.96"/>
</g>
<!-- dbus -->
<g id="node30" class="node">
<title>dbus</title>
<ellipse fill="green" stroke="green" cx="464" cy="-1458" rx="27.1" ry="18"/>
<text text-anchor="middle" x="464" y="-1454.3" font-family="Times,serif" font-size="14.00">dbus</text>
</g>
<!-- libpcap&#45;&gt;dbus -->
<g id="edge45" class="edge">
<title>libpcap&#45;&gt;dbus</title>
<path fill="none" stroke="#8b4513" d="M594.72,-1517.28C567.43,-1505.11 524.72,-1486.07 495.61,-1473.09"/>
<polygon fill="#8b4513" stroke="#8b4513" points="496.85,-1469.82 486.29,-1468.94 494,-1476.21 496.85,-1469.82"/>
</g>
<!-- libnl&#45;&gt;glibc -->
<g id="edge13" class="edge">
<title>libnl&#45;&gt;glibc</title>
<path fill="none" stroke="#8b4513" d="M959.36,-1296.03C964.31,-1269.48 973,-1216.44 973,-1171 973,-1171 973,-1171 973,-881 973,-785.87 977,-762.13 977,-667 977,-667 977,-667 977,-305 977,-264.03 984.27,-242.47 953,-216 914.73,-183.61 567.74,-168.51 449.93,-164.28"/>
<polygon fill="#8b4513" stroke="#8b4513" points="449.7,-160.77 439.58,-163.92 449.45,-167.77 449.7,-160.77"/>
</g>
<!-- sh&#45;&gt;bash -->
<g id="edge15" class="edge">
<title>sh&#45;&gt;bash</title>
<path fill="none" stroke="grey" d="M637,-719.7C637,-708.85 637,-694.92 637,-684.1"/>
</g>
<!-- bash&#45;&gt;glibc -->
<g id="edge26" class="edge">
<title>bash&#45;&gt;glibc</title>
<path fill="none" stroke="#8b4513" d="M620.14,-651.88C608.63,-642.07 593.92,-627.69 585,-612 568.64,-583.23 570.26,-572.82 566,-540 549.44,-412.38 585.73,-380.28 596,-252 597.28,-236.05 605.63,-228.78 596,-216 578.31,-192.52 497.51,-176.28 448.74,-168.42"/>
<polygon fill="#8b4513" stroke="#8b4513" points="449.27,-164.96 438.85,-166.87 448.19,-171.87 449.27,-164.96"/>
</g>
<!-- readline&gt;=7.0 -->
<g id="node15" class="node">
<title>readline&gt;=7.0</title>
<ellipse fill="green" stroke="green" cx="693" cy="-594" rx="61.19" ry="18"/>
<text text-anchor="middle" x="693" y="-590.3" font-family="Times,serif" font-size="14.00">readline&gt;=7.0</text>
</g>
<!-- bash&#45;&gt;readline&gt;=7.0 -->
<g id="edge16" class="edge">
<title>bash&#45;&gt;readline&gt;=7.0</title>
<path fill="none" stroke="#8b4513" d="M649.15,-649.81C656.19,-641.02 665.22,-629.73 673.25,-619.69"/>
<polygon fill="#8b4513" stroke="#8b4513" points="676.18,-621.62 679.7,-611.63 670.72,-617.25 676.18,-621.62"/>
</g>
<!-- ncurses -->
<g id="node17" class="node">
<title>ncurses</title>
<ellipse fill="green" stroke="green" cx="653" cy="-378" rx="37.09" ry="18"/>
<text text-anchor="middle" x="653" y="-374.3" font-family="Times,serif" font-size="14.00">ncurses</text>
</g>
<!-- bash&#45;&gt;ncurses -->
<g id="edge27" class="edge">
<title>bash&#45;&gt;ncurses</title>
<path fill="none" stroke="#8b4513" d="M626.23,-649.16C601.21,-610.24 544.09,-507.61 582,-432 589.64,-416.77 603.95,-404.8 617.74,-396.12"/>
<polygon fill="#8b4513" stroke="#8b4513" points="619.8,-398.97 626.65,-390.89 616.25,-392.93 619.8,-398.97"/>
</g>
<!-- readline -->
<g id="node16" class="node">
<title>readline</title>
<ellipse fill="green" stroke="green" cx="704" cy="-522" rx="38.99" ry="18"/>
<text text-anchor="middle" x="704" y="-518.3" font-family="Times,serif" font-size="14.00">readline</text>
</g>
<!-- readline&gt;=7.0&#45;&gt;readline -->
<g id="edge17" class="edge">
<title>readline&gt;=7.0&#45;&gt;readline</title>
<path fill="none" stroke="grey" d="M695.72,-575.7C697.42,-564.85 699.61,-550.92 701.31,-540.1"/>
</g>
<!-- readline&#45;&gt;glibc -->
<g id="edge18" class="edge">
<title>readline&#45;&gt;glibc</title>
<path fill="none" stroke="#8b4513" d="M730.16,-508.52C747.28,-499.29 769.14,-485.33 784,-468 812.34,-434.94 825,-422.55 825,-379 825,-379 825,-379 825,-305 825,-225.92 551.34,-181.57 449.01,-167.74"/>
<polygon fill="#8b4513" stroke="#8b4513" points="449.18,-164.24 438.81,-166.39 448.26,-171.17 449.18,-164.24"/>
</g>
<!-- readline&#45;&gt;ncurses -->
<g id="edge19" class="edge">
<title>readline&#45;&gt;ncurses</title>
<path fill="none" stroke="#8b4513" d="M728.8,-507.87C743.13,-498.79 759.9,-485.23 768,-468 774.81,-453.52 776.63,-445.47 768,-432 752.46,-407.73 722.68,-394.42 697.32,-387.2"/>
<polygon fill="#8b4513" stroke="#8b4513" points="698.05,-383.78 687.49,-384.64 696.29,-390.55 698.05,-383.78"/>
</g>
<!-- libncursesw.so=6&#45;64 -->
<g id="node20" class="node">
<title>libncursesw.so=6&#45;64</title>
<ellipse fill="green" stroke="green" cx="675" cy="-450" rx="83.69" ry="18"/>
<text text-anchor="middle" x="675" y="-446.3" font-family="Times,serif" font-size="14.00">libncursesw.so=6&#45;64</text>
</g>
<!-- readline&#45;&gt;libncursesw.so=6&#45;64 -->
<g id="edge24" class="edge">
<title>readline&#45;&gt;libncursesw.so=6&#45;64</title>
<path fill="none" stroke="#8b4513" d="M696.98,-504.05C693.72,-496.18 689.76,-486.62 686.1,-477.79"/>
<polygon fill="#8b4513" stroke="#8b4513" points="689.22,-476.17 682.16,-468.28 682.75,-478.85 689.22,-476.17"/>
</g>
<!-- ncurses&#45;&gt;glibc -->
<g id="edge20" class="edge">
<title>ncurses&#45;&gt;glibc</title>
<path fill="none" stroke="#8b4513" d="M656.04,-359.86C660.75,-327.33 665.78,-256.27 629,-216 605.13,-189.86 505.23,-174.12 449.32,-167.19"/>
<polygon fill="#8b4513" stroke="#8b4513" points="449.44,-163.68 439.09,-165.96 448.6,-170.63 449.44,-163.68"/>
</g>
<!-- gcc&#45;libs -->
<g id="node18" class="node">
<title>gcc&#45;libs</title>
<ellipse fill="green" stroke="green" cx="532" cy="-306" rx="38.19" ry="18"/>
<text text-anchor="middle" x="532" y="-302.3" font-family="Times,serif" font-size="14.00">gcc&#45;libs</text>
</g>
<!-- ncurses&#45;&gt;gcc&#45;libs -->
<g id="edge21" class="edge">
<title>ncurses&#45;&gt;gcc&#45;libs</title>
<path fill="none" stroke="#8b4513" d="M629.96,-363.67C611.32,-352.89 584.87,-337.58 564.15,-325.6"/>
<polygon fill="#8b4513" stroke="#8b4513" points="565.78,-322.5 555.37,-320.52 562.27,-328.56 565.78,-322.5"/>
</g>
<!-- glibc&gt;=2.27 -->
<g id="node19" class="node">
<title>glibc&gt;=2.27</title>
<ellipse fill="green" stroke="green" cx="532" cy="-234" rx="54.69" ry="18"/>
<text text-anchor="middle" x="532" y="-230.3" font-family="Times,serif" font-size="14.00">glibc&gt;=2.27</text>
</g>
<!-- gcc&#45;libs&#45;&gt;glibc&gt;=2.27 -->
<g id="edge22" class="edge">
<title>gcc&#45;libs&#45;&gt;glibc&gt;=2.27</title>
<path fill="none" stroke="#8b4513" d="M532,-287.7C532,-279.98 532,-270.71 532,-262.11"/>
<polygon fill="#8b4513" stroke="#8b4513" points="535.5,-262.1 532,-252.1 528.5,-262.1 535.5,-262.1"/>
</g>
<!-- glibc&gt;=2.27&#45;&gt;glibc -->
<g id="edge23" class="edge">
<title>glibc&gt;=2.27&#45;&gt;glibc</title>
<path fill="none" stroke="grey" d="M506.04,-217.98C483.68,-205.05 451.86,-186.64 431.31,-174.75"/>
</g>
<!-- libncursesw.so=6&#45;64&#45;&gt;ncurses -->
<g id="edge25" class="edge">
<title>libncursesw.so=6&#45;64&#45;&gt;ncurses</title>
<path fill="none" stroke="grey" d="M669.56,-431.7C666.15,-420.85 661.77,-406.92 658.38,-396.1"/>
</g>
<!-- libusb -->
<g id="node22" class="node">
<title>libusb</title>
<ellipse fill="green" stroke="green" cx="102" cy="-1026" rx="32.49" ry="18"/>
<text text-anchor="middle" x="102" y="-1022.3" font-family="Times,serif" font-size="14.00">libusb</text>
</g>
<!-- libusbx&#45;&gt;libusb -->
<g id="edge29" class="edge">
<title>libusbx&#45;&gt;libusb</title>
<path fill="none" stroke="grey" d="M102,-1367.95C102,-1341.29 102,-1288.11 102,-1243 102,-1243 102,-1243 102,-1169 102,-1123.89 102,-1070.71 102,-1044.05"/>
</g>
<!-- libusb&#45;&gt;glibc -->
<g id="edge30" class="edge">
<title>libusb&#45;&gt;glibc</title>
<path fill="none" stroke="#8b4513" d="M96.86,-1008.13C89.29,-981.72 76,-928.86 76,-883 76,-883 76,-883 76,-305 76,-177.68 283.66,-162.82 371.99,-162.26"/>
<polygon fill="#8b4513" stroke="#8b4513" points="372.15,-165.76 382.15,-162.26 372.15,-158.76 372.15,-165.76"/>
</g>
<!-- systemd&#45;libs -->
<g id="node23" class="node">
<title>systemd&#45;libs</title>
<ellipse fill="green" stroke="green" cx="273" cy="-954" rx="55.79" ry="18"/>
<text text-anchor="middle" x="273" y="-950.3" font-family="Times,serif" font-size="14.00">systemd&#45;libs</text>
</g>
<!-- libusb&#45;&gt;systemd&#45;libs -->
<g id="edge31" class="edge">
<title>libusb&#45;&gt;systemd&#45;libs</title>
<path fill="none" stroke="#8b4513" d="M127.6,-1014.52C154.7,-1003.43 197.95,-985.72 230.24,-972.5"/>
<polygon fill="#8b4513" stroke="#8b4513" points="231.95,-975.59 239.88,-968.56 229.3,-969.11 231.95,-975.59"/>
</g>
<!-- systemd&#45;libs&#45;&gt;glibc -->
<g id="edge32" class="edge">
<title>systemd&#45;libs&#45;&gt;glibc</title>
<path fill="none" stroke="#8b4513" d="M257.56,-936.69C249.17,-926.83 239.42,-913.58 234,-900 210.11,-840.09 222.48,-820.17 216,-756 199.13,-588.8 187,-547.05 187,-379 187,-379 187,-379 187,-305 187,-264.55 178.02,-245.2 206,-216 228.83,-192.17 320.46,-175.7 373.16,-167.98"/>
<polygon fill="#8b4513" stroke="#8b4513" points="373.75,-171.44 383.15,-166.56 372.76,-164.51 373.75,-171.44"/>
</g>
<!-- libcap -->
<g id="node24" class="node">
<title>libcap</title>
<ellipse fill="green" stroke="green" cx="247" cy="-306" rx="32.49" ry="18"/>
<text text-anchor="middle" x="247" y="-302.3" font-family="Times,serif" font-size="14.00">libcap</text>
</g>
<!-- systemd&#45;libs&#45;&gt;libcap -->
<g id="edge33" class="edge">
<title>systemd&#45;libs&#45;&gt;libcap</title>
<path fill="none" stroke="#8b4513" d="M264.3,-936.02C251.73,-909.87 230,-857.88 230,-811 230,-811 230,-811 230,-449 230,-408.71 236.83,-362.44 241.83,-333.96"/>
<polygon fill="#8b4513" stroke="#8b4513" points="245.3,-334.43 243.64,-323.97 238.42,-333.19 245.3,-334.43"/>
</g>
<!-- libgcrypt -->
<g id="node26" class="node">
<title>libgcrypt</title>
<ellipse fill="green" stroke="green" cx="339" cy="-882" rx="42.79" ry="18"/>
<text text-anchor="middle" x="339" y="-878.3" font-family="Times,serif" font-size="14.00">libgcrypt</text>
</g>
<!-- systemd&#45;libs&#45;&gt;libgcrypt -->
<g id="edge37" class="edge">
<title>systemd&#45;libs&#45;&gt;libgcrypt</title>
<path fill="none" stroke="#8b4513" d="M288.64,-936.41C297.06,-927.48 307.59,-916.31 316.85,-906.5"/>
<polygon fill="#8b4513" stroke="#8b4513" points="319.61,-908.67 323.93,-898.99 314.52,-903.86 319.61,-908.67"/>
</g>
<!-- lz4 -->
<g id="node28" class="node">
<title>lz4</title>
<ellipse fill="green" stroke="green" cx="302" cy="-594" rx="27" ry="18"/>
<text text-anchor="middle" x="302" y="-590.3" font-family="Times,serif" font-size="14.00">lz4</text>
</g>
<!-- systemd&#45;libs&#45;&gt;lz4 -->
<g id="edge41" class="edge">
<title>systemd&#45;libs&#45;&gt;lz4</title>
<path fill="none" stroke="#8b4513" d="M272.01,-935.96C270.56,-909.31 268,-856.14 268,-811 268,-811 268,-811 268,-737 268,-695.68 281.78,-649.42 291.8,-621.25"/>
<polygon fill="#8b4513" stroke="#8b4513" points="295.13,-622.33 295.28,-611.74 288.56,-619.92 295.13,-622.33"/>
</g>
<!-- xz -->
<g id="node29" class="node">
<title>xz</title>
<ellipse fill="green" stroke="green" cx="465" cy="-882" rx="27" ry="18"/>
<text text-anchor="middle" x="465" y="-878.3" font-family="Times,serif" font-size="14.00">xz</text>
</g>
<!-- systemd&#45;libs&#45;&gt;xz -->
<g id="edge43" class="edge">
<title>systemd&#45;libs&#45;&gt;xz</title>
<path fill="none" stroke="#8b4513" d="M308.66,-940C344.1,-927.08 397.98,-907.44 432.33,-894.91"/>
<polygon fill="#8b4513" stroke="#8b4513" points="433.7,-898.14 441.89,-891.42 431.3,-891.56 433.7,-898.14"/>
</g>
<!-- libcap&#45;&gt;glibc -->
<g id="edge34" class="edge">
<title>libcap&#45;&gt;glibc</title>
<path fill="none" stroke="#8b4513" d="M257.87,-288.77C271.17,-269.74 295.13,-238 321,-216 338.76,-200.9 361.39,-187.59 379.51,-178.09"/>
<polygon fill="#8b4513" stroke="#8b4513" points="381.22,-181.15 388.53,-173.48 378.03,-174.92 381.22,-181.15"/>
</g>
<!-- attr -->
<g id="node25" class="node">
<title>attr</title>
<ellipse fill="green" stroke="green" cx="242" cy="-234" rx="27" ry="18"/>
<text text-anchor="middle" x="242" y="-230.3" font-family="Times,serif" font-size="14.00">attr</text>
</g>
<!-- libcap&#45;&gt;attr -->
<g id="edge35" class="edge">
<title>libcap&#45;&gt;attr</title>
<path fill="none" stroke="#8b4513" d="M245.76,-287.7C245.21,-279.98 244.55,-270.71 243.94,-262.11"/>
<polygon fill="#8b4513" stroke="#8b4513" points="247.43,-261.83 243.22,-252.1 240.44,-262.33 247.43,-261.83"/>
</g>
<!-- attr&#45;&gt;glibc -->
<g id="edge36" class="edge">
<title>attr&#45;&gt;glibc</title>
<path fill="none" stroke="#8b4513" d="M264.56,-223.65C270.55,-221.16 277.02,-218.48 283,-216 315.31,-202.61 352.22,-187.33 378.07,-176.63"/>
<polygon fill="#8b4513" stroke="#8b4513" points="379.51,-179.82 387.41,-172.76 376.83,-173.36 379.51,-179.82"/>
</g>
<!-- libgpg&#45;error -->
<g id="node27" class="node">
<title>libgpg&#45;error</title>
<ellipse fill="green" stroke="green" cx="350" cy="-810" rx="53.89" ry="18"/>
<text text-anchor="middle" x="350" y="-806.3" font-family="Times,serif" font-size="14.00">libgpg&#45;error</text>
</g>
<!-- libgcrypt&#45;&gt;libgpg&#45;error -->
<g id="edge38" class="edge">
<title>libgcrypt&#45;&gt;libgpg&#45;error</title>
<path fill="none" stroke="#8b4513" d="M341.72,-863.7C342.93,-855.98 344.39,-846.71 345.74,-838.11"/>
<polygon fill="#8b4513" stroke="#8b4513" points="349.22,-838.53 347.31,-828.1 342.3,-837.44 349.22,-838.53"/>
</g>
<!-- libgpg&#45;error&#45;&gt;glibc -->
<g id="edge39" class="edge">
<title>libgpg&#45;error&#45;&gt;glibc</title>
<path fill="none" stroke="#8b4513" d="M354.65,-791.66C361.38,-765.05 373,-712.45 373,-667 373,-667 373,-667 373,-305 373,-263.41 388.4,-217.22 399.6,-189.14"/>
<polygon fill="#8b4513" stroke="#8b4513" points="402.93,-190.24 403.49,-179.66 396.45,-187.58 402.93,-190.24"/>
</g>
<!-- libgpg&#45;error&#45;&gt;sh -->
<g id="edge40" class="edge">
<title>libgpg&#45;error&#45;&gt;sh</title>
<path fill="none" stroke="#8b4513" d="M392.35,-798.67C449.21,-784.8 549.19,-760.42 602.02,-747.53"/>
<polygon fill="#8b4513" stroke="#8b4513" points="603.04,-750.89 611.93,-745.12 601.38,-744.08 603.04,-750.89"/>
</g>
<!-- lz4&#45;&gt;glibc -->
<g id="edge42" class="edge">
<title>lz4&#45;&gt;glibc</title>
<path fill="none" stroke="#8b4513" d="M308.52,-576.24C318.14,-549.98 335,-497.32 335,-451 335,-451 335,-451 335,-305 335,-264.03 338.66,-251.56 359,-216 365.97,-203.82 376.42,-192.41 386.13,-183.32"/>
<polygon fill="#8b4513" stroke="#8b4513" points="388.56,-185.84 393.67,-176.56 383.89,-180.63 388.56,-185.84"/>
</g>
<!-- xz&#45;&gt;sh -->
<g id="edge44" class="edge">
<title>xz&#45;&gt;sh</title>
<path fill="none" stroke="#8b4513" d="M471.81,-864.54C480.61,-844.98 497.65,-812.44 521,-792 544.72,-771.24 577.94,-757.18 602.75,-748.78"/>
<polygon fill="#8b4513" stroke="#8b4513" points="604.05,-752.04 612.48,-745.64 601.89,-745.38 604.05,-752.04"/>
</g>
<!-- dbus&#45;&gt;systemd&#45;libs -->
<g id="edge46" class="edge">
<title>dbus&#45;&gt;systemd&#45;libs</title>
<path fill="none" stroke="#8b4513" d="M438.92,-1450.6C388.15,-1435.98 278,-1395.03 278,-1315 278,-1315 278,-1315 278,-1097 278,-1056.97 275.99,-1010.63 274.52,-982.07"/>
<polygon fill="#8b4513" stroke="#8b4513" points="278.01,-981.84 273.99,-972.04 271.02,-982.21 278.01,-981.84"/>
</g>
<!-- expat -->
<g id="node31" class="node">
<title>expat</title>
<ellipse fill="green" stroke="green" cx="134" cy="-738" rx="29.8" ry="18"/>
<text text-anchor="middle" x="134" y="-734.3" font-family="Times,serif" font-size="14.00">expat</text>
</g>
<!-- dbus&#45;&gt;expat -->
<g id="edge47" class="edge">
<title>dbus&#45;&gt;expat</title>
<path fill="none" stroke="#8b4513" d="M438.15,-1452.17C395.52,-1443.69 313.16,-1425.04 293,-1404 201.89,-1308.93 149.28,-879.18 136.87,-766.25"/>
<polygon fill="#8b4513" stroke="#8b4513" points="140.32,-765.61 135.76,-756.05 133.36,-766.37 140.32,-765.61"/>
</g>
<!-- audit -->
<g id="node32" class="node">
<title>audit</title>
<ellipse fill="green" stroke="green" cx="603" cy="-1314" rx="28.7" ry="18"/>
<text text-anchor="middle" x="603" y="-1310.3" font-family="Times,serif" font-size="14.00">audit</text>
</g>
<!-- dbus&#45;&gt;audit -->
<g id="edge49" class="edge">
<title>dbus&#45;&gt;audit</title>
<path fill="none" stroke="#8b4513" d="M472.09,-1440.45C481.97,-1421.41 500.11,-1389.93 522,-1368 536.69,-1353.28 556.1,-1340.41 572.23,-1331.04"/>
<polygon fill="#8b4513" stroke="#8b4513" points="574.3,-1333.9 581.3,-1325.94 570.87,-1327.8 574.3,-1333.9"/>
</g>
<!-- libsystemd.so=0&#45;64 -->
<g id="node45" class="node">
<title>libsystemd.so=0&#45;64</title>
<ellipse fill="green" stroke="green" cx="405" cy="-1170" rx="81.49" ry="18"/>
<text text-anchor="middle" x="405" y="-1166.3" font-family="Times,serif" font-size="14.00">libsystemd.so=0&#45;64</text>
</g>
<!-- dbus&#45;&gt;libsystemd.so=0&#45;64 -->
<g id="edge72" class="edge">
<title>dbus&#45;&gt;libsystemd.so=0&#45;64</title>
<path fill="none" stroke="#8b4513" d="M460.49,-1439.97C450.63,-1392.19 422.66,-1256.62 410.62,-1198.27"/>
<polygon fill="#8b4513" stroke="#8b4513" points="414.02,-1197.39 408.57,-1188.31 407.16,-1198.81 414.02,-1197.39"/>
</g>
<!-- libaudit.so=1&#45;64 -->
<g id="node46" class="node">
<title>libaudit.so=1&#45;64</title>
<ellipse fill="green" stroke="green" cx="601" cy="-1386" rx="69.59" ry="18"/>
<text text-anchor="middle" x="601" y="-1382.3" font-family="Times,serif" font-size="14.00">libaudit.so=1&#45;64</text>
</g>
<!-- dbus&#45;&gt;libaudit.so=1&#45;64 -->
<g id="edge74" class="edge">
<title>dbus&#45;&gt;libaudit.so=1&#45;64</title>
<path fill="none" stroke="#8b4513" d="M485.11,-1446.22C505.47,-1435.81 536.8,-1419.8 561.75,-1407.05"/>
<polygon fill="#8b4513" stroke="#8b4513" points="563.66,-1410.01 570.97,-1402.34 560.47,-1403.78 563.66,-1410.01"/>
</g>
<!-- expat&#45;&gt;glibc -->
<g id="edge48" class="edge">
<title>expat&#45;&gt;glibc</title>
<path fill="none" stroke="#8b4513" d="M135.38,-719.96C137.42,-693.32 141,-640.17 141,-595 141,-595 141,-595 141,-305 141,-262.97 141.46,-243.79 173,-216 202.36,-190.13 313.46,-173.98 372.92,-167.01"/>
<polygon fill="#8b4513" stroke="#8b4513" points="373.5,-170.46 383.04,-165.85 372.7,-163.51 373.5,-170.46"/>
</g>
<!-- krb5 -->
<g id="node33" class="node">
<title>krb5</title>
<ellipse fill="green" stroke="green" cx="606" cy="-1242" rx="27.1" ry="18"/>
<text text-anchor="middle" x="606" y="-1238.3" font-family="Times,serif" font-size="14.00">krb5</text>
</g>
<!-- audit&#45;&gt;krb5 -->
<g id="edge50" class="edge">
<title>audit&#45;&gt;krb5</title>
<path fill="none" stroke="#8b4513" d="M603.74,-1295.7C604.07,-1287.98 604.47,-1278.71 604.84,-1270.11"/>
<polygon fill="#8b4513" stroke="#8b4513" points="608.34,-1270.25 605.27,-1260.1 601.34,-1269.95 608.34,-1270.25"/>
</g>
<!-- libcap&#45;ng -->
<g id="node44" class="node">
<title>libcap&#45;ng</title>
<ellipse fill="green" stroke="green" cx="867" cy="-666" rx="44.39" ry="18"/>
<text text-anchor="middle" x="867" y="-662.3" font-family="Times,serif" font-size="14.00">libcap&#45;ng</text>
</g>
<!-- audit&#45;&gt;libcap&#45;ng -->
<g id="edge70" class="edge">
<title>audit&#45;&gt;libcap&#45;ng</title>
<path fill="none" stroke="#8b4513" d="M627.7,-1304.82C673.73,-1287.84 768,-1244.13 768,-1171 768,-1171 768,-1171 768,-953 768,-888.21 821.14,-888.99 843,-828 859.11,-783.07 864.41,-727.34 866.15,-694.62"/>
<polygon fill="#8b4513" stroke="#8b4513" points="869.65,-694.61 866.61,-684.46 862.66,-694.29 869.65,-694.61"/>
</g>
<!-- e2fsprogs -->
<g id="node34" class="node">
<title>e2fsprogs</title>
<ellipse fill="green" stroke="green" cx="611" cy="-1098" rx="44.69" ry="18"/>
<text text-anchor="middle" x="611" y="-1094.3" font-family="Times,serif" font-size="14.00">e2fsprogs</text>
</g>
<!-- krb5&#45;&gt;e2fsprogs -->
<g id="edge51" class="edge">
<title>krb5&#45;&gt;e2fsprogs</title>
<path fill="none" stroke="#8b4513" d="M606.6,-1223.87C607.46,-1199.67 609.02,-1155.21 610.04,-1126.39"/>
<polygon fill="#8b4513" stroke="#8b4513" points="613.54,-1126.31 610.39,-1116.19 606.54,-1126.06 613.54,-1126.31"/>
</g>
<!-- libldap -->
<g id="node36" class="node">
<title>libldap</title>
<ellipse fill="green" stroke="green" cx="548" cy="-1170" rx="35.19" ry="18"/>
<text text-anchor="middle" x="548" y="-1166.3" font-family="Times,serif" font-size="14.00">libldap</text>
</g>
<!-- krb5&#45;&gt;libldap -->
<g id="edge54" class="edge">
<title>krb5&#45;&gt;libldap</title>
<path fill="none" stroke="#8b4513" d="M593.41,-1225.81C585.95,-1216.8 576.32,-1205.18 567.85,-1194.95"/>
<polygon fill="#8b4513" stroke="#8b4513" points="570.44,-1192.6 561.37,-1187.13 565.05,-1197.07 570.44,-1192.6"/>
</g>
<!-- keyutils -->
<g id="node43" class="node">
<title>keyutils</title>
<ellipse fill="green" stroke="green" cx="796" cy="-810" rx="38.19" ry="18"/>
<text text-anchor="middle" x="796" y="-806.3" font-family="Times,serif" font-size="14.00">keyutils</text>
</g>
<!-- krb5&#45;&gt;keyutils -->
<g id="edge67" class="edge">
<title>krb5&#45;&gt;keyutils</title>
<path fill="none" stroke="#8b4513" d="M626.48,-1229.95C661.7,-1209.28 730,-1161.19 730,-1099 730,-1099 730,-1099 730,-953 730,-912.03 735.56,-900.59 754,-864 759.2,-853.67 766.62,-843.44 773.78,-834.77"/>
<polygon fill="#8b4513" stroke="#8b4513" points="776.62,-836.84 780.48,-826.97 771.31,-832.27 776.62,-836.84"/>
</g>
<!-- e2fsprogs&#45;&gt;sh -->
<g id="edge52" class="edge">
<title>e2fsprogs&#45;&gt;sh</title>
<path fill="none" stroke="#8b4513" d="M634.43,-1082.62C647.74,-1073.24 663.58,-1059.82 673,-1044 693.69,-1009.24 692,-995.45 692,-955 692,-955 692,-955 692,-881 692,-840.55 688.88,-829.2 673,-792 668.61,-781.72 662.12,-771.34 655.85,-762.53"/>
<polygon fill="#8b4513" stroke="#8b4513" points="658.52,-760.24 649.75,-754.3 652.89,-764.41 658.52,-760.24"/>
</g>
<!-- libutil&#45;linux -->
<g id="node35" class="node">
<title>libutil&#45;linux</title>
<ellipse fill="green" stroke="green" cx="611" cy="-1026" rx="52.79" ry="18"/>
<text text-anchor="middle" x="611" y="-1022.3" font-family="Times,serif" font-size="14.00">libutil&#45;linux</text>
</g>
<!-- e2fsprogs&#45;&gt;libutil&#45;linux -->
<g id="edge53" class="edge">
<title>e2fsprogs&#45;&gt;libutil&#45;linux</title>
<path fill="none" stroke="#8b4513" d="M611,-1079.7C611,-1071.98 611,-1062.71 611,-1054.11"/>
<polygon fill="#8b4513" stroke="#8b4513" points="614.5,-1054.1 611,-1044.1 607.5,-1054.1 614.5,-1054.1"/>
</g>
<!-- libldap&#45;&gt;e2fsprogs -->
<g id="edge66" class="edge">
<title>libldap&#45;&gt;e2fsprogs</title>
<path fill="none" stroke="#8b4513" d="M561.98,-1153.46C569.99,-1144.57 580.22,-1133.21 589.25,-1123.16"/>
<polygon fill="#8b4513" stroke="#8b4513" points="592.09,-1125.24 596.18,-1115.47 586.89,-1120.56 592.09,-1125.24"/>
</g>
<!-- libsasl -->
<g id="node37" class="node">
<title>libsasl</title>
<ellipse fill="green" stroke="green" cx="509" cy="-1098" rx="33.29" ry="18"/>
<text text-anchor="middle" x="509" y="-1094.3" font-family="Times,serif" font-size="14.00">libsasl</text>
</g>
<!-- libldap&#45;&gt;libsasl -->
<g id="edge55" class="edge">
<title>libldap&#45;&gt;libsasl</title>
<path fill="none" stroke="#8b4513" d="M538.76,-1152.41C534.09,-1144.04 528.34,-1133.71 523.13,-1124.37"/>
<polygon fill="#8b4513" stroke="#8b4513" points="526.1,-1122.5 518.18,-1115.47 519.99,-1125.91 526.1,-1122.5"/>
</g>
<!-- openssl -->
<g id="node38" class="node">
<title>openssl</title>
<ellipse fill="green" stroke="green" cx="503" cy="-1026" rx="37.09" ry="18"/>
<text text-anchor="middle" x="503" y="-1022.3" font-family="Times,serif" font-size="14.00">openssl</text>
</g>
<!-- libsasl&#45;&gt;openssl -->
<g id="edge56" class="edge">
<title>libsasl&#45;&gt;openssl</title>
<path fill="none" stroke="#8b4513" d="M507.52,-1079.7C506.86,-1071.98 506.06,-1062.71 505.32,-1054.11"/>
<polygon fill="#8b4513" stroke="#8b4513" points="508.81,-1053.77 504.47,-1044.1 501.83,-1054.37 508.81,-1053.77"/>
</g>
<!-- perl -->
<g id="node39" class="node">
<title>perl</title>
<ellipse fill="green" stroke="green" cx="536" cy="-954" rx="27" ry="18"/>
<text text-anchor="middle" x="536" y="-950.3" font-family="Times,serif" font-size="14.00">perl</text>
</g>
<!-- openssl&#45;&gt;perl -->
<g id="edge57" class="edge">
<title>openssl&#45;&gt;perl</title>
<path fill="none" stroke="#8b4513" d="M510.99,-1008.05C514.9,-999.77 519.68,-989.62 524.01,-980.42"/>
<polygon fill="#8b4513" stroke="#8b4513" points="527.21,-981.84 528.31,-971.31 520.88,-978.86 527.21,-981.84"/>
</g>
<!-- perl&#45;&gt;glibc -->
<g id="edge65" class="edge">
<title>perl&#45;&gt;glibc</title>
<path fill="none" stroke="#8b4513" d="M510.45,-947.95C485.18,-941.49 447.68,-927.66 429,-900 414.47,-878.48 411,-692.97 411,-667 411,-667 411,-667 411,-305 411,-265 411,-218.65 411,-190.08"/>
<polygon fill="#8b4513" stroke="#8b4513" points="414.5,-190.05 411,-180.05 407.5,-190.05 414.5,-190.05"/>
</g>
<!-- gdbm&gt;=1.17 -->
<g id="node40" class="node">
<title>gdbm&gt;=1.17</title>
<ellipse fill="green" stroke="green" cx="568" cy="-882" rx="57.69" ry="18"/>
<text text-anchor="middle" x="568" y="-878.3" font-family="Times,serif" font-size="14.00">gdbm&gt;=1.17</text>
</g>
<!-- perl&#45;&gt;gdbm&gt;=1.17 -->
<g id="edge58" class="edge">
<title>perl&#45;&gt;gdbm&gt;=1.17</title>
<path fill="none" stroke="#8b4513" d="M543.58,-936.41C547.31,-928.25 551.9,-918.22 556.08,-909.07"/>
<polygon fill="#8b4513" stroke="#8b4513" points="559.27,-910.51 560.25,-899.96 552.91,-907.6 559.27,-910.51"/>
</g>
<!-- db -->
<g id="node42" class="node">
<title>db</title>
<ellipse fill="green" stroke="green" cx="637" cy="-810" rx="27" ry="18"/>
<text text-anchor="middle" x="637" y="-806.3" font-family="Times,serif" font-size="14.00">db</text>
</g>
<!-- perl&#45;&gt;db -->
<g id="edge62" class="edge">
<title>perl&#45;&gt;db</title>
<path fill="none" stroke="#8b4513" d="M561.33,-947.18C584.94,-940.28 618.88,-926.25 635,-900 646.35,-881.53 645.86,-856.58 643.1,-837.8"/>
<polygon fill="#8b4513" stroke="#8b4513" points="646.52,-837.06 641.34,-827.82 639.63,-838.27 646.52,-837.06"/>
</g>
<!-- gdbm -->
<g id="node41" class="node">
<title>gdbm</title>
<ellipse fill="green" stroke="green" cx="561" cy="-810" rx="31.4" ry="18"/>
<text text-anchor="middle" x="561" y="-806.3" font-family="Times,serif" font-size="14.00">gdbm</text>
</g>
<!-- gdbm&gt;=1.17&#45;&gt;gdbm -->
<g id="edge59" class="edge">
<title>gdbm&gt;=1.17&#45;&gt;gdbm</title>
<path fill="none" stroke="grey" d="M566.27,-863.7C565.18,-852.85 563.79,-838.92 562.71,-828.1"/>
</g>
<!-- gdbm&#45;&gt;glibc -->
<g id="edge60" class="edge">
<title>gdbm&#45;&gt;glibc</title>
<path fill="none" stroke="#8b4513" d="M540.72,-796.23C508.44,-774.16 449,-725.56 449,-667 449,-667 449,-667 449,-305 449,-263.41 433.6,-217.22 422.4,-189.14"/>
<polygon fill="#8b4513" stroke="#8b4513" points="425.55,-187.58 418.51,-179.66 419.07,-190.24 425.55,-187.58"/>
</g>
<!-- gdbm&#45;&gt;sh -->
<g id="edge61" class="edge">
<title>gdbm&#45;&gt;sh</title>
<path fill="none" stroke="#8b4513" d="M577.12,-794.15C587.91,-784.21 602.28,-770.98 614.24,-759.97"/>
<polygon fill="#8b4513" stroke="#8b4513" points="616.7,-762.46 621.68,-753.11 611.96,-757.31 616.7,-762.46"/>
</g>
<!-- db&#45;&gt;sh -->
<g id="edge64" class="edge">
<title>db&#45;&gt;sh</title>
<path fill="none" stroke="#8b4513" d="M637,-791.7C637,-783.98 637,-774.71 637,-766.11"/>
<polygon fill="#8b4513" stroke="#8b4513" points="640.5,-766.1 637,-756.1 633.5,-766.1 640.5,-766.1"/>
</g>
<!-- db&#45;&gt;gcc&#45;libs -->
<g id="edge63" class="edge">
<title>db&#45;&gt;gcc&#45;libs</title>
<path fill="none" stroke="#8b4513" d="M618.61,-796.74C578.55,-769.36 487,-702.86 487,-667 487,-667 487,-667 487,-449 487,-406.67 505.4,-360.41 518.67,-332.56"/>
<polygon fill="#8b4513" stroke="#8b4513" points="521.85,-334.03 523.11,-323.51 515.56,-330.94 521.85,-334.03"/>
</g>
<!-- keyutils&#45;&gt;glibc -->
<g id="edge68" class="edge">
<title>keyutils&#45;&gt;glibc</title>
<path fill="none" stroke="#8b4513" d="M797.55,-791.56C800.28,-761.96 806.36,-700.04 814,-648 831.65,-527.77 863,-500.52 863,-379 863,-379 863,-379 863,-305 863,-239.67 806.09,-241.66 746,-216 645.2,-172.95 513.88,-164.49 449.71,-163.07"/>
<polygon fill="#8b4513" stroke="#8b4513" points="449.69,-159.57 439.63,-162.89 449.57,-166.57 449.69,-159.57"/>
</g>
<!-- keyutils&#45;&gt;sh -->
<g id="edge69" class="edge">
<title>keyutils&#45;&gt;sh</title>
<path fill="none" stroke="#8b4513" d="M769.03,-797.13C741.17,-784.86 697.73,-765.74 668.35,-752.8"/>
<polygon fill="#8b4513" stroke="#8b4513" points="669.54,-749.5 658.98,-748.67 666.72,-755.91 669.54,-749.5"/>
</g>
<!-- libcap&#45;ng&#45;&gt;glibc -->
<g id="edge71" class="edge">
<title>libcap&#45;ng&#45;&gt;glibc</title>
<path fill="none" stroke="#8b4513" d="M873.88,-647.83C883.82,-621.44 901,-569.14 901,-523 901,-523 901,-523 901,-305 901,-264.03 908.06,-242.71 877,-216 844.81,-188.31 555.71,-170.56 449.72,-164.93"/>
<polygon fill="#8b4513" stroke="#8b4513" points="449.64,-161.42 439.47,-164.39 449.27,-168.41 449.64,-161.42"/>
</g>
<!-- libsystemd.so=0&#45;64&#45;&gt;systemd&#45;libs -->
<g id="edge73" class="edge">
<title>libsystemd.so=0&#45;64&#45;&gt;systemd&#45;libs</title>
<path fill="none" stroke="grey" d="M394.42,-1151.85C369.64,-1111.68 308.09,-1011.89 283.45,-971.94"/>
</g>
<!-- libaudit.so=1&#45;64&#45;&gt;audit -->
<g id="edge75" class="edge">
<title>libaudit.so=1&#45;64&#45;&gt;audit</title>
<path fill="none" stroke="grey" d="M601.49,-1367.7C601.8,-1356.85 602.2,-1342.92 602.51,-1332.1"/>
</g>
<!-- libnfnetlink&#45;&gt;glibc -->
<g id="edge77" class="edge">
<title>libnfnetlink&#45;&gt;glibc</title>
<path fill="none" stroke="#8b4513" d="M160.28,-1452.38C126.38,-1446.57 83.06,-1433.49 57,-1404 30.21,-1373.69 38,-1355.45 38,-1315 38,-1315 38,-1315 38,-305 38,-259.19 52.26,-241.97 90,-216 135.23,-184.87 296.93,-170.45 372.09,-165.32"/>
<polygon fill="#8b4513" stroke="#8b4513" points="372.77,-168.78 382.52,-164.63 372.31,-161.8 372.77,-168.78"/>
</g>
<!-- libnetfilter_conntrack&#45;&gt;libmnl -->
<g id="edge80" class="edge">
<title>libnetfilter_conntrack&#45;&gt;libmnl</title>
<path fill="none" stroke="#8b4513" d="M178,-1513.12C155.44,-1501.91 125.28,-1486.94 102.41,-1475.58"/>
<polygon fill="#8b4513" stroke="#8b4513" points="103.92,-1472.43 93.4,-1471.12 100.8,-1478.7 103.92,-1472.43"/>
</g>
<!-- libnetfilter_conntrack&#45;&gt;libnfnetlink -->
<g id="edge79" class="edge">
<title>libnetfilter_conntrack&#45;&gt;libnfnetlink</title>
<path fill="none" stroke="#8b4513" d="M210,-1511.7C210,-1503.98 210,-1494.71 210,-1486.11"/>
<polygon fill="#8b4513" stroke="#8b4513" points="213.5,-1486.1 210,-1476.1 206.5,-1486.1 213.5,-1486.1"/>
</g>
</g>
</svg>
