<?xml version="1.0" encoding="UTF-8" standalone="no"?>
<!DOCTYPE svg PUBLIC "-//W3C//DTD SVG 1.1//EN"
 "http://www.w3.org/Graphics/SVG/1.1/DTD/svg11.dtd">
<!-- Generated by graphviz version 2.44.0 (0)
 -->
<!-- Title: G Pages: 1 -->
<svg width="672pt" height="1196pt"
 viewBox="0.00 0.00 672.14 1196.00" xmlns="http://www.w3.org/2000/svg" xmlns:xlink="http://www.w3.org/1999/xlink">
<g id="graph0" class="graph" transform="scale(1 1) rotate(0) translate(4 1192)">
<title>G</title>
<polygon fill="white" stroke="transparent" points="-4,4 -4,-1192 668.14,-1192 668.14,4 -4,4"/>
<!-- START -->
<g id="node1" class="node">
<title>START</title>
<ellipse fill="red" stroke="red" cx="532.14" cy="-1170" rx="38.19" ry="18"/>
<text text-anchor="middle" x="532.14" y="-1166.3" font-family="Times,serif" font-size="14.00">START</text>
</g>
<!-- iputils -->
<g id="node2" class="node">
<title>iputils</title>
<ellipse fill="green" stroke="green" cx="532.14" cy="-1098" rx="32.49" ry="18"/>
<text text-anchor="middle" x="532.14" y="-1094.3" font-family="Times,serif" font-size="14.00">iputils</text>
</g>
<!-- START&#45;&gt;iputils -->
<g id="edge1" class="edge">
<title>START&#45;&gt;iputils</title>
<path fill="none" stroke="black" d="M532.14,-1151.7C532.14,-1143.98 532.14,-1134.71 532.14,-1126.11"/>
<polygon fill="black" stroke="black" points="535.64,-1126.1 532.14,-1116.1 528.64,-1126.1 535.64,-1126.1"/>
</g>
<!-- openssl -->
<g id="node3" class="node">
<title>openssl</title>
<ellipse fill="green" stroke="green" cx="356.14" cy="-1026" rx="37.09" ry="18"/>
<text text-anchor="middle" x="356.14" y="-1022.3" font-family="Times,serif" font-size="14.00">openssl</text>
</g>
<!-- iputils&#45;&gt;openssl -->
<g id="edge2" class="edge">
<title>iputils&#45;&gt;openssl</title>
<path fill="none" stroke="#8b4513" d="M506.55,-1086.82C476.79,-1074.98 427.4,-1055.34 393.39,-1041.81"/>
<polygon fill="#8b4513" stroke="#8b4513" points="394.38,-1038.44 383.8,-1038 391.79,-1044.95 394.38,-1038.44"/>
</g>
<!-- libcap -->
<g id="node22" class="node">
<title>libcap</title>
<ellipse fill="green" stroke="green" cx="467.14" cy="-306" rx="32.49" ry="18"/>
<text text-anchor="middle" x="467.14" y="-302.3" font-family="Times,serif" font-size="14.00">libcap</text>
</g>
<!-- iputils&#45;&gt;libcap -->
<g id="edge30" class="edge">
<title>iputils&#45;&gt;libcap</title>
<path fill="none" stroke="#8b4513" d="M532.14,-1079.95C532.14,-1053.29 532.14,-1000.11 532.14,-955 532.14,-955 532.14,-955 532.14,-449 532.14,-404.23 505.1,-358.13 485.9,-331.05"/>
<polygon fill="#8b4513" stroke="#8b4513" points="488.71,-328.96 479.98,-322.95 483.05,-333.09 488.71,-328.96"/>
</g>
<!-- libidn2 -->
<g id="node24" class="node">
<title>libidn2</title>
<ellipse fill="green" stroke="green" cx="604.14" cy="-1026" rx="36" ry="18"/>
<text text-anchor="middle" x="604.14" y="-1022.3" font-family="Times,serif" font-size="14.00">libidn2</text>
</g>
<!-- iputils&#45;&gt;libidn2 -->
<g id="edge34" class="edge">
<title>iputils&#45;&gt;libidn2</title>
<path fill="none" stroke="#8b4513" d="M547.76,-1081.81C557.35,-1072.49 569.81,-1060.38 580.57,-1049.91"/>
<polygon fill="#8b4513" stroke="#8b4513" points="583.32,-1052.12 588.05,-1042.64 578.44,-1047.11 583.32,-1052.12"/>
</g>
<!-- perl -->
<g id="node4" class="node">
<title>perl</title>
<ellipse fill="green" stroke="green" cx="249.14" cy="-954" rx="27" ry="18"/>
<text text-anchor="middle" x="249.14" y="-950.3" font-family="Times,serif" font-size="14.00">perl</text>
</g>
<!-- openssl&#45;&gt;perl -->
<g id="edge3" class="edge">
<title>openssl&#45;&gt;perl</title>
<path fill="none" stroke="#8b4513" d="M335,-1011.17C318.15,-1000.14 294.43,-984.63 276.19,-972.7"/>
<polygon fill="#8b4513" stroke="#8b4513" points="278.02,-969.71 267.74,-967.16 274.19,-975.57 278.02,-969.71"/>
</g>
<!-- gdbm&gt;=1.17 -->
<g id="node5" class="node">
<title>gdbm&gt;=1.17</title>
<ellipse fill="green" stroke="green" cx="206.14" cy="-882" rx="57.69" ry="18"/>
<text text-anchor="middle" x="206.14" y="-878.3" font-family="Times,serif" font-size="14.00">gdbm&gt;=1.17</text>
</g>
<!-- perl&#45;&gt;gdbm&gt;=1.17 -->
<g id="edge4" class="edge">
<title>perl&#45;&gt;gdbm&gt;=1.17</title>
<path fill="none" stroke="#8b4513" d="M239.38,-937.12C234.2,-928.68 227.71,-918.1 221.83,-908.55"/>
<polygon fill="#8b4513" stroke="#8b4513" points="224.68,-906.49 216.46,-899.8 218.71,-910.15 224.68,-906.49"/>
</g>
<!-- glibc -->
<g id="node7" class="node">
<title>glibc</title>
<ellipse fill="green" stroke="green" cx="246.14" cy="-162" rx="28.7" ry="18"/>
<text text-anchor="middle" x="246.14" y="-158.3" font-family="Times,serif" font-size="14.00">glibc</text>
</g>
<!-- perl&#45;&gt;glibc -->
<g id="edge29" class="edge">
<title>perl&#45;&gt;glibc</title>
<path fill="none" stroke="#8b4513" d="M225.29,-945.51C178.7,-929.23 80.14,-885.92 80.14,-811 80.14,-811 80.14,-811 80.14,-305 80.14,-258.96 99.02,-246.91 133.14,-216 155.34,-195.89 186.52,-182.04 210.5,-173.56"/>
<polygon fill="#8b4513" stroke="#8b4513" points="211.94,-176.77 220.3,-170.25 209.7,-170.13 211.94,-176.77"/>
</g>
<!-- db -->
<g id="node21" class="node">
<title>db</title>
<ellipse fill="green" stroke="green" cx="292.14" cy="-810" rx="27" ry="18"/>
<text text-anchor="middle" x="292.14" y="-806.3" font-family="Times,serif" font-size="14.00">db</text>
</g>
<!-- perl&#45;&gt;db -->
<g id="edge26" class="edge">
<title>perl&#45;&gt;db</title>
<path fill="none" stroke="#8b4513" d="M257.65,-936.66C262.72,-926.36 268.98,-912.67 273.14,-900 279.84,-879.65 284.77,-855.88 287.93,-838.03"/>
<polygon fill="#8b4513" stroke="#8b4513" points="291.41,-838.46 289.63,-828.02 284.5,-837.29 291.41,-838.46"/>
</g>
<!-- gdbm -->
<g id="node6" class="node">
<title>gdbm</title>
<ellipse fill="green" stroke="green" cx="206.14" cy="-810" rx="31.4" ry="18"/>
<text text-anchor="middle" x="206.14" y="-806.3" font-family="Times,serif" font-size="14.00">gdbm</text>
</g>
<!-- gdbm&gt;=1.17&#45;&gt;gdbm -->
<g id="edge5" class="edge">
<title>gdbm&gt;=1.17&#45;&gt;gdbm</title>
<path fill="none" stroke="grey" d="M206.14,-863.7C206.14,-852.85 206.14,-838.92 206.14,-828.1"/>
</g>
<!-- gdbm&#45;&gt;glibc -->
<g id="edge6" class="edge">
<title>gdbm&#45;&gt;glibc</title>
<path fill="none" stroke="#8b4513" d="M189.59,-794.67C164.1,-770.92 118.14,-720.66 118.14,-667 118.14,-667 118.14,-667 118.14,-305 118.14,-247.02 177.75,-202.04 215.61,-179.33"/>
<polygon fill="#8b4513" stroke="#8b4513" points="217.83,-182.08 224.72,-174.04 214.31,-176.03 217.83,-182.08"/>
</g>
<!-- sh -->
<g id="node13" class="node">
<title>sh</title>
<ellipse fill="green" stroke="green" cx="245.14" cy="-738" rx="27" ry="18"/>
<text text-anchor="middle" x="245.14" y="-734.3" font-family="Times,serif" font-size="14.00">sh</text>
</g>
<!-- gdbm&#45;&gt;sh -->
<g id="edge12" class="edge">
<title>gdbm&#45;&gt;sh</title>
<path fill="none" stroke="#8b4513" d="M215.19,-792.76C219.96,-784.19 225.92,-773.49 231.27,-763.9"/>
<polygon fill="#8b4513" stroke="#8b4513" points="234.34,-765.59 236.14,-755.15 228.22,-762.18 234.34,-765.59"/>
</g>
<!-- linux&#45;api&#45;headers&gt;=4.10 -->
<g id="node8" class="node">
<title>linux&#45;api&#45;headers&gt;=4.10</title>
<ellipse fill="green" stroke="green" cx="98.14" cy="-90" rx="98.28" ry="18"/>
<text text-anchor="middle" x="98.14" y="-86.3" font-family="Times,serif" font-size="14.00">linux&#45;api&#45;headers&gt;=4.10</text>
</g>
<!-- glibc&#45;&gt;linux&#45;api&#45;headers&gt;=4.10 -->
<g id="edge7" class="edge">
<title>glibc&#45;&gt;linux&#45;api&#45;headers&gt;=4.10</title>
<path fill="none" stroke="#8b4513" d="M223.98,-150.52C202.2,-140.22 168.37,-124.22 141.27,-111.4"/>
<polygon fill="#8b4513" stroke="#8b4513" points="142.53,-108.12 132,-107.01 139.54,-114.45 142.53,-108.12"/>
</g>
<!-- tzdata -->
<g id="node10" class="node">
<title>tzdata</title>
<ellipse fill="green" stroke="green" cx="246.14" cy="-90" rx="31.7" ry="18"/>
<text text-anchor="middle" x="246.14" y="-86.3" font-family="Times,serif" font-size="14.00">tzdata</text>
</g>
<!-- glibc&#45;&gt;tzdata -->
<g id="edge9" class="edge">
<title>glibc&#45;&gt;tzdata</title>
<path fill="none" stroke="#8b4513" d="M246.14,-143.7C246.14,-135.98 246.14,-126.71 246.14,-118.11"/>
<polygon fill="#8b4513" stroke="#8b4513" points="249.64,-118.1 246.14,-108.1 242.64,-118.1 249.64,-118.1"/>
</g>
<!-- filesystem -->
<g id="node11" class="node">
<title>filesystem</title>
<ellipse fill="green" stroke="green" cx="343.14" cy="-90" rx="46.59" ry="18"/>
<text text-anchor="middle" x="343.14" y="-86.3" font-family="Times,serif" font-size="14.00">filesystem</text>
</g>
<!-- glibc&#45;&gt;filesystem -->
<g id="edge10" class="edge">
<title>glibc&#45;&gt;filesystem</title>
<path fill="none" stroke="#8b4513" d="M264.39,-147.83C278.19,-137.88 297.42,-123.99 313.43,-112.44"/>
<polygon fill="#8b4513" stroke="#8b4513" points="315.88,-114.99 321.94,-106.3 311.78,-109.31 315.88,-114.99"/>
</g>
<!-- linux&#45;api&#45;headers -->
<g id="node9" class="node">
<title>linux&#45;api&#45;headers</title>
<ellipse fill="green" stroke="green" cx="98.14" cy="-18" rx="71.49" ry="18"/>
<text text-anchor="middle" x="98.14" y="-14.3" font-family="Times,serif" font-size="14.00">linux&#45;api&#45;headers</text>
</g>
<!-- linux&#45;api&#45;headers&gt;=4.10&#45;&gt;linux&#45;api&#45;headers -->
<g id="edge8" class="edge">
<title>linux&#45;api&#45;headers&gt;=4.10&#45;&gt;linux&#45;api&#45;headers</title>
<path fill="none" stroke="grey" d="M98.14,-71.7C98.14,-60.85 98.14,-46.92 98.14,-36.1"/>
</g>
<!-- iana&#45;etc -->
<g id="node12" class="node">
<title>iana&#45;etc</title>
<ellipse fill="green" stroke="green" cx="343.14" cy="-18" rx="38.19" ry="18"/>
<text text-anchor="middle" x="343.14" y="-14.3" font-family="Times,serif" font-size="14.00">iana&#45;etc</text>
</g>
<!-- filesystem&#45;&gt;iana&#45;etc -->
<g id="edge11" class="edge">
<title>filesystem&#45;&gt;iana&#45;etc</title>
<path fill="none" stroke="#8b4513" d="M343.14,-71.7C343.14,-63.98 343.14,-54.71 343.14,-46.11"/>
<polygon fill="#8b4513" stroke="#8b4513" points="346.64,-46.1 343.14,-36.1 339.64,-46.1 346.64,-46.1"/>
</g>
<!-- bash -->
<g id="node14" class="node">
<title>bash</title>
<ellipse fill="green" stroke="green" cx="245.14" cy="-666" rx="27" ry="18"/>
<text text-anchor="middle" x="245.14" y="-662.3" font-family="Times,serif" font-size="14.00">bash</text>
</g>
<!-- sh&#45;&gt;bash -->
<g id="edge13" class="edge">
<title>sh&#45;&gt;bash</title>
<path fill="none" stroke="grey" d="M245.14,-719.7C245.14,-708.85 245.14,-694.92 245.14,-684.1"/>
</g>
<!-- bash&#45;&gt;glibc -->
<g id="edge24" class="edge">
<title>bash&#45;&gt;glibc</title>
<path fill="none" stroke="#8b4513" d="M224.09,-654.45C208.17,-645.38 187.09,-630.78 175.14,-612 153.43,-577.87 156.14,-563.45 156.14,-523 156.14,-523 156.14,-523 156.14,-305 156.14,-255.59 195.5,-209.43 222.16,-183.83"/>
<polygon fill="#8b4513" stroke="#8b4513" points="224.7,-186.25 229.63,-176.87 219.93,-181.12 224.7,-186.25"/>
</g>
<!-- readline&gt;=7.0 -->
<g id="node15" class="node">
<title>readline&gt;=7.0</title>
<ellipse fill="green" stroke="green" cx="245.14" cy="-594" rx="61.19" ry="18"/>
<text text-anchor="middle" x="245.14" y="-590.3" font-family="Times,serif" font-size="14.00">readline&gt;=7.0</text>
</g>
<!-- bash&#45;&gt;readline&gt;=7.0 -->
<g id="edge14" class="edge">
<title>bash&#45;&gt;readline&gt;=7.0</title>
<path fill="none" stroke="#8b4513" d="M245.14,-647.7C245.14,-639.98 245.14,-630.71 245.14,-622.11"/>
<polygon fill="#8b4513" stroke="#8b4513" points="248.64,-622.1 245.14,-612.1 241.64,-622.1 248.64,-622.1"/>
</g>
<!-- ncurses -->
<g id="node17" class="node">
<title>ncurses</title>
<ellipse fill="green" stroke="green" cx="336.14" cy="-378" rx="37.09" ry="18"/>
<text text-anchor="middle" x="336.14" y="-374.3" font-family="Times,serif" font-size="14.00">ncurses</text>
</g>
<!-- bash&#45;&gt;ncurses -->
<g id="edge25" class="edge">
<title>bash&#45;&gt;ncurses</title>
<path fill="none" stroke="#8b4513" d="M264.59,-653.32C306.55,-626.78 404.42,-557.23 437.14,-468 442.65,-452.98 445.42,-445.69 437.14,-432 424.35,-410.84 400,-397.71 378.42,-389.81"/>
<polygon fill="#8b4513" stroke="#8b4513" points="379.34,-386.43 368.75,-386.54 377.1,-393.06 379.34,-386.43"/>
</g>
<!-- readline -->
<g id="node16" class="node">
<title>readline</title>
<ellipse fill="green" stroke="green" cx="238.14" cy="-522" rx="38.99" ry="18"/>
<text text-anchor="middle" x="238.14" y="-518.3" font-family="Times,serif" font-size="14.00">readline</text>
</g>
<!-- readline&gt;=7.0&#45;&gt;readline -->
<g id="edge15" class="edge">
<title>readline&gt;=7.0&#45;&gt;readline</title>
<path fill="none" stroke="grey" d="M243.41,-575.7C242.33,-564.85 240.93,-550.92 239.85,-540.1"/>
</g>
<!-- readline&#45;&gt;glibc -->
<g id="edge16" class="edge">
<title>readline&#45;&gt;glibc</title>
<path fill="none" stroke="#8b4513" d="M229.24,-504.04C216.38,-477.93 194.14,-425.97 194.14,-379 194.14,-379 194.14,-379 194.14,-305 194.14,-261.79 215.64,-215.44 230.99,-187.86"/>
<polygon fill="#8b4513" stroke="#8b4513" points="234.18,-189.33 236.12,-178.92 228.1,-185.85 234.18,-189.33"/>
</g>
<!-- readline&#45;&gt;ncurses -->
<g id="edge17" class="edge">
<title>readline&#45;&gt;ncurses</title>
<path fill="none" stroke="#8b4513" d="M236.57,-503.78C235.7,-484.68 236.95,-453.69 251.14,-432 262.3,-414.93 281.08,-402.38 298.15,-393.78"/>
<polygon fill="#8b4513" stroke="#8b4513" points="299.85,-396.85 307.4,-389.41 296.86,-390.52 299.85,-396.85"/>
</g>
<!-- libncursesw.so=6&#45;64 -->
<g id="node20" class="node">
<title>libncursesw.so=6&#45;64</title>
<ellipse fill="green" stroke="green" cx="344.14" cy="-450" rx="83.69" ry="18"/>
<text text-anchor="middle" x="344.14" y="-446.3" font-family="Times,serif" font-size="14.00">libncursesw.so=6&#45;64</text>
</g>
<!-- readline&#45;&gt;libncursesw.so=6&#45;64 -->
<g id="edge22" class="edge">
<title>readline&#45;&gt;libncursesw.so=6&#45;64</title>
<path fill="none" stroke="#8b4513" d="M259.59,-506.83C274.33,-497.1 294.17,-484 310.94,-472.93"/>
<polygon fill="#8b4513" stroke="#8b4513" points="312.96,-475.79 319.38,-467.35 309.1,-469.94 312.96,-475.79"/>
</g>
<!-- ncurses&#45;&gt;glibc -->
<g id="edge18" class="edge">
<title>ncurses&#45;&gt;glibc</title>
<path fill="none" stroke="#8b4513" d="M319.46,-361.64C309.5,-351.71 297.26,-338.06 289.14,-324 264.34,-281.04 253.47,-223.41 249,-190.03"/>
<polygon fill="#8b4513" stroke="#8b4513" points="252.47,-189.58 247.76,-180.09 245.52,-190.45 252.47,-189.58"/>
</g>
<!-- gcc&#45;libs -->
<g id="node18" class="node">
<title>gcc&#45;libs</title>
<ellipse fill="green" stroke="green" cx="336.14" cy="-306" rx="38.19" ry="18"/>
<text text-anchor="middle" x="336.14" y="-302.3" font-family="Times,serif" font-size="14.00">gcc&#45;libs</text>
</g>
<!-- ncurses&#45;&gt;gcc&#45;libs -->
<g id="edge19" class="edge">
<title>ncurses&#45;&gt;gcc&#45;libs</title>
<path fill="none" stroke="#8b4513" d="M336.14,-359.7C336.14,-351.98 336.14,-342.71 336.14,-334.11"/>
<polygon fill="#8b4513" stroke="#8b4513" points="339.64,-334.1 336.14,-324.1 332.64,-334.1 339.64,-334.1"/>
</g>
<!-- glibc&gt;=2.27 -->
<g id="node19" class="node">
<title>glibc&gt;=2.27</title>
<ellipse fill="green" stroke="green" cx="329.14" cy="-234" rx="54.69" ry="18"/>
<text text-anchor="middle" x="329.14" y="-230.3" font-family="Times,serif" font-size="14.00">glibc&gt;=2.27</text>
</g>
<!-- gcc&#45;libs&#45;&gt;glibc&gt;=2.27 -->
<g id="edge20" class="edge">
<title>gcc&#45;libs&#45;&gt;glibc&gt;=2.27</title>
<path fill="none" stroke="#8b4513" d="M334.41,-287.7C333.64,-279.98 332.71,-270.71 331.85,-262.11"/>
<polygon fill="#8b4513" stroke="#8b4513" points="335.33,-261.71 330.85,-252.1 328.36,-262.4 335.33,-261.71"/>
</g>
<!-- glibc&gt;=2.27&#45;&gt;glibc -->
<g id="edge21" class="edge">
<title>glibc&gt;=2.27&#45;&gt;glibc</title>
<path fill="none" stroke="grey" d="M309.89,-216.76C295.52,-204.65 276.11,-188.27 262.49,-176.79"/>
</g>
<!-- libncursesw.so=6&#45;64&#45;&gt;ncurses -->
<g id="edge23" class="edge">
<title>libncursesw.so=6&#45;64&#45;&gt;ncurses</title>
<path fill="none" stroke="grey" d="M342.16,-431.7C340.92,-420.85 339.33,-406.92 338.1,-396.1"/>
</g>
<!-- db&#45;&gt;sh -->
<g id="edge28" class="edge">
<title>db&#45;&gt;sh</title>
<path fill="none" stroke="#8b4513" d="M281.48,-793.12C275.59,-784.34 268.15,-773.26 261.54,-763.42"/>
<polygon fill="#8b4513" stroke="#8b4513" points="264.24,-761.17 255.76,-754.82 258.43,-765.07 264.24,-761.17"/>
</g>
<!-- db&#45;&gt;gcc&#45;libs -->
<g id="edge27" class="edge">
<title>db&#45;&gt;gcc&#45;libs</title>
<path fill="none" stroke="#8b4513" d="M317.72,-803.7C372.08,-790.79 494.14,-752.31 494.14,-667 494.14,-667 494.14,-667 494.14,-449 494.14,-385 421.53,-342.51 374.76,-321.78"/>
<polygon fill="#8b4513" stroke="#8b4513" points="376.06,-318.54 365.49,-317.81 373.3,-324.97 376.06,-318.54"/>
</g>
<!-- libcap&#45;&gt;glibc -->
<g id="edge31" class="edge">
<title>libcap&#45;&gt;glibc</title>
<path fill="none" stroke="#8b4513" d="M457.39,-288.61C444.84,-268.81 421.27,-235.73 393.14,-216 359.62,-192.49 314.52,-178.28 283.16,-170.57"/>
<polygon fill="#8b4513" stroke="#8b4513" points="283.62,-167.09 273.08,-168.21 282.02,-173.9 283.62,-167.09"/>
</g>
<!-- attr -->
<g id="node23" class="node">
<title>attr</title>
<ellipse fill="green" stroke="green" cx="467.14" cy="-234" rx="27" ry="18"/>
<text text-anchor="middle" x="467.14" y="-230.3" font-family="Times,serif" font-size="14.00">attr</text>
</g>
<!-- libcap&#45;&gt;attr -->
<g id="edge32" class="edge">
<title>libcap&#45;&gt;attr</title>
<path fill="none" stroke="#8b4513" d="M467.14,-287.7C467.14,-279.98 467.14,-270.71 467.14,-262.11"/>
<polygon fill="#8b4513" stroke="#8b4513" points="470.64,-262.1 467.14,-252.1 463.64,-262.1 470.64,-262.1"/>
</g>
<!-- attr&#45;&gt;glibc -->
<g id="edge33" class="edge">
<title>attr&#45;&gt;glibc</title>
<path fill="none" stroke="#8b4513" d="M445.18,-223.39C439.07,-220.85 432.39,-218.21 426.14,-216 376.73,-198.54 318.34,-182.09 281.76,-172.28"/>
<polygon fill="#8b4513" stroke="#8b4513" points="282.62,-168.89 272.05,-169.7 280.81,-175.65 282.62,-168.89"/>
</g>
<!-- libunistring -->
<g id="node25" class="node">
<title>libunistring</title>
<ellipse fill="green" stroke="green" cx="612.14" cy="-882" rx="51.99" ry="18"/>
<text text-anchor="middle" x="612.14" y="-878.3" font-family="Times,serif" font-size="14.00">libunistring</text>
</g>
<!-- libidn2&#45;&gt;libunistring -->
<g id="edge35" class="edge">
<title>libidn2&#45;&gt;libunistring</title>
<path fill="none" stroke="#8b4513" d="M605.11,-1007.87C606.47,-983.67 608.97,-939.21 610.6,-910.39"/>
<polygon fill="#8b4513" stroke="#8b4513" points="614.1,-910.37 611.17,-900.19 607.12,-909.98 614.1,-910.37"/>
</g>
<!-- libunistring&#45;&gt;glibc -->
<g id="edge36" class="edge">
<title>libunistring&#45;&gt;glibc</title>
<path fill="none" stroke="#8b4513" d="M607.89,-863.63C601.76,-836.99 591.14,-784.36 591.14,-739 591.14,-739 591.14,-739 591.14,-305 591.14,-249.37 552.03,-242.53 503.14,-216 432.72,-177.78 337.75,-167.06 285.21,-164.09"/>
<polygon fill="#8b4513" stroke="#8b4513" points="285.14,-160.59 274.97,-163.58 284.79,-167.58 285.14,-160.59"/>
</g>
</g>
</svg>
