<?xml version="1.0" encoding="UTF-8" standalone="no"?>
<!DOCTYPE svg PUBLIC "-//W3C//DTD SVG 1.1//EN"
 "http://www.w3.org/Graphics/SVG/1.1/DTD/svg11.dtd">
<!-- Generated by graphviz version 2.44.0 (0)
 -->
<!-- Title: G Pages: 1 -->
<svg width="668pt" height="1556pt"
 viewBox="0.00 0.00 668.14 1556.00" xmlns="http://www.w3.org/2000/svg" xmlns:xlink="http://www.w3.org/1999/xlink">
<g id="graph0" class="graph" transform="scale(1 1) rotate(0) translate(4 1552)">
<title>G</title>
<polygon fill="white" stroke="transparent" points="-4,4 -4,-1552 664.14,-1552 664.14,4 -4,4"/>
<!-- START -->
<g id="node1" class="node">
<title>START</title>
<ellipse fill="red" stroke="red" cx="94.14" cy="-1530" rx="38.19" ry="18"/>
<text text-anchor="middle" x="94.14" y="-1526.3" font-family="Times,serif" font-size="14.00">START</text>
</g>
<!-- kbd -->
<g id="node2" class="node">
<title>kbd</title>
<ellipse fill="green" stroke="green" cx="94.14" cy="-1458" rx="27" ry="18"/>
<text text-anchor="middle" x="94.14" y="-1454.3" font-family="Times,serif" font-size="14.00">kbd</text>
</g>
<!-- START&#45;&gt;kbd -->
<g id="edge1" class="edge">
<title>START&#45;&gt;kbd</title>
<path fill="none" stroke="black" d="M94.14,-1511.7C94.14,-1503.98 94.14,-1494.71 94.14,-1486.11"/>
<polygon fill="black" stroke="black" points="97.64,-1486.1 94.14,-1476.1 90.64,-1486.1 97.64,-1486.1"/>
</g>
<!-- glibc -->
<g id="node3" class="node">
<title>glibc</title>
<ellipse fill="green" stroke="green" cx="246.14" cy="-162" rx="28.7" ry="18"/>
<text text-anchor="middle" x="246.14" y="-158.3" font-family="Times,serif" font-size="14.00">glibc</text>
</g>
<!-- kbd&#45;&gt;glibc -->
<g id="edge2" class="edge">
<title>kbd&#45;&gt;glibc</title>
<path fill="none" stroke="#8b4513" d="M80.6,-1442.09C59.74,-1417.52 22.14,-1366.14 22.14,-1315 22.14,-1315 22.14,-1315 22.14,-305 22.14,-260.27 34.58,-244.4 69.14,-216 109.01,-183.23 168.67,-170.72 207.5,-165.94"/>
<polygon fill="#8b4513" stroke="#8b4513" points="208.31,-169.37 217.87,-164.79 207.54,-162.42 208.31,-169.37"/>
</g>
<!-- pam -->
<g id="node9" class="node">
<title>pam</title>
<ellipse fill="green" stroke="green" cx="238.14" cy="-1386" rx="27" ry="18"/>
<text text-anchor="middle" x="238.14" y="-1382.3" font-family="Times,serif" font-size="14.00">pam</text>
</g>
<!-- kbd&#45;&gt;pam -->
<g id="edge8" class="edge">
<title>kbd&#45;&gt;pam</title>
<path fill="none" stroke="#8b4513" d="M115.39,-1446.67C139.74,-1434.83 179.86,-1415.33 207.57,-1401.86"/>
<polygon fill="#8b4513" stroke="#8b4513" points="209.34,-1404.89 216.81,-1397.37 206.28,-1398.6 209.34,-1404.89"/>
</g>
<!-- linux&#45;api&#45;headers&gt;=4.10 -->
<g id="node4" class="node">
<title>linux&#45;api&#45;headers&gt;=4.10</title>
<ellipse fill="green" stroke="green" cx="98.14" cy="-90" rx="98.28" ry="18"/>
<text text-anchor="middle" x="98.14" y="-86.3" font-family="Times,serif" font-size="14.00">linux&#45;api&#45;headers&gt;=4.10</text>
</g>
<!-- glibc&#45;&gt;linux&#45;api&#45;headers&gt;=4.10 -->
<g id="edge3" class="edge">
<title>glibc&#45;&gt;linux&#45;api&#45;headers&gt;=4.10</title>
<path fill="none" stroke="#8b4513" d="M223.98,-150.52C202.2,-140.22 168.37,-124.22 141.27,-111.4"/>
<polygon fill="#8b4513" stroke="#8b4513" points="142.53,-108.12 132,-107.01 139.54,-114.45 142.53,-108.12"/>
</g>
<!-- tzdata -->
<g id="node6" class="node">
<title>tzdata</title>
<ellipse fill="green" stroke="green" cx="246.14" cy="-90" rx="31.7" ry="18"/>
<text text-anchor="middle" x="246.14" y="-86.3" font-family="Times,serif" font-size="14.00">tzdata</text>
</g>
<!-- glibc&#45;&gt;tzdata -->
<g id="edge5" class="edge">
<title>glibc&#45;&gt;tzdata</title>
<path fill="none" stroke="#8b4513" d="M246.14,-143.7C246.14,-135.98 246.14,-126.71 246.14,-118.11"/>
<polygon fill="#8b4513" stroke="#8b4513" points="249.64,-118.1 246.14,-108.1 242.64,-118.1 249.64,-118.1"/>
</g>
<!-- filesystem -->
<g id="node7" class="node">
<title>filesystem</title>
<ellipse fill="green" stroke="green" cx="343.14" cy="-90" rx="46.59" ry="18"/>
<text text-anchor="middle" x="343.14" y="-86.3" font-family="Times,serif" font-size="14.00">filesystem</text>
</g>
<!-- glibc&#45;&gt;filesystem -->
<g id="edge6" class="edge">
<title>glibc&#45;&gt;filesystem</title>
<path fill="none" stroke="#8b4513" d="M264.39,-147.83C278.19,-137.88 297.42,-123.99 313.43,-112.44"/>
<polygon fill="#8b4513" stroke="#8b4513" points="315.88,-114.99 321.94,-106.3 311.78,-109.31 315.88,-114.99"/>
</g>
<!-- linux&#45;api&#45;headers -->
<g id="node5" class="node">
<title>linux&#45;api&#45;headers</title>
<ellipse fill="green" stroke="green" cx="98.14" cy="-18" rx="71.49" ry="18"/>
<text text-anchor="middle" x="98.14" y="-14.3" font-family="Times,serif" font-size="14.00">linux&#45;api&#45;headers</text>
</g>
<!-- linux&#45;api&#45;headers&gt;=4.10&#45;&gt;linux&#45;api&#45;headers -->
<g id="edge4" class="edge">
<title>linux&#45;api&#45;headers&gt;=4.10&#45;&gt;linux&#45;api&#45;headers</title>
<path fill="none" stroke="grey" d="M98.14,-71.7C98.14,-60.85 98.14,-46.92 98.14,-36.1"/>
</g>
<!-- iana&#45;etc -->
<g id="node8" class="node">
<title>iana&#45;etc</title>
<ellipse fill="green" stroke="green" cx="343.14" cy="-18" rx="38.19" ry="18"/>
<text text-anchor="middle" x="343.14" y="-14.3" font-family="Times,serif" font-size="14.00">iana&#45;etc</text>
</g>
<!-- filesystem&#45;&gt;iana&#45;etc -->
<g id="edge7" class="edge">
<title>filesystem&#45;&gt;iana&#45;etc</title>
<path fill="none" stroke="#8b4513" d="M343.14,-71.7C343.14,-63.98 343.14,-54.71 343.14,-46.11"/>
<polygon fill="#8b4513" stroke="#8b4513" points="346.64,-46.1 343.14,-36.1 339.64,-46.1 346.64,-46.1"/>
</g>
<!-- pam&#45;&gt;glibc -->
<g id="edge9" class="edge">
<title>pam&#45;&gt;glibc</title>
<path fill="none" stroke="#8b4513" d="M264.54,-1381.96C356.93,-1370.58 660.14,-1326.87 660.14,-1243 660.14,-1243 660.14,-1243 660.14,-305 660.14,-257.05 639.78,-241.45 599.14,-216 547.24,-183.5 365.1,-169.59 284.74,-164.94"/>
<polygon fill="#8b4513" stroke="#8b4513" points="284.73,-161.43 274.55,-164.37 284.34,-168.42 284.73,-161.43"/>
</g>
<!-- cracklib -->
<g id="node10" class="node">
<title>cracklib</title>
<ellipse fill="green" stroke="green" cx="102.14" cy="-306" rx="39.79" ry="18"/>
<text text-anchor="middle" x="102.14" y="-302.3" font-family="Times,serif" font-size="14.00">cracklib</text>
</g>
<!-- pam&#45;&gt;cracklib -->
<g id="edge10" class="edge">
<title>pam&#45;&gt;cracklib</title>
<path fill="none" stroke="#8b4513" d="M218.16,-1373.82C183.79,-1352.95 117.14,-1304.54 117.14,-1243 117.14,-1243 117.14,-1243 117.14,-449 117.14,-408.77 111.11,-362.49 106.7,-333.99"/>
<polygon fill="#8b4513" stroke="#8b4513" points="110.14,-333.31 105.1,-323.99 103.22,-334.41 110.14,-333.31"/>
</g>
<!-- libtirpc -->
<g id="node12" class="node">
<title>libtirpc</title>
<ellipse fill="green" stroke="green" cx="238.14" cy="-1314" rx="36.29" ry="18"/>
<text text-anchor="middle" x="238.14" y="-1310.3" font-family="Times,serif" font-size="14.00">libtirpc</text>
</g>
<!-- pam&#45;&gt;libtirpc -->
<g id="edge14" class="edge">
<title>pam&#45;&gt;libtirpc</title>
<path fill="none" stroke="#8b4513" d="M238.14,-1367.7C238.14,-1359.98 238.14,-1350.71 238.14,-1342.11"/>
<polygon fill="#8b4513" stroke="#8b4513" points="241.64,-1342.1 238.14,-1332.1 234.64,-1342.1 241.64,-1342.1"/>
</g>
<!-- pambase -->
<g id="node32" class="node">
<title>pambase</title>
<ellipse fill="green" stroke="green" cx="335.14" cy="-1314" rx="42.49" ry="18"/>
<text text-anchor="middle" x="335.14" y="-1310.3" font-family="Times,serif" font-size="14.00">pambase</text>
</g>
<!-- pam&#45;&gt;pambase -->
<g id="edge51" class="edge">
<title>pam&#45;&gt;pambase</title>
<path fill="none" stroke="#8b4513" d="M255.93,-1372.16C270,-1362.01 289.92,-1347.64 306.26,-1335.84"/>
<polygon fill="#8b4513" stroke="#8b4513" points="308.37,-1338.63 314.43,-1329.94 304.28,-1332.96 308.37,-1338.63"/>
</g>
<!-- cracklib&#45;&gt;glibc -->
<g id="edge11" class="edge">
<title>cracklib&#45;&gt;glibc</title>
<path fill="none" stroke="#8b4513" d="M90.46,-288.69C78.34,-269.58 63.21,-237.77 79.14,-216 108.33,-176.12 167.74,-165.51 207.25,-163.08"/>
<polygon fill="#8b4513" stroke="#8b4513" points="207.5,-166.58 217.33,-162.61 207.18,-159.58 207.5,-166.58"/>
</g>
<!-- zlib -->
<g id="node11" class="node">
<title>zlib</title>
<ellipse fill="green" stroke="green" cx="115.14" cy="-234" rx="27" ry="18"/>
<text text-anchor="middle" x="115.14" y="-230.3" font-family="Times,serif" font-size="14.00">zlib</text>
</g>
<!-- cracklib&#45;&gt;zlib -->
<g id="edge12" class="edge">
<title>cracklib&#45;&gt;zlib</title>
<path fill="none" stroke="#8b4513" d="M105.29,-288.05C106.72,-280.35 108.45,-271.03 110.06,-262.36"/>
<polygon fill="#8b4513" stroke="#8b4513" points="113.55,-262.75 111.93,-252.28 106.67,-261.47 113.55,-262.75"/>
</g>
<!-- zlib&#45;&gt;glibc -->
<g id="edge13" class="edge">
<title>zlib&#45;&gt;glibc</title>
<path fill="none" stroke="#8b4513" d="M135.61,-222.06C157.18,-210.54 191.37,-192.27 216.02,-179.1"/>
<polygon fill="#8b4513" stroke="#8b4513" points="217.78,-182.12 224.95,-174.32 214.48,-175.95 217.78,-182.12"/>
</g>
<!-- krb5 -->
<g id="node13" class="node">
<title>krb5</title>
<ellipse fill="green" stroke="green" cx="290.14" cy="-1242" rx="27.1" ry="18"/>
<text text-anchor="middle" x="290.14" y="-1238.3" font-family="Times,serif" font-size="14.00">krb5</text>
</g>
<!-- libtirpc&#45;&gt;krb5 -->
<g id="edge15" class="edge">
<title>libtirpc&#45;&gt;krb5</title>
<path fill="none" stroke="#8b4513" d="M250.2,-1296.76C256.79,-1287.89 265.08,-1276.74 272.39,-1266.89"/>
<polygon fill="#8b4513" stroke="#8b4513" points="275.35,-1268.78 278.5,-1258.67 269.73,-1264.61 275.35,-1268.78"/>
</g>
<!-- e2fsprogs -->
<g id="node14" class="node">
<title>e2fsprogs</title>
<ellipse fill="green" stroke="green" cx="358.14" cy="-1098" rx="44.69" ry="18"/>
<text text-anchor="middle" x="358.14" y="-1094.3" font-family="Times,serif" font-size="14.00">e2fsprogs</text>
</g>
<!-- krb5&#45;&gt;e2fsprogs -->
<g id="edge16" class="edge">
<title>krb5&#45;&gt;e2fsprogs</title>
<path fill="none" stroke="#8b4513" d="M296.6,-1224.35C303.77,-1206.28 315.93,-1176.7 328.14,-1152 332.62,-1142.95 337.93,-1133.28 342.82,-1124.71"/>
<polygon fill="#8b4513" stroke="#8b4513" points="345.93,-1126.33 347.92,-1115.93 339.88,-1122.82 345.93,-1126.33"/>
</g>
<!-- libldap -->
<g id="node24" class="node">
<title>libldap</title>
<ellipse fill="green" stroke="green" cx="372.14" cy="-1170" rx="35.19" ry="18"/>
<text text-anchor="middle" x="372.14" y="-1166.3" font-family="Times,serif" font-size="14.00">libldap</text>
</g>
<!-- krb5&#45;&gt;libldap -->
<g id="edge32" class="edge">
<title>krb5&#45;&gt;libldap</title>
<path fill="none" stroke="#8b4513" d="M306.34,-1227.17C317.94,-1217.27 333.77,-1203.75 347,-1192.46"/>
<polygon fill="#8b4513" stroke="#8b4513" points="349.51,-1194.92 354.84,-1185.77 344.96,-1189.6 349.51,-1194.92"/>
</g>
<!-- keyutils -->
<g id="node31" class="node">
<title>keyutils</title>
<ellipse fill="green" stroke="green" cx="271.14" cy="-810" rx="38.19" ry="18"/>
<text text-anchor="middle" x="271.14" y="-806.3" font-family="Times,serif" font-size="14.00">keyutils</text>
</g>
<!-- krb5&#45;&gt;keyutils -->
<g id="edge47" class="edge">
<title>krb5&#45;&gt;keyutils</title>
<path fill="none" stroke="#8b4513" d="M286.39,-1224.05C280.85,-1197.52 271.14,-1144.52 271.14,-1099 271.14,-1099 271.14,-1099 271.14,-953 271.14,-913 271.14,-866.65 271.14,-838.08"/>
<polygon fill="#8b4513" stroke="#8b4513" points="274.64,-838.05 271.14,-828.05 267.64,-838.05 274.64,-838.05"/>
</g>
<!-- sh -->
<g id="node15" class="node">
<title>sh</title>
<ellipse fill="green" stroke="green" cx="358.14" cy="-738" rx="27" ry="18"/>
<text text-anchor="middle" x="358.14" y="-734.3" font-family="Times,serif" font-size="14.00">sh</text>
</g>
<!-- e2fsprogs&#45;&gt;sh -->
<g id="edge17" class="edge">
<title>e2fsprogs&#45;&gt;sh</title>
<path fill="none" stroke="#8b4513" d="M355.97,-1079.98C352.76,-1053.37 347.14,-1000.25 347.14,-955 347.14,-955 347.14,-955 347.14,-881 347.14,-840.88 351.56,-794.57 354.8,-766.03"/>
<polygon fill="#8b4513" stroke="#8b4513" points="358.28,-766.36 355.97,-756.02 351.33,-765.54 358.28,-766.36"/>
</g>
<!-- libutil&#45;linux -->
<g id="node23" class="node">
<title>libutil&#45;linux</title>
<ellipse fill="green" stroke="green" cx="428.14" cy="-1026" rx="52.79" ry="18"/>
<text text-anchor="middle" x="428.14" y="-1022.3" font-family="Times,serif" font-size="14.00">libutil&#45;linux</text>
</g>
<!-- e2fsprogs&#45;&gt;libutil&#45;linux -->
<g id="edge31" class="edge">
<title>e2fsprogs&#45;&gt;libutil&#45;linux</title>
<path fill="none" stroke="#8b4513" d="M374.03,-1081.12C383.03,-1072.12 394.46,-1060.68 404.5,-1050.65"/>
<polygon fill="#8b4513" stroke="#8b4513" points="407.24,-1052.85 411.83,-1043.31 402.29,-1047.9 407.24,-1052.85"/>
</g>
<!-- bash -->
<g id="node16" class="node">
<title>bash</title>
<ellipse fill="green" stroke="green" cx="358.14" cy="-666" rx="27" ry="18"/>
<text text-anchor="middle" x="358.14" y="-662.3" font-family="Times,serif" font-size="14.00">bash</text>
</g>
<!-- sh&#45;&gt;bash -->
<g id="edge18" class="edge">
<title>sh&#45;&gt;bash</title>
<path fill="none" stroke="grey" d="M341.77,-723.5C336.59,-711.11 336.6,-692.84 341.78,-680.46"/>
</g>
<!-- sh&#45;&gt;bash -->
<g id="edge40" class="edge">
<title>sh&#45;&gt;bash</title>
<path fill="none" stroke="grey" d="M352.3,-720.41C351.1,-709.41 351.09,-695.03 352.26,-683.96"/>
</g>
<!-- sh&#45;&gt;bash -->
<g id="edge44" class="edge">
<title>sh&#45;&gt;bash</title>
<path fill="none" stroke="grey" d="M363.98,-720.41C365.18,-709.41 365.19,-695.03 364.02,-683.96"/>
</g>
<!-- sh&#45;&gt;bash -->
<g id="edge50" class="edge">
<title>sh&#45;&gt;bash</title>
<path fill="none" stroke="grey" d="M374.52,-723.5C379.69,-711.11 379.68,-692.84 374.5,-680.46"/>
</g>
<!-- bash&#45;&gt;glibc -->
<g id="edge29" class="edge">
<title>bash&#45;&gt;glibc</title>
<path fill="none" stroke="#8b4513" d="M335.36,-656.01C293.4,-637.77 208.14,-592.21 208.14,-523 208.14,-523 208.14,-523 208.14,-305 208.14,-263.41 223.54,-217.22 234.74,-189.14"/>
<polygon fill="#8b4513" stroke="#8b4513" points="238.07,-190.24 238.63,-179.66 231.59,-187.58 238.07,-190.24"/>
</g>
<!-- readline&gt;=7.0 -->
<g id="node17" class="node">
<title>readline&gt;=7.0</title>
<ellipse fill="green" stroke="green" cx="358.14" cy="-594" rx="61.19" ry="18"/>
<text text-anchor="middle" x="358.14" y="-590.3" font-family="Times,serif" font-size="14.00">readline&gt;=7.0</text>
</g>
<!-- bash&#45;&gt;readline&gt;=7.0 -->
<g id="edge19" class="edge">
<title>bash&#45;&gt;readline&gt;=7.0</title>
<path fill="none" stroke="#8b4513" d="M358.14,-647.7C358.14,-639.98 358.14,-630.71 358.14,-622.11"/>
<polygon fill="#8b4513" stroke="#8b4513" points="361.64,-622.1 358.14,-612.1 354.64,-622.1 361.64,-622.1"/>
</g>
<!-- ncurses -->
<g id="node19" class="node">
<title>ncurses</title>
<ellipse fill="green" stroke="green" cx="419.14" cy="-378" rx="37.09" ry="18"/>
<text text-anchor="middle" x="419.14" y="-374.3" font-family="Times,serif" font-size="14.00">ncurses</text>
</g>
<!-- bash&#45;&gt;ncurses -->
<g id="edge30" class="edge">
<title>bash&#45;&gt;ncurses</title>
<path fill="none" stroke="#8b4513" d="M378.91,-654.27C394.68,-645.09 415.69,-630.45 428.14,-612 465.23,-557.04 458.4,-533.73 467.14,-468 469.25,-452.14 472.9,-446.93 467.14,-432 462.65,-420.35 454.28,-409.68 445.78,-401.01"/>
<polygon fill="#8b4513" stroke="#8b4513" points="448.01,-398.31 438.36,-393.94 443.18,-403.37 448.01,-398.31"/>
</g>
<!-- readline -->
<g id="node18" class="node">
<title>readline</title>
<ellipse fill="green" stroke="green" cx="358.14" cy="-522" rx="38.99" ry="18"/>
<text text-anchor="middle" x="358.14" y="-518.3" font-family="Times,serif" font-size="14.00">readline</text>
</g>
<!-- readline&gt;=7.0&#45;&gt;readline -->
<g id="edge20" class="edge">
<title>readline&gt;=7.0&#45;&gt;readline</title>
<path fill="none" stroke="grey" d="M358.14,-575.7C358.14,-564.85 358.14,-550.92 358.14,-540.1"/>
</g>
<!-- readline&#45;&gt;glibc -->
<g id="edge21" class="edge">
<title>readline&#45;&gt;glibc</title>
<path fill="none" stroke="#8b4513" d="M327.18,-510.97C306.5,-502.68 280.39,-488.85 265.14,-468 241.26,-435.36 246.14,-419.45 246.14,-379 246.14,-379 246.14,-379 246.14,-305 246.14,-265 246.14,-218.65 246.14,-190.08"/>
<polygon fill="#8b4513" stroke="#8b4513" points="249.64,-190.05 246.14,-180.05 242.64,-190.05 249.64,-190.05"/>
</g>
<!-- readline&#45;&gt;ncurses -->
<g id="edge22" class="edge">
<title>readline&#45;&gt;ncurses</title>
<path fill="none" stroke="#8b4513" d="M390.53,-511.9C411.86,-504.04 438.16,-490.33 451.14,-468 463.11,-447.41 451.24,-421.58 438.71,-403.06"/>
<polygon fill="#8b4513" stroke="#8b4513" points="441.49,-400.93 432.8,-394.86 435.81,-405.02 441.49,-400.93"/>
</g>
<!-- libncursesw.so=6&#45;64 -->
<g id="node22" class="node">
<title>libncursesw.so=6&#45;64</title>
<ellipse fill="green" stroke="green" cx="358.14" cy="-450" rx="83.69" ry="18"/>
<text text-anchor="middle" x="358.14" y="-446.3" font-family="Times,serif" font-size="14.00">libncursesw.so=6&#45;64</text>
</g>
<!-- readline&#45;&gt;libncursesw.so=6&#45;64 -->
<g id="edge27" class="edge">
<title>readline&#45;&gt;libncursesw.so=6&#45;64</title>
<path fill="none" stroke="#8b4513" d="M358.14,-503.7C358.14,-495.98 358.14,-486.71 358.14,-478.11"/>
<polygon fill="#8b4513" stroke="#8b4513" points="361.64,-478.1 358.14,-468.1 354.64,-478.1 361.64,-478.1"/>
</g>
<!-- ncurses&#45;&gt;glibc -->
<g id="edge23" class="edge">
<title>ncurses&#45;&gt;glibc</title>
<path fill="none" stroke="#8b4513" d="M404.48,-360.99C395.07,-350.59 382.69,-336.66 372.14,-324 332.47,-276.4 288.31,-218.84 264.23,-187.05"/>
<polygon fill="#8b4513" stroke="#8b4513" points="266.81,-184.66 257.99,-178.8 261.23,-188.88 266.81,-184.66"/>
</g>
<!-- gcc&#45;libs -->
<g id="node20" class="node">
<title>gcc&#45;libs</title>
<ellipse fill="green" stroke="green" cx="419.14" cy="-306" rx="38.19" ry="18"/>
<text text-anchor="middle" x="419.14" y="-302.3" font-family="Times,serif" font-size="14.00">gcc&#45;libs</text>
</g>
<!-- ncurses&#45;&gt;gcc&#45;libs -->
<g id="edge24" class="edge">
<title>ncurses&#45;&gt;gcc&#45;libs</title>
<path fill="none" stroke="#8b4513" d="M419.14,-359.7C419.14,-351.98 419.14,-342.71 419.14,-334.11"/>
<polygon fill="#8b4513" stroke="#8b4513" points="422.64,-334.1 419.14,-324.1 415.64,-334.1 422.64,-334.1"/>
</g>
<!-- glibc&gt;=2.27 -->
<g id="node21" class="node">
<title>glibc&gt;=2.27</title>
<ellipse fill="green" stroke="green" cx="393.14" cy="-234" rx="54.69" ry="18"/>
<text text-anchor="middle" x="393.14" y="-230.3" font-family="Times,serif" font-size="14.00">glibc&gt;=2.27</text>
</g>
<!-- gcc&#45;libs&#45;&gt;glibc&gt;=2.27 -->
<g id="edge25" class="edge">
<title>gcc&#45;libs&#45;&gt;glibc&gt;=2.27</title>
<path fill="none" stroke="#8b4513" d="M412.85,-288.05C409.92,-280.18 406.37,-270.62 403.09,-261.79"/>
<polygon fill="#8b4513" stroke="#8b4513" points="406.32,-260.43 399.56,-252.28 399.76,-262.87 406.32,-260.43"/>
</g>
<!-- glibc&gt;=2.27&#45;&gt;glibc -->
<g id="edge26" class="edge">
<title>glibc&gt;=2.27&#45;&gt;glibc</title>
<path fill="none" stroke="grey" d="M363.39,-218.83C335.21,-205.41 293.52,-185.56 268.19,-173.5"/>
</g>
<!-- libncursesw.so=6&#45;64&#45;&gt;ncurses -->
<g id="edge28" class="edge">
<title>libncursesw.so=6&#45;64&#45;&gt;ncurses</title>
<path fill="none" stroke="grey" d="M372.91,-432.05C382.78,-420.73 395.68,-405.92 405.35,-394.83"/>
</g>
<!-- libldap&#45;&gt;e2fsprogs -->
<g id="edge46" class="edge">
<title>libldap&#45;&gt;e2fsprogs</title>
<path fill="none" stroke="#8b4513" d="M368.75,-1152.05C367.21,-1144.35 365.35,-1135.03 363.61,-1126.36"/>
<polygon fill="#8b4513" stroke="#8b4513" points="366.99,-1125.39 361.6,-1116.28 360.13,-1126.77 366.99,-1125.39"/>
</g>
<!-- libsasl -->
<g id="node25" class="node">
<title>libsasl</title>
<ellipse fill="green" stroke="green" cx="500.14" cy="-1098" rx="33.29" ry="18"/>
<text text-anchor="middle" x="500.14" y="-1094.3" font-family="Times,serif" font-size="14.00">libsasl</text>
</g>
<!-- libldap&#45;&gt;libsasl -->
<g id="edge33" class="edge">
<title>libldap&#45;&gt;libsasl</title>
<path fill="none" stroke="#8b4513" d="M395.32,-1156.32C415.84,-1145.1 445.96,-1128.63 468.65,-1116.22"/>
<polygon fill="#8b4513" stroke="#8b4513" points="470.47,-1119.22 477.56,-1111.35 467.11,-1113.07 470.47,-1119.22"/>
</g>
<!-- openssl -->
<g id="node26" class="node">
<title>openssl</title>
<ellipse fill="green" stroke="green" cx="536.14" cy="-1026" rx="37.09" ry="18"/>
<text text-anchor="middle" x="536.14" y="-1022.3" font-family="Times,serif" font-size="14.00">openssl</text>
</g>
<!-- libsasl&#45;&gt;openssl -->
<g id="edge34" class="edge">
<title>libsasl&#45;&gt;openssl</title>
<path fill="none" stroke="#8b4513" d="M508.67,-1080.41C512.87,-1072.25 518.03,-1062.22 522.74,-1053.07"/>
<polygon fill="#8b4513" stroke="#8b4513" points="525.96,-1054.45 527.42,-1043.96 519.73,-1051.25 525.96,-1054.45"/>
</g>
<!-- perl -->
<g id="node27" class="node">
<title>perl</title>
<ellipse fill="green" stroke="green" cx="536.14" cy="-954" rx="27" ry="18"/>
<text text-anchor="middle" x="536.14" y="-950.3" font-family="Times,serif" font-size="14.00">perl</text>
</g>
<!-- openssl&#45;&gt;perl -->
<g id="edge35" class="edge">
<title>openssl&#45;&gt;perl</title>
<path fill="none" stroke="#8b4513" d="M536.14,-1007.7C536.14,-999.98 536.14,-990.71 536.14,-982.11"/>
<polygon fill="#8b4513" stroke="#8b4513" points="539.64,-982.1 536.14,-972.1 532.64,-982.1 539.64,-982.1"/>
</g>
<!-- perl&#45;&gt;glibc -->
<g id="edge45" class="edge">
<title>perl&#45;&gt;glibc</title>
<path fill="none" stroke="#8b4513" d="M556.61,-942.05C571.8,-932.84 591.79,-918.27 603.14,-900 624.49,-865.64 622.14,-851.45 622.14,-811 622.14,-811 622.14,-811 622.14,-305 622.14,-257.79 603.65,-241.84 564.14,-216 518.66,-186.25 359.19,-171.14 284.84,-165.57"/>
<polygon fill="#8b4513" stroke="#8b4513" points="284.74,-162.06 274.51,-164.82 284.23,-169.04 284.74,-162.06"/>
</g>
<!-- gdbm&gt;=1.17 -->
<g id="node28" class="node">
<title>gdbm&gt;=1.17</title>
<ellipse fill="green" stroke="green" cx="536.14" cy="-882" rx="57.69" ry="18"/>
<text text-anchor="middle" x="536.14" y="-878.3" font-family="Times,serif" font-size="14.00">gdbm&gt;=1.17</text>
</g>
<!-- perl&#45;&gt;gdbm&gt;=1.17 -->
<g id="edge36" class="edge">
<title>perl&#45;&gt;gdbm&gt;=1.17</title>
<path fill="none" stroke="#8b4513" d="M536.14,-935.7C536.14,-927.98 536.14,-918.71 536.14,-910.11"/>
<polygon fill="#8b4513" stroke="#8b4513" points="539.64,-910.1 536.14,-900.1 532.64,-910.1 539.64,-910.1"/>
</g>
<!-- db -->
<g id="node30" class="node">
<title>db</title>
<ellipse fill="green" stroke="green" cx="450.14" cy="-810" rx="27" ry="18"/>
<text text-anchor="middle" x="450.14" y="-806.3" font-family="Times,serif" font-size="14.00">db</text>
</g>
<!-- perl&#45;&gt;db -->
<g id="edge41" class="edge">
<title>perl&#45;&gt;db</title>
<path fill="none" stroke="#8b4513" d="M515.68,-942.05C500.48,-932.84 480.49,-918.27 469.14,-900 457.57,-881.38 452.96,-856.79 451.17,-838.18"/>
<polygon fill="#8b4513" stroke="#8b4513" points="454.64,-837.72 450.4,-828.01 447.66,-838.24 454.64,-837.72"/>
</g>
<!-- gdbm -->
<g id="node29" class="node">
<title>gdbm</title>
<ellipse fill="green" stroke="green" cx="536.14" cy="-810" rx="31.4" ry="18"/>
<text text-anchor="middle" x="536.14" y="-806.3" font-family="Times,serif" font-size="14.00">gdbm</text>
</g>
<!-- gdbm&gt;=1.17&#45;&gt;gdbm -->
<g id="edge37" class="edge">
<title>gdbm&gt;=1.17&#45;&gt;gdbm</title>
<path fill="none" stroke="grey" d="M536.14,-863.7C536.14,-852.85 536.14,-838.92 536.14,-828.1"/>
</g>
<!-- gdbm&#45;&gt;glibc -->
<g id="edge38" class="edge">
<title>gdbm&#45;&gt;glibc</title>
<path fill="none" stroke="#8b4513" d="M545.62,-792.56C559.61,-766.72 584.14,-714.62 584.14,-667 584.14,-667 584.14,-667 584.14,-305 584.14,-176.56 374.12,-162.38 285.18,-162.13"/>
<polygon fill="#8b4513" stroke="#8b4513" points="284.95,-158.63 274.96,-162.16 284.97,-165.63 284.95,-158.63"/>
</g>
<!-- gdbm&#45;&gt;sh -->
<g id="edge39" class="edge">
<title>gdbm&#45;&gt;sh</title>
<path fill="none" stroke="#8b4513" d="M511.02,-799.12C479.44,-786.7 425.2,-765.37 390.54,-751.74"/>
<polygon fill="#8b4513" stroke="#8b4513" points="391.47,-748.35 380.88,-747.94 388.91,-754.86 391.47,-748.35"/>
</g>
<!-- db&#45;&gt;sh -->
<g id="edge43" class="edge">
<title>db&#45;&gt;sh</title>
<path fill="none" stroke="#8b4513" d="M432.84,-795.83C418.96,-785.27 399.28,-770.3 383.6,-758.37"/>
<polygon fill="#8b4513" stroke="#8b4513" points="385.45,-755.38 375.37,-752.11 381.21,-760.95 385.45,-755.38"/>
</g>
<!-- db&#45;&gt;gcc&#45;libs -->
<g id="edge42" class="edge">
<title>db&#45;&gt;gcc&#45;libs</title>
<path fill="none" stroke="#8b4513" d="M467.3,-795.74C494.92,-772.77 546.14,-722.65 546.14,-667 546.14,-667 546.14,-667 546.14,-449 546.14,-392.66 489.91,-348.43 452.28,-325.13"/>
<polygon fill="#8b4513" stroke="#8b4513" points="454,-322.08 443.63,-319.94 450.4,-328.09 454,-322.08"/>
</g>
<!-- keyutils&#45;&gt;glibc -->
<g id="edge48" class="edge">
<title>keyutils&#45;&gt;glibc</title>
<path fill="none" stroke="#8b4513" d="M251.19,-794.45C221.75,-771.14 170.14,-722.36 170.14,-667 170.14,-667 170.14,-667 170.14,-305 170.14,-258.12 202.74,-211.74 225.24,-185.31"/>
<polygon fill="#8b4513" stroke="#8b4513" points="227.89,-187.6 231.85,-177.77 222.62,-182.98 227.89,-187.6"/>
</g>
<!-- keyutils&#45;&gt;sh -->
<g id="edge49" class="edge">
<title>keyutils&#45;&gt;sh</title>
<path fill="none" stroke="#8b4513" d="M289.59,-794.15C302.43,-783.82 319.69,-769.93 333.68,-758.68"/>
<polygon fill="#8b4513" stroke="#8b4513" points="335.89,-761.4 341.48,-752.4 331.5,-755.95 335.89,-761.4"/>
</g>
</g>
</svg>
