<?xml version="1.0" encoding="UTF-8" standalone="no"?>
<!DOCTYPE svg PUBLIC "-//W3C//DTD SVG 1.1//EN"
 "http://www.w3.org/Graphics/SVG/1.1/DTD/svg11.dtd">
<!-- Generated by graphviz version 2.44.0 (0)
 -->
<!-- Title: G Pages: 1 -->
<svg width="611pt" height="1196pt"
 viewBox="0.00 0.00 611.14 1196.00" xmlns="http://www.w3.org/2000/svg" xmlns:xlink="http://www.w3.org/1999/xlink">
<g id="graph0" class="graph" transform="scale(1 1) rotate(0) translate(4 1192)">
<title>G</title>
<polygon fill="white" stroke="transparent" points="-4,4 -4,-1192 607.14,-1192 607.14,4 -4,4"/>
<!-- START -->
<g id="node1" class="node">
<title>START</title>
<ellipse fill="red" stroke="red" cx="210.14" cy="-1170" rx="38.19" ry="18"/>
<text text-anchor="middle" x="210.14" y="-1166.3" font-family="Times,serif" font-size="14.00">START</text>
</g>
<!-- kmod -->
<g id="node2" class="node">
<title>kmod</title>
<ellipse fill="green" stroke="green" cx="210.14" cy="-1098" rx="31.7" ry="18"/>
<text text-anchor="middle" x="210.14" y="-1094.3" font-family="Times,serif" font-size="14.00">kmod</text>
</g>
<!-- START&#45;&gt;kmod -->
<g id="edge1" class="edge">
<title>START&#45;&gt;kmod</title>
<path fill="none" stroke="black" d="M210.14,-1151.7C210.14,-1143.98 210.14,-1134.71 210.14,-1126.11"/>
<polygon fill="black" stroke="black" points="213.64,-1126.1 210.14,-1116.1 206.64,-1126.1 213.64,-1126.1"/>
</g>
<!-- glibc -->
<g id="node3" class="node">
<title>glibc</title>
<ellipse fill="green" stroke="green" cx="246.14" cy="-162" rx="28.7" ry="18"/>
<text text-anchor="middle" x="246.14" y="-158.3" font-family="Times,serif" font-size="14.00">glibc</text>
</g>
<!-- kmod&#45;&gt;glibc -->
<g id="edge2" class="edge">
<title>kmod&#45;&gt;glibc</title>
<path fill="none" stroke="#8b4513" d="M191.9,-1083.04C163.8,-1059.79 113.14,-1010.23 113.14,-955 113.14,-955 113.14,-955 113.14,-305 113.14,-245.59 175.93,-200.78 215.23,-178.56"/>
<polygon fill="#8b4513" stroke="#8b4513" points="217.09,-181.53 224.18,-173.65 213.73,-175.39 217.09,-181.53"/>
</g>
<!-- zlib -->
<g id="node9" class="node">
<title>zlib</title>
<ellipse fill="green" stroke="green" cx="172.14" cy="-954" rx="27" ry="18"/>
<text text-anchor="middle" x="172.14" y="-950.3" font-family="Times,serif" font-size="14.00">zlib</text>
</g>
<!-- kmod&#45;&gt;zlib -->
<g id="edge8" class="edge">
<title>kmod&#45;&gt;zlib</title>
<path fill="none" stroke="#8b4513" d="M205.63,-1080.15C199.12,-1055.81 187.01,-1010.57 179.28,-981.67"/>
<polygon fill="#8b4513" stroke="#8b4513" points="182.61,-980.58 176.64,-971.82 175.85,-982.39 182.61,-980.58"/>
</g>
<!-- openssl -->
<g id="node10" class="node">
<title>openssl</title>
<ellipse fill="green" stroke="green" cx="259.14" cy="-1026" rx="37.09" ry="18"/>
<text text-anchor="middle" x="259.14" y="-1022.3" font-family="Times,serif" font-size="14.00">openssl</text>
</g>
<!-- kmod&#45;&gt;openssl -->
<g id="edge10" class="edge">
<title>kmod&#45;&gt;openssl</title>
<path fill="none" stroke="#8b4513" d="M221.26,-1081.12C227.38,-1072.38 235.09,-1061.35 241.97,-1051.54"/>
<polygon fill="#8b4513" stroke="#8b4513" points="244.86,-1053.51 247.73,-1043.31 239.12,-1049.49 244.86,-1053.51"/>
</g>
<!-- xz -->
<g id="node23" class="node">
<title>xz</title>
<ellipse fill="green" stroke="green" cx="416.14" cy="-882" rx="27" ry="18"/>
<text text-anchor="middle" x="416.14" y="-878.3" font-family="Times,serif" font-size="14.00">xz</text>
</g>
<!-- kmod&#45;&gt;xz -->
<g id="edge33" class="edge">
<title>kmod&#45;&gt;xz</title>
<path fill="none" stroke="#8b4513" d="M235.56,-1086.7C255.94,-1077.58 284.46,-1062.81 305.14,-1044 349.45,-1003.7 385.4,-942.49 403.47,-908.32"/>
<polygon fill="#8b4513" stroke="#8b4513" points="406.58,-909.93 408.09,-899.44 400.37,-906.7 406.58,-909.93"/>
</g>
<!-- linux&#45;api&#45;headers&gt;=4.10 -->
<g id="node4" class="node">
<title>linux&#45;api&#45;headers&gt;=4.10</title>
<ellipse fill="green" stroke="green" cx="98.14" cy="-90" rx="98.28" ry="18"/>
<text text-anchor="middle" x="98.14" y="-86.3" font-family="Times,serif" font-size="14.00">linux&#45;api&#45;headers&gt;=4.10</text>
</g>
<!-- glibc&#45;&gt;linux&#45;api&#45;headers&gt;=4.10 -->
<g id="edge3" class="edge">
<title>glibc&#45;&gt;linux&#45;api&#45;headers&gt;=4.10</title>
<path fill="none" stroke="#8b4513" d="M223.98,-150.52C202.2,-140.22 168.37,-124.22 141.27,-111.4"/>
<polygon fill="#8b4513" stroke="#8b4513" points="142.53,-108.12 132,-107.01 139.54,-114.45 142.53,-108.12"/>
</g>
<!-- tzdata -->
<g id="node6" class="node">
<title>tzdata</title>
<ellipse fill="green" stroke="green" cx="246.14" cy="-90" rx="31.7" ry="18"/>
<text text-anchor="middle" x="246.14" y="-86.3" font-family="Times,serif" font-size="14.00">tzdata</text>
</g>
<!-- glibc&#45;&gt;tzdata -->
<g id="edge5" class="edge">
<title>glibc&#45;&gt;tzdata</title>
<path fill="none" stroke="#8b4513" d="M246.14,-143.7C246.14,-135.98 246.14,-126.71 246.14,-118.11"/>
<polygon fill="#8b4513" stroke="#8b4513" points="249.64,-118.1 246.14,-108.1 242.64,-118.1 249.64,-118.1"/>
</g>
<!-- filesystem -->
<g id="node7" class="node">
<title>filesystem</title>
<ellipse fill="green" stroke="green" cx="343.14" cy="-90" rx="46.59" ry="18"/>
<text text-anchor="middle" x="343.14" y="-86.3" font-family="Times,serif" font-size="14.00">filesystem</text>
</g>
<!-- glibc&#45;&gt;filesystem -->
<g id="edge6" class="edge">
<title>glibc&#45;&gt;filesystem</title>
<path fill="none" stroke="#8b4513" d="M264.39,-147.83C278.19,-137.88 297.42,-123.99 313.43,-112.44"/>
<polygon fill="#8b4513" stroke="#8b4513" points="315.88,-114.99 321.94,-106.3 311.78,-109.31 315.88,-114.99"/>
</g>
<!-- linux&#45;api&#45;headers -->
<g id="node5" class="node">
<title>linux&#45;api&#45;headers</title>
<ellipse fill="green" stroke="green" cx="98.14" cy="-18" rx="71.49" ry="18"/>
<text text-anchor="middle" x="98.14" y="-14.3" font-family="Times,serif" font-size="14.00">linux&#45;api&#45;headers</text>
</g>
<!-- linux&#45;api&#45;headers&gt;=4.10&#45;&gt;linux&#45;api&#45;headers -->
<g id="edge4" class="edge">
<title>linux&#45;api&#45;headers&gt;=4.10&#45;&gt;linux&#45;api&#45;headers</title>
<path fill="none" stroke="grey" d="M98.14,-71.7C98.14,-60.85 98.14,-46.92 98.14,-36.1"/>
</g>
<!-- iana&#45;etc -->
<g id="node8" class="node">
<title>iana&#45;etc</title>
<ellipse fill="green" stroke="green" cx="343.14" cy="-18" rx="38.19" ry="18"/>
<text text-anchor="middle" x="343.14" y="-14.3" font-family="Times,serif" font-size="14.00">iana&#45;etc</text>
</g>
<!-- filesystem&#45;&gt;iana&#45;etc -->
<g id="edge7" class="edge">
<title>filesystem&#45;&gt;iana&#45;etc</title>
<path fill="none" stroke="#8b4513" d="M343.14,-71.7C343.14,-63.98 343.14,-54.71 343.14,-46.11"/>
<polygon fill="#8b4513" stroke="#8b4513" points="346.64,-46.1 343.14,-36.1 339.64,-46.1 346.64,-46.1"/>
</g>
<!-- zlib&#45;&gt;glibc -->
<g id="edge9" class="edge">
<title>zlib&#45;&gt;glibc</title>
<path fill="none" stroke="#8b4513" d="M167.99,-936.07C161.87,-909.57 151.14,-856.61 151.14,-811 151.14,-811 151.14,-811 151.14,-305 151.14,-254.79 192.68,-208.89 220.83,-183.56"/>
<polygon fill="#8b4513" stroke="#8b4513" points="223.48,-185.88 228.72,-176.67 218.88,-180.61 223.48,-185.88"/>
</g>
<!-- perl -->
<g id="node11" class="node">
<title>perl</title>
<ellipse fill="green" stroke="green" cx="268.14" cy="-954" rx="27" ry="18"/>
<text text-anchor="middle" x="268.14" y="-950.3" font-family="Times,serif" font-size="14.00">perl</text>
</g>
<!-- openssl&#45;&gt;perl -->
<g id="edge11" class="edge">
<title>openssl&#45;&gt;perl</title>
<path fill="none" stroke="#8b4513" d="M261.37,-1007.7C262.36,-999.98 263.55,-990.71 264.66,-982.11"/>
<polygon fill="#8b4513" stroke="#8b4513" points="268.14,-982.47 265.94,-972.1 261.2,-981.58 268.14,-982.47"/>
</g>
<!-- perl&#45;&gt;glibc -->
<g id="edge32" class="edge">
<title>perl&#45;&gt;glibc</title>
<path fill="none" stroke="#8b4513" d="M248.97,-940.97C235.47,-931.48 218.1,-917.04 208.14,-900 187.74,-865.08 189.14,-851.45 189.14,-811 189.14,-811 189.14,-811 189.14,-305 189.14,-261.09 212.91,-214.67 229.75,-187.3"/>
<polygon fill="#8b4513" stroke="#8b4513" points="232.75,-189.1 235.15,-178.78 226.84,-185.35 232.75,-189.1"/>
</g>
<!-- gdbm&gt;=1.17 -->
<g id="node12" class="node">
<title>gdbm&gt;=1.17</title>
<ellipse fill="green" stroke="green" cx="275.14" cy="-882" rx="57.69" ry="18"/>
<text text-anchor="middle" x="275.14" y="-878.3" font-family="Times,serif" font-size="14.00">gdbm&gt;=1.17</text>
</g>
<!-- perl&#45;&gt;gdbm&gt;=1.17 -->
<g id="edge12" class="edge">
<title>perl&#45;&gt;gdbm&gt;=1.17</title>
<path fill="none" stroke="#8b4513" d="M269.87,-935.7C270.64,-927.98 271.57,-918.71 272.43,-910.11"/>
<polygon fill="#8b4513" stroke="#8b4513" points="275.92,-910.4 273.43,-900.1 268.95,-909.71 275.92,-910.4"/>
</g>
<!-- db -->
<g id="node22" class="node">
<title>db</title>
<ellipse fill="green" stroke="green" cx="361.14" cy="-810" rx="27" ry="18"/>
<text text-anchor="middle" x="361.14" y="-806.3" font-family="Times,serif" font-size="14.00">db</text>
</g>
<!-- perl&#45;&gt;db -->
<g id="edge29" class="edge">
<title>perl&#45;&gt;db</title>
<path fill="none" stroke="#8b4513" d="M289.7,-943.11C306.6,-934.22 329.33,-919.57 342.14,-900 354.15,-881.66 358.73,-857.05 360.39,-838.36"/>
<polygon fill="#8b4513" stroke="#8b4513" points="363.9,-838.34 361.08,-828.13 356.92,-837.88 363.9,-838.34"/>
</g>
<!-- gdbm -->
<g id="node13" class="node">
<title>gdbm</title>
<ellipse fill="green" stroke="green" cx="275.14" cy="-810" rx="31.4" ry="18"/>
<text text-anchor="middle" x="275.14" y="-806.3" font-family="Times,serif" font-size="14.00">gdbm</text>
</g>
<!-- gdbm&gt;=1.17&#45;&gt;gdbm -->
<g id="edge13" class="edge">
<title>gdbm&gt;=1.17&#45;&gt;gdbm</title>
<path fill="none" stroke="grey" d="M275.14,-863.7C275.14,-852.85 275.14,-838.92 275.14,-828.1"/>
</g>
<!-- gdbm&#45;&gt;glibc -->
<g id="edge14" class="edge">
<title>gdbm&#45;&gt;glibc</title>
<path fill="none" stroke="#8b4513" d="M265.66,-792.56C251.67,-766.72 227.14,-714.62 227.14,-667 227.14,-667 227.14,-667 227.14,-305 227.14,-264.64 234.78,-218.39 240.37,-189.94"/>
<polygon fill="#8b4513" stroke="#8b4513" points="243.83,-190.45 242.39,-179.95 236.97,-189.06 243.83,-190.45"/>
</g>
<!-- sh -->
<g id="node14" class="node">
<title>sh</title>
<ellipse fill="green" stroke="green" cx="358.14" cy="-738" rx="27" ry="18"/>
<text text-anchor="middle" x="358.14" y="-734.3" font-family="Times,serif" font-size="14.00">sh</text>
</g>
<!-- gdbm&#45;&gt;sh -->
<g id="edge15" class="edge">
<title>gdbm&#45;&gt;sh</title>
<path fill="none" stroke="#8b4513" d="M292.34,-794.5C304.45,-784.28 320.82,-770.47 334.21,-759.18"/>
<polygon fill="#8b4513" stroke="#8b4513" points="336.7,-761.66 342.09,-752.54 332.19,-756.31 336.7,-761.66"/>
</g>
<!-- bash -->
<g id="node15" class="node">
<title>bash</title>
<ellipse fill="green" stroke="green" cx="358.14" cy="-666" rx="27" ry="18"/>
<text text-anchor="middle" x="358.14" y="-662.3" font-family="Times,serif" font-size="14.00">bash</text>
</g>
<!-- sh&#45;&gt;bash -->
<g id="edge16" class="edge">
<title>sh&#45;&gt;bash</title>
<path fill="none" stroke="grey" d="M352.3,-720.41C351.1,-709.41 351.09,-695.03 352.26,-683.96"/>
</g>
<!-- sh&#45;&gt;bash -->
<g id="edge35" class="edge">
<title>sh&#45;&gt;bash</title>
<path fill="none" stroke="grey" d="M363.98,-720.41C365.18,-709.41 365.19,-695.03 364.02,-683.96"/>
</g>
<!-- bash&#45;&gt;glibc -->
<g id="edge27" class="edge">
<title>bash&#45;&gt;glibc</title>
<path fill="none" stroke="#8b4513" d="M336.94,-654.71C320.59,-645.69 298.72,-631.04 286.14,-612 263.73,-578.09 265.14,-563.64 265.14,-523 265.14,-523 265.14,-523 265.14,-305 265.14,-264.64 257.51,-218.39 251.92,-189.94"/>
<polygon fill="#8b4513" stroke="#8b4513" points="255.31,-189.06 249.9,-179.95 248.45,-190.45 255.31,-189.06"/>
</g>
<!-- readline&gt;=7.0 -->
<g id="node16" class="node">
<title>readline&gt;=7.0</title>
<ellipse fill="green" stroke="green" cx="356.14" cy="-594" rx="61.19" ry="18"/>
<text text-anchor="middle" x="356.14" y="-590.3" font-family="Times,serif" font-size="14.00">readline&gt;=7.0</text>
</g>
<!-- bash&#45;&gt;readline&gt;=7.0 -->
<g id="edge17" class="edge">
<title>bash&#45;&gt;readline&gt;=7.0</title>
<path fill="none" stroke="#8b4513" d="M357.65,-647.7C357.43,-639.98 357.16,-630.71 356.92,-622.11"/>
<polygon fill="#8b4513" stroke="#8b4513" points="360.41,-622 356.63,-612.1 353.42,-622.2 360.41,-622"/>
</g>
<!-- ncurses -->
<g id="node18" class="node">
<title>ncurses</title>
<ellipse fill="green" stroke="green" cx="449.14" cy="-378" rx="37.09" ry="18"/>
<text text-anchor="middle" x="449.14" y="-374.3" font-family="Times,serif" font-size="14.00">ncurses</text>
</g>
<!-- bash&#45;&gt;ncurses -->
<g id="edge28" class="edge">
<title>bash&#45;&gt;ncurses</title>
<path fill="none" stroke="#8b4513" d="M377.19,-653.21C418.28,-626.43 514.11,-556.46 546.14,-468 551.59,-452.96 554.3,-445.76 546.14,-432 534.14,-411.77 511.39,-398.76 490.94,-390.69"/>
<polygon fill="#8b4513" stroke="#8b4513" points="492.04,-387.37 481.45,-387.23 489.64,-393.95 492.04,-387.37"/>
</g>
<!-- readline -->
<g id="node17" class="node">
<title>readline</title>
<ellipse fill="green" stroke="green" cx="348.14" cy="-522" rx="38.99" ry="18"/>
<text text-anchor="middle" x="348.14" y="-518.3" font-family="Times,serif" font-size="14.00">readline</text>
</g>
<!-- readline&gt;=7.0&#45;&gt;readline -->
<g id="edge18" class="edge">
<title>readline&gt;=7.0&#45;&gt;readline</title>
<path fill="none" stroke="grey" d="M354.16,-575.7C352.92,-564.85 351.33,-550.92 350.1,-540.1"/>
</g>
<!-- readline&#45;&gt;glibc -->
<g id="edge19" class="edge">
<title>readline&#45;&gt;glibc</title>
<path fill="none" stroke="#8b4513" d="M339.03,-504.06C325.89,-477.98 303.14,-426.07 303.14,-379 303.14,-379 303.14,-379 303.14,-305 303.14,-264.03 295.48,-253.57 279.14,-216 274.84,-206.11 268.9,-195.91 263.25,-187.13"/>
<polygon fill="#8b4513" stroke="#8b4513" points="266,-184.94 257.54,-178.56 260.17,-188.82 266,-184.94"/>
</g>
<!-- readline&#45;&gt;ncurses -->
<g id="edge20" class="edge">
<title>readline&#45;&gt;ncurses</title>
<path fill="none" stroke="#8b4513" d="M346.26,-503.74C345.06,-484.61 345.87,-453.59 360.14,-432 371.96,-414.11 392.07,-401.39 410.19,-392.9"/>
<polygon fill="#8b4513" stroke="#8b4513" points="411.68,-396.07 419.43,-388.85 408.87,-389.66 411.68,-396.07"/>
</g>
<!-- libncursesw.so=6&#45;64 -->
<g id="node21" class="node">
<title>libncursesw.so=6&#45;64</title>
<ellipse fill="green" stroke="green" cx="453.14" cy="-450" rx="83.69" ry="18"/>
<text text-anchor="middle" x="453.14" y="-446.3" font-family="Times,serif" font-size="14.00">libncursesw.so=6&#45;64</text>
</g>
<!-- readline&#45;&gt;libncursesw.so=6&#45;64 -->
<g id="edge25" class="edge">
<title>readline&#45;&gt;libncursesw.so=6&#45;64</title>
<path fill="none" stroke="#8b4513" d="M369.39,-506.83C383.98,-497.1 403.64,-484 420.25,-472.93"/>
<polygon fill="#8b4513" stroke="#8b4513" points="422.23,-475.81 428.61,-467.35 418.35,-469.99 422.23,-475.81"/>
</g>
<!-- ncurses&#45;&gt;glibc -->
<g id="edge21" class="edge">
<title>ncurses&#45;&gt;glibc</title>
<path fill="none" stroke="#8b4513" d="M434.49,-360.98C425.09,-350.57 412.71,-336.65 402.14,-324 362.97,-277.13 360.88,-258.64 317.14,-216 304.04,-203.23 287.79,-190.88 274.14,-181.33"/>
<polygon fill="#8b4513" stroke="#8b4513" points="275.83,-178.24 265.6,-175.47 271.87,-184.01 275.83,-178.24"/>
</g>
<!-- gcc&#45;libs -->
<g id="node19" class="node">
<title>gcc&#45;libs</title>
<ellipse fill="green" stroke="green" cx="449.14" cy="-306" rx="38.19" ry="18"/>
<text text-anchor="middle" x="449.14" y="-302.3" font-family="Times,serif" font-size="14.00">gcc&#45;libs</text>
</g>
<!-- ncurses&#45;&gt;gcc&#45;libs -->
<g id="edge22" class="edge">
<title>ncurses&#45;&gt;gcc&#45;libs</title>
<path fill="none" stroke="#8b4513" d="M449.14,-359.7C449.14,-351.98 449.14,-342.71 449.14,-334.11"/>
<polygon fill="#8b4513" stroke="#8b4513" points="452.64,-334.1 449.14,-324.1 445.64,-334.1 452.64,-334.1"/>
</g>
<!-- glibc&gt;=2.27 -->
<g id="node20" class="node">
<title>glibc&gt;=2.27</title>
<ellipse fill="green" stroke="green" cx="445.14" cy="-234" rx="54.69" ry="18"/>
<text text-anchor="middle" x="445.14" y="-230.3" font-family="Times,serif" font-size="14.00">glibc&gt;=2.27</text>
</g>
<!-- gcc&#45;libs&#45;&gt;glibc&gt;=2.27 -->
<g id="edge23" class="edge">
<title>gcc&#45;libs&#45;&gt;glibc&gt;=2.27</title>
<path fill="none" stroke="#8b4513" d="M448.15,-287.7C447.71,-279.98 447.18,-270.71 446.69,-262.11"/>
<polygon fill="#8b4513" stroke="#8b4513" points="450.18,-261.89 446.12,-252.1 443.19,-262.29 450.18,-261.89"/>
</g>
<!-- glibc&gt;=2.27&#45;&gt;glibc -->
<g id="edge24" class="edge">
<title>glibc&gt;=2.27&#45;&gt;glibc</title>
<path fill="none" stroke="grey" d="M409.1,-220.32C369.01,-206.22 305.31,-183.81 270.62,-171.61"/>
</g>
<!-- libncursesw.so=6&#45;64&#45;&gt;ncurses -->
<g id="edge26" class="edge">
<title>libncursesw.so=6&#45;64&#45;&gt;ncurses</title>
<path fill="none" stroke="grey" d="M452.15,-431.7C451.53,-420.85 450.74,-406.92 450.12,-396.1"/>
</g>
<!-- db&#45;&gt;sh -->
<g id="edge31" class="edge">
<title>db&#45;&gt;sh</title>
<path fill="none" stroke="#8b4513" d="M360.4,-791.7C360.07,-783.98 359.67,-774.71 359.3,-766.11"/>
<polygon fill="#8b4513" stroke="#8b4513" points="362.8,-765.95 358.87,-756.1 355.81,-766.25 362.8,-765.95"/>
</g>
<!-- db&#45;&gt;gcc&#45;libs -->
<g id="edge30" class="edge">
<title>db&#45;&gt;gcc&#45;libs</title>
<path fill="none" stroke="#8b4513" d="M387.5,-806.04C450.22,-797.39 603.14,-766.13 603.14,-667 603.14,-667 603.14,-667 603.14,-449 603.14,-386.02 532.66,-343.26 487.07,-322.19"/>
<polygon fill="#8b4513" stroke="#8b4513" points="488.3,-318.91 477.75,-318.03 485.45,-325.3 488.3,-318.91"/>
</g>
<!-- xz&#45;&gt;sh -->
<g id="edge34" class="edge">
<title>xz&#45;&gt;sh</title>
<path fill="none" stroke="#8b4513" d="M414.66,-863.94C412.57,-845.51 407.76,-815.63 397.14,-792 392.32,-781.26 385.05,-770.58 378.1,-761.65"/>
<polygon fill="#8b4513" stroke="#8b4513" points="380.64,-759.23 371.62,-753.68 375.21,-763.64 380.64,-759.23"/>
</g>
</g>
</svg>
