<?xml version="1.0" encoding="UTF-8" standalone="no"?>
<!DOCTYPE svg PUBLIC "-//W3C//DTD SVG 1.1//EN"
 "http://www.w3.org/Graphics/SVG/1.1/DTD/svg11.dtd">
<!-- Generated by graphviz version 2.44.0 (0)
 -->
<!-- Title: G Pages: 1 -->
<svg width="471pt" height="548pt"
 viewBox="0.00 0.00 470.84 548.00" xmlns="http://www.w3.org/2000/svg" xmlns:xlink="http://www.w3.org/1999/xlink">
<g id="graph0" class="graph" transform="scale(1 1) rotate(0) translate(4 544)">
<title>G</title>
<polygon fill="white" stroke="transparent" points="-4,4 -4,-544 466.84,-544 466.84,4 -4,4"/>
<!-- START -->
<g id="node1" class="node">
<title>START</title>
<ellipse fill="red" stroke="red" cx="239.59" cy="-522" rx="38.19" ry="18"/>
<text text-anchor="middle" x="239.59" y="-518.3" font-family="Times,serif" font-size="14.00">START</text>
</g>
<!-- ldb -->
<g id="node2" class="node">
<title>ldb</title>
<ellipse fill="green" stroke="green" cx="239.59" cy="-450" rx="27" ry="18"/>
<text text-anchor="middle" x="239.59" y="-446.3" font-family="Times,serif" font-size="14.00">ldb</text>
</g>
<!-- START&#45;&gt;ldb -->
<g id="edge1" class="edge">
<title>START&#45;&gt;ldb</title>
<path fill="none" stroke="black" d="M239.59,-503.7C239.59,-495.98 239.59,-486.71 239.59,-478.11"/>
<polygon fill="black" stroke="black" points="243.09,-478.1 239.59,-468.1 236.09,-478.1 243.09,-478.1"/>
</g>
<!-- talloc -->
<g id="node3" class="node">
<title>talloc</title>
<ellipse fill="green" stroke="green" cx="93.59" cy="-234" rx="30.59" ry="18"/>
<text text-anchor="middle" x="93.59" y="-230.3" font-family="Times,serif" font-size="14.00">talloc</text>
</g>
<!-- ldb&#45;&gt;talloc -->
<g id="edge2" class="edge">
<title>ldb&#45;&gt;talloc</title>
<path fill="none" stroke="#8b4513" d="M212.81,-446.85C158.08,-441.83 36.49,-427.35 11.59,-396 -24.14,-351.01 33.23,-287.99 68.77,-255.76"/>
<polygon fill="#8b4513" stroke="#8b4513" points="71.24,-258.25 76.41,-249 66.6,-253.01 71.24,-258.25"/>
</g>
<!-- libtevent.so=0&#45;64 -->
<g id="node10" class="node">
<title>libtevent.so=0&#45;64</title>
<ellipse fill="green" stroke="green" cx="93.59" cy="-378" rx="73.39" ry="18"/>
<text text-anchor="middle" x="93.59" y="-374.3" font-family="Times,serif" font-size="14.00">libtevent.so=0&#45;64</text>
</g>
<!-- ldb&#45;&gt;libtevent.so=0&#45;64 -->
<g id="edge9" class="edge">
<title>ldb&#45;&gt;libtevent.so=0&#45;64</title>
<path fill="none" stroke="#8b4513" d="M218.36,-438.82C196.57,-428.37 162.1,-411.85 134.91,-398.81"/>
<polygon fill="#8b4513" stroke="#8b4513" points="136.16,-395.53 125.63,-394.36 133.13,-401.84 136.16,-395.53"/>
</g>
<!-- tdb -->
<g id="node12" class="node">
<title>tdb</title>
<ellipse fill="green" stroke="green" cx="285.59" cy="-306" rx="27" ry="18"/>
<text text-anchor="middle" x="285.59" y="-302.3" font-family="Times,serif" font-size="14.00">tdb</text>
</g>
<!-- ldb&#45;&gt;tdb -->
<g id="edge12" class="edge">
<title>ldb&#45;&gt;tdb</title>
<path fill="none" stroke="#8b4513" d="M228.37,-433.56C216.58,-415.29 201.32,-384.28 213.59,-360 222.18,-343.02 239.04,-330.15 254.3,-321.35"/>
<polygon fill="#8b4513" stroke="#8b4513" points="256.35,-324.22 263.5,-316.39 253.03,-318.06 256.35,-324.22"/>
</g>
<!-- libtdb.so=1&#45;64 -->
<g id="node13" class="node">
<title>libtdb.so=1&#45;64</title>
<ellipse fill="green" stroke="green" cx="285.59" cy="-378" rx="63.09" ry="18"/>
<text text-anchor="middle" x="285.59" y="-374.3" font-family="Times,serif" font-size="14.00">libtdb.so=1&#45;64</text>
</g>
<!-- ldb&#45;&gt;libtdb.so=1&#45;64 -->
<g id="edge14" class="edge">
<title>ldb&#45;&gt;libtdb.so=1&#45;64</title>
<path fill="none" stroke="#8b4513" d="M250.03,-433.12C255.63,-424.59 262.67,-413.89 269,-404.25"/>
<polygon fill="#8b4513" stroke="#8b4513" points="271.99,-406.08 274.55,-395.8 266.14,-402.23 271.99,-406.08"/>
</g>
<!-- popt -->
<g id="node14" class="node">
<title>popt</title>
<ellipse fill="green" stroke="green" cx="363.59" cy="-234" rx="27" ry="18"/>
<text text-anchor="middle" x="363.59" y="-230.3" font-family="Times,serif" font-size="14.00">popt</text>
</g>
<!-- ldb&#45;&gt;popt -->
<g id="edge16" class="edge">
<title>ldb&#45;&gt;popt</title>
<path fill="none" stroke="#8b4513" d="M265.87,-445.32C293.85,-439.86 336.89,-426.73 357.59,-396 384.67,-355.81 377.85,-296.28 370.6,-261.99"/>
<polygon fill="#8b4513" stroke="#8b4513" points="373.92,-260.78 368.28,-251.81 367.09,-262.33 373.92,-260.78"/>
</g>
<!-- lmdb -->
<g id="node15" class="node">
<title>lmdb</title>
<ellipse fill="green" stroke="green" cx="433.59" cy="-306" rx="29.5" ry="18"/>
<text text-anchor="middle" x="433.59" y="-302.3" font-family="Times,serif" font-size="14.00">lmdb</text>
</g>
<!-- ldb&#45;&gt;lmdb -->
<g id="edge18" class="edge">
<title>ldb&#45;&gt;lmdb</title>
<path fill="none" stroke="#8b4513" d="M266.18,-445.91C299.04,-440.82 354.95,-427.84 390.59,-396 409.01,-379.55 420.31,-353.47 426.67,-333.78"/>
<polygon fill="#8b4513" stroke="#8b4513" points="430.04,-334.74 429.56,-324.16 423.33,-332.73 430.04,-334.74"/>
</g>
<!-- glibc -->
<g id="node4" class="node">
<title>glibc</title>
<ellipse fill="green" stroke="green" cx="317.59" cy="-162" rx="28.7" ry="18"/>
<text text-anchor="middle" x="317.59" y="-158.3" font-family="Times,serif" font-size="14.00">glibc</text>
</g>
<!-- talloc&#45;&gt;glibc -->
<g id="edge3" class="edge">
<title>talloc&#45;&gt;glibc</title>
<path fill="none" stroke="#8b4513" d="M120.17,-224.7C160.68,-212.04 237.9,-187.9 282.82,-173.87"/>
<polygon fill="#8b4513" stroke="#8b4513" points="283.93,-177.19 292.43,-170.86 281.84,-170.51 283.93,-177.19"/>
</g>
<!-- linux&#45;api&#45;headers&gt;=4.10 -->
<g id="node5" class="node">
<title>linux&#45;api&#45;headers&gt;=4.10</title>
<ellipse fill="green" stroke="green" cx="169.59" cy="-90" rx="98.28" ry="18"/>
<text text-anchor="middle" x="169.59" y="-86.3" font-family="Times,serif" font-size="14.00">linux&#45;api&#45;headers&gt;=4.10</text>
</g>
<!-- glibc&#45;&gt;linux&#45;api&#45;headers&gt;=4.10 -->
<g id="edge4" class="edge">
<title>glibc&#45;&gt;linux&#45;api&#45;headers&gt;=4.10</title>
<path fill="none" stroke="#8b4513" d="M295.43,-150.52C273.65,-140.22 239.82,-124.22 212.72,-111.4"/>
<polygon fill="#8b4513" stroke="#8b4513" points="213.98,-108.12 203.45,-107.01 210.99,-114.45 213.98,-108.12"/>
</g>
<!-- tzdata -->
<g id="node7" class="node">
<title>tzdata</title>
<ellipse fill="green" stroke="green" cx="317.59" cy="-90" rx="31.7" ry="18"/>
<text text-anchor="middle" x="317.59" y="-86.3" font-family="Times,serif" font-size="14.00">tzdata</text>
</g>
<!-- glibc&#45;&gt;tzdata -->
<g id="edge6" class="edge">
<title>glibc&#45;&gt;tzdata</title>
<path fill="none" stroke="#8b4513" d="M317.59,-143.7C317.59,-135.98 317.59,-126.71 317.59,-118.11"/>
<polygon fill="#8b4513" stroke="#8b4513" points="321.09,-118.1 317.59,-108.1 314.09,-118.1 321.09,-118.1"/>
</g>
<!-- filesystem -->
<g id="node8" class="node">
<title>filesystem</title>
<ellipse fill="green" stroke="green" cx="414.59" cy="-90" rx="46.59" ry="18"/>
<text text-anchor="middle" x="414.59" y="-86.3" font-family="Times,serif" font-size="14.00">filesystem</text>
</g>
<!-- glibc&#45;&gt;filesystem -->
<g id="edge7" class="edge">
<title>glibc&#45;&gt;filesystem</title>
<path fill="none" stroke="#8b4513" d="M335.84,-147.83C349.64,-137.88 368.87,-123.99 384.88,-112.44"/>
<polygon fill="#8b4513" stroke="#8b4513" points="387.33,-114.99 393.39,-106.3 383.23,-109.31 387.33,-114.99"/>
</g>
<!-- linux&#45;api&#45;headers -->
<g id="node6" class="node">
<title>linux&#45;api&#45;headers</title>
<ellipse fill="green" stroke="green" cx="169.59" cy="-18" rx="71.49" ry="18"/>
<text text-anchor="middle" x="169.59" y="-14.3" font-family="Times,serif" font-size="14.00">linux&#45;api&#45;headers</text>
</g>
<!-- linux&#45;api&#45;headers&gt;=4.10&#45;&gt;linux&#45;api&#45;headers -->
<g id="edge5" class="edge">
<title>linux&#45;api&#45;headers&gt;=4.10&#45;&gt;linux&#45;api&#45;headers</title>
<path fill="none" stroke="grey" d="M169.59,-71.7C169.59,-60.85 169.59,-46.92 169.59,-36.1"/>
</g>
<!-- iana&#45;etc -->
<g id="node9" class="node">
<title>iana&#45;etc</title>
<ellipse fill="green" stroke="green" cx="414.59" cy="-18" rx="38.19" ry="18"/>
<text text-anchor="middle" x="414.59" y="-14.3" font-family="Times,serif" font-size="14.00">iana&#45;etc</text>
</g>
<!-- filesystem&#45;&gt;iana&#45;etc -->
<g id="edge8" class="edge">
<title>filesystem&#45;&gt;iana&#45;etc</title>
<path fill="none" stroke="#8b4513" d="M414.59,-71.7C414.59,-63.98 414.59,-54.71 414.59,-46.11"/>
<polygon fill="#8b4513" stroke="#8b4513" points="418.09,-46.1 414.59,-36.1 411.09,-46.1 418.09,-46.1"/>
</g>
<!-- tevent -->
<g id="node11" class="node">
<title>tevent</title>
<ellipse fill="green" stroke="green" cx="93.59" cy="-306" rx="32.49" ry="18"/>
<text text-anchor="middle" x="93.59" y="-302.3" font-family="Times,serif" font-size="14.00">tevent</text>
</g>
<!-- libtevent.so=0&#45;64&#45;&gt;tevent -->
<g id="edge10" class="edge">
<title>libtevent.so=0&#45;64&#45;&gt;tevent</title>
<path fill="none" stroke="grey" d="M93.59,-359.7C93.59,-348.85 93.59,-334.92 93.59,-324.1"/>
</g>
<!-- tevent&#45;&gt;talloc -->
<g id="edge11" class="edge">
<title>tevent&#45;&gt;talloc</title>
<path fill="none" stroke="#8b4513" d="M93.59,-287.7C93.59,-279.98 93.59,-270.71 93.59,-262.11"/>
<polygon fill="#8b4513" stroke="#8b4513" points="97.09,-262.1 93.59,-252.1 90.09,-262.1 97.09,-262.1"/>
</g>
<!-- tdb&#45;&gt;glibc -->
<g id="edge13" class="edge">
<title>tdb&#45;&gt;glibc</title>
<path fill="none" stroke="#8b4513" d="M289.39,-288.15C294.84,-263.94 304.96,-219.05 311.48,-190.13"/>
<polygon fill="#8b4513" stroke="#8b4513" points="314.92,-190.79 313.7,-180.27 308.09,-189.25 314.92,-190.79"/>
</g>
<!-- libtdb.so=1&#45;64&#45;&gt;tdb -->
<g id="edge15" class="edge">
<title>libtdb.so=1&#45;64&#45;&gt;tdb</title>
<path fill="none" stroke="grey" d="M285.59,-359.7C285.59,-348.85 285.59,-334.92 285.59,-324.1"/>
</g>
<!-- popt&#45;&gt;glibc -->
<g id="edge17" class="edge">
<title>popt&#45;&gt;glibc</title>
<path fill="none" stroke="#8b4513" d="M353.15,-217.12C347.39,-208.34 340.11,-197.26 333.64,-187.42"/>
<polygon fill="#8b4513" stroke="#8b4513" points="336.41,-185.26 327.99,-178.82 330.56,-189.1 336.41,-185.26"/>
</g>
<!-- lmdb&#45;&gt;glibc -->
<g id="edge19" class="edge">
<title>lmdb&#45;&gt;glibc</title>
<path fill="none" stroke="#8b4513" d="M430.43,-287.99C426.15,-268.8 416.98,-237.46 399.59,-216 386.27,-199.55 366.43,-186.54 349.6,-177.53"/>
<polygon fill="#8b4513" stroke="#8b4513" points="351.12,-174.37 340.63,-172.93 347.94,-180.6 351.12,-174.37"/>
</g>
</g>
</svg>
