<?xml version="1.0" encoding="UTF-8" standalone="no"?>
<!DOCTYPE svg PUBLIC "-//W3C//DTD SVG 1.1//EN"
 "http://www.w3.org/Graphics/SVG/1.1/DTD/svg11.dtd">
<!-- Generated by graphviz version 2.44.0 (0)
 -->
<!-- Title: G Pages: 1 -->
<svg width="573pt" height="1196pt"
 viewBox="0.00 0.00 573.14 1196.00" xmlns="http://www.w3.org/2000/svg" xmlns:xlink="http://www.w3.org/1999/xlink">
<g id="graph0" class="graph" transform="scale(1 1) rotate(0) translate(4 1192)">
<title>G</title>
<polygon fill="white" stroke="transparent" points="-4,4 -4,-1192 569.14,-1192 569.14,4 -4,4"/>
<!-- START -->
<g id="node1" class="node">
<title>START</title>
<ellipse fill="red" stroke="red" cx="296.14" cy="-1170" rx="38.19" ry="18"/>
<text text-anchor="middle" x="296.14" y="-1166.3" font-family="Times,serif" font-size="14.00">START</text>
</g>
<!-- ldns -->
<g id="node2" class="node">
<title>ldns</title>
<ellipse fill="green" stroke="green" cx="296.14" cy="-1098" rx="27" ry="18"/>
<text text-anchor="middle" x="296.14" y="-1094.3" font-family="Times,serif" font-size="14.00">ldns</text>
</g>
<!-- START&#45;&gt;ldns -->
<g id="edge1" class="edge">
<title>START&#45;&gt;ldns</title>
<path fill="none" stroke="black" d="M296.14,-1151.7C296.14,-1143.98 296.14,-1134.71 296.14,-1126.11"/>
<polygon fill="black" stroke="black" points="299.64,-1126.1 296.14,-1116.1 292.64,-1126.1 299.64,-1126.1"/>
</g>
<!-- openssl -->
<g id="node3" class="node">
<title>openssl</title>
<ellipse fill="green" stroke="green" cx="237.14" cy="-1026" rx="37.09" ry="18"/>
<text text-anchor="middle" x="237.14" y="-1022.3" font-family="Times,serif" font-size="14.00">openssl</text>
</g>
<!-- ldns&#45;&gt;openssl -->
<g id="edge2" class="edge">
<title>ldns&#45;&gt;openssl</title>
<path fill="none" stroke="#8b4513" d="M283.34,-1081.81C275.74,-1072.8 265.95,-1061.18 257.33,-1050.95"/>
<polygon fill="#8b4513" stroke="#8b4513" points="259.86,-1048.52 250.74,-1043.13 254.51,-1053.04 259.86,-1048.52"/>
</g>
<!-- dnssec&#45;anchors -->
<g id="node22" class="node">
<title>dnssec&#45;anchors</title>
<ellipse fill="green" stroke="green" cx="356.14" cy="-1026" rx="64.19" ry="18"/>
<text text-anchor="middle" x="356.14" y="-1022.3" font-family="Times,serif" font-size="14.00">dnssec&#45;anchors</text>
</g>
<!-- ldns&#45;&gt;dnssec&#45;anchors -->
<g id="edge30" class="edge">
<title>ldns&#45;&gt;dnssec&#45;anchors</title>
<path fill="none" stroke="#8b4513" d="M309.16,-1081.81C316.78,-1072.93 326.57,-1061.5 335.24,-1051.39"/>
<polygon fill="#8b4513" stroke="#8b4513" points="338.04,-1053.5 341.89,-1043.63 332.72,-1048.94 338.04,-1053.5"/>
</g>
<!-- perl -->
<g id="node4" class="node">
<title>perl</title>
<ellipse fill="green" stroke="green" cx="237.14" cy="-954" rx="27" ry="18"/>
<text text-anchor="middle" x="237.14" y="-950.3" font-family="Times,serif" font-size="14.00">perl</text>
</g>
<!-- openssl&#45;&gt;perl -->
<g id="edge3" class="edge">
<title>openssl&#45;&gt;perl</title>
<path fill="none" stroke="#8b4513" d="M237.14,-1007.7C237.14,-999.98 237.14,-990.71 237.14,-982.11"/>
<polygon fill="#8b4513" stroke="#8b4513" points="240.64,-982.1 237.14,-972.1 233.64,-982.1 240.64,-982.1"/>
</g>
<!-- gdbm&gt;=1.17 -->
<g id="node5" class="node">
<title>gdbm&gt;=1.17</title>
<ellipse fill="green" stroke="green" cx="237.14" cy="-882" rx="57.69" ry="18"/>
<text text-anchor="middle" x="237.14" y="-878.3" font-family="Times,serif" font-size="14.00">gdbm&gt;=1.17</text>
</g>
<!-- perl&#45;&gt;gdbm&gt;=1.17 -->
<g id="edge4" class="edge">
<title>perl&#45;&gt;gdbm&gt;=1.17</title>
<path fill="none" stroke="#8b4513" d="M237.14,-935.7C237.14,-927.98 237.14,-918.71 237.14,-910.11"/>
<polygon fill="#8b4513" stroke="#8b4513" points="240.64,-910.1 237.14,-900.1 233.64,-910.1 240.64,-910.1"/>
</g>
<!-- glibc -->
<g id="node7" class="node">
<title>glibc</title>
<ellipse fill="green" stroke="green" cx="246.14" cy="-162" rx="28.7" ry="18"/>
<text text-anchor="middle" x="246.14" y="-158.3" font-family="Times,serif" font-size="14.00">glibc</text>
</g>
<!-- perl&#45;&gt;glibc -->
<g id="edge29" class="edge">
<title>perl&#45;&gt;glibc</title>
<path fill="none" stroke="#8b4513" d="M216.68,-942.05C201.48,-932.84 181.49,-918.27 170.14,-900 148.8,-865.64 151.14,-851.45 151.14,-811 151.14,-811 151.14,-811 151.14,-305 151.14,-254.79 192.68,-208.89 220.83,-183.56"/>
<polygon fill="#8b4513" stroke="#8b4513" points="223.48,-185.88 228.72,-176.67 218.88,-180.61 223.48,-185.88"/>
</g>
<!-- db -->
<g id="node21" class="node">
<title>db</title>
<ellipse fill="green" stroke="green" cx="323.14" cy="-810" rx="27" ry="18"/>
<text text-anchor="middle" x="323.14" y="-806.3" font-family="Times,serif" font-size="14.00">db</text>
</g>
<!-- perl&#45;&gt;db -->
<g id="edge26" class="edge">
<title>perl&#45;&gt;db</title>
<path fill="none" stroke="#8b4513" d="M257.61,-942.05C272.8,-932.84 292.79,-918.27 304.14,-900 315.71,-881.38 320.32,-856.79 322.12,-838.18"/>
<polygon fill="#8b4513" stroke="#8b4513" points="325.62,-838.24 322.88,-828.01 318.64,-837.72 325.62,-838.24"/>
</g>
<!-- gdbm -->
<g id="node6" class="node">
<title>gdbm</title>
<ellipse fill="green" stroke="green" cx="237.14" cy="-810" rx="31.4" ry="18"/>
<text text-anchor="middle" x="237.14" y="-806.3" font-family="Times,serif" font-size="14.00">gdbm</text>
</g>
<!-- gdbm&gt;=1.17&#45;&gt;gdbm -->
<g id="edge5" class="edge">
<title>gdbm&gt;=1.17&#45;&gt;gdbm</title>
<path fill="none" stroke="grey" d="M237.14,-863.7C237.14,-852.85 237.14,-838.92 237.14,-828.1"/>
</g>
<!-- gdbm&#45;&gt;glibc -->
<g id="edge6" class="edge">
<title>gdbm&#45;&gt;glibc</title>
<path fill="none" stroke="#8b4513" d="M227.66,-792.56C213.67,-766.72 189.14,-714.62 189.14,-667 189.14,-667 189.14,-667 189.14,-305 189.14,-261.09 212.91,-214.67 229.75,-187.3"/>
<polygon fill="#8b4513" stroke="#8b4513" points="232.75,-189.1 235.15,-178.78 226.84,-185.35 232.75,-189.1"/>
</g>
<!-- sh -->
<g id="node13" class="node">
<title>sh</title>
<ellipse fill="green" stroke="green" cx="316.14" cy="-738" rx="27" ry="18"/>
<text text-anchor="middle" x="316.14" y="-734.3" font-family="Times,serif" font-size="14.00">sh</text>
</g>
<!-- gdbm&#45;&gt;sh -->
<g id="edge12" class="edge">
<title>gdbm&#45;&gt;sh</title>
<path fill="none" stroke="#8b4513" d="M253.51,-794.5C264.96,-784.35 280.42,-770.65 293.11,-759.4"/>
<polygon fill="#8b4513" stroke="#8b4513" points="295.44,-762.02 300.6,-752.77 290.79,-756.78 295.44,-762.02"/>
</g>
<!-- linux&#45;api&#45;headers&gt;=4.10 -->
<g id="node8" class="node">
<title>linux&#45;api&#45;headers&gt;=4.10</title>
<ellipse fill="green" stroke="green" cx="98.14" cy="-90" rx="98.28" ry="18"/>
<text text-anchor="middle" x="98.14" y="-86.3" font-family="Times,serif" font-size="14.00">linux&#45;api&#45;headers&gt;=4.10</text>
</g>
<!-- glibc&#45;&gt;linux&#45;api&#45;headers&gt;=4.10 -->
<g id="edge7" class="edge">
<title>glibc&#45;&gt;linux&#45;api&#45;headers&gt;=4.10</title>
<path fill="none" stroke="#8b4513" d="M223.98,-150.52C202.2,-140.22 168.37,-124.22 141.27,-111.4"/>
<polygon fill="#8b4513" stroke="#8b4513" points="142.53,-108.12 132,-107.01 139.54,-114.45 142.53,-108.12"/>
</g>
<!-- tzdata -->
<g id="node10" class="node">
<title>tzdata</title>
<ellipse fill="green" stroke="green" cx="246.14" cy="-90" rx="31.7" ry="18"/>
<text text-anchor="middle" x="246.14" y="-86.3" font-family="Times,serif" font-size="14.00">tzdata</text>
</g>
<!-- glibc&#45;&gt;tzdata -->
<g id="edge9" class="edge">
<title>glibc&#45;&gt;tzdata</title>
<path fill="none" stroke="#8b4513" d="M246.14,-143.7C246.14,-135.98 246.14,-126.71 246.14,-118.11"/>
<polygon fill="#8b4513" stroke="#8b4513" points="249.64,-118.1 246.14,-108.1 242.64,-118.1 249.64,-118.1"/>
</g>
<!-- filesystem -->
<g id="node11" class="node">
<title>filesystem</title>
<ellipse fill="green" stroke="green" cx="343.14" cy="-90" rx="46.59" ry="18"/>
<text text-anchor="middle" x="343.14" y="-86.3" font-family="Times,serif" font-size="14.00">filesystem</text>
</g>
<!-- glibc&#45;&gt;filesystem -->
<g id="edge10" class="edge">
<title>glibc&#45;&gt;filesystem</title>
<path fill="none" stroke="#8b4513" d="M264.39,-147.83C278.19,-137.88 297.42,-123.99 313.43,-112.44"/>
<polygon fill="#8b4513" stroke="#8b4513" points="315.88,-114.99 321.94,-106.3 311.78,-109.31 315.88,-114.99"/>
</g>
<!-- linux&#45;api&#45;headers -->
<g id="node9" class="node">
<title>linux&#45;api&#45;headers</title>
<ellipse fill="green" stroke="green" cx="98.14" cy="-18" rx="71.49" ry="18"/>
<text text-anchor="middle" x="98.14" y="-14.3" font-family="Times,serif" font-size="14.00">linux&#45;api&#45;headers</text>
</g>
<!-- linux&#45;api&#45;headers&gt;=4.10&#45;&gt;linux&#45;api&#45;headers -->
<g id="edge8" class="edge">
<title>linux&#45;api&#45;headers&gt;=4.10&#45;&gt;linux&#45;api&#45;headers</title>
<path fill="none" stroke="grey" d="M98.14,-71.7C98.14,-60.85 98.14,-46.92 98.14,-36.1"/>
</g>
<!-- iana&#45;etc -->
<g id="node12" class="node">
<title>iana&#45;etc</title>
<ellipse fill="green" stroke="green" cx="343.14" cy="-18" rx="38.19" ry="18"/>
<text text-anchor="middle" x="343.14" y="-14.3" font-family="Times,serif" font-size="14.00">iana&#45;etc</text>
</g>
<!-- filesystem&#45;&gt;iana&#45;etc -->
<g id="edge11" class="edge">
<title>filesystem&#45;&gt;iana&#45;etc</title>
<path fill="none" stroke="#8b4513" d="M343.14,-71.7C343.14,-63.98 343.14,-54.71 343.14,-46.11"/>
<polygon fill="#8b4513" stroke="#8b4513" points="346.64,-46.1 343.14,-36.1 339.64,-46.1 346.64,-46.1"/>
</g>
<!-- bash -->
<g id="node14" class="node">
<title>bash</title>
<ellipse fill="green" stroke="green" cx="316.14" cy="-666" rx="27" ry="18"/>
<text text-anchor="middle" x="316.14" y="-662.3" font-family="Times,serif" font-size="14.00">bash</text>
</g>
<!-- sh&#45;&gt;bash -->
<g id="edge13" class="edge">
<title>sh&#45;&gt;bash</title>
<path fill="none" stroke="grey" d="M316.14,-719.7C316.14,-708.85 316.14,-694.92 316.14,-684.1"/>
</g>
<!-- bash&#45;&gt;glibc -->
<g id="edge24" class="edge">
<title>bash&#45;&gt;glibc</title>
<path fill="none" stroke="#8b4513" d="M295.09,-654.45C279.17,-645.38 258.09,-630.78 246.14,-612 224.43,-577.87 227.14,-563.45 227.14,-523 227.14,-523 227.14,-523 227.14,-305 227.14,-264.64 234.78,-218.39 240.37,-189.94"/>
<polygon fill="#8b4513" stroke="#8b4513" points="243.83,-190.45 242.39,-179.95 236.97,-189.06 243.83,-190.45"/>
</g>
<!-- readline&gt;=7.0 -->
<g id="node15" class="node">
<title>readline&gt;=7.0</title>
<ellipse fill="green" stroke="green" cx="316.14" cy="-594" rx="61.19" ry="18"/>
<text text-anchor="middle" x="316.14" y="-590.3" font-family="Times,serif" font-size="14.00">readline&gt;=7.0</text>
</g>
<!-- bash&#45;&gt;readline&gt;=7.0 -->
<g id="edge14" class="edge">
<title>bash&#45;&gt;readline&gt;=7.0</title>
<path fill="none" stroke="#8b4513" d="M316.14,-647.7C316.14,-639.98 316.14,-630.71 316.14,-622.11"/>
<polygon fill="#8b4513" stroke="#8b4513" points="319.64,-622.1 316.14,-612.1 312.64,-622.1 319.64,-622.1"/>
</g>
<!-- ncurses -->
<g id="node17" class="node">
<title>ncurses</title>
<ellipse fill="green" stroke="green" cx="411.14" cy="-378" rx="37.09" ry="18"/>
<text text-anchor="middle" x="411.14" y="-374.3" font-family="Times,serif" font-size="14.00">ncurses</text>
</g>
<!-- bash&#45;&gt;ncurses -->
<g id="edge25" class="edge">
<title>bash&#45;&gt;ncurses</title>
<path fill="none" stroke="#8b4513" d="M335.59,-653.32C377.55,-626.78 475.42,-557.23 508.14,-468 513.65,-452.98 516.3,-445.76 508.14,-432 496.14,-411.77 473.39,-398.76 452.94,-390.69"/>
<polygon fill="#8b4513" stroke="#8b4513" points="454.04,-387.37 443.45,-387.23 451.64,-393.95 454.04,-387.37"/>
</g>
<!-- readline -->
<g id="node16" class="node">
<title>readline</title>
<ellipse fill="green" stroke="green" cx="310.14" cy="-522" rx="38.99" ry="18"/>
<text text-anchor="middle" x="310.14" y="-518.3" font-family="Times,serif" font-size="14.00">readline</text>
</g>
<!-- readline&gt;=7.0&#45;&gt;readline -->
<g id="edge15" class="edge">
<title>readline&gt;=7.0&#45;&gt;readline</title>
<path fill="none" stroke="grey" d="M314.66,-575.7C313.73,-564.85 312.53,-550.92 311.61,-540.1"/>
</g>
<!-- readline&#45;&gt;glibc -->
<g id="edge16" class="edge">
<title>readline&#45;&gt;glibc</title>
<path fill="none" stroke="#8b4513" d="M301.03,-504.06C287.89,-477.98 265.14,-426.07 265.14,-379 265.14,-379 265.14,-379 265.14,-305 265.14,-264.64 257.51,-218.39 251.92,-189.94"/>
<polygon fill="#8b4513" stroke="#8b4513" points="255.31,-189.06 249.9,-179.95 248.45,-190.45 255.31,-189.06"/>
</g>
<!-- readline&#45;&gt;ncurses -->
<g id="edge17" class="edge">
<title>readline&#45;&gt;ncurses</title>
<path fill="none" stroke="#8b4513" d="M308.26,-503.74C307.06,-484.61 307.87,-453.59 322.14,-432 333.96,-414.11 354.07,-401.39 372.19,-392.9"/>
<polygon fill="#8b4513" stroke="#8b4513" points="373.68,-396.07 381.43,-388.85 370.87,-389.66 373.68,-396.07"/>
</g>
<!-- libncursesw.so=6&#45;64 -->
<g id="node20" class="node">
<title>libncursesw.so=6&#45;64</title>
<ellipse fill="green" stroke="green" cx="415.14" cy="-450" rx="83.69" ry="18"/>
<text text-anchor="middle" x="415.14" y="-446.3" font-family="Times,serif" font-size="14.00">libncursesw.so=6&#45;64</text>
</g>
<!-- readline&#45;&gt;libncursesw.so=6&#45;64 -->
<g id="edge22" class="edge">
<title>readline&#45;&gt;libncursesw.so=6&#45;64</title>
<path fill="none" stroke="#8b4513" d="M331.39,-506.83C345.98,-497.1 365.64,-484 382.25,-472.93"/>
<polygon fill="#8b4513" stroke="#8b4513" points="384.23,-475.81 390.61,-467.35 380.35,-469.99 384.23,-475.81"/>
</g>
<!-- ncurses&#45;&gt;glibc -->
<g id="edge18" class="edge">
<title>ncurses&#45;&gt;glibc</title>
<path fill="none" stroke="#8b4513" d="M396.34,-361.1C386.88,-350.74 374.49,-336.82 364.14,-324 326.15,-276.92 285.09,-219.17 262.83,-187.21"/>
<polygon fill="#8b4513" stroke="#8b4513" points="265.64,-185.12 257.06,-178.9 259.89,-189.12 265.64,-185.12"/>
</g>
<!-- gcc&#45;libs -->
<g id="node18" class="node">
<title>gcc&#45;libs</title>
<ellipse fill="green" stroke="green" cx="411.14" cy="-306" rx="38.19" ry="18"/>
<text text-anchor="middle" x="411.14" y="-302.3" font-family="Times,serif" font-size="14.00">gcc&#45;libs</text>
</g>
<!-- ncurses&#45;&gt;gcc&#45;libs -->
<g id="edge19" class="edge">
<title>ncurses&#45;&gt;gcc&#45;libs</title>
<path fill="none" stroke="#8b4513" d="M411.14,-359.7C411.14,-351.98 411.14,-342.71 411.14,-334.11"/>
<polygon fill="#8b4513" stroke="#8b4513" points="414.64,-334.1 411.14,-324.1 407.64,-334.1 414.64,-334.1"/>
</g>
<!-- glibc&gt;=2.27 -->
<g id="node19" class="node">
<title>glibc&gt;=2.27</title>
<ellipse fill="green" stroke="green" cx="407.14" cy="-234" rx="54.69" ry="18"/>
<text text-anchor="middle" x="407.14" y="-230.3" font-family="Times,serif" font-size="14.00">glibc&gt;=2.27</text>
</g>
<!-- gcc&#45;libs&#45;&gt;glibc&gt;=2.27 -->
<g id="edge20" class="edge">
<title>gcc&#45;libs&#45;&gt;glibc&gt;=2.27</title>
<path fill="none" stroke="#8b4513" d="M410.15,-287.7C409.71,-279.98 409.18,-270.71 408.69,-262.11"/>
<polygon fill="#8b4513" stroke="#8b4513" points="412.18,-261.89 408.12,-252.1 405.19,-262.29 412.18,-261.89"/>
</g>
<!-- glibc&gt;=2.27&#45;&gt;glibc -->
<g id="edge21" class="edge">
<title>glibc&gt;=2.27&#45;&gt;glibc</title>
<path fill="none" stroke="grey" d="M375.33,-219.17C343.99,-205.54 296.88,-185.06 269.05,-172.96"/>
</g>
<!-- libncursesw.so=6&#45;64&#45;&gt;ncurses -->
<g id="edge23" class="edge">
<title>libncursesw.so=6&#45;64&#45;&gt;ncurses</title>
<path fill="none" stroke="grey" d="M414.15,-431.7C413.53,-420.85 412.74,-406.92 412.12,-396.1"/>
</g>
<!-- db&#45;&gt;sh -->
<g id="edge28" class="edge">
<title>db&#45;&gt;sh</title>
<path fill="none" stroke="#8b4513" d="M321.41,-791.7C320.64,-783.98 319.71,-774.71 318.85,-766.11"/>
<polygon fill="#8b4513" stroke="#8b4513" points="322.33,-765.71 317.85,-756.1 315.36,-766.4 322.33,-765.71"/>
</g>
<!-- db&#45;&gt;gcc&#45;libs -->
<g id="edge27" class="edge">
<title>db&#45;&gt;gcc&#45;libs</title>
<path fill="none" stroke="#8b4513" d="M349.5,-806.04C412.22,-797.39 565.14,-766.13 565.14,-667 565.14,-667 565.14,-667 565.14,-449 565.14,-386.02 494.66,-343.26 449.07,-322.19"/>
<polygon fill="#8b4513" stroke="#8b4513" points="450.3,-318.91 439.75,-318.03 447.45,-325.3 450.3,-318.91"/>
</g>
</g>
</svg>
