<?xml version="1.0" encoding="UTF-8" standalone="no"?>
<!DOCTYPE svg PUBLIC "-//W3C//DTD SVG 1.1//EN"
 "http://www.w3.org/Graphics/SVG/1.1/DTD/svg11.dtd">
<!-- Generated by graphviz version 2.44.0 (0)
 -->
<!-- Title: G Pages: 1 -->
<svg width="624pt" height="1052pt"
 viewBox="0.00 0.00 624.14 1052.00" xmlns="http://www.w3.org/2000/svg" xmlns:xlink="http://www.w3.org/1999/xlink">
<g id="graph0" class="graph" transform="scale(1 1) rotate(0) translate(4 1048)">
<title>G</title>
<polygon fill="white" stroke="transparent" points="-4,4 -4,-1048 620.14,-1048 620.14,4 -4,4"/>
<!-- START -->
<g id="node1" class="node">
<title>START</title>
<ellipse fill="red" stroke="red" cx="240.14" cy="-1026" rx="38.19" ry="18"/>
<text text-anchor="middle" x="240.14" y="-1022.3" font-family="Times,serif" font-size="14.00">START</text>
</g>
<!-- less -->
<g id="node2" class="node">
<title>less</title>
<ellipse fill="green" stroke="green" cx="240.14" cy="-954" rx="27" ry="18"/>
<text text-anchor="middle" x="240.14" y="-950.3" font-family="Times,serif" font-size="14.00">less</text>
</g>
<!-- START&#45;&gt;less -->
<g id="edge1" class="edge">
<title>START&#45;&gt;less</title>
<path fill="none" stroke="black" d="M240.14,-1007.7C240.14,-999.98 240.14,-990.71 240.14,-982.11"/>
<polygon fill="black" stroke="black" points="243.64,-982.1 240.14,-972.1 236.64,-982.1 243.64,-982.1"/>
</g>
<!-- glibc -->
<g id="node3" class="node">
<title>glibc</title>
<ellipse fill="green" stroke="green" cx="246.14" cy="-162" rx="28.7" ry="18"/>
<text text-anchor="middle" x="246.14" y="-158.3" font-family="Times,serif" font-size="14.00">glibc</text>
</g>
<!-- less&#45;&gt;glibc -->
<g id="edge2" class="edge">
<title>less&#45;&gt;glibc</title>
<path fill="none" stroke="#8b4513" d="M216.09,-945.81C168.55,-929.94 67.14,-887.16 67.14,-811 67.14,-811 67.14,-811 67.14,-305 67.14,-232.33 158.8,-190.95 210.94,-173.29"/>
<polygon fill="#8b4513" stroke="#8b4513" points="212.08,-176.6 220.49,-170.17 209.9,-169.95 212.08,-176.6"/>
</g>
<!-- ncurses -->
<g id="node9" class="node">
<title>ncurses</title>
<ellipse fill="green" stroke="green" cx="446.14" cy="-378" rx="37.09" ry="18"/>
<text text-anchor="middle" x="446.14" y="-374.3" font-family="Times,serif" font-size="14.00">ncurses</text>
</g>
<!-- less&#45;&gt;ncurses -->
<g id="edge8" class="edge">
<title>less&#45;&gt;ncurses</title>
<path fill="none" stroke="#8b4513" d="M266.28,-948.96C351.55,-935.07 616.14,-885.92 616.14,-811 616.14,-811 616.14,-811 616.14,-521 616.14,-453.4 535.99,-411.69 485.76,-392.18"/>
<polygon fill="#8b4513" stroke="#8b4513" points="486.73,-388.81 476.14,-388.57 484.28,-395.36 486.73,-388.81"/>
</g>
<!-- pcre -->
<g id="node12" class="node">
<title>pcre</title>
<ellipse fill="green" stroke="green" cx="240.14" cy="-882" rx="27" ry="18"/>
<text text-anchor="middle" x="240.14" y="-878.3" font-family="Times,serif" font-size="14.00">pcre</text>
</g>
<!-- less&#45;&gt;pcre -->
<g id="edge13" class="edge">
<title>less&#45;&gt;pcre</title>
<path fill="none" stroke="#8b4513" d="M240.14,-935.7C240.14,-927.98 240.14,-918.71 240.14,-910.11"/>
<polygon fill="#8b4513" stroke="#8b4513" points="243.64,-910.1 240.14,-900.1 236.64,-910.1 243.64,-910.1"/>
</g>
<!-- linux&#45;api&#45;headers&gt;=4.10 -->
<g id="node4" class="node">
<title>linux&#45;api&#45;headers&gt;=4.10</title>
<ellipse fill="green" stroke="green" cx="98.14" cy="-90" rx="98.28" ry="18"/>
<text text-anchor="middle" x="98.14" y="-86.3" font-family="Times,serif" font-size="14.00">linux&#45;api&#45;headers&gt;=4.10</text>
</g>
<!-- glibc&#45;&gt;linux&#45;api&#45;headers&gt;=4.10 -->
<g id="edge3" class="edge">
<title>glibc&#45;&gt;linux&#45;api&#45;headers&gt;=4.10</title>
<path fill="none" stroke="#8b4513" d="M223.98,-150.52C202.2,-140.22 168.37,-124.22 141.27,-111.4"/>
<polygon fill="#8b4513" stroke="#8b4513" points="142.53,-108.12 132,-107.01 139.54,-114.45 142.53,-108.12"/>
</g>
<!-- tzdata -->
<g id="node6" class="node">
<title>tzdata</title>
<ellipse fill="green" stroke="green" cx="246.14" cy="-90" rx="31.7" ry="18"/>
<text text-anchor="middle" x="246.14" y="-86.3" font-family="Times,serif" font-size="14.00">tzdata</text>
</g>
<!-- glibc&#45;&gt;tzdata -->
<g id="edge5" class="edge">
<title>glibc&#45;&gt;tzdata</title>
<path fill="none" stroke="#8b4513" d="M246.14,-143.7C246.14,-135.98 246.14,-126.71 246.14,-118.11"/>
<polygon fill="#8b4513" stroke="#8b4513" points="249.64,-118.1 246.14,-108.1 242.64,-118.1 249.64,-118.1"/>
</g>
<!-- filesystem -->
<g id="node7" class="node">
<title>filesystem</title>
<ellipse fill="green" stroke="green" cx="343.14" cy="-90" rx="46.59" ry="18"/>
<text text-anchor="middle" x="343.14" y="-86.3" font-family="Times,serif" font-size="14.00">filesystem</text>
</g>
<!-- glibc&#45;&gt;filesystem -->
<g id="edge6" class="edge">
<title>glibc&#45;&gt;filesystem</title>
<path fill="none" stroke="#8b4513" d="M264.39,-147.83C278.19,-137.88 297.42,-123.99 313.43,-112.44"/>
<polygon fill="#8b4513" stroke="#8b4513" points="315.88,-114.99 321.94,-106.3 311.78,-109.31 315.88,-114.99"/>
</g>
<!-- linux&#45;api&#45;headers -->
<g id="node5" class="node">
<title>linux&#45;api&#45;headers</title>
<ellipse fill="green" stroke="green" cx="98.14" cy="-18" rx="71.49" ry="18"/>
<text text-anchor="middle" x="98.14" y="-14.3" font-family="Times,serif" font-size="14.00">linux&#45;api&#45;headers</text>
</g>
<!-- linux&#45;api&#45;headers&gt;=4.10&#45;&gt;linux&#45;api&#45;headers -->
<g id="edge4" class="edge">
<title>linux&#45;api&#45;headers&gt;=4.10&#45;&gt;linux&#45;api&#45;headers</title>
<path fill="none" stroke="grey" d="M98.14,-71.7C98.14,-60.85 98.14,-46.92 98.14,-36.1"/>
</g>
<!-- iana&#45;etc -->
<g id="node8" class="node">
<title>iana&#45;etc</title>
<ellipse fill="green" stroke="green" cx="343.14" cy="-18" rx="38.19" ry="18"/>
<text text-anchor="middle" x="343.14" y="-14.3" font-family="Times,serif" font-size="14.00">iana&#45;etc</text>
</g>
<!-- filesystem&#45;&gt;iana&#45;etc -->
<g id="edge7" class="edge">
<title>filesystem&#45;&gt;iana&#45;etc</title>
<path fill="none" stroke="#8b4513" d="M343.14,-71.7C343.14,-63.98 343.14,-54.71 343.14,-46.11"/>
<polygon fill="#8b4513" stroke="#8b4513" points="346.64,-46.1 343.14,-36.1 339.64,-46.1 346.64,-46.1"/>
</g>
<!-- ncurses&#45;&gt;glibc -->
<g id="edge9" class="edge">
<title>ncurses&#45;&gt;glibc</title>
<path fill="none" stroke="#8b4513" d="M438.78,-359.99C424.37,-328.3 389.72,-259.47 343.14,-216 324.69,-198.78 299.61,-185.27 279.57,-176.2"/>
<polygon fill="#8b4513" stroke="#8b4513" points="280.75,-172.9 270.19,-172.11 277.95,-179.31 280.75,-172.9"/>
</g>
<!-- gcc&#45;libs -->
<g id="node10" class="node">
<title>gcc&#45;libs</title>
<ellipse fill="green" stroke="green" cx="246.14" cy="-306" rx="38.19" ry="18"/>
<text text-anchor="middle" x="246.14" y="-302.3" font-family="Times,serif" font-size="14.00">gcc&#45;libs</text>
</g>
<!-- ncurses&#45;&gt;gcc&#45;libs -->
<g id="edge10" class="edge">
<title>ncurses&#45;&gt;gcc&#45;libs</title>
<path fill="none" stroke="#8b4513" d="M417.06,-366.82C382.45,-354.71 324.49,-334.42 285.79,-320.88"/>
<polygon fill="#8b4513" stroke="#8b4513" points="286.51,-317.42 275.91,-317.42 284.19,-324.03 286.51,-317.42"/>
</g>
<!-- glibc&gt;=2.27 -->
<g id="node11" class="node">
<title>glibc&gt;=2.27</title>
<ellipse fill="green" stroke="green" cx="246.14" cy="-234" rx="54.69" ry="18"/>
<text text-anchor="middle" x="246.14" y="-230.3" font-family="Times,serif" font-size="14.00">glibc&gt;=2.27</text>
</g>
<!-- gcc&#45;libs&#45;&gt;glibc&gt;=2.27 -->
<g id="edge11" class="edge">
<title>gcc&#45;libs&#45;&gt;glibc&gt;=2.27</title>
<path fill="none" stroke="#8b4513" d="M246.14,-287.7C246.14,-279.98 246.14,-270.71 246.14,-262.11"/>
<polygon fill="#8b4513" stroke="#8b4513" points="249.64,-262.1 246.14,-252.1 242.64,-262.1 249.64,-262.1"/>
</g>
<!-- glibc&gt;=2.27&#45;&gt;glibc -->
<g id="edge12" class="edge">
<title>glibc&gt;=2.27&#45;&gt;glibc</title>
<path fill="none" stroke="grey" d="M246.14,-215.7C246.14,-204.85 246.14,-190.92 246.14,-180.1"/>
</g>
<!-- pcre&#45;&gt;gcc&#45;libs -->
<g id="edge14" class="edge">
<title>pcre&#45;&gt;gcc&#45;libs</title>
<path fill="none" stroke="#8b4513" d="M240.14,-863.95C240.14,-837.29 240.14,-784.11 240.14,-739 240.14,-739 240.14,-739 240.14,-449 240.14,-408.96 242.55,-362.63 244.32,-334.07"/>
<polygon fill="#8b4513" stroke="#8b4513" points="247.81,-334.24 244.96,-324.04 240.83,-333.8 247.81,-334.24"/>
</g>
<!-- readline -->
<g id="node13" class="node">
<title>readline</title>
<ellipse fill="green" stroke="green" cx="390.14" cy="-522" rx="38.99" ry="18"/>
<text text-anchor="middle" x="390.14" y="-518.3" font-family="Times,serif" font-size="14.00">readline</text>
</g>
<!-- pcre&#45;&gt;readline -->
<g id="edge15" class="edge">
<title>pcre&#45;&gt;readline</title>
<path fill="none" stroke="#8b4513" d="M259.3,-868.67C290.82,-846.73 350.14,-797.63 350.14,-739 350.14,-739 350.14,-739 350.14,-665 350.14,-623.48 366.18,-577.61 377.94,-549.54"/>
<polygon fill="#8b4513" stroke="#8b4513" points="381.29,-550.62 382.05,-540.05 374.87,-547.84 381.29,-550.62"/>
</g>
<!-- zlib -->
<g id="node15" class="node">
<title>zlib</title>
<ellipse fill="green" stroke="green" cx="122.14" cy="-738" rx="27" ry="18"/>
<text text-anchor="middle" x="122.14" y="-734.3" font-family="Times,serif" font-size="14.00">zlib</text>
</g>
<!-- pcre&#45;&gt;zlib -->
<g id="edge20" class="edge">
<title>pcre&#45;&gt;zlib</title>
<path fill="none" stroke="#8b4513" d="M215.43,-874.33C192.61,-866.85 159.54,-852.46 141.14,-828 127.82,-810.29 123.39,-785.27 122.11,-766.27"/>
<polygon fill="#8b4513" stroke="#8b4513" points="125.6,-765.99 121.68,-756.15 118.61,-766.28 125.6,-765.99"/>
</g>
<!-- bzip2 -->
<g id="node16" class="node">
<title>bzip2</title>
<ellipse fill="green" stroke="green" cx="181.14" cy="-810" rx="30.59" ry="18"/>
<text text-anchor="middle" x="181.14" y="-806.3" font-family="Times,serif" font-size="14.00">bzip2</text>
</g>
<!-- pcre&#45;&gt;bzip2 -->
<g id="edge22" class="edge">
<title>pcre&#45;&gt;bzip2</title>
<path fill="none" stroke="#8b4513" d="M227.34,-865.81C219.64,-856.67 209.67,-844.85 200.97,-834.52"/>
<polygon fill="#8b4513" stroke="#8b4513" points="203.45,-832.03 194.33,-826.64 198.1,-836.55 203.45,-832.03"/>
</g>
<!-- bash -->
<g id="node18" class="node">
<title>bash</title>
<ellipse fill="green" stroke="green" cx="439.14" cy="-666" rx="27" ry="18"/>
<text text-anchor="middle" x="439.14" y="-662.3" font-family="Times,serif" font-size="14.00">bash</text>
</g>
<!-- pcre&#45;&gt;bash -->
<g id="edge30" class="edge">
<title>pcre&#45;&gt;bash</title>
<path fill="none" stroke="#8b4513" d="M265.99,-875.73C293.43,-868.95 336.56,-854.71 364.14,-828 402.88,-790.48 423.7,-729.07 432.99,-693.94"/>
<polygon fill="#8b4513" stroke="#8b4513" points="436.47,-694.48 435.52,-683.93 429.68,-692.77 436.47,-694.48"/>
</g>
<!-- readline&#45;&gt;glibc -->
<g id="edge16" class="edge">
<title>readline&#45;&gt;glibc</title>
<path fill="none" stroke="#8b4513" d="M357.75,-511.9C336.42,-504.04 310.12,-490.33 297.14,-468 240.79,-371.03 357.87,-317.49 310.14,-216 303.06,-200.94 289.36,-188.69 276.45,-179.77"/>
<polygon fill="#8b4513" stroke="#8b4513" points="278.03,-176.63 267.73,-174.14 274.23,-182.51 278.03,-176.63"/>
</g>
<!-- readline&#45;&gt;ncurses -->
<g id="edge17" class="edge">
<title>readline&#45;&gt;ncurses</title>
<path fill="none" stroke="#8b4513" d="M422.53,-511.9C443.86,-504.04 470.16,-490.33 483.14,-468 495.39,-446.92 481.71,-421.01 467.65,-402.59"/>
<polygon fill="#8b4513" stroke="#8b4513" points="470.27,-400.27 461.26,-394.7 464.84,-404.68 470.27,-400.27"/>
</g>
<!-- libncursesw.so=6&#45;64 -->
<g id="node14" class="node">
<title>libncursesw.so=6&#45;64</title>
<ellipse fill="green" stroke="green" cx="390.14" cy="-450" rx="83.69" ry="18"/>
<text text-anchor="middle" x="390.14" y="-446.3" font-family="Times,serif" font-size="14.00">libncursesw.so=6&#45;64</text>
</g>
<!-- readline&#45;&gt;libncursesw.so=6&#45;64 -->
<g id="edge18" class="edge">
<title>readline&#45;&gt;libncursesw.so=6&#45;64</title>
<path fill="none" stroke="#8b4513" d="M390.14,-503.7C390.14,-495.98 390.14,-486.71 390.14,-478.11"/>
<polygon fill="#8b4513" stroke="#8b4513" points="393.64,-478.1 390.14,-468.1 386.64,-478.1 393.64,-478.1"/>
</g>
<!-- libncursesw.so=6&#45;64&#45;&gt;ncurses -->
<g id="edge19" class="edge">
<title>libncursesw.so=6&#45;64&#45;&gt;ncurses</title>
<path fill="none" stroke="grey" d="M403.7,-432.05C412.63,-420.89 424.27,-406.34 433.1,-395.31"/>
</g>
<!-- zlib&#45;&gt;glibc -->
<g id="edge21" class="edge">
<title>zlib&#45;&gt;glibc</title>
<path fill="none" stroke="#8b4513" d="M122.54,-719.95C123.12,-693.29 124.14,-640.12 124.14,-595 124.14,-595 124.14,-595 124.14,-305 124.14,-263.91 123.55,-248.15 149.14,-216 164.93,-196.17 190.24,-182.69 211.06,-174.29"/>
<polygon fill="#8b4513" stroke="#8b4513" points="212.45,-177.51 220.55,-170.68 209.96,-170.97 212.45,-177.51"/>
</g>
<!-- bzip2&#45;&gt;glibc -->
<g id="edge23" class="edge">
<title>bzip2&#45;&gt;glibc</title>
<path fill="none" stroke="#8b4513" d="M180.23,-791.92C177.94,-747.57 172.14,-625.09 172.14,-523 172.14,-523 172.14,-523 172.14,-449 172.14,-345.35 136.03,-308.83 182.14,-216 189.55,-201.09 203.28,-188.86 216.13,-179.91"/>
<polygon fill="#8b4513" stroke="#8b4513" points="218.33,-182.65 224.79,-174.25 214.51,-176.79 218.33,-182.65"/>
</g>
<!-- sh -->
<g id="node17" class="node">
<title>sh</title>
<ellipse fill="green" stroke="green" cx="295.14" cy="-738" rx="27" ry="18"/>
<text text-anchor="middle" x="295.14" y="-734.3" font-family="Times,serif" font-size="14.00">sh</text>
</g>
<!-- bzip2&#45;&gt;sh -->
<g id="edge24" class="edge">
<title>bzip2&#45;&gt;sh</title>
<path fill="none" stroke="#8b4513" d="M201.52,-796.49C219.82,-785.25 246.85,-768.65 267.17,-756.18"/>
<polygon fill="#8b4513" stroke="#8b4513" points="269.01,-759.15 275.7,-750.94 265.34,-753.19 269.01,-759.15"/>
</g>
<!-- sh&#45;&gt;bash -->
<g id="edge25" class="edge">
<title>sh&#45;&gt;bash</title>
<path fill="none" stroke="grey" d="M316.39,-726.67C343.61,-713.44 390.54,-690.63 417.81,-677.37"/>
</g>
<!-- bash&#45;&gt;glibc -->
<g id="edge28" class="edge">
<title>bash&#45;&gt;glibc</title>
<path fill="none" stroke="#8b4513" d="M461.94,-656.2C482.15,-647.47 511.44,-632.44 531.14,-612 562.18,-579.79 578.14,-567.73 578.14,-523 578.14,-523 578.14,-523 578.14,-305 578.14,-178.64 372.34,-163.23 284.8,-162.39"/>
<polygon fill="#8b4513" stroke="#8b4513" points="284.75,-158.89 274.73,-162.35 284.72,-165.89 284.75,-158.89"/>
</g>
<!-- bash&#45;&gt;ncurses -->
<g id="edge29" class="edge">
<title>bash&#45;&gt;ncurses</title>
<path fill="none" stroke="#8b4513" d="M460.98,-655.27C477.57,-646.56 499.17,-632.06 509.14,-612 525.17,-579.75 551.39,-544.17 500.14,-432 494.46,-419.56 484.46,-408.46 474.6,-399.68"/>
<polygon fill="#8b4513" stroke="#8b4513" points="476.72,-396.9 466.8,-393.16 472.22,-402.26 476.72,-396.9"/>
</g>
<!-- readline&gt;=7.0 -->
<g id="node19" class="node">
<title>readline&gt;=7.0</title>
<ellipse fill="green" stroke="green" cx="439.14" cy="-594" rx="61.19" ry="18"/>
<text text-anchor="middle" x="439.14" y="-590.3" font-family="Times,serif" font-size="14.00">readline&gt;=7.0</text>
</g>
<!-- bash&#45;&gt;readline&gt;=7.0 -->
<g id="edge26" class="edge">
<title>bash&#45;&gt;readline&gt;=7.0</title>
<path fill="none" stroke="#8b4513" d="M439.14,-647.7C439.14,-639.98 439.14,-630.71 439.14,-622.11"/>
<polygon fill="#8b4513" stroke="#8b4513" points="442.64,-622.1 439.14,-612.1 435.64,-622.1 442.64,-622.1"/>
</g>
<!-- readline&gt;=7.0&#45;&gt;readline -->
<g id="edge27" class="edge">
<title>readline&gt;=7.0&#45;&gt;readline</title>
<path fill="none" stroke="grey" d="M427.28,-576.05C419.46,-564.89 409.28,-550.34 401.56,-539.31"/>
</g>
</g>
</svg>
