<?xml version="1.0" encoding="UTF-8" standalone="no"?>
<!DOCTYPE svg PUBLIC "-//W3C//DTD SVG 1.1//EN"
 "http://www.w3.org/Graphics/SVG/1.1/DTD/svg11.dtd">
<!-- Generated by graphviz version 2.44.0 (0)
 -->
<!-- Title: G Pages: 1 -->
<svg width="748pt" height="1196pt"
 viewBox="0.00 0.00 747.74 1196.00" xmlns="http://www.w3.org/2000/svg" xmlns:xlink="http://www.w3.org/1999/xlink">
<g id="graph0" class="graph" transform="scale(1 1) rotate(0) translate(4 1192)">
<title>G</title>
<polygon fill="white" stroke="transparent" points="-4,4 -4,-1192 743.74,-1192 743.74,4 -4,4"/>
<!-- START -->
<g id="node1" class="node">
<title>START</title>
<ellipse fill="red" stroke="red" cx="468.74" cy="-1170" rx="38.19" ry="18"/>
<text text-anchor="middle" x="468.74" y="-1166.3" font-family="Times,serif" font-size="14.00">START</text>
</g>
<!-- libarchive -->
<g id="node2" class="node">
<title>libarchive</title>
<ellipse fill="green" stroke="green" cx="468.74" cy="-1098" rx="46.29" ry="18"/>
<text text-anchor="middle" x="468.74" y="-1094.3" font-family="Times,serif" font-size="14.00">libarchive</text>
</g>
<!-- START&#45;&gt;libarchive -->
<g id="edge1" class="edge">
<title>START&#45;&gt;libarchive</title>
<path fill="none" stroke="black" d="M468.74,-1151.7C468.74,-1143.98 468.74,-1134.71 468.74,-1126.11"/>
<polygon fill="black" stroke="black" points="472.24,-1126.1 468.74,-1116.1 465.24,-1126.1 472.24,-1126.1"/>
</g>
<!-- acl -->
<g id="node3" class="node">
<title>acl</title>
<ellipse fill="green" stroke="green" cx="109.74" cy="-954" rx="27" ry="18"/>
<text text-anchor="middle" x="109.74" y="-950.3" font-family="Times,serif" font-size="14.00">acl</text>
</g>
<!-- libarchive&#45;&gt;acl -->
<g id="edge2" class="edge">
<title>libarchive&#45;&gt;acl</title>
<path fill="none" stroke="#8b4513" d="M424.16,-1092.97C352.75,-1085.85 216.58,-1069.37 175.74,-1044 151.34,-1028.84 132.95,-1001.08 121.86,-980.58"/>
<polygon fill="#8b4513" stroke="#8b4513" points="124.85,-978.74 117.14,-971.46 118.63,-981.95 124.85,-978.74"/>
</g>
<!-- libacl.so=1&#45;64 -->
<g id="node11" class="node">
<title>libacl.so=1&#45;64</title>
<ellipse fill="green" stroke="green" cx="61.74" cy="-1026" rx="61.99" ry="18"/>
<text text-anchor="middle" x="61.74" y="-1022.3" font-family="Times,serif" font-size="14.00">libacl.so=1&#45;64</text>
</g>
<!-- libarchive&#45;&gt;libacl.so=1&#45;64 -->
<g id="edge10" class="edge">
<title>libarchive&#45;&gt;libacl.so=1&#45;64</title>
<path fill="none" stroke="#8b4513" d="M426.01,-1091.01C362.81,-1081.96 240.77,-1063.75 137.74,-1044 131.47,-1042.8 124.92,-1041.46 118.42,-1040.08"/>
<polygon fill="#8b4513" stroke="#8b4513" points="118.79,-1036.58 108.27,-1037.88 117.31,-1043.42 118.79,-1036.58"/>
</g>
<!-- bzip2 -->
<g id="node12" class="node">
<title>bzip2</title>
<ellipse fill="green" stroke="green" cx="168.74" cy="-810" rx="30.59" ry="18"/>
<text text-anchor="middle" x="168.74" y="-806.3" font-family="Times,serif" font-size="14.00">bzip2</text>
</g>
<!-- libarchive&#45;&gt;bzip2 -->
<g id="edge12" class="edge">
<title>libarchive&#45;&gt;bzip2</title>
<path fill="none" stroke="#8b4513" d="M425.39,-1091.8C389.16,-1085.59 337.78,-1072.24 301.74,-1044 231.73,-989.12 192.16,-886.45 176.57,-837.83"/>
<polygon fill="#8b4513" stroke="#8b4513" points="179.84,-836.55 173.53,-828.04 173.16,-838.63 179.84,-836.55"/>
</g>
<!-- expat -->
<g id="node21" class="node">
<title>expat</title>
<ellipse fill="green" stroke="green" cx="638.74" cy="-738" rx="29.8" ry="18"/>
<text text-anchor="middle" x="638.74" y="-734.3" font-family="Times,serif" font-size="14.00">expat</text>
</g>
<!-- libarchive&#45;&gt;expat -->
<g id="edge28" class="edge">
<title>libarchive&#45;&gt;expat</title>
<path fill="none" stroke="#8b4513" d="M486.15,-1080.93C510.75,-1056.36 552.74,-1006.84 552.74,-955 552.74,-955 552.74,-955 552.74,-881 552.74,-832.47 589.95,-786.35 615.42,-760.46"/>
<polygon fill="#8b4513" stroke="#8b4513" points="617.91,-762.92 622.57,-753.41 612.99,-757.94 617.91,-762.92"/>
</g>
<!-- lz4 -->
<g id="node22" class="node">
<title>lz4</title>
<ellipse fill="green" stroke="green" cx="640.74" cy="-954" rx="27" ry="18"/>
<text text-anchor="middle" x="640.74" y="-950.3" font-family="Times,serif" font-size="14.00">lz4</text>
</g>
<!-- libarchive&#45;&gt;lz4 -->
<g id="edge30" class="edge">
<title>libarchive&#45;&gt;lz4</title>
<path fill="none" stroke="#8b4513" d="M499.3,-1084.18C519.62,-1074.79 546.25,-1060.8 566.74,-1044 589.79,-1025.11 610.97,-998.24 624.71,-978.98"/>
<polygon fill="#8b4513" stroke="#8b4513" points="627.62,-980.92 630.48,-970.72 621.88,-976.91 627.62,-980.92"/>
</g>
<!-- openssl -->
<g id="node23" class="node">
<title>openssl</title>
<ellipse fill="green" stroke="green" cx="347.74" cy="-1026" rx="37.09" ry="18"/>
<text text-anchor="middle" x="347.74" y="-1022.3" font-family="Times,serif" font-size="14.00">openssl</text>
</g>
<!-- libarchive&#45;&gt;openssl -->
<g id="edge32" class="edge">
<title>libarchive&#45;&gt;openssl</title>
<path fill="none" stroke="#8b4513" d="M443.97,-1082.67C425.38,-1071.91 399.78,-1057.11 379.66,-1045.47"/>
<polygon fill="#8b4513" stroke="#8b4513" points="381.26,-1042.34 370.85,-1040.37 377.75,-1048.4 381.26,-1042.34"/>
</g>
<!-- xz -->
<g id="node28" class="node">
<title>xz</title>
<ellipse fill="green" stroke="green" cx="468.74" cy="-954" rx="27" ry="18"/>
<text text-anchor="middle" x="468.74" y="-950.3" font-family="Times,serif" font-size="14.00">xz</text>
</g>
<!-- libarchive&#45;&gt;xz -->
<g id="edge44" class="edge">
<title>libarchive&#45;&gt;xz</title>
<path fill="none" stroke="#8b4513" d="M468.74,-1079.87C468.74,-1055.67 468.74,-1011.21 468.74,-982.39"/>
<polygon fill="#8b4513" stroke="#8b4513" points="472.24,-982.19 468.74,-972.19 465.24,-982.19 472.24,-982.19"/>
</g>
<!-- zlib -->
<g id="node29" class="node">
<title>zlib</title>
<ellipse fill="green" stroke="green" cx="712.74" cy="-954" rx="27" ry="18"/>
<text text-anchor="middle" x="712.74" y="-950.3" font-family="Times,serif" font-size="14.00">zlib</text>
</g>
<!-- libarchive&#45;&gt;zlib -->
<g id="edge47" class="edge">
<title>libarchive&#45;&gt;zlib</title>
<path fill="none" stroke="#8b4513" d="M514.93,-1097.66C562.51,-1095.85 636.01,-1085.74 681.74,-1044 699.16,-1028.11 706.79,-1001.91 710.14,-982.04"/>
<polygon fill="#8b4513" stroke="#8b4513" points="713.62,-982.43 711.56,-972.04 706.68,-981.44 713.62,-982.43"/>
</g>
<!-- zstd -->
<g id="node30" class="node">
<title>zstd</title>
<ellipse fill="green" stroke="green" cx="645.74" cy="-1026" rx="27" ry="18"/>
<text text-anchor="middle" x="645.74" y="-1022.3" font-family="Times,serif" font-size="14.00">zstd</text>
</g>
<!-- libarchive&#45;&gt;zstd -->
<g id="edge49" class="edge">
<title>libarchive&#45;&gt;zstd</title>
<path fill="none" stroke="#8b4513" d="M500.42,-1084.88C528.03,-1074.26 569.13,-1058.32 604.74,-1044 607.65,-1042.83 610.67,-1041.6 613.7,-1040.37"/>
<polygon fill="#8b4513" stroke="#8b4513" points="615.31,-1043.49 623.22,-1036.44 612.64,-1037.01 615.31,-1043.49"/>
</g>
<!-- attr -->
<g id="node4" class="node">
<title>attr</title>
<ellipse fill="green" stroke="green" cx="111.74" cy="-666" rx="27" ry="18"/>
<text text-anchor="middle" x="111.74" y="-662.3" font-family="Times,serif" font-size="14.00">attr</text>
</g>
<!-- acl&#45;&gt;attr -->
<g id="edge3" class="edge">
<title>acl&#45;&gt;attr</title>
<path fill="none" stroke="#8b4513" d="M109.86,-935.97C110.2,-888.29 111.14,-753.18 111.55,-694.63"/>
<polygon fill="#8b4513" stroke="#8b4513" points="115.05,-694.33 111.62,-684.31 108.05,-694.28 115.05,-694.33"/>
</g>
<!-- glibc -->
<g id="node5" class="node">
<title>glibc</title>
<ellipse fill="green" stroke="green" cx="544.74" cy="-162" rx="28.7" ry="18"/>
<text text-anchor="middle" x="544.74" y="-158.3" font-family="Times,serif" font-size="14.00">glibc</text>
</g>
<!-- attr&#45;&gt;glibc -->
<g id="edge4" class="edge">
<title>attr&#45;&gt;glibc</title>
<path fill="none" stroke="#8b4513" d="M113.92,-647.98C117.12,-621.37 122.74,-568.25 122.74,-523 122.74,-523 122.74,-523 122.74,-305 122.74,-262.97 122.07,-242.44 154.74,-216 208.15,-172.78 418.26,-164.76 505.97,-163.3"/>
<polygon fill="#8b4513" stroke="#8b4513" points="506.09,-166.8 516.04,-163.16 505.99,-159.8 506.09,-166.8"/>
</g>
<!-- linux&#45;api&#45;headers&gt;=4.10 -->
<g id="node6" class="node">
<title>linux&#45;api&#45;headers&gt;=4.10</title>
<ellipse fill="green" stroke="green" cx="396.74" cy="-90" rx="98.28" ry="18"/>
<text text-anchor="middle" x="396.74" y="-86.3" font-family="Times,serif" font-size="14.00">linux&#45;api&#45;headers&gt;=4.10</text>
</g>
<!-- glibc&#45;&gt;linux&#45;api&#45;headers&gt;=4.10 -->
<g id="edge5" class="edge">
<title>glibc&#45;&gt;linux&#45;api&#45;headers&gt;=4.10</title>
<path fill="none" stroke="#8b4513" d="M522.59,-150.52C500.8,-140.22 466.97,-124.22 439.87,-111.4"/>
<polygon fill="#8b4513" stroke="#8b4513" points="441.14,-108.12 430.6,-107.01 438.14,-114.45 441.14,-108.12"/>
</g>
<!-- tzdata -->
<g id="node8" class="node">
<title>tzdata</title>
<ellipse fill="green" stroke="green" cx="544.74" cy="-90" rx="31.7" ry="18"/>
<text text-anchor="middle" x="544.74" y="-86.3" font-family="Times,serif" font-size="14.00">tzdata</text>
</g>
<!-- glibc&#45;&gt;tzdata -->
<g id="edge7" class="edge">
<title>glibc&#45;&gt;tzdata</title>
<path fill="none" stroke="#8b4513" d="M544.74,-143.7C544.74,-135.98 544.74,-126.71 544.74,-118.11"/>
<polygon fill="#8b4513" stroke="#8b4513" points="548.24,-118.1 544.74,-108.1 541.24,-118.1 548.24,-118.1"/>
</g>
<!-- filesystem -->
<g id="node9" class="node">
<title>filesystem</title>
<ellipse fill="green" stroke="green" cx="641.74" cy="-90" rx="46.59" ry="18"/>
<text text-anchor="middle" x="641.74" y="-86.3" font-family="Times,serif" font-size="14.00">filesystem</text>
</g>
<!-- glibc&#45;&gt;filesystem -->
<g id="edge8" class="edge">
<title>glibc&#45;&gt;filesystem</title>
<path fill="none" stroke="#8b4513" d="M562.99,-147.83C576.79,-137.88 596.03,-123.99 612.04,-112.44"/>
<polygon fill="#8b4513" stroke="#8b4513" points="614.48,-114.99 620.54,-106.3 610.38,-109.31 614.48,-114.99"/>
</g>
<!-- linux&#45;api&#45;headers -->
<g id="node7" class="node">
<title>linux&#45;api&#45;headers</title>
<ellipse fill="green" stroke="green" cx="396.74" cy="-18" rx="71.49" ry="18"/>
<text text-anchor="middle" x="396.74" y="-14.3" font-family="Times,serif" font-size="14.00">linux&#45;api&#45;headers</text>
</g>
<!-- linux&#45;api&#45;headers&gt;=4.10&#45;&gt;linux&#45;api&#45;headers -->
<g id="edge6" class="edge">
<title>linux&#45;api&#45;headers&gt;=4.10&#45;&gt;linux&#45;api&#45;headers</title>
<path fill="none" stroke="grey" d="M396.74,-71.7C396.74,-60.85 396.74,-46.92 396.74,-36.1"/>
</g>
<!-- iana&#45;etc -->
<g id="node10" class="node">
<title>iana&#45;etc</title>
<ellipse fill="green" stroke="green" cx="641.74" cy="-18" rx="38.19" ry="18"/>
<text text-anchor="middle" x="641.74" y="-14.3" font-family="Times,serif" font-size="14.00">iana&#45;etc</text>
</g>
<!-- filesystem&#45;&gt;iana&#45;etc -->
<g id="edge9" class="edge">
<title>filesystem&#45;&gt;iana&#45;etc</title>
<path fill="none" stroke="#8b4513" d="M641.74,-71.7C641.74,-63.98 641.74,-54.71 641.74,-46.11"/>
<polygon fill="#8b4513" stroke="#8b4513" points="645.24,-46.1 641.74,-36.1 638.24,-46.1 645.24,-46.1"/>
</g>
<!-- libacl.so=1&#45;64&#45;&gt;acl -->
<g id="edge11" class="edge">
<title>libacl.so=1&#45;64&#45;&gt;acl</title>
<path fill="none" stroke="grey" d="M73.36,-1008.05C81.13,-996.73 91.28,-981.92 98.89,-970.83"/>
</g>
<!-- bzip2&#45;&gt;glibc -->
<g id="edge13" class="edge">
<title>bzip2&#45;&gt;glibc</title>
<path fill="none" stroke="#8b4513" d="M168.74,-791.95C168.74,-765.29 168.74,-712.11 168.74,-667 168.74,-667 168.74,-667 168.74,-305 168.74,-264.03 162.17,-243.27 192.74,-216 238.37,-175.3 423.75,-165.85 505.59,-163.66"/>
<polygon fill="#8b4513" stroke="#8b4513" points="506.06,-167.15 515.97,-163.41 505.88,-160.15 506.06,-167.15"/>
</g>
<!-- sh -->
<g id="node13" class="node">
<title>sh</title>
<ellipse fill="green" stroke="green" cx="432.74" cy="-738" rx="27" ry="18"/>
<text text-anchor="middle" x="432.74" y="-734.3" font-family="Times,serif" font-size="14.00">sh</text>
</g>
<!-- bzip2&#45;&gt;sh -->
<g id="edge14" class="edge">
<title>bzip2&#45;&gt;sh</title>
<path fill="none" stroke="#8b4513" d="M196,-801.77C244.29,-788.97 344.79,-762.32 397.98,-748.22"/>
<polygon fill="#8b4513" stroke="#8b4513" points="399.19,-751.52 407.96,-745.57 397.4,-744.75 399.19,-751.52"/>
</g>
<!-- bash -->
<g id="node14" class="node">
<title>bash</title>
<ellipse fill="green" stroke="green" cx="432.74" cy="-666" rx="27" ry="18"/>
<text text-anchor="middle" x="432.74" y="-662.3" font-family="Times,serif" font-size="14.00">bash</text>
</g>
<!-- sh&#45;&gt;bash -->
<g id="edge15" class="edge">
<title>sh&#45;&gt;bash</title>
<path fill="none" stroke="grey" d="M416.37,-723.5C411.2,-711.11 411.2,-692.84 416.39,-680.46"/>
</g>
<!-- sh&#45;&gt;bash -->
<g id="edge38" class="edge">
<title>sh&#45;&gt;bash</title>
<path fill="none" stroke="grey" d="M426.9,-720.41C425.7,-709.41 425.69,-695.03 426.87,-683.96"/>
</g>
<!-- sh&#45;&gt;bash -->
<g id="edge42" class="edge">
<title>sh&#45;&gt;bash</title>
<path fill="none" stroke="grey" d="M438.58,-720.41C439.78,-709.41 439.8,-695.03 438.62,-683.96"/>
</g>
<!-- sh&#45;&gt;bash -->
<g id="edge46" class="edge">
<title>sh&#45;&gt;bash</title>
<path fill="none" stroke="grey" d="M449.12,-723.5C454.29,-711.11 454.29,-692.84 449.1,-680.46"/>
</g>
<!-- bash&#45;&gt;glibc -->
<g id="edge26" class="edge">
<title>bash&#45;&gt;glibc</title>
<path fill="none" stroke="#8b4513" d="M455.53,-656.01C497.49,-637.77 582.74,-592.21 582.74,-523 582.74,-523 582.74,-523 582.74,-305 582.74,-263.41 567.34,-217.22 556.15,-189.14"/>
<polygon fill="#8b4513" stroke="#8b4513" points="559.29,-187.58 552.25,-179.66 552.82,-190.24 559.29,-187.58"/>
</g>
<!-- readline&gt;=7.0 -->
<g id="node15" class="node">
<title>readline&gt;=7.0</title>
<ellipse fill="green" stroke="green" cx="432.74" cy="-594" rx="61.19" ry="18"/>
<text text-anchor="middle" x="432.74" y="-590.3" font-family="Times,serif" font-size="14.00">readline&gt;=7.0</text>
</g>
<!-- bash&#45;&gt;readline&gt;=7.0 -->
<g id="edge16" class="edge">
<title>bash&#45;&gt;readline&gt;=7.0</title>
<path fill="none" stroke="#8b4513" d="M432.74,-647.7C432.74,-639.98 432.74,-630.71 432.74,-622.11"/>
<polygon fill="#8b4513" stroke="#8b4513" points="436.24,-622.1 432.74,-612.1 429.24,-622.1 436.24,-622.1"/>
</g>
<!-- ncurses -->
<g id="node17" class="node">
<title>ncurses</title>
<ellipse fill="green" stroke="green" cx="333.74" cy="-378" rx="37.09" ry="18"/>
<text text-anchor="middle" x="333.74" y="-374.3" font-family="Times,serif" font-size="14.00">ncurses</text>
</g>
<!-- bash&#45;&gt;ncurses -->
<g id="edge27" class="edge">
<title>bash&#45;&gt;ncurses</title>
<path fill="none" stroke="#8b4513" d="M411.94,-654.29C396.16,-645.13 375.13,-630.49 362.74,-612 317.23,-544.08 317.88,-513.47 324.74,-432 325.46,-423.5 326.81,-414.31 328.26,-406.01"/>
<polygon fill="#8b4513" stroke="#8b4513" points="331.71,-406.56 330.09,-396.09 324.83,-405.29 331.71,-406.56"/>
</g>
<!-- readline -->
<g id="node16" class="node">
<title>readline</title>
<ellipse fill="green" stroke="green" cx="432.74" cy="-522" rx="38.99" ry="18"/>
<text text-anchor="middle" x="432.74" y="-518.3" font-family="Times,serif" font-size="14.00">readline</text>
</g>
<!-- readline&gt;=7.0&#45;&gt;readline -->
<g id="edge17" class="edge">
<title>readline&gt;=7.0&#45;&gt;readline</title>
<path fill="none" stroke="grey" d="M432.74,-575.7C432.74,-564.85 432.74,-550.92 432.74,-540.1"/>
</g>
<!-- readline&#45;&gt;glibc -->
<g id="edge18" class="edge">
<title>readline&#45;&gt;glibc</title>
<path fill="none" stroke="#8b4513" d="M463.71,-510.97C484.39,-502.68 510.49,-488.85 525.74,-468 549.62,-435.36 544.74,-419.45 544.74,-379 544.74,-379 544.74,-379 544.74,-305 544.74,-265 544.74,-218.65 544.74,-190.08"/>
<polygon fill="#8b4513" stroke="#8b4513" points="548.24,-190.05 544.74,-180.05 541.24,-190.05 548.24,-190.05"/>
</g>
<!-- readline&#45;&gt;ncurses -->
<g id="edge19" class="edge">
<title>readline&#45;&gt;ncurses</title>
<path fill="none" stroke="#8b4513" d="M400.82,-511.62C379.71,-503.63 353.47,-489.88 339.74,-468 328.27,-449.71 327.52,-424.94 329.21,-406.18"/>
<polygon fill="#8b4513" stroke="#8b4513" points="332.69,-406.53 330.38,-396.19 325.74,-405.71 332.69,-406.53"/>
</g>
<!-- libncursesw.so=6&#45;64 -->
<g id="node20" class="node">
<title>libncursesw.so=6&#45;64</title>
<ellipse fill="green" stroke="green" cx="432.74" cy="-450" rx="83.69" ry="18"/>
<text text-anchor="middle" x="432.74" y="-446.3" font-family="Times,serif" font-size="14.00">libncursesw.so=6&#45;64</text>
</g>
<!-- readline&#45;&gt;libncursesw.so=6&#45;64 -->
<g id="edge24" class="edge">
<title>readline&#45;&gt;libncursesw.so=6&#45;64</title>
<path fill="none" stroke="#8b4513" d="M432.74,-503.7C432.74,-495.98 432.74,-486.71 432.74,-478.11"/>
<polygon fill="#8b4513" stroke="#8b4513" points="436.24,-478.1 432.74,-468.1 429.24,-478.1 436.24,-478.1"/>
</g>
<!-- ncurses&#45;&gt;glibc -->
<g id="edge20" class="edge">
<title>ncurses&#45;&gt;glibc</title>
<path fill="none" stroke="#8b4513" d="M349.26,-361.26C386.43,-323.57 480.64,-228.02 523.24,-184.81"/>
<polygon fill="#8b4513" stroke="#8b4513" points="525.8,-187.2 530.33,-177.62 520.82,-182.28 525.8,-187.2"/>
</g>
<!-- gcc&#45;libs -->
<g id="node18" class="node">
<title>gcc&#45;libs</title>
<ellipse fill="green" stroke="green" cx="333.74" cy="-306" rx="38.19" ry="18"/>
<text text-anchor="middle" x="333.74" y="-302.3" font-family="Times,serif" font-size="14.00">gcc&#45;libs</text>
</g>
<!-- ncurses&#45;&gt;gcc&#45;libs -->
<g id="edge21" class="edge">
<title>ncurses&#45;&gt;gcc&#45;libs</title>
<path fill="none" stroke="#8b4513" d="M333.74,-359.7C333.74,-351.98 333.74,-342.71 333.74,-334.11"/>
<polygon fill="#8b4513" stroke="#8b4513" points="337.24,-334.1 333.74,-324.1 330.24,-334.1 337.24,-334.1"/>
</g>
<!-- glibc&gt;=2.27 -->
<g id="node19" class="node">
<title>glibc&gt;=2.27</title>
<ellipse fill="green" stroke="green" cx="359.74" cy="-234" rx="54.69" ry="18"/>
<text text-anchor="middle" x="359.74" y="-230.3" font-family="Times,serif" font-size="14.00">glibc&gt;=2.27</text>
</g>
<!-- gcc&#45;libs&#45;&gt;glibc&gt;=2.27 -->
<g id="edge22" class="edge">
<title>gcc&#45;libs&#45;&gt;glibc&gt;=2.27</title>
<path fill="none" stroke="#8b4513" d="M340.04,-288.05C342.96,-280.18 346.52,-270.62 349.79,-261.79"/>
<polygon fill="#8b4513" stroke="#8b4513" points="353.13,-262.87 353.33,-252.28 346.57,-260.43 353.13,-262.87"/>
</g>
<!-- glibc&gt;=2.27&#45;&gt;glibc -->
<g id="edge23" class="edge">
<title>glibc&gt;=2.27&#45;&gt;glibc</title>
<path fill="none" stroke="grey" d="M394.11,-220C430.99,-206.04 488.62,-184.24 520.86,-172.04"/>
</g>
<!-- libncursesw.so=6&#45;64&#45;&gt;ncurses -->
<g id="edge25" class="edge">
<title>libncursesw.so=6&#45;64&#45;&gt;ncurses</title>
<path fill="none" stroke="grey" d="M409.53,-432.59C392.62,-420.63 369.93,-404.59 353.8,-393.18"/>
</g>
<!-- expat&#45;&gt;glibc -->
<g id="edge29" class="edge">
<title>expat&#45;&gt;glibc</title>
<path fill="none" stroke="#8b4513" d="M642.7,-720.06C648.52,-693.55 658.74,-640.56 658.74,-595 658.74,-595 658.74,-595 658.74,-305 658.74,-264.03 659.57,-248.59 634.74,-216 620.55,-197.37 597.77,-184.04 578.67,-175.42"/>
<polygon fill="#8b4513" stroke="#8b4513" points="579.94,-172.15 569.37,-171.44 577.19,-178.59 579.94,-172.15"/>
</g>
<!-- lz4&#45;&gt;glibc -->
<g id="edge31" class="edge">
<title>lz4&#45;&gt;glibc</title>
<path fill="none" stroke="#8b4513" d="M651.54,-937.19C667.81,-911.79 696.74,-859.76 696.74,-811 696.74,-811 696.74,-811 696.74,-305 696.74,-261.81 687.89,-246.93 657.74,-216 636.74,-194.45 605.27,-180.69 580.88,-172.6"/>
<polygon fill="#8b4513" stroke="#8b4513" points="581.83,-169.23 571.24,-169.58 579.73,-175.91 581.83,-169.23"/>
</g>
<!-- perl -->
<g id="node24" class="node">
<title>perl</title>
<ellipse fill="green" stroke="green" cx="308.74" cy="-954" rx="27" ry="18"/>
<text text-anchor="middle" x="308.74" y="-950.3" font-family="Times,serif" font-size="14.00">perl</text>
</g>
<!-- openssl&#45;&gt;perl -->
<g id="edge33" class="edge">
<title>openssl&#45;&gt;perl</title>
<path fill="none" stroke="#8b4513" d="M338.5,-1008.41C333.84,-1000.04 328.08,-989.71 322.88,-980.37"/>
<polygon fill="#8b4513" stroke="#8b4513" points="325.85,-978.5 317.92,-971.47 319.73,-981.91 325.85,-978.5"/>
</g>
<!-- perl&#45;&gt;glibc -->
<g id="edge43" class="edge">
<title>perl&#45;&gt;glibc</title>
<path fill="none" stroke="#8b4513" d="M298.3,-937.12C291.72,-926.77 283.25,-912.85 276.74,-900 227.87,-803.55 206.74,-775.13 206.74,-667 206.74,-667 206.74,-667 206.74,-305 206.74,-176.56 416.77,-162.38 505.7,-162.13"/>
<polygon fill="#8b4513" stroke="#8b4513" points="505.92,-165.63 515.93,-162.16 505.94,-158.63 505.92,-165.63"/>
</g>
<!-- gdbm&gt;=1.17 -->
<g id="node25" class="node">
<title>gdbm&gt;=1.17</title>
<ellipse fill="green" stroke="green" cx="351.74" cy="-882" rx="57.69" ry="18"/>
<text text-anchor="middle" x="351.74" y="-878.3" font-family="Times,serif" font-size="14.00">gdbm&gt;=1.17</text>
</g>
<!-- perl&#45;&gt;gdbm&gt;=1.17 -->
<g id="edge34" class="edge">
<title>perl&#45;&gt;gdbm&gt;=1.17</title>
<path fill="none" stroke="#8b4513" d="M318.5,-937.12C323.68,-928.68 330.18,-918.1 336.05,-908.55"/>
<polygon fill="#8b4513" stroke="#8b4513" points="339.17,-910.15 341.43,-899.8 333.21,-906.49 339.17,-910.15"/>
</g>
<!-- db -->
<g id="node27" class="node">
<title>db</title>
<ellipse fill="green" stroke="green" cx="282.74" cy="-810" rx="27" ry="18"/>
<text text-anchor="middle" x="282.74" y="-806.3" font-family="Times,serif" font-size="14.00">db</text>
</g>
<!-- perl&#45;&gt;db -->
<g id="edge39" class="edge">
<title>perl&#45;&gt;db</title>
<path fill="none" stroke="#8b4513" d="M299.39,-936.89C293.99,-926.69 287.7,-913 284.74,-900 280.09,-879.56 279.81,-855.8 280.57,-837.97"/>
<polygon fill="#8b4513" stroke="#8b4513" points="284.06,-838.16 281.13,-827.98 277.08,-837.77 284.06,-838.16"/>
</g>
<!-- gdbm -->
<g id="node26" class="node">
<title>gdbm</title>
<ellipse fill="green" stroke="green" cx="493.74" cy="-810" rx="31.4" ry="18"/>
<text text-anchor="middle" x="493.74" y="-806.3" font-family="Times,serif" font-size="14.00">gdbm</text>
</g>
<!-- gdbm&gt;=1.17&#45;&gt;gdbm -->
<g id="edge35" class="edge">
<title>gdbm&gt;=1.17&#45;&gt;gdbm</title>
<path fill="none" stroke="grey" d="M381.17,-866.5C407.81,-853.36 446.52,-834.28 470.9,-822.26"/>
</g>
<!-- gdbm&#45;&gt;glibc -->
<g id="edge36" class="edge">
<title>gdbm&#45;&gt;glibc</title>
<path fill="none" stroke="#8b4513" d="M506.39,-793.34C538.51,-751.91 620.74,-634.92 620.74,-523 620.74,-523 620.74,-523 620.74,-305 620.74,-258.12 588.15,-211.74 565.65,-185.31"/>
<polygon fill="#8b4513" stroke="#8b4513" points="568.26,-182.98 559.04,-177.77 563,-187.6 568.26,-182.98"/>
</g>
<!-- gdbm&#45;&gt;sh -->
<g id="edge37" class="edge">
<title>gdbm&#45;&gt;sh</title>
<path fill="none" stroke="#8b4513" d="M480.21,-793.46C472.04,-784.09 461.49,-771.99 452.42,-761.57"/>
<polygon fill="#8b4513" stroke="#8b4513" points="455.03,-759.25 445.83,-754.01 449.76,-763.85 455.03,-759.25"/>
</g>
<!-- db&#45;&gt;sh -->
<g id="edge41" class="edge">
<title>db&#45;&gt;sh</title>
<path fill="none" stroke="#8b4513" d="M304.24,-798.97C329.85,-787.02 372.85,-766.95 401.99,-753.35"/>
<polygon fill="#8b4513" stroke="#8b4513" points="403.71,-756.41 411.29,-749.01 400.75,-750.07 403.71,-756.41"/>
</g>
<!-- db&#45;&gt;gcc&#45;libs -->
<g id="edge40" class="edge">
<title>db&#45;&gt;gcc&#45;libs</title>
<path fill="none" stroke="#8b4513" d="M275.24,-792.34C264.16,-766.2 244.74,-713.7 244.74,-667 244.74,-667 244.74,-667 244.74,-449 244.74,-400.54 282.42,-355.03 308.74,-329.14"/>
<polygon fill="#8b4513" stroke="#8b4513" points="311.34,-331.5 316.16,-322.07 306.51,-326.44 311.34,-331.5"/>
</g>
<!-- xz&#45;&gt;sh -->
<g id="edge45" class="edge">
<title>xz&#45;&gt;sh</title>
<path fill="none" stroke="#8b4513" d="M465.86,-935.85C459.62,-898.74 444.81,-810.75 437.3,-766.05"/>
<polygon fill="#8b4513" stroke="#8b4513" points="440.7,-765.22 435.59,-755.94 433.8,-766.38 440.7,-765.22"/>
</g>
<!-- zlib&#45;&gt;glibc -->
<g id="edge48" class="edge">
<title>zlib&#45;&gt;glibc</title>
<path fill="none" stroke="#8b4513" d="M717.09,-936.08C723.5,-909.6 734.74,-856.65 734.74,-811 734.74,-811 734.74,-811 734.74,-305 734.74,-259.85 719.88,-245.55 685.74,-216 656.08,-190.32 612.75,-176.53 581.97,-169.52"/>
<polygon fill="#8b4513" stroke="#8b4513" points="582.56,-166.07 572.05,-167.4 581.09,-172.92 582.56,-166.07"/>
</g>
<!-- zstd&#45;&gt;lz4 -->
<g id="edge52" class="edge">
<title>zstd&#45;&gt;lz4</title>
<path fill="none" stroke="#8b4513" d="M644.51,-1007.7C643.96,-999.98 643.3,-990.71 642.68,-982.11"/>
<polygon fill="#8b4513" stroke="#8b4513" points="646.17,-981.83 641.97,-972.1 639.19,-982.33 646.17,-981.83"/>
</g>
<!-- zstd&#45;&gt;xz -->
<g id="edge51" class="edge">
<title>zstd&#45;&gt;xz</title>
<path fill="none" stroke="#8b4513" d="M622.97,-1015.99C591.9,-1003.71 536.08,-981.63 500.8,-967.68"/>
<polygon fill="#8b4513" stroke="#8b4513" points="502.02,-964.4 491.43,-963.97 499.45,-970.91 502.02,-964.4"/>
</g>
<!-- zstd&#45;&gt;zlib -->
<g id="edge50" class="edge">
<title>zstd&#45;&gt;zlib</title>
<path fill="none" stroke="#8b4513" d="M659.63,-1010.5C668.88,-1000.83 681.22,-987.94 691.67,-977.02"/>
<polygon fill="#8b4513" stroke="#8b4513" points="694.49,-979.13 698.88,-969.49 689.44,-974.29 694.49,-979.13"/>
</g>
</g>
</svg>
