<?xml version="1.0" encoding="UTF-8" standalone="no"?>
<!DOCTYPE svg PUBLIC "-//W3C//DTD SVG 1.1//EN"
 "http://www.w3.org/Graphics/SVG/1.1/DTD/svg11.dtd">
<!-- Generated by graphviz version 2.44.0 (0)
 -->
<!-- Title: G Pages: 1 -->
<svg width="728pt" height="1124pt"
 viewBox="0.00 0.00 728.14 1124.00" xmlns="http://www.w3.org/2000/svg" xmlns:xlink="http://www.w3.org/1999/xlink">
<g id="graph0" class="graph" transform="scale(1 1) rotate(0) translate(4 1120)">
<title>G</title>
<polygon fill="white" stroke="transparent" points="-4,4 -4,-1120 724.14,-1120 724.14,4 -4,4"/>
<!-- START -->
<g id="node1" class="node">
<title>START</title>
<ellipse fill="red" stroke="red" cx="326.14" cy="-1098" rx="38.19" ry="18"/>
<text text-anchor="middle" x="326.14" y="-1094.3" font-family="Times,serif" font-size="14.00">START</text>
</g>
<!-- libcroco -->
<g id="node2" class="node">
<title>libcroco</title>
<ellipse fill="green" stroke="green" cx="326.14" cy="-1026" rx="39.79" ry="18"/>
<text text-anchor="middle" x="326.14" y="-1022.3" font-family="Times,serif" font-size="14.00">libcroco</text>
</g>
<!-- START&#45;&gt;libcroco -->
<g id="edge1" class="edge">
<title>START&#45;&gt;libcroco</title>
<path fill="none" stroke="black" d="M326.14,-1079.7C326.14,-1071.98 326.14,-1062.71 326.14,-1054.11"/>
<polygon fill="black" stroke="black" points="329.64,-1054.1 326.14,-1044.1 322.64,-1054.1 329.64,-1054.1"/>
</g>
<!-- glib2 -->
<g id="node3" class="node">
<title>glib2</title>
<ellipse fill="green" stroke="green" cx="298.14" cy="-954" rx="28.7" ry="18"/>
<text text-anchor="middle" x="298.14" y="-950.3" font-family="Times,serif" font-size="14.00">glib2</text>
</g>
<!-- libcroco&#45;&gt;glib2 -->
<g id="edge2" class="edge">
<title>libcroco&#45;&gt;glib2</title>
<path fill="none" stroke="#8b4513" d="M319.36,-1008.05C316.13,-999.97 312.19,-990.12 308.59,-981.11"/>
<polygon fill="#8b4513" stroke="#8b4513" points="311.82,-979.77 304.86,-971.79 305.32,-982.37 311.82,-979.77"/>
</g>
<!-- libxml2 -->
<g id="node24" class="node">
<title>libxml2</title>
<ellipse fill="green" stroke="green" cx="572.14" cy="-882" rx="38.19" ry="18"/>
<text text-anchor="middle" x="572.14" y="-878.3" font-family="Times,serif" font-size="14.00">libxml2</text>
</g>
<!-- libcroco&#45;&gt;libxml2 -->
<g id="edge36" class="edge">
<title>libcroco&#45;&gt;libxml2</title>
<path fill="none" stroke="#8b4513" d="M349.73,-1011.38C394.11,-985.77 490.06,-930.38 540.18,-901.45"/>
<polygon fill="#8b4513" stroke="#8b4513" points="542.07,-904.4 548.98,-896.37 538.57,-898.34 542.07,-904.4"/>
</g>
<!-- pcre -->
<g id="node4" class="node">
<title>pcre</title>
<ellipse fill="green" stroke="green" cx="405.14" cy="-882" rx="27" ry="18"/>
<text text-anchor="middle" x="405.14" y="-878.3" font-family="Times,serif" font-size="14.00">pcre</text>
</g>
<!-- glib2&#45;&gt;pcre -->
<g id="edge3" class="edge">
<title>glib2&#45;&gt;pcre</title>
<path fill="none" stroke="#8b4513" d="M317.27,-940.49C334.19,-929.42 359.06,-913.15 378.02,-900.74"/>
<polygon fill="#8b4513" stroke="#8b4513" points="380.08,-903.58 386.54,-895.17 376.25,-897.72 380.08,-903.58"/>
</g>
<!-- zlib -->
<g id="node16" class="node">
<title>zlib</title>
<ellipse fill="green" stroke="green" cx="289.14" cy="-810" rx="27" ry="18"/>
<text text-anchor="middle" x="289.14" y="-806.3" font-family="Times,serif" font-size="14.00">zlib</text>
</g>
<!-- glib2&#45;&gt;zlib -->
<g id="edge33" class="edge">
<title>glib2&#45;&gt;zlib</title>
<path fill="none" stroke="#8b4513" d="M311.1,-937.42C318.56,-927.42 327.21,-913.76 331.14,-900 335.54,-884.62 336.4,-879.11 331.14,-864 327.12,-852.46 319.42,-841.53 311.7,-832.64"/>
<polygon fill="#8b4513" stroke="#8b4513" points="314.07,-830.05 304.71,-825.08 308.93,-834.8 314.07,-830.05"/>
</g>
<!-- libffi -->
<g id="node21" class="node">
<title>libffi</title>
<ellipse fill="green" stroke="green" cx="112.14" cy="-738" rx="27.9" ry="18"/>
<text text-anchor="middle" x="112.14" y="-734.3" font-family="Times,serif" font-size="14.00">libffi</text>
</g>
<!-- glib2&#45;&gt;libffi -->
<g id="edge30" class="edge">
<title>glib2&#45;&gt;libffi</title>
<path fill="none" stroke="#8b4513" d="M270.03,-950.11C237.38,-945.29 183.94,-932.65 152.14,-900 117,-863.91 111.2,-801.98 111.06,-766.37"/>
<polygon fill="#8b4513" stroke="#8b4513" points="114.56,-766.25 111.17,-756.22 107.56,-766.18 114.56,-766.25"/>
</g>
<!-- libutil&#45;linux -->
<g id="node22" class="node">
<title>libutil&#45;linux</title>
<ellipse fill="green" stroke="green" cx="190.14" cy="-810" rx="52.79" ry="18"/>
<text text-anchor="middle" x="190.14" y="-806.3" font-family="Times,serif" font-size="14.00">libutil&#45;linux</text>
</g>
<!-- glib2&#45;&gt;libutil&#45;linux -->
<g id="edge32" class="edge">
<title>glib2&#45;&gt;libutil&#45;linux</title>
<path fill="none" stroke="#8b4513" d="M269.7,-950.91C237.66,-946.85 186.97,-934.95 163.14,-900 150.09,-880.85 160.16,-855.2 171.52,-836.36"/>
<polygon fill="#8b4513" stroke="#8b4513" points="174.62,-838.01 177.11,-827.71 168.74,-834.21 174.62,-838.01"/>
</g>
<!-- libmount.so=1&#45;64 -->
<g id="node23" class="node">
<title>libmount.so=1&#45;64</title>
<ellipse fill="green" stroke="green" cx="247.14" cy="-882" rx="74.99" ry="18"/>
<text text-anchor="middle" x="247.14" y="-878.3" font-family="Times,serif" font-size="14.00">libmount.so=1&#45;64</text>
</g>
<!-- glib2&#45;&gt;libmount.so=1&#45;64 -->
<g id="edge34" class="edge">
<title>glib2&#45;&gt;libmount.so=1&#45;64</title>
<path fill="none" stroke="#8b4513" d="M286.82,-937.46C280.56,-928.87 272.62,-917.97 265.49,-908.19"/>
<polygon fill="#8b4513" stroke="#8b4513" points="268.22,-905.98 259.5,-899.96 262.56,-910.11 268.22,-905.98"/>
</g>
<!-- gcc&#45;libs -->
<g id="node5" class="node">
<title>gcc&#45;libs</title>
<ellipse fill="green" stroke="green" cx="625.14" cy="-306" rx="38.19" ry="18"/>
<text text-anchor="middle" x="625.14" y="-302.3" font-family="Times,serif" font-size="14.00">gcc&#45;libs</text>
</g>
<!-- pcre&#45;&gt;gcc&#45;libs -->
<g id="edge4" class="edge">
<title>pcre&#45;&gt;gcc&#45;libs</title>
<path fill="none" stroke="#8b4513" d="M432.05,-879.49C465.92,-876.03 523.29,-864.76 553.14,-828 615.64,-751.05 623.92,-429.83 624.99,-334.06"/>
<polygon fill="#8b4513" stroke="#8b4513" points="628.49,-334.05 625.08,-324.02 621.49,-333.99 628.49,-334.05"/>
</g>
<!-- readline -->
<g id="node13" class="node">
<title>readline</title>
<ellipse fill="green" stroke="green" cx="448.14" cy="-522" rx="38.99" ry="18"/>
<text text-anchor="middle" x="448.14" y="-518.3" font-family="Times,serif" font-size="14.00">readline</text>
</g>
<!-- pcre&#45;&gt;readline -->
<g id="edge12" class="edge">
<title>pcre&#45;&gt;readline</title>
<path fill="none" stroke="#8b4513" d="M418.26,-866.26C426.58,-856.16 436.92,-842.08 443.14,-828 459.49,-791.01 462.14,-779.45 462.14,-739 462.14,-739 462.14,-739 462.14,-665 462.14,-624.8 456.52,-578.51 452.4,-550"/>
<polygon fill="#8b4513" stroke="#8b4513" points="455.84,-549.37 450.91,-540 448.92,-550.4 455.84,-549.37"/>
</g>
<!-- pcre&#45;&gt;zlib -->
<g id="edge19" class="edge">
<title>pcre&#45;&gt;zlib</title>
<path fill="none" stroke="#8b4513" d="M385.73,-869.28C366.99,-857.98 338.42,-840.74 317.21,-827.94"/>
<polygon fill="#8b4513" stroke="#8b4513" points="318.99,-824.92 308.62,-822.75 315.37,-830.92 318.99,-824.92"/>
</g>
<!-- bzip2 -->
<g id="node17" class="node">
<title>bzip2</title>
<ellipse fill="green" stroke="green" cx="403.14" cy="-810" rx="30.59" ry="18"/>
<text text-anchor="middle" x="403.14" y="-806.3" font-family="Times,serif" font-size="14.00">bzip2</text>
</g>
<!-- pcre&#45;&gt;bzip2 -->
<g id="edge21" class="edge">
<title>pcre&#45;&gt;bzip2</title>
<path fill="none" stroke="#8b4513" d="M404.65,-863.7C404.43,-855.98 404.16,-846.71 403.92,-838.11"/>
<polygon fill="#8b4513" stroke="#8b4513" points="407.41,-838 403.63,-828.1 400.42,-838.2 407.41,-838"/>
</g>
<!-- bash -->
<g id="node19" class="node">
<title>bash</title>
<ellipse fill="green" stroke="green" cx="373.14" cy="-666" rx="27" ry="18"/>
<text text-anchor="middle" x="373.14" y="-662.3" font-family="Times,serif" font-size="14.00">bash</text>
</g>
<!-- pcre&#45;&gt;bash -->
<g id="edge29" class="edge">
<title>pcre&#45;&gt;bash</title>
<path fill="none" stroke="#8b4513" d="M389.57,-866.92C379.92,-857.09 368.39,-843.08 363.14,-828 347.44,-782.89 357.09,-726.43 365.29,-693.77"/>
<polygon fill="#8b4513" stroke="#8b4513" points="368.69,-694.6 367.87,-684.04 361.92,-692.81 368.69,-694.6"/>
</g>
<!-- glibc&gt;=2.27 -->
<g id="node6" class="node">
<title>glibc&gt;=2.27</title>
<ellipse fill="green" stroke="green" cx="629.14" cy="-234" rx="54.69" ry="18"/>
<text text-anchor="middle" x="629.14" y="-230.3" font-family="Times,serif" font-size="14.00">glibc&gt;=2.27</text>
</g>
<!-- gcc&#45;libs&#45;&gt;glibc&gt;=2.27 -->
<g id="edge5" class="edge">
<title>gcc&#45;libs&#45;&gt;glibc&gt;=2.27</title>
<path fill="none" stroke="#8b4513" d="M626.13,-287.7C626.57,-279.98 627.1,-270.71 627.59,-262.11"/>
<polygon fill="#8b4513" stroke="#8b4513" points="631.09,-262.29 628.16,-252.1 624.1,-261.89 631.09,-262.29"/>
</g>
<!-- glibc -->
<g id="node7" class="node">
<title>glibc</title>
<ellipse fill="green" stroke="green" cx="246.14" cy="-162" rx="28.7" ry="18"/>
<text text-anchor="middle" x="246.14" y="-158.3" font-family="Times,serif" font-size="14.00">glibc</text>
</g>
<!-- glibc&gt;=2.27&#45;&gt;glibc -->
<g id="edge6" class="edge">
<title>glibc&gt;=2.27&#45;&gt;glibc</title>
<path fill="none" stroke="grey" d="M587.66,-222.25C578.62,-220.06 569.08,-217.85 560.14,-216 455.12,-194.23 328.95,-175.02 273.99,-166.99"/>
</g>
<!-- linux&#45;api&#45;headers&gt;=4.10 -->
<g id="node8" class="node">
<title>linux&#45;api&#45;headers&gt;=4.10</title>
<ellipse fill="green" stroke="green" cx="98.14" cy="-90" rx="98.28" ry="18"/>
<text text-anchor="middle" x="98.14" y="-86.3" font-family="Times,serif" font-size="14.00">linux&#45;api&#45;headers&gt;=4.10</text>
</g>
<!-- glibc&#45;&gt;linux&#45;api&#45;headers&gt;=4.10 -->
<g id="edge7" class="edge">
<title>glibc&#45;&gt;linux&#45;api&#45;headers&gt;=4.10</title>
<path fill="none" stroke="#8b4513" d="M223.98,-150.52C202.2,-140.22 168.37,-124.22 141.27,-111.4"/>
<polygon fill="#8b4513" stroke="#8b4513" points="142.53,-108.12 132,-107.01 139.54,-114.45 142.53,-108.12"/>
</g>
<!-- tzdata -->
<g id="node10" class="node">
<title>tzdata</title>
<ellipse fill="green" stroke="green" cx="246.14" cy="-90" rx="31.7" ry="18"/>
<text text-anchor="middle" x="246.14" y="-86.3" font-family="Times,serif" font-size="14.00">tzdata</text>
</g>
<!-- glibc&#45;&gt;tzdata -->
<g id="edge9" class="edge">
<title>glibc&#45;&gt;tzdata</title>
<path fill="none" stroke="#8b4513" d="M246.14,-143.7C246.14,-135.98 246.14,-126.71 246.14,-118.11"/>
<polygon fill="#8b4513" stroke="#8b4513" points="249.64,-118.1 246.14,-108.1 242.64,-118.1 249.64,-118.1"/>
</g>
<!-- filesystem -->
<g id="node11" class="node">
<title>filesystem</title>
<ellipse fill="green" stroke="green" cx="343.14" cy="-90" rx="46.59" ry="18"/>
<text text-anchor="middle" x="343.14" y="-86.3" font-family="Times,serif" font-size="14.00">filesystem</text>
</g>
<!-- glibc&#45;&gt;filesystem -->
<g id="edge10" class="edge">
<title>glibc&#45;&gt;filesystem</title>
<path fill="none" stroke="#8b4513" d="M264.39,-147.83C278.19,-137.88 297.42,-123.99 313.43,-112.44"/>
<polygon fill="#8b4513" stroke="#8b4513" points="315.88,-114.99 321.94,-106.3 311.78,-109.31 315.88,-114.99"/>
</g>
<!-- linux&#45;api&#45;headers -->
<g id="node9" class="node">
<title>linux&#45;api&#45;headers</title>
<ellipse fill="green" stroke="green" cx="98.14" cy="-18" rx="71.49" ry="18"/>
<text text-anchor="middle" x="98.14" y="-14.3" font-family="Times,serif" font-size="14.00">linux&#45;api&#45;headers</text>
</g>
<!-- linux&#45;api&#45;headers&gt;=4.10&#45;&gt;linux&#45;api&#45;headers -->
<g id="edge8" class="edge">
<title>linux&#45;api&#45;headers&gt;=4.10&#45;&gt;linux&#45;api&#45;headers</title>
<path fill="none" stroke="grey" d="M98.14,-71.7C98.14,-60.85 98.14,-46.92 98.14,-36.1"/>
</g>
<!-- iana&#45;etc -->
<g id="node12" class="node">
<title>iana&#45;etc</title>
<ellipse fill="green" stroke="green" cx="343.14" cy="-18" rx="38.19" ry="18"/>
<text text-anchor="middle" x="343.14" y="-14.3" font-family="Times,serif" font-size="14.00">iana&#45;etc</text>
</g>
<!-- filesystem&#45;&gt;iana&#45;etc -->
<g id="edge11" class="edge">
<title>filesystem&#45;&gt;iana&#45;etc</title>
<path fill="none" stroke="#8b4513" d="M343.14,-71.7C343.14,-63.98 343.14,-54.71 343.14,-46.11"/>
<polygon fill="#8b4513" stroke="#8b4513" points="346.64,-46.1 343.14,-36.1 339.64,-46.1 346.64,-46.1"/>
</g>
<!-- readline&#45;&gt;glibc -->
<g id="edge13" class="edge">
<title>readline&#45;&gt;glibc</title>
<path fill="none" stroke="#8b4513" d="M476.03,-509.05C493.36,-500.19 514.64,-486.46 527.14,-468 549.82,-434.51 546.14,-419.45 546.14,-379 546.14,-379 546.14,-379 546.14,-305 546.14,-190.85 366.49,-168.33 285.23,-163.99"/>
<polygon fill="#8b4513" stroke="#8b4513" points="285.06,-160.48 274.91,-163.51 284.73,-167.47 285.06,-160.48"/>
</g>
<!-- ncurses -->
<g id="node14" class="node">
<title>ncurses</title>
<ellipse fill="green" stroke="green" cx="378.14" cy="-378" rx="37.09" ry="18"/>
<text text-anchor="middle" x="378.14" y="-374.3" font-family="Times,serif" font-size="14.00">ncurses</text>
</g>
<!-- readline&#45;&gt;ncurses -->
<g id="edge14" class="edge">
<title>readline&#45;&gt;ncurses</title>
<path fill="none" stroke="#8b4513" d="M413.14,-513.86C388.33,-506.77 356.77,-493.19 341.14,-468 328.21,-447.16 342.21,-421.02 356.54,-402.47"/>
<polygon fill="#8b4513" stroke="#8b4513" points="359.42,-404.48 363.06,-394.53 354.01,-400.04 359.42,-404.48"/>
</g>
<!-- libncursesw.so=6&#45;64 -->
<g id="node15" class="node">
<title>libncursesw.so=6&#45;64</title>
<ellipse fill="green" stroke="green" cx="434.14" cy="-450" rx="83.69" ry="18"/>
<text text-anchor="middle" x="434.14" y="-446.3" font-family="Times,serif" font-size="14.00">libncursesw.so=6&#45;64</text>
</g>
<!-- readline&#45;&gt;libncursesw.so=6&#45;64 -->
<g id="edge17" class="edge">
<title>readline&#45;&gt;libncursesw.so=6&#45;64</title>
<path fill="none" stroke="#8b4513" d="M444.75,-504.05C443.21,-496.35 441.35,-487.03 439.61,-478.36"/>
<polygon fill="#8b4513" stroke="#8b4513" points="442.99,-477.39 437.6,-468.28 436.13,-478.77 442.99,-477.39"/>
</g>
<!-- ncurses&#45;&gt;gcc&#45;libs -->
<g id="edge16" class="edge">
<title>ncurses&#45;&gt;gcc&#45;libs</title>
<path fill="none" stroke="#8b4513" d="M409.42,-368.13C453.51,-355.64 534.02,-332.82 583.23,-318.88"/>
<polygon fill="#8b4513" stroke="#8b4513" points="584.27,-322.22 592.94,-316.13 582.36,-315.49 584.27,-322.22"/>
</g>
<!-- ncurses&#45;&gt;glibc -->
<g id="edge15" class="edge">
<title>ncurses&#45;&gt;glibc</title>
<path fill="none" stroke="#8b4513" d="M368,-360.56C344.95,-323.19 288.5,-231.68 261.29,-187.57"/>
<polygon fill="#8b4513" stroke="#8b4513" points="264.18,-185.58 255.95,-178.91 258.23,-189.26 264.18,-185.58"/>
</g>
<!-- libncursesw.so=6&#45;64&#45;&gt;ncurses -->
<g id="edge18" class="edge">
<title>libncursesw.so=6&#45;64&#45;&gt;ncurses</title>
<path fill="none" stroke="grey" d="M420.59,-432.05C411.65,-420.89 400.02,-406.34 391.19,-395.31"/>
</g>
<!-- zlib&#45;&gt;glibc -->
<g id="edge20" class="edge">
<title>zlib&#45;&gt;glibc</title>
<path fill="none" stroke="#8b4513" d="M268.15,-798.4C241.75,-784.89 199.22,-762.51 194.14,-756 168.94,-723.7 170.14,-707.97 170.14,-667 170.14,-667 170.14,-667 170.14,-305 170.14,-264.03 173.8,-251.56 194.14,-216 201.11,-203.82 211.56,-192.41 221.27,-183.32"/>
<polygon fill="#8b4513" stroke="#8b4513" points="223.7,-185.84 228.81,-176.56 219.03,-180.63 223.7,-185.84"/>
</g>
<!-- bzip2&#45;&gt;glibc -->
<g id="edge22" class="edge">
<title>bzip2&#45;&gt;glibc</title>
<path fill="none" stroke="#8b4513" d="M375.2,-802.57C321.28,-788.31 208.14,-748.66 208.14,-667 208.14,-667 208.14,-667 208.14,-305 208.14,-263.41 223.54,-217.22 234.74,-189.14"/>
<polygon fill="#8b4513" stroke="#8b4513" points="238.07,-190.24 238.63,-179.66 231.59,-187.58 238.07,-190.24"/>
</g>
<!-- sh -->
<g id="node18" class="node">
<title>sh</title>
<ellipse fill="green" stroke="green" cx="401.14" cy="-738" rx="27" ry="18"/>
<text text-anchor="middle" x="401.14" y="-734.3" font-family="Times,serif" font-size="14.00">sh</text>
</g>
<!-- bzip2&#45;&gt;sh -->
<g id="edge23" class="edge">
<title>bzip2&#45;&gt;sh</title>
<path fill="none" stroke="#8b4513" d="M402.65,-791.7C402.43,-783.98 402.16,-774.71 401.92,-766.11"/>
<polygon fill="#8b4513" stroke="#8b4513" points="405.41,-766 401.63,-756.1 398.42,-766.2 405.41,-766"/>
</g>
<!-- sh&#45;&gt;bash -->
<g id="edge24" class="edge">
<title>sh&#45;&gt;bash</title>
<path fill="none" stroke="grey" d="M384.83,-723.5C377.17,-712.22 370.43,-696.07 368.16,-683.92"/>
</g>
<!-- sh&#45;&gt;bash -->
<g id="edge42" class="edge">
<title>sh&#45;&gt;bash</title>
<path fill="none" stroke="grey" d="M394.51,-720.41C390.04,-709.25 384.18,-694.6 379.73,-683.47"/>
</g>
<!-- sh&#45;&gt;bash -->
<g id="edge46" class="edge">
<title>sh&#45;&gt;bash</title>
<path fill="none" stroke="grey" d="M406.12,-720.05C403.84,-707.92 397.11,-691.79 389.47,-680.51"/>
</g>
<!-- bash&#45;&gt;glibc -->
<g id="edge27" class="edge">
<title>bash&#45;&gt;glibc</title>
<path fill="none" stroke="#8b4513" d="M352.45,-654.24C316.47,-633.87 246.14,-586.01 246.14,-523 246.14,-523 246.14,-523 246.14,-305 246.14,-265 246.14,-218.65 246.14,-190.08"/>
<polygon fill="#8b4513" stroke="#8b4513" points="249.64,-190.05 246.14,-180.05 242.64,-190.05 249.64,-190.05"/>
</g>
<!-- bash&#45;&gt;ncurses -->
<g id="edge28" class="edge">
<title>bash&#45;&gt;ncurses</title>
<path fill="none" stroke="#8b4513" d="M351.3,-655.27C334.72,-646.56 313.12,-632.06 303.14,-612 296.02,-597.67 301.61,-591.93 303.14,-576 309.39,-511.1 302.27,-490.46 331.14,-432 336.7,-420.74 345.3,-410.03 353.63,-401.23"/>
<polygon fill="#8b4513" stroke="#8b4513" points="356.24,-403.57 360.8,-394.01 351.27,-398.64 356.24,-403.57"/>
</g>
<!-- readline&gt;=7.0 -->
<g id="node20" class="node">
<title>readline&gt;=7.0</title>
<ellipse fill="green" stroke="green" cx="373.14" cy="-594" rx="61.19" ry="18"/>
<text text-anchor="middle" x="373.14" y="-590.3" font-family="Times,serif" font-size="14.00">readline&gt;=7.0</text>
</g>
<!-- bash&#45;&gt;readline&gt;=7.0 -->
<g id="edge25" class="edge">
<title>bash&#45;&gt;readline&gt;=7.0</title>
<path fill="none" stroke="#8b4513" d="M373.14,-647.7C373.14,-639.98 373.14,-630.71 373.14,-622.11"/>
<polygon fill="#8b4513" stroke="#8b4513" points="376.64,-622.1 373.14,-612.1 369.64,-622.1 376.64,-622.1"/>
</g>
<!-- readline&gt;=7.0&#45;&gt;readline -->
<g id="edge26" class="edge">
<title>readline&gt;=7.0&#45;&gt;readline</title>
<path fill="none" stroke="grey" d="M390.92,-576.41C403.22,-564.93 419.48,-549.75 431.52,-538.51"/>
</g>
<!-- libffi&#45;&gt;glibc -->
<g id="edge31" class="edge">
<title>libffi&#45;&gt;glibc</title>
<path fill="none" stroke="#8b4513" d="M114.31,-719.98C117.52,-693.37 123.14,-640.25 123.14,-595 123.14,-595 123.14,-595 123.14,-305 123.14,-262.81 129.07,-248.35 156.14,-216 171.17,-198.04 193.95,-184.71 212.83,-175.91"/>
<polygon fill="#8b4513" stroke="#8b4513" points="214.29,-179.09 222.01,-171.84 211.45,-172.69 214.29,-179.09"/>
</g>
<!-- libmount.so=1&#45;64&#45;&gt;libutil&#45;linux -->
<g id="edge35" class="edge">
<title>libmount.so=1&#45;64&#45;&gt;libutil&#45;linux</title>
<path fill="none" stroke="grey" d="M233.34,-864.05C224.38,-853.05 212.75,-838.76 203.81,-827.79"/>
</g>
<!-- libxml2&#45;&gt;readline -->
<g id="edge38" class="edge">
<title>libxml2&#45;&gt;readline</title>
<path fill="none" stroke="#8b4513" d="M602.45,-870.8C622.69,-862.44 648.23,-848.58 663.14,-828 686.87,-795.24 682.14,-779.45 682.14,-739 682.14,-739 682.14,-739 682.14,-665 682.14,-578.33 563.37,-543.08 495.06,-529.97"/>
<polygon fill="#8b4513" stroke="#8b4513" points="495.43,-526.48 484.96,-528.13 494.17,-533.37 495.43,-526.48"/>
</g>
<!-- libxml2&#45;&gt;ncurses -->
<g id="edge39" class="edge">
<title>libxml2&#45;&gt;ncurses</title>
<path fill="none" stroke="#8b4513" d="M605.07,-872.75C630.02,-864.97 663.57,-850.99 685.14,-828 714.22,-797 720.14,-781.5 720.14,-739 720.14,-739 720.14,-739 720.14,-665 720.14,-616.21 559.41,-453.56 527.14,-432 494.8,-410.39 452.62,-396.47 421.4,-388.34"/>
<polygon fill="#8b4513" stroke="#8b4513" points="422.23,-384.94 411.68,-385.9 420.53,-391.73 422.23,-384.94"/>
</g>
<!-- libxml2&#45;&gt;zlib -->
<g id="edge37" class="edge">
<title>libxml2&#45;&gt;zlib</title>
<path fill="none" stroke="#8b4513" d="M539.12,-872.83C485.29,-859.52 379.11,-833.25 324.07,-819.64"/>
<polygon fill="#8b4513" stroke="#8b4513" points="324.64,-816.17 314.09,-817.17 322.96,-822.97 324.64,-816.17"/>
</g>
<!-- xz -->
<g id="node25" class="node">
<title>xz</title>
<ellipse fill="green" stroke="green" cx="517.14" cy="-810" rx="27" ry="18"/>
<text text-anchor="middle" x="517.14" y="-806.3" font-family="Times,serif" font-size="14.00">xz</text>
</g>
<!-- libxml2&#45;&gt;xz -->
<g id="edge40" class="edge">
<title>libxml2&#45;&gt;xz</title>
<path fill="none" stroke="#8b4513" d="M559.38,-864.76C552.24,-855.68 543.22,-844.19 535.35,-834.18"/>
<polygon fill="#8b4513" stroke="#8b4513" points="538.01,-831.89 529.08,-826.19 532.5,-836.21 538.01,-831.89"/>
</g>
<!-- icu -->
<g id="node26" class="node">
<title>icu</title>
<ellipse fill="green" stroke="green" cx="627.14" cy="-810" rx="27" ry="18"/>
<text text-anchor="middle" x="627.14" y="-806.3" font-family="Times,serif" font-size="14.00">icu</text>
</g>
<!-- libxml2&#45;&gt;icu -->
<g id="edge43" class="edge">
<title>libxml2&#45;&gt;icu</title>
<path fill="none" stroke="#8b4513" d="M584.9,-864.76C592.04,-855.68 601.06,-844.19 608.93,-834.18"/>
<polygon fill="#8b4513" stroke="#8b4513" points="611.78,-836.21 615.21,-826.19 606.28,-831.89 611.78,-836.21"/>
</g>
<!-- xz&#45;&gt;sh -->
<g id="edge41" class="edge">
<title>xz&#45;&gt;sh</title>
<path fill="none" stroke="#8b4513" d="M497.73,-797.28C478.99,-785.98 450.42,-768.74 429.21,-755.94"/>
<polygon fill="#8b4513" stroke="#8b4513" points="430.99,-752.92 420.62,-750.75 427.37,-758.92 430.99,-752.92"/>
</g>
<!-- icu&#45;&gt;gcc&#45;libs -->
<g id="edge44" class="edge">
<title>icu&#45;&gt;gcc&#45;libs</title>
<path fill="none" stroke="#8b4513" d="M627.75,-791.97C629.5,-742.15 634.5,-592.36 636.14,-468 636.77,-420 641.04,-407.75 636.14,-360 635.26,-351.46 633.61,-342.26 631.85,-333.96"/>
<polygon fill="#8b4513" stroke="#8b4513" points="635.23,-333.03 629.61,-324.05 628.4,-334.57 635.23,-333.03"/>
</g>
<!-- icu&#45;&gt;sh -->
<g id="edge45" class="edge">
<title>icu&#45;&gt;sh</title>
<path fill="none" stroke="#8b4513" d="M602.96,-801.51C562.52,-788.98 481.08,-763.76 434.97,-749.48"/>
<polygon fill="#8b4513" stroke="#8b4513" points="435.74,-746.05 425.15,-746.44 433.67,-752.74 435.74,-746.05"/>
</g>
</g>
</svg>
