<?xml version="1.0" encoding="UTF-8" standalone="no"?>
<!DOCTYPE svg PUBLIC "-//W3C//DTD SVG 1.1//EN"
 "http://www.w3.org/Graphics/SVG/1.1/DTD/svg11.dtd">
<!-- Generated by graphviz version 2.44.0 (0)
 -->
<!-- Title: G Pages: 1 -->
<svg width="447pt" height="836pt"
 viewBox="0.00 0.00 447.09 836.00" xmlns="http://www.w3.org/2000/svg" xmlns:xlink="http://www.w3.org/1999/xlink">
<g id="graph0" class="graph" transform="scale(1 1) rotate(0) translate(4 832)">
<title>G</title>
<polygon fill="white" stroke="transparent" points="-4,4 -4,-832 443.09,-832 443.09,4 -4,4"/>
<!-- START -->
<g id="node1" class="node">
<title>START</title>
<ellipse fill="red" stroke="red" cx="303.14" cy="-810" rx="38.19" ry="18"/>
<text text-anchor="middle" x="303.14" y="-806.3" font-family="Times,serif" font-size="14.00">START</text>
</g>
<!-- libksba -->
<g id="node2" class="node">
<title>libksba</title>
<ellipse fill="green" stroke="green" cx="303.14" cy="-738" rx="36.29" ry="18"/>
<text text-anchor="middle" x="303.14" y="-734.3" font-family="Times,serif" font-size="14.00">libksba</text>
</g>
<!-- START&#45;&gt;libksba -->
<g id="edge1" class="edge">
<title>START&#45;&gt;libksba</title>
<path fill="none" stroke="black" d="M303.14,-791.7C303.14,-783.98 303.14,-774.71 303.14,-766.11"/>
<polygon fill="black" stroke="black" points="306.64,-766.1 303.14,-756.1 299.64,-766.1 306.64,-766.1"/>
</g>
<!-- bash -->
<g id="node3" class="node">
<title>bash</title>
<ellipse fill="green" stroke="green" cx="212.14" cy="-666" rx="27" ry="18"/>
<text text-anchor="middle" x="212.14" y="-662.3" font-family="Times,serif" font-size="14.00">bash</text>
</g>
<!-- libksba&#45;&gt;bash -->
<g id="edge2" class="edge">
<title>libksba&#45;&gt;bash</title>
<path fill="none" stroke="#8b4513" d="M284.29,-722.5C270.71,-712.05 252.24,-697.85 237.39,-686.42"/>
<polygon fill="#8b4513" stroke="#8b4513" points="239.19,-683.39 229.13,-680.07 234.92,-688.94 239.19,-683.39"/>
</g>
<!-- glibc -->
<g id="node6" class="node">
<title>glibc</title>
<ellipse fill="green" stroke="green" cx="246.14" cy="-162" rx="28.7" ry="18"/>
<text text-anchor="middle" x="246.14" y="-158.3" font-family="Times,serif" font-size="14.00">glibc</text>
</g>
<!-- libksba&#45;&gt;glibc -->
<g id="edge23" class="edge">
<title>libksba&#45;&gt;glibc</title>
<path fill="none" stroke="#8b4513" d="M303.14,-719.95C303.14,-693.29 303.14,-640.11 303.14,-595 303.14,-595 303.14,-595 303.14,-305 303.14,-261.09 279.37,-214.67 262.53,-187.3"/>
<polygon fill="#8b4513" stroke="#8b4513" points="265.44,-185.35 257.13,-178.78 259.53,-189.1 265.44,-185.35"/>
</g>
<!-- libgpg&#45;error -->
<g id="node16" class="node">
<title>libgpg&#45;error</title>
<ellipse fill="green" stroke="green" cx="385.14" cy="-666" rx="53.89" ry="18"/>
<text text-anchor="middle" x="385.14" y="-662.3" font-family="Times,serif" font-size="14.00">libgpg&#45;error</text>
</g>
<!-- libksba&#45;&gt;libgpg&#45;error -->
<g id="edge20" class="edge">
<title>libksba&#45;&gt;libgpg&#45;error</title>
<path fill="none" stroke="#8b4513" d="M320.53,-722.15C331.56,-712.74 346.05,-700.37 358.51,-689.73"/>
<polygon fill="#8b4513" stroke="#8b4513" points="361.01,-692.2 366.35,-683.04 356.47,-686.87 361.01,-692.2"/>
</g>
<!-- readline&gt;=7.0 -->
<g id="node4" class="node">
<title>readline&gt;=7.0</title>
<ellipse fill="green" stroke="green" cx="146.14" cy="-594" rx="61.19" ry="18"/>
<text text-anchor="middle" x="146.14" y="-590.3" font-family="Times,serif" font-size="14.00">readline&gt;=7.0</text>
</g>
<!-- bash&#45;&gt;readline&gt;=7.0 -->
<g id="edge3" class="edge">
<title>bash&#45;&gt;readline&gt;=7.0</title>
<path fill="none" stroke="#8b4513" d="M198.14,-650.15C189.7,-641.2 178.74,-629.58 169.06,-619.31"/>
<polygon fill="#8b4513" stroke="#8b4513" points="171.38,-616.66 161.97,-611.79 166.28,-621.47 171.38,-616.66"/>
</g>
<!-- bash&#45;&gt;glibc -->
<g id="edge18" class="edge">
<title>bash&#45;&gt;glibc</title>
<path fill="none" stroke="#8b4513" d="M222.36,-649.11C237.76,-623.59 265.14,-571.42 265.14,-523 265.14,-523 265.14,-523 265.14,-305 265.14,-264.64 257.51,-218.39 251.92,-189.94"/>
<polygon fill="#8b4513" stroke="#8b4513" points="255.31,-189.06 249.9,-179.95 248.45,-190.45 255.31,-189.06"/>
</g>
<!-- ncurses -->
<g id="node12" class="node">
<title>ncurses</title>
<ellipse fill="green" stroke="green" cx="106.14" cy="-378" rx="37.09" ry="18"/>
<text text-anchor="middle" x="106.14" y="-374.3" font-family="Times,serif" font-size="14.00">ncurses</text>
</g>
<!-- bash&#45;&gt;ncurses -->
<g id="edge19" class="edge">
<title>bash&#45;&gt;ncurses</title>
<path fill="none" stroke="#8b4513" d="M186.16,-660.99C156.18,-655.11 107.03,-641.48 76.14,-612 25.48,-563.64 26.68,-536.51 12.14,-468 8.82,-452.35 4.07,-445.82 12.14,-432 23.59,-412.4 45.26,-399.48 64.91,-391.31"/>
<polygon fill="#8b4513" stroke="#8b4513" points="66.27,-394.53 74.34,-387.67 63.75,-388 66.27,-394.53"/>
</g>
<!-- readline -->
<g id="node5" class="node">
<title>readline</title>
<ellipse fill="green" stroke="green" cx="130.14" cy="-522" rx="38.99" ry="18"/>
<text text-anchor="middle" x="130.14" y="-518.3" font-family="Times,serif" font-size="14.00">readline</text>
</g>
<!-- readline&gt;=7.0&#45;&gt;readline -->
<g id="edge4" class="edge">
<title>readline&gt;=7.0&#45;&gt;readline</title>
<path fill="none" stroke="grey" d="M142.19,-575.7C139.71,-564.85 136.52,-550.92 134.05,-540.1"/>
</g>
<!-- readline&#45;&gt;glibc -->
<g id="edge5" class="edge">
<title>readline&#45;&gt;glibc</title>
<path fill="none" stroke="#8b4513" d="M157.68,-508.96C174.79,-500.08 195.81,-486.34 208.14,-468 230.72,-434.44 227.14,-419.45 227.14,-379 227.14,-379 227.14,-379 227.14,-305 227.14,-264.64 234.78,-218.39 240.37,-189.94"/>
<polygon fill="#8b4513" stroke="#8b4513" points="243.83,-190.45 242.39,-179.95 236.97,-189.06 243.83,-190.45"/>
</g>
<!-- readline&#45;&gt;ncurses -->
<g id="edge11" class="edge">
<title>readline&#45;&gt;ncurses</title>
<path fill="none" stroke="#8b4513" d="M95.09,-514.03C70.01,-507.01 37.99,-493.44 22.14,-468 13.68,-454.42 14.41,-446.01 22.14,-432 31.84,-414.42 50.09,-401.87 67.11,-393.4"/>
<polygon fill="#8b4513" stroke="#8b4513" points="68.77,-396.49 76.38,-389.12 65.83,-390.14 68.77,-396.49"/>
</g>
<!-- libncursesw.so=6&#45;64 -->
<g id="node15" class="node">
<title>libncursesw.so=6&#45;64</title>
<ellipse fill="green" stroke="green" cx="115.14" cy="-450" rx="83.69" ry="18"/>
<text text-anchor="middle" x="115.14" y="-446.3" font-family="Times,serif" font-size="14.00">libncursesw.so=6&#45;64</text>
</g>
<!-- readline&#45;&gt;libncursesw.so=6&#45;64 -->
<g id="edge16" class="edge">
<title>readline&#45;&gt;libncursesw.so=6&#45;64</title>
<path fill="none" stroke="#8b4513" d="M126.51,-504.05C124.84,-496.26 122.82,-486.82 120.94,-478.08"/>
<polygon fill="#8b4513" stroke="#8b4513" points="124.36,-477.32 118.84,-468.28 117.52,-478.79 124.36,-477.32"/>
</g>
<!-- linux&#45;api&#45;headers&gt;=4.10 -->
<g id="node7" class="node">
<title>linux&#45;api&#45;headers&gt;=4.10</title>
<ellipse fill="green" stroke="green" cx="98.14" cy="-90" rx="98.28" ry="18"/>
<text text-anchor="middle" x="98.14" y="-86.3" font-family="Times,serif" font-size="14.00">linux&#45;api&#45;headers&gt;=4.10</text>
</g>
<!-- glibc&#45;&gt;linux&#45;api&#45;headers&gt;=4.10 -->
<g id="edge6" class="edge">
<title>glibc&#45;&gt;linux&#45;api&#45;headers&gt;=4.10</title>
<path fill="none" stroke="#8b4513" d="M223.98,-150.52C202.2,-140.22 168.37,-124.22 141.27,-111.4"/>
<polygon fill="#8b4513" stroke="#8b4513" points="142.53,-108.12 132,-107.01 139.54,-114.45 142.53,-108.12"/>
</g>
<!-- tzdata -->
<g id="node9" class="node">
<title>tzdata</title>
<ellipse fill="green" stroke="green" cx="246.14" cy="-90" rx="31.7" ry="18"/>
<text text-anchor="middle" x="246.14" y="-86.3" font-family="Times,serif" font-size="14.00">tzdata</text>
</g>
<!-- glibc&#45;&gt;tzdata -->
<g id="edge8" class="edge">
<title>glibc&#45;&gt;tzdata</title>
<path fill="none" stroke="#8b4513" d="M246.14,-143.7C246.14,-135.98 246.14,-126.71 246.14,-118.11"/>
<polygon fill="#8b4513" stroke="#8b4513" points="249.64,-118.1 246.14,-108.1 242.64,-118.1 249.64,-118.1"/>
</g>
<!-- filesystem -->
<g id="node10" class="node">
<title>filesystem</title>
<ellipse fill="green" stroke="green" cx="343.14" cy="-90" rx="46.59" ry="18"/>
<text text-anchor="middle" x="343.14" y="-86.3" font-family="Times,serif" font-size="14.00">filesystem</text>
</g>
<!-- glibc&#45;&gt;filesystem -->
<g id="edge9" class="edge">
<title>glibc&#45;&gt;filesystem</title>
<path fill="none" stroke="#8b4513" d="M264.39,-147.83C278.19,-137.88 297.42,-123.99 313.43,-112.44"/>
<polygon fill="#8b4513" stroke="#8b4513" points="315.88,-114.99 321.94,-106.3 311.78,-109.31 315.88,-114.99"/>
</g>
<!-- linux&#45;api&#45;headers -->
<g id="node8" class="node">
<title>linux&#45;api&#45;headers</title>
<ellipse fill="green" stroke="green" cx="98.14" cy="-18" rx="71.49" ry="18"/>
<text text-anchor="middle" x="98.14" y="-14.3" font-family="Times,serif" font-size="14.00">linux&#45;api&#45;headers</text>
</g>
<!-- linux&#45;api&#45;headers&gt;=4.10&#45;&gt;linux&#45;api&#45;headers -->
<g id="edge7" class="edge">
<title>linux&#45;api&#45;headers&gt;=4.10&#45;&gt;linux&#45;api&#45;headers</title>
<path fill="none" stroke="grey" d="M98.14,-71.7C98.14,-60.85 98.14,-46.92 98.14,-36.1"/>
</g>
<!-- iana&#45;etc -->
<g id="node11" class="node">
<title>iana&#45;etc</title>
<ellipse fill="green" stroke="green" cx="343.14" cy="-18" rx="38.19" ry="18"/>
<text text-anchor="middle" x="343.14" y="-14.3" font-family="Times,serif" font-size="14.00">iana&#45;etc</text>
</g>
<!-- filesystem&#45;&gt;iana&#45;etc -->
<g id="edge10" class="edge">
<title>filesystem&#45;&gt;iana&#45;etc</title>
<path fill="none" stroke="#8b4513" d="M343.14,-71.7C343.14,-63.98 343.14,-54.71 343.14,-46.11"/>
<polygon fill="#8b4513" stroke="#8b4513" points="346.64,-46.1 343.14,-36.1 339.64,-46.1 346.64,-46.1"/>
</g>
<!-- ncurses&#45;&gt;glibc -->
<g id="edge12" class="edge">
<title>ncurses&#45;&gt;glibc</title>
<path fill="none" stroke="#8b4513" d="M121.5,-361.52C131.19,-351.34 143.62,-337.45 153.14,-324 184.88,-279.19 185.29,-263.32 213.14,-216 218.61,-206.71 224.81,-196.64 230.35,-187.8"/>
<polygon fill="#8b4513" stroke="#8b4513" points="233.45,-189.44 235.82,-179.11 227.53,-185.7 233.45,-189.44"/>
</g>
<!-- gcc&#45;libs -->
<g id="node13" class="node">
<title>gcc&#45;libs</title>
<ellipse fill="green" stroke="green" cx="106.14" cy="-306" rx="38.19" ry="18"/>
<text text-anchor="middle" x="106.14" y="-302.3" font-family="Times,serif" font-size="14.00">gcc&#45;libs</text>
</g>
<!-- ncurses&#45;&gt;gcc&#45;libs -->
<g id="edge13" class="edge">
<title>ncurses&#45;&gt;gcc&#45;libs</title>
<path fill="none" stroke="#8b4513" d="M106.14,-359.7C106.14,-351.98 106.14,-342.71 106.14,-334.11"/>
<polygon fill="#8b4513" stroke="#8b4513" points="109.64,-334.1 106.14,-324.1 102.64,-334.1 109.64,-334.1"/>
</g>
<!-- glibc&gt;=2.27 -->
<g id="node14" class="node">
<title>glibc&gt;=2.27</title>
<ellipse fill="green" stroke="green" cx="106.14" cy="-234" rx="54.69" ry="18"/>
<text text-anchor="middle" x="106.14" y="-230.3" font-family="Times,serif" font-size="14.00">glibc&gt;=2.27</text>
</g>
<!-- gcc&#45;libs&#45;&gt;glibc&gt;=2.27 -->
<g id="edge14" class="edge">
<title>gcc&#45;libs&#45;&gt;glibc&gt;=2.27</title>
<path fill="none" stroke="#8b4513" d="M106.14,-287.7C106.14,-279.98 106.14,-270.71 106.14,-262.11"/>
<polygon fill="#8b4513" stroke="#8b4513" points="109.64,-262.1 106.14,-252.1 102.64,-262.1 109.64,-262.1"/>
</g>
<!-- glibc&gt;=2.27&#45;&gt;glibc -->
<g id="edge15" class="edge">
<title>glibc&gt;=2.27&#45;&gt;glibc</title>
<path fill="none" stroke="grey" d="M134.81,-218.67C161.37,-205.39 200.3,-185.92 224.38,-173.88"/>
</g>
<!-- libncursesw.so=6&#45;64&#45;&gt;ncurses -->
<g id="edge17" class="edge">
<title>libncursesw.so=6&#45;64&#45;&gt;ncurses</title>
<path fill="none" stroke="grey" d="M112.92,-431.7C111.52,-420.85 109.73,-406.92 108.34,-396.1"/>
</g>
<!-- libgpg&#45;error&#45;&gt;glibc -->
<g id="edge21" class="edge">
<title>libgpg&#45;error&#45;&gt;glibc</title>
<path fill="none" stroke="#8b4513" d="M376.01,-648.23C370.75,-638 364.37,-624.53 360.14,-612 347.21,-573.68 341.14,-563.45 341.14,-523 341.14,-523 341.14,-523 341.14,-305 341.14,-264.03 340.15,-249.89 317.14,-216 306.84,-200.82 290.73,-188.29 276.46,-179.22"/>
<polygon fill="#8b4513" stroke="#8b4513" points="278.24,-176.21 267.88,-174.03 274.62,-182.2 278.24,-176.21"/>
</g>
<!-- sh -->
<g id="node17" class="node">
<title>sh</title>
<ellipse fill="green" stroke="green" cx="396.14" cy="-594" rx="27" ry="18"/>
<text text-anchor="middle" x="396.14" y="-590.3" font-family="Times,serif" font-size="14.00">sh</text>
</g>
<!-- libgpg&#45;error&#45;&gt;sh -->
<g id="edge22" class="edge">
<title>libgpg&#45;error&#45;&gt;sh</title>
<path fill="none" stroke="#8b4513" d="M387.86,-647.7C389.07,-639.98 390.53,-630.71 391.88,-622.11"/>
<polygon fill="#8b4513" stroke="#8b4513" points="395.36,-622.53 393.45,-612.1 388.44,-621.44 395.36,-622.53"/>
</g>
</g>
</svg>
