<?xml version="1.0" encoding="UTF-8" standalone="no"?>
<!DOCTYPE svg PUBLIC "-//W3C//DTD SVG 1.1//EN"
 "http://www.w3.org/Graphics/SVG/1.1/DTD/svg11.dtd">
<!-- Generated by graphviz version 2.44.0 (0)
 -->
<!-- Title: G Pages: 1 -->
<svg width="573pt" height="1268pt"
 viewBox="0.00 0.00 573.14 1268.00" xmlns="http://www.w3.org/2000/svg" xmlns:xlink="http://www.w3.org/1999/xlink">
<g id="graph0" class="graph" transform="scale(1 1) rotate(0) translate(4 1264)">
<title>G</title>
<polygon fill="white" stroke="transparent" points="-4,4 -4,-1264 569.14,-1264 569.14,4 -4,4"/>
<!-- START -->
<g id="node1" class="node">
<title>START</title>
<ellipse fill="red" stroke="red" cx="314.14" cy="-1242" rx="38.19" ry="18"/>
<text text-anchor="middle" x="314.14" y="-1238.3" font-family="Times,serif" font-size="14.00">START</text>
</g>
<!-- libldap -->
<g id="node2" class="node">
<title>libldap</title>
<ellipse fill="green" stroke="green" cx="314.14" cy="-1170" rx="35.19" ry="18"/>
<text text-anchor="middle" x="314.14" y="-1166.3" font-family="Times,serif" font-size="14.00">libldap</text>
</g>
<!-- START&#45;&gt;libldap -->
<g id="edge1" class="edge">
<title>START&#45;&gt;libldap</title>
<path fill="none" stroke="black" d="M314.14,-1223.7C314.14,-1215.98 314.14,-1206.71 314.14,-1198.11"/>
<polygon fill="black" stroke="black" points="317.64,-1198.1 314.14,-1188.1 310.64,-1198.1 317.64,-1198.1"/>
</g>
<!-- libsasl -->
<g id="node3" class="node">
<title>libsasl</title>
<ellipse fill="green" stroke="green" cx="266.14" cy="-1098" rx="33.29" ry="18"/>
<text text-anchor="middle" x="266.14" y="-1094.3" font-family="Times,serif" font-size="14.00">libsasl</text>
</g>
<!-- libldap&#45;&gt;libsasl -->
<g id="edge2" class="edge">
<title>libldap&#45;&gt;libsasl</title>
<path fill="none" stroke="#8b4513" d="M303.01,-1152.76C297.07,-1144.11 289.64,-1133.27 283.01,-1123.6"/>
<polygon fill="#8b4513" stroke="#8b4513" points="285.76,-1121.42 277.21,-1115.15 279.98,-1125.37 285.76,-1121.42"/>
</g>
<!-- e2fsprogs -->
<g id="node23" class="node">
<title>e2fsprogs</title>
<ellipse fill="green" stroke="green" cx="371.14" cy="-1098" rx="44.69" ry="18"/>
<text text-anchor="middle" x="371.14" y="-1094.3" font-family="Times,serif" font-size="14.00">e2fsprogs</text>
</g>
<!-- libldap&#45;&gt;e2fsprogs -->
<g id="edge31" class="edge">
<title>libldap&#45;&gt;e2fsprogs</title>
<path fill="none" stroke="#8b4513" d="M327.08,-1153.12C334.26,-1144.29 343.35,-1133.13 351.4,-1123.24"/>
<polygon fill="#8b4513" stroke="#8b4513" points="354.26,-1125.27 357.86,-1115.31 348.83,-1120.85 354.26,-1125.27"/>
</g>
<!-- openssl -->
<g id="node4" class="node">
<title>openssl</title>
<ellipse fill="green" stroke="green" cx="247.14" cy="-1026" rx="37.09" ry="18"/>
<text text-anchor="middle" x="247.14" y="-1022.3" font-family="Times,serif" font-size="14.00">openssl</text>
</g>
<!-- libsasl&#45;&gt;openssl -->
<g id="edge3" class="edge">
<title>libsasl&#45;&gt;openssl</title>
<path fill="none" stroke="#8b4513" d="M261.54,-1080.05C259.43,-1072.26 256.86,-1062.82 254.49,-1054.08"/>
<polygon fill="#8b4513" stroke="#8b4513" points="257.83,-1053.01 251.83,-1044.28 251.07,-1054.84 257.83,-1053.01"/>
</g>
<!-- perl -->
<g id="node5" class="node">
<title>perl</title>
<ellipse fill="green" stroke="green" cx="242.14" cy="-954" rx="27" ry="18"/>
<text text-anchor="middle" x="242.14" y="-950.3" font-family="Times,serif" font-size="14.00">perl</text>
</g>
<!-- openssl&#45;&gt;perl -->
<g id="edge4" class="edge">
<title>openssl&#45;&gt;perl</title>
<path fill="none" stroke="#8b4513" d="M245.91,-1007.7C245.35,-999.98 244.69,-990.71 244.08,-982.11"/>
<polygon fill="#8b4513" stroke="#8b4513" points="247.57,-981.83 243.36,-972.1 240.58,-982.33 247.57,-981.83"/>
</g>
<!-- gdbm&gt;=1.17 -->
<g id="node6" class="node">
<title>gdbm&gt;=1.17</title>
<ellipse fill="green" stroke="green" cx="237.14" cy="-882" rx="57.69" ry="18"/>
<text text-anchor="middle" x="237.14" y="-878.3" font-family="Times,serif" font-size="14.00">gdbm&gt;=1.17</text>
</g>
<!-- perl&#45;&gt;gdbm&gt;=1.17 -->
<g id="edge5" class="edge">
<title>perl&#45;&gt;gdbm&gt;=1.17</title>
<path fill="none" stroke="#8b4513" d="M240.91,-935.7C240.35,-927.98 239.69,-918.71 239.08,-910.11"/>
<polygon fill="#8b4513" stroke="#8b4513" points="242.57,-909.83 238.36,-900.1 235.58,-910.33 242.57,-909.83"/>
</g>
<!-- glibc -->
<g id="node8" class="node">
<title>glibc</title>
<ellipse fill="green" stroke="green" cx="246.14" cy="-162" rx="28.7" ry="18"/>
<text text-anchor="middle" x="246.14" y="-158.3" font-family="Times,serif" font-size="14.00">glibc</text>
</g>
<!-- perl&#45;&gt;glibc -->
<g id="edge30" class="edge">
<title>perl&#45;&gt;glibc</title>
<path fill="none" stroke="#8b4513" d="M220.83,-942.78C204.42,-933.8 182.52,-919.17 170.14,-900 148.2,-866.02 151.14,-851.45 151.14,-811 151.14,-811 151.14,-811 151.14,-305 151.14,-254.79 192.68,-208.89 220.83,-183.56"/>
<polygon fill="#8b4513" stroke="#8b4513" points="223.48,-185.88 228.72,-176.67 218.88,-180.61 223.48,-185.88"/>
</g>
<!-- db -->
<g id="node22" class="node">
<title>db</title>
<ellipse fill="green" stroke="green" cx="316.14" cy="-810" rx="27" ry="18"/>
<text text-anchor="middle" x="316.14" y="-806.3" font-family="Times,serif" font-size="14.00">db</text>
</g>
<!-- perl&#45;&gt;db -->
<g id="edge27" class="edge">
<title>perl&#45;&gt;db</title>
<path fill="none" stroke="#8b4513" d="M262.06,-941.53C276.24,-932.24 294.46,-917.78 304.14,-900 314.43,-881.11 317.11,-856.74 317.4,-838.28"/>
<polygon fill="#8b4513" stroke="#8b4513" points="320.9,-838.16 317.34,-828.18 313.9,-838.2 320.9,-838.16"/>
</g>
<!-- gdbm -->
<g id="node7" class="node">
<title>gdbm</title>
<ellipse fill="green" stroke="green" cx="237.14" cy="-810" rx="31.4" ry="18"/>
<text text-anchor="middle" x="237.14" y="-806.3" font-family="Times,serif" font-size="14.00">gdbm</text>
</g>
<!-- gdbm&gt;=1.17&#45;&gt;gdbm -->
<g id="edge6" class="edge">
<title>gdbm&gt;=1.17&#45;&gt;gdbm</title>
<path fill="none" stroke="grey" d="M237.14,-863.7C237.14,-852.85 237.14,-838.92 237.14,-828.1"/>
</g>
<!-- gdbm&#45;&gt;glibc -->
<g id="edge7" class="edge">
<title>gdbm&#45;&gt;glibc</title>
<path fill="none" stroke="#8b4513" d="M227.66,-792.56C213.67,-766.72 189.14,-714.62 189.14,-667 189.14,-667 189.14,-667 189.14,-305 189.14,-261.09 212.91,-214.67 229.75,-187.3"/>
<polygon fill="#8b4513" stroke="#8b4513" points="232.75,-189.1 235.15,-178.78 226.84,-185.35 232.75,-189.1"/>
</g>
<!-- sh -->
<g id="node14" class="node">
<title>sh</title>
<ellipse fill="green" stroke="green" cx="316.14" cy="-738" rx="27" ry="18"/>
<text text-anchor="middle" x="316.14" y="-734.3" font-family="Times,serif" font-size="14.00">sh</text>
</g>
<!-- gdbm&#45;&gt;sh -->
<g id="edge13" class="edge">
<title>gdbm&#45;&gt;sh</title>
<path fill="none" stroke="#8b4513" d="M253.51,-794.5C264.96,-784.35 280.42,-770.65 293.11,-759.4"/>
<polygon fill="#8b4513" stroke="#8b4513" points="295.44,-762.02 300.6,-752.77 290.79,-756.78 295.44,-762.02"/>
</g>
<!-- linux&#45;api&#45;headers&gt;=4.10 -->
<g id="node9" class="node">
<title>linux&#45;api&#45;headers&gt;=4.10</title>
<ellipse fill="green" stroke="green" cx="98.14" cy="-90" rx="98.28" ry="18"/>
<text text-anchor="middle" x="98.14" y="-86.3" font-family="Times,serif" font-size="14.00">linux&#45;api&#45;headers&gt;=4.10</text>
</g>
<!-- glibc&#45;&gt;linux&#45;api&#45;headers&gt;=4.10 -->
<g id="edge8" class="edge">
<title>glibc&#45;&gt;linux&#45;api&#45;headers&gt;=4.10</title>
<path fill="none" stroke="#8b4513" d="M223.98,-150.52C202.2,-140.22 168.37,-124.22 141.27,-111.4"/>
<polygon fill="#8b4513" stroke="#8b4513" points="142.53,-108.12 132,-107.01 139.54,-114.45 142.53,-108.12"/>
</g>
<!-- tzdata -->
<g id="node11" class="node">
<title>tzdata</title>
<ellipse fill="green" stroke="green" cx="246.14" cy="-90" rx="31.7" ry="18"/>
<text text-anchor="middle" x="246.14" y="-86.3" font-family="Times,serif" font-size="14.00">tzdata</text>
</g>
<!-- glibc&#45;&gt;tzdata -->
<g id="edge10" class="edge">
<title>glibc&#45;&gt;tzdata</title>
<path fill="none" stroke="#8b4513" d="M246.14,-143.7C246.14,-135.98 246.14,-126.71 246.14,-118.11"/>
<polygon fill="#8b4513" stroke="#8b4513" points="249.64,-118.1 246.14,-108.1 242.64,-118.1 249.64,-118.1"/>
</g>
<!-- filesystem -->
<g id="node12" class="node">
<title>filesystem</title>
<ellipse fill="green" stroke="green" cx="343.14" cy="-90" rx="46.59" ry="18"/>
<text text-anchor="middle" x="343.14" y="-86.3" font-family="Times,serif" font-size="14.00">filesystem</text>
</g>
<!-- glibc&#45;&gt;filesystem -->
<g id="edge11" class="edge">
<title>glibc&#45;&gt;filesystem</title>
<path fill="none" stroke="#8b4513" d="M264.39,-147.83C278.19,-137.88 297.42,-123.99 313.43,-112.44"/>
<polygon fill="#8b4513" stroke="#8b4513" points="315.88,-114.99 321.94,-106.3 311.78,-109.31 315.88,-114.99"/>
</g>
<!-- linux&#45;api&#45;headers -->
<g id="node10" class="node">
<title>linux&#45;api&#45;headers</title>
<ellipse fill="green" stroke="green" cx="98.14" cy="-18" rx="71.49" ry="18"/>
<text text-anchor="middle" x="98.14" y="-14.3" font-family="Times,serif" font-size="14.00">linux&#45;api&#45;headers</text>
</g>
<!-- linux&#45;api&#45;headers&gt;=4.10&#45;&gt;linux&#45;api&#45;headers -->
<g id="edge9" class="edge">
<title>linux&#45;api&#45;headers&gt;=4.10&#45;&gt;linux&#45;api&#45;headers</title>
<path fill="none" stroke="grey" d="M98.14,-71.7C98.14,-60.85 98.14,-46.92 98.14,-36.1"/>
</g>
<!-- iana&#45;etc -->
<g id="node13" class="node">
<title>iana&#45;etc</title>
<ellipse fill="green" stroke="green" cx="343.14" cy="-18" rx="38.19" ry="18"/>
<text text-anchor="middle" x="343.14" y="-14.3" font-family="Times,serif" font-size="14.00">iana&#45;etc</text>
</g>
<!-- filesystem&#45;&gt;iana&#45;etc -->
<g id="edge12" class="edge">
<title>filesystem&#45;&gt;iana&#45;etc</title>
<path fill="none" stroke="#8b4513" d="M343.14,-71.7C343.14,-63.98 343.14,-54.71 343.14,-46.11"/>
<polygon fill="#8b4513" stroke="#8b4513" points="346.64,-46.1 343.14,-36.1 339.64,-46.1 346.64,-46.1"/>
</g>
<!-- bash -->
<g id="node15" class="node">
<title>bash</title>
<ellipse fill="green" stroke="green" cx="316.14" cy="-666" rx="27" ry="18"/>
<text text-anchor="middle" x="316.14" y="-662.3" font-family="Times,serif" font-size="14.00">bash</text>
</g>
<!-- sh&#45;&gt;bash -->
<g id="edge14" class="edge">
<title>sh&#45;&gt;bash</title>
<path fill="none" stroke="grey" d="M310.3,-720.41C309.1,-709.41 309.09,-695.03 310.26,-683.96"/>
</g>
<!-- sh&#45;&gt;bash -->
<g id="edge33" class="edge">
<title>sh&#45;&gt;bash</title>
<path fill="none" stroke="grey" d="M321.98,-720.41C323.18,-709.41 323.19,-695.03 322.02,-683.96"/>
</g>
<!-- bash&#45;&gt;glibc -->
<g id="edge25" class="edge">
<title>bash&#45;&gt;glibc</title>
<path fill="none" stroke="#8b4513" d="M295.09,-654.45C279.17,-645.38 258.09,-630.78 246.14,-612 224.43,-577.87 227.14,-563.45 227.14,-523 227.14,-523 227.14,-523 227.14,-305 227.14,-264.64 234.78,-218.39 240.37,-189.94"/>
<polygon fill="#8b4513" stroke="#8b4513" points="243.83,-190.45 242.39,-179.95 236.97,-189.06 243.83,-190.45"/>
</g>
<!-- readline&gt;=7.0 -->
<g id="node16" class="node">
<title>readline&gt;=7.0</title>
<ellipse fill="green" stroke="green" cx="316.14" cy="-594" rx="61.19" ry="18"/>
<text text-anchor="middle" x="316.14" y="-590.3" font-family="Times,serif" font-size="14.00">readline&gt;=7.0</text>
</g>
<!-- bash&#45;&gt;readline&gt;=7.0 -->
<g id="edge15" class="edge">
<title>bash&#45;&gt;readline&gt;=7.0</title>
<path fill="none" stroke="#8b4513" d="M316.14,-647.7C316.14,-639.98 316.14,-630.71 316.14,-622.11"/>
<polygon fill="#8b4513" stroke="#8b4513" points="319.64,-622.1 316.14,-612.1 312.64,-622.1 319.64,-622.1"/>
</g>
<!-- ncurses -->
<g id="node18" class="node">
<title>ncurses</title>
<ellipse fill="green" stroke="green" cx="401.14" cy="-378" rx="37.09" ry="18"/>
<text text-anchor="middle" x="401.14" y="-374.3" font-family="Times,serif" font-size="14.00">ncurses</text>
</g>
<!-- bash&#45;&gt;ncurses -->
<g id="edge26" class="edge">
<title>bash&#45;&gt;ncurses</title>
<path fill="none" stroke="#8b4513" d="M335.59,-653.32C377.55,-626.78 475.42,-557.23 508.14,-468 513.65,-452.98 516.58,-445.59 508.14,-432 494.22,-409.58 467.69,-396.35 444.52,-388.71"/>
<polygon fill="#8b4513" stroke="#8b4513" points="445.43,-385.33 434.85,-385.77 443.4,-392.03 445.43,-385.33"/>
</g>
<!-- readline -->
<g id="node17" class="node">
<title>readline</title>
<ellipse fill="green" stroke="green" cx="310.14" cy="-522" rx="38.99" ry="18"/>
<text text-anchor="middle" x="310.14" y="-518.3" font-family="Times,serif" font-size="14.00">readline</text>
</g>
<!-- readline&gt;=7.0&#45;&gt;readline -->
<g id="edge16" class="edge">
<title>readline&gt;=7.0&#45;&gt;readline</title>
<path fill="none" stroke="grey" d="M314.66,-575.7C313.73,-564.85 312.53,-550.92 311.61,-540.1"/>
</g>
<!-- readline&#45;&gt;glibc -->
<g id="edge17" class="edge">
<title>readline&#45;&gt;glibc</title>
<path fill="none" stroke="#8b4513" d="M301.03,-504.06C287.89,-477.98 265.14,-426.07 265.14,-379 265.14,-379 265.14,-379 265.14,-305 265.14,-264.64 257.51,-218.39 251.92,-189.94"/>
<polygon fill="#8b4513" stroke="#8b4513" points="255.31,-189.06 249.9,-179.95 248.45,-190.45 255.31,-189.06"/>
</g>
<!-- readline&#45;&gt;ncurses -->
<g id="edge18" class="edge">
<title>readline&#45;&gt;ncurses</title>
<path fill="none" stroke="#8b4513" d="M308.48,-503.88C307.48,-484.87 308.46,-453.97 322.14,-432 332.14,-415.94 349,-403.65 364.59,-394.96"/>
<polygon fill="#8b4513" stroke="#8b4513" points="366.32,-398 373.55,-390.26 363.07,-391.8 366.32,-398"/>
</g>
<!-- libncursesw.so=6&#45;64 -->
<g id="node21" class="node">
<title>libncursesw.so=6&#45;64</title>
<ellipse fill="green" stroke="green" cx="415.14" cy="-450" rx="83.69" ry="18"/>
<text text-anchor="middle" x="415.14" y="-446.3" font-family="Times,serif" font-size="14.00">libncursesw.so=6&#45;64</text>
</g>
<!-- readline&#45;&gt;libncursesw.so=6&#45;64 -->
<g id="edge23" class="edge">
<title>readline&#45;&gt;libncursesw.so=6&#45;64</title>
<path fill="none" stroke="#8b4513" d="M331.39,-506.83C345.98,-497.1 365.64,-484 382.25,-472.93"/>
<polygon fill="#8b4513" stroke="#8b4513" points="384.23,-475.81 390.61,-467.35 380.35,-469.99 384.23,-475.81"/>
</g>
<!-- ncurses&#45;&gt;glibc -->
<g id="edge19" class="edge">
<title>ncurses&#45;&gt;glibc</title>
<path fill="none" stroke="#8b4513" d="M386.16,-361.24C376.63,-350.95 364.22,-337.04 354.14,-324 318.35,-277.71 281.37,-220.05 261.31,-187.8"/>
<polygon fill="#8b4513" stroke="#8b4513" points="264.13,-185.69 255.89,-179.03 258.17,-189.38 264.13,-185.69"/>
</g>
<!-- gcc&#45;libs -->
<g id="node19" class="node">
<title>gcc&#45;libs</title>
<ellipse fill="green" stroke="green" cx="401.14" cy="-306" rx="38.19" ry="18"/>
<text text-anchor="middle" x="401.14" y="-302.3" font-family="Times,serif" font-size="14.00">gcc&#45;libs</text>
</g>
<!-- ncurses&#45;&gt;gcc&#45;libs -->
<g id="edge20" class="edge">
<title>ncurses&#45;&gt;gcc&#45;libs</title>
<path fill="none" stroke="#8b4513" d="M401.14,-359.7C401.14,-351.98 401.14,-342.71 401.14,-334.11"/>
<polygon fill="#8b4513" stroke="#8b4513" points="404.64,-334.1 401.14,-324.1 397.64,-334.1 404.64,-334.1"/>
</g>
<!-- glibc&gt;=2.27 -->
<g id="node20" class="node">
<title>glibc&gt;=2.27</title>
<ellipse fill="green" stroke="green" cx="397.14" cy="-234" rx="54.69" ry="18"/>
<text text-anchor="middle" x="397.14" y="-230.3" font-family="Times,serif" font-size="14.00">glibc&gt;=2.27</text>
</g>
<!-- gcc&#45;libs&#45;&gt;glibc&gt;=2.27 -->
<g id="edge21" class="edge">
<title>gcc&#45;libs&#45;&gt;glibc&gt;=2.27</title>
<path fill="none" stroke="#8b4513" d="M400.15,-287.7C399.71,-279.98 399.18,-270.71 398.69,-262.11"/>
<polygon fill="#8b4513" stroke="#8b4513" points="402.18,-261.89 398.12,-252.1 395.19,-262.29 402.18,-261.89"/>
</g>
<!-- glibc&gt;=2.27&#45;&gt;glibc -->
<g id="edge22" class="edge">
<title>glibc&gt;=2.27&#45;&gt;glibc</title>
<path fill="none" stroke="grey" d="M366.95,-219C337.86,-205.52 294.53,-185.43 268.44,-173.34"/>
</g>
<!-- libncursesw.so=6&#45;64&#45;&gt;ncurses -->
<g id="edge24" class="edge">
<title>libncursesw.so=6&#45;64&#45;&gt;ncurses</title>
<path fill="none" stroke="grey" d="M411.68,-431.7C409.51,-420.85 406.72,-406.92 404.56,-396.1"/>
</g>
<!-- db&#45;&gt;sh -->
<g id="edge29" class="edge">
<title>db&#45;&gt;sh</title>
<path fill="none" stroke="#8b4513" d="M316.14,-791.7C316.14,-783.98 316.14,-774.71 316.14,-766.11"/>
<polygon fill="#8b4513" stroke="#8b4513" points="319.64,-766.1 316.14,-756.1 312.64,-766.1 319.64,-766.1"/>
</g>
<!-- db&#45;&gt;gcc&#45;libs -->
<g id="edge28" class="edge">
<title>db&#45;&gt;gcc&#45;libs</title>
<path fill="none" stroke="#8b4513" d="M342.79,-806.37C407.02,-798.41 565.14,-768.52 565.14,-667 565.14,-667 565.14,-667 565.14,-449 565.14,-383.33 489.05,-341.24 440.53,-321.07"/>
<polygon fill="#8b4513" stroke="#8b4513" points="441.81,-317.81 431.22,-317.33 439.19,-324.31 441.81,-317.81"/>
</g>
<!-- e2fsprogs&#45;&gt;sh -->
<g id="edge32" class="edge">
<title>e2fsprogs&#45;&gt;sh</title>
<path fill="none" stroke="#8b4513" d="M371.14,-1079.95C371.14,-1053.29 371.14,-1000.11 371.14,-955 371.14,-955 371.14,-955 371.14,-881 371.14,-840.55 368.02,-829.2 352.14,-792 347.75,-781.72 341.26,-771.34 334.99,-762.53"/>
<polygon fill="#8b4513" stroke="#8b4513" points="337.66,-760.24 328.89,-754.3 332.04,-764.41 337.66,-760.24"/>
</g>
<!-- libutil&#45;linux -->
<g id="node24" class="node">
<title>libutil&#45;linux</title>
<ellipse fill="green" stroke="green" cx="452.14" cy="-1026" rx="52.79" ry="18"/>
<text text-anchor="middle" x="452.14" y="-1022.3" font-family="Times,serif" font-size="14.00">libutil&#45;linux</text>
</g>
<!-- e2fsprogs&#45;&gt;libutil&#45;linux -->
<g id="edge34" class="edge">
<title>e2fsprogs&#45;&gt;libutil&#45;linux</title>
<path fill="none" stroke="#8b4513" d="M389.12,-1081.46C399.98,-1072.08 414,-1059.96 426.06,-1049.54"/>
<polygon fill="#8b4513" stroke="#8b4513" points="428.38,-1052.16 433.65,-1042.98 423.8,-1046.87 428.38,-1052.16"/>
</g>
</g>
</svg>
