<?xml version="1.0" encoding="UTF-8" standalone="no"?>
<!DOCTYPE svg PUBLIC "-//W3C//DTD SVG 1.1//EN"
 "http://www.w3.org/Graphics/SVG/1.1/DTD/svg11.dtd">
<!-- Generated by graphviz version 2.44.0 (0)
 -->
<!-- Title: G Pages: 1 -->
<svg width="1268pt" height="1412pt"
 viewBox="0.00 0.00 1268.10 1412.00" xmlns="http://www.w3.org/2000/svg" xmlns:xlink="http://www.w3.org/1999/xlink">
<g id="graph0" class="graph" transform="scale(1 1) rotate(0) translate(4 1408)">
<title>G</title>
<polygon fill="white" stroke="transparent" points="-4,4 -4,-1408 1264.1,-1408 1264.1,4 -4,4"/>
<!-- START -->
<g id="node1" class="node">
<title>START</title>
<ellipse fill="red" stroke="red" cx="999.6" cy="-1386" rx="38.19" ry="18"/>
<text text-anchor="middle" x="999.6" y="-1382.3" font-family="Times,serif" font-size="14.00">START</text>
</g>
<!-- libmicrohttpd -->
<g id="node2" class="node">
<title>libmicrohttpd</title>
<ellipse fill="green" stroke="green" cx="999.6" cy="-1314" rx="59.29" ry="18"/>
<text text-anchor="middle" x="999.6" y="-1310.3" font-family="Times,serif" font-size="14.00">libmicrohttpd</text>
</g>
<!-- START&#45;&gt;libmicrohttpd -->
<g id="edge1" class="edge">
<title>START&#45;&gt;libmicrohttpd</title>
<path fill="none" stroke="black" d="M999.6,-1367.7C999.6,-1359.98 999.6,-1350.71 999.6,-1342.11"/>
<polygon fill="black" stroke="black" points="1003.1,-1342.1 999.6,-1332.1 996.1,-1342.1 1003.1,-1342.1"/>
</g>
<!-- gnutls -->
<g id="node3" class="node">
<title>gnutls</title>
<ellipse fill="green" stroke="green" cx="999.6" cy="-1242" rx="32.49" ry="18"/>
<text text-anchor="middle" x="999.6" y="-1238.3" font-family="Times,serif" font-size="14.00">gnutls</text>
</g>
<!-- libmicrohttpd&#45;&gt;gnutls -->
<g id="edge2" class="edge">
<title>libmicrohttpd&#45;&gt;gnutls</title>
<path fill="none" stroke="#8b4513" d="M999.6,-1295.7C999.6,-1287.98 999.6,-1278.71 999.6,-1270.11"/>
<polygon fill="#8b4513" stroke="#8b4513" points="1003.1,-1270.1 999.6,-1260.1 996.1,-1270.1 1003.1,-1270.1"/>
</g>
<!-- gcc&#45;libs -->
<g id="node4" class="node">
<title>gcc&#45;libs</title>
<ellipse fill="green" stroke="green" cx="54.6" cy="-306" rx="38.19" ry="18"/>
<text text-anchor="middle" x="54.6" y="-302.3" font-family="Times,serif" font-size="14.00">gcc&#45;libs</text>
</g>
<!-- gnutls&#45;&gt;gcc&#45;libs -->
<g id="edge3" class="edge">
<title>gnutls&#45;&gt;gcc&#45;libs</title>
<path fill="none" stroke="#8b4513" d="M967.09,-1240.44C815.59,-1237.67 182.68,-1223.98 102.6,-1188 51.57,-1165.08 13.6,-1154.94 13.6,-1099 13.6,-1099 13.6,-1099 13.6,-449 13.6,-407.18 30.21,-361.05 42.29,-333.05"/>
<polygon fill="#8b4513" stroke="#8b4513" points="45.63,-334.16 46.49,-323.6 39.23,-331.31 45.63,-334.16"/>
</g>
<!-- libtasn1 -->
<g id="node12" class="node">
<title>libtasn1</title>
<ellipse fill="green" stroke="green" cx="965.6" cy="-954" rx="38.19" ry="18"/>
<text text-anchor="middle" x="965.6" y="-950.3" font-family="Times,serif" font-size="14.00">libtasn1</text>
</g>
<!-- gnutls&#45;&gt;libtasn1 -->
<g id="edge11" class="edge">
<title>gnutls&#45;&gt;libtasn1</title>
<path fill="none" stroke="#8b4513" d="M999.34,-1223.9C998.5,-1185.16 995.01,-1087.88 980.6,-1008 979.03,-999.3 976.63,-989.98 974.22,-981.61"/>
<polygon fill="#8b4513" stroke="#8b4513" points="977.55,-980.55 971.31,-971.99 970.85,-982.57 977.55,-980.55"/>
</g>
<!-- readline -->
<g id="node13" class="node">
<title>readline</title>
<ellipse fill="green" stroke="green" cx="287.6" cy="-522" rx="38.99" ry="18"/>
<text text-anchor="middle" x="287.6" y="-518.3" font-family="Times,serif" font-size="14.00">readline</text>
</g>
<!-- gnutls&#45;&gt;readline -->
<g id="edge13" class="edge">
<title>gnutls&#45;&gt;readline</title>
<path fill="none" stroke="#8b4513" d="M967.09,-1241.05C872.09,-1240.62 587.03,-1235.19 356.6,-1188 234.05,-1162.9 89.6,-1224.09 89.6,-1099 89.6,-1099 89.6,-1099 89.6,-737 89.6,-642.07 195.88,-571.37 252.71,-540.35"/>
<polygon fill="#8b4513" stroke="#8b4513" points="254.54,-543.34 261.71,-535.54 251.24,-537.17 254.54,-543.34"/>
</g>
<!-- zlib -->
<g id="node16" class="node">
<title>zlib</title>
<ellipse fill="green" stroke="green" cx="1023.6" cy="-738" rx="27" ry="18"/>
<text text-anchor="middle" x="1023.6" y="-734.3" font-family="Times,serif" font-size="14.00">zlib</text>
</g>
<!-- gnutls&#45;&gt;zlib -->
<g id="edge20" class="edge">
<title>gnutls&#45;&gt;zlib</title>
<path fill="none" stroke="#8b4513" d="M1007.1,-1224.34C1018.18,-1198.2 1037.6,-1145.7 1037.6,-1099 1037.6,-1099 1037.6,-1099 1037.6,-881 1037.6,-840.8 1031.97,-794.51 1027.85,-766"/>
<polygon fill="#8b4513" stroke="#8b4513" points="1031.3,-765.37 1026.36,-756 1024.37,-766.4 1031.3,-765.37"/>
</g>
<!-- nettle -->
<g id="node17" class="node">
<title>nettle</title>
<ellipse fill="green" stroke="green" cx="396.6" cy="-1170" rx="30.59" ry="18"/>
<text text-anchor="middle" x="396.6" y="-1166.3" font-family="Times,serif" font-size="14.00">nettle</text>
</g>
<!-- gnutls&#45;&gt;nettle -->
<g id="edge22" class="edge">
<title>gnutls&#45;&gt;nettle</title>
<path fill="none" stroke="#8b4513" d="M968.02,-1237.34C866.61,-1225.56 549.2,-1188.72 436.66,-1175.65"/>
<polygon fill="#8b4513" stroke="#8b4513" points="436.76,-1172.14 426.42,-1174.46 435.95,-1179.09 436.76,-1172.14"/>
</g>
<!-- p11&#45;kit -->
<g id="node22" class="node">
<title>p11&#45;kit</title>
<ellipse fill="green" stroke="green" cx="706.6" cy="-1170" rx="36.29" ry="18"/>
<text text-anchor="middle" x="706.6" y="-1166.3" font-family="Times,serif" font-size="14.00">p11&#45;kit</text>
</g>
<!-- gnutls&#45;&gt;p11&#45;kit -->
<g id="edge31" class="edge">
<title>gnutls&#45;&gt;p11&#45;kit</title>
<path fill="none" stroke="#8b4513" d="M970.43,-1234.03C918.3,-1221.58 808.95,-1195.45 748.69,-1181.06"/>
<polygon fill="#8b4513" stroke="#8b4513" points="749.28,-1177.6 738.74,-1178.68 747.65,-1184.41 749.28,-1177.6"/>
</g>
<!-- libidn2 -->
<g id="node42" class="node">
<title>libidn2</title>
<ellipse fill="green" stroke="green" cx="1144.6" cy="-1098" rx="36" ry="18"/>
<text text-anchor="middle" x="1144.6" y="-1094.3" font-family="Times,serif" font-size="14.00">libidn2</text>
</g>
<!-- gnutls&#45;&gt;libidn2 -->
<g id="edge76" class="edge">
<title>gnutls&#45;&gt;libidn2</title>
<path fill="none" stroke="#8b4513" d="M1014.84,-1226.07C1040.2,-1201.23 1091.24,-1151.26 1121.19,-1121.92"/>
<polygon fill="#8b4513" stroke="#8b4513" points="1123.98,-1124.09 1128.68,-1114.59 1119.08,-1119.08 1123.98,-1124.09"/>
</g>
<!-- libunistring -->
<g id="node43" class="node">
<title>libunistring</title>
<ellipse fill="green" stroke="green" cx="1144.6" cy="-1026" rx="51.99" ry="18"/>
<text text-anchor="middle" x="1144.6" y="-1022.3" font-family="Times,serif" font-size="14.00">libunistring</text>
</g>
<!-- gnutls&#45;&gt;libunistring -->
<g id="edge81" class="edge">
<title>gnutls&#45;&gt;libunistring</title>
<path fill="none" stroke="#8b4513" d="M1032.06,-1239.01C1093.2,-1234.51 1221.69,-1221.24 1248.6,-1188 1286.48,-1141.2 1218.86,-1080.13 1175.95,-1048.34"/>
<polygon fill="#8b4513" stroke="#8b4513" points="1177.88,-1045.42 1167.73,-1042.38 1173.77,-1051.09 1177.88,-1045.42"/>
</g>
<!-- libidn2.so=0&#45;64 -->
<g id="node44" class="node">
<title>libidn2.so=0&#45;64</title>
<ellipse fill="green" stroke="green" cx="1171.6" cy="-1170" rx="67.69" ry="18"/>
<text text-anchor="middle" x="1171.6" y="-1166.3" font-family="Times,serif" font-size="14.00">libidn2.so=0&#45;64</text>
</g>
<!-- gnutls&#45;&gt;libidn2.so=0&#45;64 -->
<g id="edge79" class="edge">
<title>gnutls&#45;&gt;libidn2.so=0&#45;64</title>
<path fill="none" stroke="#8b4513" d="M1024.97,-1230.67C1051.77,-1219.77 1094.53,-1202.37 1126.97,-1189.16"/>
<polygon fill="#8b4513" stroke="#8b4513" points="1128.31,-1192.39 1136.25,-1185.38 1125.67,-1185.91 1128.31,-1192.39"/>
</g>
<!-- glibc&gt;=2.27 -->
<g id="node5" class="node">
<title>glibc&gt;=2.27</title>
<ellipse fill="green" stroke="green" cx="54.6" cy="-234" rx="54.69" ry="18"/>
<text text-anchor="middle" x="54.6" y="-230.3" font-family="Times,serif" font-size="14.00">glibc&gt;=2.27</text>
</g>
<!-- gcc&#45;libs&#45;&gt;glibc&gt;=2.27 -->
<g id="edge4" class="edge">
<title>gcc&#45;libs&#45;&gt;glibc&gt;=2.27</title>
<path fill="none" stroke="#8b4513" d="M54.6,-287.7C54.6,-279.98 54.6,-270.71 54.6,-262.11"/>
<polygon fill="#8b4513" stroke="#8b4513" points="58.1,-262.1 54.6,-252.1 51.1,-262.1 58.1,-262.1"/>
</g>
<!-- glibc -->
<g id="node6" class="node">
<title>glibc</title>
<ellipse fill="green" stroke="green" cx="644.6" cy="-162" rx="28.7" ry="18"/>
<text text-anchor="middle" x="644.6" y="-158.3" font-family="Times,serif" font-size="14.00">glibc</text>
</g>
<!-- glibc&gt;=2.27&#45;&gt;glibc -->
<g id="edge5" class="edge">
<title>glibc&gt;=2.27&#45;&gt;glibc</title>
<path fill="none" stroke="grey" d="M95.26,-221.98C104.52,-219.75 114.36,-217.6 123.6,-216 309.93,-183.73 537.41,-168.91 616.17,-164.49"/>
</g>
<!-- linux&#45;api&#45;headers&gt;=4.10 -->
<g id="node7" class="node">
<title>linux&#45;api&#45;headers&gt;=4.10</title>
<ellipse fill="green" stroke="green" cx="496.6" cy="-90" rx="98.28" ry="18"/>
<text text-anchor="middle" x="496.6" y="-86.3" font-family="Times,serif" font-size="14.00">linux&#45;api&#45;headers&gt;=4.10</text>
</g>
<!-- glibc&#45;&gt;linux&#45;api&#45;headers&gt;=4.10 -->
<g id="edge6" class="edge">
<title>glibc&#45;&gt;linux&#45;api&#45;headers&gt;=4.10</title>
<path fill="none" stroke="#8b4513" d="M622.44,-150.52C600.65,-140.22 566.82,-124.22 539.72,-111.4"/>
<polygon fill="#8b4513" stroke="#8b4513" points="540.99,-108.12 530.45,-107.01 537.99,-114.45 540.99,-108.12"/>
</g>
<!-- tzdata -->
<g id="node9" class="node">
<title>tzdata</title>
<ellipse fill="green" stroke="green" cx="644.6" cy="-90" rx="31.7" ry="18"/>
<text text-anchor="middle" x="644.6" y="-86.3" font-family="Times,serif" font-size="14.00">tzdata</text>
</g>
<!-- glibc&#45;&gt;tzdata -->
<g id="edge8" class="edge">
<title>glibc&#45;&gt;tzdata</title>
<path fill="none" stroke="#8b4513" d="M644.6,-143.7C644.6,-135.98 644.6,-126.71 644.6,-118.11"/>
<polygon fill="#8b4513" stroke="#8b4513" points="648.1,-118.1 644.6,-108.1 641.1,-118.1 648.1,-118.1"/>
</g>
<!-- filesystem -->
<g id="node10" class="node">
<title>filesystem</title>
<ellipse fill="green" stroke="green" cx="741.6" cy="-90" rx="46.59" ry="18"/>
<text text-anchor="middle" x="741.6" y="-86.3" font-family="Times,serif" font-size="14.00">filesystem</text>
</g>
<!-- glibc&#45;&gt;filesystem -->
<g id="edge9" class="edge">
<title>glibc&#45;&gt;filesystem</title>
<path fill="none" stroke="#8b4513" d="M662.84,-147.83C676.64,-137.88 695.88,-123.99 711.89,-112.44"/>
<polygon fill="#8b4513" stroke="#8b4513" points="714.33,-114.99 720.39,-106.3 710.24,-109.31 714.33,-114.99"/>
</g>
<!-- linux&#45;api&#45;headers -->
<g id="node8" class="node">
<title>linux&#45;api&#45;headers</title>
<ellipse fill="green" stroke="green" cx="496.6" cy="-18" rx="71.49" ry="18"/>
<text text-anchor="middle" x="496.6" y="-14.3" font-family="Times,serif" font-size="14.00">linux&#45;api&#45;headers</text>
</g>
<!-- linux&#45;api&#45;headers&gt;=4.10&#45;&gt;linux&#45;api&#45;headers -->
<g id="edge7" class="edge">
<title>linux&#45;api&#45;headers&gt;=4.10&#45;&gt;linux&#45;api&#45;headers</title>
<path fill="none" stroke="grey" d="M496.6,-71.7C496.6,-60.85 496.6,-46.92 496.6,-36.1"/>
</g>
<!-- iana&#45;etc -->
<g id="node11" class="node">
<title>iana&#45;etc</title>
<ellipse fill="green" stroke="green" cx="741.6" cy="-18" rx="38.19" ry="18"/>
<text text-anchor="middle" x="741.6" y="-14.3" font-family="Times,serif" font-size="14.00">iana&#45;etc</text>
</g>
<!-- filesystem&#45;&gt;iana&#45;etc -->
<g id="edge10" class="edge">
<title>filesystem&#45;&gt;iana&#45;etc</title>
<path fill="none" stroke="#8b4513" d="M741.6,-71.7C741.6,-63.98 741.6,-54.71 741.6,-46.11"/>
<polygon fill="#8b4513" stroke="#8b4513" points="745.1,-46.1 741.6,-36.1 738.1,-46.1 745.1,-46.1"/>
</g>
<!-- libtasn1&#45;&gt;glibc -->
<g id="edge12" class="edge">
<title>libtasn1&#45;&gt;glibc</title>
<path fill="none" stroke="#8b4513" d="M964.01,-935.97C961.68,-909.33 957.6,-856.19 957.6,-811 957.6,-811 957.6,-811 957.6,-305 957.6,-260.87 948.64,-242.81 913.6,-216 877.96,-188.74 748.95,-172.89 683.4,-166.42"/>
<polygon fill="#8b4513" stroke="#8b4513" points="683.36,-162.9 673.07,-165.43 682.69,-169.87 683.36,-162.9"/>
</g>
<!-- readline&#45;&gt;glibc -->
<g id="edge14" class="edge">
<title>readline&#45;&gt;glibc</title>
<path fill="none" stroke="#8b4513" d="M318.56,-510.97C339.24,-502.68 365.34,-488.85 380.6,-468 404.48,-435.36 399.6,-419.45 399.6,-379 399.6,-379 399.6,-379 399.6,-305 399.6,-210.54 537.6,-177.88 606.46,-167.47"/>
<polygon fill="#8b4513" stroke="#8b4513" points="607.09,-170.91 616.49,-166.03 606.1,-163.98 607.09,-170.91"/>
</g>
<!-- ncurses -->
<g id="node14" class="node">
<title>ncurses</title>
<ellipse fill="green" stroke="green" cx="287.6" cy="-378" rx="37.09" ry="18"/>
<text text-anchor="middle" x="287.6" y="-374.3" font-family="Times,serif" font-size="14.00">ncurses</text>
</g>
<!-- readline&#45;&gt;ncurses -->
<g id="edge15" class="edge">
<title>readline&#45;&gt;ncurses</title>
<path fill="none" stroke="#8b4513" d="M255.21,-511.9C233.88,-504.04 207.57,-490.33 194.6,-468 186.56,-454.17 186.56,-445.83 194.6,-432 205.91,-412.53 227.35,-399.62 246.79,-391.42"/>
<polygon fill="#8b4513" stroke="#8b4513" points="248.09,-394.67 256.12,-387.76 245.54,-388.15 248.09,-394.67"/>
</g>
<!-- libncursesw.so=6&#45;64 -->
<g id="node15" class="node">
<title>libncursesw.so=6&#45;64</title>
<ellipse fill="green" stroke="green" cx="287.6" cy="-450" rx="83.69" ry="18"/>
<text text-anchor="middle" x="287.6" y="-446.3" font-family="Times,serif" font-size="14.00">libncursesw.so=6&#45;64</text>
</g>
<!-- readline&#45;&gt;libncursesw.so=6&#45;64 -->
<g id="edge18" class="edge">
<title>readline&#45;&gt;libncursesw.so=6&#45;64</title>
<path fill="none" stroke="#8b4513" d="M287.6,-503.7C287.6,-495.98 287.6,-486.71 287.6,-478.11"/>
<polygon fill="#8b4513" stroke="#8b4513" points="291.1,-478.1 287.6,-468.1 284.1,-478.1 291.1,-478.1"/>
</g>
<!-- ncurses&#45;&gt;gcc&#45;libs -->
<g id="edge17" class="edge">
<title>ncurses&#45;&gt;gcc&#45;libs</title>
<path fill="none" stroke="#8b4513" d="M256.65,-367.7C215.25,-355.27 141.72,-333.17 95.7,-319.35"/>
<polygon fill="#8b4513" stroke="#8b4513" points="96.62,-315.97 86.04,-316.45 94.61,-322.68 96.62,-315.97"/>
</g>
<!-- ncurses&#45;&gt;glibc -->
<g id="edge16" class="edge">
<title>ncurses&#45;&gt;glibc</title>
<path fill="none" stroke="#8b4513" d="M292.83,-359.93C304.01,-326.53 333.54,-252.61 385.6,-216 420.8,-191.24 543.45,-174.31 606.51,-167.03"/>
<polygon fill="#8b4513" stroke="#8b4513" points="606.92,-170.51 616.46,-165.9 606.13,-163.55 606.92,-170.51"/>
</g>
<!-- libncursesw.so=6&#45;64&#45;&gt;ncurses -->
<g id="edge19" class="edge">
<title>libncursesw.so=6&#45;64&#45;&gt;ncurses</title>
<path fill="none" stroke="grey" d="M287.6,-431.7C287.6,-420.85 287.6,-406.92 287.6,-396.1"/>
</g>
<!-- zlib&#45;&gt;glibc -->
<g id="edge21" class="edge">
<title>zlib&#45;&gt;glibc</title>
<path fill="none" stroke="#8b4513" d="M1020.83,-720C1016.75,-693.42 1009.6,-640.33 1009.6,-595 1009.6,-595 1009.6,-595 1009.6,-305 1009.6,-261.99 1005.47,-242.51 971.6,-216 927.31,-181.35 759.87,-168.71 683.27,-164.67"/>
<polygon fill="#8b4513" stroke="#8b4513" points="683.25,-161.17 673.09,-164.16 682.9,-168.16 683.25,-161.17"/>
</g>
<!-- gmp -->
<g id="node18" class="node">
<title>gmp</title>
<ellipse fill="green" stroke="green" cx="206.6" cy="-954" rx="27" ry="18"/>
<text text-anchor="middle" x="206.6" y="-950.3" font-family="Times,serif" font-size="14.00">gmp</text>
</g>
<!-- nettle&#45;&gt;gmp -->
<g id="edge23" class="edge">
<title>nettle&#45;&gt;gmp</title>
<path fill="none" stroke="#8b4513" d="M380.42,-1154.63C368.96,-1144.24 353.42,-1129.67 340.6,-1116 296.74,-1069.26 249.76,-1010.56 224.74,-978.53"/>
<polygon fill="#8b4513" stroke="#8b4513" points="227.48,-976.35 218.58,-970.61 221.95,-980.65 227.48,-976.35"/>
</g>
<!-- gmp&#45;&gt;gcc&#45;libs -->
<g id="edge24" class="edge">
<title>gmp&#45;&gt;gcc&#45;libs</title>
<path fill="none" stroke="#8b4513" d="M188.51,-940.6C147.62,-910.94 51.6,-831.44 51.6,-739 51.6,-739 51.6,-739 51.6,-449 51.6,-408.99 52.8,-362.65 53.68,-334.08"/>
<polygon fill="#8b4513" stroke="#8b4513" points="57.18,-334.15 54,-324.05 50.19,-333.93 57.18,-334.15"/>
</g>
<!-- sh -->
<g id="node19" class="node">
<title>sh</title>
<ellipse fill="green" stroke="green" cx="344.6" cy="-738" rx="27" ry="18"/>
<text text-anchor="middle" x="344.6" y="-734.3" font-family="Times,serif" font-size="14.00">sh</text>
</g>
<!-- gmp&#45;&gt;sh -->
<g id="edge25" class="edge">
<title>gmp&#45;&gt;sh</title>
<path fill="none" stroke="#8b4513" d="M205.15,-936C204.42,-916.52 206.18,-884.64 222.6,-864 247.88,-832.21 277.89,-856.74 306.6,-828 323.6,-810.97 333.47,-785.13 338.87,-765.67"/>
<polygon fill="#8b4513" stroke="#8b4513" points="342.29,-766.44 341.36,-755.89 335.5,-764.72 342.29,-766.44"/>
</g>
<!-- bash -->
<g id="node20" class="node">
<title>bash</title>
<ellipse fill="green" stroke="green" cx="344.6" cy="-666" rx="27" ry="18"/>
<text text-anchor="middle" x="344.6" y="-662.3" font-family="Times,serif" font-size="14.00">bash</text>
</g>
<!-- sh&#45;&gt;bash -->
<g id="edge26" class="edge">
<title>sh&#45;&gt;bash</title>
<path fill="none" stroke="grey" d="M324.35,-726.06C315.38,-712.99 315.35,-691.23 324.24,-678.09"/>
</g>
<!-- sh&#45;&gt;bash -->
<g id="edge54" class="edge">
<title>sh&#45;&gt;bash</title>
<path fill="none" stroke="grey" d="M333.16,-721.46C330.41,-709.86 330.41,-694.08 333.17,-682.49"/>
</g>
<!-- sh&#45;&gt;bash -->
<g id="edge58" class="edge">
<title>sh&#45;&gt;bash</title>
<path fill="none" stroke="grey" d="M344.6,-719.7C344.6,-708.85 344.6,-694.92 344.6,-684.1"/>
</g>
<!-- sh&#45;&gt;bash -->
<g id="edge70" class="edge">
<title>sh&#45;&gt;bash</title>
<path fill="none" stroke="grey" d="M356.04,-721.46C358.79,-709.86 358.78,-694.08 356.02,-682.49"/>
</g>
<!-- sh&#45;&gt;bash -->
<g id="edge75" class="edge">
<title>sh&#45;&gt;bash</title>
<path fill="none" stroke="grey" d="M364.85,-726.06C373.81,-712.99 373.85,-691.23 364.95,-678.09"/>
</g>
<!-- bash&#45;&gt;glibc -->
<g id="edge29" class="edge">
<title>bash&#45;&gt;glibc</title>
<path fill="none" stroke="#8b4513" d="M365.64,-654.58C402.67,-634.58 475.6,-587.06 475.6,-523 475.6,-523 475.6,-523 475.6,-305 475.6,-264.03 471.91,-246.2 499.6,-216 527.21,-185.87 573.38,-172.83 606.2,-167.21"/>
<polygon fill="#8b4513" stroke="#8b4513" points="607,-170.63 616.34,-165.63 605.92,-163.71 607,-170.63"/>
</g>
<!-- bash&#45;&gt;ncurses -->
<g id="edge30" class="edge">
<title>bash&#45;&gt;ncurses</title>
<path fill="none" stroke="#8b4513" d="M356.71,-649.78C363.96,-639.69 372.54,-625.82 376.6,-612 399.13,-535.22 420.8,-501.19 380.6,-432 369.28,-412.53 347.84,-399.62 328.4,-391.42"/>
<polygon fill="#8b4513" stroke="#8b4513" points="329.65,-388.15 319.07,-387.76 327.1,-394.67 329.65,-388.15"/>
</g>
<!-- readline&gt;=7.0 -->
<g id="node21" class="node">
<title>readline&gt;=7.0</title>
<ellipse fill="green" stroke="green" cx="306.6" cy="-594" rx="61.19" ry="18"/>
<text text-anchor="middle" x="306.6" y="-590.3" font-family="Times,serif" font-size="14.00">readline&gt;=7.0</text>
</g>
<!-- bash&#45;&gt;readline&gt;=7.0 -->
<g id="edge27" class="edge">
<title>bash&#45;&gt;readline&gt;=7.0</title>
<path fill="none" stroke="#8b4513" d="M335.78,-648.76C331.31,-640.53 325.77,-630.32 320.72,-621.02"/>
<polygon fill="#8b4513" stroke="#8b4513" points="323.74,-619.24 315.89,-612.12 317.59,-622.58 323.74,-619.24"/>
</g>
<!-- readline&gt;=7.0&#45;&gt;readline -->
<g id="edge28" class="edge">
<title>readline&gt;=7.0&#45;&gt;readline</title>
<path fill="none" stroke="grey" d="M301.9,-575.7C298.95,-564.85 295.17,-550.92 292.24,-540.1"/>
</g>
<!-- libp11&#45;kit=0.23.20&#45;5 -->
<g id="node23" class="node">
<title>libp11&#45;kit=0.23.20&#45;5</title>
<ellipse fill="green" stroke="green" cx="886.6" cy="-1098" rx="85.29" ry="18"/>
<text text-anchor="middle" x="886.6" y="-1094.3" font-family="Times,serif" font-size="14.00">libp11&#45;kit=0.23.20&#45;5</text>
</g>
<!-- p11&#45;kit&#45;&gt;libp11&#45;kit=0.23.20&#45;5 -->
<g id="edge32" class="edge">
<title>p11&#45;kit&#45;&gt;libp11&#45;kit=0.23.20&#45;5</title>
<path fill="none" stroke="#8b4513" d="M734.33,-1158.22C761.97,-1147.47 804.99,-1130.74 838.26,-1117.8"/>
<polygon fill="#8b4513" stroke="#8b4513" points="839.75,-1120.97 847.8,-1114.09 837.22,-1114.45 839.75,-1120.97"/>
</g>
<!-- coreutils -->
<g id="node26" class="node">
<title>coreutils</title>
<ellipse fill="green" stroke="green" cx="570.6" cy="-1098" rx="40.89" ry="18"/>
<text text-anchor="middle" x="570.6" y="-1094.3" font-family="Times,serif" font-size="14.00">coreutils</text>
</g>
<!-- p11&#45;kit&#45;&gt;coreutils -->
<g id="edge38" class="edge">
<title>p11&#45;kit&#45;&gt;coreutils</title>
<path fill="none" stroke="#8b4513" d="M682.28,-1156.49C660.83,-1145.45 629.33,-1129.23 605.24,-1116.83"/>
<polygon fill="#8b4513" stroke="#8b4513" points="606.58,-1113.58 596.08,-1112.12 603.37,-1119.81 606.58,-1113.58"/>
</g>
<!-- libp11&#45;kit.so=0&#45;64 -->
<g id="node35" class="node">
<title>libp11&#45;kit.so=0&#45;64</title>
<ellipse fill="green" stroke="green" cx="706.6" cy="-1098" rx="77.19" ry="18"/>
<text text-anchor="middle" x="706.6" y="-1094.3" font-family="Times,serif" font-size="14.00">libp11&#45;kit.so=0&#45;64</text>
</g>
<!-- p11&#45;kit&#45;&gt;libp11&#45;kit.so=0&#45;64 -->
<g id="edge60" class="edge">
<title>p11&#45;kit&#45;&gt;libp11&#45;kit.so=0&#45;64</title>
<path fill="none" stroke="#8b4513" d="M706.6,-1151.7C706.6,-1143.98 706.6,-1134.71 706.6,-1126.11"/>
<polygon fill="#8b4513" stroke="#8b4513" points="710.1,-1126.1 706.6,-1116.1 703.1,-1126.1 710.1,-1126.1"/>
</g>
<!-- libsystemd.so=0&#45;64 -->
<g id="node36" class="node">
<title>libsystemd.so=0&#45;64</title>
<ellipse fill="green" stroke="green" cx="430.6" cy="-1098" rx="81.49" ry="18"/>
<text text-anchor="middle" x="430.6" y="-1094.3" font-family="Times,serif" font-size="14.00">libsystemd.so=0&#45;64</text>
</g>
<!-- p11&#45;kit&#45;&gt;libsystemd.so=0&#45;64 -->
<g id="edge62" class="edge">
<title>p11&#45;kit&#45;&gt;libsystemd.so=0&#45;64</title>
<path fill="none" stroke="#8b4513" d="M674.93,-1160.97C630.45,-1149.69 548.58,-1128.92 491.93,-1114.56"/>
<polygon fill="#8b4513" stroke="#8b4513" points="492.57,-1111.11 482.02,-1112.04 490.85,-1117.89 492.57,-1111.11"/>
</g>
<!-- libp11&#45;kit -->
<g id="node24" class="node">
<title>libp11&#45;kit</title>
<ellipse fill="green" stroke="green" cx="925.6" cy="-1026" rx="46.29" ry="18"/>
<text text-anchor="middle" x="925.6" y="-1022.3" font-family="Times,serif" font-size="14.00">libp11&#45;kit</text>
</g>
<!-- libp11&#45;kit=0.23.20&#45;5&#45;&gt;libp11&#45;kit -->
<g id="edge33" class="edge">
<title>libp11&#45;kit=0.23.20&#45;5&#45;&gt;libp11&#45;kit</title>
<path fill="none" stroke="grey" d="M896.04,-1080.05C902.17,-1069.05 910.13,-1054.76 916.24,-1043.79"/>
</g>
<!-- libp11&#45;kit&#45;&gt;glibc -->
<g id="edge34" class="edge">
<title>libp11&#45;kit&#45;&gt;glibc</title>
<path fill="none" stroke="#8b4513" d="M920.33,-1007.7C912.74,-981.14 899.6,-928.61 899.6,-883 899.6,-883 899.6,-883 899.6,-305 899.6,-206.96 753.93,-176 682.79,-166.73"/>
<polygon fill="#8b4513" stroke="#8b4513" points="683.21,-163.25 672.86,-165.51 682.36,-170.2 683.21,-163.25"/>
</g>
<!-- libp11&#45;kit&#45;&gt;libtasn1 -->
<g id="edge35" class="edge">
<title>libp11&#45;kit&#45;&gt;libtasn1</title>
<path fill="none" stroke="#8b4513" d="M935.28,-1008.05C939.99,-999.8 945.77,-989.7 951,-980.54"/>
<polygon fill="#8b4513" stroke="#8b4513" points="954.08,-982.21 956,-971.79 948,-978.73 954.08,-982.21"/>
</g>
<!-- libffi -->
<g id="node25" class="node">
<title>libffi</title>
<ellipse fill="green" stroke="green" cx="843.6" cy="-666" rx="27.9" ry="18"/>
<text text-anchor="middle" x="843.6" y="-662.3" font-family="Times,serif" font-size="14.00">libffi</text>
</g>
<!-- libp11&#45;kit&#45;&gt;libffi -->
<g id="edge36" class="edge">
<title>libp11&#45;kit&#45;&gt;libffi</title>
<path fill="none" stroke="#8b4513" d="M910.85,-1008.9C902.39,-998.92 892.18,-985.46 885.6,-972 867.59,-935.2 861.6,-923.97 861.6,-883 861.6,-883 861.6,-883 861.6,-809 861.6,-768.68 854.36,-722.42 849.07,-693.95"/>
<polygon fill="#8b4513" stroke="#8b4513" points="852.47,-693.12 847.15,-683.96 845.6,-694.44 852.47,-693.12"/>
</g>
<!-- libffi&#45;&gt;glibc -->
<g id="edge37" class="edge">
<title>libffi&#45;&gt;glibc</title>
<path fill="none" stroke="#8b4513" d="M841.82,-647.97C839.19,-621.34 834.6,-568.21 834.6,-523 834.6,-523 834.6,-523 834.6,-305 834.6,-262.66 831.09,-245.38 800.6,-216 768.58,-185.16 717.94,-172.23 683.09,-166.83"/>
<polygon fill="#8b4513" stroke="#8b4513" points="683.21,-163.31 672.82,-165.39 682.23,-170.25 683.21,-163.31"/>
</g>
<!-- coreutils&#45;&gt;glibc -->
<g id="edge39" class="edge">
<title>coreutils&#45;&gt;glibc</title>
<path fill="none" stroke="#8b4513" d="M587.88,-1081.46C598.86,-1071.24 613.12,-1057.35 624.6,-1044 700.93,-955.21 747.6,-928.1 747.6,-811 747.6,-811 747.6,-811 747.6,-305 747.6,-252.94 701.68,-207.1 671.16,-182.37"/>
<polygon fill="#8b4513" stroke="#8b4513" points="673.04,-179.4 663.01,-175.97 668.71,-184.9 673.04,-179.4"/>
</g>
<!-- coreutils&#45;&gt;gmp -->
<g id="edge44" class="edge">
<title>coreutils&#45;&gt;gmp</title>
<path fill="none" stroke="#8b4513" d="M541.12,-1085.5C473.85,-1059.26 309.43,-995.12 239.23,-967.73"/>
<polygon fill="#8b4513" stroke="#8b4513" points="240.17,-964.34 229.58,-963.97 237.63,-970.86 240.17,-964.34"/>
</g>
<!-- acl -->
<g id="node27" class="node">
<title>acl</title>
<ellipse fill="green" stroke="green" cx="834.6" cy="-1026" rx="27" ry="18"/>
<text text-anchor="middle" x="834.6" y="-1022.3" font-family="Times,serif" font-size="14.00">acl</text>
</g>
<!-- coreutils&#45;&gt;acl -->
<g id="edge40" class="edge">
<title>coreutils&#45;&gt;acl</title>
<path fill="none" stroke="#8b4513" d="M601.08,-1085.97C607.49,-1083.84 614.23,-1081.74 620.6,-1080 696.36,-1059.32 718.55,-1067.14 793.6,-1044 796.76,-1043.02 800.02,-1041.9 803.25,-1040.69"/>
<polygon fill="#8b4513" stroke="#8b4513" points="804.73,-1043.88 812.75,-1036.95 802.16,-1037.36 804.73,-1043.88"/>
</g>
<!-- attr -->
<g id="node28" class="node">
<title>attr</title>
<ellipse fill="green" stroke="green" cx="802.6" cy="-810" rx="27" ry="18"/>
<text text-anchor="middle" x="802.6" y="-806.3" font-family="Times,serif" font-size="14.00">attr</text>
</g>
<!-- coreutils&#45;&gt;attr -->
<g id="edge43" class="edge">
<title>coreutils&#45;&gt;attr</title>
<path fill="none" stroke="#8b4513" d="M601.43,-1086.15C607.74,-1084.04 614.37,-1081.89 620.6,-1080 680.02,-1062 713.06,-1089.24 755.6,-1044 809.34,-986.84 809.18,-886.07 805.54,-837.99"/>
<polygon fill="#8b4513" stroke="#8b4513" points="809.02,-837.69 804.67,-828.03 802.05,-838.3 809.02,-837.69"/>
</g>
<!-- libcap -->
<g id="node29" class="node">
<title>libcap</title>
<ellipse fill="green" stroke="green" cx="687.6" cy="-882" rx="32.49" ry="18"/>
<text text-anchor="middle" x="687.6" y="-878.3" font-family="Times,serif" font-size="14.00">libcap</text>
</g>
<!-- coreutils&#45;&gt;libcap -->
<g id="edge45" class="edge">
<title>coreutils&#45;&gt;libcap</title>
<path fill="none" stroke="#8b4513" d="M579.78,-1080.21C600.2,-1042.85 649.51,-952.66 673.72,-908.39"/>
<polygon fill="#8b4513" stroke="#8b4513" points="676.89,-909.87 678.62,-899.42 670.75,-906.52 676.89,-909.87"/>
</g>
<!-- openssl -->
<g id="node30" class="node">
<title>openssl</title>
<ellipse fill="green" stroke="green" cx="551.6" cy="-1026" rx="37.09" ry="18"/>
<text text-anchor="middle" x="551.6" y="-1022.3" font-family="Times,serif" font-size="14.00">openssl</text>
</g>
<!-- coreutils&#45;&gt;openssl -->
<g id="edge48" class="edge">
<title>coreutils&#45;&gt;openssl</title>
<path fill="none" stroke="#8b4513" d="M566,-1080.05C563.88,-1072.26 561.32,-1062.82 558.95,-1054.08"/>
<polygon fill="#8b4513" stroke="#8b4513" points="562.28,-1053.01 556.28,-1044.28 555.53,-1054.84 562.28,-1053.01"/>
</g>
<!-- acl&#45;&gt;attr -->
<g id="edge41" class="edge">
<title>acl&#45;&gt;attr</title>
<path fill="none" stroke="#8b4513" d="M832.03,-1007.85C826.48,-970.74 813.32,-882.75 806.64,-838.05"/>
<polygon fill="#8b4513" stroke="#8b4513" points="810.07,-837.31 805.13,-827.94 803.15,-838.34 810.07,-837.31"/>
</g>
<!-- attr&#45;&gt;glibc -->
<g id="edge42" class="edge">
<title>attr&#45;&gt;glibc</title>
<path fill="none" stroke="#8b4513" d="M799.43,-792.02C794.77,-765.45 786.6,-712.4 786.6,-667 786.6,-667 786.6,-667 786.6,-305 786.6,-263.91 788.37,-247.17 761.6,-216 741.07,-192.11 707.58,-178.44 681.67,-171"/>
<polygon fill="#8b4513" stroke="#8b4513" points="682.37,-167.56 671.81,-168.35 680.56,-174.32 682.37,-167.56"/>
</g>
<!-- libcap&#45;&gt;glibc -->
<g id="edge46" class="edge">
<title>libcap&#45;&gt;glibc</title>
<path fill="none" stroke="#8b4513" d="M689.97,-863.99C693.46,-837.38 699.6,-784.28 699.6,-739 699.6,-739 699.6,-739 699.6,-305 699.6,-261.3 676.66,-214.82 660.41,-187.38"/>
<polygon fill="#8b4513" stroke="#8b4513" points="663.39,-185.55 655.2,-178.84 657.42,-189.2 663.39,-185.55"/>
</g>
<!-- libcap&#45;&gt;attr -->
<g id="edge47" class="edge">
<title>libcap&#45;&gt;attr</title>
<path fill="none" stroke="#8b4513" d="M708.69,-868.16C727.13,-856.93 754.07,-840.54 774.36,-828.18"/>
<polygon fill="#8b4513" stroke="#8b4513" points="776.45,-831.01 783.17,-822.83 772.81,-825.03 776.45,-831.01"/>
</g>
<!-- perl -->
<g id="node31" class="node">
<title>perl</title>
<ellipse fill="green" stroke="green" cx="454.6" cy="-954" rx="27" ry="18"/>
<text text-anchor="middle" x="454.6" y="-950.3" font-family="Times,serif" font-size="14.00">perl</text>
</g>
<!-- openssl&#45;&gt;perl -->
<g id="edge49" class="edge">
<title>openssl&#45;&gt;perl</title>
<path fill="none" stroke="#8b4513" d="M531.5,-1010.5C516.79,-999.89 496.72,-985.4 480.76,-973.88"/>
<polygon fill="#8b4513" stroke="#8b4513" points="482.54,-970.85 472.38,-967.84 478.45,-976.53 482.54,-970.85"/>
</g>
<!-- perl&#45;&gt;glibc -->
<g id="edge59" class="edge">
<title>perl&#45;&gt;glibc</title>
<path fill="none" stroke="#8b4513" d="M461.73,-936.6C484.13,-884.51 551.6,-722.97 551.6,-667 551.6,-667 551.6,-667 551.6,-305 551.6,-255.11 592.26,-209.11 619.81,-183.67"/>
<polygon fill="#8b4513" stroke="#8b4513" points="622.42,-186.03 627.54,-176.75 617.75,-180.81 622.42,-186.03"/>
</g>
<!-- gdbm&gt;=1.17 -->
<g id="node32" class="node">
<title>gdbm&gt;=1.17</title>
<ellipse fill="green" stroke="green" cx="289.6" cy="-882" rx="57.69" ry="18"/>
<text text-anchor="middle" x="289.6" y="-878.3" font-family="Times,serif" font-size="14.00">gdbm&gt;=1.17</text>
</g>
<!-- perl&#45;&gt;gdbm&gt;=1.17 -->
<g id="edge50" class="edge">
<title>perl&#45;&gt;gdbm&gt;=1.17</title>
<path fill="none" stroke="#8b4513" d="M432.34,-943.56C406.67,-932.67 363.89,-914.52 331.85,-900.93"/>
<polygon fill="#8b4513" stroke="#8b4513" points="332.85,-897.55 322.28,-896.87 330.12,-903.99 332.85,-897.55"/>
</g>
<!-- db -->
<g id="node34" class="node">
<title>db</title>
<ellipse fill="green" stroke="green" cx="144.6" cy="-810" rx="27" ry="18"/>
<text text-anchor="middle" x="144.6" y="-806.3" font-family="Times,serif" font-size="14.00">db</text>
</g>
<!-- perl&#45;&gt;db -->
<g id="edge55" class="edge">
<title>perl&#45;&gt;db</title>
<path fill="none" stroke="#8b4513" d="M427.58,-952.15C382.15,-949.62 288.95,-939.58 222.6,-900 195.85,-884.05 173.43,-855.78 159.59,-835.38"/>
<polygon fill="#8b4513" stroke="#8b4513" points="162.44,-833.34 154.03,-826.91 156.59,-837.19 162.44,-833.34"/>
</g>
<!-- gdbm -->
<g id="node33" class="node">
<title>gdbm</title>
<ellipse fill="green" stroke="green" cx="422.6" cy="-810" rx="31.4" ry="18"/>
<text text-anchor="middle" x="422.6" y="-806.3" font-family="Times,serif" font-size="14.00">gdbm</text>
</g>
<!-- gdbm&gt;=1.17&#45;&gt;gdbm -->
<g id="edge51" class="edge">
<title>gdbm&gt;=1.17&#45;&gt;gdbm</title>
<path fill="none" stroke="grey" d="M317.8,-866.15C342.35,-853.23 377.47,-834.75 400.16,-822.81"/>
</g>
<!-- gdbm&#45;&gt;glibc -->
<g id="edge52" class="edge">
<title>gdbm&#45;&gt;glibc</title>
<path fill="none" stroke="#8b4513" d="M439.71,-794.79C466.07,-771.2 513.6,-721.17 513.6,-667 513.6,-667 513.6,-667 513.6,-305 513.6,-264.03 511.61,-247.67 537.6,-216 555.66,-193.98 585.15,-180.34 608.6,-172.41"/>
<polygon fill="#8b4513" stroke="#8b4513" points="609.75,-175.72 618.23,-169.36 607.64,-169.05 609.75,-175.72"/>
</g>
<!-- gdbm&#45;&gt;sh -->
<g id="edge53" class="edge">
<title>gdbm&#45;&gt;sh</title>
<path fill="none" stroke="#8b4513" d="M406.43,-794.5C395.31,-784.51 380.35,-771.09 367.93,-759.94"/>
<polygon fill="#8b4513" stroke="#8b4513" points="369.98,-757.08 360.2,-753.01 365.31,-762.29 369.98,-757.08"/>
</g>
<!-- db&#45;&gt;gcc&#45;libs -->
<g id="edge56" class="edge">
<title>db&#45;&gt;gcc&#45;libs</title>
<path fill="none" stroke="#8b4513" d="M140.03,-792.06C128.59,-748.05 99.6,-626.29 99.6,-523 99.6,-523 99.6,-523 99.6,-449 99.6,-406.67 81.19,-360.41 67.93,-332.56"/>
<polygon fill="#8b4513" stroke="#8b4513" points="71.03,-330.94 63.49,-323.51 64.75,-334.03 71.03,-330.94"/>
</g>
<!-- db&#45;&gt;sh -->
<g id="edge57" class="edge">
<title>db&#45;&gt;sh</title>
<path fill="none" stroke="#8b4513" d="M165.72,-798.47C170.55,-796.22 175.71,-793.93 180.6,-792 224.59,-774.59 276.82,-758.46 310.31,-748.68"/>
<polygon fill="#8b4513" stroke="#8b4513" points="311.44,-752 320.07,-745.85 309.5,-745.27 311.44,-752"/>
</g>
<!-- libp11&#45;kit.so=0&#45;64&#45;&gt;libp11&#45;kit -->
<g id="edge61" class="edge">
<title>libp11&#45;kit.so=0&#45;64&#45;&gt;libp11&#45;kit</title>
<path fill="none" stroke="grey" d="M750.12,-1083.09C791.54,-1069.85 853.02,-1050.2 891.14,-1038.01"/>
</g>
<!-- systemd&#45;libs -->
<g id="node37" class="node">
<title>systemd&#45;libs</title>
<ellipse fill="green" stroke="green" cx="559.6" cy="-954" rx="55.79" ry="18"/>
<text text-anchor="middle" x="559.6" y="-950.3" font-family="Times,serif" font-size="14.00">systemd&#45;libs</text>
</g>
<!-- libsystemd.so=0&#45;64&#45;&gt;systemd&#45;libs -->
<g id="edge63" class="edge">
<title>libsystemd.so=0&#45;64&#45;&gt;systemd&#45;libs</title>
<path fill="none" stroke="grey" d="M443.96,-1080.19C458.62,-1061.99 483.07,-1032.3 505.6,-1008 517.38,-995.28 531.37,-981.59 542.16,-971.31"/>
</g>
<!-- systemd&#45;libs&#45;&gt;glibc -->
<g id="edge64" class="edge">
<title>systemd&#45;libs&#45;&gt;glibc</title>
<path fill="none" stroke="#8b4513" d="M565.67,-935.76C574.43,-909.28 589.6,-856.86 589.6,-811 589.6,-811 589.6,-811 589.6,-305 589.6,-261.3 612.53,-214.82 628.78,-187.38"/>
<polygon fill="#8b4513" stroke="#8b4513" points="631.77,-189.2 633.99,-178.84 625.8,-185.55 631.77,-189.2"/>
</g>
<!-- systemd&#45;libs&#45;&gt;libcap -->
<g id="edge65" class="edge">
<title>systemd&#45;libs&#45;&gt;libcap</title>
<path fill="none" stroke="#8b4513" d="M586.74,-938.15C607.07,-927.04 634.92,-911.81 656.21,-900.16"/>
<polygon fill="#8b4513" stroke="#8b4513" points="658.09,-903.13 665.18,-895.26 654.73,-896.99 658.09,-903.13"/>
</g>
<!-- libgcrypt -->
<g id="node38" class="node">
<title>libgcrypt</title>
<ellipse fill="green" stroke="green" cx="408.6" cy="-882" rx="42.79" ry="18"/>
<text text-anchor="middle" x="408.6" y="-878.3" font-family="Times,serif" font-size="14.00">libgcrypt</text>
</g>
<!-- systemd&#45;libs&#45;&gt;libgcrypt -->
<g id="edge66" class="edge">
<title>systemd&#45;libs&#45;&gt;libgcrypt</title>
<path fill="none" stroke="#8b4513" d="M529.04,-938.83C505.04,-927.71 471.53,-912.17 445.94,-900.31"/>
<polygon fill="#8b4513" stroke="#8b4513" points="447.11,-896.99 436.56,-895.96 444.16,-903.35 447.11,-896.99"/>
</g>
<!-- lz4 -->
<g id="node40" class="node">
<title>lz4</title>
<ellipse fill="green" stroke="green" cx="644.6" cy="-594" rx="27" ry="18"/>
<text text-anchor="middle" x="644.6" y="-590.3" font-family="Times,serif" font-size="14.00">lz4</text>
</g>
<!-- systemd&#45;libs&#45;&gt;lz4 -->
<g id="edge71" class="edge">
<title>systemd&#45;libs&#45;&gt;lz4</title>
<path fill="none" stroke="#8b4513" d="M576.31,-936.69C585.55,-926.84 596.55,-913.59 603.6,-900 622.45,-863.63 627.6,-851.97 627.6,-811 627.6,-811 627.6,-811 627.6,-737 627.6,-696.71 634.43,-650.44 639.43,-621.96"/>
<polygon fill="#8b4513" stroke="#8b4513" points="642.9,-622.43 641.24,-611.97 636.01,-621.19 642.9,-622.43"/>
</g>
<!-- xz -->
<g id="node41" class="node">
<title>xz</title>
<ellipse fill="green" stroke="green" cx="534.6" cy="-882" rx="27" ry="18"/>
<text text-anchor="middle" x="534.6" y="-878.3" font-family="Times,serif" font-size="14.00">xz</text>
</g>
<!-- systemd&#45;libs&#45;&gt;xz -->
<g id="edge73" class="edge">
<title>systemd&#45;libs&#45;&gt;xz</title>
<path fill="none" stroke="#8b4513" d="M553.54,-936.05C550.69,-928.06 547.21,-918.33 544.02,-909.4"/>
<polygon fill="#8b4513" stroke="#8b4513" points="547.25,-908.03 540.59,-899.79 540.66,-910.38 547.25,-908.03"/>
</g>
<!-- libgpg&#45;error -->
<g id="node39" class="node">
<title>libgpg&#45;error</title>
<ellipse fill="green" stroke="green" cx="243.6" cy="-810" rx="53.89" ry="18"/>
<text text-anchor="middle" x="243.6" y="-806.3" font-family="Times,serif" font-size="14.00">libgpg&#45;error</text>
</g>
<!-- libgcrypt&#45;&gt;libgpg&#45;error -->
<g id="edge67" class="edge">
<title>libgcrypt&#45;&gt;libgpg&#45;error</title>
<path fill="none" stroke="#8b4513" d="M379.48,-868.65C353.18,-857.49 314.2,-840.95 284.73,-828.45"/>
<polygon fill="#8b4513" stroke="#8b4513" points="286.09,-825.23 275.52,-824.54 283.36,-831.67 286.09,-825.23"/>
</g>
<!-- libgpg&#45;error&#45;&gt;glibc -->
<g id="edge68" class="edge">
<title>libgpg&#45;error&#45;&gt;glibc</title>
<path fill="none" stroke="#8b4513" d="M232.45,-792.08C205.24,-749.07 137.6,-631.29 137.6,-523 137.6,-523 137.6,-523 137.6,-305 137.6,-207.73 488.01,-174.05 606.2,-165.45"/>
<polygon fill="#8b4513" stroke="#8b4513" points="606.52,-168.94 616.25,-164.74 606.03,-161.96 606.52,-168.94"/>
</g>
<!-- libgpg&#45;error&#45;&gt;sh -->
<g id="edge69" class="edge">
<title>libgpg&#45;error&#45;&gt;sh</title>
<path fill="none" stroke="#8b4513" d="M266.01,-793.46C281.41,-782.79 301.91,-768.58 318.12,-757.35"/>
<polygon fill="#8b4513" stroke="#8b4513" points="320.39,-760.03 326.61,-751.46 316.4,-754.28 320.39,-760.03"/>
</g>
<!-- lz4&#45;&gt;glibc -->
<g id="edge72" class="edge">
<title>lz4&#45;&gt;glibc</title>
<path fill="none" stroke="#8b4513" d="M644.6,-575.95C644.6,-549.29 644.6,-496.11 644.6,-451 644.6,-451 644.6,-451 644.6,-305 644.6,-265 644.6,-218.65 644.6,-190.08"/>
<polygon fill="#8b4513" stroke="#8b4513" points="648.1,-190.05 644.6,-180.05 641.1,-190.05 648.1,-190.05"/>
</g>
<!-- xz&#45;&gt;sh -->
<g id="edge74" class="edge">
<title>xz&#45;&gt;sh</title>
<path fill="none" stroke="#8b4513" d="M509.75,-874.95C471.69,-865.25 401.38,-845.55 382.6,-828 365.01,-811.57 355.2,-785.66 349.98,-766.02"/>
<polygon fill="#8b4513" stroke="#8b4513" points="353.34,-765.03 347.59,-756.13 346.54,-766.68 353.34,-765.03"/>
</g>
<!-- libidn2&#45;&gt;libunistring -->
<g id="edge77" class="edge">
<title>libidn2&#45;&gt;libunistring</title>
<path fill="none" stroke="#8b4513" d="M1144.6,-1079.7C1144.6,-1071.98 1144.6,-1062.71 1144.6,-1054.11"/>
<polygon fill="#8b4513" stroke="#8b4513" points="1148.1,-1054.1 1144.6,-1044.1 1141.1,-1054.1 1148.1,-1054.1"/>
</g>
<!-- libunistring&#45;&gt;glibc -->
<g id="edge78" class="edge">
<title>libunistring&#45;&gt;glibc</title>
<path fill="none" stroke="#8b4513" d="M1132.25,-1008.51C1114.43,-983 1083.6,-931.83 1083.6,-883 1083.6,-883 1083.6,-883 1083.6,-305 1083.6,-251.21 1049.13,-241.16 1001.6,-216 946.87,-187.03 763.88,-171.2 683.28,-165.49"/>
<polygon fill="#8b4513" stroke="#8b4513" points="683.28,-161.98 673.06,-164.78 682.8,-168.97 683.28,-161.98"/>
</g>
<!-- libidn2.so=0&#45;64&#45;&gt;libidn2 -->
<g id="edge80" class="edge">
<title>libidn2.so=0&#45;64&#45;&gt;libidn2</title>
<path fill="none" stroke="grey" d="M1165.06,-1152.05C1160.81,-1141.05 1155.3,-1126.76 1151.07,-1115.79"/>
</g>
</g>
</svg>
