<?xml version="1.0" encoding="UTF-8" standalone="no"?>
<!DOCTYPE svg PUBLIC "-//W3C//DTD SVG 1.1//EN"
 "http://www.w3.org/Graphics/SVG/1.1/DTD/svg11.dtd">
<!-- Generated by graphviz version 2.44.0 (0)
 -->
<!-- Title: G Pages: 1 -->
<svg width="428pt" height="1124pt"
 viewBox="0.00 0.00 427.89 1124.00" xmlns="http://www.w3.org/2000/svg" xmlns:xlink="http://www.w3.org/1999/xlink">
<g id="graph0" class="graph" transform="scale(1 1) rotate(0) translate(4 1120)">
<title>G</title>
<polygon fill="white" stroke="transparent" points="-4,4 -4,-1120 423.89,-1120 423.89,4 -4,4"/>
<!-- START -->
<g id="node1" class="node">
<title>START</title>
<ellipse fill="red" stroke="red" cx="48.1" cy="-1098" rx="38.19" ry="18"/>
<text text-anchor="middle" x="48.1" y="-1094.3" font-family="Times,serif" font-size="14.00">START</text>
</g>
<!-- libmpc -->
<g id="node2" class="node">
<title>libmpc</title>
<ellipse fill="green" stroke="green" cx="48.1" cy="-1026" rx="35.19" ry="18"/>
<text text-anchor="middle" x="48.1" y="-1022.3" font-family="Times,serif" font-size="14.00">libmpc</text>
</g>
<!-- START&#45;&gt;libmpc -->
<g id="edge1" class="edge">
<title>START&#45;&gt;libmpc</title>
<path fill="none" stroke="black" d="M48.1,-1079.7C48.1,-1071.98 48.1,-1062.71 48.1,-1054.11"/>
<polygon fill="black" stroke="black" points="51.6,-1054.1 48.1,-1044.1 44.6,-1054.1 51.6,-1054.1"/>
</g>
<!-- mpfr -->
<g id="node3" class="node">
<title>mpfr</title>
<ellipse fill="green" stroke="green" cx="48.1" cy="-954" rx="27.9" ry="18"/>
<text text-anchor="middle" x="48.1" y="-950.3" font-family="Times,serif" font-size="14.00">mpfr</text>
</g>
<!-- libmpc&#45;&gt;mpfr -->
<g id="edge2" class="edge">
<title>libmpc&#45;&gt;mpfr</title>
<path fill="none" stroke="#8b4513" d="M48.1,-1007.7C48.1,-999.98 48.1,-990.71 48.1,-982.11"/>
<polygon fill="#8b4513" stroke="#8b4513" points="51.6,-982.1 48.1,-972.1 44.6,-982.1 51.6,-982.1"/>
</g>
<!-- gmp&gt;=5.0 -->
<g id="node4" class="node">
<title>gmp&gt;=5.0</title>
<ellipse fill="green" stroke="green" cx="48.1" cy="-882" rx="48.19" ry="18"/>
<text text-anchor="middle" x="48.1" y="-878.3" font-family="Times,serif" font-size="14.00">gmp&gt;=5.0</text>
</g>
<!-- mpfr&#45;&gt;gmp&gt;=5.0 -->
<g id="edge3" class="edge">
<title>mpfr&#45;&gt;gmp&gt;=5.0</title>
<path fill="none" stroke="#8b4513" d="M48.1,-935.7C48.1,-927.98 48.1,-918.71 48.1,-910.11"/>
<polygon fill="#8b4513" stroke="#8b4513" points="51.6,-910.1 48.1,-900.1 44.6,-910.1 51.6,-910.1"/>
</g>
<!-- gmp -->
<g id="node5" class="node">
<title>gmp</title>
<ellipse fill="green" stroke="green" cx="48.1" cy="-810" rx="27" ry="18"/>
<text text-anchor="middle" x="48.1" y="-806.3" font-family="Times,serif" font-size="14.00">gmp</text>
</g>
<!-- gmp&gt;=5.0&#45;&gt;gmp -->
<g id="edge4" class="edge">
<title>gmp&gt;=5.0&#45;&gt;gmp</title>
<path fill="none" stroke="grey" d="M48.1,-863.7C48.1,-852.85 48.1,-838.92 48.1,-828.1"/>
</g>
<!-- gcc&#45;libs -->
<g id="node6" class="node">
<title>gcc&#45;libs</title>
<ellipse fill="green" stroke="green" cx="110.1" cy="-306" rx="38.19" ry="18"/>
<text text-anchor="middle" x="110.1" y="-302.3" font-family="Times,serif" font-size="14.00">gcc&#45;libs</text>
</g>
<!-- gmp&#45;&gt;gcc&#45;libs -->
<g id="edge5" class="edge">
<title>gmp&#45;&gt;gcc&#45;libs</title>
<path fill="none" stroke="#8b4513" d="M42.76,-792.15C34.89,-765.75 21.1,-712.92 21.1,-667 21.1,-667 21.1,-667 21.1,-449 21.1,-400.54 58.77,-355.03 85.1,-329.14"/>
<polygon fill="#8b4513" stroke="#8b4513" points="87.69,-331.5 92.51,-322.07 82.86,-326.44 87.69,-331.5"/>
</g>
<!-- sh -->
<g id="node14" class="node">
<title>sh</title>
<ellipse fill="green" stroke="green" cx="76.1" cy="-738" rx="27" ry="18"/>
<text text-anchor="middle" x="76.1" y="-734.3" font-family="Times,serif" font-size="14.00">sh</text>
</g>
<!-- gmp&#45;&gt;sh -->
<g id="edge13" class="edge">
<title>gmp&#45;&gt;sh</title>
<path fill="none" stroke="#8b4513" d="M54.73,-792.41C58.01,-784.22 62.04,-774.14 65.71,-764.95"/>
<polygon fill="#8b4513" stroke="#8b4513" points="69.04,-766.05 69.51,-755.47 62.54,-763.45 69.04,-766.05"/>
</g>
<!-- glibc&gt;=2.27 -->
<g id="node7" class="node">
<title>glibc&gt;=2.27</title>
<ellipse fill="green" stroke="green" cx="123.1" cy="-234" rx="54.69" ry="18"/>
<text text-anchor="middle" x="123.1" y="-230.3" font-family="Times,serif" font-size="14.00">glibc&gt;=2.27</text>
</g>
<!-- gcc&#45;libs&#45;&gt;glibc&gt;=2.27 -->
<g id="edge6" class="edge">
<title>gcc&#45;libs&#45;&gt;glibc&gt;=2.27</title>
<path fill="none" stroke="#8b4513" d="M113.24,-288.05C114.67,-280.35 116.41,-271.03 118.01,-262.36"/>
<polygon fill="#8b4513" stroke="#8b4513" points="121.5,-262.75 119.89,-252.28 114.62,-261.47 121.5,-262.75"/>
</g>
<!-- glibc -->
<g id="node8" class="node">
<title>glibc</title>
<ellipse fill="green" stroke="green" cx="276.1" cy="-162" rx="28.7" ry="18"/>
<text text-anchor="middle" x="276.1" y="-158.3" font-family="Times,serif" font-size="14.00">glibc</text>
</g>
<!-- glibc&gt;=2.27&#45;&gt;glibc -->
<g id="edge7" class="edge">
<title>glibc&gt;=2.27&#45;&gt;glibc</title>
<path fill="none" stroke="grey" d="M153.69,-219C183.17,-205.52 227.07,-185.43 253.51,-173.34"/>
</g>
<!-- linux&#45;api&#45;headers&gt;=4.10 -->
<g id="node9" class="node">
<title>linux&#45;api&#45;headers&gt;=4.10</title>
<ellipse fill="green" stroke="green" cx="128.1" cy="-90" rx="98.28" ry="18"/>
<text text-anchor="middle" x="128.1" y="-86.3" font-family="Times,serif" font-size="14.00">linux&#45;api&#45;headers&gt;=4.10</text>
</g>
<!-- glibc&#45;&gt;linux&#45;api&#45;headers&gt;=4.10 -->
<g id="edge8" class="edge">
<title>glibc&#45;&gt;linux&#45;api&#45;headers&gt;=4.10</title>
<path fill="none" stroke="#8b4513" d="M253.94,-150.52C232.15,-140.22 198.32,-124.22 171.22,-111.4"/>
<polygon fill="#8b4513" stroke="#8b4513" points="172.49,-108.12 161.95,-107.01 169.49,-114.45 172.49,-108.12"/>
</g>
<!-- tzdata -->
<g id="node11" class="node">
<title>tzdata</title>
<ellipse fill="green" stroke="green" cx="276.1" cy="-90" rx="31.7" ry="18"/>
<text text-anchor="middle" x="276.1" y="-86.3" font-family="Times,serif" font-size="14.00">tzdata</text>
</g>
<!-- glibc&#45;&gt;tzdata -->
<g id="edge10" class="edge">
<title>glibc&#45;&gt;tzdata</title>
<path fill="none" stroke="#8b4513" d="M276.1,-143.7C276.1,-135.98 276.1,-126.71 276.1,-118.11"/>
<polygon fill="#8b4513" stroke="#8b4513" points="279.6,-118.1 276.1,-108.1 272.6,-118.1 279.6,-118.1"/>
</g>
<!-- filesystem -->
<g id="node12" class="node">
<title>filesystem</title>
<ellipse fill="green" stroke="green" cx="373.1" cy="-90" rx="46.59" ry="18"/>
<text text-anchor="middle" x="373.1" y="-86.3" font-family="Times,serif" font-size="14.00">filesystem</text>
</g>
<!-- glibc&#45;&gt;filesystem -->
<g id="edge11" class="edge">
<title>glibc&#45;&gt;filesystem</title>
<path fill="none" stroke="#8b4513" d="M294.34,-147.83C308.14,-137.88 327.38,-123.99 343.39,-112.44"/>
<polygon fill="#8b4513" stroke="#8b4513" points="345.83,-114.99 351.89,-106.3 341.74,-109.31 345.83,-114.99"/>
</g>
<!-- linux&#45;api&#45;headers -->
<g id="node10" class="node">
<title>linux&#45;api&#45;headers</title>
<ellipse fill="green" stroke="green" cx="128.1" cy="-18" rx="71.49" ry="18"/>
<text text-anchor="middle" x="128.1" y="-14.3" font-family="Times,serif" font-size="14.00">linux&#45;api&#45;headers</text>
</g>
<!-- linux&#45;api&#45;headers&gt;=4.10&#45;&gt;linux&#45;api&#45;headers -->
<g id="edge9" class="edge">
<title>linux&#45;api&#45;headers&gt;=4.10&#45;&gt;linux&#45;api&#45;headers</title>
<path fill="none" stroke="grey" d="M128.1,-71.7C128.1,-60.85 128.1,-46.92 128.1,-36.1"/>
</g>
<!-- iana&#45;etc -->
<g id="node13" class="node">
<title>iana&#45;etc</title>
<ellipse fill="green" stroke="green" cx="373.1" cy="-18" rx="38.19" ry="18"/>
<text text-anchor="middle" x="373.1" y="-14.3" font-family="Times,serif" font-size="14.00">iana&#45;etc</text>
</g>
<!-- filesystem&#45;&gt;iana&#45;etc -->
<g id="edge12" class="edge">
<title>filesystem&#45;&gt;iana&#45;etc</title>
<path fill="none" stroke="#8b4513" d="M373.1,-71.7C373.1,-63.98 373.1,-54.71 373.1,-46.11"/>
<polygon fill="#8b4513" stroke="#8b4513" points="376.6,-46.1 373.1,-36.1 369.6,-46.1 376.6,-46.1"/>
</g>
<!-- bash -->
<g id="node15" class="node">
<title>bash</title>
<ellipse fill="green" stroke="green" cx="142.1" cy="-666" rx="27" ry="18"/>
<text text-anchor="middle" x="142.1" y="-662.3" font-family="Times,serif" font-size="14.00">bash</text>
</g>
<!-- sh&#45;&gt;bash -->
<g id="edge14" class="edge">
<title>sh&#45;&gt;bash</title>
<path fill="none" stroke="grey" d="M90.09,-722.15C101.29,-710.28 116.92,-693.7 128.12,-681.82"/>
</g>
<!-- bash&#45;&gt;glibc -->
<g id="edge23" class="edge">
<title>bash&#45;&gt;glibc</title>
<path fill="none" stroke="#8b4513" d="M168.27,-660.6C225.99,-649.24 359.1,-613.27 359.1,-523 359.1,-523 359.1,-523 359.1,-305 359.1,-257.13 323.5,-211.05 298.93,-184.96"/>
<polygon fill="#8b4513" stroke="#8b4513" points="301.18,-182.26 291.71,-177.52 296.16,-187.13 301.18,-182.26"/>
</g>
<!-- readline&gt;=7.0 -->
<g id="node16" class="node">
<title>readline&gt;=7.0</title>
<ellipse fill="green" stroke="green" cx="164.1" cy="-594" rx="61.19" ry="18"/>
<text text-anchor="middle" x="164.1" y="-590.3" font-family="Times,serif" font-size="14.00">readline&gt;=7.0</text>
</g>
<!-- bash&#45;&gt;readline&gt;=7.0 -->
<g id="edge15" class="edge">
<title>bash&#45;&gt;readline&gt;=7.0</title>
<path fill="none" stroke="#8b4513" d="M147.42,-648.05C149.87,-640.26 152.84,-630.82 155.59,-622.08"/>
<polygon fill="#8b4513" stroke="#8b4513" points="159.01,-622.86 158.67,-612.28 152.33,-620.77 159.01,-622.86"/>
</g>
<!-- ncurses -->
<g id="node18" class="node">
<title>ncurses</title>
<ellipse fill="green" stroke="green" cx="110.1" cy="-378" rx="37.09" ry="18"/>
<text text-anchor="middle" x="110.1" y="-374.3" font-family="Times,serif" font-size="14.00">ncurses</text>
</g>
<!-- bash&#45;&gt;ncurses -->
<g id="edge24" class="edge">
<title>bash&#45;&gt;ncurses</title>
<path fill="none" stroke="#8b4513" d="M124.83,-651.79C113.73,-642.14 100.26,-627.98 94.1,-612 66.89,-541.43 87.83,-449.98 101.19,-405.56"/>
<polygon fill="#8b4513" stroke="#8b4513" points="104.6,-406.41 104.23,-395.82 97.91,-404.32 104.6,-406.41"/>
</g>
<!-- readline -->
<g id="node17" class="node">
<title>readline</title>
<ellipse fill="green" stroke="green" cx="179.1" cy="-522" rx="38.99" ry="18"/>
<text text-anchor="middle" x="179.1" y="-518.3" font-family="Times,serif" font-size="14.00">readline</text>
</g>
<!-- readline&gt;=7.0&#45;&gt;readline -->
<g id="edge16" class="edge">
<title>readline&gt;=7.0&#45;&gt;readline</title>
<path fill="none" stroke="grey" d="M167.8,-575.7C170.13,-564.85 173.11,-550.92 175.43,-540.1"/>
</g>
<!-- readline&#45;&gt;glibc -->
<g id="edge17" class="edge">
<title>readline&#45;&gt;glibc</title>
<path fill="none" stroke="#8b4513" d="M214.93,-514.8C242.82,-508.07 280.34,-494.51 302.1,-468 327.75,-436.73 321.1,-419.45 321.1,-379 321.1,-379 321.1,-379 321.1,-305 321.1,-262.67 302.7,-216.41 289.43,-188.56"/>
<polygon fill="#8b4513" stroke="#8b4513" points="292.53,-186.94 284.99,-179.51 286.25,-190.03 292.53,-186.94"/>
</g>
<!-- readline&#45;&gt;ncurses -->
<g id="edge18" class="edge">
<title>readline&#45;&gt;ncurses</title>
<path fill="none" stroke="#8b4513" d="M155.08,-507.59C141.11,-498.39 124.63,-484.83 116.1,-468 106.43,-448.95 105.44,-424.59 106.58,-406.18"/>
<polygon fill="#8b4513" stroke="#8b4513" points="110.08,-406.37 107.45,-396.1 103.1,-405.77 110.08,-406.37"/>
</g>
<!-- libncursesw.so=6&#45;64 -->
<g id="node19" class="node">
<title>libncursesw.so=6&#45;64</title>
<ellipse fill="green" stroke="green" cx="209.1" cy="-450" rx="83.69" ry="18"/>
<text text-anchor="middle" x="209.1" y="-446.3" font-family="Times,serif" font-size="14.00">libncursesw.so=6&#45;64</text>
</g>
<!-- readline&#45;&gt;libncursesw.so=6&#45;64 -->
<g id="edge21" class="edge">
<title>readline&#45;&gt;libncursesw.so=6&#45;64</title>
<path fill="none" stroke="#8b4513" d="M186.36,-504.05C189.77,-496.09 193.92,-486.41 197.73,-477.51"/>
<polygon fill="#8b4513" stroke="#8b4513" points="200.97,-478.85 201.69,-468.28 194.54,-476.09 200.97,-478.85"/>
</g>
<!-- ncurses&#45;&gt;gcc&#45;libs -->
<g id="edge20" class="edge">
<title>ncurses&#45;&gt;gcc&#45;libs</title>
<path fill="none" stroke="#8b4513" d="M110.1,-359.7C110.1,-351.98 110.1,-342.71 110.1,-334.11"/>
<polygon fill="#8b4513" stroke="#8b4513" points="113.6,-334.1 110.1,-324.1 106.6,-334.1 113.6,-334.1"/>
</g>
<!-- ncurses&#45;&gt;glibc -->
<g id="edge19" class="edge">
<title>ncurses&#45;&gt;glibc</title>
<path fill="none" stroke="#8b4513" d="M124.88,-361.09C134.33,-350.72 146.72,-336.8 157.1,-324 195.3,-276.85 236.74,-219.13 259.24,-187.19"/>
<polygon fill="#8b4513" stroke="#8b4513" points="262.18,-189.09 265.06,-178.89 256.45,-185.07 262.18,-189.09"/>
</g>
<!-- libncursesw.so=6&#45;64&#45;&gt;ncurses -->
<g id="edge22" class="edge">
<title>libncursesw.so=6&#45;64&#45;&gt;ncurses</title>
<path fill="none" stroke="grey" d="M185.88,-432.59C168.97,-420.63 146.28,-404.59 130.15,-393.18"/>
</g>
</g>
</svg>
