<?xml version="1.0" encoding="UTF-8" standalone="no"?>
<!DOCTYPE svg PUBLIC "-//W3C//DTD SVG 1.1//EN"
 "http://www.w3.org/Graphics/SVG/1.1/DTD/svg11.dtd">
<!-- Generated by graphviz version 2.44.0 (0)
 -->
<!-- Title: G Pages: 1 -->
<svg width="487pt" height="1484pt"
 viewBox="0.00 0.00 487.14 1484.00" xmlns="http://www.w3.org/2000/svg" xmlns:xlink="http://www.w3.org/1999/xlink">
<g id="graph0" class="graph" transform="scale(1 1) rotate(0) translate(4 1480)">
<title>G</title>
<polygon fill="white" stroke="transparent" points="-4,4 -4,-1480 483.14,-1480 483.14,4 -4,4"/>
<!-- START -->
<g id="node1" class="node">
<title>START</title>
<ellipse fill="red" stroke="red" cx="276.14" cy="-1458" rx="38.19" ry="18"/>
<text text-anchor="middle" x="276.14" y="-1454.3" font-family="Times,serif" font-size="14.00">START</text>
</g>
<!-- libnsl -->
<g id="node2" class="node">
<title>libnsl</title>
<ellipse fill="green" stroke="green" cx="276.14" cy="-1386" rx="30.59" ry="18"/>
<text text-anchor="middle" x="276.14" y="-1382.3" font-family="Times,serif" font-size="14.00">libnsl</text>
</g>
<!-- START&#45;&gt;libnsl -->
<g id="edge1" class="edge">
<title>START&#45;&gt;libnsl</title>
<path fill="none" stroke="black" d="M276.14,-1439.7C276.14,-1431.98 276.14,-1422.71 276.14,-1414.11"/>
<polygon fill="black" stroke="black" points="279.64,-1414.1 276.14,-1404.1 272.64,-1414.1 279.64,-1414.1"/>
</g>
<!-- libtirpc -->
<g id="node3" class="node">
<title>libtirpc</title>
<ellipse fill="green" stroke="green" cx="276.14" cy="-1314" rx="36.29" ry="18"/>
<text text-anchor="middle" x="276.14" y="-1310.3" font-family="Times,serif" font-size="14.00">libtirpc</text>
</g>
<!-- libnsl&#45;&gt;libtirpc -->
<g id="edge2" class="edge">
<title>libnsl&#45;&gt;libtirpc</title>
<path fill="none" stroke="#8b4513" d="M276.14,-1367.7C276.14,-1359.98 276.14,-1350.71 276.14,-1342.11"/>
<polygon fill="#8b4513" stroke="#8b4513" points="279.64,-1342.1 276.14,-1332.1 272.64,-1342.1 279.64,-1342.1"/>
</g>
<!-- krb5 -->
<g id="node4" class="node">
<title>krb5</title>
<ellipse fill="green" stroke="green" cx="276.14" cy="-1242" rx="27.1" ry="18"/>
<text text-anchor="middle" x="276.14" y="-1238.3" font-family="Times,serif" font-size="14.00">krb5</text>
</g>
<!-- libtirpc&#45;&gt;krb5 -->
<g id="edge3" class="edge">
<title>libtirpc&#45;&gt;krb5</title>
<path fill="none" stroke="#8b4513" d="M276.14,-1295.7C276.14,-1287.98 276.14,-1278.71 276.14,-1270.11"/>
<polygon fill="#8b4513" stroke="#8b4513" points="279.64,-1270.1 276.14,-1260.1 272.64,-1270.1 279.64,-1270.1"/>
</g>
<!-- e2fsprogs -->
<g id="node5" class="node">
<title>e2fsprogs</title>
<ellipse fill="green" stroke="green" cx="245.14" cy="-1098" rx="44.69" ry="18"/>
<text text-anchor="middle" x="245.14" y="-1094.3" font-family="Times,serif" font-size="14.00">e2fsprogs</text>
</g>
<!-- krb5&#45;&gt;e2fsprogs -->
<g id="edge4" class="edge">
<title>krb5&#45;&gt;e2fsprogs</title>
<path fill="none" stroke="#8b4513" d="M272.56,-1223.92C268.79,-1206 262.64,-1177 257.14,-1152 255.29,-1143.58 253.23,-1134.41 251.35,-1126.11"/>
<polygon fill="#8b4513" stroke="#8b4513" points="254.72,-1125.15 249.09,-1116.17 247.89,-1126.7 254.72,-1125.15"/>
</g>
<!-- libldap -->
<g id="node21" class="node">
<title>libldap</title>
<ellipse fill="green" stroke="green" cx="213.14" cy="-1170" rx="35.19" ry="18"/>
<text text-anchor="middle" x="213.14" y="-1166.3" font-family="Times,serif" font-size="14.00">libldap</text>
</g>
<!-- krb5&#45;&gt;libldap -->
<g id="edge25" class="edge">
<title>krb5&#45;&gt;libldap</title>
<path fill="none" stroke="#8b4513" d="M262.78,-1226.15C254.49,-1216.94 243.66,-1204.91 234.23,-1194.43"/>
<polygon fill="#8b4513" stroke="#8b4513" points="236.65,-1191.89 227.36,-1186.8 231.45,-1196.57 236.65,-1191.89"/>
</g>
<!-- keyutils -->
<g id="node28" class="node">
<title>keyutils</title>
<ellipse fill="green" stroke="green" cx="362.14" cy="-810" rx="38.19" ry="18"/>
<text text-anchor="middle" x="362.14" y="-806.3" font-family="Times,serif" font-size="14.00">keyutils</text>
</g>
<!-- krb5&#45;&gt;keyutils -->
<g id="edge40" class="edge">
<title>krb5&#45;&gt;keyutils</title>
<path fill="none" stroke="#8b4513" d="M289.68,-1226.09C310.54,-1201.52 348.14,-1150.14 348.14,-1099 348.14,-1099 348.14,-1099 348.14,-953 348.14,-912.8 353.77,-866.51 357.89,-838"/>
<polygon fill="#8b4513" stroke="#8b4513" points="361.36,-838.4 359.38,-828 354.44,-837.37 361.36,-838.4"/>
</g>
<!-- sh -->
<g id="node6" class="node">
<title>sh</title>
<ellipse fill="green" stroke="green" cx="291.14" cy="-738" rx="27" ry="18"/>
<text text-anchor="middle" x="291.14" y="-734.3" font-family="Times,serif" font-size="14.00">sh</text>
</g>
<!-- e2fsprogs&#45;&gt;sh -->
<g id="edge5" class="edge">
<title>e2fsprogs&#45;&gt;sh</title>
<path fill="none" stroke="#8b4513" d="M257.03,-1080.56C263.83,-1070.46 272,-1056.99 277.14,-1044 292.02,-1006.39 296.14,-995.45 296.14,-955 296.14,-955 296.14,-955 296.14,-881 296.14,-840.97 294.13,-794.63 292.66,-766.07"/>
<polygon fill="#8b4513" stroke="#8b4513" points="296.15,-765.84 292.13,-756.04 289.16,-766.21 296.15,-765.84"/>
</g>
<!-- libutil&#45;linux -->
<g id="node20" class="node">
<title>libutil&#45;linux</title>
<ellipse fill="green" stroke="green" cx="215.14" cy="-1026" rx="52.79" ry="18"/>
<text text-anchor="middle" x="215.14" y="-1022.3" font-family="Times,serif" font-size="14.00">libutil&#45;linux</text>
</g>
<!-- e2fsprogs&#45;&gt;libutil&#45;linux -->
<g id="edge24" class="edge">
<title>e2fsprogs&#45;&gt;libutil&#45;linux</title>
<path fill="none" stroke="#8b4513" d="M237.88,-1080.05C234.47,-1072.09 230.32,-1062.41 226.5,-1053.51"/>
<polygon fill="#8b4513" stroke="#8b4513" points="229.7,-1052.09 222.54,-1044.28 223.27,-1054.85 229.7,-1052.09"/>
</g>
<!-- bash -->
<g id="node7" class="node">
<title>bash</title>
<ellipse fill="green" stroke="green" cx="291.14" cy="-666" rx="27" ry="18"/>
<text text-anchor="middle" x="291.14" y="-662.3" font-family="Times,serif" font-size="14.00">bash</text>
</g>
<!-- sh&#45;&gt;bash -->
<g id="edge6" class="edge">
<title>sh&#45;&gt;bash</title>
<path fill="none" stroke="grey" d="M274.77,-723.5C269.59,-711.11 269.6,-692.84 274.78,-680.46"/>
</g>
<!-- sh&#45;&gt;bash -->
<g id="edge33" class="edge">
<title>sh&#45;&gt;bash</title>
<path fill="none" stroke="grey" d="M285.3,-720.41C284.1,-709.41 284.09,-695.03 285.26,-683.96"/>
</g>
<!-- sh&#45;&gt;bash -->
<g id="edge37" class="edge">
<title>sh&#45;&gt;bash</title>
<path fill="none" stroke="grey" d="M296.98,-720.41C298.18,-709.41 298.19,-695.03 297.02,-683.96"/>
</g>
<!-- sh&#45;&gt;bash -->
<g id="edge43" class="edge">
<title>sh&#45;&gt;bash</title>
<path fill="none" stroke="grey" d="M307.52,-723.5C312.69,-711.11 312.68,-692.84 307.5,-680.46"/>
</g>
<!-- readline&gt;=7.0 -->
<g id="node8" class="node">
<title>readline&gt;=7.0</title>
<ellipse fill="green" stroke="green" cx="291.14" cy="-594" rx="61.19" ry="18"/>
<text text-anchor="middle" x="291.14" y="-590.3" font-family="Times,serif" font-size="14.00">readline&gt;=7.0</text>
</g>
<!-- bash&#45;&gt;readline&gt;=7.0 -->
<g id="edge7" class="edge">
<title>bash&#45;&gt;readline&gt;=7.0</title>
<path fill="none" stroke="#8b4513" d="M291.14,-647.7C291.14,-639.98 291.14,-630.71 291.14,-622.11"/>
<polygon fill="#8b4513" stroke="#8b4513" points="294.64,-622.1 291.14,-612.1 287.64,-622.1 294.64,-622.1"/>
</g>
<!-- glibc -->
<g id="node10" class="node">
<title>glibc</title>
<ellipse fill="green" stroke="green" cx="246.14" cy="-162" rx="28.7" ry="18"/>
<text text-anchor="middle" x="246.14" y="-158.3" font-family="Times,serif" font-size="14.00">glibc</text>
</g>
<!-- bash&#45;&gt;glibc -->
<g id="edge22" class="edge">
<title>bash&#45;&gt;glibc</title>
<path fill="none" stroke="#8b4513" d="M313.92,-656.01C355.89,-637.77 441.14,-592.21 441.14,-523 441.14,-523 441.14,-523 441.14,-305 441.14,-227.53 339.32,-187.87 282.83,-171.83"/>
<polygon fill="#8b4513" stroke="#8b4513" points="283.41,-168.37 272.85,-169.11 281.57,-175.12 283.41,-168.37"/>
</g>
<!-- ncurses -->
<g id="node16" class="node">
<title>ncurses</title>
<ellipse fill="green" stroke="green" cx="179.14" cy="-378" rx="37.09" ry="18"/>
<text text-anchor="middle" x="179.14" y="-374.3" font-family="Times,serif" font-size="14.00">ncurses</text>
</g>
<!-- bash&#45;&gt;ncurses -->
<g id="edge23" class="edge">
<title>bash&#45;&gt;ncurses</title>
<path fill="none" stroke="#8b4513" d="M270.47,-654.2C254.76,-644.99 233.77,-630.33 221.14,-612 177.32,-548.39 175.2,-452.6 177.18,-406.17"/>
<polygon fill="#8b4513" stroke="#8b4513" points="180.68,-406.16 177.71,-395.99 173.69,-405.79 180.68,-406.16"/>
</g>
<!-- readline -->
<g id="node9" class="node">
<title>readline</title>
<ellipse fill="green" stroke="green" cx="291.14" cy="-522" rx="38.99" ry="18"/>
<text text-anchor="middle" x="291.14" y="-518.3" font-family="Times,serif" font-size="14.00">readline</text>
</g>
<!-- readline&gt;=7.0&#45;&gt;readline -->
<g id="edge8" class="edge">
<title>readline&gt;=7.0&#45;&gt;readline</title>
<path fill="none" stroke="grey" d="M291.14,-575.7C291.14,-564.85 291.14,-550.92 291.14,-540.1"/>
</g>
<!-- readline&#45;&gt;glibc -->
<g id="edge9" class="edge">
<title>readline&#45;&gt;glibc</title>
<path fill="none" stroke="#8b4513" d="M322.11,-510.97C342.78,-502.68 368.89,-488.85 384.14,-468 408.02,-435.36 403.14,-419.45 403.14,-379 403.14,-379 403.14,-379 403.14,-305 403.14,-238.95 325.77,-195.66 279.65,-175.72"/>
<polygon fill="#8b4513" stroke="#8b4513" points="280.9,-172.45 270.33,-171.82 278.2,-178.9 280.9,-172.45"/>
</g>
<!-- readline&#45;&gt;ncurses -->
<g id="edge15" class="edge">
<title>readline&#45;&gt;ncurses</title>
<path fill="none" stroke="#8b4513" d="M260.18,-510.97C239.5,-502.68 213.39,-488.85 198.14,-468 185.06,-450.11 180.61,-425.11 179.26,-406.16"/>
<polygon fill="#8b4513" stroke="#8b4513" points="182.75,-405.9 178.79,-396.07 175.76,-406.22 182.75,-405.9"/>
</g>
<!-- libncursesw.so=6&#45;64 -->
<g id="node19" class="node">
<title>libncursesw.so=6&#45;64</title>
<ellipse fill="green" stroke="green" cx="291.14" cy="-450" rx="83.69" ry="18"/>
<text text-anchor="middle" x="291.14" y="-446.3" font-family="Times,serif" font-size="14.00">libncursesw.so=6&#45;64</text>
</g>
<!-- readline&#45;&gt;libncursesw.so=6&#45;64 -->
<g id="edge20" class="edge">
<title>readline&#45;&gt;libncursesw.so=6&#45;64</title>
<path fill="none" stroke="#8b4513" d="M291.14,-503.7C291.14,-495.98 291.14,-486.71 291.14,-478.11"/>
<polygon fill="#8b4513" stroke="#8b4513" points="294.64,-478.1 291.14,-468.1 287.64,-478.1 294.64,-478.1"/>
</g>
<!-- linux&#45;api&#45;headers&gt;=4.10 -->
<g id="node11" class="node">
<title>linux&#45;api&#45;headers&gt;=4.10</title>
<ellipse fill="green" stroke="green" cx="98.14" cy="-90" rx="98.28" ry="18"/>
<text text-anchor="middle" x="98.14" y="-86.3" font-family="Times,serif" font-size="14.00">linux&#45;api&#45;headers&gt;=4.10</text>
</g>
<!-- glibc&#45;&gt;linux&#45;api&#45;headers&gt;=4.10 -->
<g id="edge10" class="edge">
<title>glibc&#45;&gt;linux&#45;api&#45;headers&gt;=4.10</title>
<path fill="none" stroke="#8b4513" d="M223.98,-150.52C202.2,-140.22 168.37,-124.22 141.27,-111.4"/>
<polygon fill="#8b4513" stroke="#8b4513" points="142.53,-108.12 132,-107.01 139.54,-114.45 142.53,-108.12"/>
</g>
<!-- tzdata -->
<g id="node13" class="node">
<title>tzdata</title>
<ellipse fill="green" stroke="green" cx="246.14" cy="-90" rx="31.7" ry="18"/>
<text text-anchor="middle" x="246.14" y="-86.3" font-family="Times,serif" font-size="14.00">tzdata</text>
</g>
<!-- glibc&#45;&gt;tzdata -->
<g id="edge12" class="edge">
<title>glibc&#45;&gt;tzdata</title>
<path fill="none" stroke="#8b4513" d="M246.14,-143.7C246.14,-135.98 246.14,-126.71 246.14,-118.11"/>
<polygon fill="#8b4513" stroke="#8b4513" points="249.64,-118.1 246.14,-108.1 242.64,-118.1 249.64,-118.1"/>
</g>
<!-- filesystem -->
<g id="node14" class="node">
<title>filesystem</title>
<ellipse fill="green" stroke="green" cx="343.14" cy="-90" rx="46.59" ry="18"/>
<text text-anchor="middle" x="343.14" y="-86.3" font-family="Times,serif" font-size="14.00">filesystem</text>
</g>
<!-- glibc&#45;&gt;filesystem -->
<g id="edge13" class="edge">
<title>glibc&#45;&gt;filesystem</title>
<path fill="none" stroke="#8b4513" d="M264.39,-147.83C278.19,-137.88 297.42,-123.99 313.43,-112.44"/>
<polygon fill="#8b4513" stroke="#8b4513" points="315.88,-114.99 321.94,-106.3 311.78,-109.31 315.88,-114.99"/>
</g>
<!-- linux&#45;api&#45;headers -->
<g id="node12" class="node">
<title>linux&#45;api&#45;headers</title>
<ellipse fill="green" stroke="green" cx="98.14" cy="-18" rx="71.49" ry="18"/>
<text text-anchor="middle" x="98.14" y="-14.3" font-family="Times,serif" font-size="14.00">linux&#45;api&#45;headers</text>
</g>
<!-- linux&#45;api&#45;headers&gt;=4.10&#45;&gt;linux&#45;api&#45;headers -->
<g id="edge11" class="edge">
<title>linux&#45;api&#45;headers&gt;=4.10&#45;&gt;linux&#45;api&#45;headers</title>
<path fill="none" stroke="grey" d="M98.14,-71.7C98.14,-60.85 98.14,-46.92 98.14,-36.1"/>
</g>
<!-- iana&#45;etc -->
<g id="node15" class="node">
<title>iana&#45;etc</title>
<ellipse fill="green" stroke="green" cx="343.14" cy="-18" rx="38.19" ry="18"/>
<text text-anchor="middle" x="343.14" y="-14.3" font-family="Times,serif" font-size="14.00">iana&#45;etc</text>
</g>
<!-- filesystem&#45;&gt;iana&#45;etc -->
<g id="edge14" class="edge">
<title>filesystem&#45;&gt;iana&#45;etc</title>
<path fill="none" stroke="#8b4513" d="M343.14,-71.7C343.14,-63.98 343.14,-54.71 343.14,-46.11"/>
<polygon fill="#8b4513" stroke="#8b4513" points="346.64,-46.1 343.14,-36.1 339.64,-46.1 346.64,-46.1"/>
</g>
<!-- ncurses&#45;&gt;glibc -->
<g id="edge16" class="edge">
<title>ncurses&#45;&gt;glibc</title>
<path fill="none" stroke="#8b4513" d="M190.54,-360.47C197.08,-350.33 204.99,-336.87 210.14,-324 228.21,-278.84 238.14,-222.76 242.79,-190.11"/>
<polygon fill="#8b4513" stroke="#8b4513" points="246.29,-190.36 244.17,-179.98 239.35,-189.42 246.29,-190.36"/>
</g>
<!-- gcc&#45;libs -->
<g id="node17" class="node">
<title>gcc&#45;libs</title>
<ellipse fill="green" stroke="green" cx="163.14" cy="-306" rx="38.19" ry="18"/>
<text text-anchor="middle" x="163.14" y="-302.3" font-family="Times,serif" font-size="14.00">gcc&#45;libs</text>
</g>
<!-- ncurses&#45;&gt;gcc&#45;libs -->
<g id="edge17" class="edge">
<title>ncurses&#45;&gt;gcc&#45;libs</title>
<path fill="none" stroke="#8b4513" d="M175.27,-360.05C173.49,-352.26 171.33,-342.82 169.33,-334.08"/>
<polygon fill="#8b4513" stroke="#8b4513" points="172.73,-333.24 167.09,-324.28 165.91,-334.8 172.73,-333.24"/>
</g>
<!-- glibc&gt;=2.27 -->
<g id="node18" class="node">
<title>glibc&gt;=2.27</title>
<ellipse fill="green" stroke="green" cx="163.14" cy="-234" rx="54.69" ry="18"/>
<text text-anchor="middle" x="163.14" y="-230.3" font-family="Times,serif" font-size="14.00">glibc&gt;=2.27</text>
</g>
<!-- gcc&#45;libs&#45;&gt;glibc&gt;=2.27 -->
<g id="edge18" class="edge">
<title>gcc&#45;libs&#45;&gt;glibc&gt;=2.27</title>
<path fill="none" stroke="#8b4513" d="M163.14,-287.7C163.14,-279.98 163.14,-270.71 163.14,-262.11"/>
<polygon fill="#8b4513" stroke="#8b4513" points="166.64,-262.1 163.14,-252.1 159.64,-262.1 166.64,-262.1"/>
</g>
<!-- glibc&gt;=2.27&#45;&gt;glibc -->
<g id="edge19" class="edge">
<title>glibc&gt;=2.27&#45;&gt;glibc</title>
<path fill="none" stroke="grey" d="M182.39,-216.76C196.76,-204.65 216.18,-188.27 229.79,-176.79"/>
</g>
<!-- libncursesw.so=6&#45;64&#45;&gt;ncurses -->
<g id="edge21" class="edge">
<title>libncursesw.so=6&#45;64&#45;&gt;ncurses</title>
<path fill="none" stroke="grey" d="M265.16,-432.76C245.78,-420.65 219.58,-404.27 201.2,-392.79"/>
</g>
<!-- libldap&#45;&gt;e2fsprogs -->
<g id="edge39" class="edge">
<title>libldap&#45;&gt;e2fsprogs</title>
<path fill="none" stroke="#8b4513" d="M220.72,-1152.41C224.46,-1144.25 229.04,-1134.22 233.23,-1125.07"/>
<polygon fill="#8b4513" stroke="#8b4513" points="236.42,-1126.51 237.39,-1115.96 230.05,-1123.6 236.42,-1126.51"/>
</g>
<!-- libsasl -->
<g id="node22" class="node">
<title>libsasl</title>
<ellipse fill="green" stroke="green" cx="143.14" cy="-1098" rx="33.29" ry="18"/>
<text text-anchor="middle" x="143.14" y="-1094.3" font-family="Times,serif" font-size="14.00">libsasl</text>
</g>
<!-- libldap&#45;&gt;libsasl -->
<g id="edge26" class="edge">
<title>libldap&#45;&gt;libsasl</title>
<path fill="none" stroke="#8b4513" d="M197.61,-1153.46C188.27,-1144.13 176.23,-1132.09 165.84,-1121.7"/>
<polygon fill="#8b4513" stroke="#8b4513" points="168.18,-1119.09 158.63,-1114.49 163.23,-1124.04 168.18,-1119.09"/>
</g>
<!-- openssl -->
<g id="node23" class="node">
<title>openssl</title>
<ellipse fill="green" stroke="green" cx="107.14" cy="-1026" rx="37.09" ry="18"/>
<text text-anchor="middle" x="107.14" y="-1022.3" font-family="Times,serif" font-size="14.00">openssl</text>
</g>
<!-- libsasl&#45;&gt;openssl -->
<g id="edge27" class="edge">
<title>libsasl&#45;&gt;openssl</title>
<path fill="none" stroke="#8b4513" d="M134.61,-1080.41C130.41,-1072.25 125.25,-1062.22 120.55,-1053.07"/>
<polygon fill="#8b4513" stroke="#8b4513" points="123.55,-1051.25 115.86,-1043.96 117.32,-1054.45 123.55,-1051.25"/>
</g>
<!-- perl -->
<g id="node24" class="node">
<title>perl</title>
<ellipse fill="green" stroke="green" cx="109.14" cy="-954" rx="27" ry="18"/>
<text text-anchor="middle" x="109.14" y="-950.3" font-family="Times,serif" font-size="14.00">perl</text>
</g>
<!-- openssl&#45;&gt;perl -->
<g id="edge28" class="edge">
<title>openssl&#45;&gt;perl</title>
<path fill="none" stroke="#8b4513" d="M107.64,-1007.7C107.86,-999.98 108.12,-990.71 108.37,-982.11"/>
<polygon fill="#8b4513" stroke="#8b4513" points="111.87,-982.2 108.65,-972.1 104.87,-982 111.87,-982.2"/>
</g>
<!-- perl&#45;&gt;glibc -->
<g id="edge38" class="edge">
<title>perl&#45;&gt;glibc</title>
<path fill="none" stroke="#8b4513" d="M88.98,-941.98C74.01,-932.73 54.32,-918.14 43.14,-900 21.92,-865.57 24.14,-851.45 24.14,-811 24.14,-811 24.14,-811 24.14,-305 24.14,-260.68 35.15,-244.45 69.14,-216 108.72,-182.88 168.45,-170.46 207.38,-165.8"/>
<polygon fill="#8b4513" stroke="#8b4513" points="208.21,-169.23 217.77,-164.68 207.46,-162.27 208.21,-169.23"/>
</g>
<!-- gdbm&gt;=1.17 -->
<g id="node25" class="node">
<title>gdbm&gt;=1.17</title>
<ellipse fill="green" stroke="green" cx="110.14" cy="-882" rx="57.69" ry="18"/>
<text text-anchor="middle" x="110.14" y="-878.3" font-family="Times,serif" font-size="14.00">gdbm&gt;=1.17</text>
</g>
<!-- perl&#45;&gt;gdbm&gt;=1.17 -->
<g id="edge29" class="edge">
<title>perl&#45;&gt;gdbm&gt;=1.17</title>
<path fill="none" stroke="#8b4513" d="M109.39,-935.7C109.5,-927.98 109.63,-918.71 109.75,-910.11"/>
<polygon fill="#8b4513" stroke="#8b4513" points="113.25,-910.15 109.9,-900.1 106.25,-910.05 113.25,-910.15"/>
</g>
<!-- db -->
<g id="node27" class="node">
<title>db</title>
<ellipse fill="green" stroke="green" cx="196.14" cy="-810" rx="27" ry="18"/>
<text text-anchor="middle" x="196.14" y="-806.3" font-family="Times,serif" font-size="14.00">db</text>
</g>
<!-- perl&#45;&gt;db -->
<g id="edge34" class="edge">
<title>perl&#45;&gt;db</title>
<path fill="none" stroke="#8b4513" d="M129.91,-942.12C145.34,-932.95 165.62,-918.39 177.14,-900 188.78,-881.42 193.38,-856.83 195.16,-838.21"/>
<polygon fill="#8b4513" stroke="#8b4513" points="198.66,-838.25 195.91,-828.02 191.68,-837.74 198.66,-838.25"/>
</g>
<!-- gdbm -->
<g id="node26" class="node">
<title>gdbm</title>
<ellipse fill="green" stroke="green" cx="110.14" cy="-810" rx="31.4" ry="18"/>
<text text-anchor="middle" x="110.14" y="-806.3" font-family="Times,serif" font-size="14.00">gdbm</text>
</g>
<!-- gdbm&gt;=1.17&#45;&gt;gdbm -->
<g id="edge30" class="edge">
<title>gdbm&gt;=1.17&#45;&gt;gdbm</title>
<path fill="none" stroke="grey" d="M110.14,-863.7C110.14,-852.85 110.14,-838.92 110.14,-828.1"/>
</g>
<!-- gdbm&#45;&gt;sh -->
<g id="edge32" class="edge">
<title>gdbm&#45;&gt;sh</title>
<path fill="none" stroke="#8b4513" d="M135.31,-799.27C167.54,-786.8 223.44,-765.18 258.8,-751.51"/>
<polygon fill="#8b4513" stroke="#8b4513" points="260.12,-754.75 268.19,-747.88 257.6,-748.22 260.12,-754.75"/>
</g>
<!-- gdbm&#45;&gt;glibc -->
<g id="edge31" class="edge">
<title>gdbm&#45;&gt;glibc</title>
<path fill="none" stroke="#8b4513" d="M101.25,-792.49C88.14,-766.55 65.14,-714.33 65.14,-667 65.14,-667 65.14,-667 65.14,-305 65.14,-262.66 68.92,-245.66 99.14,-216 128.67,-187.02 175.18,-173.76 207.96,-167.78"/>
<polygon fill="#8b4513" stroke="#8b4513" points="208.8,-171.18 218.09,-166.08 207.64,-164.28 208.8,-171.18"/>
</g>
<!-- db&#45;&gt;sh -->
<g id="edge36" class="edge">
<title>db&#45;&gt;sh</title>
<path fill="none" stroke="#8b4513" d="M213.57,-796.16C228.07,-785.47 248.93,-770.1 265.37,-757.99"/>
<polygon fill="#8b4513" stroke="#8b4513" points="267.53,-760.74 273.51,-751.99 263.38,-755.11 267.53,-760.74"/>
</g>
<!-- db&#45;&gt;gcc&#45;libs -->
<g id="edge35" class="edge">
<title>db&#45;&gt;gcc&#45;libs</title>
<path fill="none" stroke="#8b4513" d="M179.51,-795.62C152.76,-772.48 103.14,-722.11 103.14,-667 103.14,-667 103.14,-667 103.14,-449 103.14,-405.24 127.62,-359.45 145.31,-332.07"/>
<polygon fill="#8b4513" stroke="#8b4513" points="148.37,-333.79 151,-323.53 142.54,-329.91 148.37,-333.79"/>
</g>
<!-- keyutils&#45;&gt;sh -->
<g id="edge42" class="edge">
<title>keyutils&#45;&gt;sh</title>
<path fill="none" stroke="#8b4513" d="M346.38,-793.46C336.65,-783.87 324.02,-771.42 313.29,-760.84"/>
<polygon fill="#8b4513" stroke="#8b4513" points="315.46,-758.06 305.88,-753.54 310.55,-763.05 315.46,-758.06"/>
</g>
<!-- keyutils&#45;&gt;glibc -->
<g id="edge41" class="edge">
<title>keyutils&#45;&gt;glibc</title>
<path fill="none" stroke="#8b4513" d="M384.98,-795.39C419.03,-773.16 479.14,-725.62 479.14,-667 479.14,-667 479.14,-667 479.14,-305 479.14,-214.62 349.72,-180.08 283.79,-168.35"/>
<polygon fill="#8b4513" stroke="#8b4513" points="284.23,-164.88 273.78,-166.66 283.06,-171.78 284.23,-164.88"/>
</g>
</g>
</svg>
