<?xml version="1.0" encoding="UTF-8" standalone="no"?>
<!DOCTYPE svg PUBLIC "-//W3C//DTD SVG 1.1//EN"
 "http://www.w3.org/Graphics/SVG/1.1/DTD/svg11.dtd">
<!-- Generated by graphviz version 2.44.0 (0)
 -->
<!-- Title: G Pages: 1 -->
<svg width="503pt" height="908pt"
 viewBox="0.00 0.00 502.70 908.00" xmlns="http://www.w3.org/2000/svg" xmlns:xlink="http://www.w3.org/1999/xlink">
<g id="graph0" class="graph" transform="scale(1 1) rotate(0) translate(4 904)">
<title>G</title>
<polygon fill="white" stroke="transparent" points="-4,4 -4,-904 498.7,-904 498.7,4 -4,4"/>
<!-- START -->
<g id="node1" class="node">
<title>START</title>
<ellipse fill="red" stroke="red" cx="232.14" cy="-882" rx="38.19" ry="18"/>
<text text-anchor="middle" x="232.14" y="-878.3" font-family="Times,serif" font-size="14.00">START</text>
</g>
<!-- libpng -->
<g id="node2" class="node">
<title>libpng</title>
<ellipse fill="green" stroke="green" cx="232.14" cy="-810" rx="33.29" ry="18"/>
<text text-anchor="middle" x="232.14" y="-806.3" font-family="Times,serif" font-size="14.00">libpng</text>
</g>
<!-- START&#45;&gt;libpng -->
<g id="edge1" class="edge">
<title>START&#45;&gt;libpng</title>
<path fill="none" stroke="black" d="M232.14,-863.7C232.14,-855.98 232.14,-846.71 232.14,-838.11"/>
<polygon fill="black" stroke="black" points="235.64,-838.1 232.14,-828.1 228.64,-838.1 235.64,-838.1"/>
</g>
<!-- zlib -->
<g id="node3" class="node">
<title>zlib</title>
<ellipse fill="green" stroke="green" cx="197.14" cy="-666" rx="27" ry="18"/>
<text text-anchor="middle" x="197.14" y="-662.3" font-family="Times,serif" font-size="14.00">zlib</text>
</g>
<!-- libpng&#45;&gt;zlib -->
<g id="edge2" class="edge">
<title>libpng&#45;&gt;zlib</title>
<path fill="none" stroke="#8b4513" d="M227.92,-791.87C221.93,-767.56 210.9,-722.82 203.8,-694.01"/>
<polygon fill="#8b4513" stroke="#8b4513" points="207.17,-693.06 201.38,-684.19 200.37,-694.74 207.17,-693.06"/>
</g>
<!-- sh -->
<g id="node10" class="node">
<title>sh</title>
<ellipse fill="green" stroke="green" cx="264.14" cy="-738" rx="27" ry="18"/>
<text text-anchor="middle" x="264.14" y="-734.3" font-family="Times,serif" font-size="14.00">sh</text>
</g>
<!-- libpng&#45;&gt;sh -->
<g id="edge9" class="edge">
<title>libpng&#45;&gt;sh</title>
<path fill="none" stroke="#8b4513" d="M239.72,-792.41C243.51,-784.13 248.18,-773.92 252.41,-764.66"/>
<polygon fill="#8b4513" stroke="#8b4513" points="255.64,-766.02 256.61,-755.47 249.27,-763.11 255.64,-766.02"/>
</g>
<!-- glibc -->
<g id="node4" class="node">
<title>glibc</title>
<ellipse fill="green" stroke="green" cx="246.14" cy="-162" rx="28.7" ry="18"/>
<text text-anchor="middle" x="246.14" y="-158.3" font-family="Times,serif" font-size="14.00">glibc</text>
</g>
<!-- zlib&#45;&gt;glibc -->
<g id="edge3" class="edge">
<title>zlib&#45;&gt;glibc</title>
<path fill="none" stroke="#8b4513" d="M191.81,-648.15C183.94,-621.75 170.14,-568.92 170.14,-523 170.14,-523 170.14,-523 170.14,-305 170.14,-258.12 202.74,-211.74 225.24,-185.31"/>
<polygon fill="#8b4513" stroke="#8b4513" points="227.89,-187.6 231.85,-177.77 222.62,-182.98 227.89,-187.6"/>
</g>
<!-- linux&#45;api&#45;headers&gt;=4.10 -->
<g id="node5" class="node">
<title>linux&#45;api&#45;headers&gt;=4.10</title>
<ellipse fill="green" stroke="green" cx="98.14" cy="-90" rx="98.28" ry="18"/>
<text text-anchor="middle" x="98.14" y="-86.3" font-family="Times,serif" font-size="14.00">linux&#45;api&#45;headers&gt;=4.10</text>
</g>
<!-- glibc&#45;&gt;linux&#45;api&#45;headers&gt;=4.10 -->
<g id="edge4" class="edge">
<title>glibc&#45;&gt;linux&#45;api&#45;headers&gt;=4.10</title>
<path fill="none" stroke="#8b4513" d="M223.98,-150.52C202.2,-140.22 168.37,-124.22 141.27,-111.4"/>
<polygon fill="#8b4513" stroke="#8b4513" points="142.53,-108.12 132,-107.01 139.54,-114.45 142.53,-108.12"/>
</g>
<!-- tzdata -->
<g id="node7" class="node">
<title>tzdata</title>
<ellipse fill="green" stroke="green" cx="246.14" cy="-90" rx="31.7" ry="18"/>
<text text-anchor="middle" x="246.14" y="-86.3" font-family="Times,serif" font-size="14.00">tzdata</text>
</g>
<!-- glibc&#45;&gt;tzdata -->
<g id="edge6" class="edge">
<title>glibc&#45;&gt;tzdata</title>
<path fill="none" stroke="#8b4513" d="M246.14,-143.7C246.14,-135.98 246.14,-126.71 246.14,-118.11"/>
<polygon fill="#8b4513" stroke="#8b4513" points="249.64,-118.1 246.14,-108.1 242.64,-118.1 249.64,-118.1"/>
</g>
<!-- filesystem -->
<g id="node8" class="node">
<title>filesystem</title>
<ellipse fill="green" stroke="green" cx="343.14" cy="-90" rx="46.59" ry="18"/>
<text text-anchor="middle" x="343.14" y="-86.3" font-family="Times,serif" font-size="14.00">filesystem</text>
</g>
<!-- glibc&#45;&gt;filesystem -->
<g id="edge7" class="edge">
<title>glibc&#45;&gt;filesystem</title>
<path fill="none" stroke="#8b4513" d="M264.39,-147.83C278.19,-137.88 297.42,-123.99 313.43,-112.44"/>
<polygon fill="#8b4513" stroke="#8b4513" points="315.88,-114.99 321.94,-106.3 311.78,-109.31 315.88,-114.99"/>
</g>
<!-- linux&#45;api&#45;headers -->
<g id="node6" class="node">
<title>linux&#45;api&#45;headers</title>
<ellipse fill="green" stroke="green" cx="98.14" cy="-18" rx="71.49" ry="18"/>
<text text-anchor="middle" x="98.14" y="-14.3" font-family="Times,serif" font-size="14.00">linux&#45;api&#45;headers</text>
</g>
<!-- linux&#45;api&#45;headers&gt;=4.10&#45;&gt;linux&#45;api&#45;headers -->
<g id="edge5" class="edge">
<title>linux&#45;api&#45;headers&gt;=4.10&#45;&gt;linux&#45;api&#45;headers</title>
<path fill="none" stroke="grey" d="M98.14,-71.7C98.14,-60.85 98.14,-46.92 98.14,-36.1"/>
</g>
<!-- iana&#45;etc -->
<g id="node9" class="node">
<title>iana&#45;etc</title>
<ellipse fill="green" stroke="green" cx="343.14" cy="-18" rx="38.19" ry="18"/>
<text text-anchor="middle" x="343.14" y="-14.3" font-family="Times,serif" font-size="14.00">iana&#45;etc</text>
</g>
<!-- filesystem&#45;&gt;iana&#45;etc -->
<g id="edge8" class="edge">
<title>filesystem&#45;&gt;iana&#45;etc</title>
<path fill="none" stroke="#8b4513" d="M343.14,-71.7C343.14,-63.98 343.14,-54.71 343.14,-46.11"/>
<polygon fill="#8b4513" stroke="#8b4513" points="346.64,-46.1 343.14,-36.1 339.64,-46.1 346.64,-46.1"/>
</g>
<!-- bash -->
<g id="node11" class="node">
<title>bash</title>
<ellipse fill="green" stroke="green" cx="283.14" cy="-666" rx="27" ry="18"/>
<text text-anchor="middle" x="283.14" y="-662.3" font-family="Times,serif" font-size="14.00">bash</text>
</g>
<!-- sh&#45;&gt;bash -->
<g id="edge10" class="edge">
<title>sh&#45;&gt;bash</title>
<path fill="none" stroke="grey" d="M268.74,-720.05C271.73,-709.05 275.61,-694.76 278.58,-683.79"/>
</g>
<!-- bash&#45;&gt;glibc -->
<g id="edge21" class="edge">
<title>bash&#45;&gt;glibc</title>
<path fill="none" stroke="#8b4513" d="M264.99,-652.49C252.43,-642.86 236.38,-628.46 227.14,-612 207.34,-576.73 208.14,-563.45 208.14,-523 208.14,-523 208.14,-523 208.14,-305 208.14,-263.41 223.54,-217.22 234.74,-189.14"/>
<polygon fill="#8b4513" stroke="#8b4513" points="238.07,-190.24 238.63,-179.66 231.59,-187.58 238.07,-190.24"/>
</g>
<!-- readline&gt;=7.0 -->
<g id="node12" class="node">
<title>readline&gt;=7.0</title>
<ellipse fill="green" stroke="green" cx="297.14" cy="-594" rx="61.19" ry="18"/>
<text text-anchor="middle" x="297.14" y="-590.3" font-family="Times,serif" font-size="14.00">readline&gt;=7.0</text>
</g>
<!-- bash&#45;&gt;readline&gt;=7.0 -->
<g id="edge11" class="edge">
<title>bash&#45;&gt;readline&gt;=7.0</title>
<path fill="none" stroke="#8b4513" d="M286.53,-648.05C288.07,-640.35 289.94,-631.03 291.67,-622.36"/>
<polygon fill="#8b4513" stroke="#8b4513" points="295.16,-622.77 293.69,-612.28 288.29,-621.39 295.16,-622.77"/>
</g>
<!-- ncurses -->
<g id="node14" class="node">
<title>ncurses</title>
<ellipse fill="green" stroke="green" cx="367.14" cy="-378" rx="37.09" ry="18"/>
<text text-anchor="middle" x="367.14" y="-374.3" font-family="Times,serif" font-size="14.00">ncurses</text>
</g>
<!-- bash&#45;&gt;ncurses -->
<g id="edge22" class="edge">
<title>bash&#45;&gt;ncurses</title>
<path fill="none" stroke="#8b4513" d="M303.51,-654.18C348.5,-628.89 455.07,-560.92 489.14,-468 494.65,-452.98 497.92,-445.38 489.14,-432 472.17,-406.12 439.52,-392.81 412.27,-386"/>
<polygon fill="#8b4513" stroke="#8b4513" points="413.04,-382.59 402.51,-383.78 411.48,-389.41 413.04,-382.59"/>
</g>
<!-- readline -->
<g id="node13" class="node">
<title>readline</title>
<ellipse fill="green" stroke="green" cx="290.14" cy="-522" rx="38.99" ry="18"/>
<text text-anchor="middle" x="290.14" y="-518.3" font-family="Times,serif" font-size="14.00">readline</text>
</g>
<!-- readline&gt;=7.0&#45;&gt;readline -->
<g id="edge12" class="edge">
<title>readline&gt;=7.0&#45;&gt;readline</title>
<path fill="none" stroke="grey" d="M295.41,-575.7C294.33,-564.85 292.93,-550.92 291.85,-540.1"/>
</g>
<!-- readline&#45;&gt;glibc -->
<g id="edge13" class="edge">
<title>readline&#45;&gt;glibc</title>
<path fill="none" stroke="#8b4513" d="M281.24,-504.04C268.38,-477.93 246.14,-425.97 246.14,-379 246.14,-379 246.14,-379 246.14,-305 246.14,-265 246.14,-218.65 246.14,-190.08"/>
<polygon fill="#8b4513" stroke="#8b4513" points="249.64,-190.05 246.14,-180.05 242.64,-190.05 249.64,-190.05"/>
</g>
<!-- readline&#45;&gt;ncurses -->
<g id="edge14" class="edge">
<title>readline&#45;&gt;ncurses</title>
<path fill="none" stroke="#8b4513" d="M289.12,-503.77C288.77,-484.94 290.52,-454.46 303.14,-432 310.76,-418.44 323.32,-406.9 335.3,-398.08"/>
<polygon fill="#8b4513" stroke="#8b4513" points="337.62,-400.73 343.84,-392.16 333.63,-394.98 337.62,-400.73"/>
</g>
<!-- libncursesw.so=6&#45;64 -->
<g id="node17" class="node">
<title>libncursesw.so=6&#45;64</title>
<ellipse fill="green" stroke="green" cx="396.14" cy="-450" rx="83.69" ry="18"/>
<text text-anchor="middle" x="396.14" y="-446.3" font-family="Times,serif" font-size="14.00">libncursesw.so=6&#45;64</text>
</g>
<!-- readline&#45;&gt;libncursesw.so=6&#45;64 -->
<g id="edge19" class="edge">
<title>readline&#45;&gt;libncursesw.so=6&#45;64</title>
<path fill="none" stroke="#8b4513" d="M311.59,-506.83C326.33,-497.1 346.17,-484 362.94,-472.93"/>
<polygon fill="#8b4513" stroke="#8b4513" points="364.96,-475.79 371.38,-467.35 361.1,-469.94 364.96,-475.79"/>
</g>
<!-- ncurses&#45;&gt;glibc -->
<g id="edge15" class="edge">
<title>ncurses&#45;&gt;glibc</title>
<path fill="none" stroke="#8b4513" d="M350.99,-361.31C341.23,-351.26 329.01,-337.6 320.14,-324 291.32,-279.83 267.91,-222.61 255.59,-189.63"/>
<polygon fill="#8b4513" stroke="#8b4513" points="258.73,-188.01 251.99,-179.83 252.15,-190.42 258.73,-188.01"/>
</g>
<!-- gcc&#45;libs -->
<g id="node15" class="node">
<title>gcc&#45;libs</title>
<ellipse fill="green" stroke="green" cx="367.14" cy="-306" rx="38.19" ry="18"/>
<text text-anchor="middle" x="367.14" y="-302.3" font-family="Times,serif" font-size="14.00">gcc&#45;libs</text>
</g>
<!-- ncurses&#45;&gt;gcc&#45;libs -->
<g id="edge16" class="edge">
<title>ncurses&#45;&gt;gcc&#45;libs</title>
<path fill="none" stroke="#8b4513" d="M367.14,-359.7C367.14,-351.98 367.14,-342.71 367.14,-334.11"/>
<polygon fill="#8b4513" stroke="#8b4513" points="370.64,-334.1 367.14,-324.1 363.64,-334.1 370.64,-334.1"/>
</g>
<!-- glibc&gt;=2.27 -->
<g id="node16" class="node">
<title>glibc&gt;=2.27</title>
<ellipse fill="green" stroke="green" cx="367.14" cy="-234" rx="54.69" ry="18"/>
<text text-anchor="middle" x="367.14" y="-230.3" font-family="Times,serif" font-size="14.00">glibc&gt;=2.27</text>
</g>
<!-- gcc&#45;libs&#45;&gt;glibc&gt;=2.27 -->
<g id="edge17" class="edge">
<title>gcc&#45;libs&#45;&gt;glibc&gt;=2.27</title>
<path fill="none" stroke="#8b4513" d="M367.14,-287.7C367.14,-279.98 367.14,-270.71 367.14,-262.11"/>
<polygon fill="#8b4513" stroke="#8b4513" points="370.64,-262.1 367.14,-252.1 363.64,-262.1 370.64,-262.1"/>
</g>
<!-- glibc&gt;=2.27&#45;&gt;glibc -->
<g id="edge18" class="edge">
<title>glibc&gt;=2.27&#45;&gt;glibc</title>
<path fill="none" stroke="grey" d="M341.18,-217.98C318.82,-205.05 287,-186.64 266.45,-174.75"/>
</g>
<!-- libncursesw.so=6&#45;64&#45;&gt;ncurses -->
<g id="edge20" class="edge">
<title>libncursesw.so=6&#45;64&#45;&gt;ncurses</title>
<path fill="none" stroke="grey" d="M389.12,-432.05C384.56,-421.05 378.64,-406.76 374.1,-395.79"/>
</g>
</g>
</svg>
