<?xml version="1.0" encoding="UTF-8" standalone="no"?>
<!DOCTYPE svg PUBLIC "-//W3C//DTD SVG 1.1//EN"
 "http://www.w3.org/Graphics/SVG/1.1/DTD/svg11.dtd">
<!-- Generated by graphviz version 2.44.0 (0)
 -->
<!-- Title: G Pages: 1 -->
<svg width="989pt" height="1628pt"
 viewBox="0.00 0.00 989.04 1628.00" xmlns="http://www.w3.org/2000/svg" xmlns:xlink="http://www.w3.org/1999/xlink">
<g id="graph0" class="graph" transform="scale(1 1) rotate(0) translate(4 1624)">
<title>G</title>
<polygon fill="white" stroke="transparent" points="-4,4 -4,-1624 985.04,-1624 985.04,4 -4,4"/>
<!-- START -->
<g id="node1" class="node">
<title>START</title>
<ellipse fill="red" stroke="red" cx="119" cy="-1602" rx="38.19" ry="18"/>
<text text-anchor="middle" x="119" y="-1598.3" font-family="Times,serif" font-size="14.00">START</text>
</g>
<!-- libpcap -->
<g id="node2" class="node">
<title>libpcap</title>
<ellipse fill="green" stroke="green" cx="119" cy="-1530" rx="36.29" ry="18"/>
<text text-anchor="middle" x="119" y="-1526.3" font-family="Times,serif" font-size="14.00">libpcap</text>
</g>
<!-- START&#45;&gt;libpcap -->
<g id="edge1" class="edge">
<title>START&#45;&gt;libpcap</title>
<path fill="none" stroke="black" d="M119,-1583.7C119,-1575.98 119,-1566.71 119,-1558.11"/>
<polygon fill="black" stroke="black" points="122.5,-1558.1 119,-1548.1 115.5,-1558.1 122.5,-1558.1"/>
</g>
<!-- glibc -->
<g id="node3" class="node">
<title>glibc</title>
<ellipse fill="green" stroke="green" cx="370" cy="-162" rx="28.7" ry="18"/>
<text text-anchor="middle" x="370" y="-158.3" font-family="Times,serif" font-size="14.00">glibc</text>
</g>
<!-- libpcap&#45;&gt;glibc -->
<g id="edge2" class="edge">
<title>libpcap&#45;&gt;glibc</title>
<path fill="none" stroke="#8b4513" d="M96.34,-1515.84C61.81,-1493.91 0,-1446.34 0,-1387 0,-1387 0,-1387 0,-305 0,-256.79 21.32,-241.87 62,-216 106.19,-187.9 258.82,-172.05 331.26,-165.94"/>
<polygon fill="#8b4513" stroke="#8b4513" points="331.66,-169.42 341.34,-165.11 331.09,-162.45 331.66,-169.42"/>
</g>
<!-- libnl -->
<g id="node9" class="node">
<title>libnl</title>
<ellipse fill="green" stroke="green" cx="55" cy="-1314" rx="27" ry="18"/>
<text text-anchor="middle" x="55" y="-1310.3" font-family="Times,serif" font-size="14.00">libnl</text>
</g>
<!-- libpcap&#45;&gt;libnl -->
<g id="edge8" class="edge">
<title>libpcap&#45;&gt;libnl</title>
<path fill="none" stroke="#8b4513" d="M102.03,-1514.02C92.13,-1504.24 80.36,-1490.61 74,-1476 54.92,-1432.18 52.79,-1375.66 53.52,-1342.56"/>
<polygon fill="#8b4513" stroke="#8b4513" points="57.03,-1342.4 53.86,-1332.29 50.03,-1342.17 57.03,-1342.4"/>
</g>
<!-- sh -->
<g id="node10" class="node">
<title>sh</title>
<ellipse fill="green" stroke="green" cx="646" cy="-738" rx="27" ry="18"/>
<text text-anchor="middle" x="646" y="-734.3" font-family="Times,serif" font-size="14.00">sh</text>
</g>
<!-- libpcap&#45;&gt;sh -->
<g id="edge10" class="edge">
<title>libpcap&#45;&gt;sh</title>
<path fill="none" stroke="#8b4513" d="M155.7,-1528.86C292.78,-1527.37 767,-1513.11 767,-1387 767,-1387 767,-1387 767,-881 767,-824.27 710.36,-778.69 674.58,-755.57"/>
<polygon fill="#8b4513" stroke="#8b4513" points="676.31,-752.52 665.98,-750.18 672.6,-758.45 676.31,-752.52"/>
</g>
<!-- libusbx -->
<g id="node18" class="node">
<title>libusbx</title>
<ellipse fill="green" stroke="green" cx="119" cy="-1458" rx="36.29" ry="18"/>
<text text-anchor="middle" x="119" y="-1454.3" font-family="Times,serif" font-size="14.00">libusbx</text>
</g>
<!-- libpcap&#45;&gt;libusbx -->
<g id="edge24" class="edge">
<title>libpcap&#45;&gt;libusbx</title>
<path fill="none" stroke="#8b4513" d="M119,-1511.7C119,-1503.98 119,-1494.71 119,-1486.11"/>
<polygon fill="#8b4513" stroke="#8b4513" points="122.5,-1486.1 119,-1476.1 115.5,-1486.1 122.5,-1486.1"/>
</g>
<!-- dbus -->
<g id="node27" class="node">
<title>dbus</title>
<ellipse fill="green" stroke="green" cx="313" cy="-1458" rx="27.1" ry="18"/>
<text text-anchor="middle" x="313" y="-1454.3" font-family="Times,serif" font-size="14.00">dbus</text>
</g>
<!-- libpcap&#45;&gt;dbus -->
<g id="edge41" class="edge">
<title>libpcap&#45;&gt;dbus</title>
<path fill="none" stroke="#8b4513" d="M147.63,-1518.67C182.79,-1505.98 242.35,-1484.49 279.58,-1471.06"/>
<polygon fill="#8b4513" stroke="#8b4513" points="281.23,-1474.19 289.45,-1467.5 278.85,-1467.6 281.23,-1474.19"/>
</g>
<!-- linux&#45;api&#45;headers&gt;=4.10 -->
<g id="node4" class="node">
<title>linux&#45;api&#45;headers&gt;=4.10</title>
<ellipse fill="green" stroke="green" cx="222" cy="-90" rx="98.28" ry="18"/>
<text text-anchor="middle" x="222" y="-86.3" font-family="Times,serif" font-size="14.00">linux&#45;api&#45;headers&gt;=4.10</text>
</g>
<!-- glibc&#45;&gt;linux&#45;api&#45;headers&gt;=4.10 -->
<g id="edge3" class="edge">
<title>glibc&#45;&gt;linux&#45;api&#45;headers&gt;=4.10</title>
<path fill="none" stroke="#8b4513" d="M347.84,-150.52C326.06,-140.22 292.23,-124.22 265.13,-111.4"/>
<polygon fill="#8b4513" stroke="#8b4513" points="266.39,-108.12 255.85,-107.01 263.4,-114.45 266.39,-108.12"/>
</g>
<!-- tzdata -->
<g id="node6" class="node">
<title>tzdata</title>
<ellipse fill="green" stroke="green" cx="370" cy="-90" rx="31.7" ry="18"/>
<text text-anchor="middle" x="370" y="-86.3" font-family="Times,serif" font-size="14.00">tzdata</text>
</g>
<!-- glibc&#45;&gt;tzdata -->
<g id="edge5" class="edge">
<title>glibc&#45;&gt;tzdata</title>
<path fill="none" stroke="#8b4513" d="M370,-143.7C370,-135.98 370,-126.71 370,-118.11"/>
<polygon fill="#8b4513" stroke="#8b4513" points="373.5,-118.1 370,-108.1 366.5,-118.1 373.5,-118.1"/>
</g>
<!-- filesystem -->
<g id="node7" class="node">
<title>filesystem</title>
<ellipse fill="green" stroke="green" cx="467" cy="-90" rx="46.59" ry="18"/>
<text text-anchor="middle" x="467" y="-86.3" font-family="Times,serif" font-size="14.00">filesystem</text>
</g>
<!-- glibc&#45;&gt;filesystem -->
<g id="edge6" class="edge">
<title>glibc&#45;&gt;filesystem</title>
<path fill="none" stroke="#8b4513" d="M388.24,-147.83C402.04,-137.88 421.28,-123.99 437.29,-112.44"/>
<polygon fill="#8b4513" stroke="#8b4513" points="439.74,-114.99 445.8,-106.3 435.64,-109.31 439.74,-114.99"/>
</g>
<!-- linux&#45;api&#45;headers -->
<g id="node5" class="node">
<title>linux&#45;api&#45;headers</title>
<ellipse fill="green" stroke="green" cx="222" cy="-18" rx="71.49" ry="18"/>
<text text-anchor="middle" x="222" y="-14.3" font-family="Times,serif" font-size="14.00">linux&#45;api&#45;headers</text>
</g>
<!-- linux&#45;api&#45;headers&gt;=4.10&#45;&gt;linux&#45;api&#45;headers -->
<g id="edge4" class="edge">
<title>linux&#45;api&#45;headers&gt;=4.10&#45;&gt;linux&#45;api&#45;headers</title>
<path fill="none" stroke="grey" d="M222,-71.7C222,-60.85 222,-46.92 222,-36.1"/>
</g>
<!-- iana&#45;etc -->
<g id="node8" class="node">
<title>iana&#45;etc</title>
<ellipse fill="green" stroke="green" cx="467" cy="-18" rx="38.19" ry="18"/>
<text text-anchor="middle" x="467" y="-14.3" font-family="Times,serif" font-size="14.00">iana&#45;etc</text>
</g>
<!-- filesystem&#45;&gt;iana&#45;etc -->
<g id="edge7" class="edge">
<title>filesystem&#45;&gt;iana&#45;etc</title>
<path fill="none" stroke="#8b4513" d="M467,-71.7C467,-63.98 467,-54.71 467,-46.11"/>
<polygon fill="#8b4513" stroke="#8b4513" points="470.5,-46.1 467,-36.1 463.5,-46.1 470.5,-46.1"/>
</g>
<!-- libnl&#45;&gt;glibc -->
<g id="edge9" class="edge">
<title>libnl&#45;&gt;glibc</title>
<path fill="none" stroke="#8b4513" d="M53.62,-1295.96C51.58,-1269.32 48,-1216.17 48,-1171 48,-1171 48,-1171 48,-305 48,-182.57 245.3,-164.8 331.02,-162.86"/>
<polygon fill="#8b4513" stroke="#8b4513" points="331.2,-166.36 341.14,-162.69 331.08,-159.36 331.2,-166.36"/>
</g>
<!-- bash -->
<g id="node11" class="node">
<title>bash</title>
<ellipse fill="green" stroke="green" cx="688" cy="-666" rx="27" ry="18"/>
<text text-anchor="middle" x="688" y="-662.3" font-family="Times,serif" font-size="14.00">bash</text>
</g>
<!-- sh&#45;&gt;bash -->
<g id="edge11" class="edge">
<title>sh&#45;&gt;bash</title>
<path fill="none" stroke="grey" d="M655.53,-721.12C662.31,-709.82 671.38,-694.7 678.22,-683.31"/>
</g>
<!-- bash&#45;&gt;glibc -->
<g id="edge22" class="edge">
<title>bash&#45;&gt;glibc</title>
<path fill="none" stroke="#8b4513" d="M698.6,-649.05C728.47,-601.98 807.7,-460.61 754,-360 683.62,-228.15 489.78,-182.17 407.61,-168.29"/>
<polygon fill="#8b4513" stroke="#8b4513" points="408.13,-164.83 397.7,-166.68 407.01,-171.74 408.13,-164.83"/>
</g>
<!-- readline&gt;=7.0 -->
<g id="node12" class="node">
<title>readline&gt;=7.0</title>
<ellipse fill="green" stroke="green" cx="631" cy="-594" rx="61.19" ry="18"/>
<text text-anchor="middle" x="631" y="-590.3" font-family="Times,serif" font-size="14.00">readline&gt;=7.0</text>
</g>
<!-- bash&#45;&gt;readline&gt;=7.0 -->
<g id="edge12" class="edge">
<title>bash&#45;&gt;readline&gt;=7.0</title>
<path fill="none" stroke="#8b4513" d="M675.63,-649.81C668.4,-640.93 659.1,-629.5 650.86,-619.39"/>
<polygon fill="#8b4513" stroke="#8b4513" points="653.57,-617.17 644.54,-611.63 648.14,-621.59 653.57,-617.17"/>
</g>
<!-- ncurses -->
<g id="node14" class="node">
<title>ncurses</title>
<ellipse fill="green" stroke="green" cx="708" cy="-378" rx="37.09" ry="18"/>
<text text-anchor="middle" x="708" y="-374.3" font-family="Times,serif" font-size="14.00">ncurses</text>
</g>
<!-- bash&#45;&gt;ncurses -->
<g id="edge23" class="edge">
<title>bash&#45;&gt;ncurses</title>
<path fill="none" stroke="#8b4513" d="M693.03,-647.97C695.86,-637.66 699.18,-624.18 701,-612 712,-538.2 710.79,-449.84 709.25,-406.18"/>
<polygon fill="#8b4513" stroke="#8b4513" points="712.74,-405.94 708.86,-396.08 705.75,-406.21 712.74,-405.94"/>
</g>
<!-- readline -->
<g id="node13" class="node">
<title>readline</title>
<ellipse fill="green" stroke="green" cx="614" cy="-522" rx="38.99" ry="18"/>
<text text-anchor="middle" x="614" y="-518.3" font-family="Times,serif" font-size="14.00">readline</text>
</g>
<!-- readline&gt;=7.0&#45;&gt;readline -->
<g id="edge13" class="edge">
<title>readline&gt;=7.0&#45;&gt;readline</title>
<path fill="none" stroke="grey" d="M626.8,-575.7C624.16,-564.85 620.78,-550.92 618.15,-540.1"/>
</g>
<!-- readline&#45;&gt;glibc -->
<g id="edge14" class="edge">
<title>readline&#45;&gt;glibc</title>
<path fill="none" stroke="#8b4513" d="M579.79,-513.31C554.78,-505.9 522.04,-492.14 503,-468 477.95,-436.24 484,-419.45 484,-379 484,-379 484,-379 484,-305 484,-264.03 484.83,-248.59 460,-216 445.81,-197.37 423.02,-184.04 403.93,-175.42"/>
<polygon fill="#8b4513" stroke="#8b4513" points="405.2,-172.15 394.63,-171.44 402.45,-178.59 405.2,-172.15"/>
</g>
<!-- readline&#45;&gt;ncurses -->
<g id="edge15" class="edge">
<title>readline&#45;&gt;ncurses</title>
<path fill="none" stroke="#8b4513" d="M640.49,-508.71C656.94,-499.73 677.15,-485.97 689,-468 701.07,-449.7 705.64,-425.09 707.29,-406.38"/>
<polygon fill="#8b4513" stroke="#8b4513" points="710.8,-406.35 707.96,-396.15 703.81,-405.9 710.8,-406.35"/>
</g>
<!-- libncursesw.so=6&#45;64 -->
<g id="node17" class="node">
<title>libncursesw.so=6&#45;64</title>
<ellipse fill="green" stroke="green" cx="596" cy="-450" rx="83.69" ry="18"/>
<text text-anchor="middle" x="596" y="-446.3" font-family="Times,serif" font-size="14.00">libncursesw.so=6&#45;64</text>
</g>
<!-- readline&#45;&gt;libncursesw.so=6&#45;64 -->
<g id="edge20" class="edge">
<title>readline&#45;&gt;libncursesw.so=6&#45;64</title>
<path fill="none" stroke="#8b4513" d="M609.64,-504.05C607.64,-496.26 605.21,-486.82 602.96,-478.08"/>
<polygon fill="#8b4513" stroke="#8b4513" points="606.32,-477.09 600.44,-468.28 599.54,-478.83 606.32,-477.09"/>
</g>
<!-- ncurses&#45;&gt;glibc -->
<g id="edge16" class="edge">
<title>ncurses&#45;&gt;glibc</title>
<path fill="none" stroke="#8b4513" d="M691.39,-361.79C657.24,-331.11 575.79,-260.89 498,-216 467.89,-198.63 430.98,-183.98 404.54,-174.51"/>
<polygon fill="#8b4513" stroke="#8b4513" points="405.55,-171.16 394.96,-171.14 403.23,-177.76 405.55,-171.16"/>
</g>
<!-- gcc&#45;libs -->
<g id="node15" class="node">
<title>gcc&#45;libs</title>
<ellipse fill="green" stroke="green" cx="819" cy="-306" rx="38.19" ry="18"/>
<text text-anchor="middle" x="819" y="-302.3" font-family="Times,serif" font-size="14.00">gcc&#45;libs</text>
</g>
<!-- ncurses&#45;&gt;gcc&#45;libs -->
<g id="edge17" class="edge">
<title>ncurses&#45;&gt;gcc&#45;libs</title>
<path fill="none" stroke="#8b4513" d="M729.67,-363.34C746.44,-352.76 769.89,-337.97 788.55,-326.2"/>
<polygon fill="#8b4513" stroke="#8b4513" points="790.42,-329.16 797.01,-320.87 786.68,-323.24 790.42,-329.16"/>
</g>
<!-- glibc&gt;=2.27 -->
<g id="node16" class="node">
<title>glibc&gt;=2.27</title>
<ellipse fill="green" stroke="green" cx="819" cy="-234" rx="54.69" ry="18"/>
<text text-anchor="middle" x="819" y="-230.3" font-family="Times,serif" font-size="14.00">glibc&gt;=2.27</text>
</g>
<!-- gcc&#45;libs&#45;&gt;glibc&gt;=2.27 -->
<g id="edge18" class="edge">
<title>gcc&#45;libs&#45;&gt;glibc&gt;=2.27</title>
<path fill="none" stroke="#8b4513" d="M819,-287.7C819,-279.98 819,-270.71 819,-262.11"/>
<polygon fill="#8b4513" stroke="#8b4513" points="822.5,-262.1 819,-252.1 815.5,-262.1 822.5,-262.1"/>
</g>
<!-- glibc&gt;=2.27&#45;&gt;glibc -->
<g id="edge19" class="edge">
<title>glibc&gt;=2.27&#45;&gt;glibc</title>
<path fill="none" stroke="grey" d="M777.56,-222.06C768.51,-219.87 758.97,-217.72 750,-216 619.5,-190.89 461.62,-172.73 398.29,-165.94"/>
</g>
<!-- libncursesw.so=6&#45;64&#45;&gt;ncurses -->
<g id="edge21" class="edge">
<title>libncursesw.so=6&#45;64&#45;&gt;ncurses</title>
<path fill="none" stroke="grey" d="M621.98,-432.76C641.36,-420.65 667.56,-404.27 685.94,-392.79"/>
</g>
<!-- libusb -->
<g id="node19" class="node">
<title>libusb</title>
<ellipse fill="green" stroke="green" cx="108" cy="-1026" rx="32.49" ry="18"/>
<text text-anchor="middle" x="108" y="-1022.3" font-family="Times,serif" font-size="14.00">libusb</text>
</g>
<!-- libusbx&#45;&gt;libusb -->
<g id="edge25" class="edge">
<title>libusbx&#45;&gt;libusb</title>
<path fill="none" stroke="grey" d="M117.22,-1439.97C114.6,-1413.34 110,-1360.21 110,-1315 110,-1315 110,-1315 110,-1169 110,-1123.88 108.98,-1070.71 108.4,-1044.05"/>
</g>
<!-- libusb&#45;&gt;glibc -->
<g id="edge26" class="edge">
<title>libusb&#45;&gt;glibc</title>
<path fill="none" stroke="#8b4513" d="M108,-1007.95C108,-981.29 108,-928.11 108,-883 108,-883 108,-883 108,-305 108,-264.03 102.4,-244.32 132,-216 160.28,-188.95 271.86,-173.32 331.66,-166.73"/>
<polygon fill="#8b4513" stroke="#8b4513" points="332.28,-170.19 341.85,-165.64 331.53,-163.23 332.28,-170.19"/>
</g>
<!-- systemd&#45;libs -->
<g id="node20" class="node">
<title>systemd&#45;libs</title>
<ellipse fill="green" stroke="green" cx="259" cy="-954" rx="55.79" ry="18"/>
<text text-anchor="middle" x="259" y="-950.3" font-family="Times,serif" font-size="14.00">systemd&#45;libs</text>
</g>
<!-- libusb&#45;&gt;systemd&#45;libs -->
<g id="edge27" class="edge">
<title>libusb&#45;&gt;systemd&#45;libs</title>
<path fill="none" stroke="#8b4513" d="M132.26,-1013.75C155.68,-1002.9 191.54,-986.27 219.15,-973.47"/>
<polygon fill="#8b4513" stroke="#8b4513" points="220.94,-976.5 228.54,-969.12 218,-970.15 220.94,-976.5"/>
</g>
<!-- systemd&#45;libs&#45;&gt;glibc -->
<g id="edge28" class="edge">
<title>systemd&#45;libs&#45;&gt;glibc</title>
<path fill="none" stroke="#8b4513" d="M243.46,-936.57C221.49,-911.55 184,-861.46 184,-811 184,-811 184,-811 184,-305 184,-264.55 175.82,-245.95 203,-216 235.79,-179.86 293.06,-168.2 331.26,-164.54"/>
<polygon fill="#8b4513" stroke="#8b4513" points="331.81,-168 341.49,-163.7 331.24,-161.03 331.81,-168"/>
</g>
<!-- libcap -->
<g id="node21" class="node">
<title>libcap</title>
<ellipse fill="green" stroke="green" cx="244" cy="-306" rx="32.49" ry="18"/>
<text text-anchor="middle" x="244" y="-302.3" font-family="Times,serif" font-size="14.00">libcap</text>
</g>
<!-- systemd&#45;libs&#45;&gt;libcap -->
<g id="edge29" class="edge">
<title>systemd&#45;libs&#45;&gt;libcap</title>
<path fill="none" stroke="#8b4513" d="M251.51,-935.89C240.7,-909.58 222,-857.37 222,-811 222,-811 222,-811 222,-449 222,-408.52 230.84,-362.3 237.31,-333.89"/>
<polygon fill="#8b4513" stroke="#8b4513" points="240.77,-334.45 239.65,-323.92 233.96,-332.85 240.77,-334.45"/>
</g>
<!-- libgcrypt -->
<g id="node23" class="node">
<title>libgcrypt</title>
<ellipse fill="green" stroke="green" cx="331" cy="-882" rx="42.79" ry="18"/>
<text text-anchor="middle" x="331" y="-878.3" font-family="Times,serif" font-size="14.00">libgcrypt</text>
</g>
<!-- systemd&#45;libs&#45;&gt;libgcrypt -->
<g id="edge33" class="edge">
<title>systemd&#45;libs&#45;&gt;libgcrypt</title>
<path fill="none" stroke="#8b4513" d="M275.7,-936.76C285.06,-927.66 296.89,-916.16 307.21,-906.13"/>
<polygon fill="#8b4513" stroke="#8b4513" points="309.66,-908.63 314.39,-899.15 304.78,-903.61 309.66,-908.63"/>
</g>
<!-- lz4 -->
<g id="node25" class="node">
<title>lz4</title>
<ellipse fill="green" stroke="green" cx="292" cy="-666" rx="27" ry="18"/>
<text text-anchor="middle" x="292" y="-662.3" font-family="Times,serif" font-size="14.00">lz4</text>
</g>
<!-- systemd&#45;libs&#45;&gt;lz4 -->
<g id="edge37" class="edge">
<title>systemd&#45;libs&#45;&gt;lz4</title>
<path fill="none" stroke="#8b4513" d="M260.97,-935.97C266.48,-888.19 282.12,-752.62 288.85,-694.27"/>
<polygon fill="#8b4513" stroke="#8b4513" points="292.33,-694.64 290,-684.31 285.38,-693.84 292.33,-694.64"/>
</g>
<!-- xz -->
<g id="node26" class="node">
<title>xz</title>
<ellipse fill="green" stroke="green" cx="419" cy="-882" rx="27" ry="18"/>
<text text-anchor="middle" x="419" y="-878.3" font-family="Times,serif" font-size="14.00">xz</text>
</g>
<!-- systemd&#45;libs&#45;&gt;xz -->
<g id="edge39" class="edge">
<title>systemd&#45;libs&#45;&gt;xz</title>
<path fill="none" stroke="#8b4513" d="M291.78,-939.38C316.86,-928.87 352.25,-913.83 383,-900 384.8,-899.19 386.64,-898.35 388.5,-897.5"/>
<polygon fill="#8b4513" stroke="#8b4513" points="390.15,-900.59 397.74,-893.2 387.2,-894.24 390.15,-900.59"/>
</g>
<!-- libcap&#45;&gt;glibc -->
<g id="edge30" class="edge">
<title>libcap&#45;&gt;glibc</title>
<path fill="none" stroke="#8b4513" d="M256.46,-289.24C270.87,-271.19 295.5,-240.9 318,-216 327.55,-205.43 338.54,-194.12 347.95,-184.67"/>
<polygon fill="#8b4513" stroke="#8b4513" points="350.49,-187.08 355.1,-177.54 345.55,-182.12 350.49,-187.08"/>
</g>
<!-- attr -->
<g id="node22" class="node">
<title>attr</title>
<ellipse fill="green" stroke="green" cx="239" cy="-234" rx="27" ry="18"/>
<text text-anchor="middle" x="239" y="-230.3" font-family="Times,serif" font-size="14.00">attr</text>
</g>
<!-- libcap&#45;&gt;attr -->
<g id="edge31" class="edge">
<title>libcap&#45;&gt;attr</title>
<path fill="none" stroke="#8b4513" d="M242.76,-287.7C242.21,-279.98 241.55,-270.71 240.94,-262.11"/>
<polygon fill="#8b4513" stroke="#8b4513" points="244.43,-261.83 240.22,-252.1 237.44,-262.33 244.43,-261.83"/>
</g>
<!-- attr&#45;&gt;glibc -->
<g id="edge32" class="edge">
<title>attr&#45;&gt;glibc</title>
<path fill="none" stroke="#8b4513" d="M259.47,-222.06C281.04,-210.54 315.23,-192.27 339.87,-179.1"/>
<polygon fill="#8b4513" stroke="#8b4513" points="341.64,-182.12 348.81,-174.32 338.34,-175.95 341.64,-182.12"/>
</g>
<!-- libgpg&#45;error -->
<g id="node24" class="node">
<title>libgpg&#45;error</title>
<ellipse fill="green" stroke="green" cx="353" cy="-810" rx="53.89" ry="18"/>
<text text-anchor="middle" x="353" y="-806.3" font-family="Times,serif" font-size="14.00">libgpg&#45;error</text>
</g>
<!-- libgcrypt&#45;&gt;libgpg&#45;error -->
<g id="edge34" class="edge">
<title>libgcrypt&#45;&gt;libgpg&#45;error</title>
<path fill="none" stroke="#8b4513" d="M336.33,-864.05C338.78,-856.26 341.74,-846.82 344.49,-838.08"/>
<polygon fill="#8b4513" stroke="#8b4513" points="347.91,-838.86 347.57,-828.28 341.23,-836.77 347.91,-838.86"/>
</g>
<!-- libgpg&#45;error&#45;&gt;glibc -->
<g id="edge35" class="edge">
<title>libgpg&#45;error&#45;&gt;glibc</title>
<path fill="none" stroke="#8b4513" d="M354.72,-791.94C359.05,-747.62 370,-625.22 370,-523 370,-523 370,-523 370,-305 370,-265 370,-218.65 370,-190.08"/>
<polygon fill="#8b4513" stroke="#8b4513" points="373.5,-190.05 370,-180.05 366.5,-190.05 373.5,-190.05"/>
</g>
<!-- libgpg&#45;error&#45;&gt;sh -->
<g id="edge36" class="edge">
<title>libgpg&#45;error&#45;&gt;sh</title>
<path fill="none" stroke="#8b4513" d="M394.69,-798.48C403.38,-796.32 412.49,-794.07 421,-792 487.97,-775.74 566.34,-757.45 610.68,-747.16"/>
<polygon fill="#8b4513" stroke="#8b4513" points="611.71,-750.52 620.67,-744.85 610.13,-743.7 611.71,-750.52"/>
</g>
<!-- lz4&#45;&gt;glibc -->
<g id="edge38" class="edge">
<title>lz4&#45;&gt;glibc</title>
<path fill="none" stroke="#8b4513" d="M299.9,-648.38C311.56,-622.29 332,-569.87 332,-523 332,-523 332,-523 332,-305 332,-263.41 347.4,-217.22 358.6,-189.14"/>
<polygon fill="#8b4513" stroke="#8b4513" points="361.93,-190.24 362.49,-179.66 355.45,-187.58 361.93,-190.24"/>
</g>
<!-- xz&#45;&gt;sh -->
<g id="edge40" class="edge">
<title>xz&#45;&gt;sh</title>
<path fill="none" stroke="#8b4513" d="M428.31,-864.88C440.53,-845.05 463.78,-811.62 492,-792 528.03,-766.94 576.97,-752.79 609.93,-745.53"/>
<polygon fill="#8b4513" stroke="#8b4513" points="610.97,-748.89 620.04,-743.41 609.53,-742.03 610.97,-748.89"/>
</g>
<!-- dbus&#45;&gt;systemd&#45;libs -->
<g id="edge42" class="edge">
<title>dbus&#45;&gt;systemd&#45;libs</title>
<path fill="none" stroke="#8b4513" d="M325.38,-1441.65C332.97,-1431.51 342.29,-1417.63 348,-1404 363.64,-1366.7 367,-1355.45 367,-1315 367,-1315 367,-1315 367,-1097 367,-1045.96 322.26,-1001.8 290.37,-976.8"/>
<polygon fill="#8b4513" stroke="#8b4513" points="292.25,-973.83 282.17,-970.57 288.01,-979.41 292.25,-973.83"/>
</g>
<!-- expat -->
<g id="node28" class="node">
<title>expat</title>
<ellipse fill="green" stroke="green" cx="168" cy="-1170" rx="29.8" ry="18"/>
<text text-anchor="middle" x="168" y="-1166.3" font-family="Times,serif" font-size="14.00">expat</text>
</g>
<!-- dbus&#45;&gt;expat -->
<g id="edge43" class="edge">
<title>dbus&#45;&gt;expat</title>
<path fill="none" stroke="#8b4513" d="M285.83,-1455.91C251.78,-1452.91 194.65,-1442.11 168,-1404 124.15,-1341.28 145.11,-1244.01 159.04,-1197.51"/>
<polygon fill="#8b4513" stroke="#8b4513" points="162.41,-1198.46 162.05,-1187.87 155.73,-1196.37 162.41,-1198.46"/>
</g>
<!-- audit -->
<g id="node29" class="node">
<title>audit</title>
<ellipse fill="green" stroke="green" cx="488" cy="-1314" rx="28.7" ry="18"/>
<text text-anchor="middle" x="488" y="-1310.3" font-family="Times,serif" font-size="14.00">audit</text>
</g>
<!-- dbus&#45;&gt;audit -->
<g id="edge45" class="edge">
<title>dbus&#45;&gt;audit</title>
<path fill="none" stroke="#8b4513" d="M330.18,-1443.88C344,-1433.25 363.88,-1417.83 381,-1404 400.39,-1388.34 404.85,-1383.95 424,-1368 437.06,-1357.12 451.66,-1345.03 463.6,-1335.15"/>
<polygon fill="#8b4513" stroke="#8b4513" points="465.93,-1337.77 471.4,-1328.7 461.47,-1332.38 465.93,-1337.77"/>
</g>
<!-- libsystemd.so=0&#45;64 -->
<g id="node42" class="node">
<title>libsystemd.so=0&#45;64</title>
<ellipse fill="green" stroke="green" cx="258" cy="-1386" rx="81.49" ry="18"/>
<text text-anchor="middle" x="258" y="-1382.3" font-family="Times,serif" font-size="14.00">libsystemd.so=0&#45;64</text>
</g>
<!-- dbus&#45;&gt;libsystemd.so=0&#45;64 -->
<g id="edge68" class="edge">
<title>dbus&#45;&gt;libsystemd.so=0&#45;64</title>
<path fill="none" stroke="#8b4513" d="M301.07,-1441.81C294.25,-1433.14 285.54,-1422.05 277.74,-1412.12"/>
<polygon fill="#8b4513" stroke="#8b4513" points="280.39,-1409.83 271.46,-1404.13 274.88,-1414.15 280.39,-1409.83"/>
</g>
<!-- libaudit.so=1&#45;64 -->
<g id="node43" class="node">
<title>libaudit.so=1&#45;64</title>
<ellipse fill="green" stroke="green" cx="503" cy="-1386" rx="69.59" ry="18"/>
<text text-anchor="middle" x="503" y="-1382.3" font-family="Times,serif" font-size="14.00">libaudit.so=1&#45;64</text>
</g>
<!-- dbus&#45;&gt;libaudit.so=1&#45;64 -->
<g id="edge70" class="edge">
<title>dbus&#45;&gt;libaudit.so=1&#45;64</title>
<path fill="none" stroke="#8b4513" d="M336.3,-1448.42C365.68,-1437.59 416.94,-1418.71 454.88,-1404.73"/>
<polygon fill="#8b4513" stroke="#8b4513" points="456.53,-1407.85 464.71,-1401.11 454.11,-1401.28 456.53,-1407.85"/>
</g>
<!-- expat&#45;&gt;glibc -->
<g id="edge44" class="edge">
<title>expat&#45;&gt;glibc</title>
<path fill="none" stroke="#8b4513" d="M166.2,-1151.88C160.95,-1100.39 146,-942.39 146,-811 146,-811 146,-811 146,-305 146,-262.66 148.7,-244.52 180,-216 221.89,-177.83 289.01,-166.86 331.24,-163.88"/>
<polygon fill="#8b4513" stroke="#8b4513" points="331.64,-167.36 341.41,-163.28 331.22,-160.37 331.64,-167.36"/>
</g>
<!-- krb5 -->
<g id="node30" class="node">
<title>krb5</title>
<ellipse fill="green" stroke="green" cx="556" cy="-1242" rx="27.1" ry="18"/>
<text text-anchor="middle" x="556" y="-1238.3" font-family="Times,serif" font-size="14.00">krb5</text>
</g>
<!-- audit&#45;&gt;krb5 -->
<g id="edge46" class="edge">
<title>audit&#45;&gt;krb5</title>
<path fill="none" stroke="#8b4513" d="M502.42,-1298.15C511.71,-1288.6 523.95,-1275.99 534.39,-1265.25"/>
<polygon fill="#8b4513" stroke="#8b4513" points="537.14,-1267.44 541.6,-1257.82 532.12,-1262.56 537.14,-1267.44"/>
</g>
<!-- libcap&#45;ng -->
<g id="node41" class="node">
<title>libcap&#45;ng</title>
<ellipse fill="green" stroke="green" cx="433" cy="-738" rx="44.39" ry="18"/>
<text text-anchor="middle" x="433" y="-734.3" font-family="Times,serif" font-size="14.00">libcap&#45;ng</text>
</g>
<!-- audit&#45;&gt;libcap&#45;ng -->
<g id="edge66" class="edge">
<title>audit&#45;&gt;libcap&#45;ng</title>
<path fill="none" stroke="#8b4513" d="M485.23,-1296C481.15,-1269.42 474,-1216.33 474,-1171 474,-1171 474,-1171 474,-953 474,-884.45 453.45,-805.71 441.45,-765.56"/>
<polygon fill="#8b4513" stroke="#8b4513" points="444.8,-764.53 438.53,-755.99 438.1,-766.57 444.8,-764.53"/>
</g>
<!-- e2fsprogs -->
<g id="node31" class="node">
<title>e2fsprogs</title>
<ellipse fill="green" stroke="green" cx="610" cy="-1098" rx="44.69" ry="18"/>
<text text-anchor="middle" x="610" y="-1094.3" font-family="Times,serif" font-size="14.00">e2fsprogs</text>
</g>
<!-- krb5&#45;&gt;e2fsprogs -->
<g id="edge47" class="edge">
<title>krb5&#45;&gt;e2fsprogs</title>
<path fill="none" stroke="#8b4513" d="M562.3,-1224.43C571.56,-1200.09 588.93,-1154.4 599.96,-1125.4"/>
<polygon fill="#8b4513" stroke="#8b4513" points="603.29,-1126.49 603.57,-1115.9 596.75,-1124 603.29,-1126.49"/>
</g>
<!-- libldap -->
<g id="node33" class="node">
<title>libldap</title>
<ellipse fill="green" stroke="green" cx="638" cy="-1170" rx="35.19" ry="18"/>
<text text-anchor="middle" x="638" y="-1166.3" font-family="Times,serif" font-size="14.00">libldap</text>
</g>
<!-- krb5&#45;&gt;libldap -->
<g id="edge50" class="edge">
<title>krb5&#45;&gt;libldap</title>
<path fill="none" stroke="#8b4513" d="M572.2,-1227.17C583.8,-1217.27 599.63,-1203.75 612.86,-1192.46"/>
<polygon fill="#8b4513" stroke="#8b4513" points="615.37,-1194.92 620.7,-1185.77 610.82,-1189.6 615.37,-1194.92"/>
</g>
<!-- keyutils -->
<g id="node40" class="node">
<title>keyutils</title>
<ellipse fill="green" stroke="green" cx="539" cy="-810" rx="38.19" ry="18"/>
<text text-anchor="middle" x="539" y="-806.3" font-family="Times,serif" font-size="14.00">keyutils</text>
</g>
<!-- krb5&#45;&gt;keyutils -->
<g id="edge63" class="edge">
<title>krb5&#45;&gt;keyutils</title>
<path fill="none" stroke="#8b4513" d="M552.25,-1224.05C546.71,-1197.52 537,-1144.52 537,-1099 537,-1099 537,-1099 537,-953 537,-912.99 537.8,-866.65 538.39,-838.08"/>
<polygon fill="#8b4513" stroke="#8b4513" points="541.89,-838.12 538.6,-828.05 534.89,-837.97 541.89,-838.12"/>
</g>
<!-- e2fsprogs&#45;&gt;sh -->
<g id="edge48" class="edge">
<title>e2fsprogs&#45;&gt;sh</title>
<path fill="none" stroke="#8b4513" d="M609.01,-1079.96C607.56,-1053.31 605,-1000.14 605,-955 605,-955 605,-955 605,-881 605,-839.18 621.62,-793.05 633.7,-765.05"/>
<polygon fill="#8b4513" stroke="#8b4513" points="637.03,-766.16 637.9,-755.6 630.64,-763.31 637.03,-766.16"/>
</g>
<!-- libutil&#45;linux -->
<g id="node32" class="node">
<title>libutil&#45;linux</title>
<ellipse fill="green" stroke="green" cx="686" cy="-1026" rx="52.79" ry="18"/>
<text text-anchor="middle" x="686" y="-1022.3" font-family="Times,serif" font-size="14.00">libutil&#45;linux</text>
</g>
<!-- e2fsprogs&#45;&gt;libutil&#45;linux -->
<g id="edge49" class="edge">
<title>e2fsprogs&#45;&gt;libutil&#45;linux</title>
<path fill="none" stroke="#8b4513" d="M627.25,-1081.12C637.28,-1071.87 650.1,-1060.07 661.2,-1049.84"/>
<polygon fill="#8b4513" stroke="#8b4513" points="663.58,-1052.41 668.56,-1043.06 658.83,-1047.26 663.58,-1052.41"/>
</g>
<!-- libldap&#45;&gt;e2fsprogs -->
<g id="edge62" class="edge">
<title>libldap&#45;&gt;e2fsprogs</title>
<path fill="none" stroke="#8b4513" d="M631.22,-1152.05C628.07,-1144.18 624.25,-1134.62 620.72,-1125.79"/>
<polygon fill="#8b4513" stroke="#8b4513" points="623.87,-1124.26 616.91,-1116.28 617.37,-1126.86 623.87,-1124.26"/>
</g>
<!-- libsasl -->
<g id="node34" class="node">
<title>libsasl</title>
<ellipse fill="green" stroke="green" cx="706" cy="-1098" rx="33.29" ry="18"/>
<text text-anchor="middle" x="706" y="-1094.3" font-family="Times,serif" font-size="14.00">libsasl</text>
</g>
<!-- libldap&#45;&gt;libsasl -->
<g id="edge51" class="edge">
<title>libldap&#45;&gt;libsasl</title>
<path fill="none" stroke="#8b4513" d="M653.09,-1153.46C662.16,-1144.13 673.86,-1132.09 683.95,-1121.7"/>
<polygon fill="#8b4513" stroke="#8b4513" points="686.49,-1124.1 690.95,-1114.49 681.47,-1119.23 686.49,-1124.1"/>
</g>
<!-- openssl -->
<g id="node35" class="node">
<title>openssl</title>
<ellipse fill="green" stroke="green" cx="861" cy="-1026" rx="37.09" ry="18"/>
<text text-anchor="middle" x="861" y="-1022.3" font-family="Times,serif" font-size="14.00">openssl</text>
</g>
<!-- libsasl&#45;&gt;openssl -->
<g id="edge52" class="edge">
<title>libsasl&#45;&gt;openssl</title>
<path fill="none" stroke="#8b4513" d="M730.56,-1085.91C756.1,-1074.37 796.33,-1056.21 825.36,-1043.09"/>
<polygon fill="#8b4513" stroke="#8b4513" points="827.07,-1046.16 834.74,-1038.86 824.19,-1039.78 827.07,-1046.16"/>
</g>
<!-- perl -->
<g id="node36" class="node">
<title>perl</title>
<ellipse fill="green" stroke="green" cx="877" cy="-954" rx="27" ry="18"/>
<text text-anchor="middle" x="877" y="-950.3" font-family="Times,serif" font-size="14.00">perl</text>
</g>
<!-- openssl&#45;&gt;perl -->
<g id="edge53" class="edge">
<title>openssl&#45;&gt;perl</title>
<path fill="none" stroke="#8b4513" d="M864.87,-1008.05C866.65,-1000.26 868.81,-990.82 870.81,-982.08"/>
<polygon fill="#8b4513" stroke="#8b4513" points="874.24,-982.8 873.05,-972.28 867.41,-981.24 874.24,-982.8"/>
</g>
<!-- perl&#45;&gt;glibc -->
<g id="edge61" class="edge">
<title>perl&#45;&gt;glibc</title>
<path fill="none" stroke="#8b4513" d="M900.28,-944.34C919.55,-935.96 946.1,-921.35 961,-900 984.14,-866.83 980,-851.45 980,-811 980,-811 980,-811 980,-305 980,-253.84 952.11,-240.13 907,-216 820.66,-169.82 517.27,-163.72 408.86,-163.03"/>
<polygon fill="#8b4513" stroke="#8b4513" points="408.72,-159.53 398.7,-162.98 408.68,-166.53 408.72,-159.53"/>
</g>
<!-- gdbm&gt;=1.17 -->
<g id="node37" class="node">
<title>gdbm&gt;=1.17</title>
<ellipse fill="green" stroke="green" cx="894" cy="-882" rx="57.69" ry="18"/>
<text text-anchor="middle" x="894" y="-878.3" font-family="Times,serif" font-size="14.00">gdbm&gt;=1.17</text>
</g>
<!-- perl&#45;&gt;gdbm&gt;=1.17 -->
<g id="edge54" class="edge">
<title>perl&#45;&gt;gdbm&gt;=1.17</title>
<path fill="none" stroke="#8b4513" d="M881.12,-936.05C883.01,-928.26 885.3,-918.82 887.42,-910.08"/>
<polygon fill="#8b4513" stroke="#8b4513" points="890.85,-910.82 889.8,-900.28 884.04,-909.17 890.85,-910.82"/>
</g>
<!-- db -->
<g id="node39" class="node">
<title>db</title>
<ellipse fill="green" stroke="green" cx="822" cy="-810" rx="27" ry="18"/>
<text text-anchor="middle" x="822" y="-806.3" font-family="Times,serif" font-size="14.00">db</text>
</g>
<!-- perl&#45;&gt;db -->
<g id="edge58" class="edge">
<title>perl&#45;&gt;db</title>
<path fill="none" stroke="#8b4513" d="M859.32,-939.82C847.89,-930.18 833.9,-916.04 827,-900 818.66,-880.6 817.79,-856.6 818.79,-838.41"/>
<polygon fill="#8b4513" stroke="#8b4513" points="822.3,-838.43 819.59,-828.19 815.32,-837.89 822.3,-838.43"/>
</g>
<!-- gdbm -->
<g id="node38" class="node">
<title>gdbm</title>
<ellipse fill="green" stroke="green" cx="898" cy="-810" rx="31.4" ry="18"/>
<text text-anchor="middle" x="898" y="-806.3" font-family="Times,serif" font-size="14.00">gdbm</text>
</g>
<!-- gdbm&gt;=1.17&#45;&gt;gdbm -->
<g id="edge55" class="edge">
<title>gdbm&gt;=1.17&#45;&gt;gdbm</title>
<path fill="none" stroke="grey" d="M894.99,-863.7C895.61,-852.85 896.4,-838.92 897.02,-828.1"/>
</g>
<!-- gdbm&#45;&gt;glibc -->
<g id="edge56" class="edge">
<title>gdbm&#45;&gt;glibc</title>
<path fill="none" stroke="#8b4513" d="M898.79,-791.96C899.96,-765.3 902,-712.13 902,-667 902,-667 902,-667 902,-305 902,-264.55 913.09,-243.02 883,-216 847.87,-184.45 522.31,-168.91 408.81,-164.42"/>
<polygon fill="#8b4513" stroke="#8b4513" points="408.63,-160.91 398.51,-164.01 408.36,-167.9 408.63,-160.91"/>
</g>
<!-- gdbm&#45;&gt;sh -->
<g id="edge57" class="edge">
<title>gdbm&#45;&gt;sh</title>
<path fill="none" stroke="#8b4513" d="M874.12,-798.13C868.87,-795.94 863.29,-793.77 858,-792 797.02,-771.56 723.84,-754.95 681.36,-746.06"/>
<polygon fill="#8b4513" stroke="#8b4513" points="682,-742.62 671.5,-744.02 680.58,-749.47 682,-742.62"/>
</g>
<!-- db&#45;&gt;sh -->
<g id="edge60" class="edge">
<title>db&#45;&gt;sh</title>
<path fill="none" stroke="#8b4513" d="M799.47,-799.57C793.48,-797.09 787,-794.42 781,-792 746.06,-777.9 705.85,-762.18 678.46,-751.55"/>
<polygon fill="#8b4513" stroke="#8b4513" points="679.57,-748.22 668.98,-747.87 677.04,-754.75 679.57,-748.22"/>
</g>
<!-- db&#45;&gt;gcc&#45;libs -->
<g id="edge59" class="edge">
<title>db&#45;&gt;gcc&#45;libs</title>
<path fill="none" stroke="#8b4513" d="M822,-791.95C822,-765.29 822,-712.11 822,-667 822,-667 822,-667 822,-449 822,-408.99 820.79,-362.65 819.91,-334.08"/>
<polygon fill="#8b4513" stroke="#8b4513" points="823.41,-333.93 819.59,-324.05 816.41,-334.15 823.41,-333.93"/>
</g>
<!-- keyutils&#45;&gt;glibc -->
<g id="edge64" class="edge">
<title>keyutils&#45;&gt;glibc</title>
<path fill="none" stroke="#8b4513" d="M532.61,-792.08C511.6,-734.9 446,-543.21 446,-379 446,-379 446,-379 446,-305 446,-258.12 413.4,-211.74 390.91,-185.31"/>
<polygon fill="#8b4513" stroke="#8b4513" points="393.52,-182.98 384.3,-177.77 388.26,-187.6 393.52,-182.98"/>
</g>
<!-- keyutils&#45;&gt;sh -->
<g id="edge65" class="edge">
<title>keyutils&#45;&gt;sh</title>
<path fill="none" stroke="#8b4513" d="M560.4,-795C577.17,-784.03 600.62,-768.69 618.73,-756.84"/>
<polygon fill="#8b4513" stroke="#8b4513" points="620.7,-759.74 627.15,-751.33 616.86,-753.88 620.7,-759.74"/>
</g>
<!-- libcap&#45;ng&#45;&gt;glibc -->
<g id="edge67" class="edge">
<title>libcap&#45;ng&#45;&gt;glibc</title>
<path fill="none" stroke="#8b4513" d="M427.94,-719.68C420.64,-693.11 408,-640.56 408,-595 408,-595 408,-595 408,-305 408,-263.41 392.6,-217.22 381.4,-189.14"/>
<polygon fill="#8b4513" stroke="#8b4513" points="384.55,-187.58 377.51,-179.66 378.07,-190.24 384.55,-187.58"/>
</g>
<!-- libsystemd.so=0&#45;64&#45;&gt;systemd&#45;libs -->
<g id="edge69" class="edge">
<title>libsystemd.so=0&#45;64&#45;&gt;systemd&#45;libs</title>
<path fill="none" stroke="grey" d="M258,-1367.95C258,-1341.29 258,-1288.11 258,-1243 258,-1243 258,-1243 258,-1097 258,-1051.88 258.51,-998.71 258.8,-972.05"/>
</g>
<!-- libaudit.so=1&#45;64&#45;&gt;audit -->
<g id="edge71" class="edge">
<title>libaudit.so=1&#45;64&#45;&gt;audit</title>
<path fill="none" stroke="grey" d="M499.29,-1367.7C496.97,-1356.85 493.98,-1342.92 491.67,-1332.1"/>
</g>
</g>
</svg>
