<?xml version="1.0" encoding="UTF-8" standalone="no"?>
<!DOCTYPE svg PUBLIC "-//W3C//DTD SVG 1.1//EN"
 "http://www.w3.org/Graphics/SVG/1.1/DTD/svg11.dtd">
<!-- Generated by graphviz version 2.44.0 (0)
 -->
<!-- Title: G Pages: 1 -->
<svg width="398pt" height="548pt"
 viewBox="0.00 0.00 397.94 548.00" xmlns="http://www.w3.org/2000/svg" xmlns:xlink="http://www.w3.org/1999/xlink">
<g id="graph0" class="graph" transform="scale(1 1) rotate(0) translate(4 544)">
<title>G</title>
<polygon fill="white" stroke="transparent" points="-4,4 -4,-544 393.94,-544 393.94,4 -4,4"/>
<!-- START -->
<g id="node1" class="node">
<title>START</title>
<ellipse fill="red" stroke="red" cx="198.14" cy="-522" rx="38.19" ry="18"/>
<text text-anchor="middle" x="198.14" y="-518.3" font-family="Times,serif" font-size="14.00">START</text>
</g>
<!-- libpsl -->
<g id="node2" class="node">
<title>libpsl</title>
<ellipse fill="green" stroke="green" cx="198.14" cy="-450" rx="30.59" ry="18"/>
<text text-anchor="middle" x="198.14" y="-446.3" font-family="Times,serif" font-size="14.00">libpsl</text>
</g>
<!-- START&#45;&gt;libpsl -->
<g id="edge1" class="edge">
<title>START&#45;&gt;libpsl</title>
<path fill="none" stroke="black" d="M198.14,-503.7C198.14,-495.98 198.14,-486.71 198.14,-478.11"/>
<polygon fill="black" stroke="black" points="201.64,-478.1 198.14,-468.1 194.64,-478.1 201.64,-478.1"/>
</g>
<!-- libidn2 -->
<g id="node3" class="node">
<title>libidn2</title>
<ellipse fill="green" stroke="green" cx="198.14" cy="-306" rx="36" ry="18"/>
<text text-anchor="middle" x="198.14" y="-302.3" font-family="Times,serif" font-size="14.00">libidn2</text>
</g>
<!-- libpsl&#45;&gt;libidn2 -->
<g id="edge2" class="edge">
<title>libpsl&#45;&gt;libidn2</title>
<path fill="none" stroke="#8b4513" d="M173.07,-439.32C155.02,-430.87 132.02,-416.69 121.14,-396 113.7,-381.84 113.7,-374.16 121.14,-360 129.85,-343.43 146.35,-331.03 161.84,-322.41"/>
<polygon fill="#8b4513" stroke="#8b4513" points="163.52,-325.48 170.79,-317.77 160.3,-319.27 163.52,-325.48"/>
</g>
<!-- libunistring -->
<g id="node4" class="node">
<title>libunistring</title>
<ellipse fill="green" stroke="green" cx="246.14" cy="-234" rx="51.99" ry="18"/>
<text text-anchor="middle" x="246.14" y="-230.3" font-family="Times,serif" font-size="14.00">libunistring</text>
</g>
<!-- libpsl&#45;&gt;libunistring -->
<g id="edge12" class="edge">
<title>libpsl&#45;&gt;libunistring</title>
<path fill="none" stroke="#8b4513" d="M223.22,-439.32C241.26,-430.87 264.27,-416.69 275.14,-396 297.99,-352.53 276.74,-294.32 260.54,-261.12"/>
<polygon fill="#8b4513" stroke="#8b4513" points="263.59,-259.39 255.94,-252.06 257.34,-262.56 263.59,-259.39"/>
</g>
<!-- libidn2.so=0&#45;64 -->
<g id="node11" class="node">
<title>libidn2.so=0&#45;64</title>
<ellipse fill="green" stroke="green" cx="198.14" cy="-378" rx="67.69" ry="18"/>
<text text-anchor="middle" x="198.14" y="-374.3" font-family="Times,serif" font-size="14.00">libidn2.so=0&#45;64</text>
</g>
<!-- libpsl&#45;&gt;libidn2.so=0&#45;64 -->
<g id="edge10" class="edge">
<title>libpsl&#45;&gt;libidn2.so=0&#45;64</title>
<path fill="none" stroke="#8b4513" d="M198.14,-431.7C198.14,-423.98 198.14,-414.71 198.14,-406.11"/>
<polygon fill="#8b4513" stroke="#8b4513" points="201.64,-406.1 198.14,-396.1 194.64,-406.1 201.64,-406.1"/>
</g>
<!-- libidn2&#45;&gt;libunistring -->
<g id="edge3" class="edge">
<title>libidn2&#45;&gt;libunistring</title>
<path fill="none" stroke="#8b4513" d="M209.27,-288.76C215.13,-280.23 222.43,-269.58 228.99,-260.02"/>
<polygon fill="#8b4513" stroke="#8b4513" points="231.97,-261.86 234.74,-251.63 226.19,-257.9 231.97,-261.86"/>
</g>
<!-- glibc -->
<g id="node5" class="node">
<title>glibc</title>
<ellipse fill="green" stroke="green" cx="246.14" cy="-162" rx="28.7" ry="18"/>
<text text-anchor="middle" x="246.14" y="-158.3" font-family="Times,serif" font-size="14.00">glibc</text>
</g>
<!-- libunistring&#45;&gt;glibc -->
<g id="edge4" class="edge">
<title>libunistring&#45;&gt;glibc</title>
<path fill="none" stroke="#8b4513" d="M246.14,-215.7C246.14,-207.98 246.14,-198.71 246.14,-190.11"/>
<polygon fill="#8b4513" stroke="#8b4513" points="249.64,-190.1 246.14,-180.1 242.64,-190.1 249.64,-190.1"/>
</g>
<!-- linux&#45;api&#45;headers&gt;=4.10 -->
<g id="node6" class="node">
<title>linux&#45;api&#45;headers&gt;=4.10</title>
<ellipse fill="green" stroke="green" cx="98.14" cy="-90" rx="98.28" ry="18"/>
<text text-anchor="middle" x="98.14" y="-86.3" font-family="Times,serif" font-size="14.00">linux&#45;api&#45;headers&gt;=4.10</text>
</g>
<!-- glibc&#45;&gt;linux&#45;api&#45;headers&gt;=4.10 -->
<g id="edge5" class="edge">
<title>glibc&#45;&gt;linux&#45;api&#45;headers&gt;=4.10</title>
<path fill="none" stroke="#8b4513" d="M223.98,-150.52C202.2,-140.22 168.37,-124.22 141.27,-111.4"/>
<polygon fill="#8b4513" stroke="#8b4513" points="142.53,-108.12 132,-107.01 139.54,-114.45 142.53,-108.12"/>
</g>
<!-- tzdata -->
<g id="node8" class="node">
<title>tzdata</title>
<ellipse fill="green" stroke="green" cx="246.14" cy="-90" rx="31.7" ry="18"/>
<text text-anchor="middle" x="246.14" y="-86.3" font-family="Times,serif" font-size="14.00">tzdata</text>
</g>
<!-- glibc&#45;&gt;tzdata -->
<g id="edge7" class="edge">
<title>glibc&#45;&gt;tzdata</title>
<path fill="none" stroke="#8b4513" d="M246.14,-143.7C246.14,-135.98 246.14,-126.71 246.14,-118.11"/>
<polygon fill="#8b4513" stroke="#8b4513" points="249.64,-118.1 246.14,-108.1 242.64,-118.1 249.64,-118.1"/>
</g>
<!-- filesystem -->
<g id="node9" class="node">
<title>filesystem</title>
<ellipse fill="green" stroke="green" cx="343.14" cy="-90" rx="46.59" ry="18"/>
<text text-anchor="middle" x="343.14" y="-86.3" font-family="Times,serif" font-size="14.00">filesystem</text>
</g>
<!-- glibc&#45;&gt;filesystem -->
<g id="edge8" class="edge">
<title>glibc&#45;&gt;filesystem</title>
<path fill="none" stroke="#8b4513" d="M264.39,-147.83C278.19,-137.88 297.42,-123.99 313.43,-112.44"/>
<polygon fill="#8b4513" stroke="#8b4513" points="315.88,-114.99 321.94,-106.3 311.78,-109.31 315.88,-114.99"/>
</g>
<!-- linux&#45;api&#45;headers -->
<g id="node7" class="node">
<title>linux&#45;api&#45;headers</title>
<ellipse fill="green" stroke="green" cx="98.14" cy="-18" rx="71.49" ry="18"/>
<text text-anchor="middle" x="98.14" y="-14.3" font-family="Times,serif" font-size="14.00">linux&#45;api&#45;headers</text>
</g>
<!-- linux&#45;api&#45;headers&gt;=4.10&#45;&gt;linux&#45;api&#45;headers -->
<g id="edge6" class="edge">
<title>linux&#45;api&#45;headers&gt;=4.10&#45;&gt;linux&#45;api&#45;headers</title>
<path fill="none" stroke="grey" d="M98.14,-71.7C98.14,-60.85 98.14,-46.92 98.14,-36.1"/>
</g>
<!-- iana&#45;etc -->
<g id="node10" class="node">
<title>iana&#45;etc</title>
<ellipse fill="green" stroke="green" cx="343.14" cy="-18" rx="38.19" ry="18"/>
<text text-anchor="middle" x="343.14" y="-14.3" font-family="Times,serif" font-size="14.00">iana&#45;etc</text>
</g>
<!-- filesystem&#45;&gt;iana&#45;etc -->
<g id="edge9" class="edge">
<title>filesystem&#45;&gt;iana&#45;etc</title>
<path fill="none" stroke="#8b4513" d="M343.14,-71.7C343.14,-63.98 343.14,-54.71 343.14,-46.11"/>
<polygon fill="#8b4513" stroke="#8b4513" points="346.64,-46.1 343.14,-36.1 339.64,-46.1 346.64,-46.1"/>
</g>
<!-- libidn2.so=0&#45;64&#45;&gt;libidn2 -->
<g id="edge11" class="edge">
<title>libidn2.so=0&#45;64&#45;&gt;libidn2</title>
<path fill="none" stroke="grey" d="M198.14,-359.7C198.14,-348.85 198.14,-334.92 198.14,-324.1"/>
</g>
</g>
</svg>
