<?xml version="1.0" encoding="UTF-8" standalone="no"?>
<!DOCTYPE svg PUBLIC "-//W3C//DTD SVG 1.1//EN"
 "http://www.w3.org/Graphics/SVG/1.1/DTD/svg11.dtd">
<!-- Generated by graphviz version 2.44.0 (0)
 -->
<!-- Title: G Pages: 1 -->
<svg width="592pt" height="1196pt"
 viewBox="0.00 0.00 592.14 1196.00" xmlns="http://www.w3.org/2000/svg" xmlns:xlink="http://www.w3.org/1999/xlink">
<g id="graph0" class="graph" transform="scale(1 1) rotate(0) translate(4 1192)">
<title>G</title>
<polygon fill="white" stroke="transparent" points="-4,4 -4,-1192 588.14,-1192 588.14,4 -4,4"/>
<!-- START -->
<g id="node1" class="node">
<title>START</title>
<ellipse fill="red" stroke="red" cx="335.14" cy="-1170" rx="38.19" ry="18"/>
<text text-anchor="middle" x="335.14" y="-1166.3" font-family="Times,serif" font-size="14.00">START</text>
</g>
<!-- libssh2 -->
<g id="node2" class="node">
<title>libssh2</title>
<ellipse fill="green" stroke="green" cx="335.14" cy="-1098" rx="36" ry="18"/>
<text text-anchor="middle" x="335.14" y="-1094.3" font-family="Times,serif" font-size="14.00">libssh2</text>
</g>
<!-- START&#45;&gt;libssh2 -->
<g id="edge1" class="edge">
<title>START&#45;&gt;libssh2</title>
<path fill="none" stroke="black" d="M335.14,-1151.7C335.14,-1143.98 335.14,-1134.71 335.14,-1126.11"/>
<polygon fill="black" stroke="black" points="338.64,-1126.1 335.14,-1116.1 331.64,-1126.1 338.64,-1126.1"/>
</g>
<!-- openssl -->
<g id="node3" class="node">
<title>openssl</title>
<ellipse fill="green" stroke="green" cx="303.14" cy="-1026" rx="37.09" ry="18"/>
<text text-anchor="middle" x="303.14" y="-1022.3" font-family="Times,serif" font-size="14.00">openssl</text>
</g>
<!-- libssh2&#45;&gt;openssl -->
<g id="edge2" class="edge">
<title>libssh2&#45;&gt;openssl</title>
<path fill="none" stroke="#8b4513" d="M327.39,-1080.05C323.7,-1071.97 319.2,-1062.12 315.08,-1053.11"/>
<polygon fill="#8b4513" stroke="#8b4513" points="318.16,-1051.43 310.82,-1043.79 311.79,-1054.34 318.16,-1051.43"/>
</g>
<!-- zlib -->
<g id="node22" class="node">
<title>zlib</title>
<ellipse fill="green" stroke="green" cx="497.14" cy="-954" rx="27" ry="18"/>
<text text-anchor="middle" x="497.14" y="-950.3" font-family="Times,serif" font-size="14.00">zlib</text>
</g>
<!-- libssh2&#45;&gt;zlib -->
<g id="edge30" class="edge">
<title>libssh2&#45;&gt;zlib</title>
<path fill="none" stroke="#8b4513" d="M352.17,-1082.07C381.23,-1056.6 440.44,-1004.7 473.49,-975.73"/>
<polygon fill="#8b4513" stroke="#8b4513" points="476.08,-978.11 481.3,-968.89 471.47,-972.85 476.08,-978.11"/>
</g>
<!-- perl -->
<g id="node4" class="node">
<title>perl</title>
<ellipse fill="green" stroke="green" cx="300.14" cy="-954" rx="27" ry="18"/>
<text text-anchor="middle" x="300.14" y="-950.3" font-family="Times,serif" font-size="14.00">perl</text>
</g>
<!-- openssl&#45;&gt;perl -->
<g id="edge3" class="edge">
<title>openssl&#45;&gt;perl</title>
<path fill="none" stroke="#8b4513" d="M302.4,-1007.7C302.07,-999.98 301.67,-990.71 301.3,-982.11"/>
<polygon fill="#8b4513" stroke="#8b4513" points="304.8,-981.95 300.87,-972.1 297.81,-982.25 304.8,-981.95"/>
</g>
<!-- gdbm&gt;=1.17 -->
<g id="node5" class="node">
<title>gdbm&gt;=1.17</title>
<ellipse fill="green" stroke="green" cx="257.14" cy="-882" rx="57.69" ry="18"/>
<text text-anchor="middle" x="257.14" y="-878.3" font-family="Times,serif" font-size="14.00">gdbm&gt;=1.17</text>
</g>
<!-- perl&#45;&gt;gdbm&gt;=1.17 -->
<g id="edge4" class="edge">
<title>perl&#45;&gt;gdbm&gt;=1.17</title>
<path fill="none" stroke="#8b4513" d="M290.38,-937.12C285.2,-928.68 278.71,-918.1 272.83,-908.55"/>
<polygon fill="#8b4513" stroke="#8b4513" points="275.68,-906.49 267.46,-899.8 269.71,-910.15 275.68,-906.49"/>
</g>
<!-- glibc -->
<g id="node7" class="node">
<title>glibc</title>
<ellipse fill="green" stroke="green" cx="246.14" cy="-162" rx="28.7" ry="18"/>
<text text-anchor="middle" x="246.14" y="-158.3" font-family="Times,serif" font-size="14.00">glibc</text>
</g>
<!-- perl&#45;&gt;glibc -->
<g id="edge29" class="edge">
<title>perl&#45;&gt;glibc</title>
<path fill="none" stroke="#8b4513" d="M276.07,-945.34C229.62,-928.88 132.14,-885.47 132.14,-811 132.14,-811 132.14,-811 132.14,-305 132.14,-250.44 183.95,-204.91 217.71,-181.03"/>
<polygon fill="#8b4513" stroke="#8b4513" points="220.01,-183.69 226.28,-175.15 216.06,-177.92 220.01,-183.69"/>
</g>
<!-- db -->
<g id="node21" class="node">
<title>db</title>
<ellipse fill="green" stroke="green" cx="343.14" cy="-810" rx="27" ry="18"/>
<text text-anchor="middle" x="343.14" y="-806.3" font-family="Times,serif" font-size="14.00">db</text>
</g>
<!-- perl&#45;&gt;db -->
<g id="edge26" class="edge">
<title>perl&#45;&gt;db</title>
<path fill="none" stroke="#8b4513" d="M308.65,-936.66C313.72,-926.36 319.98,-912.67 324.14,-900 330.84,-879.65 335.77,-855.88 338.93,-838.03"/>
<polygon fill="#8b4513" stroke="#8b4513" points="342.41,-838.46 340.63,-828.02 335.5,-837.29 342.41,-838.46"/>
</g>
<!-- gdbm -->
<g id="node6" class="node">
<title>gdbm</title>
<ellipse fill="green" stroke="green" cx="257.14" cy="-810" rx="31.4" ry="18"/>
<text text-anchor="middle" x="257.14" y="-806.3" font-family="Times,serif" font-size="14.00">gdbm</text>
</g>
<!-- gdbm&gt;=1.17&#45;&gt;gdbm -->
<g id="edge5" class="edge">
<title>gdbm&gt;=1.17&#45;&gt;gdbm</title>
<path fill="none" stroke="grey" d="M257.14,-863.7C257.14,-852.85 257.14,-838.92 257.14,-828.1"/>
</g>
<!-- gdbm&#45;&gt;glibc -->
<g id="edge6" class="edge">
<title>gdbm&#45;&gt;glibc</title>
<path fill="none" stroke="#8b4513" d="M240.78,-794.63C215.58,-770.83 170.14,-720.49 170.14,-667 170.14,-667 170.14,-667 170.14,-305 170.14,-258.12 202.74,-211.74 225.24,-185.31"/>
<polygon fill="#8b4513" stroke="#8b4513" points="227.89,-187.6 231.85,-177.77 222.62,-182.98 227.89,-187.6"/>
</g>
<!-- sh -->
<g id="node13" class="node">
<title>sh</title>
<ellipse fill="green" stroke="green" cx="297.14" cy="-738" rx="27" ry="18"/>
<text text-anchor="middle" x="297.14" y="-734.3" font-family="Times,serif" font-size="14.00">sh</text>
</g>
<!-- gdbm&#45;&gt;sh -->
<g id="edge12" class="edge">
<title>gdbm&#45;&gt;sh</title>
<path fill="none" stroke="#8b4513" d="M266.42,-792.76C271.32,-784.19 277.43,-773.49 282.91,-763.9"/>
<polygon fill="#8b4513" stroke="#8b4513" points="285.99,-765.57 287.91,-755.15 279.91,-762.09 285.99,-765.57"/>
</g>
<!-- linux&#45;api&#45;headers&gt;=4.10 -->
<g id="node8" class="node">
<title>linux&#45;api&#45;headers&gt;=4.10</title>
<ellipse fill="green" stroke="green" cx="98.14" cy="-90" rx="98.28" ry="18"/>
<text text-anchor="middle" x="98.14" y="-86.3" font-family="Times,serif" font-size="14.00">linux&#45;api&#45;headers&gt;=4.10</text>
</g>
<!-- glibc&#45;&gt;linux&#45;api&#45;headers&gt;=4.10 -->
<g id="edge7" class="edge">
<title>glibc&#45;&gt;linux&#45;api&#45;headers&gt;=4.10</title>
<path fill="none" stroke="#8b4513" d="M223.98,-150.52C202.2,-140.22 168.37,-124.22 141.27,-111.4"/>
<polygon fill="#8b4513" stroke="#8b4513" points="142.53,-108.12 132,-107.01 139.54,-114.45 142.53,-108.12"/>
</g>
<!-- tzdata -->
<g id="node10" class="node">
<title>tzdata</title>
<ellipse fill="green" stroke="green" cx="246.14" cy="-90" rx="31.7" ry="18"/>
<text text-anchor="middle" x="246.14" y="-86.3" font-family="Times,serif" font-size="14.00">tzdata</text>
</g>
<!-- glibc&#45;&gt;tzdata -->
<g id="edge9" class="edge">
<title>glibc&#45;&gt;tzdata</title>
<path fill="none" stroke="#8b4513" d="M246.14,-143.7C246.14,-135.98 246.14,-126.71 246.14,-118.11"/>
<polygon fill="#8b4513" stroke="#8b4513" points="249.64,-118.1 246.14,-108.1 242.64,-118.1 249.64,-118.1"/>
</g>
<!-- filesystem -->
<g id="node11" class="node">
<title>filesystem</title>
<ellipse fill="green" stroke="green" cx="343.14" cy="-90" rx="46.59" ry="18"/>
<text text-anchor="middle" x="343.14" y="-86.3" font-family="Times,serif" font-size="14.00">filesystem</text>
</g>
<!-- glibc&#45;&gt;filesystem -->
<g id="edge10" class="edge">
<title>glibc&#45;&gt;filesystem</title>
<path fill="none" stroke="#8b4513" d="M264.39,-147.83C278.19,-137.88 297.42,-123.99 313.43,-112.44"/>
<polygon fill="#8b4513" stroke="#8b4513" points="315.88,-114.99 321.94,-106.3 311.78,-109.31 315.88,-114.99"/>
</g>
<!-- linux&#45;api&#45;headers -->
<g id="node9" class="node">
<title>linux&#45;api&#45;headers</title>
<ellipse fill="green" stroke="green" cx="98.14" cy="-18" rx="71.49" ry="18"/>
<text text-anchor="middle" x="98.14" y="-14.3" font-family="Times,serif" font-size="14.00">linux&#45;api&#45;headers</text>
</g>
<!-- linux&#45;api&#45;headers&gt;=4.10&#45;&gt;linux&#45;api&#45;headers -->
<g id="edge8" class="edge">
<title>linux&#45;api&#45;headers&gt;=4.10&#45;&gt;linux&#45;api&#45;headers</title>
<path fill="none" stroke="grey" d="M98.14,-71.7C98.14,-60.85 98.14,-46.92 98.14,-36.1"/>
</g>
<!-- iana&#45;etc -->
<g id="node12" class="node">
<title>iana&#45;etc</title>
<ellipse fill="green" stroke="green" cx="343.14" cy="-18" rx="38.19" ry="18"/>
<text text-anchor="middle" x="343.14" y="-14.3" font-family="Times,serif" font-size="14.00">iana&#45;etc</text>
</g>
<!-- filesystem&#45;&gt;iana&#45;etc -->
<g id="edge11" class="edge">
<title>filesystem&#45;&gt;iana&#45;etc</title>
<path fill="none" stroke="#8b4513" d="M343.14,-71.7C343.14,-63.98 343.14,-54.71 343.14,-46.11"/>
<polygon fill="#8b4513" stroke="#8b4513" points="346.64,-46.1 343.14,-36.1 339.64,-46.1 346.64,-46.1"/>
</g>
<!-- bash -->
<g id="node14" class="node">
<title>bash</title>
<ellipse fill="green" stroke="green" cx="297.14" cy="-666" rx="27" ry="18"/>
<text text-anchor="middle" x="297.14" y="-662.3" font-family="Times,serif" font-size="14.00">bash</text>
</g>
<!-- sh&#45;&gt;bash -->
<g id="edge13" class="edge">
<title>sh&#45;&gt;bash</title>
<path fill="none" stroke="grey" d="M297.14,-719.7C297.14,-708.85 297.14,-694.92 297.14,-684.1"/>
</g>
<!-- bash&#45;&gt;glibc -->
<g id="edge24" class="edge">
<title>bash&#45;&gt;glibc</title>
<path fill="none" stroke="#8b4513" d="M276.09,-654.45C260.17,-645.38 239.09,-630.78 227.14,-612 205.43,-577.87 208.14,-563.45 208.14,-523 208.14,-523 208.14,-523 208.14,-305 208.14,-263.41 223.54,-217.22 234.74,-189.14"/>
<polygon fill="#8b4513" stroke="#8b4513" points="238.07,-190.24 238.63,-179.66 231.59,-187.58 238.07,-190.24"/>
</g>
<!-- readline&gt;=7.0 -->
<g id="node15" class="node">
<title>readline&gt;=7.0</title>
<ellipse fill="green" stroke="green" cx="297.14" cy="-594" rx="61.19" ry="18"/>
<text text-anchor="middle" x="297.14" y="-590.3" font-family="Times,serif" font-size="14.00">readline&gt;=7.0</text>
</g>
<!-- bash&#45;&gt;readline&gt;=7.0 -->
<g id="edge14" class="edge">
<title>bash&#45;&gt;readline&gt;=7.0</title>
<path fill="none" stroke="#8b4513" d="M297.14,-647.7C297.14,-639.98 297.14,-630.71 297.14,-622.11"/>
<polygon fill="#8b4513" stroke="#8b4513" points="300.64,-622.1 297.14,-612.1 293.64,-622.1 300.64,-622.1"/>
</g>
<!-- ncurses -->
<g id="node17" class="node">
<title>ncurses</title>
<ellipse fill="green" stroke="green" cx="392.14" cy="-378" rx="37.09" ry="18"/>
<text text-anchor="middle" x="392.14" y="-374.3" font-family="Times,serif" font-size="14.00">ncurses</text>
</g>
<!-- bash&#45;&gt;ncurses -->
<g id="edge25" class="edge">
<title>bash&#45;&gt;ncurses</title>
<path fill="none" stroke="#8b4513" d="M316.59,-653.32C358.55,-626.78 456.42,-557.23 489.14,-468 494.65,-452.98 497.3,-445.76 489.14,-432 477.14,-411.77 454.39,-398.76 433.94,-390.69"/>
<polygon fill="#8b4513" stroke="#8b4513" points="435.04,-387.37 424.45,-387.23 432.64,-393.95 435.04,-387.37"/>
</g>
<!-- readline -->
<g id="node16" class="node">
<title>readline</title>
<ellipse fill="green" stroke="green" cx="291.14" cy="-522" rx="38.99" ry="18"/>
<text text-anchor="middle" x="291.14" y="-518.3" font-family="Times,serif" font-size="14.00">readline</text>
</g>
<!-- readline&gt;=7.0&#45;&gt;readline -->
<g id="edge15" class="edge">
<title>readline&gt;=7.0&#45;&gt;readline</title>
<path fill="none" stroke="grey" d="M295.66,-575.7C294.73,-564.85 293.53,-550.92 292.61,-540.1"/>
</g>
<!-- readline&#45;&gt;glibc -->
<g id="edge16" class="edge">
<title>readline&#45;&gt;glibc</title>
<path fill="none" stroke="#8b4513" d="M282.03,-504.06C268.89,-477.98 246.14,-426.07 246.14,-379 246.14,-379 246.14,-379 246.14,-305 246.14,-265 246.14,-218.65 246.14,-190.08"/>
<polygon fill="#8b4513" stroke="#8b4513" points="249.64,-190.05 246.14,-180.05 242.64,-190.05 249.64,-190.05"/>
</g>
<!-- readline&#45;&gt;ncurses -->
<g id="edge17" class="edge">
<title>readline&#45;&gt;ncurses</title>
<path fill="none" stroke="#8b4513" d="M289.26,-503.74C288.06,-484.61 288.87,-453.59 303.14,-432 314.96,-414.11 335.07,-401.39 353.19,-392.9"/>
<polygon fill="#8b4513" stroke="#8b4513" points="354.68,-396.07 362.43,-388.85 351.87,-389.66 354.68,-396.07"/>
</g>
<!-- libncursesw.so=6&#45;64 -->
<g id="node20" class="node">
<title>libncursesw.so=6&#45;64</title>
<ellipse fill="green" stroke="green" cx="396.14" cy="-450" rx="83.69" ry="18"/>
<text text-anchor="middle" x="396.14" y="-446.3" font-family="Times,serif" font-size="14.00">libncursesw.so=6&#45;64</text>
</g>
<!-- readline&#45;&gt;libncursesw.so=6&#45;64 -->
<g id="edge22" class="edge">
<title>readline&#45;&gt;libncursesw.so=6&#45;64</title>
<path fill="none" stroke="#8b4513" d="M312.39,-506.83C326.98,-497.1 346.64,-484 363.25,-472.93"/>
<polygon fill="#8b4513" stroke="#8b4513" points="365.23,-475.81 371.61,-467.35 361.35,-469.99 365.23,-475.81"/>
</g>
<!-- ncurses&#45;&gt;glibc -->
<g id="edge18" class="edge">
<title>ncurses&#45;&gt;glibc</title>
<path fill="none" stroke="#8b4513" d="M376.98,-361.38C367.38,-351.14 354.96,-337.23 345.14,-324 311.33,-278.43 278.02,-220.96 259.97,-188.46"/>
<polygon fill="#8b4513" stroke="#8b4513" points="262.98,-186.67 255.08,-179.6 256.85,-190.05 262.98,-186.67"/>
</g>
<!-- gcc&#45;libs -->
<g id="node18" class="node">
<title>gcc&#45;libs</title>
<ellipse fill="green" stroke="green" cx="392.14" cy="-306" rx="38.19" ry="18"/>
<text text-anchor="middle" x="392.14" y="-302.3" font-family="Times,serif" font-size="14.00">gcc&#45;libs</text>
</g>
<!-- ncurses&#45;&gt;gcc&#45;libs -->
<g id="edge19" class="edge">
<title>ncurses&#45;&gt;gcc&#45;libs</title>
<path fill="none" stroke="#8b4513" d="M392.14,-359.7C392.14,-351.98 392.14,-342.71 392.14,-334.11"/>
<polygon fill="#8b4513" stroke="#8b4513" points="395.64,-334.1 392.14,-324.1 388.64,-334.1 395.64,-334.1"/>
</g>
<!-- glibc&gt;=2.27 -->
<g id="node19" class="node">
<title>glibc&gt;=2.27</title>
<ellipse fill="green" stroke="green" cx="388.14" cy="-234" rx="54.69" ry="18"/>
<text text-anchor="middle" x="388.14" y="-230.3" font-family="Times,serif" font-size="14.00">glibc&gt;=2.27</text>
</g>
<!-- gcc&#45;libs&#45;&gt;glibc&gt;=2.27 -->
<g id="edge20" class="edge">
<title>gcc&#45;libs&#45;&gt;glibc&gt;=2.27</title>
<path fill="none" stroke="#8b4513" d="M391.15,-287.7C390.71,-279.98 390.18,-270.71 389.69,-262.11"/>
<polygon fill="#8b4513" stroke="#8b4513" points="393.18,-261.89 389.12,-252.1 386.19,-262.29 393.18,-261.89"/>
</g>
<!-- glibc&gt;=2.27&#45;&gt;glibc -->
<g id="edge21" class="edge">
<title>glibc&gt;=2.27&#45;&gt;glibc</title>
<path fill="none" stroke="grey" d="M359.06,-218.67C332.12,-205.39 292.64,-185.92 268.21,-173.88"/>
</g>
<!-- libncursesw.so=6&#45;64&#45;&gt;ncurses -->
<g id="edge23" class="edge">
<title>libncursesw.so=6&#45;64&#45;&gt;ncurses</title>
<path fill="none" stroke="grey" d="M395.15,-431.7C394.53,-420.85 393.74,-406.92 393.12,-396.1"/>
</g>
<!-- db&#45;&gt;sh -->
<g id="edge28" class="edge">
<title>db&#45;&gt;sh</title>
<path fill="none" stroke="#8b4513" d="M332.7,-793.12C326.94,-784.34 319.66,-773.26 313.19,-763.42"/>
<polygon fill="#8b4513" stroke="#8b4513" points="315.95,-761.26 307.54,-754.82 310.1,-765.1 315.95,-761.26"/>
</g>
<!-- db&#45;&gt;gcc&#45;libs -->
<g id="edge27" class="edge">
<title>db&#45;&gt;gcc&#45;libs</title>
<path fill="none" stroke="#8b4513" d="M368.85,-803.75C423.48,-790.92 546.14,-752.59 546.14,-667 546.14,-667 546.14,-667 546.14,-449 546.14,-386.02 475.66,-343.26 430.07,-322.19"/>
<polygon fill="#8b4513" stroke="#8b4513" points="431.3,-318.91 420.75,-318.03 428.45,-325.3 431.3,-318.91"/>
</g>
<!-- zlib&#45;&gt;glibc -->
<g id="edge31" class="edge">
<title>zlib&#45;&gt;glibc</title>
<path fill="none" stroke="#8b4513" d="M513.1,-939.02C538.21,-915.37 584.14,-864.78 584.14,-811 584.14,-811 584.14,-811 584.14,-305 584.14,-176.56 374.12,-162.38 285.18,-162.13"/>
<polygon fill="#8b4513" stroke="#8b4513" points="284.95,-158.63 274.96,-162.16 284.97,-165.63 284.95,-158.63"/>
</g>
</g>
</svg>
