<?xml version="1.0" encoding="UTF-8" standalone="no"?>
<!DOCTYPE svg PUBLIC "-//W3C//DTD SVG 1.1//EN"
 "http://www.w3.org/Graphics/SVG/1.1/DTD/svg11.dtd">
<!-- Generated by graphviz version 2.44.0 (0)
 -->
<!-- Title: G Pages: 1 -->
<svg width="676pt" height="1124pt"
 viewBox="0.00 0.00 675.56 1124.00" xmlns="http://www.w3.org/2000/svg" xmlns:xlink="http://www.w3.org/1999/xlink">
<g id="graph0" class="graph" transform="scale(1 1) rotate(0) translate(4 1120)">
<title>G</title>
<polygon fill="white" stroke="transparent" points="-4,4 -4,-1120 671.56,-1120 671.56,4 -4,4"/>
<!-- START -->
<g id="node1" class="node">
<title>START</title>
<ellipse fill="red" stroke="red" cx="214.77" cy="-1098" rx="38.19" ry="18"/>
<text text-anchor="middle" x="214.77" y="-1094.3" font-family="Times,serif" font-size="14.00">START</text>
</g>
<!-- libsecret -->
<g id="node2" class="node">
<title>libsecret</title>
<ellipse fill="green" stroke="green" cx="214.77" cy="-1026" rx="40.09" ry="18"/>
<text text-anchor="middle" x="214.77" y="-1022.3" font-family="Times,serif" font-size="14.00">libsecret</text>
</g>
<!-- START&#45;&gt;libsecret -->
<g id="edge1" class="edge">
<title>START&#45;&gt;libsecret</title>
<path fill="none" stroke="black" d="M214.77,-1079.7C214.77,-1071.98 214.77,-1062.71 214.77,-1054.11"/>
<polygon fill="black" stroke="black" points="218.27,-1054.1 214.77,-1044.1 211.27,-1054.1 218.27,-1054.1"/>
</g>
<!-- glib2 -->
<g id="node3" class="node">
<title>glib2</title>
<ellipse fill="green" stroke="green" cx="170.77" cy="-954" rx="28.7" ry="18"/>
<text text-anchor="middle" x="170.77" y="-950.3" font-family="Times,serif" font-size="14.00">glib2</text>
</g>
<!-- libsecret&#45;&gt;glib2 -->
<g id="edge2" class="edge">
<title>libsecret&#45;&gt;glib2</title>
<path fill="none" stroke="#8b4513" d="M204.34,-1008.41C198.95,-999.83 192.26,-989.19 186.27,-979.67"/>
<polygon fill="#8b4513" stroke="#8b4513" points="189.1,-977.59 180.82,-970.99 183.18,-981.32 189.1,-977.59"/>
</g>
<!-- libgcrypt -->
<g id="node24" class="node">
<title>libgcrypt</title>
<ellipse fill="green" stroke="green" cx="295.77" cy="-954" rx="42.79" ry="18"/>
<text text-anchor="middle" x="295.77" y="-950.3" font-family="Times,serif" font-size="14.00">libgcrypt</text>
</g>
<!-- libsecret&#45;&gt;libgcrypt -->
<g id="edge36" class="edge">
<title>libsecret&#45;&gt;libgcrypt</title>
<path fill="none" stroke="#8b4513" d="M232.74,-1009.46C243.76,-999.95 258.02,-987.62 270.2,-977.1"/>
<polygon fill="#8b4513" stroke="#8b4513" points="272.56,-979.68 277.84,-970.49 267.99,-974.38 272.56,-979.68"/>
</g>
<!-- pcre -->
<g id="node4" class="node">
<title>pcre</title>
<ellipse fill="green" stroke="green" cx="277.77" cy="-882" rx="27" ry="18"/>
<text text-anchor="middle" x="277.77" y="-878.3" font-family="Times,serif" font-size="14.00">pcre</text>
</g>
<!-- glib2&#45;&gt;pcre -->
<g id="edge3" class="edge">
<title>glib2&#45;&gt;pcre</title>
<path fill="none" stroke="#8b4513" d="M189.9,-940.49C206.81,-929.42 231.68,-913.15 250.65,-900.74"/>
<polygon fill="#8b4513" stroke="#8b4513" points="252.71,-903.58 259.16,-895.17 248.88,-897.72 252.71,-903.58"/>
</g>
<!-- zlib -->
<g id="node16" class="node">
<title>zlib</title>
<ellipse fill="green" stroke="green" cx="177.77" cy="-810" rx="27" ry="18"/>
<text text-anchor="middle" x="177.77" y="-806.3" font-family="Times,serif" font-size="14.00">zlib</text>
</g>
<!-- glib2&#45;&gt;zlib -->
<g id="edge33" class="edge">
<title>glib2&#45;&gt;zlib</title>
<path fill="none" stroke="#8b4513" d="M183.73,-937.42C191.18,-927.42 199.83,-913.76 203.77,-900 208.17,-884.62 207.38,-879.59 203.77,-864 201.55,-854.43 197.34,-844.59 192.95,-836.02"/>
<polygon fill="#8b4513" stroke="#8b4513" points="195.87,-834.08 188.01,-826.98 189.73,-837.44 195.87,-834.08"/>
</g>
<!-- libffi -->
<g id="node21" class="node">
<title>libffi</title>
<ellipse fill="green" stroke="green" cx="48.77" cy="-738" rx="27.9" ry="18"/>
<text text-anchor="middle" x="48.77" y="-734.3" font-family="Times,serif" font-size="14.00">libffi</text>
</g>
<!-- glib2&#45;&gt;libffi -->
<g id="edge30" class="edge">
<title>glib2&#45;&gt;libffi</title>
<path fill="none" stroke="#8b4513" d="M142.47,-950.71C109.41,-946.46 55.48,-934.37 25.77,-900 -5.93,-863.34 -4.06,-838.14 10.77,-792 14.29,-781.05 20.99,-770.45 27.8,-761.65"/>
<polygon fill="#8b4513" stroke="#8b4513" points="30.61,-763.74 34.27,-753.8 25.21,-759.29 30.61,-763.74"/>
</g>
<!-- libutil&#45;linux -->
<g id="node22" class="node">
<title>libutil&#45;linux</title>
<ellipse fill="green" stroke="green" cx="72.77" cy="-810" rx="52.79" ry="18"/>
<text text-anchor="middle" x="72.77" y="-806.3" font-family="Times,serif" font-size="14.00">libutil&#45;linux</text>
</g>
<!-- glib2&#45;&gt;libutil&#45;linux -->
<g id="edge32" class="edge">
<title>glib2&#45;&gt;libutil&#45;linux</title>
<path fill="none" stroke="#8b4513" d="M142.32,-950.91C110.29,-946.85 59.59,-934.95 35.77,-900 22.06,-879.89 35.88,-853.89 50.36,-835.2"/>
<polygon fill="#8b4513" stroke="#8b4513" points="53.11,-837.37 56.75,-827.42 47.7,-832.92 53.11,-837.37"/>
</g>
<!-- libmount.so=1&#45;64 -->
<g id="node23" class="node">
<title>libmount.so=1&#45;64</title>
<ellipse fill="green" stroke="green" cx="119.77" cy="-882" rx="74.99" ry="18"/>
<text text-anchor="middle" x="119.77" y="-878.3" font-family="Times,serif" font-size="14.00">libmount.so=1&#45;64</text>
</g>
<!-- glib2&#45;&gt;libmount.so=1&#45;64 -->
<g id="edge34" class="edge">
<title>glib2&#45;&gt;libmount.so=1&#45;64</title>
<path fill="none" stroke="#8b4513" d="M159.45,-937.46C153.18,-928.87 145.25,-917.97 138.12,-908.19"/>
<polygon fill="#8b4513" stroke="#8b4513" points="140.84,-905.98 132.13,-899.96 135.19,-910.11 140.84,-905.98"/>
</g>
<!-- gcc&#45;libs -->
<g id="node5" class="node">
<title>gcc&#45;libs</title>
<ellipse fill="green" stroke="green" cx="317.77" cy="-306" rx="38.19" ry="18"/>
<text text-anchor="middle" x="317.77" y="-302.3" font-family="Times,serif" font-size="14.00">gcc&#45;libs</text>
</g>
<!-- pcre&#45;&gt;gcc&#45;libs -->
<g id="edge4" class="edge">
<title>pcre&#45;&gt;gcc&#45;libs</title>
<path fill="none" stroke="#8b4513" d="M269.09,-864.91C256.01,-839.12 232.77,-786.58 232.77,-739 232.77,-739 232.77,-739 232.77,-449 232.77,-401.14 268.75,-355.45 293.89,-329.36"/>
<polygon fill="#8b4513" stroke="#8b4513" points="296.41,-331.79 300.97,-322.23 291.45,-326.86 296.41,-331.79"/>
</g>
<!-- readline -->
<g id="node13" class="node">
<title>readline</title>
<ellipse fill="green" stroke="green" cx="397.77" cy="-522" rx="38.99" ry="18"/>
<text text-anchor="middle" x="397.77" y="-518.3" font-family="Times,serif" font-size="14.00">readline</text>
</g>
<!-- pcre&#45;&gt;readline -->
<g id="edge12" class="edge">
<title>pcre&#45;&gt;readline</title>
<path fill="none" stroke="#8b4513" d="M276.38,-863.96C274.34,-837.32 270.77,-784.17 270.77,-739 270.77,-739 270.77,-739 270.77,-665 270.77,-608.81 326.69,-564.67 364.32,-541.32"/>
<polygon fill="#8b4513" stroke="#8b4513" points="366.21,-544.27 372.98,-536.11 362.61,-538.27 366.21,-544.27"/>
</g>
<!-- pcre&#45;&gt;zlib -->
<g id="edge19" class="edge">
<title>pcre&#45;&gt;zlib</title>
<path fill="none" stroke="#8b4513" d="M259.89,-868.49C244.49,-857.7 222.03,-841.98 204.49,-829.7"/>
<polygon fill="#8b4513" stroke="#8b4513" points="206.03,-826.51 195.83,-823.64 202.01,-832.24 206.03,-826.51"/>
</g>
<!-- bzip2 -->
<g id="node17" class="node">
<title>bzip2</title>
<ellipse fill="green" stroke="green" cx="386.77" cy="-810" rx="30.59" ry="18"/>
<text text-anchor="middle" x="386.77" y="-806.3" font-family="Times,serif" font-size="14.00">bzip2</text>
</g>
<!-- pcre&#45;&gt;bzip2 -->
<g id="edge21" class="edge">
<title>pcre&#45;&gt;bzip2</title>
<path fill="none" stroke="#8b4513" d="M296.75,-868.81C313.79,-857.87 339.01,-841.67 358.43,-829.2"/>
<polygon fill="#8b4513" stroke="#8b4513" points="360.37,-832.11 366.89,-823.76 356.59,-826.22 360.37,-832.11"/>
</g>
<!-- bash -->
<g id="node19" class="node">
<title>bash</title>
<ellipse fill="green" stroke="green" cx="390.77" cy="-666" rx="27" ry="18"/>
<text text-anchor="middle" x="390.77" y="-662.3" font-family="Times,serif" font-size="14.00">bash</text>
</g>
<!-- pcre&#45;&gt;bash -->
<g id="edge29" class="edge">
<title>pcre&#45;&gt;bash</title>
<path fill="none" stroke="#8b4513" d="M284.84,-864.12C297.53,-834.33 325.6,-770.78 354.77,-720 360.42,-710.16 367.28,-699.75 373.49,-690.78"/>
<polygon fill="#8b4513" stroke="#8b4513" points="376.52,-692.56 379.42,-682.37 370.8,-688.53 376.52,-692.56"/>
</g>
<!-- glibc&gt;=2.27 -->
<g id="node6" class="node">
<title>glibc&gt;=2.27</title>
<ellipse fill="green" stroke="green" cx="335.77" cy="-234" rx="54.69" ry="18"/>
<text text-anchor="middle" x="335.77" y="-230.3" font-family="Times,serif" font-size="14.00">glibc&gt;=2.27</text>
</g>
<!-- gcc&#45;libs&#45;&gt;glibc&gt;=2.27 -->
<g id="edge5" class="edge">
<title>gcc&#45;libs&#45;&gt;glibc&gt;=2.27</title>
<path fill="none" stroke="#8b4513" d="M322.12,-288.05C324.13,-280.26 326.56,-270.82 328.8,-262.08"/>
<polygon fill="#8b4513" stroke="#8b4513" points="332.22,-262.83 331.33,-252.28 325.45,-261.09 332.22,-262.83"/>
</g>
<!-- glibc -->
<g id="node7" class="node">
<title>glibc</title>
<ellipse fill="green" stroke="green" cx="523.77" cy="-162" rx="28.7" ry="18"/>
<text text-anchor="middle" x="523.77" y="-158.3" font-family="Times,serif" font-size="14.00">glibc</text>
</g>
<!-- glibc&gt;=2.27&#45;&gt;glibc -->
<g id="edge6" class="edge">
<title>glibc&gt;=2.27&#45;&gt;glibc</title>
<path fill="none" stroke="grey" d="M370.69,-220C408.28,-206 467.07,-184.11 499.77,-171.93"/>
</g>
<!-- linux&#45;api&#45;headers&gt;=4.10 -->
<g id="node8" class="node">
<title>linux&#45;api&#45;headers&gt;=4.10</title>
<ellipse fill="green" stroke="green" cx="375.77" cy="-90" rx="98.28" ry="18"/>
<text text-anchor="middle" x="375.77" y="-86.3" font-family="Times,serif" font-size="14.00">linux&#45;api&#45;headers&gt;=4.10</text>
</g>
<!-- glibc&#45;&gt;linux&#45;api&#45;headers&gt;=4.10 -->
<g id="edge7" class="edge">
<title>glibc&#45;&gt;linux&#45;api&#45;headers&gt;=4.10</title>
<path fill="none" stroke="#8b4513" d="M501.61,-150.52C479.83,-140.22 446,-124.22 418.9,-111.4"/>
<polygon fill="#8b4513" stroke="#8b4513" points="420.16,-108.12 409.62,-107.01 417.17,-114.45 420.16,-108.12"/>
</g>
<!-- tzdata -->
<g id="node10" class="node">
<title>tzdata</title>
<ellipse fill="green" stroke="green" cx="523.77" cy="-90" rx="31.7" ry="18"/>
<text text-anchor="middle" x="523.77" y="-86.3" font-family="Times,serif" font-size="14.00">tzdata</text>
</g>
<!-- glibc&#45;&gt;tzdata -->
<g id="edge9" class="edge">
<title>glibc&#45;&gt;tzdata</title>
<path fill="none" stroke="#8b4513" d="M523.77,-143.7C523.77,-135.98 523.77,-126.71 523.77,-118.11"/>
<polygon fill="#8b4513" stroke="#8b4513" points="527.27,-118.1 523.77,-108.1 520.27,-118.1 527.27,-118.1"/>
</g>
<!-- filesystem -->
<g id="node11" class="node">
<title>filesystem</title>
<ellipse fill="green" stroke="green" cx="620.77" cy="-90" rx="46.59" ry="18"/>
<text text-anchor="middle" x="620.77" y="-86.3" font-family="Times,serif" font-size="14.00">filesystem</text>
</g>
<!-- glibc&#45;&gt;filesystem -->
<g id="edge10" class="edge">
<title>glibc&#45;&gt;filesystem</title>
<path fill="none" stroke="#8b4513" d="M542.01,-147.83C555.81,-137.88 575.05,-123.99 591.06,-112.44"/>
<polygon fill="#8b4513" stroke="#8b4513" points="593.5,-114.99 599.56,-106.3 589.41,-109.31 593.5,-114.99"/>
</g>
<!-- linux&#45;api&#45;headers -->
<g id="node9" class="node">
<title>linux&#45;api&#45;headers</title>
<ellipse fill="green" stroke="green" cx="375.77" cy="-18" rx="71.49" ry="18"/>
<text text-anchor="middle" x="375.77" y="-14.3" font-family="Times,serif" font-size="14.00">linux&#45;api&#45;headers</text>
</g>
<!-- linux&#45;api&#45;headers&gt;=4.10&#45;&gt;linux&#45;api&#45;headers -->
<g id="edge8" class="edge">
<title>linux&#45;api&#45;headers&gt;=4.10&#45;&gt;linux&#45;api&#45;headers</title>
<path fill="none" stroke="grey" d="M375.77,-71.7C375.77,-60.85 375.77,-46.92 375.77,-36.1"/>
</g>
<!-- iana&#45;etc -->
<g id="node12" class="node">
<title>iana&#45;etc</title>
<ellipse fill="green" stroke="green" cx="620.77" cy="-18" rx="38.19" ry="18"/>
<text text-anchor="middle" x="620.77" y="-14.3" font-family="Times,serif" font-size="14.00">iana&#45;etc</text>
</g>
<!-- filesystem&#45;&gt;iana&#45;etc -->
<g id="edge11" class="edge">
<title>filesystem&#45;&gt;iana&#45;etc</title>
<path fill="none" stroke="#8b4513" d="M620.77,-71.7C620.77,-63.98 620.77,-54.71 620.77,-46.11"/>
<polygon fill="#8b4513" stroke="#8b4513" points="624.27,-46.1 620.77,-36.1 617.27,-46.1 624.27,-46.1"/>
</g>
<!-- readline&#45;&gt;glibc -->
<g id="edge13" class="edge">
<title>readline&#45;&gt;glibc</title>
<path fill="none" stroke="#8b4513" d="M432.68,-513.94C458.89,-506.81 493.6,-493.13 513.77,-468 539.08,-436.46 532.77,-419.45 532.77,-379 532.77,-379 532.77,-379 532.77,-305 532.77,-264.92 529.15,-218.59 526.5,-190.05"/>
<polygon fill="#8b4513" stroke="#8b4513" points="529.98,-189.65 525.55,-180.03 523.01,-190.31 529.98,-189.65"/>
</g>
<!-- ncurses -->
<g id="node14" class="node">
<title>ncurses</title>
<ellipse fill="green" stroke="green" cx="317.77" cy="-378" rx="37.09" ry="18"/>
<text text-anchor="middle" x="317.77" y="-374.3" font-family="Times,serif" font-size="14.00">ncurses</text>
</g>
<!-- readline&#45;&gt;ncurses -->
<g id="edge14" class="edge">
<title>readline&#45;&gt;ncurses</title>
<path fill="none" stroke="#8b4513" d="M371.76,-508.26C356.3,-499.24 337.79,-485.62 327.77,-468 317.16,-449.36 315.08,-424.97 315.42,-406.44"/>
<polygon fill="#8b4513" stroke="#8b4513" points="318.92,-406.43 315.85,-396.29 311.93,-406.13 318.92,-406.43"/>
</g>
<!-- libncursesw.so=6&#45;64 -->
<g id="node15" class="node">
<title>libncursesw.so=6&#45;64</title>
<ellipse fill="green" stroke="green" cx="420.77" cy="-450" rx="83.69" ry="18"/>
<text text-anchor="middle" x="420.77" y="-446.3" font-family="Times,serif" font-size="14.00">libncursesw.so=6&#45;64</text>
</g>
<!-- readline&#45;&gt;libncursesw.so=6&#45;64 -->
<g id="edge17" class="edge">
<title>readline&#45;&gt;libncursesw.so=6&#45;64</title>
<path fill="none" stroke="#8b4513" d="M403.34,-504.05C405.92,-496.18 409.07,-486.62 411.96,-477.79"/>
<polygon fill="#8b4513" stroke="#8b4513" points="415.29,-478.87 415.09,-468.28 408.64,-476.68 415.29,-478.87"/>
</g>
<!-- ncurses&#45;&gt;gcc&#45;libs -->
<g id="edge16" class="edge">
<title>ncurses&#45;&gt;gcc&#45;libs</title>
<path fill="none" stroke="#8b4513" d="M317.77,-359.7C317.77,-351.98 317.77,-342.71 317.77,-334.11"/>
<polygon fill="#8b4513" stroke="#8b4513" points="321.27,-334.1 317.77,-324.1 314.27,-334.1 321.27,-334.1"/>
</g>
<!-- ncurses&#45;&gt;glibc -->
<g id="edge15" class="edge">
<title>ncurses&#45;&gt;glibc</title>
<path fill="none" stroke="#8b4513" d="M332.92,-361.26C369.12,-323.66 460.74,-228.48 502.47,-185.13"/>
<polygon fill="#8b4513" stroke="#8b4513" points="505.01,-187.53 509.42,-177.9 499.97,-182.68 505.01,-187.53"/>
</g>
<!-- libncursesw.so=6&#45;64&#45;&gt;ncurses -->
<g id="edge18" class="edge">
<title>libncursesw.so=6&#45;64&#45;&gt;ncurses</title>
<path fill="none" stroke="grey" d="M396.62,-432.59C379.02,-420.63 355.41,-404.59 338.63,-393.18"/>
</g>
<!-- zlib&#45;&gt;glibc -->
<g id="edge20" class="edge">
<title>zlib&#45;&gt;glibc</title>
<path fill="none" stroke="#8b4513" d="M179.55,-791.97C182.17,-765.34 186.77,-712.21 186.77,-667 186.77,-667 186.77,-667 186.77,-305 186.77,-176.88 396.17,-162.51 484.84,-162.17"/>
<polygon fill="#8b4513" stroke="#8b4513" points="485.03,-165.67 495.04,-162.19 485.04,-158.67 485.03,-165.67"/>
</g>
<!-- bzip2&#45;&gt;glibc -->
<g id="edge22" class="edge">
<title>bzip2&#45;&gt;glibc</title>
<path fill="none" stroke="#8b4513" d="M408.87,-797.56C465.02,-768.15 608.77,-690.56 608.77,-667 608.77,-667 608.77,-667 608.77,-305 608.77,-256.83 572.31,-210.85 547.15,-184.85"/>
<polygon fill="#8b4513" stroke="#8b4513" points="549.3,-182.05 539.76,-177.44 544.34,-186.99 549.3,-182.05"/>
</g>
<!-- sh -->
<g id="node18" class="node">
<title>sh</title>
<ellipse fill="green" stroke="green" cx="390.77" cy="-738" rx="27" ry="18"/>
<text text-anchor="middle" x="390.77" y="-734.3" font-family="Times,serif" font-size="14.00">sh</text>
</g>
<!-- bzip2&#45;&gt;sh -->
<g id="edge23" class="edge">
<title>bzip2&#45;&gt;sh</title>
<path fill="none" stroke="#8b4513" d="M387.76,-791.7C388.2,-783.98 388.73,-774.71 389.22,-766.11"/>
<polygon fill="#8b4513" stroke="#8b4513" points="392.71,-766.29 389.79,-756.1 385.73,-765.89 392.71,-766.29"/>
</g>
<!-- sh&#45;&gt;bash -->
<g id="edge24" class="edge">
<title>sh&#45;&gt;bash</title>
<path fill="none" stroke="grey" d="M384.93,-720.41C383.73,-709.41 383.71,-695.03 384.89,-683.96"/>
</g>
<!-- sh&#45;&gt;bash -->
<g id="edge40" class="edge">
<title>sh&#45;&gt;bash</title>
<path fill="none" stroke="grey" d="M396.61,-720.41C397.81,-709.41 397.82,-695.03 396.65,-683.96"/>
</g>
<!-- bash&#45;&gt;glibc -->
<g id="edge27" class="edge">
<title>bash&#45;&gt;glibc</title>
<path fill="none" stroke="#8b4513" d="M415.42,-658.23C464.72,-643.02 570.77,-601.21 570.77,-523 570.77,-523 570.77,-523 570.77,-305 570.77,-262.49 551.55,-216.28 537.69,-188.49"/>
<polygon fill="#8b4513" stroke="#8b4513" points="540.74,-186.76 533.05,-179.46 534.51,-189.96 540.74,-186.76"/>
</g>
<!-- bash&#45;&gt;ncurses -->
<g id="edge28" class="edge">
<title>bash&#45;&gt;ncurses</title>
<path fill="none" stroke="#8b4513" d="M370.68,-653.88C356.14,-644.68 337.41,-630.18 327.77,-612 292.29,-545.11 303.31,-451.61 311.83,-406.07"/>
<polygon fill="#8b4513" stroke="#8b4513" points="315.29,-406.57 313.8,-396.08 308.43,-405.21 315.29,-406.57"/>
</g>
<!-- readline&gt;=7.0 -->
<g id="node20" class="node">
<title>readline&gt;=7.0</title>
<ellipse fill="green" stroke="green" cx="397.77" cy="-594" rx="61.19" ry="18"/>
<text text-anchor="middle" x="397.77" y="-590.3" font-family="Times,serif" font-size="14.00">readline&gt;=7.0</text>
</g>
<!-- bash&#45;&gt;readline&gt;=7.0 -->
<g id="edge25" class="edge">
<title>bash&#45;&gt;readline&gt;=7.0</title>
<path fill="none" stroke="#8b4513" d="M392.5,-647.7C393.27,-639.98 394.2,-630.71 395.06,-622.11"/>
<polygon fill="#8b4513" stroke="#8b4513" points="398.54,-622.4 396.06,-612.1 391.58,-621.71 398.54,-622.4"/>
</g>
<!-- readline&gt;=7.0&#45;&gt;readline -->
<g id="edge26" class="edge">
<title>readline&gt;=7.0&#45;&gt;readline</title>
<path fill="none" stroke="grey" d="M397.77,-575.7C397.77,-564.85 397.77,-550.92 397.77,-540.1"/>
</g>
<!-- libffi&#45;&gt;glibc -->
<g id="edge31" class="edge">
<title>libffi&#45;&gt;glibc</title>
<path fill="none" stroke="#8b4513" d="M59.56,-721.19C75.84,-695.79 104.77,-643.76 104.77,-595 104.77,-595 104.77,-595 104.77,-305 104.77,-255.22 129.92,-241.34 172.77,-216 225.12,-185.04 405.41,-170.31 485.23,-165.19"/>
<polygon fill="#8b4513" stroke="#8b4513" points="485.59,-168.68 495.35,-164.56 485.15,-161.69 485.59,-168.68"/>
</g>
<!-- libmount.so=1&#45;64&#45;&gt;libutil&#45;linux -->
<g id="edge35" class="edge">
<title>libmount.so=1&#45;64&#45;&gt;libutil&#45;linux</title>
<path fill="none" stroke="grey" d="M108.39,-864.05C101,-853.05 91.41,-838.76 84.04,-827.79"/>
</g>
<!-- libgpg&#45;error -->
<g id="node25" class="node">
<title>libgpg&#45;error</title>
<ellipse fill="green" stroke="green" cx="488.77" cy="-810" rx="53.89" ry="18"/>
<text text-anchor="middle" x="488.77" y="-806.3" font-family="Times,serif" font-size="14.00">libgpg&#45;error</text>
</g>
<!-- libgcrypt&#45;&gt;libgpg&#45;error -->
<g id="edge37" class="edge">
<title>libgcrypt&#45;&gt;libgpg&#45;error</title>
<path fill="none" stroke="#8b4513" d="M316.06,-938.07C350.25,-912.92 419.48,-861.98 459.12,-832.81"/>
<polygon fill="#8b4513" stroke="#8b4513" points="461.6,-835.33 467.58,-826.59 457.45,-829.69 461.6,-835.33"/>
</g>
<!-- libgpg&#45;error&#45;&gt;glibc -->
<g id="edge38" class="edge">
<title>libgpg&#45;error&#45;&gt;glibc</title>
<path fill="none" stroke="#8b4513" d="M536.17,-801.32C565.04,-794.26 600.53,-780.91 622.77,-756 650.05,-725.44 646.77,-707.97 646.77,-667 646.77,-667 646.77,-667 646.77,-305 646.77,-264.03 648.25,-248.08 622.77,-216 606.57,-195.61 580.33,-182.07 558.94,-173.79"/>
<polygon fill="#8b4513" stroke="#8b4513" points="560.09,-170.48 549.5,-170.34 557.69,-177.06 560.09,-170.48"/>
</g>
<!-- libgpg&#45;error&#45;&gt;sh -->
<g id="edge39" class="edge">
<title>libgpg&#45;error&#45;&gt;sh</title>
<path fill="none" stroke="#8b4513" d="M467.02,-793.46C452.17,-782.86 432.44,-768.76 416.76,-757.57"/>
<polygon fill="#8b4513" stroke="#8b4513" points="418.7,-754.65 408.53,-751.69 414.63,-760.35 418.7,-754.65"/>
</g>
</g>
</svg>
