<?xml version="1.0" encoding="UTF-8" standalone="no"?>
<!DOCTYPE svg PUBLIC "-//W3C//DTD SVG 1.1//EN"
 "http://www.w3.org/Graphics/SVG/1.1/DTD/svg11.dtd">
<!-- Generated by graphviz version 2.44.0 (0)
 -->
<!-- Title: G Pages: 1 -->
<svg width="441pt" height="908pt"
 viewBox="0.00 0.00 440.67 908.00" xmlns="http://www.w3.org/2000/svg" xmlns:xlink="http://www.w3.org/1999/xlink">
<g id="graph0" class="graph" transform="scale(1 1) rotate(0) translate(4 904)">
<title>G</title>
<polygon fill="white" stroke="transparent" points="-4,4 -4,-904 436.67,-904 436.67,4 -4,4"/>
<!-- START -->
<g id="node1" class="node">
<title>START</title>
<ellipse fill="red" stroke="red" cx="295.76" cy="-882" rx="38.19" ry="18"/>
<text text-anchor="middle" x="295.76" y="-878.3" font-family="Times,serif" font-size="14.00">START</text>
</g>
<!-- libtool -->
<g id="node2" class="node">
<title>libtool</title>
<ellipse fill="green" stroke="green" cx="295.76" cy="-810" rx="33.6" ry="18"/>
<text text-anchor="middle" x="295.76" y="-806.3" font-family="Times,serif" font-size="14.00">libtool</text>
</g>
<!-- START&#45;&gt;libtool -->
<g id="edge1" class="edge">
<title>START&#45;&gt;libtool</title>
<path fill="none" stroke="black" d="M295.76,-863.7C295.76,-855.98 295.76,-846.71 295.76,-838.11"/>
<polygon fill="black" stroke="black" points="299.26,-838.1 295.76,-828.1 292.26,-838.1 299.26,-838.1"/>
</g>
<!-- sh -->
<g id="node3" class="node">
<title>sh</title>
<ellipse fill="green" stroke="green" cx="240.76" cy="-738" rx="27" ry="18"/>
<text text-anchor="middle" x="240.76" y="-734.3" font-family="Times,serif" font-size="14.00">sh</text>
</g>
<!-- libtool&#45;&gt;sh -->
<g id="edge2" class="edge">
<title>libtool&#45;&gt;sh</title>
<path fill="none" stroke="#8b4513" d="M283.28,-793.12C276.15,-784.04 267.07,-772.49 259.14,-762.39"/>
<polygon fill="#8b4513" stroke="#8b4513" points="261.74,-760.04 252.81,-754.34 256.24,-764.37 261.74,-760.04"/>
</g>
<!-- glibc -->
<g id="node7" class="node">
<title>glibc</title>
<ellipse fill="green" stroke="green" cx="257.76" cy="-162" rx="28.7" ry="18"/>
<text text-anchor="middle" x="257.76" y="-158.3" font-family="Times,serif" font-size="14.00">glibc</text>
</g>
<!-- libtool&#45;&gt;glibc -->
<g id="edge27" class="edge">
<title>libtool&#45;&gt;glibc</title>
<path fill="none" stroke="#8b4513" d="M295.76,-791.95C295.76,-765.29 295.76,-712.11 295.76,-667 295.76,-667 295.76,-667 295.76,-305 295.76,-263.41 280.36,-217.22 269.16,-189.14"/>
<polygon fill="#8b4513" stroke="#8b4513" points="272.31,-187.58 265.27,-179.66 265.83,-190.24 272.31,-187.58"/>
</g>
<!-- tar -->
<g id="node17" class="node">
<title>tar</title>
<ellipse fill="green" stroke="green" cx="369.76" cy="-378" rx="27" ry="18"/>
<text text-anchor="middle" x="369.76" y="-374.3" font-family="Times,serif" font-size="14.00">tar</text>
</g>
<!-- libtool&#45;&gt;tar -->
<g id="edge21" class="edge">
<title>libtool&#45;&gt;tar</title>
<path fill="none" stroke="#8b4513" d="M304.85,-792.51C318.25,-766.61 341.76,-714.42 341.76,-667 341.76,-667 341.76,-667 341.76,-521 341.76,-480.23 353.01,-434.09 361.25,-405.77"/>
<polygon fill="#8b4513" stroke="#8b4513" points="364.71,-406.42 364.23,-395.84 358,-404.41 364.71,-406.42"/>
</g>
<!-- bash -->
<g id="node4" class="node">
<title>bash</title>
<ellipse fill="green" stroke="green" cx="174.76" cy="-666" rx="27" ry="18"/>
<text text-anchor="middle" x="174.76" y="-662.3" font-family="Times,serif" font-size="14.00">bash</text>
</g>
<!-- sh&#45;&gt;bash -->
<g id="edge3" class="edge">
<title>sh&#45;&gt;bash</title>
<path fill="none" stroke="grey" d="M226.76,-722.15C215.56,-710.28 199.93,-693.7 188.74,-681.82"/>
</g>
<!-- readline&gt;=7.0 -->
<g id="node5" class="node">
<title>readline&gt;=7.0</title>
<ellipse fill="green" stroke="green" cx="152.76" cy="-594" rx="61.19" ry="18"/>
<text text-anchor="middle" x="152.76" y="-590.3" font-family="Times,serif" font-size="14.00">readline&gt;=7.0</text>
</g>
<!-- bash&#45;&gt;readline&gt;=7.0 -->
<g id="edge4" class="edge">
<title>bash&#45;&gt;readline&gt;=7.0</title>
<path fill="none" stroke="#8b4513" d="M169.43,-648.05C166.98,-640.26 164.02,-630.82 161.27,-622.08"/>
<polygon fill="#8b4513" stroke="#8b4513" points="164.53,-620.77 158.19,-612.28 157.85,-622.86 164.53,-620.77"/>
</g>
<!-- bash&#45;&gt;glibc -->
<g id="edge19" class="edge">
<title>bash&#45;&gt;glibc</title>
<path fill="none" stroke="#8b4513" d="M189.98,-650.87C213.94,-627.01 257.76,-576.11 257.76,-523 257.76,-523 257.76,-523 257.76,-305 257.76,-265 257.76,-218.65 257.76,-190.08"/>
<polygon fill="#8b4513" stroke="#8b4513" points="261.26,-190.05 257.76,-180.05 254.26,-190.05 261.26,-190.05"/>
</g>
<!-- ncurses -->
<g id="node13" class="node">
<title>ncurses</title>
<ellipse fill="green" stroke="green" cx="98.76" cy="-378" rx="37.09" ry="18"/>
<text text-anchor="middle" x="98.76" y="-374.3" font-family="Times,serif" font-size="14.00">ncurses</text>
</g>
<!-- bash&#45;&gt;ncurses -->
<g id="edge20" class="edge">
<title>bash&#45;&gt;ncurses</title>
<path fill="none" stroke="#8b4513" d="M152.02,-656.15C131.84,-647.38 102.57,-632.33 82.76,-612 31.97,-559.86 22.64,-538.56 4.76,-468 0.83,-452.49 -3.31,-445.82 4.76,-432 16.21,-412.4 37.88,-399.48 57.53,-391.31"/>
<polygon fill="#8b4513" stroke="#8b4513" points="58.89,-394.53 66.96,-387.67 56.37,-388 58.89,-394.53"/>
</g>
<!-- readline -->
<g id="node6" class="node">
<title>readline</title>
<ellipse fill="green" stroke="green" cx="122.76" cy="-522" rx="38.99" ry="18"/>
<text text-anchor="middle" x="122.76" y="-518.3" font-family="Times,serif" font-size="14.00">readline</text>
</g>
<!-- readline&gt;=7.0&#45;&gt;readline -->
<g id="edge5" class="edge">
<title>readline&gt;=7.0&#45;&gt;readline</title>
<path fill="none" stroke="grey" d="M145.5,-576.05C140.78,-565.05 134.66,-550.76 129.95,-539.79"/>
</g>
<!-- readline&#45;&gt;glibc -->
<g id="edge6" class="edge">
<title>readline&#45;&gt;glibc</title>
<path fill="none" stroke="#8b4513" d="M150.3,-508.96C167.41,-500.08 188.42,-486.34 200.76,-468 223.33,-434.44 219.76,-419.45 219.76,-379 219.76,-379 219.76,-379 219.76,-305 219.76,-263.41 235.16,-217.22 246.35,-189.14"/>
<polygon fill="#8b4513" stroke="#8b4513" points="249.69,-190.24 250.25,-179.66 243.21,-187.58 249.69,-190.24"/>
</g>
<!-- readline&#45;&gt;ncurses -->
<g id="edge12" class="edge">
<title>readline&#45;&gt;ncurses</title>
<path fill="none" stroke="#8b4513" d="M87.7,-514.03C62.63,-507.01 30.61,-493.44 14.76,-468 6.3,-454.42 7.03,-446.01 14.76,-432 24.45,-414.42 42.71,-401.87 59.73,-393.4"/>
<polygon fill="#8b4513" stroke="#8b4513" points="61.39,-396.49 69,-389.12 58.45,-390.14 61.39,-396.49"/>
</g>
<!-- libncursesw.so=6&#45;64 -->
<g id="node16" class="node">
<title>libncursesw.so=6&#45;64</title>
<ellipse fill="green" stroke="green" cx="107.76" cy="-450" rx="83.69" ry="18"/>
<text text-anchor="middle" x="107.76" y="-446.3" font-family="Times,serif" font-size="14.00">libncursesw.so=6&#45;64</text>
</g>
<!-- readline&#45;&gt;libncursesw.so=6&#45;64 -->
<g id="edge17" class="edge">
<title>readline&#45;&gt;libncursesw.so=6&#45;64</title>
<path fill="none" stroke="#8b4513" d="M119.13,-504.05C117.46,-496.26 115.44,-486.82 113.56,-478.08"/>
<polygon fill="#8b4513" stroke="#8b4513" points="116.98,-477.32 111.46,-468.28 110.13,-478.79 116.98,-477.32"/>
</g>
<!-- linux&#45;api&#45;headers&gt;=4.10 -->
<g id="node8" class="node">
<title>linux&#45;api&#45;headers&gt;=4.10</title>
<ellipse fill="green" stroke="green" cx="109.76" cy="-90" rx="98.28" ry="18"/>
<text text-anchor="middle" x="109.76" y="-86.3" font-family="Times,serif" font-size="14.00">linux&#45;api&#45;headers&gt;=4.10</text>
</g>
<!-- glibc&#45;&gt;linux&#45;api&#45;headers&gt;=4.10 -->
<g id="edge7" class="edge">
<title>glibc&#45;&gt;linux&#45;api&#45;headers&gt;=4.10</title>
<path fill="none" stroke="#8b4513" d="M235.6,-150.52C213.82,-140.22 179.99,-124.22 152.89,-111.4"/>
<polygon fill="#8b4513" stroke="#8b4513" points="154.15,-108.12 143.61,-107.01 151.16,-114.45 154.15,-108.12"/>
</g>
<!-- tzdata -->
<g id="node10" class="node">
<title>tzdata</title>
<ellipse fill="green" stroke="green" cx="257.76" cy="-90" rx="31.7" ry="18"/>
<text text-anchor="middle" x="257.76" y="-86.3" font-family="Times,serif" font-size="14.00">tzdata</text>
</g>
<!-- glibc&#45;&gt;tzdata -->
<g id="edge9" class="edge">
<title>glibc&#45;&gt;tzdata</title>
<path fill="none" stroke="#8b4513" d="M257.76,-143.7C257.76,-135.98 257.76,-126.71 257.76,-118.11"/>
<polygon fill="#8b4513" stroke="#8b4513" points="261.26,-118.1 257.76,-108.1 254.26,-118.1 261.26,-118.1"/>
</g>
<!-- filesystem -->
<g id="node11" class="node">
<title>filesystem</title>
<ellipse fill="green" stroke="green" cx="354.76" cy="-90" rx="46.59" ry="18"/>
<text text-anchor="middle" x="354.76" y="-86.3" font-family="Times,serif" font-size="14.00">filesystem</text>
</g>
<!-- glibc&#45;&gt;filesystem -->
<g id="edge10" class="edge">
<title>glibc&#45;&gt;filesystem</title>
<path fill="none" stroke="#8b4513" d="M276,-147.83C289.8,-137.88 309.04,-123.99 325.05,-112.44"/>
<polygon fill="#8b4513" stroke="#8b4513" points="327.5,-114.99 333.56,-106.3 323.4,-109.31 327.5,-114.99"/>
</g>
<!-- linux&#45;api&#45;headers -->
<g id="node9" class="node">
<title>linux&#45;api&#45;headers</title>
<ellipse fill="green" stroke="green" cx="109.76" cy="-18" rx="71.49" ry="18"/>
<text text-anchor="middle" x="109.76" y="-14.3" font-family="Times,serif" font-size="14.00">linux&#45;api&#45;headers</text>
</g>
<!-- linux&#45;api&#45;headers&gt;=4.10&#45;&gt;linux&#45;api&#45;headers -->
<g id="edge8" class="edge">
<title>linux&#45;api&#45;headers&gt;=4.10&#45;&gt;linux&#45;api&#45;headers</title>
<path fill="none" stroke="grey" d="M109.76,-71.7C109.76,-60.85 109.76,-46.92 109.76,-36.1"/>
</g>
<!-- iana&#45;etc -->
<g id="node12" class="node">
<title>iana&#45;etc</title>
<ellipse fill="green" stroke="green" cx="354.76" cy="-18" rx="38.19" ry="18"/>
<text text-anchor="middle" x="354.76" y="-14.3" font-family="Times,serif" font-size="14.00">iana&#45;etc</text>
</g>
<!-- filesystem&#45;&gt;iana&#45;etc -->
<g id="edge11" class="edge">
<title>filesystem&#45;&gt;iana&#45;etc</title>
<path fill="none" stroke="#8b4513" d="M354.76,-71.7C354.76,-63.98 354.76,-54.71 354.76,-46.11"/>
<polygon fill="#8b4513" stroke="#8b4513" points="358.26,-46.1 354.76,-36.1 351.26,-46.1 358.26,-46.1"/>
</g>
<!-- ncurses&#45;&gt;glibc -->
<g id="edge13" class="edge">
<title>ncurses&#45;&gt;glibc</title>
<path fill="none" stroke="#8b4513" d="M114.12,-361.52C123.8,-351.34 136.23,-337.45 145.76,-324 177.5,-279.19 172.9,-259.99 205.76,-216 214.16,-204.75 224.82,-193.49 234.3,-184.25"/>
<polygon fill="#8b4513" stroke="#8b4513" points="236.75,-186.75 241.58,-177.32 231.93,-181.68 236.75,-186.75"/>
</g>
<!-- gcc&#45;libs -->
<g id="node14" class="node">
<title>gcc&#45;libs</title>
<ellipse fill="green" stroke="green" cx="98.76" cy="-306" rx="38.19" ry="18"/>
<text text-anchor="middle" x="98.76" y="-302.3" font-family="Times,serif" font-size="14.00">gcc&#45;libs</text>
</g>
<!-- ncurses&#45;&gt;gcc&#45;libs -->
<g id="edge14" class="edge">
<title>ncurses&#45;&gt;gcc&#45;libs</title>
<path fill="none" stroke="#8b4513" d="M98.76,-359.7C98.76,-351.98 98.76,-342.71 98.76,-334.11"/>
<polygon fill="#8b4513" stroke="#8b4513" points="102.26,-334.1 98.76,-324.1 95.26,-334.1 102.26,-334.1"/>
</g>
<!-- glibc&gt;=2.27 -->
<g id="node15" class="node">
<title>glibc&gt;=2.27</title>
<ellipse fill="green" stroke="green" cx="98.76" cy="-234" rx="54.69" ry="18"/>
<text text-anchor="middle" x="98.76" y="-230.3" font-family="Times,serif" font-size="14.00">glibc&gt;=2.27</text>
</g>
<!-- gcc&#45;libs&#45;&gt;glibc&gt;=2.27 -->
<g id="edge15" class="edge">
<title>gcc&#45;libs&#45;&gt;glibc&gt;=2.27</title>
<path fill="none" stroke="#8b4513" d="M98.76,-287.7C98.76,-279.98 98.76,-270.71 98.76,-262.11"/>
<polygon fill="#8b4513" stroke="#8b4513" points="102.26,-262.1 98.76,-252.1 95.26,-262.1 102.26,-262.1"/>
</g>
<!-- glibc&gt;=2.27&#45;&gt;glibc -->
<g id="edge16" class="edge">
<title>glibc&gt;=2.27&#45;&gt;glibc</title>
<path fill="none" stroke="grey" d="M130.17,-219.17C160.94,-205.62 207.11,-185.3 234.66,-173.17"/>
</g>
<!-- libncursesw.so=6&#45;64&#45;&gt;ncurses -->
<g id="edge18" class="edge">
<title>libncursesw.so=6&#45;64&#45;&gt;ncurses</title>
<path fill="none" stroke="grey" d="M105.53,-431.7C104.14,-420.85 102.35,-406.92 100.96,-396.1"/>
</g>
<!-- tar&#45;&gt;glibc -->
<g id="edge22" class="edge">
<title>tar&#45;&gt;glibc</title>
<path fill="none" stroke="#8b4513" d="M388.66,-364.94C401.5,-355.54 417.44,-341.21 424.76,-324 444.67,-277.17 424.42,-250.22 386.76,-216 360.66,-192.29 322.52,-178.41 294.47,-170.84"/>
<polygon fill="#8b4513" stroke="#8b4513" points="295.19,-167.41 284.64,-168.33 293.46,-174.19 295.19,-167.41"/>
</g>
<!-- acl -->
<g id="node18" class="node">
<title>acl</title>
<ellipse fill="green" stroke="green" cx="388.76" cy="-306" rx="27" ry="18"/>
<text text-anchor="middle" x="388.76" y="-302.3" font-family="Times,serif" font-size="14.00">acl</text>
</g>
<!-- tar&#45;&gt;acl -->
<g id="edge23" class="edge">
<title>tar&#45;&gt;acl</title>
<path fill="none" stroke="#8b4513" d="M374.36,-360.05C376.51,-352.14 379.11,-342.54 381.52,-333.69"/>
<polygon fill="#8b4513" stroke="#8b4513" points="384.96,-334.36 384.2,-323.79 378.2,-332.52 384.96,-334.36"/>
</g>
<!-- attr -->
<g id="node19" class="node">
<title>attr</title>
<ellipse fill="green" stroke="green" cx="350.76" cy="-234" rx="27" ry="18"/>
<text text-anchor="middle" x="350.76" y="-230.3" font-family="Times,serif" font-size="14.00">attr</text>
</g>
<!-- tar&#45;&gt;attr -->
<g id="edge26" class="edge">
<title>tar&#45;&gt;attr</title>
<path fill="none" stroke="#8b4513" d="M362.97,-360.12C359.19,-349.86 354.84,-336.39 352.76,-324 349.32,-303.55 348.94,-280.09 349.35,-262.4"/>
<polygon fill="#8b4513" stroke="#8b4513" points="352.86,-262.31 349.69,-252.2 345.86,-262.08 352.86,-262.31"/>
</g>
<!-- acl&#45;&gt;attr -->
<g id="edge24" class="edge">
<title>acl&#45;&gt;attr</title>
<path fill="none" stroke="#8b4513" d="M379.95,-288.76C375.34,-280.28 369.6,-269.71 364.44,-260.2"/>
<polygon fill="#8b4513" stroke="#8b4513" points="367.37,-258.27 359.52,-251.15 361.22,-261.61 367.37,-258.27"/>
</g>
<!-- attr&#45;&gt;glibc -->
<g id="edge25" class="edge">
<title>attr&#45;&gt;glibc</title>
<path fill="none" stroke="#8b4513" d="M333.27,-219.83C319.33,-209.34 299.6,-194.49 283.8,-182.6"/>
<polygon fill="#8b4513" stroke="#8b4513" points="285.58,-179.56 275.49,-176.35 281.37,-185.16 285.58,-179.56"/>
</g>
</g>
</svg>
