<?xml version="1.0" encoding="UTF-8" standalone="no"?>
<!DOCTYPE svg PUBLIC "-//W3C//DTD SVG 1.1//EN"
 "http://www.w3.org/Graphics/SVG/1.1/DTD/svg11.dtd">
<!-- Generated by graphviz version 2.44.0 (0)
 -->
<!-- Title: G Pages: 1 -->
<svg width="506pt" height="1052pt"
 viewBox="0.00 0.00 506.15 1052.00" xmlns="http://www.w3.org/2000/svg" xmlns:xlink="http://www.w3.org/1999/xlink">
<g id="graph0" class="graph" transform="scale(1 1) rotate(0) translate(4 1048)">
<title>G</title>
<polygon fill="white" stroke="transparent" points="-4,4 -4,-1048 502.15,-1048 502.15,4 -4,4"/>
<!-- START -->
<g id="node1" class="node">
<title>START</title>
<ellipse fill="red" stroke="red" cx="185.54" cy="-1026" rx="38.19" ry="18"/>
<text text-anchor="middle" x="185.54" y="-1022.3" font-family="Times,serif" font-size="14.00">START</text>
</g>
<!-- libtiff -->
<g id="node2" class="node">
<title>libtiff</title>
<ellipse fill="green" stroke="green" cx="185.54" cy="-954" rx="30.59" ry="18"/>
<text text-anchor="middle" x="185.54" y="-950.3" font-family="Times,serif" font-size="14.00">libtiff</text>
</g>
<!-- START&#45;&gt;libtiff -->
<g id="edge1" class="edge">
<title>START&#45;&gt;libtiff</title>
<path fill="none" stroke="black" d="M185.54,-1007.7C185.54,-999.98 185.54,-990.71 185.54,-982.11"/>
<polygon fill="black" stroke="black" points="189.05,-982.1 185.54,-972.1 182.05,-982.1 189.05,-982.1"/>
</g>
<!-- libjpeg -->
<g id="node3" class="node">
<title>libjpeg</title>
<ellipse fill="green" stroke="green" cx="76.54" cy="-882" rx="35.19" ry="18"/>
<text text-anchor="middle" x="76.54" y="-878.3" font-family="Times,serif" font-size="14.00">libjpeg</text>
</g>
<!-- libtiff&#45;&gt;libjpeg -->
<g id="edge2" class="edge">
<title>libtiff&#45;&gt;libjpeg</title>
<path fill="none" stroke="#8b4513" d="M165.55,-940.16C148.89,-929.46 124.92,-914.07 106.06,-901.95"/>
<polygon fill="#8b4513" stroke="#8b4513" points="107.83,-898.93 97.52,-896.47 104.05,-904.82 107.83,-898.93"/>
</g>
<!-- zlib -->
<g id="node5" class="node">
<title>zlib</title>
<ellipse fill="green" stroke="green" cx="158.54" cy="-810" rx="27" ry="18"/>
<text text-anchor="middle" x="158.54" y="-806.3" font-family="Times,serif" font-size="14.00">zlib</text>
</g>
<!-- libtiff&#45;&gt;zlib -->
<g id="edge4" class="edge">
<title>libtiff&#45;&gt;zlib</title>
<path fill="none" stroke="#8b4513" d="M182.29,-935.87C177.69,-911.67 169.23,-867.21 163.75,-838.39"/>
<polygon fill="#8b4513" stroke="#8b4513" points="167.12,-837.36 161.81,-828.19 160.24,-838.67 167.12,-837.36"/>
</g>
<!-- xz -->
<g id="node12" class="node">
<title>xz</title>
<ellipse fill="green" stroke="green" cx="268.54" cy="-810" rx="27" ry="18"/>
<text text-anchor="middle" x="268.54" y="-806.3" font-family="Times,serif" font-size="14.00">xz</text>
</g>
<!-- libtiff&#45;&gt;xz -->
<g id="edge11" class="edge">
<title>libtiff&#45;&gt;xz</title>
<path fill="none" stroke="#8b4513" d="M206.61,-940.86C220.92,-931.51 239.08,-917.27 249.54,-900 260.84,-881.36 265.48,-856.97 267.35,-838.44"/>
<polygon fill="#8b4513" stroke="#8b4513" points="270.86,-838.54 268.17,-828.29 263.88,-837.98 270.86,-838.54"/>
</g>
<!-- zstd -->
<g id="node21" class="node">
<title>zstd</title>
<ellipse fill="green" stroke="green" cx="213.54" cy="-882" rx="27" ry="18"/>
<text text-anchor="middle" x="213.54" y="-878.3" font-family="Times,serif" font-size="14.00">zstd</text>
</g>
<!-- libtiff&#45;&gt;zstd -->
<g id="edge26" class="edge">
<title>libtiff&#45;&gt;zstd</title>
<path fill="none" stroke="#8b4513" d="M192.18,-936.41C195.46,-928.22 199.49,-918.14 203.16,-908.95"/>
<polygon fill="#8b4513" stroke="#8b4513" points="206.49,-910.05 206.96,-899.47 199.99,-907.45 206.49,-910.05"/>
</g>
<!-- libjpeg&#45;turbo -->
<g id="node4" class="node">
<title>libjpeg&#45;turbo</title>
<ellipse fill="green" stroke="green" cx="56.54" cy="-810" rx="56.59" ry="18"/>
<text text-anchor="middle" x="56.54" y="-806.3" font-family="Times,serif" font-size="14.00">libjpeg&#45;turbo</text>
</g>
<!-- libjpeg&#45;&gt;libjpeg&#45;turbo -->
<g id="edge3" class="edge">
<title>libjpeg&#45;&gt;libjpeg&#45;turbo</title>
<path fill="none" stroke="grey" d="M71.7,-864.05C68.61,-853.21 64.6,-839.18 61.48,-828.28"/>
</g>
<!-- glibc -->
<g id="node6" class="node">
<title>glibc</title>
<ellipse fill="green" stroke="green" cx="275.54" cy="-162" rx="28.7" ry="18"/>
<text text-anchor="middle" x="275.54" y="-158.3" font-family="Times,serif" font-size="14.00">glibc</text>
</g>
<!-- zlib&#45;&gt;glibc -->
<g id="edge5" class="edge">
<title>zlib&#45;&gt;glibc</title>
<path fill="none" stroke="#8b4513" d="M158.54,-791.95C158.54,-765.29 158.54,-712.11 158.54,-667 158.54,-667 158.54,-667 158.54,-305 158.54,-249.73 212,-204.3 246.65,-180.66"/>
<polygon fill="#8b4513" stroke="#8b4513" points="249.02,-183.29 255.43,-174.85 245.16,-177.45 249.02,-183.29"/>
</g>
<!-- linux&#45;api&#45;headers&gt;=4.10 -->
<g id="node7" class="node">
<title>linux&#45;api&#45;headers&gt;=4.10</title>
<ellipse fill="green" stroke="green" cx="127.54" cy="-90" rx="98.28" ry="18"/>
<text text-anchor="middle" x="127.54" y="-86.3" font-family="Times,serif" font-size="14.00">linux&#45;api&#45;headers&gt;=4.10</text>
</g>
<!-- glibc&#45;&gt;linux&#45;api&#45;headers&gt;=4.10 -->
<g id="edge6" class="edge">
<title>glibc&#45;&gt;linux&#45;api&#45;headers&gt;=4.10</title>
<path fill="none" stroke="#8b4513" d="M253.39,-150.52C231.6,-140.22 197.77,-124.22 170.67,-111.4"/>
<polygon fill="#8b4513" stroke="#8b4513" points="171.94,-108.12 161.4,-107.01 168.94,-114.45 171.94,-108.12"/>
</g>
<!-- tzdata -->
<g id="node9" class="node">
<title>tzdata</title>
<ellipse fill="green" stroke="green" cx="275.54" cy="-90" rx="31.7" ry="18"/>
<text text-anchor="middle" x="275.54" y="-86.3" font-family="Times,serif" font-size="14.00">tzdata</text>
</g>
<!-- glibc&#45;&gt;tzdata -->
<g id="edge8" class="edge">
<title>glibc&#45;&gt;tzdata</title>
<path fill="none" stroke="#8b4513" d="M275.54,-143.7C275.54,-135.98 275.54,-126.71 275.54,-118.11"/>
<polygon fill="#8b4513" stroke="#8b4513" points="279.05,-118.1 275.54,-108.1 272.05,-118.1 279.05,-118.1"/>
</g>
<!-- filesystem -->
<g id="node10" class="node">
<title>filesystem</title>
<ellipse fill="green" stroke="green" cx="372.54" cy="-90" rx="46.59" ry="18"/>
<text text-anchor="middle" x="372.54" y="-86.3" font-family="Times,serif" font-size="14.00">filesystem</text>
</g>
<!-- glibc&#45;&gt;filesystem -->
<g id="edge9" class="edge">
<title>glibc&#45;&gt;filesystem</title>
<path fill="none" stroke="#8b4513" d="M293.79,-147.83C307.59,-137.88 326.83,-123.99 342.84,-112.44"/>
<polygon fill="#8b4513" stroke="#8b4513" points="345.28,-114.99 351.34,-106.3 341.19,-109.31 345.28,-114.99"/>
</g>
<!-- linux&#45;api&#45;headers -->
<g id="node8" class="node">
<title>linux&#45;api&#45;headers</title>
<ellipse fill="green" stroke="green" cx="127.54" cy="-18" rx="71.49" ry="18"/>
<text text-anchor="middle" x="127.54" y="-14.3" font-family="Times,serif" font-size="14.00">linux&#45;api&#45;headers</text>
</g>
<!-- linux&#45;api&#45;headers&gt;=4.10&#45;&gt;linux&#45;api&#45;headers -->
<g id="edge7" class="edge">
<title>linux&#45;api&#45;headers&gt;=4.10&#45;&gt;linux&#45;api&#45;headers</title>
<path fill="none" stroke="grey" d="M127.54,-71.7C127.54,-60.85 127.54,-46.92 127.54,-36.1"/>
</g>
<!-- iana&#45;etc -->
<g id="node11" class="node">
<title>iana&#45;etc</title>
<ellipse fill="green" stroke="green" cx="372.54" cy="-18" rx="38.19" ry="18"/>
<text text-anchor="middle" x="372.54" y="-14.3" font-family="Times,serif" font-size="14.00">iana&#45;etc</text>
</g>
<!-- filesystem&#45;&gt;iana&#45;etc -->
<g id="edge10" class="edge">
<title>filesystem&#45;&gt;iana&#45;etc</title>
<path fill="none" stroke="#8b4513" d="M372.54,-71.7C372.54,-63.98 372.54,-54.71 372.54,-46.11"/>
<polygon fill="#8b4513" stroke="#8b4513" points="376.05,-46.1 372.54,-36.1 369.05,-46.1 376.05,-46.1"/>
</g>
<!-- sh -->
<g id="node13" class="node">
<title>sh</title>
<ellipse fill="green" stroke="green" cx="334.54" cy="-738" rx="27" ry="18"/>
<text text-anchor="middle" x="334.54" y="-734.3" font-family="Times,serif" font-size="14.00">sh</text>
</g>
<!-- xz&#45;&gt;sh -->
<g id="edge12" class="edge">
<title>xz&#45;&gt;sh</title>
<path fill="none" stroke="#8b4513" d="M282.54,-794.15C291.55,-784.6 303.44,-771.99 313.57,-761.25"/>
<polygon fill="#8b4513" stroke="#8b4513" points="316.25,-763.5 320.57,-753.82 311.16,-758.7 316.25,-763.5"/>
</g>
<!-- bash -->
<g id="node14" class="node">
<title>bash</title>
<ellipse fill="green" stroke="green" cx="340.54" cy="-666" rx="27" ry="18"/>
<text text-anchor="middle" x="340.54" y="-662.3" font-family="Times,serif" font-size="14.00">bash</text>
</g>
<!-- sh&#45;&gt;bash -->
<g id="edge13" class="edge">
<title>sh&#45;&gt;bash</title>
<path fill="none" stroke="grey" d="M336.03,-719.7C336.96,-708.85 338.15,-694.92 339.08,-684.1"/>
</g>
<!-- bash&#45;&gt;glibc -->
<g id="edge24" class="edge">
<title>bash&#45;&gt;glibc</title>
<path fill="none" stroke="#8b4513" d="M322.08,-652.51C291.71,-630.31 234.54,-580.84 234.54,-523 234.54,-523 234.54,-523 234.54,-305 234.54,-263.18 251.16,-217.05 263.24,-189.05"/>
<polygon fill="#8b4513" stroke="#8b4513" points="266.58,-190.16 267.44,-179.6 260.18,-187.31 266.58,-190.16"/>
</g>
<!-- readline&gt;=7.0 -->
<g id="node15" class="node">
<title>readline&gt;=7.0</title>
<ellipse fill="green" stroke="green" cx="347.54" cy="-594" rx="61.19" ry="18"/>
<text text-anchor="middle" x="347.54" y="-590.3" font-family="Times,serif" font-size="14.00">readline&gt;=7.0</text>
</g>
<!-- bash&#45;&gt;readline&gt;=7.0 -->
<g id="edge14" class="edge">
<title>bash&#45;&gt;readline&gt;=7.0</title>
<path fill="none" stroke="#8b4513" d="M342.28,-647.7C343.05,-639.98 343.97,-630.71 344.83,-622.11"/>
<polygon fill="#8b4513" stroke="#8b4513" points="348.32,-622.4 345.83,-612.1 341.36,-621.71 348.32,-622.4"/>
</g>
<!-- ncurses -->
<g id="node17" class="node">
<title>ncurses</title>
<ellipse fill="green" stroke="green" cx="384.54" cy="-378" rx="37.09" ry="18"/>
<text text-anchor="middle" x="384.54" y="-374.3" font-family="Times,serif" font-size="14.00">ncurses</text>
</g>
<!-- bash&#45;&gt;ncurses -->
<g id="edge25" class="edge">
<title>bash&#45;&gt;ncurses</title>
<path fill="none" stroke="#8b4513" d="M362.02,-654.62C379.04,-645.45 402.42,-630.66 417.54,-612 461.22,-558.15 463.95,-535.99 477.54,-468 480.68,-452.31 485.58,-445.83 477.54,-432 466.23,-412.53 444.79,-399.62 425.35,-391.42"/>
<polygon fill="#8b4513" stroke="#8b4513" points="426.6,-388.15 416.02,-387.76 424.05,-394.67 426.6,-388.15"/>
</g>
<!-- readline -->
<g id="node16" class="node">
<title>readline</title>
<ellipse fill="green" stroke="green" cx="359.54" cy="-522" rx="38.99" ry="18"/>
<text text-anchor="middle" x="359.54" y="-518.3" font-family="Times,serif" font-size="14.00">readline</text>
</g>
<!-- readline&gt;=7.0&#45;&gt;readline -->
<g id="edge15" class="edge">
<title>readline&gt;=7.0&#45;&gt;readline</title>
<path fill="none" stroke="grey" d="M350.51,-575.7C352.37,-564.85 354.76,-550.92 356.61,-540.1"/>
</g>
<!-- readline&#45;&gt;glibc -->
<g id="edge16" class="edge">
<title>readline&#45;&gt;glibc</title>
<path fill="none" stroke="#8b4513" d="M394.77,-514.18C421.46,-507.16 456.94,-493.51 477.54,-468 502.96,-436.54 496.54,-419.45 496.54,-379 496.54,-379 496.54,-379 496.54,-305 496.54,-218.81 376.11,-182.49 313.06,-169.38"/>
<polygon fill="#8b4513" stroke="#8b4513" points="313.58,-165.92 303.09,-167.4 312.22,-172.78 313.58,-165.92"/>
</g>
<!-- readline&#45;&gt;ncurses -->
<g id="edge17" class="edge">
<title>readline&#45;&gt;ncurses</title>
<path fill="none" stroke="#8b4513" d="M333.59,-508.44C318.29,-499.49 300.28,-485.89 291.54,-468 284.52,-453.62 283.51,-445.83 291.54,-432 302.86,-412.53 324.3,-399.62 343.74,-391.42"/>
<polygon fill="#8b4513" stroke="#8b4513" points="345.04,-394.67 353.07,-387.76 342.49,-388.15 345.04,-394.67"/>
</g>
<!-- libncursesw.so=6&#45;64 -->
<g id="node20" class="node">
<title>libncursesw.so=6&#45;64</title>
<ellipse fill="green" stroke="green" cx="384.54" cy="-450" rx="83.69" ry="18"/>
<text text-anchor="middle" x="384.54" y="-446.3" font-family="Times,serif" font-size="14.00">libncursesw.so=6&#45;64</text>
</g>
<!-- readline&#45;&gt;libncursesw.so=6&#45;64 -->
<g id="edge22" class="edge">
<title>readline&#45;&gt;libncursesw.so=6&#45;64</title>
<path fill="none" stroke="#8b4513" d="M365.6,-504.05C368.41,-496.18 371.82,-486.62 374.98,-477.79"/>
<polygon fill="#8b4513" stroke="#8b4513" points="378.31,-478.87 378.38,-468.28 371.72,-476.52 378.31,-478.87"/>
</g>
<!-- ncurses&#45;&gt;glibc -->
<g id="edge18" class="edge">
<title>ncurses&#45;&gt;glibc</title>
<path fill="none" stroke="#8b4513" d="M389.57,-359.87C397.68,-328.55 410.04,-261.16 381.54,-216 366.37,-191.94 336.67,-178.41 312.56,-171.06"/>
<polygon fill="#8b4513" stroke="#8b4513" points="313.2,-167.6 302.63,-168.27 311.31,-174.34 313.2,-167.6"/>
</g>
<!-- gcc&#45;libs -->
<g id="node18" class="node">
<title>gcc&#45;libs</title>
<ellipse fill="green" stroke="green" cx="326.54" cy="-306" rx="38.19" ry="18"/>
<text text-anchor="middle" x="326.54" y="-302.3" font-family="Times,serif" font-size="14.00">gcc&#45;libs</text>
</g>
<!-- ncurses&#45;&gt;gcc&#45;libs -->
<g id="edge19" class="edge">
<title>ncurses&#45;&gt;gcc&#45;libs</title>
<path fill="none" stroke="#8b4513" d="M371.38,-361.12C364.07,-352.29 354.82,-341.13 346.63,-331.24"/>
<polygon fill="#8b4513" stroke="#8b4513" points="349.13,-328.77 340.06,-323.31 343.74,-333.24 349.13,-328.77"/>
</g>
<!-- glibc&gt;=2.27 -->
<g id="node19" class="node">
<title>glibc&gt;=2.27</title>
<ellipse fill="green" stroke="green" cx="317.54" cy="-234" rx="54.69" ry="18"/>
<text text-anchor="middle" x="317.54" y="-230.3" font-family="Times,serif" font-size="14.00">glibc&gt;=2.27</text>
</g>
<!-- gcc&#45;libs&#45;&gt;glibc&gt;=2.27 -->
<g id="edge20" class="edge">
<title>gcc&#45;libs&#45;&gt;glibc&gt;=2.27</title>
<path fill="none" stroke="#8b4513" d="M324.32,-287.7C323.33,-279.98 322.14,-270.71 321.03,-262.11"/>
<polygon fill="#8b4513" stroke="#8b4513" points="324.49,-261.58 319.74,-252.1 317.55,-262.47 324.49,-261.58"/>
</g>
<!-- glibc&gt;=2.27&#45;&gt;glibc -->
<g id="edge21" class="edge">
<title>glibc&gt;=2.27&#45;&gt;glibc</title>
<path fill="none" stroke="grey" d="M307.38,-216.05C300.68,-204.89 291.95,-190.34 285.33,-179.31"/>
</g>
<!-- libncursesw.so=6&#45;64&#45;&gt;ncurses -->
<g id="edge23" class="edge">
<title>libncursesw.so=6&#45;64&#45;&gt;ncurses</title>
<path fill="none" stroke="grey" d="M384.54,-431.7C384.54,-420.85 384.54,-406.92 384.54,-396.1"/>
</g>
<!-- zstd&#45;&gt;zlib -->
<g id="edge27" class="edge">
<title>zstd&#45;&gt;zlib</title>
<path fill="none" stroke="#8b4513" d="M201.61,-865.81C194.33,-856.55 184.88,-844.52 176.69,-834.09"/>
<polygon fill="#8b4513" stroke="#8b4513" points="179.39,-831.86 170.46,-826.16 173.88,-836.18 179.39,-831.86"/>
</g>
<!-- zstd&#45;&gt;xz -->
<g id="edge28" class="edge">
<title>zstd&#45;&gt;xz</title>
<path fill="none" stroke="#8b4513" d="M225.48,-865.81C232.76,-856.55 242.21,-844.52 250.4,-834.09"/>
<polygon fill="#8b4513" stroke="#8b4513" points="253.21,-836.18 256.63,-826.16 247.7,-831.86 253.21,-836.18"/>
</g>
<!-- lz4 -->
<g id="node22" class="node">
<title>lz4</title>
<ellipse fill="green" stroke="green" cx="213.54" cy="-738" rx="27" ry="18"/>
<text text-anchor="middle" x="213.54" y="-734.3" font-family="Times,serif" font-size="14.00">lz4</text>
</g>
<!-- zstd&#45;&gt;lz4 -->
<g id="edge29" class="edge">
<title>zstd&#45;&gt;lz4</title>
<path fill="none" stroke="#8b4513" d="M213.54,-863.87C213.54,-839.67 213.54,-795.21 213.54,-766.39"/>
<polygon fill="#8b4513" stroke="#8b4513" points="217.05,-766.19 213.54,-756.19 210.05,-766.19 217.05,-766.19"/>
</g>
<!-- lz4&#45;&gt;glibc -->
<g id="edge30" class="edge">
<title>lz4&#45;&gt;glibc</title>
<path fill="none" stroke="#8b4513" d="M210.19,-720.03C205.23,-693.48 196.54,-640.44 196.54,-595 196.54,-595 196.54,-595 196.54,-305 196.54,-257.7 230.43,-211.45 253.81,-185.16"/>
<polygon fill="#8b4513" stroke="#8b4513" points="256.51,-187.4 260.69,-177.67 251.35,-182.67 256.51,-187.4"/>
</g>
</g>
</svg>
