<?xml version="1.0" encoding="UTF-8" standalone="no"?>
<!DOCTYPE svg PUBLIC "-//W3C//DTD SVG 1.1//EN"
 "http://www.w3.org/Graphics/SVG/1.1/DTD/svg11.dtd">
<!-- Generated by graphviz version 2.44.0 (0)
 -->
<!-- Title: G Pages: 1 -->
<svg width="551pt" height="1556pt"
 viewBox="0.00 0.00 551.14 1556.00" xmlns="http://www.w3.org/2000/svg" xmlns:xlink="http://www.w3.org/1999/xlink">
<g id="graph0" class="graph" transform="scale(1 1) rotate(0) translate(4 1552)">
<title>G</title>
<polygon fill="white" stroke="transparent" points="-4,4 -4,-1552 547.14,-1552 547.14,4 -4,4"/>
<!-- START -->
<g id="node1" class="node">
<title>START</title>
<ellipse fill="red" stroke="red" cx="82.14" cy="-1530" rx="38.19" ry="18"/>
<text text-anchor="middle" x="82.14" y="-1526.3" font-family="Times,serif" font-size="14.00">START</text>
</g>
<!-- libuv -->
<g id="node2" class="node">
<title>libuv</title>
<ellipse fill="green" stroke="green" cx="82.14" cy="-1458" rx="28.7" ry="18"/>
<text text-anchor="middle" x="82.14" y="-1454.3" font-family="Times,serif" font-size="14.00">libuv</text>
</g>
<!-- START&#45;&gt;libuv -->
<g id="edge1" class="edge">
<title>START&#45;&gt;libuv</title>
<path fill="none" stroke="black" d="M82.14,-1511.7C82.14,-1503.98 82.14,-1494.71 82.14,-1486.11"/>
<polygon fill="black" stroke="black" points="85.64,-1486.1 82.14,-1476.1 78.64,-1486.1 85.64,-1486.1"/>
</g>
<!-- glibc -->
<g id="node3" class="node">
<title>glibc</title>
<ellipse fill="green" stroke="green" cx="246.14" cy="-162" rx="28.7" ry="18"/>
<text text-anchor="middle" x="246.14" y="-158.3" font-family="Times,serif" font-size="14.00">glibc</text>
</g>
<!-- libuv&#45;&gt;glibc -->
<g id="edge2" class="edge">
<title>libuv&#45;&gt;glibc</title>
<path fill="none" stroke="#8b4513" d="M76.41,-1440.18C67.96,-1413.82 53.14,-1361.05 53.14,-1315 53.14,-1315 53.14,-1315 53.14,-305 53.14,-259.41 69.39,-245.5 104.14,-216 134.24,-190.45 177.84,-176.64 208.77,-169.59"/>
<polygon fill="#8b4513" stroke="#8b4513" points="209.69,-172.97 218.73,-167.45 208.22,-166.13 209.69,-172.97"/>
</g>
<!-- libnsl -->
<g id="node9" class="node">
<title>libnsl</title>
<ellipse fill="green" stroke="green" cx="161.14" cy="-1386" rx="30.59" ry="18"/>
<text text-anchor="middle" x="161.14" y="-1382.3" font-family="Times,serif" font-size="14.00">libnsl</text>
</g>
<!-- libuv&#45;&gt;libnsl -->
<g id="edge8" class="edge">
<title>libuv&#45;&gt;libnsl</title>
<path fill="none" stroke="#8b4513" d="M98.13,-1442.83C109.4,-1432.84 124.7,-1419.29 137.4,-1408.04"/>
<polygon fill="#8b4513" stroke="#8b4513" points="139.74,-1410.64 144.91,-1401.38 135.1,-1405.4 139.74,-1410.64"/>
</g>
<!-- linux&#45;api&#45;headers&gt;=4.10 -->
<g id="node4" class="node">
<title>linux&#45;api&#45;headers&gt;=4.10</title>
<ellipse fill="green" stroke="green" cx="98.14" cy="-90" rx="98.28" ry="18"/>
<text text-anchor="middle" x="98.14" y="-86.3" font-family="Times,serif" font-size="14.00">linux&#45;api&#45;headers&gt;=4.10</text>
</g>
<!-- glibc&#45;&gt;linux&#45;api&#45;headers&gt;=4.10 -->
<g id="edge3" class="edge">
<title>glibc&#45;&gt;linux&#45;api&#45;headers&gt;=4.10</title>
<path fill="none" stroke="#8b4513" d="M223.98,-150.52C202.2,-140.22 168.37,-124.22 141.27,-111.4"/>
<polygon fill="#8b4513" stroke="#8b4513" points="142.53,-108.12 132,-107.01 139.54,-114.45 142.53,-108.12"/>
</g>
<!-- tzdata -->
<g id="node6" class="node">
<title>tzdata</title>
<ellipse fill="green" stroke="green" cx="246.14" cy="-90" rx="31.7" ry="18"/>
<text text-anchor="middle" x="246.14" y="-86.3" font-family="Times,serif" font-size="14.00">tzdata</text>
</g>
<!-- glibc&#45;&gt;tzdata -->
<g id="edge5" class="edge">
<title>glibc&#45;&gt;tzdata</title>
<path fill="none" stroke="#8b4513" d="M246.14,-143.7C246.14,-135.98 246.14,-126.71 246.14,-118.11"/>
<polygon fill="#8b4513" stroke="#8b4513" points="249.64,-118.1 246.14,-108.1 242.64,-118.1 249.64,-118.1"/>
</g>
<!-- filesystem -->
<g id="node7" class="node">
<title>filesystem</title>
<ellipse fill="green" stroke="green" cx="343.14" cy="-90" rx="46.59" ry="18"/>
<text text-anchor="middle" x="343.14" y="-86.3" font-family="Times,serif" font-size="14.00">filesystem</text>
</g>
<!-- glibc&#45;&gt;filesystem -->
<g id="edge6" class="edge">
<title>glibc&#45;&gt;filesystem</title>
<path fill="none" stroke="#8b4513" d="M264.39,-147.83C278.19,-137.88 297.42,-123.99 313.43,-112.44"/>
<polygon fill="#8b4513" stroke="#8b4513" points="315.88,-114.99 321.94,-106.3 311.78,-109.31 315.88,-114.99"/>
</g>
<!-- linux&#45;api&#45;headers -->
<g id="node5" class="node">
<title>linux&#45;api&#45;headers</title>
<ellipse fill="green" stroke="green" cx="98.14" cy="-18" rx="71.49" ry="18"/>
<text text-anchor="middle" x="98.14" y="-14.3" font-family="Times,serif" font-size="14.00">linux&#45;api&#45;headers</text>
</g>
<!-- linux&#45;api&#45;headers&gt;=4.10&#45;&gt;linux&#45;api&#45;headers -->
<g id="edge4" class="edge">
<title>linux&#45;api&#45;headers&gt;=4.10&#45;&gt;linux&#45;api&#45;headers</title>
<path fill="none" stroke="grey" d="M98.14,-71.7C98.14,-60.85 98.14,-46.92 98.14,-36.1"/>
</g>
<!-- iana&#45;etc -->
<g id="node8" class="node">
<title>iana&#45;etc</title>
<ellipse fill="green" stroke="green" cx="343.14" cy="-18" rx="38.19" ry="18"/>
<text text-anchor="middle" x="343.14" y="-14.3" font-family="Times,serif" font-size="14.00">iana&#45;etc</text>
</g>
<!-- filesystem&#45;&gt;iana&#45;etc -->
<g id="edge7" class="edge">
<title>filesystem&#45;&gt;iana&#45;etc</title>
<path fill="none" stroke="#8b4513" d="M343.14,-71.7C343.14,-63.98 343.14,-54.71 343.14,-46.11"/>
<polygon fill="#8b4513" stroke="#8b4513" points="346.64,-46.1 343.14,-36.1 339.64,-46.1 346.64,-46.1"/>
</g>
<!-- libtirpc -->
<g id="node10" class="node">
<title>libtirpc</title>
<ellipse fill="green" stroke="green" cx="186.14" cy="-1314" rx="36.29" ry="18"/>
<text text-anchor="middle" x="186.14" y="-1310.3" font-family="Times,serif" font-size="14.00">libtirpc</text>
</g>
<!-- libnsl&#45;&gt;libtirpc -->
<g id="edge9" class="edge">
<title>libnsl&#45;&gt;libtirpc</title>
<path fill="none" stroke="#8b4513" d="M167.19,-1368.05C170.05,-1360.06 173.52,-1350.33 176.71,-1341.4"/>
<polygon fill="#8b4513" stroke="#8b4513" points="180.08,-1342.38 180.15,-1331.79 173.49,-1340.03 180.08,-1342.38"/>
</g>
<!-- krb5 -->
<g id="node11" class="node">
<title>krb5</title>
<ellipse fill="green" stroke="green" cx="210.14" cy="-1242" rx="27.1" ry="18"/>
<text text-anchor="middle" x="210.14" y="-1238.3" font-family="Times,serif" font-size="14.00">krb5</text>
</g>
<!-- libtirpc&#45;&gt;krb5 -->
<g id="edge10" class="edge">
<title>libtirpc&#45;&gt;krb5</title>
<path fill="none" stroke="#8b4513" d="M191.95,-1296.05C194.69,-1288.06 198.03,-1278.33 201.09,-1269.4"/>
<polygon fill="#8b4513" stroke="#8b4513" points="204.45,-1270.38 204.39,-1259.79 197.83,-1268.11 204.45,-1270.38"/>
</g>
<!-- e2fsprogs -->
<g id="node12" class="node">
<title>e2fsprogs</title>
<ellipse fill="green" stroke="green" cx="242.14" cy="-1098" rx="44.69" ry="18"/>
<text text-anchor="middle" x="242.14" y="-1094.3" font-family="Times,serif" font-size="14.00">e2fsprogs</text>
</g>
<!-- krb5&#45;&gt;e2fsprogs -->
<g id="edge11" class="edge">
<title>krb5&#45;&gt;e2fsprogs</title>
<path fill="none" stroke="#8b4513" d="M214.49,-1223.85C217.08,-1213.48 220.39,-1200 223.14,-1188 227.88,-1167.34 232.87,-1143.89 236.55,-1126.25"/>
<polygon fill="#8b4513" stroke="#8b4513" points="240.05,-1126.6 238.65,-1116.1 233.19,-1125.18 240.05,-1126.6"/>
</g>
<!-- libldap -->
<g id="node22" class="node">
<title>libldap</title>
<ellipse fill="green" stroke="green" cx="179.14" cy="-1170" rx="35.19" ry="18"/>
<text text-anchor="middle" x="179.14" y="-1166.3" font-family="Times,serif" font-size="14.00">libldap</text>
</g>
<!-- krb5&#45;&gt;libldap -->
<g id="edge27" class="edge">
<title>krb5&#45;&gt;libldap</title>
<path fill="none" stroke="#8b4513" d="M202.79,-1224.41C199.22,-1216.34 194.83,-1206.43 190.81,-1197.35"/>
<polygon fill="#8b4513" stroke="#8b4513" points="193.9,-1195.68 186.65,-1187.96 187.5,-1198.52 193.9,-1195.68"/>
</g>
<!-- keyutils -->
<g id="node29" class="node">
<title>keyutils</title>
<ellipse fill="green" stroke="green" cx="389.14" cy="-810" rx="38.19" ry="18"/>
<text text-anchor="middle" x="389.14" y="-806.3" font-family="Times,serif" font-size="14.00">keyutils</text>
</g>
<!-- krb5&#45;&gt;keyutils -->
<g id="edge42" class="edge">
<title>krb5&#45;&gt;keyutils</title>
<path fill="none" stroke="#8b4513" d="M234.13,-1233.08C279.9,-1216.29 375.14,-1172.51 375.14,-1099 375.14,-1099 375.14,-1099 375.14,-953 375.14,-912.8 380.77,-866.51 384.89,-838"/>
<polygon fill="#8b4513" stroke="#8b4513" points="388.36,-838.4 386.38,-828 381.44,-837.37 388.36,-838.4"/>
</g>
<!-- sh -->
<g id="node13" class="node">
<title>sh</title>
<ellipse fill="green" stroke="green" cx="323.14" cy="-738" rx="27" ry="18"/>
<text text-anchor="middle" x="323.14" y="-734.3" font-family="Times,serif" font-size="14.00">sh</text>
</g>
<!-- e2fsprogs&#45;&gt;sh -->
<g id="edge12" class="edge">
<title>e2fsprogs&#45;&gt;sh</title>
<path fill="none" stroke="#8b4513" d="M265.57,-1082.62C278.88,-1073.24 294.73,-1059.82 304.14,-1044 324.83,-1009.24 323.14,-995.45 323.14,-955 323.14,-955 323.14,-955 323.14,-881 323.14,-841 323.14,-794.65 323.14,-766.08"/>
<polygon fill="#8b4513" stroke="#8b4513" points="326.64,-766.05 323.14,-756.05 319.64,-766.05 326.64,-766.05"/>
</g>
<!-- libutil&#45;linux -->
<g id="node21" class="node">
<title>libutil&#45;linux</title>
<ellipse fill="green" stroke="green" cx="242.14" cy="-1026" rx="52.79" ry="18"/>
<text text-anchor="middle" x="242.14" y="-1022.3" font-family="Times,serif" font-size="14.00">libutil&#45;linux</text>
</g>
<!-- e2fsprogs&#45;&gt;libutil&#45;linux -->
<g id="edge26" class="edge">
<title>e2fsprogs&#45;&gt;libutil&#45;linux</title>
<path fill="none" stroke="#8b4513" d="M242.14,-1079.7C242.14,-1071.98 242.14,-1062.71 242.14,-1054.11"/>
<polygon fill="#8b4513" stroke="#8b4513" points="245.64,-1054.1 242.14,-1044.1 238.64,-1054.1 245.64,-1054.1"/>
</g>
<!-- bash -->
<g id="node14" class="node">
<title>bash</title>
<ellipse fill="green" stroke="green" cx="323.14" cy="-666" rx="27" ry="18"/>
<text text-anchor="middle" x="323.14" y="-662.3" font-family="Times,serif" font-size="14.00">bash</text>
</g>
<!-- sh&#45;&gt;bash -->
<g id="edge13" class="edge">
<title>sh&#45;&gt;bash</title>
<path fill="none" stroke="grey" d="M306.77,-723.5C301.59,-711.11 301.6,-692.84 306.78,-680.46"/>
</g>
<!-- sh&#45;&gt;bash -->
<g id="edge35" class="edge">
<title>sh&#45;&gt;bash</title>
<path fill="none" stroke="grey" d="M317.3,-720.41C316.1,-709.41 316.09,-695.03 317.26,-683.96"/>
</g>
<!-- sh&#45;&gt;bash -->
<g id="edge39" class="edge">
<title>sh&#45;&gt;bash</title>
<path fill="none" stroke="grey" d="M328.98,-720.41C330.18,-709.41 330.19,-695.03 329.02,-683.96"/>
</g>
<!-- sh&#45;&gt;bash -->
<g id="edge45" class="edge">
<title>sh&#45;&gt;bash</title>
<path fill="none" stroke="grey" d="M339.52,-723.5C344.69,-711.11 344.68,-692.84 339.5,-680.46"/>
</g>
<!-- bash&#45;&gt;glibc -->
<g id="edge24" class="edge">
<title>bash&#45;&gt;glibc</title>
<path fill="none" stroke="#8b4513" d="M303.39,-653.53C269.8,-632.37 205.14,-583.74 205.14,-523 205.14,-523 205.14,-523 205.14,-305 205.14,-263.18 221.76,-217.05 233.84,-189.05"/>
<polygon fill="#8b4513" stroke="#8b4513" points="237.18,-190.16 238.04,-179.6 230.78,-187.31 237.18,-190.16"/>
</g>
<!-- readline&gt;=7.0 -->
<g id="node15" class="node">
<title>readline&gt;=7.0</title>
<ellipse fill="green" stroke="green" cx="332.14" cy="-594" rx="61.19" ry="18"/>
<text text-anchor="middle" x="332.14" y="-590.3" font-family="Times,serif" font-size="14.00">readline&gt;=7.0</text>
</g>
<!-- bash&#45;&gt;readline&gt;=7.0 -->
<g id="edge14" class="edge">
<title>bash&#45;&gt;readline&gt;=7.0</title>
<path fill="none" stroke="#8b4513" d="M325.32,-648.05C326.31,-640.35 327.51,-631.03 328.62,-622.36"/>
<polygon fill="#8b4513" stroke="#8b4513" points="332.12,-622.64 329.92,-612.28 325.17,-621.75 332.12,-622.64"/>
</g>
<!-- ncurses -->
<g id="node17" class="node">
<title>ncurses</title>
<ellipse fill="green" stroke="green" cx="355.14" cy="-378" rx="37.09" ry="18"/>
<text text-anchor="middle" x="355.14" y="-374.3" font-family="Times,serif" font-size="14.00">ncurses</text>
</g>
<!-- bash&#45;&gt;ncurses -->
<g id="edge25" class="edge">
<title>bash&#45;&gt;ncurses</title>
<path fill="none" stroke="#8b4513" d="M345.26,-655.27C363.02,-646.4 387.36,-631.67 402.14,-612 442.51,-558.29 437.8,-534.38 448.14,-468 450.61,-452.19 456.18,-445.83 448.14,-432 436.83,-412.53 415.39,-399.62 395.94,-391.42"/>
<polygon fill="#8b4513" stroke="#8b4513" points="397.2,-388.15 386.61,-387.76 394.65,-394.67 397.2,-388.15"/>
</g>
<!-- readline -->
<g id="node16" class="node">
<title>readline</title>
<ellipse fill="green" stroke="green" cx="350.14" cy="-522" rx="38.99" ry="18"/>
<text text-anchor="middle" x="350.14" y="-518.3" font-family="Times,serif" font-size="14.00">readline</text>
</g>
<!-- readline&gt;=7.0&#45;&gt;readline -->
<g id="edge15" class="edge">
<title>readline&gt;=7.0&#45;&gt;readline</title>
<path fill="none" stroke="grey" d="M336.59,-575.7C339.38,-564.85 342.96,-550.92 345.74,-540.1"/>
</g>
<!-- readline&#45;&gt;glibc -->
<g id="edge16" class="edge">
<title>readline&#45;&gt;glibc</title>
<path fill="none" stroke="#8b4513" d="M382.27,-511.57C404.12,-503.5 431.91,-489.68 448.14,-468 472.38,-435.62 467.14,-419.45 467.14,-379 467.14,-379 467.14,-379 467.14,-305 467.14,-218.81 346.71,-182.49 283.65,-169.38"/>
<polygon fill="#8b4513" stroke="#8b4513" points="284.17,-165.92 273.68,-167.4 282.81,-172.78 284.17,-165.92"/>
</g>
<!-- readline&#45;&gt;ncurses -->
<g id="edge17" class="edge">
<title>readline&#45;&gt;ncurses</title>
<path fill="none" stroke="#8b4513" d="M318.57,-511.08C298.52,-502.96 274.16,-489.27 262.14,-468 254.27,-454.07 254.1,-445.83 262.14,-432 273.46,-412.53 294.89,-399.62 314.34,-391.42"/>
<polygon fill="#8b4513" stroke="#8b4513" points="315.64,-394.67 323.67,-387.76 313.08,-388.15 315.64,-394.67"/>
</g>
<!-- libncursesw.so=6&#45;64 -->
<g id="node20" class="node">
<title>libncursesw.so=6&#45;64</title>
<ellipse fill="green" stroke="green" cx="355.14" cy="-450" rx="83.69" ry="18"/>
<text text-anchor="middle" x="355.14" y="-446.3" font-family="Times,serif" font-size="14.00">libncursesw.so=6&#45;64</text>
</g>
<!-- readline&#45;&gt;libncursesw.so=6&#45;64 -->
<g id="edge22" class="edge">
<title>readline&#45;&gt;libncursesw.so=6&#45;64</title>
<path fill="none" stroke="#8b4513" d="M351.38,-503.7C351.93,-495.98 352.59,-486.71 353.2,-478.11"/>
<polygon fill="#8b4513" stroke="#8b4513" points="356.7,-478.33 353.92,-468.1 349.72,-477.83 356.7,-478.33"/>
</g>
<!-- ncurses&#45;&gt;glibc -->
<g id="edge18" class="edge">
<title>ncurses&#45;&gt;glibc</title>
<path fill="none" stroke="#8b4513" d="M360.17,-359.87C368.28,-328.55 380.64,-261.16 352.14,-216 336.96,-191.94 307.26,-178.41 283.15,-171.06"/>
<polygon fill="#8b4513" stroke="#8b4513" points="283.8,-167.6 273.22,-168.27 281.9,-174.34 283.8,-167.6"/>
</g>
<!-- gcc&#45;libs -->
<g id="node18" class="node">
<title>gcc&#45;libs</title>
<ellipse fill="green" stroke="green" cx="288.14" cy="-306" rx="38.19" ry="18"/>
<text text-anchor="middle" x="288.14" y="-302.3" font-family="Times,serif" font-size="14.00">gcc&#45;libs</text>
</g>
<!-- ncurses&#45;&gt;gcc&#45;libs -->
<g id="edge19" class="edge">
<title>ncurses&#45;&gt;gcc&#45;libs</title>
<path fill="none" stroke="#8b4513" d="M340.27,-361.46C331.55,-352.35 320.35,-340.65 310.57,-330.43"/>
<polygon fill="#8b4513" stroke="#8b4513" points="312.88,-327.78 303.43,-322.98 307.82,-332.62 312.88,-327.78"/>
</g>
<!-- glibc&gt;=2.27 -->
<g id="node19" class="node">
<title>glibc&gt;=2.27</title>
<ellipse fill="green" stroke="green" cx="288.14" cy="-234" rx="54.69" ry="18"/>
<text text-anchor="middle" x="288.14" y="-230.3" font-family="Times,serif" font-size="14.00">glibc&gt;=2.27</text>
</g>
<!-- gcc&#45;libs&#45;&gt;glibc&gt;=2.27 -->
<g id="edge20" class="edge">
<title>gcc&#45;libs&#45;&gt;glibc&gt;=2.27</title>
<path fill="none" stroke="#8b4513" d="M288.14,-287.7C288.14,-279.98 288.14,-270.71 288.14,-262.11"/>
<polygon fill="#8b4513" stroke="#8b4513" points="291.64,-262.1 288.14,-252.1 284.64,-262.1 291.64,-262.1"/>
</g>
<!-- glibc&gt;=2.27&#45;&gt;glibc -->
<g id="edge21" class="edge">
<title>glibc&gt;=2.27&#45;&gt;glibc</title>
<path fill="none" stroke="grey" d="M277.97,-216.05C271.27,-204.89 262.55,-190.34 255.93,-179.31"/>
</g>
<!-- libncursesw.so=6&#45;64&#45;&gt;ncurses -->
<g id="edge23" class="edge">
<title>libncursesw.so=6&#45;64&#45;&gt;ncurses</title>
<path fill="none" stroke="grey" d="M355.14,-431.7C355.14,-420.85 355.14,-406.92 355.14,-396.1"/>
</g>
<!-- libldap&#45;&gt;e2fsprogs -->
<g id="edge41" class="edge">
<title>libldap&#45;&gt;e2fsprogs</title>
<path fill="none" stroke="#8b4513" d="M193.12,-1153.46C201.13,-1144.57 211.36,-1133.21 220.39,-1123.16"/>
<polygon fill="#8b4513" stroke="#8b4513" points="223.23,-1125.24 227.32,-1115.47 218.03,-1120.56 223.23,-1125.24"/>
</g>
<!-- libsasl -->
<g id="node23" class="node">
<title>libsasl</title>
<ellipse fill="green" stroke="green" cx="140.14" cy="-1098" rx="33.29" ry="18"/>
<text text-anchor="middle" x="140.14" y="-1094.3" font-family="Times,serif" font-size="14.00">libsasl</text>
</g>
<!-- libldap&#45;&gt;libsasl -->
<g id="edge28" class="edge">
<title>libldap&#45;&gt;libsasl</title>
<path fill="none" stroke="#8b4513" d="M169.9,-1152.41C165.24,-1144.04 159.48,-1133.71 154.28,-1124.37"/>
<polygon fill="#8b4513" stroke="#8b4513" points="157.24,-1122.5 149.32,-1115.47 151.13,-1125.91 157.24,-1122.5"/>
</g>
<!-- openssl -->
<g id="node24" class="node">
<title>openssl</title>
<ellipse fill="green" stroke="green" cx="134.14" cy="-1026" rx="37.09" ry="18"/>
<text text-anchor="middle" x="134.14" y="-1022.3" font-family="Times,serif" font-size="14.00">openssl</text>
</g>
<!-- libsasl&#45;&gt;openssl -->
<g id="edge29" class="edge">
<title>libsasl&#45;&gt;openssl</title>
<path fill="none" stroke="#8b4513" d="M138.66,-1079.7C138,-1071.98 137.2,-1062.71 136.47,-1054.11"/>
<polygon fill="#8b4513" stroke="#8b4513" points="139.95,-1053.77 135.61,-1044.1 132.97,-1054.37 139.95,-1053.77"/>
</g>
<!-- perl -->
<g id="node25" class="node">
<title>perl</title>
<ellipse fill="green" stroke="green" cx="158.14" cy="-954" rx="27" ry="18"/>
<text text-anchor="middle" x="158.14" y="-950.3" font-family="Times,serif" font-size="14.00">perl</text>
</g>
<!-- openssl&#45;&gt;perl -->
<g id="edge30" class="edge">
<title>openssl&#45;&gt;perl</title>
<path fill="none" stroke="#8b4513" d="M139.95,-1008.05C142.69,-1000.06 146.03,-990.33 149.09,-981.4"/>
<polygon fill="#8b4513" stroke="#8b4513" points="152.45,-982.38 152.39,-971.79 145.83,-980.11 152.45,-982.38"/>
</g>
<!-- perl&#45;&gt;glibc -->
<g id="edge40" class="edge">
<title>perl&#45;&gt;glibc</title>
<path fill="none" stroke="#8b4513" d="M141.92,-939.32C131.29,-929.46 117.95,-915.25 110.14,-900 91.71,-864 91.14,-851.45 91.14,-811 91.14,-811 91.14,-811 91.14,-305 91.14,-259.41 109.12,-247.44 142.14,-216 161.87,-197.22 189.55,-183.55 211.4,-174.8"/>
<polygon fill="#8b4513" stroke="#8b4513" points="212.89,-177.97 220.97,-171.13 210.38,-171.44 212.89,-177.97"/>
</g>
<!-- gdbm&gt;=1.17 -->
<g id="node26" class="node">
<title>gdbm&gt;=1.17</title>
<ellipse fill="green" stroke="green" cx="177.14" cy="-882" rx="57.69" ry="18"/>
<text text-anchor="middle" x="177.14" y="-878.3" font-family="Times,serif" font-size="14.00">gdbm&gt;=1.17</text>
</g>
<!-- perl&#45;&gt;gdbm&gt;=1.17 -->
<g id="edge31" class="edge">
<title>perl&#45;&gt;gdbm&gt;=1.17</title>
<path fill="none" stroke="#8b4513" d="M162.74,-936.05C164.86,-928.26 167.42,-918.82 169.79,-910.08"/>
<polygon fill="#8b4513" stroke="#8b4513" points="173.21,-910.84 172.45,-900.28 166.45,-909.01 173.21,-910.84"/>
</g>
<!-- db -->
<g id="node28" class="node">
<title>db</title>
<ellipse fill="green" stroke="green" cx="263.14" cy="-810" rx="27" ry="18"/>
<text text-anchor="middle" x="263.14" y="-806.3" font-family="Times,serif" font-size="14.00">db</text>
</g>
<!-- perl&#45;&gt;db -->
<g id="edge36" class="edge">
<title>perl&#45;&gt;db</title>
<path fill="none" stroke="#8b4513" d="M181.58,-944.65C201.34,-936.38 228.77,-921.78 244.14,-900 256.84,-882 261.34,-857.21 262.81,-838.36"/>
<polygon fill="#8b4513" stroke="#8b4513" points="266.31,-838.49 263.35,-828.32 259.32,-838.12 266.31,-838.49"/>
</g>
<!-- gdbm -->
<g id="node27" class="node">
<title>gdbm</title>
<ellipse fill="green" stroke="green" cx="177.14" cy="-810" rx="31.4" ry="18"/>
<text text-anchor="middle" x="177.14" y="-806.3" font-family="Times,serif" font-size="14.00">gdbm</text>
</g>
<!-- gdbm&gt;=1.17&#45;&gt;gdbm -->
<g id="edge32" class="edge">
<title>gdbm&gt;=1.17&#45;&gt;gdbm</title>
<path fill="none" stroke="grey" d="M177.14,-863.7C177.14,-852.85 177.14,-838.92 177.14,-828.1"/>
</g>
<!-- gdbm&#45;&gt;glibc -->
<g id="edge33" class="edge">
<title>gdbm&#45;&gt;glibc</title>
<path fill="none" stroke="#8b4513" d="M167.66,-792.56C153.67,-766.72 129.14,-714.62 129.14,-667 129.14,-667 129.14,-667 129.14,-305 129.14,-249.73 182.6,-204.3 217.24,-180.66"/>
<polygon fill="#8b4513" stroke="#8b4513" points="219.62,-183.29 226.03,-174.85 215.76,-177.45 219.62,-183.29"/>
</g>
<!-- gdbm&#45;&gt;sh -->
<g id="edge34" class="edge">
<title>gdbm&#45;&gt;sh</title>
<path fill="none" stroke="#8b4513" d="M200.28,-797.91C225.16,-785.98 264.86,-766.94 292.37,-753.76"/>
<polygon fill="#8b4513" stroke="#8b4513" points="294.04,-756.83 301.54,-749.36 291.01,-750.52 294.04,-756.83"/>
</g>
<!-- db&#45;&gt;sh -->
<g id="edge38" class="edge">
<title>db&#45;&gt;sh</title>
<path fill="none" stroke="#8b4513" d="M276.16,-793.81C284.18,-784.45 294.61,-772.28 303.61,-761.79"/>
<polygon fill="#8b4513" stroke="#8b4513" points="306.3,-764.03 310.15,-754.16 300.98,-759.47 306.3,-764.03"/>
</g>
<!-- db&#45;&gt;gcc&#45;libs -->
<g id="edge37" class="edge">
<title>db&#45;&gt;gcc&#45;libs</title>
<path fill="none" stroke="#8b4513" d="M245.98,-795.74C218.37,-772.77 167.14,-722.65 167.14,-667 167.14,-667 167.14,-667 167.14,-449 167.14,-394.21 219.98,-349.83 255.82,-326.02"/>
<polygon fill="#8b4513" stroke="#8b4513" points="258.01,-328.77 264.52,-320.42 254.22,-322.89 258.01,-328.77"/>
</g>
<!-- keyutils&#45;&gt;glibc -->
<g id="edge43" class="edge">
<title>keyutils&#45;&gt;glibc</title>
<path fill="none" stroke="#8b4513" d="M417.75,-797.97C462.28,-778.71 543.14,-734.46 543.14,-667 543.14,-667 543.14,-667 543.14,-305 543.14,-191.91 365.71,-168.81 285.13,-164.15"/>
<polygon fill="#8b4513" stroke="#8b4513" points="285.05,-160.64 274.89,-163.62 284.7,-167.63 285.05,-160.64"/>
</g>
<!-- keyutils&#45;&gt;sh -->
<g id="edge44" class="edge">
<title>keyutils&#45;&gt;sh</title>
<path fill="none" stroke="#8b4513" d="M374.16,-793.12C365.32,-783.73 353.97,-771.7 344.23,-761.36"/>
<polygon fill="#8b4513" stroke="#8b4513" points="346.56,-758.74 337.16,-753.86 341.47,-763.54 346.56,-758.74"/>
</g>
</g>
</svg>
