<?xml version="1.0" encoding="UTF-8" standalone="no"?>
<!DOCTYPE svg PUBLIC "-//W3C//DTD SVG 1.1//EN"
 "http://www.w3.org/Graphics/SVG/1.1/DTD/svg11.dtd">
<!-- Generated by graphviz version 2.44.0 (0)
 -->
<!-- Title: G Pages: 1 -->
<svg width="611pt" height="1124pt"
 viewBox="0.00 0.00 611.14 1124.00" xmlns="http://www.w3.org/2000/svg" xmlns:xlink="http://www.w3.org/1999/xlink">
<g id="graph0" class="graph" transform="scale(1 1) rotate(0) translate(4 1120)">
<title>G</title>
<polygon fill="white" stroke="transparent" points="-4,4 -4,-1120 607.14,-1120 607.14,4 -4,4"/>
<!-- START -->
<g id="node1" class="node">
<title>START</title>
<ellipse fill="red" stroke="red" cx="93.14" cy="-1098" rx="38.19" ry="18"/>
<text text-anchor="middle" x="93.14" y="-1094.3" font-family="Times,serif" font-size="14.00">START</text>
</g>
<!-- libusb -->
<g id="node2" class="node">
<title>libusb</title>
<ellipse fill="green" stroke="green" cx="93.14" cy="-1026" rx="32.49" ry="18"/>
<text text-anchor="middle" x="93.14" y="-1022.3" font-family="Times,serif" font-size="14.00">libusb</text>
</g>
<!-- START&#45;&gt;libusb -->
<g id="edge1" class="edge">
<title>START&#45;&gt;libusb</title>
<path fill="none" stroke="black" d="M93.14,-1079.7C93.14,-1071.98 93.14,-1062.71 93.14,-1054.11"/>
<polygon fill="black" stroke="black" points="96.64,-1054.1 93.14,-1044.1 89.64,-1054.1 96.64,-1054.1"/>
</g>
<!-- glibc -->
<g id="node3" class="node">
<title>glibc</title>
<ellipse fill="green" stroke="green" cx="246.14" cy="-162" rx="28.7" ry="18"/>
<text text-anchor="middle" x="246.14" y="-158.3" font-family="Times,serif" font-size="14.00">glibc</text>
</g>
<!-- libusb&#45;&gt;glibc -->
<g id="edge2" class="edge">
<title>libusb&#45;&gt;glibc</title>
<path fill="none" stroke="#8b4513" d="M82.87,-1008.67C67.71,-982.96 41.14,-931.04 41.14,-883 41.14,-883 41.14,-883 41.14,-305 41.14,-260.06 54.79,-244.98 89.14,-216 123.21,-187.25 173.57,-173.89 208,-167.82"/>
<polygon fill="#8b4513" stroke="#8b4513" points="208.84,-171.22 218.14,-166.16 207.71,-164.32 208.84,-171.22"/>
</g>
<!-- systemd&#45;libs -->
<g id="node9" class="node">
<title>systemd&#45;libs</title>
<ellipse fill="green" stroke="green" cx="186.14" cy="-954" rx="55.79" ry="18"/>
<text text-anchor="middle" x="186.14" y="-950.3" font-family="Times,serif" font-size="14.00">systemd&#45;libs</text>
</g>
<!-- libusb&#45;&gt;systemd&#45;libs -->
<g id="edge8" class="edge">
<title>libusb&#45;&gt;systemd&#45;libs</title>
<path fill="none" stroke="#8b4513" d="M111.96,-1010.83C124.83,-1001.15 142.14,-988.12 156.8,-977.08"/>
<polygon fill="#8b4513" stroke="#8b4513" points="159.19,-979.66 165.08,-970.85 154.98,-974.07 159.19,-979.66"/>
</g>
<!-- linux&#45;api&#45;headers&gt;=4.10 -->
<g id="node4" class="node">
<title>linux&#45;api&#45;headers&gt;=4.10</title>
<ellipse fill="green" stroke="green" cx="98.14" cy="-90" rx="98.28" ry="18"/>
<text text-anchor="middle" x="98.14" y="-86.3" font-family="Times,serif" font-size="14.00">linux&#45;api&#45;headers&gt;=4.10</text>
</g>
<!-- glibc&#45;&gt;linux&#45;api&#45;headers&gt;=4.10 -->
<g id="edge3" class="edge">
<title>glibc&#45;&gt;linux&#45;api&#45;headers&gt;=4.10</title>
<path fill="none" stroke="#8b4513" d="M223.98,-150.52C202.2,-140.22 168.37,-124.22 141.27,-111.4"/>
<polygon fill="#8b4513" stroke="#8b4513" points="142.53,-108.12 132,-107.01 139.54,-114.45 142.53,-108.12"/>
</g>
<!-- tzdata -->
<g id="node6" class="node">
<title>tzdata</title>
<ellipse fill="green" stroke="green" cx="246.14" cy="-90" rx="31.7" ry="18"/>
<text text-anchor="middle" x="246.14" y="-86.3" font-family="Times,serif" font-size="14.00">tzdata</text>
</g>
<!-- glibc&#45;&gt;tzdata -->
<g id="edge5" class="edge">
<title>glibc&#45;&gt;tzdata</title>
<path fill="none" stroke="#8b4513" d="M246.14,-143.7C246.14,-135.98 246.14,-126.71 246.14,-118.11"/>
<polygon fill="#8b4513" stroke="#8b4513" points="249.64,-118.1 246.14,-108.1 242.64,-118.1 249.64,-118.1"/>
</g>
<!-- filesystem -->
<g id="node7" class="node">
<title>filesystem</title>
<ellipse fill="green" stroke="green" cx="343.14" cy="-90" rx="46.59" ry="18"/>
<text text-anchor="middle" x="343.14" y="-86.3" font-family="Times,serif" font-size="14.00">filesystem</text>
</g>
<!-- glibc&#45;&gt;filesystem -->
<g id="edge6" class="edge">
<title>glibc&#45;&gt;filesystem</title>
<path fill="none" stroke="#8b4513" d="M264.39,-147.83C278.19,-137.88 297.42,-123.99 313.43,-112.44"/>
<polygon fill="#8b4513" stroke="#8b4513" points="315.88,-114.99 321.94,-106.3 311.78,-109.31 315.88,-114.99"/>
</g>
<!-- linux&#45;api&#45;headers -->
<g id="node5" class="node">
<title>linux&#45;api&#45;headers</title>
<ellipse fill="green" stroke="green" cx="98.14" cy="-18" rx="71.49" ry="18"/>
<text text-anchor="middle" x="98.14" y="-14.3" font-family="Times,serif" font-size="14.00">linux&#45;api&#45;headers</text>
</g>
<!-- linux&#45;api&#45;headers&gt;=4.10&#45;&gt;linux&#45;api&#45;headers -->
<g id="edge4" class="edge">
<title>linux&#45;api&#45;headers&gt;=4.10&#45;&gt;linux&#45;api&#45;headers</title>
<path fill="none" stroke="grey" d="M98.14,-71.7C98.14,-60.85 98.14,-46.92 98.14,-36.1"/>
</g>
<!-- iana&#45;etc -->
<g id="node8" class="node">
<title>iana&#45;etc</title>
<ellipse fill="green" stroke="green" cx="343.14" cy="-18" rx="38.19" ry="18"/>
<text text-anchor="middle" x="343.14" y="-14.3" font-family="Times,serif" font-size="14.00">iana&#45;etc</text>
</g>
<!-- filesystem&#45;&gt;iana&#45;etc -->
<g id="edge7" class="edge">
<title>filesystem&#45;&gt;iana&#45;etc</title>
<path fill="none" stroke="#8b4513" d="M343.14,-71.7C343.14,-63.98 343.14,-54.71 343.14,-46.11"/>
<polygon fill="#8b4513" stroke="#8b4513" points="346.64,-46.1 343.14,-36.1 339.64,-46.1 346.64,-46.1"/>
</g>
<!-- systemd&#45;libs&#45;&gt;glibc -->
<g id="edge9" class="edge">
<title>systemd&#45;libs&#45;&gt;glibc</title>
<path fill="none" stroke="#8b4513" d="M163.19,-937.38C131.75,-913.93 79.14,-866.41 79.14,-811 79.14,-811 79.14,-811 79.14,-305 79.14,-260.47 92.66,-246.46 125.14,-216 148.92,-193.7 183.59,-179.83 209.73,-171.89"/>
<polygon fill="#8b4513" stroke="#8b4513" points="211,-175.17 219.65,-169.04 209.07,-168.44 211,-175.17"/>
</g>
<!-- libcap -->
<g id="node10" class="node">
<title>libcap</title>
<ellipse fill="green" stroke="green" cx="145.14" cy="-306" rx="32.49" ry="18"/>
<text text-anchor="middle" x="145.14" y="-302.3" font-family="Times,serif" font-size="14.00">libcap</text>
</g>
<!-- systemd&#45;libs&#45;&gt;libcap -->
<g id="edge10" class="edge">
<title>systemd&#45;libs&#45;&gt;libcap</title>
<path fill="none" stroke="#8b4513" d="M177.84,-935.97C165.86,-909.77 145.14,-857.7 145.14,-811 145.14,-811 145.14,-811 145.14,-449 145.14,-409 145.14,-362.65 145.14,-334.08"/>
<polygon fill="#8b4513" stroke="#8b4513" points="148.64,-334.05 145.14,-324.05 141.64,-334.05 148.64,-334.05"/>
</g>
<!-- libgcrypt -->
<g id="node12" class="node">
<title>libgcrypt</title>
<ellipse fill="green" stroke="green" cx="222.14" cy="-882" rx="42.79" ry="18"/>
<text text-anchor="middle" x="222.14" y="-878.3" font-family="Times,serif" font-size="14.00">libgcrypt</text>
</g>
<!-- systemd&#45;libs&#45;&gt;libgcrypt -->
<g id="edge14" class="edge">
<title>systemd&#45;libs&#45;&gt;libgcrypt</title>
<path fill="none" stroke="#8b4513" d="M194.86,-936.05C199.06,-927.89 204.19,-917.91 208.86,-908.82"/>
<polygon fill="#8b4513" stroke="#8b4513" points="212.05,-910.28 213.51,-899.79 205.82,-907.08 212.05,-910.28"/>
</g>
<!-- lz4 -->
<g id="node22" class="node">
<title>lz4</title>
<ellipse fill="green" stroke="green" cx="500.14" cy="-738" rx="27" ry="18"/>
<text text-anchor="middle" x="500.14" y="-734.3" font-family="Times,serif" font-size="14.00">lz4</text>
</g>
<!-- systemd&#45;libs&#45;&gt;lz4 -->
<g id="edge31" class="edge">
<title>systemd&#45;libs&#45;&gt;lz4</title>
<path fill="none" stroke="#8b4513" d="M220.81,-939.87C244.5,-930.26 276.18,-916.12 302.14,-900 371.08,-857.2 442.72,-793.23 477.91,-760.3"/>
<polygon fill="#8b4513" stroke="#8b4513" points="480.38,-762.78 485.25,-753.38 475.58,-757.69 480.38,-762.78"/>
</g>
<!-- xz -->
<g id="node23" class="node">
<title>xz</title>
<ellipse fill="green" stroke="green" cx="326.14" cy="-810" rx="27" ry="18"/>
<text text-anchor="middle" x="326.14" y="-806.3" font-family="Times,serif" font-size="14.00">xz</text>
</g>
<!-- systemd&#45;libs&#45;&gt;xz -->
<g id="edge33" class="edge">
<title>systemd&#45;libs&#45;&gt;xz</title>
<path fill="none" stroke="#8b4513" d="M217.69,-938.9C235.76,-929.71 257.98,-916.38 274.14,-900 292.12,-881.78 306.25,-856.13 315.21,-837.04"/>
<polygon fill="#8b4513" stroke="#8b4513" points="318.49,-838.29 319.42,-827.73 312.11,-835.4 318.49,-838.29"/>
</g>
<!-- libcap&#45;&gt;glibc -->
<g id="edge11" class="edge">
<title>libcap&#45;&gt;glibc</title>
<path fill="none" stroke="#8b4513" d="M137.63,-288.17C130.38,-269.14 122.34,-237.96 136.14,-216 152.07,-190.65 183.91,-177.13 209.25,-170.12"/>
<polygon fill="#8b4513" stroke="#8b4513" points="210.12,-173.51 218.95,-167.65 208.39,-166.72 210.12,-173.51"/>
</g>
<!-- attr -->
<g id="node11" class="node">
<title>attr</title>
<ellipse fill="green" stroke="green" cx="172.14" cy="-234" rx="27" ry="18"/>
<text text-anchor="middle" x="172.14" y="-230.3" font-family="Times,serif" font-size="14.00">attr</text>
</g>
<!-- libcap&#45;&gt;attr -->
<g id="edge12" class="edge">
<title>libcap&#45;&gt;attr</title>
<path fill="none" stroke="#8b4513" d="M151.68,-288.05C154.76,-280.06 158.51,-270.33 161.96,-261.4"/>
<polygon fill="#8b4513" stroke="#8b4513" points="165.33,-262.38 165.67,-251.79 158.8,-259.86 165.33,-262.38"/>
</g>
<!-- attr&#45;&gt;glibc -->
<g id="edge13" class="edge">
<title>attr&#45;&gt;glibc</title>
<path fill="none" stroke="#8b4513" d="M187.12,-218.83C197.58,-208.94 211.74,-195.55 223.56,-184.36"/>
<polygon fill="#8b4513" stroke="#8b4513" points="226.08,-186.8 230.93,-177.38 221.26,-181.71 226.08,-186.8"/>
</g>
<!-- libgpg&#45;error -->
<g id="node13" class="node">
<title>libgpg&#45;error</title>
<ellipse fill="green" stroke="green" cx="227.14" cy="-810" rx="53.89" ry="18"/>
<text text-anchor="middle" x="227.14" y="-806.3" font-family="Times,serif" font-size="14.00">libgpg&#45;error</text>
</g>
<!-- libgcrypt&#45;&gt;libgpg&#45;error -->
<g id="edge15" class="edge">
<title>libgcrypt&#45;&gt;libgpg&#45;error</title>
<path fill="none" stroke="#8b4513" d="M223.38,-863.7C223.93,-855.98 224.59,-846.71 225.2,-838.11"/>
<polygon fill="#8b4513" stroke="#8b4513" points="228.7,-838.33 225.92,-828.1 221.72,-837.83 228.7,-838.33"/>
</g>
<!-- libgpg&#45;error&#45;&gt;glibc -->
<g id="edge16" class="edge">
<title>libgpg&#45;error&#45;&gt;glibc</title>
<path fill="none" stroke="#8b4513" d="M227.14,-791.95C227.14,-765.29 227.14,-712.11 227.14,-667 227.14,-667 227.14,-667 227.14,-305 227.14,-264.64 234.78,-218.39 240.37,-189.94"/>
<polygon fill="#8b4513" stroke="#8b4513" points="243.83,-190.45 242.39,-179.95 236.97,-189.06 243.83,-190.45"/>
</g>
<!-- sh -->
<g id="node14" class="node">
<title>sh</title>
<ellipse fill="green" stroke="green" cx="326.14" cy="-738" rx="27" ry="18"/>
<text text-anchor="middle" x="326.14" y="-734.3" font-family="Times,serif" font-size="14.00">sh</text>
</g>
<!-- libgpg&#45;error&#45;&gt;sh -->
<g id="edge17" class="edge">
<title>libgpg&#45;error&#45;&gt;sh</title>
<path fill="none" stroke="#8b4513" d="M249.11,-793.46C264.11,-782.86 284.05,-768.76 299.88,-757.57"/>
<polygon fill="#8b4513" stroke="#8b4513" points="302.05,-760.32 308.2,-751.69 298.01,-754.6 302.05,-760.32"/>
</g>
<!-- bash -->
<g id="node15" class="node">
<title>bash</title>
<ellipse fill="green" stroke="green" cx="326.14" cy="-666" rx="27" ry="18"/>
<text text-anchor="middle" x="326.14" y="-662.3" font-family="Times,serif" font-size="14.00">bash</text>
</g>
<!-- sh&#45;&gt;bash -->
<g id="edge18" class="edge">
<title>sh&#45;&gt;bash</title>
<path fill="none" stroke="grey" d="M320.3,-720.41C319.1,-709.41 319.09,-695.03 320.26,-683.96"/>
</g>
<!-- sh&#45;&gt;bash -->
<g id="edge35" class="edge">
<title>sh&#45;&gt;bash</title>
<path fill="none" stroke="grey" d="M331.98,-720.41C333.18,-709.41 333.19,-695.03 332.02,-683.96"/>
</g>
<!-- bash&#45;&gt;glibc -->
<g id="edge29" class="edge">
<title>bash&#45;&gt;glibc</title>
<path fill="none" stroke="#8b4513" d="M311.59,-650.5C302.37,-640.5 290.95,-626.44 284.14,-612 266.91,-575.41 265.14,-563.45 265.14,-523 265.14,-523 265.14,-523 265.14,-305 265.14,-264.64 257.51,-218.39 251.92,-189.94"/>
<polygon fill="#8b4513" stroke="#8b4513" points="255.31,-189.06 249.9,-179.95 248.45,-190.45 255.31,-189.06"/>
</g>
<!-- readline&gt;=7.0 -->
<g id="node16" class="node">
<title>readline&gt;=7.0</title>
<ellipse fill="green" stroke="green" cx="354.14" cy="-594" rx="61.19" ry="18"/>
<text text-anchor="middle" x="354.14" y="-590.3" font-family="Times,serif" font-size="14.00">readline&gt;=7.0</text>
</g>
<!-- bash&#45;&gt;readline&gt;=7.0 -->
<g id="edge19" class="edge">
<title>bash&#45;&gt;readline&gt;=7.0</title>
<path fill="none" stroke="#8b4513" d="M332.78,-648.41C336.01,-640.34 339.97,-630.43 343.6,-621.35"/>
<polygon fill="#8b4513" stroke="#8b4513" points="346.89,-622.54 347.36,-611.96 340.4,-619.94 346.89,-622.54"/>
</g>
<!-- ncurses -->
<g id="node18" class="node">
<title>ncurses</title>
<ellipse fill="green" stroke="green" cx="424.14" cy="-378" rx="37.09" ry="18"/>
<text text-anchor="middle" x="424.14" y="-374.3" font-family="Times,serif" font-size="14.00">ncurses</text>
</g>
<!-- bash&#45;&gt;ncurses -->
<g id="edge30" class="edge">
<title>bash&#45;&gt;ncurses</title>
<path fill="none" stroke="#8b4513" d="M348.6,-655.76C369.45,-646.54 400.71,-631.02 424.14,-612 489.27,-559.14 517.27,-546.75 546.14,-468 551.65,-452.98 554.92,-445.38 546.14,-432 529.17,-406.12 496.52,-392.81 469.27,-386"/>
<polygon fill="#8b4513" stroke="#8b4513" points="470.04,-382.59 459.51,-383.78 468.48,-389.41 470.04,-382.59"/>
</g>
<!-- readline -->
<g id="node17" class="node">
<title>readline</title>
<ellipse fill="green" stroke="green" cx="347.14" cy="-522" rx="38.99" ry="18"/>
<text text-anchor="middle" x="347.14" y="-518.3" font-family="Times,serif" font-size="14.00">readline</text>
</g>
<!-- readline&gt;=7.0&#45;&gt;readline -->
<g id="edge20" class="edge">
<title>readline&gt;=7.0&#45;&gt;readline</title>
<path fill="none" stroke="grey" d="M352.41,-575.7C351.33,-564.85 349.93,-550.92 348.85,-540.1"/>
</g>
<!-- readline&#45;&gt;glibc -->
<g id="edge21" class="edge">
<title>readline&#45;&gt;glibc</title>
<path fill="none" stroke="#8b4513" d="M338.24,-504.04C325.38,-477.93 303.14,-425.97 303.14,-379 303.14,-379 303.14,-379 303.14,-305 303.14,-264.03 295.48,-253.57 279.14,-216 274.84,-206.11 268.9,-195.91 263.25,-187.13"/>
<polygon fill="#8b4513" stroke="#8b4513" points="266,-184.94 257.54,-178.56 260.17,-188.82 266,-184.94"/>
</g>
<!-- readline&#45;&gt;ncurses -->
<g id="edge22" class="edge">
<title>readline&#45;&gt;ncurses</title>
<path fill="none" stroke="#8b4513" d="M346.12,-503.77C345.77,-484.94 347.52,-454.46 360.14,-432 367.76,-418.44 380.32,-406.9 392.3,-398.08"/>
<polygon fill="#8b4513" stroke="#8b4513" points="394.62,-400.73 400.84,-392.16 390.63,-394.98 394.62,-400.73"/>
</g>
<!-- libncursesw.so=6&#45;64 -->
<g id="node21" class="node">
<title>libncursesw.so=6&#45;64</title>
<ellipse fill="green" stroke="green" cx="453.14" cy="-450" rx="83.69" ry="18"/>
<text text-anchor="middle" x="453.14" y="-446.3" font-family="Times,serif" font-size="14.00">libncursesw.so=6&#45;64</text>
</g>
<!-- readline&#45;&gt;libncursesw.so=6&#45;64 -->
<g id="edge27" class="edge">
<title>readline&#45;&gt;libncursesw.so=6&#45;64</title>
<path fill="none" stroke="#8b4513" d="M368.59,-506.83C383.33,-497.1 403.17,-484 419.94,-472.93"/>
<polygon fill="#8b4513" stroke="#8b4513" points="421.96,-475.79 428.38,-467.35 418.1,-469.94 421.96,-475.79"/>
</g>
<!-- ncurses&#45;&gt;glibc -->
<g id="edge23" class="edge">
<title>ncurses&#45;&gt;glibc</title>
<path fill="none" stroke="#8b4513" d="M408.78,-361.52C399.1,-351.34 386.67,-337.45 377.14,-324 345.4,-279.19 353.28,-257.34 317.14,-216 305.1,-202.22 288.92,-189.81 275.05,-180.46"/>
<polygon fill="#8b4513" stroke="#8b4513" points="276.62,-177.31 266.33,-174.78 272.8,-183.17 276.62,-177.31"/>
</g>
<!-- gcc&#45;libs -->
<g id="node19" class="node">
<title>gcc&#45;libs</title>
<ellipse fill="green" stroke="green" cx="424.14" cy="-306" rx="38.19" ry="18"/>
<text text-anchor="middle" x="424.14" y="-302.3" font-family="Times,serif" font-size="14.00">gcc&#45;libs</text>
</g>
<!-- ncurses&#45;&gt;gcc&#45;libs -->
<g id="edge24" class="edge">
<title>ncurses&#45;&gt;gcc&#45;libs</title>
<path fill="none" stroke="#8b4513" d="M424.14,-359.7C424.14,-351.98 424.14,-342.71 424.14,-334.11"/>
<polygon fill="#8b4513" stroke="#8b4513" points="427.64,-334.1 424.14,-324.1 420.64,-334.1 427.64,-334.1"/>
</g>
<!-- glibc&gt;=2.27 -->
<g id="node20" class="node">
<title>glibc&gt;=2.27</title>
<ellipse fill="green" stroke="green" cx="424.14" cy="-234" rx="54.69" ry="18"/>
<text text-anchor="middle" x="424.14" y="-230.3" font-family="Times,serif" font-size="14.00">glibc&gt;=2.27</text>
</g>
<!-- gcc&#45;libs&#45;&gt;glibc&gt;=2.27 -->
<g id="edge25" class="edge">
<title>gcc&#45;libs&#45;&gt;glibc&gt;=2.27</title>
<path fill="none" stroke="#8b4513" d="M424.14,-287.7C424.14,-279.98 424.14,-270.71 424.14,-262.11"/>
<polygon fill="#8b4513" stroke="#8b4513" points="427.64,-262.1 424.14,-252.1 420.64,-262.1 427.64,-262.1"/>
</g>
<!-- glibc&gt;=2.27&#45;&gt;glibc -->
<g id="edge26" class="edge">
<title>glibc&gt;=2.27&#45;&gt;glibc</title>
<path fill="none" stroke="grey" d="M390.24,-219.67C354.94,-205.79 300.56,-184.4 269.69,-172.26"/>
</g>
<!-- libncursesw.so=6&#45;64&#45;&gt;ncurses -->
<g id="edge28" class="edge">
<title>libncursesw.so=6&#45;64&#45;&gt;ncurses</title>
<path fill="none" stroke="grey" d="M446.12,-432.05C441.56,-421.05 435.64,-406.76 431.1,-395.79"/>
</g>
<!-- lz4&#45;&gt;glibc -->
<g id="edge32" class="edge">
<title>lz4&#45;&gt;glibc</title>
<path fill="none" stroke="#8b4513" d="M518.08,-724.38C547.59,-702 603.14,-652.26 603.14,-595 603.14,-595 603.14,-595 603.14,-305 603.14,-240.37 546.69,-243.36 488.14,-216 420.8,-184.53 334.09,-171.4 284.86,-166.18"/>
<polygon fill="#8b4513" stroke="#8b4513" points="284.95,-162.68 274.65,-165.16 284.25,-169.64 284.95,-162.68"/>
</g>
<!-- xz&#45;&gt;sh -->
<g id="edge34" class="edge">
<title>xz&#45;&gt;sh</title>
<path fill="none" stroke="#8b4513" d="M326.14,-791.7C326.14,-783.98 326.14,-774.71 326.14,-766.11"/>
<polygon fill="#8b4513" stroke="#8b4513" points="329.64,-766.1 326.14,-756.1 322.64,-766.1 329.64,-766.1"/>
</g>
</g>
</svg>
