<?xml version="1.0" encoding="UTF-8" standalone="no"?>
<!DOCTYPE svg PUBLIC "-//W3C//DTD SVG 1.1//EN"
 "http://www.w3.org/Graphics/SVG/1.1/DTD/svg11.dtd">
<!-- Generated by graphviz version 2.44.0 (0)
 -->
<!-- Title: G Pages: 1 -->
<svg width="506pt" height="980pt"
 viewBox="0.00 0.00 506.14 980.00" xmlns="http://www.w3.org/2000/svg" xmlns:xlink="http://www.w3.org/1999/xlink">
<g id="graph0" class="graph" transform="scale(1 1) rotate(0) translate(4 976)">
<title>G</title>
<polygon fill="white" stroke="transparent" points="-4,4 -4,-976 502.14,-976 502.14,4 -4,4"/>
<!-- START -->
<g id="node1" class="node">
<title>START</title>
<ellipse fill="red" stroke="red" cx="244.14" cy="-954" rx="38.19" ry="18"/>
<text text-anchor="middle" x="244.14" y="-950.3" font-family="Times,serif" font-size="14.00">START</text>
</g>
<!-- libxml2 -->
<g id="node2" class="node">
<title>libxml2</title>
<ellipse fill="green" stroke="green" cx="244.14" cy="-882" rx="38.19" ry="18"/>
<text text-anchor="middle" x="244.14" y="-878.3" font-family="Times,serif" font-size="14.00">libxml2</text>
</g>
<!-- START&#45;&gt;libxml2 -->
<g id="edge1" class="edge">
<title>START&#45;&gt;libxml2</title>
<path fill="none" stroke="black" d="M244.14,-935.7C244.14,-927.98 244.14,-918.71 244.14,-910.11"/>
<polygon fill="black" stroke="black" points="247.64,-910.1 244.14,-900.1 240.64,-910.1 247.64,-910.1"/>
</g>
<!-- zlib -->
<g id="node3" class="node">
<title>zlib</title>
<ellipse fill="green" stroke="green" cx="67.14" cy="-738" rx="27" ry="18"/>
<text text-anchor="middle" x="67.14" y="-734.3" font-family="Times,serif" font-size="14.00">zlib</text>
</g>
<!-- libxml2&#45;&gt;zlib -->
<g id="edge2" class="edge">
<title>libxml2&#45;&gt;zlib</title>
<path fill="none" stroke="#8b4513" d="M208.63,-874.87C178.59,-868.05 136.09,-854.32 108.14,-828 90.4,-811.29 79.67,-785.41 73.67,-765.86"/>
<polygon fill="#8b4513" stroke="#8b4513" points="76.97,-764.69 70.88,-756.02 70.24,-766.6 76.97,-764.69"/>
</g>
<!-- readline -->
<g id="node10" class="node">
<title>readline</title>
<ellipse fill="green" stroke="green" cx="272.14" cy="-522" rx="38.99" ry="18"/>
<text text-anchor="middle" x="272.14" y="-518.3" font-family="Times,serif" font-size="14.00">readline</text>
</g>
<!-- libxml2&#45;&gt;readline -->
<g id="edge9" class="edge">
<title>libxml2&#45;&gt;readline</title>
<path fill="none" stroke="#8b4513" d="M244.14,-863.95C244.14,-837.29 244.14,-784.11 244.14,-739 244.14,-739 244.14,-739 244.14,-665 244.14,-624.23 255.39,-578.09 263.63,-549.77"/>
<polygon fill="#8b4513" stroke="#8b4513" points="267.09,-550.42 266.61,-539.84 260.38,-548.41 267.09,-550.42"/>
</g>
<!-- ncurses -->
<g id="node11" class="node">
<title>ncurses</title>
<ellipse fill="green" stroke="green" cx="325.14" cy="-378" rx="37.09" ry="18"/>
<text text-anchor="middle" x="325.14" y="-374.3" font-family="Times,serif" font-size="14.00">ncurses</text>
</g>
<!-- libxml2&#45;&gt;ncurses -->
<g id="edge18" class="edge">
<title>libxml2&#45;&gt;ncurses</title>
<path fill="none" stroke="#8b4513" d="M220.33,-867.63C184.82,-845.74 122.14,-798.64 122.14,-739 122.14,-739 122.14,-739 122.14,-521 122.14,-474.03 142.46,-461.34 179.14,-432 208.65,-408.39 249.61,-394.75 280.64,-387.23"/>
<polygon fill="#8b4513" stroke="#8b4513" points="281.79,-390.56 290.75,-384.91 280.22,-383.74 281.79,-390.56"/>
</g>
<!-- xz -->
<g id="node15" class="node">
<title>xz</title>
<ellipse fill="green" stroke="green" cx="312.14" cy="-810" rx="27" ry="18"/>
<text text-anchor="middle" x="312.14" y="-806.3" font-family="Times,serif" font-size="14.00">xz</text>
</g>
<!-- libxml2&#45;&gt;xz -->
<g id="edge19" class="edge">
<title>libxml2&#45;&gt;xz</title>
<path fill="none" stroke="#8b4513" d="M259.57,-865.12C268.78,-855.64 280.61,-843.46 290.71,-833.06"/>
<polygon fill="#8b4513" stroke="#8b4513" points="293.24,-835.48 297.7,-825.86 288.22,-830.6 293.24,-835.48"/>
</g>
<!-- icu -->
<g id="node19" class="node">
<title>icu</title>
<ellipse fill="green" stroke="green" cx="397.14" cy="-810" rx="27" ry="18"/>
<text text-anchor="middle" x="397.14" y="-806.3" font-family="Times,serif" font-size="14.00">icu</text>
</g>
<!-- libxml2&#45;&gt;icu -->
<g id="edge26" class="edge">
<title>libxml2&#45;&gt;icu</title>
<path fill="none" stroke="#8b4513" d="M270.79,-868.81C297.29,-856.68 337.92,-838.09 365.92,-825.28"/>
<polygon fill="#8b4513" stroke="#8b4513" points="367.61,-828.36 375.25,-821.02 364.7,-821.99 367.61,-828.36"/>
</g>
<!-- glibc -->
<g id="node4" class="node">
<title>glibc</title>
<ellipse fill="green" stroke="green" cx="246.14" cy="-162" rx="28.7" ry="18"/>
<text text-anchor="middle" x="246.14" y="-158.3" font-family="Times,serif" font-size="14.00">glibc</text>
</g>
<!-- zlib&#45;&gt;glibc -->
<g id="edge3" class="edge">
<title>zlib&#45;&gt;glibc</title>
<path fill="none" stroke="#8b4513" d="M68.92,-719.97C71.54,-693.34 76.14,-640.21 76.14,-595 76.14,-595 76.14,-595 76.14,-305 76.14,-235.06 161.95,-192.82 211.64,-174.23"/>
<polygon fill="#8b4513" stroke="#8b4513" points="212.84,-177.52 221.06,-170.82 210.46,-170.93 212.84,-177.52"/>
</g>
<!-- linux&#45;api&#45;headers&gt;=4.10 -->
<g id="node5" class="node">
<title>linux&#45;api&#45;headers&gt;=4.10</title>
<ellipse fill="green" stroke="green" cx="98.14" cy="-90" rx="98.28" ry="18"/>
<text text-anchor="middle" x="98.14" y="-86.3" font-family="Times,serif" font-size="14.00">linux&#45;api&#45;headers&gt;=4.10</text>
</g>
<!-- glibc&#45;&gt;linux&#45;api&#45;headers&gt;=4.10 -->
<g id="edge4" class="edge">
<title>glibc&#45;&gt;linux&#45;api&#45;headers&gt;=4.10</title>
<path fill="none" stroke="#8b4513" d="M223.98,-150.52C202.2,-140.22 168.37,-124.22 141.27,-111.4"/>
<polygon fill="#8b4513" stroke="#8b4513" points="142.53,-108.12 132,-107.01 139.54,-114.45 142.53,-108.12"/>
</g>
<!-- tzdata -->
<g id="node7" class="node">
<title>tzdata</title>
<ellipse fill="green" stroke="green" cx="246.14" cy="-90" rx="31.7" ry="18"/>
<text text-anchor="middle" x="246.14" y="-86.3" font-family="Times,serif" font-size="14.00">tzdata</text>
</g>
<!-- glibc&#45;&gt;tzdata -->
<g id="edge6" class="edge">
<title>glibc&#45;&gt;tzdata</title>
<path fill="none" stroke="#8b4513" d="M246.14,-143.7C246.14,-135.98 246.14,-126.71 246.14,-118.11"/>
<polygon fill="#8b4513" stroke="#8b4513" points="249.64,-118.1 246.14,-108.1 242.64,-118.1 249.64,-118.1"/>
</g>
<!-- filesystem -->
<g id="node8" class="node">
<title>filesystem</title>
<ellipse fill="green" stroke="green" cx="343.14" cy="-90" rx="46.59" ry="18"/>
<text text-anchor="middle" x="343.14" y="-86.3" font-family="Times,serif" font-size="14.00">filesystem</text>
</g>
<!-- glibc&#45;&gt;filesystem -->
<g id="edge7" class="edge">
<title>glibc&#45;&gt;filesystem</title>
<path fill="none" stroke="#8b4513" d="M264.39,-147.83C278.19,-137.88 297.42,-123.99 313.43,-112.44"/>
<polygon fill="#8b4513" stroke="#8b4513" points="315.88,-114.99 321.94,-106.3 311.78,-109.31 315.88,-114.99"/>
</g>
<!-- linux&#45;api&#45;headers -->
<g id="node6" class="node">
<title>linux&#45;api&#45;headers</title>
<ellipse fill="green" stroke="green" cx="98.14" cy="-18" rx="71.49" ry="18"/>
<text text-anchor="middle" x="98.14" y="-14.3" font-family="Times,serif" font-size="14.00">linux&#45;api&#45;headers</text>
</g>
<!-- linux&#45;api&#45;headers&gt;=4.10&#45;&gt;linux&#45;api&#45;headers -->
<g id="edge5" class="edge">
<title>linux&#45;api&#45;headers&gt;=4.10&#45;&gt;linux&#45;api&#45;headers</title>
<path fill="none" stroke="grey" d="M98.14,-71.7C98.14,-60.85 98.14,-46.92 98.14,-36.1"/>
</g>
<!-- iana&#45;etc -->
<g id="node9" class="node">
<title>iana&#45;etc</title>
<ellipse fill="green" stroke="green" cx="343.14" cy="-18" rx="38.19" ry="18"/>
<text text-anchor="middle" x="343.14" y="-14.3" font-family="Times,serif" font-size="14.00">iana&#45;etc</text>
</g>
<!-- filesystem&#45;&gt;iana&#45;etc -->
<g id="edge8" class="edge">
<title>filesystem&#45;&gt;iana&#45;etc</title>
<path fill="none" stroke="#8b4513" d="M343.14,-71.7C343.14,-63.98 343.14,-54.71 343.14,-46.11"/>
<polygon fill="#8b4513" stroke="#8b4513" points="346.64,-46.1 343.14,-36.1 339.64,-46.1 346.64,-46.1"/>
</g>
<!-- readline&#45;&gt;glibc -->
<g id="edge10" class="edge">
<title>readline&#45;&gt;glibc</title>
<path fill="none" stroke="#8b4513" d="M241.18,-510.97C220.5,-502.68 194.39,-488.85 179.14,-468 155.26,-435.36 160.14,-419.45 160.14,-379 160.14,-379 160.14,-379 160.14,-305 160.14,-256.21 197.75,-209.85 223.23,-184.04"/>
<polygon fill="#8b4513" stroke="#8b4513" points="225.69,-186.53 230.37,-177.02 220.78,-181.54 225.69,-186.53"/>
</g>
<!-- readline&#45;&gt;ncurses -->
<g id="edge11" class="edge">
<title>readline&#45;&gt;ncurses</title>
<path fill="none" stroke="#8b4513" d="M304.53,-511.9C325.86,-504.04 352.16,-490.33 365.14,-468 377.54,-446.66 362.87,-420.79 347.93,-402.45"/>
<polygon fill="#8b4513" stroke="#8b4513" points="350.33,-399.87 341.14,-394.6 345.03,-404.45 350.33,-399.87"/>
</g>
<!-- libncursesw.so=6&#45;64 -->
<g id="node14" class="node">
<title>libncursesw.so=6&#45;64</title>
<ellipse fill="green" stroke="green" cx="272.14" cy="-450" rx="83.69" ry="18"/>
<text text-anchor="middle" x="272.14" y="-446.3" font-family="Times,serif" font-size="14.00">libncursesw.so=6&#45;64</text>
</g>
<!-- readline&#45;&gt;libncursesw.so=6&#45;64 -->
<g id="edge16" class="edge">
<title>readline&#45;&gt;libncursesw.so=6&#45;64</title>
<path fill="none" stroke="#8b4513" d="M272.14,-503.7C272.14,-495.98 272.14,-486.71 272.14,-478.11"/>
<polygon fill="#8b4513" stroke="#8b4513" points="275.64,-478.1 272.14,-468.1 268.64,-478.1 275.64,-478.1"/>
</g>
<!-- ncurses&#45;&gt;glibc -->
<g id="edge12" class="edge">
<title>ncurses&#45;&gt;glibc</title>
<path fill="none" stroke="#8b4513" d="M309.5,-361.62C300.26,-351.69 289.04,-338.04 282.14,-324 260.69,-280.35 251.86,-223.77 248.34,-190.62"/>
<polygon fill="#8b4513" stroke="#8b4513" points="251.79,-189.94 247.34,-180.33 244.83,-190.62 251.79,-189.94"/>
</g>
<!-- gcc&#45;libs -->
<g id="node12" class="node">
<title>gcc&#45;libs</title>
<ellipse fill="green" stroke="green" cx="329.14" cy="-306" rx="38.19" ry="18"/>
<text text-anchor="middle" x="329.14" y="-302.3" font-family="Times,serif" font-size="14.00">gcc&#45;libs</text>
</g>
<!-- ncurses&#45;&gt;gcc&#45;libs -->
<g id="edge13" class="edge">
<title>ncurses&#45;&gt;gcc&#45;libs</title>
<path fill="none" stroke="#8b4513" d="M326.13,-359.7C326.57,-351.98 327.1,-342.71 327.59,-334.11"/>
<polygon fill="#8b4513" stroke="#8b4513" points="331.09,-334.29 328.16,-324.1 324.1,-333.89 331.09,-334.29"/>
</g>
<!-- glibc&gt;=2.27 -->
<g id="node13" class="node">
<title>glibc&gt;=2.27</title>
<ellipse fill="green" stroke="green" cx="329.14" cy="-234" rx="54.69" ry="18"/>
<text text-anchor="middle" x="329.14" y="-230.3" font-family="Times,serif" font-size="14.00">glibc&gt;=2.27</text>
</g>
<!-- gcc&#45;libs&#45;&gt;glibc&gt;=2.27 -->
<g id="edge14" class="edge">
<title>gcc&#45;libs&#45;&gt;glibc&gt;=2.27</title>
<path fill="none" stroke="#8b4513" d="M329.14,-287.7C329.14,-279.98 329.14,-270.71 329.14,-262.11"/>
<polygon fill="#8b4513" stroke="#8b4513" points="332.64,-262.1 329.14,-252.1 325.64,-262.1 332.64,-262.1"/>
</g>
<!-- glibc&gt;=2.27&#45;&gt;glibc -->
<g id="edge15" class="edge">
<title>glibc&gt;=2.27&#45;&gt;glibc</title>
<path fill="none" stroke="grey" d="M309.89,-216.76C295.52,-204.65 276.11,-188.27 262.49,-176.79"/>
</g>
<!-- libncursesw.so=6&#45;64&#45;&gt;ncurses -->
<g id="edge17" class="edge">
<title>libncursesw.so=6&#45;64&#45;&gt;ncurses</title>
<path fill="none" stroke="grey" d="M284.97,-432.05C293.43,-420.89 304.44,-406.34 312.79,-395.31"/>
</g>
<!-- sh -->
<g id="node16" class="node">
<title>sh</title>
<ellipse fill="green" stroke="green" cx="397.14" cy="-738" rx="27" ry="18"/>
<text text-anchor="middle" x="397.14" y="-734.3" font-family="Times,serif" font-size="14.00">sh</text>
</g>
<!-- xz&#45;&gt;sh -->
<g id="edge20" class="edge">
<title>xz&#45;&gt;sh</title>
<path fill="none" stroke="#8b4513" d="M328.53,-795.5C341.11,-785.14 358.68,-770.67 372.89,-758.97"/>
<polygon fill="#8b4513" stroke="#8b4513" points="375.31,-761.51 380.8,-752.46 370.86,-756.11 375.31,-761.51"/>
</g>
<!-- bash -->
<g id="node17" class="node">
<title>bash</title>
<ellipse fill="green" stroke="green" cx="397.14" cy="-666" rx="27" ry="18"/>
<text text-anchor="middle" x="397.14" y="-662.3" font-family="Times,serif" font-size="14.00">bash</text>
</g>
<!-- sh&#45;&gt;bash -->
<g id="edge21" class="edge">
<title>sh&#45;&gt;bash</title>
<path fill="none" stroke="grey" d="M391.3,-720.41C390.1,-709.41 390.09,-695.03 391.26,-683.96"/>
</g>
<!-- sh&#45;&gt;bash -->
<g id="edge29" class="edge">
<title>sh&#45;&gt;bash</title>
<path fill="none" stroke="grey" d="M402.98,-720.41C404.18,-709.41 404.19,-695.03 403.02,-683.96"/>
</g>
<!-- bash&#45;&gt;glibc -->
<g id="edge24" class="edge">
<title>bash&#45;&gt;glibc</title>
<path fill="none" stroke="#8b4513" d="M408.99,-649.8C427.24,-624.83 460.14,-572.89 460.14,-523 460.14,-523 460.14,-523 460.14,-305 460.14,-221.12 344.59,-183.84 283.3,-169.97"/>
<polygon fill="#8b4513" stroke="#8b4513" points="283.76,-166.48 273.24,-167.79 282.28,-173.32 283.76,-166.48"/>
</g>
<!-- bash&#45;&gt;ncurses -->
<g id="edge25" class="edge">
<title>bash&#45;&gt;ncurses</title>
<path fill="none" stroke="#8b4513" d="M400.38,-647.96C407.13,-607.68 419.13,-504.56 381.14,-432 374.63,-419.55 364.04,-408.41 353.82,-399.58"/>
<polygon fill="#8b4513" stroke="#8b4513" points="355.74,-396.64 345.78,-393.02 351.32,-402.06 355.74,-396.64"/>
</g>
<!-- readline&gt;=7.0 -->
<g id="node18" class="node">
<title>readline&gt;=7.0</title>
<ellipse fill="green" stroke="green" cx="333.14" cy="-594" rx="61.19" ry="18"/>
<text text-anchor="middle" x="333.14" y="-590.3" font-family="Times,serif" font-size="14.00">readline&gt;=7.0</text>
</g>
<!-- bash&#45;&gt;readline&gt;=7.0 -->
<g id="edge22" class="edge">
<title>bash&#45;&gt;readline&gt;=7.0</title>
<path fill="none" stroke="#8b4513" d="M383.57,-650.15C375.38,-641.2 364.75,-629.58 355.37,-619.31"/>
<polygon fill="#8b4513" stroke="#8b4513" points="357.82,-616.81 348.49,-611.79 352.66,-621.53 357.82,-616.81"/>
</g>
<!-- readline&gt;=7.0&#45;&gt;readline -->
<g id="edge23" class="edge">
<title>readline&gt;=7.0&#45;&gt;readline</title>
<path fill="none" stroke="grey" d="M318.69,-576.41C308.82,-565.09 295.83,-550.18 286.07,-538.99"/>
</g>
<!-- icu&#45;&gt;gcc&#45;libs -->
<g id="edge27" class="edge">
<title>icu&#45;&gt;gcc&#45;libs</title>
<path fill="none" stroke="#8b4513" d="M414.73,-796.3C443.67,-773.8 498.14,-723.88 498.14,-667 498.14,-667 498.14,-667 498.14,-449 498.14,-382 419.31,-340.28 369.33,-320.56"/>
<polygon fill="#8b4513" stroke="#8b4513" points="370.34,-317.2 359.75,-316.91 367.84,-323.74 370.34,-317.2"/>
</g>
<!-- icu&#45;&gt;sh -->
<g id="edge28" class="edge">
<title>icu&#45;&gt;sh</title>
<path fill="none" stroke="#8b4513" d="M397.14,-791.7C397.14,-783.98 397.14,-774.71 397.14,-766.11"/>
<polygon fill="#8b4513" stroke="#8b4513" points="400.64,-766.1 397.14,-756.1 393.64,-766.1 400.64,-766.1"/>
</g>
</g>
</svg>
