<?xml version="1.0" encoding="UTF-8" standalone="no"?>
<!DOCTYPE svg PUBLIC "-//W3C//DTD SVG 1.1//EN"
 "http://www.w3.org/Graphics/SVG/1.1/DTD/svg11.dtd">
<!-- Generated by graphviz version 2.44.0 (0)
 -->
<!-- Title: G Pages: 1 -->
<svg width="506pt" height="1052pt"
 viewBox="0.00 0.00 506.14 1052.00" xmlns="http://www.w3.org/2000/svg" xmlns:xlink="http://www.w3.org/1999/xlink">
<g id="graph0" class="graph" transform="scale(1 1) rotate(0) translate(4 1048)">
<title>G</title>
<polygon fill="white" stroke="transparent" points="-4,4 -4,-1048 502.14,-1048 502.14,4 -4,4"/>
<!-- START -->
<g id="node1" class="node">
<title>START</title>
<ellipse fill="red" stroke="red" cx="274.14" cy="-1026" rx="38.19" ry="18"/>
<text text-anchor="middle" x="274.14" y="-1022.3" font-family="Times,serif" font-size="14.00">START</text>
</g>
<!-- libxslt -->
<g id="node2" class="node">
<title>libxslt</title>
<ellipse fill="green" stroke="green" cx="274.14" cy="-954" rx="32.49" ry="18"/>
<text text-anchor="middle" x="274.14" y="-950.3" font-family="Times,serif" font-size="14.00">libxslt</text>
</g>
<!-- START&#45;&gt;libxslt -->
<g id="edge1" class="edge">
<title>START&#45;&gt;libxslt</title>
<path fill="none" stroke="black" d="M274.14,-1007.7C274.14,-999.98 274.14,-990.71 274.14,-982.11"/>
<polygon fill="black" stroke="black" points="277.64,-982.1 274.14,-972.1 270.64,-982.1 277.64,-982.1"/>
</g>
<!-- libxml2 -->
<g id="node3" class="node">
<title>libxml2</title>
<ellipse fill="green" stroke="green" cx="225.14" cy="-882" rx="38.19" ry="18"/>
<text text-anchor="middle" x="225.14" y="-878.3" font-family="Times,serif" font-size="14.00">libxml2</text>
</g>
<!-- libxslt&#45;&gt;libxml2 -->
<g id="edge2" class="edge">
<title>libxslt&#45;&gt;libxml2</title>
<path fill="none" stroke="#8b4513" d="M262.78,-936.76C256.8,-928.23 249.35,-917.58 242.65,-908.02"/>
<polygon fill="#8b4513" stroke="#8b4513" points="245.39,-905.82 236.78,-899.63 239.65,-909.83 245.39,-905.82"/>
</g>
<!-- libgcrypt -->
<g id="node21" class="node">
<title>libgcrypt</title>
<ellipse fill="green" stroke="green" cx="361.14" cy="-882" rx="42.79" ry="18"/>
<text text-anchor="middle" x="361.14" y="-878.3" font-family="Times,serif" font-size="14.00">libgcrypt</text>
</g>
<!-- libxslt&#45;&gt;libgcrypt -->
<g id="edge31" class="edge">
<title>libxslt&#45;&gt;libgcrypt</title>
<path fill="none" stroke="#8b4513" d="M291.75,-938.83C303.84,-929.11 320.12,-916.01 333.87,-904.94"/>
<polygon fill="#8b4513" stroke="#8b4513" points="336.46,-907.35 342.05,-898.36 332.07,-901.9 336.46,-907.35"/>
</g>
<!-- zlib -->
<g id="node4" class="node">
<title>zlib</title>
<ellipse fill="green" stroke="green" cx="29.14" cy="-738" rx="27" ry="18"/>
<text text-anchor="middle" x="29.14" y="-734.3" font-family="Times,serif" font-size="14.00">zlib</text>
</g>
<!-- libxml2&#45;&gt;zlib -->
<g id="edge3" class="edge">
<title>libxml2&#45;&gt;zlib</title>
<path fill="none" stroke="#8b4513" d="M195.56,-870.09C172.48,-860.82 140.23,-846.13 115.14,-828 88.93,-809.06 63.82,-781.63 47.57,-762.24"/>
<polygon fill="#8b4513" stroke="#8b4513" points="50.23,-759.96 41.17,-754.47 44.82,-764.41 50.23,-759.96"/>
</g>
<!-- readline -->
<g id="node11" class="node">
<title>readline</title>
<ellipse fill="green" stroke="green" cx="206.14" cy="-522" rx="38.99" ry="18"/>
<text text-anchor="middle" x="206.14" y="-518.3" font-family="Times,serif" font-size="14.00">readline</text>
</g>
<!-- libxml2&#45;&gt;readline -->
<g id="edge10" class="edge">
<title>libxml2&#45;&gt;readline</title>
<path fill="none" stroke="#8b4513" d="M221.39,-864.05C215.85,-837.52 206.14,-784.52 206.14,-739 206.14,-739 206.14,-739 206.14,-665 206.14,-625 206.14,-578.65 206.14,-550.08"/>
<polygon fill="#8b4513" stroke="#8b4513" points="209.64,-550.05 206.14,-540.05 202.64,-550.05 209.64,-550.05"/>
</g>
<!-- ncurses -->
<g id="node12" class="node">
<title>ncurses</title>
<ellipse fill="green" stroke="green" cx="280.14" cy="-378" rx="37.09" ry="18"/>
<text text-anchor="middle" x="280.14" y="-374.3" font-family="Times,serif" font-size="14.00">ncurses</text>
</g>
<!-- libxml2&#45;&gt;ncurses -->
<g id="edge19" class="edge">
<title>libxml2&#45;&gt;ncurses</title>
<path fill="none" stroke="#8b4513" d="M228.9,-864.05C234.43,-837.52 244.14,-784.52 244.14,-739 244.14,-739 244.14,-739 244.14,-665 244.14,-624.55 244.34,-611.81 263.14,-576 293.84,-517.55 340.75,-529.35 365.14,-468 371.05,-453.13 372.9,-445.99 365.14,-432 355.24,-414.17 336.58,-401.55 319.25,-393.11"/>
<polygon fill="#8b4513" stroke="#8b4513" points="320.38,-389.78 309.83,-388.85 317.49,-396.16 320.38,-389.78"/>
</g>
<!-- xz -->
<g id="node16" class="node">
<title>xz</title>
<ellipse fill="green" stroke="green" cx="299.14" cy="-810" rx="27" ry="18"/>
<text text-anchor="middle" x="299.14" y="-806.3" font-family="Times,serif" font-size="14.00">xz</text>
</g>
<!-- libxml2&#45;&gt;xz -->
<g id="edge20" class="edge">
<title>libxml2&#45;&gt;xz</title>
<path fill="none" stroke="#8b4513" d="M241.56,-865.46C251.94,-855.65 265.49,-842.83 276.83,-832.1"/>
<polygon fill="#8b4513" stroke="#8b4513" points="279.41,-834.48 284.27,-825.07 274.6,-829.39 279.41,-834.48"/>
</g>
<!-- icu -->
<g id="node20" class="node">
<title>icu</title>
<ellipse fill="green" stroke="green" cx="151.14" cy="-810" rx="27" ry="18"/>
<text text-anchor="middle" x="151.14" y="-806.3" font-family="Times,serif" font-size="14.00">icu</text>
</g>
<!-- libxml2&#45;&gt;icu -->
<g id="edge27" class="edge">
<title>libxml2&#45;&gt;icu</title>
<path fill="none" stroke="#8b4513" d="M208.72,-865.46C198.34,-855.65 184.79,-842.83 173.45,-832.1"/>
<polygon fill="#8b4513" stroke="#8b4513" points="175.68,-829.39 166.01,-825.07 170.87,-834.48 175.68,-829.39"/>
</g>
<!-- glibc -->
<g id="node5" class="node">
<title>glibc</title>
<ellipse fill="green" stroke="green" cx="246.14" cy="-162" rx="28.7" ry="18"/>
<text text-anchor="middle" x="246.14" y="-158.3" font-family="Times,serif" font-size="14.00">glibc</text>
</g>
<!-- zlib&#45;&gt;glibc -->
<g id="edge4" class="edge">
<title>zlib&#45;&gt;glibc</title>
<path fill="none" stroke="#8b4513" d="M30.72,-719.97C33.05,-693.33 37.14,-640.19 37.14,-595 37.14,-595 37.14,-595 37.14,-305 37.14,-222.89 148.87,-184.94 208.94,-170.47"/>
<polygon fill="#8b4513" stroke="#8b4513" points="209.86,-173.85 218.82,-168.19 208.29,-167.03 209.86,-173.85"/>
</g>
<!-- linux&#45;api&#45;headers&gt;=4.10 -->
<g id="node6" class="node">
<title>linux&#45;api&#45;headers&gt;=4.10</title>
<ellipse fill="green" stroke="green" cx="98.14" cy="-90" rx="98.28" ry="18"/>
<text text-anchor="middle" x="98.14" y="-86.3" font-family="Times,serif" font-size="14.00">linux&#45;api&#45;headers&gt;=4.10</text>
</g>
<!-- glibc&#45;&gt;linux&#45;api&#45;headers&gt;=4.10 -->
<g id="edge5" class="edge">
<title>glibc&#45;&gt;linux&#45;api&#45;headers&gt;=4.10</title>
<path fill="none" stroke="#8b4513" d="M223.98,-150.52C202.2,-140.22 168.37,-124.22 141.27,-111.4"/>
<polygon fill="#8b4513" stroke="#8b4513" points="142.53,-108.12 132,-107.01 139.54,-114.45 142.53,-108.12"/>
</g>
<!-- tzdata -->
<g id="node8" class="node">
<title>tzdata</title>
<ellipse fill="green" stroke="green" cx="246.14" cy="-90" rx="31.7" ry="18"/>
<text text-anchor="middle" x="246.14" y="-86.3" font-family="Times,serif" font-size="14.00">tzdata</text>
</g>
<!-- glibc&#45;&gt;tzdata -->
<g id="edge7" class="edge">
<title>glibc&#45;&gt;tzdata</title>
<path fill="none" stroke="#8b4513" d="M246.14,-143.7C246.14,-135.98 246.14,-126.71 246.14,-118.11"/>
<polygon fill="#8b4513" stroke="#8b4513" points="249.64,-118.1 246.14,-108.1 242.64,-118.1 249.64,-118.1"/>
</g>
<!-- filesystem -->
<g id="node9" class="node">
<title>filesystem</title>
<ellipse fill="green" stroke="green" cx="343.14" cy="-90" rx="46.59" ry="18"/>
<text text-anchor="middle" x="343.14" y="-86.3" font-family="Times,serif" font-size="14.00">filesystem</text>
</g>
<!-- glibc&#45;&gt;filesystem -->
<g id="edge8" class="edge">
<title>glibc&#45;&gt;filesystem</title>
<path fill="none" stroke="#8b4513" d="M264.39,-147.83C278.19,-137.88 297.42,-123.99 313.43,-112.44"/>
<polygon fill="#8b4513" stroke="#8b4513" points="315.88,-114.99 321.94,-106.3 311.78,-109.31 315.88,-114.99"/>
</g>
<!-- linux&#45;api&#45;headers -->
<g id="node7" class="node">
<title>linux&#45;api&#45;headers</title>
<ellipse fill="green" stroke="green" cx="98.14" cy="-18" rx="71.49" ry="18"/>
<text text-anchor="middle" x="98.14" y="-14.3" font-family="Times,serif" font-size="14.00">linux&#45;api&#45;headers</text>
</g>
<!-- linux&#45;api&#45;headers&gt;=4.10&#45;&gt;linux&#45;api&#45;headers -->
<g id="edge6" class="edge">
<title>linux&#45;api&#45;headers&gt;=4.10&#45;&gt;linux&#45;api&#45;headers</title>
<path fill="none" stroke="grey" d="M98.14,-71.7C98.14,-60.85 98.14,-46.92 98.14,-36.1"/>
</g>
<!-- iana&#45;etc -->
<g id="node10" class="node">
<title>iana&#45;etc</title>
<ellipse fill="green" stroke="green" cx="343.14" cy="-18" rx="38.19" ry="18"/>
<text text-anchor="middle" x="343.14" y="-14.3" font-family="Times,serif" font-size="14.00">iana&#45;etc</text>
</g>
<!-- filesystem&#45;&gt;iana&#45;etc -->
<g id="edge9" class="edge">
<title>filesystem&#45;&gt;iana&#45;etc</title>
<path fill="none" stroke="#8b4513" d="M343.14,-71.7C343.14,-63.98 343.14,-54.71 343.14,-46.11"/>
<polygon fill="#8b4513" stroke="#8b4513" points="346.64,-46.1 343.14,-36.1 339.64,-46.1 346.64,-46.1"/>
</g>
<!-- readline&#45;&gt;glibc -->
<g id="edge11" class="edge">
<title>readline&#45;&gt;glibc</title>
<path fill="none" stroke="#8b4513" d="M189.14,-505.33C164.6,-480.91 122.14,-431.13 122.14,-379 122.14,-379 122.14,-379 122.14,-305 122.14,-264.55 116.44,-248.03 141.14,-216 158.19,-193.88 186.99,-180.27 210.12,-172.39"/>
<polygon fill="#8b4513" stroke="#8b4513" points="211.49,-175.63 219.96,-169.26 209.37,-168.96 211.49,-175.63"/>
</g>
<!-- readline&#45;&gt;ncurses -->
<g id="edge12" class="edge">
<title>readline&#45;&gt;ncurses</title>
<path fill="none" stroke="#8b4513" d="M193.79,-504.91C181.12,-486.29 165.11,-455.21 179.14,-432 191.93,-410.84 216.28,-397.71 237.86,-389.81"/>
<polygon fill="#8b4513" stroke="#8b4513" points="239.18,-393.06 247.53,-386.54 236.94,-386.43 239.18,-393.06"/>
</g>
<!-- libncursesw.so=6&#45;64 -->
<g id="node15" class="node">
<title>libncursesw.so=6&#45;64</title>
<ellipse fill="green" stroke="green" cx="272.14" cy="-450" rx="83.69" ry="18"/>
<text text-anchor="middle" x="272.14" y="-446.3" font-family="Times,serif" font-size="14.00">libncursesw.so=6&#45;64</text>
</g>
<!-- readline&#45;&gt;libncursesw.so=6&#45;64 -->
<g id="edge17" class="edge">
<title>readline&#45;&gt;libncursesw.so=6&#45;64</title>
<path fill="none" stroke="#8b4513" d="M221.12,-505.12C229.48,-496.24 240.08,-485.01 249.44,-475.08"/>
<polygon fill="#8b4513" stroke="#8b4513" points="251.99,-477.47 256.3,-467.8 246.9,-472.67 251.99,-477.47"/>
</g>
<!-- ncurses&#45;&gt;glibc -->
<g id="edge13" class="edge">
<title>ncurses&#45;&gt;glibc</title>
<path fill="none" stroke="#8b4513" d="M280.86,-359.79C281.69,-330.02 281.6,-267.18 269.14,-216 266.87,-206.65 263.07,-196.87 259.21,-188.29"/>
<polygon fill="#8b4513" stroke="#8b4513" points="262.34,-186.74 254.9,-179.2 256.02,-189.74 262.34,-186.74"/>
</g>
<!-- gcc&#45;libs -->
<g id="node13" class="node">
<title>gcc&#45;libs</title>
<ellipse fill="green" stroke="green" cx="205.14" cy="-306" rx="38.19" ry="18"/>
<text text-anchor="middle" x="205.14" y="-302.3" font-family="Times,serif" font-size="14.00">gcc&#45;libs</text>
</g>
<!-- ncurses&#45;&gt;gcc&#45;libs -->
<g id="edge14" class="edge">
<title>ncurses&#45;&gt;gcc&#45;libs</title>
<path fill="none" stroke="#8b4513" d="M263.87,-361.81C253.72,-352.34 240.47,-339.97 229.13,-329.39"/>
<polygon fill="#8b4513" stroke="#8b4513" points="231.34,-326.67 221.64,-322.4 226.56,-331.78 231.34,-326.67"/>
</g>
<!-- glibc&gt;=2.27 -->
<g id="node14" class="node">
<title>glibc&gt;=2.27</title>
<ellipse fill="green" stroke="green" cx="205.14" cy="-234" rx="54.69" ry="18"/>
<text text-anchor="middle" x="205.14" y="-230.3" font-family="Times,serif" font-size="14.00">glibc&gt;=2.27</text>
</g>
<!-- gcc&#45;libs&#45;&gt;glibc&gt;=2.27 -->
<g id="edge15" class="edge">
<title>gcc&#45;libs&#45;&gt;glibc&gt;=2.27</title>
<path fill="none" stroke="#8b4513" d="M205.14,-287.7C205.14,-279.98 205.14,-270.71 205.14,-262.11"/>
<polygon fill="#8b4513" stroke="#8b4513" points="208.64,-262.1 205.14,-252.1 201.64,-262.1 208.64,-262.1"/>
</g>
<!-- glibc&gt;=2.27&#45;&gt;glibc -->
<g id="edge16" class="edge">
<title>glibc&gt;=2.27&#45;&gt;glibc</title>
<path fill="none" stroke="grey" d="M215.07,-216.05C221.61,-204.89 230.13,-190.34 236.59,-179.31"/>
</g>
<!-- libncursesw.so=6&#45;64&#45;&gt;ncurses -->
<g id="edge18" class="edge">
<title>libncursesw.so=6&#45;64&#45;&gt;ncurses</title>
<path fill="none" stroke="grey" d="M274.12,-431.7C275.36,-420.85 276.95,-406.92 278.19,-396.1"/>
</g>
<!-- sh -->
<g id="node17" class="node">
<title>sh</title>
<ellipse fill="green" stroke="green" cx="365.14" cy="-738" rx="27" ry="18"/>
<text text-anchor="middle" x="365.14" y="-734.3" font-family="Times,serif" font-size="14.00">sh</text>
</g>
<!-- xz&#45;&gt;sh -->
<g id="edge21" class="edge">
<title>xz&#45;&gt;sh</title>
<path fill="none" stroke="#8b4513" d="M313.14,-794.15C322.15,-784.6 334.03,-771.99 344.16,-761.25"/>
<polygon fill="#8b4513" stroke="#8b4513" points="346.85,-763.5 351.16,-753.82 341.76,-758.7 346.85,-763.5"/>
</g>
<!-- bash -->
<g id="node18" class="node">
<title>bash</title>
<ellipse fill="green" stroke="green" cx="365.14" cy="-666" rx="27" ry="18"/>
<text text-anchor="middle" x="365.14" y="-662.3" font-family="Times,serif" font-size="14.00">bash</text>
</g>
<!-- sh&#45;&gt;bash -->
<g id="edge22" class="edge">
<title>sh&#45;&gt;bash</title>
<path fill="none" stroke="grey" d="M353.7,-721.46C350.95,-709.86 350.95,-694.08 353.71,-682.49"/>
</g>
<!-- sh&#45;&gt;bash -->
<g id="edge30" class="edge">
<title>sh&#45;&gt;bash</title>
<path fill="none" stroke="grey" d="M365.14,-719.7C365.14,-708.85 365.14,-694.92 365.14,-684.1"/>
</g>
<!-- sh&#45;&gt;bash -->
<g id="edge35" class="edge">
<title>sh&#45;&gt;bash</title>
<path fill="none" stroke="grey" d="M376.58,-721.46C379.33,-709.86 379.33,-694.08 376.57,-682.49"/>
</g>
<!-- bash&#45;&gt;glibc -->
<g id="edge25" class="edge">
<title>bash&#45;&gt;glibc</title>
<path fill="none" stroke="#8b4513" d="M382.68,-651.96C395.01,-642.08 411.19,-627.59 422.14,-612 446.87,-576.81 460.14,-566.01 460.14,-523 460.14,-523 460.14,-523 460.14,-305 460.14,-221.12 344.59,-183.84 283.3,-169.97"/>
<polygon fill="#8b4513" stroke="#8b4513" points="283.76,-166.48 273.24,-167.79 282.28,-173.32 283.76,-166.48"/>
</g>
<!-- bash&#45;&gt;ncurses -->
<g id="edge26" class="edge">
<title>bash&#45;&gt;ncurses</title>
<path fill="none" stroke="#8b4513" d="M379.26,-650.64C388,-640.7 398.43,-626.66 403.14,-612 416.79,-569.55 445.54,-502.53 398.14,-432 381.66,-407.48 350.97,-394.17 325.01,-387.01"/>
<polygon fill="#8b4513" stroke="#8b4513" points="325.52,-383.53 314.97,-384.48 323.81,-390.32 325.52,-383.53"/>
</g>
<!-- readline&gt;=7.0 -->
<g id="node19" class="node">
<title>readline&gt;=7.0</title>
<ellipse fill="green" stroke="green" cx="333.14" cy="-594" rx="61.19" ry="18"/>
<text text-anchor="middle" x="333.14" y="-590.3" font-family="Times,serif" font-size="14.00">readline&gt;=7.0</text>
</g>
<!-- bash&#45;&gt;readline&gt;=7.0 -->
<g id="edge23" class="edge">
<title>bash&#45;&gt;readline&gt;=7.0</title>
<path fill="none" stroke="#8b4513" d="M357.56,-648.41C353.83,-640.25 349.24,-630.22 345.06,-621.07"/>
<polygon fill="#8b4513" stroke="#8b4513" points="348.23,-619.6 340.89,-611.96 341.87,-622.51 348.23,-619.6"/>
</g>
<!-- readline&gt;=7.0&#45;&gt;readline -->
<g id="edge24" class="edge">
<title>readline&gt;=7.0&#45;&gt;readline</title>
<path fill="none" stroke="grey" d="M305.58,-577.81C283.11,-565.43 251.69,-548.11 230.22,-536.27"/>
</g>
<!-- icu&#45;&gt;gcc&#45;libs -->
<g id="edge28" class="edge">
<title>icu&#45;&gt;gcc&#45;libs</title>
<path fill="none" stroke="#8b4513" d="M138.54,-793.93C119.13,-769.13 84.14,-717.43 84.14,-667 84.14,-667 84.14,-667 84.14,-449 84.14,-394.21 136.98,-349.83 172.82,-326.02"/>
<polygon fill="#8b4513" stroke="#8b4513" points="175.01,-328.77 181.52,-320.42 171.22,-322.89 175.01,-328.77"/>
</g>
<!-- icu&#45;&gt;sh -->
<g id="edge29" class="edge">
<title>icu&#45;&gt;sh</title>
<path fill="none" stroke="#8b4513" d="M174.86,-801.24C213.02,-788.76 288.17,-764.18 331.74,-749.93"/>
<polygon fill="#8b4513" stroke="#8b4513" points="332.9,-753.23 341.32,-746.79 330.72,-746.58 332.9,-753.23"/>
</g>
<!-- libgpg&#45;error -->
<g id="node22" class="node">
<title>libgpg&#45;error</title>
<ellipse fill="green" stroke="green" cx="398.14" cy="-810" rx="53.89" ry="18"/>
<text text-anchor="middle" x="398.14" y="-806.3" font-family="Times,serif" font-size="14.00">libgpg&#45;error</text>
</g>
<!-- libgcrypt&#45;&gt;libgpg&#45;error -->
<g id="edge32" class="edge">
<title>libgcrypt&#45;&gt;libgpg&#45;error</title>
<path fill="none" stroke="#8b4513" d="M370.1,-864.05C374.42,-855.89 379.69,-845.91 384.49,-836.82"/>
<polygon fill="#8b4513" stroke="#8b4513" points="387.69,-838.27 389.27,-827.79 381.5,-834.99 387.69,-838.27"/>
</g>
<!-- libgpg&#45;error&#45;&gt;glibc -->
<g id="edge33" class="edge">
<title>libgpg&#45;error&#45;&gt;glibc</title>
<path fill="none" stroke="#8b4513" d="M419.35,-793.24C448.7,-769.43 498.14,-721.27 498.14,-667 498.14,-667 498.14,-667 498.14,-305 498.14,-208.27 355.49,-176.71 284.84,-167.02"/>
<polygon fill="#8b4513" stroke="#8b4513" points="284.92,-163.5 274.56,-165.69 284.03,-170.44 284.92,-163.5"/>
</g>
<!-- libgpg&#45;error&#45;&gt;sh -->
<g id="edge34" class="edge">
<title>libgpg&#45;error&#45;&gt;sh</title>
<path fill="none" stroke="#8b4513" d="M390.15,-792.05C386.25,-783.77 381.46,-773.62 377.13,-764.42"/>
<polygon fill="#8b4513" stroke="#8b4513" points="380.26,-762.86 372.83,-755.31 373.93,-765.84 380.26,-762.86"/>
</g>
</g>
</svg>
