<?xml version="1.0" encoding="UTF-8" standalone="no"?>
<!DOCTYPE svg PUBLIC "-//W3C//DTD SVG 1.1//EN"
 "http://www.w3.org/Graphics/SVG/1.1/DTD/svg11.dtd">
<!-- Generated by graphviz version 2.44.0 (0)
 -->
<!-- Title: G Pages: 1 -->
<svg width="1152pt" height="1340pt"
 viewBox="0.00 0.00 1152.00 1340.00" xmlns="http://www.w3.org/2000/svg" xmlns:xlink="http://www.w3.org/1999/xlink">
<g id="graph0" class="graph" transform="scale(1 1) rotate(0) translate(4 1336)">
<title>G</title>
<polygon fill="white" stroke="transparent" points="-4,4 -4,-1336 1148,-1336 1148,4 -4,4"/>
<!-- START -->
<g id="node1" class="node">
<title>START</title>
<ellipse fill="red" stroke="red" cx="110" cy="-1314" rx="38.19" ry="18"/>
<text text-anchor="middle" x="110" y="-1310.3" font-family="Times,serif" font-size="14.00">START</text>
</g>
<!-- make -->
<g id="node2" class="node">
<title>make</title>
<ellipse fill="green" stroke="green" cx="110" cy="-1242" rx="30.59" ry="18"/>
<text text-anchor="middle" x="110" y="-1238.3" font-family="Times,serif" font-size="14.00">make</text>
</g>
<!-- START&#45;&gt;make -->
<g id="edge1" class="edge">
<title>START&#45;&gt;make</title>
<path fill="none" stroke="black" d="M110,-1295.7C110,-1287.98 110,-1278.71 110,-1270.11"/>
<polygon fill="black" stroke="black" points="113.5,-1270.1 110,-1260.1 106.5,-1270.1 113.5,-1270.1"/>
</g>
<!-- glibc -->
<g id="node3" class="node">
<title>glibc</title>
<ellipse fill="green" stroke="green" cx="429" cy="-162" rx="28.7" ry="18"/>
<text text-anchor="middle" x="429" y="-158.3" font-family="Times,serif" font-size="14.00">glibc</text>
</g>
<!-- make&#45;&gt;glibc -->
<g id="edge2" class="edge">
<title>make&#45;&gt;glibc</title>
<path fill="none" stroke="#8b4513" d="M90.08,-1228.14C58.38,-1205.94 0,-1157.16 0,-1099 0,-1099 0,-1099 0,-305 0,-249.68 37.82,-241.31 87,-216 139.43,-189.02 312.49,-172.26 390.39,-165.9"/>
<polygon fill="#8b4513" stroke="#8b4513" points="391.04,-169.36 400.73,-165.08 390.49,-162.38 391.04,-169.36"/>
</g>
<!-- guile -->
<g id="node9" class="node">
<title>guile</title>
<ellipse fill="green" stroke="green" cx="250" cy="-1170" rx="28.7" ry="18"/>
<text text-anchor="middle" x="250" y="-1166.3" font-family="Times,serif" font-size="14.00">guile</text>
</g>
<!-- make&#45;&gt;guile -->
<g id="edge8" class="edge">
<title>make&#45;&gt;guile</title>
<path fill="none" stroke="#8b4513" d="M132.49,-1229.75C155.9,-1218.05 192.72,-1199.64 218.9,-1186.55"/>
<polygon fill="#8b4513" stroke="#8b4513" points="220.64,-1189.59 228.02,-1181.99 217.51,-1183.33 220.64,-1189.59"/>
</g>
<!-- linux&#45;api&#45;headers&gt;=4.10 -->
<g id="node4" class="node">
<title>linux&#45;api&#45;headers&gt;=4.10</title>
<ellipse fill="green" stroke="green" cx="281" cy="-90" rx="98.28" ry="18"/>
<text text-anchor="middle" x="281" y="-86.3" font-family="Times,serif" font-size="14.00">linux&#45;api&#45;headers&gt;=4.10</text>
</g>
<!-- glibc&#45;&gt;linux&#45;api&#45;headers&gt;=4.10 -->
<g id="edge3" class="edge">
<title>glibc&#45;&gt;linux&#45;api&#45;headers&gt;=4.10</title>
<path fill="none" stroke="#8b4513" d="M406.84,-150.52C385.06,-140.22 351.23,-124.22 324.13,-111.4"/>
<polygon fill="#8b4513" stroke="#8b4513" points="325.39,-108.12 314.85,-107.01 322.4,-114.45 325.39,-108.12"/>
</g>
<!-- tzdata -->
<g id="node6" class="node">
<title>tzdata</title>
<ellipse fill="green" stroke="green" cx="429" cy="-90" rx="31.7" ry="18"/>
<text text-anchor="middle" x="429" y="-86.3" font-family="Times,serif" font-size="14.00">tzdata</text>
</g>
<!-- glibc&#45;&gt;tzdata -->
<g id="edge5" class="edge">
<title>glibc&#45;&gt;tzdata</title>
<path fill="none" stroke="#8b4513" d="M429,-143.7C429,-135.98 429,-126.71 429,-118.11"/>
<polygon fill="#8b4513" stroke="#8b4513" points="432.5,-118.1 429,-108.1 425.5,-118.1 432.5,-118.1"/>
</g>
<!-- filesystem -->
<g id="node7" class="node">
<title>filesystem</title>
<ellipse fill="green" stroke="green" cx="526" cy="-90" rx="46.59" ry="18"/>
<text text-anchor="middle" x="526" y="-86.3" font-family="Times,serif" font-size="14.00">filesystem</text>
</g>
<!-- glibc&#45;&gt;filesystem -->
<g id="edge6" class="edge">
<title>glibc&#45;&gt;filesystem</title>
<path fill="none" stroke="#8b4513" d="M447.24,-147.83C461.04,-137.88 480.28,-123.99 496.29,-112.44"/>
<polygon fill="#8b4513" stroke="#8b4513" points="498.74,-114.99 504.8,-106.3 494.64,-109.31 498.74,-114.99"/>
</g>
<!-- linux&#45;api&#45;headers -->
<g id="node5" class="node">
<title>linux&#45;api&#45;headers</title>
<ellipse fill="green" stroke="green" cx="281" cy="-18" rx="71.49" ry="18"/>
<text text-anchor="middle" x="281" y="-14.3" font-family="Times,serif" font-size="14.00">linux&#45;api&#45;headers</text>
</g>
<!-- linux&#45;api&#45;headers&gt;=4.10&#45;&gt;linux&#45;api&#45;headers -->
<g id="edge4" class="edge">
<title>linux&#45;api&#45;headers&gt;=4.10&#45;&gt;linux&#45;api&#45;headers</title>
<path fill="none" stroke="grey" d="M281,-71.7C281,-60.85 281,-46.92 281,-36.1"/>
</g>
<!-- iana&#45;etc -->
<g id="node8" class="node">
<title>iana&#45;etc</title>
<ellipse fill="green" stroke="green" cx="526" cy="-18" rx="38.19" ry="18"/>
<text text-anchor="middle" x="526" y="-14.3" font-family="Times,serif" font-size="14.00">iana&#45;etc</text>
</g>
<!-- filesystem&#45;&gt;iana&#45;etc -->
<g id="edge7" class="edge">
<title>filesystem&#45;&gt;iana&#45;etc</title>
<path fill="none" stroke="#8b4513" d="M526,-71.7C526,-63.98 526,-54.71 526,-46.11"/>
<polygon fill="#8b4513" stroke="#8b4513" points="529.5,-46.1 526,-36.1 522.5,-46.1 529.5,-46.1"/>
</g>
<!-- gmp -->
<g id="node10" class="node">
<title>gmp</title>
<ellipse fill="green" stroke="green" cx="335" cy="-810" rx="27" ry="18"/>
<text text-anchor="middle" x="335" y="-806.3" font-family="Times,serif" font-size="14.00">gmp</text>
</g>
<!-- guile&#45;&gt;gmp -->
<g id="edge9" class="edge">
<title>guile&#45;&gt;gmp</title>
<path fill="none" stroke="#8b4513" d="M264.3,-1154.23C286.31,-1129.85 326,-1078.73 326,-1027 326,-1027 326,-1027 326,-953 326,-912.92 329.62,-866.59 332.26,-838.05"/>
<polygon fill="#8b4513" stroke="#8b4513" points="335.75,-838.31 333.22,-828.03 328.79,-837.65 335.75,-838.31"/>
</g>
<!-- ncurses -->
<g id="node17" class="node">
<title>ncurses</title>
<ellipse fill="green" stroke="green" cx="832" cy="-378" rx="37.09" ry="18"/>
<text text-anchor="middle" x="832" y="-374.3" font-family="Times,serif" font-size="14.00">ncurses</text>
</g>
<!-- guile&#45;&gt;ncurses -->
<g id="edge36" class="edge">
<title>guile&#45;&gt;ncurses</title>
<path fill="none" stroke="#8b4513" d="M278.63,-1167.13C423.41,-1157.29 1068,-1108.89 1068,-1027 1068,-1027 1068,-1027 1068,-665 1068,-543.73 1022.07,-506.01 926,-432 907.72,-417.91 885.26,-405.11 866.89,-395.62"/>
<polygon fill="#8b4513" stroke="#8b4513" points="868.46,-392.5 857.96,-391.1 865.3,-398.74 868.46,-392.5"/>
</g>
<!-- libltdl -->
<g id="node19" class="node">
<title>libltdl</title>
<ellipse fill="green" stroke="green" cx="220" cy="-1098" rx="31.7" ry="18"/>
<text text-anchor="middle" x="220" y="-1094.3" font-family="Times,serif" font-size="14.00">libltdl</text>
</g>
<!-- guile&#45;&gt;libltdl -->
<g id="edge25" class="edge">
<title>guile&#45;&gt;libltdl</title>
<path fill="none" stroke="#8b4513" d="M242.89,-1152.41C239.43,-1144.34 235.18,-1134.43 231.29,-1125.35"/>
<polygon fill="#8b4513" stroke="#8b4513" points="234.42,-1123.77 227.27,-1115.96 227.99,-1126.53 234.42,-1123.77"/>
</g>
<!-- texinfo -->
<g id="node24" class="node">
<title>texinfo</title>
<ellipse fill="green" stroke="green" cx="600" cy="-1098" rx="36" ry="18"/>
<text text-anchor="middle" x="600" y="-1094.3" font-family="Times,serif" font-size="14.00">texinfo</text>
</g>
<!-- guile&#45;&gt;texinfo -->
<g id="edge37" class="edge">
<title>guile&#45;&gt;texinfo</title>
<path fill="none" stroke="#8b4513" d="M276.88,-1163.62C337.22,-1151.56 483.86,-1122.23 557.02,-1107.6"/>
<polygon fill="#8b4513" stroke="#8b4513" points="558.14,-1110.94 567.26,-1105.55 556.77,-1104.08 558.14,-1110.94"/>
</g>
<!-- libunistring -->
<g id="node34" class="node">
<title>libunistring</title>
<ellipse fill="green" stroke="green" cx="80" cy="-1026" rx="51.99" ry="18"/>
<text text-anchor="middle" x="80" y="-1022.3" font-family="Times,serif" font-size="14.00">libunistring</text>
</g>
<!-- guile&#45;&gt;libunistring -->
<g id="edge68" class="edge">
<title>guile&#45;&gt;libunistring</title>
<path fill="none" stroke="#8b4513" d="M225.41,-1160.23C203.05,-1151.43 169.98,-1136.28 146,-1116 124.7,-1097.98 106.35,-1071.82 94.44,-1052.52"/>
<polygon fill="#8b4513" stroke="#8b4513" points="97.43,-1050.7 89.29,-1043.92 91.43,-1054.3 97.43,-1050.7"/>
</g>
<!-- gc -->
<g id="node35" class="node">
<title>gc</title>
<ellipse fill="green" stroke="green" cx="294" cy="-738" rx="27" ry="18"/>
<text text-anchor="middle" x="294" y="-734.3" font-family="Times,serif" font-size="14.00">gc</text>
</g>
<!-- guile&#45;&gt;gc -->
<g id="edge70" class="edge">
<title>guile&#45;&gt;gc</title>
<path fill="none" stroke="#8b4513" d="M255.93,-1152.19C264.67,-1125.86 280,-1073.11 280,-1027 280,-1027 280,-1027 280,-881 280,-840.8 285.62,-794.51 289.74,-766"/>
<polygon fill="#8b4513" stroke="#8b4513" points="293.22,-766.4 291.23,-756 286.3,-765.37 293.22,-766.4"/>
</g>
<!-- libffi -->
<g id="node36" class="node">
<title>libffi</title>
<ellipse fill="green" stroke="green" cx="137" cy="-666" rx="27.9" ry="18"/>
<text text-anchor="middle" x="137" y="-662.3" font-family="Times,serif" font-size="14.00">libffi</text>
</g>
<!-- guile&#45;&gt;libffi -->
<g id="edge72" class="edge">
<title>guile&#45;&gt;libffi</title>
<path fill="none" stroke="#8b4513" d="M227.69,-1158.72C211.24,-1149.87 189.92,-1135.45 179,-1116 138.16,-1043.23 136.21,-780.35 136.7,-694.4"/>
<polygon fill="#8b4513" stroke="#8b4513" points="140.21,-694.18 136.78,-684.15 133.21,-694.13 140.21,-694.18"/>
</g>
<!-- gcc&#45;libs -->
<g id="node11" class="node">
<title>gcc&#45;libs</title>
<ellipse fill="green" stroke="green" cx="479" cy="-306" rx="38.19" ry="18"/>
<text text-anchor="middle" x="479" y="-302.3" font-family="Times,serif" font-size="14.00">gcc&#45;libs</text>
</g>
<!-- gmp&#45;&gt;gcc&#45;libs -->
<g id="edge10" class="edge">
<title>gmp&#45;&gt;gcc&#45;libs</title>
<path fill="none" stroke="#8b4513" d="M339.87,-792.01C361.07,-718.12 445.32,-424.4 471.32,-333.77"/>
<polygon fill="#8b4513" stroke="#8b4513" points="474.73,-334.56 474.13,-323.99 468.01,-332.63 474.73,-334.56"/>
</g>
<!-- sh -->
<g id="node13" class="node">
<title>sh</title>
<ellipse fill="green" stroke="green" cx="583" cy="-738" rx="27" ry="18"/>
<text text-anchor="middle" x="583" y="-734.3" font-family="Times,serif" font-size="14.00">sh</text>
</g>
<!-- gmp&#45;&gt;sh -->
<g id="edge13" class="edge">
<title>gmp&#45;&gt;sh</title>
<path fill="none" stroke="#8b4513" d="M359.69,-802.03C404.16,-789.48 497.82,-763.04 548.57,-748.72"/>
<polygon fill="#8b4513" stroke="#8b4513" points="549.74,-752.02 558.41,-745.94 547.84,-745.29 549.74,-752.02"/>
</g>
<!-- glibc&gt;=2.27 -->
<g id="node12" class="node">
<title>glibc&gt;=2.27</title>
<ellipse fill="green" stroke="green" cx="471" cy="-234" rx="54.69" ry="18"/>
<text text-anchor="middle" x="471" y="-230.3" font-family="Times,serif" font-size="14.00">glibc&gt;=2.27</text>
</g>
<!-- gcc&#45;libs&#45;&gt;glibc&gt;=2.27 -->
<g id="edge11" class="edge">
<title>gcc&#45;libs&#45;&gt;glibc&gt;=2.27</title>
<path fill="none" stroke="#8b4513" d="M477.02,-287.7C476.14,-279.98 475.08,-270.71 474.1,-262.11"/>
<polygon fill="#8b4513" stroke="#8b4513" points="477.57,-261.64 472.95,-252.1 470.61,-262.44 477.57,-261.64"/>
</g>
<!-- glibc&gt;=2.27&#45;&gt;glibc -->
<g id="edge12" class="edge">
<title>glibc&gt;=2.27&#45;&gt;glibc</title>
<path fill="none" stroke="grey" d="M460.83,-216.05C454.13,-204.89 445.41,-190.34 438.78,-179.31"/>
</g>
<!-- bash -->
<g id="node14" class="node">
<title>bash</title>
<ellipse fill="green" stroke="green" cx="583" cy="-666" rx="27" ry="18"/>
<text text-anchor="middle" x="583" y="-662.3" font-family="Times,serif" font-size="14.00">bash</text>
</g>
<!-- sh&#45;&gt;bash -->
<g id="edge14" class="edge">
<title>sh&#45;&gt;bash</title>
<path fill="none" stroke="grey" d="M559.93,-728.42C545.72,-714.98 545.69,-689.13 559.85,-675.65"/>
</g>
<!-- sh&#45;&gt;bash -->
<g id="edge28" class="edge">
<title>sh&#45;&gt;bash</title>
<path fill="none" stroke="grey" d="M566.63,-723.5C561.45,-711.11 561.46,-692.84 566.64,-680.46"/>
</g>
<!-- sh&#45;&gt;bash -->
<g id="edge53" class="edge">
<title>sh&#45;&gt;bash</title>
<path fill="none" stroke="grey" d="M577.16,-720.41C575.96,-709.41 575.95,-695.03 577.12,-683.96"/>
</g>
<!-- sh&#45;&gt;bash -->
<g id="edge60" class="edge">
<title>sh&#45;&gt;bash</title>
<path fill="none" stroke="grey" d="M588.84,-720.41C590.04,-709.41 590.05,-695.03 588.88,-683.96"/>
</g>
<!-- sh&#45;&gt;bash -->
<g id="edge64" class="edge">
<title>sh&#45;&gt;bash</title>
<path fill="none" stroke="grey" d="M599.37,-723.5C604.55,-711.11 604.54,-692.84 599.36,-680.46"/>
</g>
<!-- sh&#45;&gt;bash -->
<g id="edge67" class="edge">
<title>sh&#45;&gt;bash</title>
<path fill="none" stroke="grey" d="M606.07,-728.42C620.28,-714.98 620.31,-689.13 606.15,-675.65"/>
</g>
<!-- bash&#45;&gt;glibc -->
<g id="edge23" class="edge">
<title>bash&#45;&gt;glibc</title>
<path fill="none" stroke="#8b4513" d="M574.71,-648.87C562.21,-623.02 540,-570.4 540,-523 540,-523 540,-523 540,-449 540,-345.42 590.4,-303.52 535,-216 519.79,-191.97 490.09,-178.43 465.99,-171.07"/>
<polygon fill="#8b4513" stroke="#8b4513" points="466.64,-167.62 456.06,-168.28 464.74,-174.35 466.64,-167.62"/>
</g>
<!-- readline&gt;=7.0 -->
<g id="node15" class="node">
<title>readline&gt;=7.0</title>
<ellipse fill="green" stroke="green" cx="743" cy="-594" rx="61.19" ry="18"/>
<text text-anchor="middle" x="743" y="-590.3" font-family="Times,serif" font-size="14.00">readline&gt;=7.0</text>
</g>
<!-- bash&#45;&gt;readline&gt;=7.0 -->
<g id="edge15" class="edge">
<title>bash&#45;&gt;readline&gt;=7.0</title>
<path fill="none" stroke="#8b4513" d="M604.91,-655.41C629.58,-644.62 670.22,-626.84 701.05,-613.35"/>
<polygon fill="#8b4513" stroke="#8b4513" points="702.51,-616.53 710.27,-609.32 699.71,-610.12 702.51,-616.53"/>
</g>
<!-- bash&#45;&gt;ncurses -->
<g id="edge24" class="edge">
<title>bash&#45;&gt;ncurses</title>
<path fill="none" stroke="#8b4513" d="M584.67,-647.94C589.76,-605.31 608.84,-493.22 673,-432 703.66,-402.75 750.89,-389.63 785.91,-383.75"/>
<polygon fill="#8b4513" stroke="#8b4513" points="786.55,-387.19 795.9,-382.21 785.48,-380.27 786.55,-387.19"/>
</g>
<!-- readline -->
<g id="node16" class="node">
<title>readline</title>
<ellipse fill="green" stroke="green" cx="766" cy="-522" rx="38.99" ry="18"/>
<text text-anchor="middle" x="766" y="-518.3" font-family="Times,serif" font-size="14.00">readline</text>
</g>
<!-- readline&gt;=7.0&#45;&gt;readline -->
<g id="edge16" class="edge">
<title>readline&gt;=7.0&#45;&gt;readline</title>
<path fill="none" stroke="grey" d="M748.57,-576.05C752.13,-565.21 756.74,-551.18 760.32,-540.28"/>
</g>
<!-- readline&#45;&gt;glibc -->
<g id="edge17" class="edge">
<title>readline&#45;&gt;glibc</title>
<path fill="none" stroke="#8b4513" d="M735.04,-510.97C714.36,-502.68 688.25,-488.85 673,-468 649.12,-435.36 654,-419.45 654,-379 654,-379 654,-379 654,-305 654,-217.49 530.77,-181.73 466.71,-169.06"/>
<polygon fill="#8b4513" stroke="#8b4513" points="467.06,-165.56 456.59,-167.15 465.77,-172.44 467.06,-165.56"/>
</g>
<!-- readline&#45;&gt;ncurses -->
<g id="edge18" class="edge">
<title>readline&#45;&gt;ncurses</title>
<path fill="none" stroke="#8b4513" d="M798.39,-511.9C819.72,-504.04 846.02,-490.33 859,-468 870.71,-447.84 860.63,-422.12 849.6,-403.51"/>
<polygon fill="#8b4513" stroke="#8b4513" points="852.52,-401.58 844.21,-395.01 846.61,-405.32 852.52,-401.58"/>
</g>
<!-- libncursesw.so=6&#45;64 -->
<g id="node18" class="node">
<title>libncursesw.so=6&#45;64</title>
<ellipse fill="green" stroke="green" cx="766" cy="-450" rx="83.69" ry="18"/>
<text text-anchor="middle" x="766" y="-446.3" font-family="Times,serif" font-size="14.00">libncursesw.so=6&#45;64</text>
</g>
<!-- readline&#45;&gt;libncursesw.so=6&#45;64 -->
<g id="edge21" class="edge">
<title>readline&#45;&gt;libncursesw.so=6&#45;64</title>
<path fill="none" stroke="#8b4513" d="M766,-503.7C766,-495.98 766,-486.71 766,-478.11"/>
<polygon fill="#8b4513" stroke="#8b4513" points="769.5,-478.1 766,-468.1 762.5,-478.1 769.5,-478.1"/>
</g>
<!-- ncurses&#45;&gt;glibc -->
<g id="edge19" class="edge">
<title>ncurses&#45;&gt;glibc</title>
<path fill="none" stroke="#8b4513" d="M820.52,-360.76C796.35,-327.86 736.73,-253.3 668,-216 603.44,-180.97 517.13,-169.08 467.85,-165.05"/>
<polygon fill="#8b4513" stroke="#8b4513" points="467.86,-161.55 457.63,-164.29 467.34,-168.53 467.86,-161.55"/>
</g>
<!-- ncurses&#45;&gt;gcc&#45;libs -->
<g id="edge20" class="edge">
<title>ncurses&#45;&gt;gcc&#45;libs</title>
<path fill="none" stroke="#8b4513" d="M798.15,-370.29C734.09,-357.58 595.14,-330.03 523.58,-315.84"/>
<polygon fill="#8b4513" stroke="#8b4513" points="524.01,-312.36 513.52,-313.85 522.65,-319.22 524.01,-312.36"/>
</g>
<!-- libncursesw.so=6&#45;64&#45;&gt;ncurses -->
<g id="edge22" class="edge">
<title>libncursesw.so=6&#45;64&#45;&gt;ncurses</title>
<path fill="none" stroke="grey" d="M781.98,-432.05C792.66,-420.73 806.62,-405.92 817.08,-394.83"/>
</g>
<!-- libtool -->
<g id="node20" class="node">
<title>libtool</title>
<ellipse fill="green" stroke="green" cx="218" cy="-810" rx="33.6" ry="18"/>
<text text-anchor="middle" x="218" y="-806.3" font-family="Times,serif" font-size="14.00">libtool</text>
</g>
<!-- libltdl&#45;&gt;libtool -->
<g id="edge26" class="edge">
<title>libltdl&#45;&gt;libtool</title>
<path fill="none" stroke="grey" d="M219.88,-1079.97C219.53,-1029.22 218.48,-879.41 218.12,-828.31"/>
</g>
<!-- libtool&#45;&gt;glibc -->
<g id="edge35" class="edge">
<title>libtool&#45;&gt;glibc</title>
<path fill="none" stroke="#8b4513" d="M213.15,-792.03C195.09,-726.1 135.16,-481.15 183,-288 191.7,-252.88 192.58,-238.39 221,-216 270.32,-177.14 344.82,-166.47 389.99,-163.72"/>
<polygon fill="#8b4513" stroke="#8b4513" points="390.45,-167.2 400.26,-163.2 390.1,-160.21 390.45,-167.2"/>
</g>
<!-- libtool&#45;&gt;sh -->
<g id="edge27" class="edge">
<title>libtool&#45;&gt;sh</title>
<path fill="none" stroke="#8b4513" d="M248.74,-802.38C263.86,-799.17 282.37,-795.3 299,-792 388.02,-774.35 493.08,-755.18 547.03,-745.45"/>
<polygon fill="#8b4513" stroke="#8b4513" points="547.9,-748.85 557.12,-743.63 546.66,-741.96 547.9,-748.85"/>
</g>
<!-- tar -->
<g id="node21" class="node">
<title>tar</title>
<ellipse fill="green" stroke="green" cx="256" cy="-378" rx="27" ry="18"/>
<text text-anchor="middle" x="256" y="-374.3" font-family="Times,serif" font-size="14.00">tar</text>
</g>
<!-- libtool&#45;&gt;tar -->
<g id="edge29" class="edge">
<title>libtool&#45;&gt;tar</title>
<path fill="none" stroke="#8b4513" d="M221.75,-792.05C227.29,-765.52 237,-712.52 237,-667 237,-667 237,-667 237,-521 237,-480.64 244.63,-434.39 250.22,-405.94"/>
<polygon fill="#8b4513" stroke="#8b4513" points="253.69,-406.45 252.25,-395.95 246.83,-405.06 253.69,-406.45"/>
</g>
<!-- tar&#45;&gt;glibc -->
<g id="edge30" class="edge">
<title>tar&#45;&gt;glibc</title>
<path fill="none" stroke="#8b4513" d="M260.78,-360.01C270.42,-328.34 294.85,-259.56 336,-216 352.59,-198.43 376.33,-185.04 395.66,-176.11"/>
<polygon fill="#8b4513" stroke="#8b4513" points="397.3,-179.21 405.03,-171.97 394.47,-172.81 397.3,-179.21"/>
</g>
<!-- acl -->
<g id="node22" class="node">
<title>acl</title>
<ellipse fill="green" stroke="green" cx="219" cy="-306" rx="27" ry="18"/>
<text text-anchor="middle" x="219" y="-302.3" font-family="Times,serif" font-size="14.00">acl</text>
</g>
<!-- tar&#45;&gt;acl -->
<g id="edge31" class="edge">
<title>tar&#45;&gt;acl</title>
<path fill="none" stroke="#8b4513" d="M247.42,-360.76C242.94,-352.28 237.35,-341.71 232.32,-332.2"/>
<polygon fill="#8b4513" stroke="#8b4513" points="235.3,-330.35 227.54,-323.15 229.11,-333.62 235.3,-330.35"/>
</g>
<!-- attr -->
<g id="node23" class="node">
<title>attr</title>
<ellipse fill="green" stroke="green" cx="257" cy="-234" rx="27" ry="18"/>
<text text-anchor="middle" x="257" y="-230.3" font-family="Times,serif" font-size="14.00">attr</text>
</g>
<!-- tar&#45;&gt;attr -->
<g id="edge34" class="edge">
<title>tar&#45;&gt;attr</title>
<path fill="none" stroke="#8b4513" d="M256.12,-359.87C256.29,-335.67 256.6,-291.21 256.81,-262.39"/>
<polygon fill="#8b4513" stroke="#8b4513" points="260.31,-262.21 256.88,-252.19 253.31,-262.16 260.31,-262.21"/>
</g>
<!-- acl&#45;&gt;attr -->
<g id="edge32" class="edge">
<title>acl&#45;&gt;attr</title>
<path fill="none" stroke="#8b4513" d="M227.81,-288.76C232.42,-280.28 238.16,-269.71 243.32,-260.2"/>
<polygon fill="#8b4513" stroke="#8b4513" points="246.54,-261.61 248.23,-251.15 240.39,-258.27 246.54,-261.61"/>
</g>
<!-- attr&#45;&gt;glibc -->
<g id="edge33" class="edge">
<title>attr&#45;&gt;glibc</title>
<path fill="none" stroke="#8b4513" d="M279.54,-223.61C285.54,-221.13 292.01,-218.45 298,-216 331.22,-202.39 369.25,-187.03 395.75,-176.36"/>
<polygon fill="#8b4513" stroke="#8b4513" points="397.34,-179.49 405.31,-172.51 394.73,-173 397.34,-179.49"/>
</g>
<!-- texinfo&#45;&gt;sh -->
<g id="edge66" class="edge">
<title>texinfo&#45;&gt;sh</title>
<path fill="none" stroke="#8b4513" d="M600,-1079.95C600,-1053.29 600,-1000.11 600,-955 600,-955 600,-955 600,-881 600,-840.71 593.17,-794.44 588.17,-765.96"/>
<polygon fill="#8b4513" stroke="#8b4513" points="591.58,-765.19 586.36,-755.97 584.7,-766.43 591.58,-765.19"/>
</g>
<!-- texinfo&#45;&gt;ncurses -->
<g id="edge38" class="edge">
<title>texinfo&#45;&gt;ncurses</title>
<path fill="none" stroke="#8b4513" d="M634.46,-1093.16C736.5,-1080.83 1030,-1038.14 1030,-955 1030,-955 1030,-955 1030,-665 1030,-545.32 978.72,-517.52 895,-432 883.98,-420.74 870.76,-409.35 859.29,-400.03"/>
<polygon fill="#8b4513" stroke="#8b4513" points="861.3,-397.15 851.3,-393.64 856.93,-402.62 861.3,-397.15"/>
</g>
<!-- gzip -->
<g id="node25" class="node">
<title>gzip</title>
<ellipse fill="green" stroke="green" cx="725" cy="-1026" rx="27" ry="18"/>
<text text-anchor="middle" x="725" y="-1022.3" font-family="Times,serif" font-size="14.00">gzip</text>
</g>
<!-- texinfo&#45;&gt;gzip -->
<g id="edge39" class="edge">
<title>texinfo&#45;&gt;gzip</title>
<path fill="none" stroke="#8b4513" d="M622.93,-1084.16C643.4,-1072.7 673.5,-1055.84 695.71,-1043.4"/>
<polygon fill="#8b4513" stroke="#8b4513" points="697.68,-1046.31 704.7,-1038.37 694.26,-1040.2 697.68,-1046.31"/>
</g>
<!-- perl -->
<g id="node30" class="node">
<title>perl</title>
<ellipse fill="green" stroke="green" cx="497" cy="-954" rx="27" ry="18"/>
<text text-anchor="middle" x="497" y="-950.3" font-family="Times,serif" font-size="14.00">perl</text>
</g>
<!-- texinfo&#45;&gt;perl -->
<g id="edge55" class="edge">
<title>texinfo&#45;&gt;perl</title>
<path fill="none" stroke="#8b4513" d="M588.18,-1080.71C570.08,-1055.76 535.38,-1007.92 514.4,-978.99"/>
<polygon fill="#8b4513" stroke="#8b4513" points="517.07,-976.71 508.36,-970.67 511.4,-980.82 517.07,-976.71"/>
</g>
<!-- gzip&#45;&gt;glibc -->
<g id="edge40" class="edge">
<title>gzip&#45;&gt;glibc</title>
<path fill="none" stroke="#8b4513" d="M752.07,-1023.2C819.95,-1017.07 992,-990.89 992,-883 992,-883 992,-883 992,-809 992,-665.05 1144,-666.95 1144,-523 1144,-523 1144,-523 1144,-305 1144,-260.47 1135.09,-240.64 1098,-216 1045.44,-181.08 602.77,-167.31 467.87,-163.9"/>
<polygon fill="#8b4513" stroke="#8b4513" points="467.68,-160.39 457.6,-163.64 467.51,-167.39 467.68,-160.39"/>
</g>
<!-- gzip&#45;&gt;bash -->
<g id="edge41" class="edge">
<title>gzip&#45;&gt;bash</title>
<path fill="none" stroke="#8b4513" d="M709.04,-1011.02C683.93,-987.37 638,-936.78 638,-883 638,-883 638,-883 638,-809 638,-768.55 634.88,-757.2 619,-720 614.61,-709.72 608.12,-699.34 601.85,-690.53"/>
<polygon fill="#8b4513" stroke="#8b4513" points="604.52,-688.24 595.75,-682.3 598.89,-692.41 604.52,-688.24"/>
</g>
<!-- less -->
<g id="node26" class="node">
<title>less</title>
<ellipse fill="green" stroke="green" cx="851" cy="-954" rx="27" ry="18"/>
<text text-anchor="middle" x="851" y="-950.3" font-family="Times,serif" font-size="14.00">less</text>
</g>
<!-- gzip&#45;&gt;less -->
<g id="edge42" class="edge">
<title>gzip&#45;&gt;less</title>
<path fill="none" stroke="#8b4513" d="M745.24,-1013.75C766,-1002.22 798.48,-984.18 821.98,-971.12"/>
<polygon fill="#8b4513" stroke="#8b4513" points="823.76,-974.13 830.81,-966.22 820.36,-968.02 823.76,-974.13"/>
</g>
<!-- less&#45;&gt;glibc -->
<g id="edge43" class="edge">
<title>less&#45;&gt;glibc</title>
<path fill="none" stroke="#8b4513" d="M867.56,-939.55C878.99,-929.59 893.9,-915.16 904,-900 951.96,-828.02 937.82,-796.6 978,-720 1026.51,-627.54 1106,-627.41 1106,-523 1106,-523 1106,-523 1106,-305 1106,-262.16 1103.62,-241.23 1069,-216 1020.41,-180.6 599.39,-167.23 468,-163.9"/>
<polygon fill="#8b4513" stroke="#8b4513" points="467.7,-160.39 457.62,-163.64 467.53,-167.38 467.7,-160.39"/>
</g>
<!-- less&#45;&gt;ncurses -->
<g id="edge44" class="edge">
<title>less&#45;&gt;ncurses</title>
<path fill="none" stroke="#8b4513" d="M861.99,-937.22C878.55,-911.85 908,-859.88 908,-811 908,-811 908,-811 908,-737 908,-600.65 927.43,-557.86 875,-432 870.47,-421.11 862.96,-410.68 855.47,-401.99"/>
<polygon fill="#8b4513" stroke="#8b4513" points="858.01,-399.58 848.69,-394.55 852.83,-404.3 858.01,-399.58"/>
</g>
<!-- pcre -->
<g id="node27" class="node">
<title>pcre</title>
<ellipse fill="green" stroke="green" cx="813" cy="-882" rx="27" ry="18"/>
<text text-anchor="middle" x="813" y="-878.3" font-family="Times,serif" font-size="14.00">pcre</text>
</g>
<!-- less&#45;&gt;pcre -->
<g id="edge45" class="edge">
<title>less&#45;&gt;pcre</title>
<path fill="none" stroke="#8b4513" d="M842.19,-936.76C837.58,-928.28 831.84,-917.71 826.68,-908.2"/>
<polygon fill="#8b4513" stroke="#8b4513" points="829.61,-906.27 821.77,-899.15 823.46,-909.61 829.61,-906.27"/>
</g>
<!-- pcre&#45;&gt;gcc&#45;libs -->
<g id="edge46" class="edge">
<title>pcre&#45;&gt;gcc&#45;libs</title>
<path fill="none" stroke="#8b4513" d="M804.97,-864.77C796.01,-846.81 780.92,-817.1 767,-792 667.89,-613.34 539.04,-403.76 494.75,-332.32"/>
<polygon fill="#8b4513" stroke="#8b4513" points="497.56,-330.2 489.31,-323.55 491.61,-333.89 497.56,-330.2"/>
</g>
<!-- pcre&#45;&gt;bash -->
<g id="edge54" class="edge">
<title>pcre&#45;&gt;bash</title>
<path fill="none" stroke="#8b4513" d="M801.06,-865.55C786.66,-847.26 761.33,-816.23 737,-792 701.92,-757.06 690.53,-751.09 652,-720 637.82,-708.56 621.69,-696.14 608.59,-686.2"/>
<polygon fill="#8b4513" stroke="#8b4513" points="610.56,-683.3 600.48,-680.06 606.34,-688.88 610.56,-683.3"/>
</g>
<!-- pcre&#45;&gt;readline -->
<g id="edge47" class="edge">
<title>pcre&#45;&gt;readline</title>
<path fill="none" stroke="#8b4513" d="M816.75,-864.05C822.29,-837.52 832,-784.52 832,-739 832,-739 832,-739 832,-665 832,-624.55 831.24,-612.1 813,-576 807.42,-564.96 798.98,-554.42 790.78,-545.69"/>
<polygon fill="#8b4513" stroke="#8b4513" points="793.22,-543.18 783.71,-538.51 788.23,-548.09 793.22,-543.18"/>
</g>
<!-- zlib -->
<g id="node28" class="node">
<title>zlib</title>
<ellipse fill="green" stroke="green" cx="975" cy="-594" rx="27" ry="18"/>
<text text-anchor="middle" x="975" y="-590.3" font-family="Times,serif" font-size="14.00">zlib</text>
</g>
<!-- pcre&#45;&gt;zlib -->
<g id="edge48" class="edge">
<title>pcre&#45;&gt;zlib</title>
<path fill="none" stroke="#8b4513" d="M823.33,-864.89C829.94,-854.46 838.64,-840.52 846,-828 889.88,-753.32 938.62,-663.17 961.61,-620.18"/>
<polygon fill="#8b4513" stroke="#8b4513" points="964.75,-621.73 966.37,-611.26 958.57,-618.44 964.75,-621.73"/>
</g>
<!-- bzip2 -->
<g id="node29" class="node">
<title>bzip2</title>
<ellipse fill="green" stroke="green" cx="697" cy="-810" rx="30.59" ry="18"/>
<text text-anchor="middle" x="697" y="-806.3" font-family="Times,serif" font-size="14.00">bzip2</text>
</g>
<!-- pcre&#45;&gt;bzip2 -->
<g id="edge50" class="edge">
<title>pcre&#45;&gt;bzip2</title>
<path fill="none" stroke="#8b4513" d="M793.58,-869.28C775.19,-858.18 747.31,-841.36 726.23,-828.64"/>
<polygon fill="#8b4513" stroke="#8b4513" points="728.02,-825.63 717.65,-823.46 724.41,-831.63 728.02,-825.63"/>
</g>
<!-- zlib&#45;&gt;glibc -->
<g id="edge49" class="edge">
<title>zlib&#45;&gt;glibc</title>
<path fill="none" stroke="#8b4513" d="M991.63,-579.62C1018.38,-556.48 1068,-506.11 1068,-451 1068,-451 1068,-451 1068,-305 1068,-264.03 1075.42,-242.29 1044,-216 999.83,-179.05 596.23,-166.78 467.95,-163.8"/>
<polygon fill="#8b4513" stroke="#8b4513" points="467.87,-160.3 457.8,-163.57 467.72,-167.3 467.87,-160.3"/>
</g>
<!-- bzip2&#45;&gt;glibc -->
<g id="edge51" class="edge">
<title>bzip2&#45;&gt;glibc</title>
<path fill="none" stroke="#8b4513" d="M712.61,-794.23C778.45,-731.32 1030,-484.04 1030,-379 1030,-379 1030,-379 1030,-305 1030,-189 600.59,-167.65 467.71,-163.82"/>
<polygon fill="#8b4513" stroke="#8b4513" points="467.67,-160.31 457.58,-163.54 467.48,-167.31 467.67,-160.31"/>
</g>
<!-- bzip2&#45;&gt;sh -->
<g id="edge52" class="edge">
<title>bzip2&#45;&gt;sh</title>
<path fill="none" stroke="#8b4513" d="M676.62,-796.49C658.32,-785.25 631.29,-768.65 610.97,-756.18"/>
<polygon fill="#8b4513" stroke="#8b4513" points="612.8,-753.19 602.44,-750.94 609.13,-759.15 612.8,-753.19"/>
</g>
<!-- perl&#45;&gt;glibc -->
<g id="edge65" class="edge">
<title>perl&#45;&gt;glibc</title>
<path fill="none" stroke="#8b4513" d="M473.42,-944.95C453.18,-936.81 424.84,-922.22 409,-900 385.51,-867.07 390,-851.45 390,-811 390,-811 390,-811 390,-737 390,-608.65 350,-579.35 350,-451 350,-451 350,-451 350,-305 350,-257.7 383.88,-211.45 407.27,-185.16"/>
<polygon fill="#8b4513" stroke="#8b4513" points="409.96,-187.4 414.14,-177.67 404.8,-182.67 409.96,-187.4"/>
</g>
<!-- gdbm&gt;=1.17 -->
<g id="node31" class="node">
<title>gdbm&gt;=1.17</title>
<ellipse fill="green" stroke="green" cx="476" cy="-882" rx="57.69" ry="18"/>
<text text-anchor="middle" x="476" y="-878.3" font-family="Times,serif" font-size="14.00">gdbm&gt;=1.17</text>
</g>
<!-- perl&#45;&gt;gdbm&gt;=1.17 -->
<g id="edge56" class="edge">
<title>perl&#45;&gt;gdbm&gt;=1.17</title>
<path fill="none" stroke="#8b4513" d="M491.92,-936.05C489.58,-928.26 486.75,-918.82 484.12,-910.08"/>
<polygon fill="#8b4513" stroke="#8b4513" points="487.41,-908.85 481.18,-900.28 480.7,-910.86 487.41,-908.85"/>
</g>
<!-- db -->
<g id="node33" class="node">
<title>db</title>
<ellipse fill="green" stroke="green" cx="545" cy="-810" rx="27" ry="18"/>
<text text-anchor="middle" x="545" y="-806.3" font-family="Times,serif" font-size="14.00">db</text>
</g>
<!-- perl&#45;&gt;db -->
<g id="edge61" class="edge">
<title>perl&#45;&gt;db</title>
<path fill="none" stroke="#8b4513" d="M513.45,-939.6C524.05,-929.86 536.94,-915.68 543,-900 550.6,-880.33 550.67,-856.34 549.07,-838.23"/>
<polygon fill="#8b4513" stroke="#8b4513" points="552.52,-837.62 547.95,-828.06 545.57,-838.38 552.52,-837.62"/>
</g>
<!-- gdbm -->
<g id="node32" class="node">
<title>gdbm</title>
<ellipse fill="green" stroke="green" cx="469" cy="-810" rx="31.4" ry="18"/>
<text text-anchor="middle" x="469" y="-806.3" font-family="Times,serif" font-size="14.00">gdbm</text>
</g>
<!-- gdbm&gt;=1.17&#45;&gt;gdbm -->
<g id="edge57" class="edge">
<title>gdbm&gt;=1.17&#45;&gt;gdbm</title>
<path fill="none" stroke="grey" d="M474.27,-863.7C473.18,-852.85 471.79,-838.92 470.71,-828.1"/>
</g>
<!-- gdbm&#45;&gt;glibc -->
<g id="edge58" class="edge">
<title>gdbm&#45;&gt;glibc</title>
<path fill="none" stroke="#8b4513" d="M462.37,-792.17C443.03,-741.47 388,-585.46 388,-451 388,-451 388,-451 388,-305 388,-263.18 404.62,-217.05 416.7,-189.05"/>
<polygon fill="#8b4513" stroke="#8b4513" points="420.03,-190.16 420.9,-179.6 413.64,-187.31 420.03,-190.16"/>
</g>
<!-- gdbm&#45;&gt;sh -->
<g id="edge59" class="edge">
<title>gdbm&#45;&gt;sh</title>
<path fill="none" stroke="#8b4513" d="M489.64,-796.32C507.9,-785.12 534.68,-768.67 554.88,-756.26"/>
<polygon fill="#8b4513" stroke="#8b4513" points="556.96,-759.1 563.65,-750.88 553.3,-753.13 556.96,-759.1"/>
</g>
<!-- db&#45;&gt;gcc&#45;libs -->
<g id="edge62" class="edge">
<title>db&#45;&gt;gcc&#45;libs</title>
<path fill="none" stroke="#8b4513" d="M536.71,-792.87C524.21,-767.02 502,-714.4 502,-667 502,-667 502,-667 502,-449 502,-408.47 492.76,-362.27 485.99,-333.87"/>
<polygon fill="#8b4513" stroke="#8b4513" points="489.33,-332.78 483.54,-323.91 482.53,-334.45 489.33,-332.78"/>
</g>
<!-- db&#45;&gt;sh -->
<g id="edge63" class="edge">
<title>db&#45;&gt;sh</title>
<path fill="none" stroke="#8b4513" d="M553.81,-792.76C558.42,-784.28 564.16,-773.71 569.32,-764.2"/>
<polygon fill="#8b4513" stroke="#8b4513" points="572.54,-765.61 574.23,-755.15 566.39,-762.27 572.54,-765.61"/>
</g>
<!-- libunistring&#45;&gt;glibc -->
<g id="edge69" class="edge">
<title>libunistring&#45;&gt;glibc</title>
<path fill="none" stroke="#8b4513" d="M80,-1007.95C80,-981.29 80,-928.11 80,-883 80,-883 80,-883 80,-305 80,-260.87 88.66,-242.42 124,-216 165.54,-184.95 317.81,-170.59 390.23,-165.41"/>
<polygon fill="#8b4513" stroke="#8b4513" points="390.58,-168.89 400.32,-164.71 390.1,-161.91 390.58,-168.89"/>
</g>
<!-- gc&#45;&gt;gcc&#45;libs -->
<g id="edge71" class="edge">
<title>gc&#45;&gt;gcc&#45;libs</title>
<path fill="none" stroke="#8b4513" d="M300.21,-720.18C320.12,-666.7 384.85,-496.08 450,-360 454.39,-350.83 459.61,-341 464.41,-332.34"/>
<polygon fill="#8b4513" stroke="#8b4513" points="467.54,-333.9 469.39,-323.47 461.44,-330.48 467.54,-333.9"/>
</g>
<!-- libffi&#45;&gt;glibc -->
<g id="edge73" class="edge">
<title>libffi&#45;&gt;glibc</title>
<path fill="none" stroke="#8b4513" d="M134.83,-647.98C131.62,-621.37 126,-568.25 126,-523 126,-523 126,-523 126,-305 126,-264.03 119.96,-243.85 150,-216 184.41,-184.1 321.86,-170.34 390.12,-165.38"/>
<polygon fill="#8b4513" stroke="#8b4513" points="390.73,-168.84 400.46,-164.65 390.24,-161.86 390.73,-168.84"/>
</g>
</g>
</svg>
