<?xml version="1.0" encoding="UTF-8" standalone="no"?>
<!DOCTYPE svg PUBLIC "-//W3C//DTD SVG 1.1//EN"
 "http://www.w3.org/Graphics/SVG/1.1/DTD/svg11.dtd">
<!-- Generated by graphviz version 2.44.0 (0)
 -->
<!-- Title: G Pages: 1 -->
<svg width="635pt" height="1052pt"
 viewBox="0.00 0.00 635.00 1052.00" xmlns="http://www.w3.org/2000/svg" xmlns:xlink="http://www.w3.org/1999/xlink">
<g id="graph0" class="graph" transform="scale(1 1) rotate(0) translate(4 1048)">
<title>G</title>
<polygon fill="white" stroke="transparent" points="-4,4 -4,-1048 631,-1048 631,4 -4,4"/>
<!-- START -->
<g id="node1" class="node">
<title>START</title>
<ellipse fill="red" stroke="red" cx="133" cy="-1026" rx="38.19" ry="18"/>
<text text-anchor="middle" x="133" y="-1022.3" font-family="Times,serif" font-size="14.00">START</text>
</g>
<!-- nano -->
<g id="node2" class="node">
<title>nano</title>
<ellipse fill="green" stroke="green" cx="133" cy="-954" rx="27.9" ry="18"/>
<text text-anchor="middle" x="133" y="-950.3" font-family="Times,serif" font-size="14.00">nano</text>
</g>
<!-- START&#45;&gt;nano -->
<g id="edge1" class="edge">
<title>START&#45;&gt;nano</title>
<path fill="none" stroke="black" d="M133,-1007.7C133,-999.98 133,-990.71 133,-982.11"/>
<polygon fill="black" stroke="black" points="136.5,-982.1 133,-972.1 129.5,-982.1 136.5,-982.1"/>
</g>
<!-- ncurses -->
<g id="node3" class="node">
<title>ncurses</title>
<ellipse fill="green" stroke="green" cx="161" cy="-378" rx="37.09" ry="18"/>
<text text-anchor="middle" x="161" y="-374.3" font-family="Times,serif" font-size="14.00">ncurses</text>
</g>
<!-- nano&#45;&gt;ncurses -->
<g id="edge2" class="edge">
<title>nano&#45;&gt;ncurses</title>
<path fill="none" stroke="#8b4513" d="M111.34,-942.51C73.65,-922.56 0,-875.35 0,-811 0,-811 0,-811 0,-521 0,-455.97 74.79,-413.62 122.42,-393.25"/>
<polygon fill="#8b4513" stroke="#8b4513" points="123.94,-396.4 131.84,-389.35 121.27,-389.93 123.94,-396.4"/>
</g>
<!-- file -->
<g id="node12" class="node">
<title>file</title>
<ellipse fill="green" stroke="green" cx="323" cy="-882" rx="27" ry="18"/>
<text text-anchor="middle" x="323" y="-878.3" font-family="Times,serif" font-size="14.00">file</text>
</g>
<!-- nano&#45;&gt;file -->
<g id="edge12" class="edge">
<title>nano&#45;&gt;file</title>
<path fill="none" stroke="#8b4513" d="M156.68,-944.28C190.38,-931.86 252.28,-909.05 290.33,-895.04"/>
<polygon fill="#8b4513" stroke="#8b4513" points="291.74,-898.25 299.92,-891.5 289.32,-891.68 291.74,-898.25"/>
</g>
<!-- sh -->
<g id="node15" class="node">
<title>sh</title>
<ellipse fill="green" stroke="green" cx="188" cy="-738" rx="27" ry="18"/>
<text text-anchor="middle" x="188" y="-734.3" font-family="Times,serif" font-size="14.00">sh</text>
</g>
<!-- nano&#45;&gt;sh -->
<g id="edge35" class="edge">
<title>nano&#45;&gt;sh</title>
<path fill="none" stroke="#8b4513" d="M132.4,-935.93C131.91,-905.84 133.41,-841.84 152,-792 155.91,-781.53 162.3,-771.11 168.61,-762.32"/>
<polygon fill="#8b4513" stroke="#8b4513" points="171.57,-764.21 174.81,-754.12 165.99,-759.98 171.57,-764.21"/>
</g>
<!-- glibc -->
<g id="node4" class="node">
<title>glibc</title>
<ellipse fill="green" stroke="green" cx="338" cy="-162" rx="28.7" ry="18"/>
<text text-anchor="middle" x="338" y="-158.3" font-family="Times,serif" font-size="14.00">glibc</text>
</g>
<!-- ncurses&#45;&gt;glibc -->
<g id="edge3" class="edge">
<title>ncurses&#45;&gt;glibc</title>
<path fill="none" stroke="#8b4513" d="M153.69,-359.89C141.33,-328.02 120.66,-258.91 153,-216 170.69,-192.52 251.49,-176.28 300.26,-168.42"/>
<polygon fill="#8b4513" stroke="#8b4513" points="300.81,-171.87 310.15,-166.87 299.73,-164.96 300.81,-171.87"/>
</g>
<!-- gcc&#45;libs -->
<g id="node10" class="node">
<title>gcc&#45;libs</title>
<ellipse fill="green" stroke="green" cx="209" cy="-306" rx="38.19" ry="18"/>
<text text-anchor="middle" x="209" y="-302.3" font-family="Times,serif" font-size="14.00">gcc&#45;libs</text>
</g>
<!-- ncurses&#45;&gt;gcc&#45;libs -->
<g id="edge9" class="edge">
<title>ncurses&#45;&gt;gcc&#45;libs</title>
<path fill="none" stroke="#8b4513" d="M172.13,-360.76C177.99,-352.23 185.29,-341.58 191.84,-332.02"/>
<polygon fill="#8b4513" stroke="#8b4513" points="194.83,-333.86 197.59,-323.63 189.05,-329.9 194.83,-333.86"/>
</g>
<!-- linux&#45;api&#45;headers&gt;=4.10 -->
<g id="node5" class="node">
<title>linux&#45;api&#45;headers&gt;=4.10</title>
<ellipse fill="green" stroke="green" cx="190" cy="-90" rx="98.28" ry="18"/>
<text text-anchor="middle" x="190" y="-86.3" font-family="Times,serif" font-size="14.00">linux&#45;api&#45;headers&gt;=4.10</text>
</g>
<!-- glibc&#45;&gt;linux&#45;api&#45;headers&gt;=4.10 -->
<g id="edge4" class="edge">
<title>glibc&#45;&gt;linux&#45;api&#45;headers&gt;=4.10</title>
<path fill="none" stroke="#8b4513" d="M315.84,-150.52C294.06,-140.22 260.23,-124.22 233.13,-111.4"/>
<polygon fill="#8b4513" stroke="#8b4513" points="234.39,-108.12 223.85,-107.01 231.4,-114.45 234.39,-108.12"/>
</g>
<!-- tzdata -->
<g id="node7" class="node">
<title>tzdata</title>
<ellipse fill="green" stroke="green" cx="338" cy="-90" rx="31.7" ry="18"/>
<text text-anchor="middle" x="338" y="-86.3" font-family="Times,serif" font-size="14.00">tzdata</text>
</g>
<!-- glibc&#45;&gt;tzdata -->
<g id="edge6" class="edge">
<title>glibc&#45;&gt;tzdata</title>
<path fill="none" stroke="#8b4513" d="M338,-143.7C338,-135.98 338,-126.71 338,-118.11"/>
<polygon fill="#8b4513" stroke="#8b4513" points="341.5,-118.1 338,-108.1 334.5,-118.1 341.5,-118.1"/>
</g>
<!-- filesystem -->
<g id="node8" class="node">
<title>filesystem</title>
<ellipse fill="green" stroke="green" cx="435" cy="-90" rx="46.59" ry="18"/>
<text text-anchor="middle" x="435" y="-86.3" font-family="Times,serif" font-size="14.00">filesystem</text>
</g>
<!-- glibc&#45;&gt;filesystem -->
<g id="edge7" class="edge">
<title>glibc&#45;&gt;filesystem</title>
<path fill="none" stroke="#8b4513" d="M356.24,-147.83C370.04,-137.88 389.28,-123.99 405.29,-112.44"/>
<polygon fill="#8b4513" stroke="#8b4513" points="407.74,-114.99 413.8,-106.3 403.64,-109.31 407.74,-114.99"/>
</g>
<!-- linux&#45;api&#45;headers -->
<g id="node6" class="node">
<title>linux&#45;api&#45;headers</title>
<ellipse fill="green" stroke="green" cx="190" cy="-18" rx="71.49" ry="18"/>
<text text-anchor="middle" x="190" y="-14.3" font-family="Times,serif" font-size="14.00">linux&#45;api&#45;headers</text>
</g>
<!-- linux&#45;api&#45;headers&gt;=4.10&#45;&gt;linux&#45;api&#45;headers -->
<g id="edge5" class="edge">
<title>linux&#45;api&#45;headers&gt;=4.10&#45;&gt;linux&#45;api&#45;headers</title>
<path fill="none" stroke="grey" d="M190,-71.7C190,-60.85 190,-46.92 190,-36.1"/>
</g>
<!-- iana&#45;etc -->
<g id="node9" class="node">
<title>iana&#45;etc</title>
<ellipse fill="green" stroke="green" cx="435" cy="-18" rx="38.19" ry="18"/>
<text text-anchor="middle" x="435" y="-14.3" font-family="Times,serif" font-size="14.00">iana&#45;etc</text>
</g>
<!-- filesystem&#45;&gt;iana&#45;etc -->
<g id="edge8" class="edge">
<title>filesystem&#45;&gt;iana&#45;etc</title>
<path fill="none" stroke="#8b4513" d="M435,-71.7C435,-63.98 435,-54.71 435,-46.11"/>
<polygon fill="#8b4513" stroke="#8b4513" points="438.5,-46.1 435,-36.1 431.5,-46.1 438.5,-46.1"/>
</g>
<!-- glibc&gt;=2.27 -->
<g id="node11" class="node">
<title>glibc&gt;=2.27</title>
<ellipse fill="green" stroke="green" cx="217" cy="-234" rx="54.69" ry="18"/>
<text text-anchor="middle" x="217" y="-230.3" font-family="Times,serif" font-size="14.00">glibc&gt;=2.27</text>
</g>
<!-- gcc&#45;libs&#45;&gt;glibc&gt;=2.27 -->
<g id="edge10" class="edge">
<title>gcc&#45;libs&#45;&gt;glibc&gt;=2.27</title>
<path fill="none" stroke="#8b4513" d="M210.98,-287.7C211.86,-279.98 212.92,-270.71 213.9,-262.11"/>
<polygon fill="#8b4513" stroke="#8b4513" points="217.39,-262.44 215.05,-252.1 210.43,-261.64 217.39,-262.44"/>
</g>
<!-- glibc&gt;=2.27&#45;&gt;glibc -->
<g id="edge11" class="edge">
<title>glibc&gt;=2.27&#45;&gt;glibc</title>
<path fill="none" stroke="grey" d="M242.96,-217.98C265.32,-205.05 297.14,-186.64 317.69,-174.75"/>
</g>
<!-- file&#45;&gt;glibc -->
<g id="edge13" class="edge">
<title>file&#45;&gt;glibc</title>
<path fill="none" stroke="#8b4513" d="M349.42,-877.57C398.67,-870.63 501.71,-853.41 526,-828 553.95,-798.76 545,-779.45 545,-739 545,-739 545,-739 545,-305 545,-223.43 434.34,-185.23 374.84,-170.59"/>
<polygon fill="#8b4513" stroke="#8b4513" points="375.6,-167.17 365.06,-168.28 373.99,-173.98 375.6,-167.17"/>
</g>
<!-- zlib -->
<g id="node13" class="node">
<title>zlib</title>
<ellipse fill="green" stroke="green" cx="600" cy="-666" rx="27" ry="18"/>
<text text-anchor="middle" x="600" y="-662.3" font-family="Times,serif" font-size="14.00">zlib</text>
</g>
<!-- file&#45;&gt;zlib -->
<g id="edge14" class="edge">
<title>file&#45;&gt;zlib</title>
<path fill="none" stroke="#8b4513" d="M349.68,-878.49C404.95,-872.75 529.26,-856.9 559,-828 595.27,-792.75 601.09,-730.25 601.16,-694.37"/>
<polygon fill="#8b4513" stroke="#8b4513" points="604.65,-694.1 601.02,-684.15 597.65,-694.19 604.65,-694.1"/>
</g>
<!-- xz -->
<g id="node14" class="node">
<title>xz</title>
<ellipse fill="green" stroke="green" cx="188" cy="-810" rx="27" ry="18"/>
<text text-anchor="middle" x="188" y="-806.3" font-family="Times,serif" font-size="14.00">xz</text>
</g>
<!-- file&#45;&gt;xz -->
<g id="edge16" class="edge">
<title>file&#45;&gt;xz</title>
<path fill="none" stroke="#8b4513" d="M302.2,-870.22C279.54,-858.47 243.11,-839.57 217.5,-826.3"/>
<polygon fill="#8b4513" stroke="#8b4513" points="219.09,-823.18 208.6,-821.68 215.87,-829.39 219.09,-823.18"/>
</g>
<!-- bzip2 -->
<g id="node20" class="node">
<title>bzip2</title>
<ellipse fill="green" stroke="green" cx="264" cy="-810" rx="30.59" ry="18"/>
<text text-anchor="middle" x="264" y="-806.3" font-family="Times,serif" font-size="14.00">bzip2</text>
</g>
<!-- file&#45;&gt;bzip2 -->
<g id="edge27" class="edge">
<title>file&#45;&gt;bzip2</title>
<path fill="none" stroke="#8b4513" d="M310.2,-865.81C302.5,-856.67 292.53,-844.85 283.83,-834.52"/>
<polygon fill="#8b4513" stroke="#8b4513" points="286.31,-832.03 277.19,-826.64 280.95,-836.55 286.31,-832.03"/>
</g>
<!-- libseccomp -->
<g id="node21" class="node">
<title>libseccomp</title>
<ellipse fill="green" stroke="green" cx="439" cy="-738" rx="50.89" ry="18"/>
<text text-anchor="middle" x="439" y="-734.3" font-family="Times,serif" font-size="14.00">libseccomp</text>
</g>
<!-- file&#45;&gt;libseccomp -->
<g id="edge31" class="edge">
<title>file&#45;&gt;libseccomp</title>
<path fill="none" stroke="#8b4513" d="M322.58,-863.88C322.95,-844.58 326.23,-813.16 342,-792 354.6,-775.1 374.25,-762.94 392.57,-754.57"/>
<polygon fill="#8b4513" stroke="#8b4513" points="394.18,-757.69 401.99,-750.53 391.42,-751.26 394.18,-757.69"/>
</g>
<!-- libseccomp.so=2&#45;64 -->
<g id="node22" class="node">
<title>libseccomp.so=2&#45;64</title>
<ellipse fill="green" stroke="green" cx="434" cy="-810" rx="82.59" ry="18"/>
<text text-anchor="middle" x="434" y="-806.3" font-family="Times,serif" font-size="14.00">libseccomp.so=2&#45;64</text>
</g>
<!-- file&#45;&gt;libseccomp.so=2&#45;64 -->
<g id="edge33" class="edge">
<title>file&#45;&gt;libseccomp.so=2&#45;64</title>
<path fill="none" stroke="#8b4513" d="M342.08,-868.97C357.81,-859.05 380.54,-844.72 399.45,-832.79"/>
<polygon fill="#8b4513" stroke="#8b4513" points="401.52,-835.62 408.11,-827.33 397.78,-829.7 401.52,-835.62"/>
</g>
<!-- zlib&#45;&gt;glibc -->
<g id="edge15" class="edge">
<title>zlib&#45;&gt;glibc</title>
<path fill="none" stroke="#8b4513" d="M598.22,-647.97C595.6,-621.34 591,-568.21 591,-523 591,-523 591,-523 591,-305 591,-262.97 590.31,-244.05 559,-216 532.29,-192.07 432.08,-175.4 376.22,-167.75"/>
<polygon fill="#8b4513" stroke="#8b4513" points="376.38,-164.24 366,-166.38 375.45,-171.18 376.38,-164.24"/>
</g>
<!-- xz&#45;&gt;sh -->
<g id="edge17" class="edge">
<title>xz&#45;&gt;sh</title>
<path fill="none" stroke="#8b4513" d="M188,-791.7C188,-783.98 188,-774.71 188,-766.11"/>
<polygon fill="#8b4513" stroke="#8b4513" points="191.5,-766.1 188,-756.1 184.5,-766.1 191.5,-766.1"/>
</g>
<!-- bash -->
<g id="node16" class="node">
<title>bash</title>
<ellipse fill="green" stroke="green" cx="188" cy="-666" rx="27" ry="18"/>
<text text-anchor="middle" x="188" y="-662.3" font-family="Times,serif" font-size="14.00">bash</text>
</g>
<!-- sh&#45;&gt;bash -->
<g id="edge18" class="edge">
<title>sh&#45;&gt;bash</title>
<path fill="none" stroke="grey" d="M176.56,-721.46C173.81,-709.86 173.81,-694.08 176.57,-682.49"/>
</g>
<!-- sh&#45;&gt;bash -->
<g id="edge30" class="edge">
<title>sh&#45;&gt;bash</title>
<path fill="none" stroke="grey" d="M188,-719.7C188,-708.85 188,-694.92 188,-684.1"/>
</g>
<!-- sh&#45;&gt;bash -->
<g id="edge36" class="edge">
<title>sh&#45;&gt;bash</title>
<path fill="none" stroke="grey" d="M199.44,-721.46C202.19,-709.86 202.19,-694.08 199.43,-682.49"/>
</g>
<!-- bash&#45;&gt;ncurses -->
<g id="edge26" class="edge">
<title>bash&#45;&gt;ncurses</title>
<path fill="none" stroke="#8b4513" d="M209.32,-654.62C225.39,-645.64 246.55,-631.08 258,-612 299.5,-542.85 325.03,-499.57 281,-432 264.46,-406.62 232.72,-393.31 206.03,-386.37"/>
<polygon fill="#8b4513" stroke="#8b4513" points="206.63,-382.92 196.09,-384.01 205.01,-389.73 206.63,-382.92"/>
</g>
<!-- bash&#45;&gt;glibc -->
<g id="edge25" class="edge">
<title>bash&#45;&gt;glibc</title>
<path fill="none" stroke="#8b4513" d="M165.22,-656.01C123.26,-637.77 38,-592.21 38,-523 38,-523 38,-523 38,-305 38,-190.85 217.65,-168.33 298.91,-163.99"/>
<polygon fill="#8b4513" stroke="#8b4513" points="299.41,-167.47 309.23,-163.51 299.08,-160.48 299.41,-167.47"/>
</g>
<!-- readline&gt;=7.0 -->
<g id="node17" class="node">
<title>readline&gt;=7.0</title>
<ellipse fill="green" stroke="green" cx="188" cy="-594" rx="61.19" ry="18"/>
<text text-anchor="middle" x="188" y="-590.3" font-family="Times,serif" font-size="14.00">readline&gt;=7.0</text>
</g>
<!-- bash&#45;&gt;readline&gt;=7.0 -->
<g id="edge19" class="edge">
<title>bash&#45;&gt;readline&gt;=7.0</title>
<path fill="none" stroke="#8b4513" d="M188,-647.7C188,-639.98 188,-630.71 188,-622.11"/>
<polygon fill="#8b4513" stroke="#8b4513" points="191.5,-622.1 188,-612.1 184.5,-622.1 191.5,-622.1"/>
</g>
<!-- readline -->
<g id="node18" class="node">
<title>readline</title>
<ellipse fill="green" stroke="green" cx="188" cy="-522" rx="38.99" ry="18"/>
<text text-anchor="middle" x="188" y="-518.3" font-family="Times,serif" font-size="14.00">readline</text>
</g>
<!-- readline&gt;=7.0&#45;&gt;readline -->
<g id="edge20" class="edge">
<title>readline&gt;=7.0&#45;&gt;readline</title>
<path fill="none" stroke="grey" d="M188,-575.7C188,-564.85 188,-550.92 188,-540.1"/>
</g>
<!-- readline&#45;&gt;ncurses -->
<g id="edge22" class="edge">
<title>readline&#45;&gt;ncurses</title>
<path fill="none" stroke="#8b4513" d="M155.61,-511.9C134.28,-504.04 107.98,-490.33 95,-468 86.96,-454.17 88.08,-446.43 95,-432 101.92,-417.57 114.89,-405.83 127.51,-397.1"/>
<polygon fill="#8b4513" stroke="#8b4513" points="129.62,-399.91 136.12,-391.54 125.82,-394.03 129.62,-399.91"/>
</g>
<!-- readline&#45;&gt;glibc -->
<g id="edge21" class="edge">
<title>readline&#45;&gt;glibc</title>
<path fill="none" stroke="#8b4513" d="M218.96,-510.97C239.64,-502.68 265.75,-488.85 281,-468 304.88,-435.36 300,-419.45 300,-379 300,-379 300,-379 300,-305 300,-263.41 315.4,-217.22 326.6,-189.14"/>
<polygon fill="#8b4513" stroke="#8b4513" points="329.93,-190.24 330.49,-179.66 323.45,-187.58 329.93,-190.24"/>
</g>
<!-- libncursesw.so=6&#45;64 -->
<g id="node19" class="node">
<title>libncursesw.so=6&#45;64</title>
<ellipse fill="green" stroke="green" cx="188" cy="-450" rx="83.69" ry="18"/>
<text text-anchor="middle" x="188" y="-446.3" font-family="Times,serif" font-size="14.00">libncursesw.so=6&#45;64</text>
</g>
<!-- readline&#45;&gt;libncursesw.so=6&#45;64 -->
<g id="edge23" class="edge">
<title>readline&#45;&gt;libncursesw.so=6&#45;64</title>
<path fill="none" stroke="#8b4513" d="M188,-503.7C188,-495.98 188,-486.71 188,-478.11"/>
<polygon fill="#8b4513" stroke="#8b4513" points="191.5,-478.1 188,-468.1 184.5,-478.1 191.5,-478.1"/>
</g>
<!-- libncursesw.so=6&#45;64&#45;&gt;ncurses -->
<g id="edge24" class="edge">
<title>libncursesw.so=6&#45;64&#45;&gt;ncurses</title>
<path fill="none" stroke="grey" d="M181.33,-431.7C177.14,-420.85 171.77,-406.92 167.6,-396.1"/>
</g>
<!-- bzip2&#45;&gt;glibc -->
<g id="edge28" class="edge">
<title>bzip2&#45;&gt;glibc</title>
<path fill="none" stroke="#8b4513" d="M275.15,-793.1C303.48,-751.1 376,-632.85 376,-523 376,-523 376,-523 376,-305 376,-263.41 360.6,-217.22 349.4,-189.14"/>
<polygon fill="#8b4513" stroke="#8b4513" points="352.55,-187.58 345.51,-179.66 346.07,-190.24 352.55,-187.58"/>
</g>
<!-- bzip2&#45;&gt;sh -->
<g id="edge29" class="edge">
<title>bzip2&#45;&gt;sh</title>
<path fill="none" stroke="#8b4513" d="M248.25,-794.5C237.41,-784.51 222.84,-771.09 210.74,-759.94"/>
<polygon fill="#8b4513" stroke="#8b4513" points="212.94,-757.21 203.21,-753.01 208.19,-762.36 212.94,-757.21"/>
</g>
<!-- libseccomp&#45;&gt;glibc -->
<g id="edge32" class="edge">
<title>libseccomp&#45;&gt;glibc</title>
<path fill="none" stroke="#8b4513" d="M433.94,-719.68C426.64,-693.11 414,-640.56 414,-595 414,-595 414,-595 414,-305 414,-264.03 410.34,-251.56 390,-216 383.03,-203.82 372.58,-192.41 362.87,-183.32"/>
<polygon fill="#8b4513" stroke="#8b4513" points="365.11,-180.63 355.33,-176.56 360.44,-185.84 365.11,-180.63"/>
</g>
<!-- libseccomp.so=2&#45;64&#45;&gt;libseccomp -->
<g id="edge34" class="edge">
<title>libseccomp.so=2&#45;64&#45;&gt;libseccomp</title>
<path fill="none" stroke="grey" d="M435.24,-791.7C436.01,-780.85 437.01,-766.92 437.78,-756.1"/>
</g>
</g>
</svg>
