<?xml version="1.0" encoding="UTF-8" standalone="no"?>
<!DOCTYPE svg PUBLIC "-//W3C//DTD SVG 1.1//EN"
 "http://www.w3.org/Graphics/SVG/1.1/DTD/svg11.dtd">
<!-- Generated by graphviz version 2.44.0 (0)
 -->
<!-- Title: G Pages: 1 -->
<svg width="418pt" height="980pt"
 viewBox="0.00 0.00 418.14 980.00" xmlns="http://www.w3.org/2000/svg" xmlns:xlink="http://www.w3.org/1999/xlink">
<g id="graph0" class="graph" transform="scale(1 1) rotate(0) translate(4 976)">
<title>G</title>
<polygon fill="white" stroke="transparent" points="-4,4 -4,-976 414.14,-976 414.14,4 -4,4"/>
<!-- START -->
<g id="node1" class="node">
<title>START</title>
<ellipse fill="red" stroke="red" cx="38.35" cy="-954" rx="38.19" ry="18"/>
<text text-anchor="middle" x="38.35" y="-950.3" font-family="Times,serif" font-size="14.00">START</text>
</g>
<!-- nettle -->
<g id="node2" class="node">
<title>nettle</title>
<ellipse fill="green" stroke="green" cx="38.35" cy="-882" rx="30.59" ry="18"/>
<text text-anchor="middle" x="38.35" y="-878.3" font-family="Times,serif" font-size="14.00">nettle</text>
</g>
<!-- START&#45;&gt;nettle -->
<g id="edge1" class="edge">
<title>START&#45;&gt;nettle</title>
<path fill="none" stroke="black" d="M38.35,-935.7C38.35,-927.98 38.35,-918.71 38.35,-910.11"/>
<polygon fill="black" stroke="black" points="41.85,-910.1 38.35,-900.1 34.85,-910.1 41.85,-910.1"/>
</g>
<!-- gmp -->
<g id="node3" class="node">
<title>gmp</title>
<ellipse fill="green" stroke="green" cx="38.35" cy="-810" rx="27" ry="18"/>
<text text-anchor="middle" x="38.35" y="-806.3" font-family="Times,serif" font-size="14.00">gmp</text>
</g>
<!-- nettle&#45;&gt;gmp -->
<g id="edge2" class="edge">
<title>nettle&#45;&gt;gmp</title>
<path fill="none" stroke="#8b4513" d="M38.35,-863.7C38.35,-855.98 38.35,-846.71 38.35,-838.11"/>
<polygon fill="#8b4513" stroke="#8b4513" points="41.85,-838.1 38.35,-828.1 34.85,-838.1 41.85,-838.1"/>
</g>
<!-- gcc&#45;libs -->
<g id="node4" class="node">
<title>gcc&#45;libs</title>
<ellipse fill="green" stroke="green" cx="100.35" cy="-306" rx="38.19" ry="18"/>
<text text-anchor="middle" x="100.35" y="-302.3" font-family="Times,serif" font-size="14.00">gcc&#45;libs</text>
</g>
<!-- gmp&#45;&gt;gcc&#45;libs -->
<g id="edge3" class="edge">
<title>gmp&#45;&gt;gcc&#45;libs</title>
<path fill="none" stroke="#8b4513" d="M33.01,-792.15C25.14,-765.75 11.35,-712.92 11.35,-667 11.35,-667 11.35,-667 11.35,-449 11.35,-400.54 49.02,-355.03 75.35,-329.14"/>
<polygon fill="#8b4513" stroke="#8b4513" points="77.94,-331.5 82.76,-322.07 73.11,-326.44 77.94,-331.5"/>
</g>
<!-- sh -->
<g id="node12" class="node">
<title>sh</title>
<ellipse fill="green" stroke="green" cx="66.35" cy="-738" rx="27" ry="18"/>
<text text-anchor="middle" x="66.35" y="-734.3" font-family="Times,serif" font-size="14.00">sh</text>
</g>
<!-- gmp&#45;&gt;sh -->
<g id="edge11" class="edge">
<title>gmp&#45;&gt;sh</title>
<path fill="none" stroke="#8b4513" d="M44.98,-792.41C48.26,-784.22 52.29,-774.14 55.96,-764.95"/>
<polygon fill="#8b4513" stroke="#8b4513" points="59.29,-766.05 59.76,-755.47 52.79,-763.45 59.29,-766.05"/>
</g>
<!-- glibc&gt;=2.27 -->
<g id="node5" class="node">
<title>glibc&gt;=2.27</title>
<ellipse fill="green" stroke="green" cx="113.35" cy="-234" rx="54.69" ry="18"/>
<text text-anchor="middle" x="113.35" y="-230.3" font-family="Times,serif" font-size="14.00">glibc&gt;=2.27</text>
</g>
<!-- gcc&#45;libs&#45;&gt;glibc&gt;=2.27 -->
<g id="edge4" class="edge">
<title>gcc&#45;libs&#45;&gt;glibc&gt;=2.27</title>
<path fill="none" stroke="#8b4513" d="M103.49,-288.05C104.93,-280.35 106.66,-271.03 108.26,-262.36"/>
<polygon fill="#8b4513" stroke="#8b4513" points="111.75,-262.75 110.14,-252.28 104.87,-261.47 111.75,-262.75"/>
</g>
<!-- glibc -->
<g id="node6" class="node">
<title>glibc</title>
<ellipse fill="green" stroke="green" cx="266.35" cy="-162" rx="28.7" ry="18"/>
<text text-anchor="middle" x="266.35" y="-158.3" font-family="Times,serif" font-size="14.00">glibc</text>
</g>
<!-- glibc&gt;=2.27&#45;&gt;glibc -->
<g id="edge5" class="edge">
<title>glibc&gt;=2.27&#45;&gt;glibc</title>
<path fill="none" stroke="grey" d="M143.94,-219C173.42,-205.52 217.32,-185.43 243.76,-173.34"/>
</g>
<!-- linux&#45;api&#45;headers&gt;=4.10 -->
<g id="node7" class="node">
<title>linux&#45;api&#45;headers&gt;=4.10</title>
<ellipse fill="green" stroke="green" cx="118.35" cy="-90" rx="98.28" ry="18"/>
<text text-anchor="middle" x="118.35" y="-86.3" font-family="Times,serif" font-size="14.00">linux&#45;api&#45;headers&gt;=4.10</text>
</g>
<!-- glibc&#45;&gt;linux&#45;api&#45;headers&gt;=4.10 -->
<g id="edge6" class="edge">
<title>glibc&#45;&gt;linux&#45;api&#45;headers&gt;=4.10</title>
<path fill="none" stroke="#8b4513" d="M244.19,-150.52C222.41,-140.22 188.57,-124.22 161.47,-111.4"/>
<polygon fill="#8b4513" stroke="#8b4513" points="162.74,-108.12 152.2,-107.01 159.74,-114.45 162.74,-108.12"/>
</g>
<!-- tzdata -->
<g id="node9" class="node">
<title>tzdata</title>
<ellipse fill="green" stroke="green" cx="266.35" cy="-90" rx="31.7" ry="18"/>
<text text-anchor="middle" x="266.35" y="-86.3" font-family="Times,serif" font-size="14.00">tzdata</text>
</g>
<!-- glibc&#45;&gt;tzdata -->
<g id="edge8" class="edge">
<title>glibc&#45;&gt;tzdata</title>
<path fill="none" stroke="#8b4513" d="M266.35,-143.7C266.35,-135.98 266.35,-126.71 266.35,-118.11"/>
<polygon fill="#8b4513" stroke="#8b4513" points="269.85,-118.1 266.35,-108.1 262.85,-118.1 269.85,-118.1"/>
</g>
<!-- filesystem -->
<g id="node10" class="node">
<title>filesystem</title>
<ellipse fill="green" stroke="green" cx="363.35" cy="-90" rx="46.59" ry="18"/>
<text text-anchor="middle" x="363.35" y="-86.3" font-family="Times,serif" font-size="14.00">filesystem</text>
</g>
<!-- glibc&#45;&gt;filesystem -->
<g id="edge9" class="edge">
<title>glibc&#45;&gt;filesystem</title>
<path fill="none" stroke="#8b4513" d="M284.59,-147.83C298.39,-137.88 317.63,-123.99 333.64,-112.44"/>
<polygon fill="#8b4513" stroke="#8b4513" points="336.08,-114.99 342.14,-106.3 331.99,-109.31 336.08,-114.99"/>
</g>
<!-- linux&#45;api&#45;headers -->
<g id="node8" class="node">
<title>linux&#45;api&#45;headers</title>
<ellipse fill="green" stroke="green" cx="118.35" cy="-18" rx="71.49" ry="18"/>
<text text-anchor="middle" x="118.35" y="-14.3" font-family="Times,serif" font-size="14.00">linux&#45;api&#45;headers</text>
</g>
<!-- linux&#45;api&#45;headers&gt;=4.10&#45;&gt;linux&#45;api&#45;headers -->
<g id="edge7" class="edge">
<title>linux&#45;api&#45;headers&gt;=4.10&#45;&gt;linux&#45;api&#45;headers</title>
<path fill="none" stroke="grey" d="M118.35,-71.7C118.35,-60.85 118.35,-46.92 118.35,-36.1"/>
</g>
<!-- iana&#45;etc -->
<g id="node11" class="node">
<title>iana&#45;etc</title>
<ellipse fill="green" stroke="green" cx="363.35" cy="-18" rx="38.19" ry="18"/>
<text text-anchor="middle" x="363.35" y="-14.3" font-family="Times,serif" font-size="14.00">iana&#45;etc</text>
</g>
<!-- filesystem&#45;&gt;iana&#45;etc -->
<g id="edge10" class="edge">
<title>filesystem&#45;&gt;iana&#45;etc</title>
<path fill="none" stroke="#8b4513" d="M363.35,-71.7C363.35,-63.98 363.35,-54.71 363.35,-46.11"/>
<polygon fill="#8b4513" stroke="#8b4513" points="366.85,-46.1 363.35,-36.1 359.85,-46.1 366.85,-46.1"/>
</g>
<!-- bash -->
<g id="node13" class="node">
<title>bash</title>
<ellipse fill="green" stroke="green" cx="132.35" cy="-666" rx="27" ry="18"/>
<text text-anchor="middle" x="132.35" y="-662.3" font-family="Times,serif" font-size="14.00">bash</text>
</g>
<!-- sh&#45;&gt;bash -->
<g id="edge12" class="edge">
<title>sh&#45;&gt;bash</title>
<path fill="none" stroke="grey" d="M80.34,-722.15C91.54,-710.28 107.17,-693.7 118.37,-681.82"/>
</g>
<!-- bash&#45;&gt;glibc -->
<g id="edge21" class="edge">
<title>bash&#45;&gt;glibc</title>
<path fill="none" stroke="#8b4513" d="M158.52,-660.6C216.24,-649.24 349.35,-613.27 349.35,-523 349.35,-523 349.35,-523 349.35,-305 349.35,-257.13 313.75,-211.05 289.18,-184.96"/>
<polygon fill="#8b4513" stroke="#8b4513" points="291.43,-182.26 281.96,-177.52 286.41,-187.13 291.43,-182.26"/>
</g>
<!-- readline&gt;=7.0 -->
<g id="node14" class="node">
<title>readline&gt;=7.0</title>
<ellipse fill="green" stroke="green" cx="154.35" cy="-594" rx="61.19" ry="18"/>
<text text-anchor="middle" x="154.35" y="-590.3" font-family="Times,serif" font-size="14.00">readline&gt;=7.0</text>
</g>
<!-- bash&#45;&gt;readline&gt;=7.0 -->
<g id="edge13" class="edge">
<title>bash&#45;&gt;readline&gt;=7.0</title>
<path fill="none" stroke="#8b4513" d="M137.67,-648.05C140.12,-640.26 143.09,-630.82 145.84,-622.08"/>
<polygon fill="#8b4513" stroke="#8b4513" points="149.26,-622.86 148.92,-612.28 142.58,-620.77 149.26,-622.86"/>
</g>
<!-- ncurses -->
<g id="node16" class="node">
<title>ncurses</title>
<ellipse fill="green" stroke="green" cx="100.35" cy="-378" rx="37.09" ry="18"/>
<text text-anchor="middle" x="100.35" y="-374.3" font-family="Times,serif" font-size="14.00">ncurses</text>
</g>
<!-- bash&#45;&gt;ncurses -->
<g id="edge22" class="edge">
<title>bash&#45;&gt;ncurses</title>
<path fill="none" stroke="#8b4513" d="M115.08,-651.79C103.98,-642.14 90.51,-627.98 84.35,-612 57.14,-541.43 78.08,-449.98 91.44,-405.56"/>
<polygon fill="#8b4513" stroke="#8b4513" points="94.85,-406.41 94.48,-395.82 88.16,-404.32 94.85,-406.41"/>
</g>
<!-- readline -->
<g id="node15" class="node">
<title>readline</title>
<ellipse fill="green" stroke="green" cx="169.35" cy="-522" rx="38.99" ry="18"/>
<text text-anchor="middle" x="169.35" y="-518.3" font-family="Times,serif" font-size="14.00">readline</text>
</g>
<!-- readline&gt;=7.0&#45;&gt;readline -->
<g id="edge14" class="edge">
<title>readline&gt;=7.0&#45;&gt;readline</title>
<path fill="none" stroke="grey" d="M158.05,-575.7C160.38,-564.85 163.36,-550.92 165.68,-540.1"/>
</g>
<!-- readline&#45;&gt;glibc -->
<g id="edge15" class="edge">
<title>readline&#45;&gt;glibc</title>
<path fill="none" stroke="#8b4513" d="M205.18,-514.8C233.07,-508.07 270.59,-494.51 292.35,-468 318,-436.73 311.35,-419.45 311.35,-379 311.35,-379 311.35,-379 311.35,-305 311.35,-262.67 292.95,-216.41 279.68,-188.56"/>
<polygon fill="#8b4513" stroke="#8b4513" points="282.79,-186.94 275.24,-179.51 276.5,-190.03 282.79,-186.94"/>
</g>
<!-- readline&#45;&gt;ncurses -->
<g id="edge16" class="edge">
<title>readline&#45;&gt;ncurses</title>
<path fill="none" stroke="#8b4513" d="M145.33,-507.59C131.36,-498.39 114.88,-484.83 106.35,-468 96.69,-448.95 95.69,-424.59 96.83,-406.18"/>
<polygon fill="#8b4513" stroke="#8b4513" points="100.33,-406.37 97.7,-396.1 93.35,-405.77 100.33,-406.37"/>
</g>
<!-- libncursesw.so=6&#45;64 -->
<g id="node17" class="node">
<title>libncursesw.so=6&#45;64</title>
<ellipse fill="green" stroke="green" cx="199.35" cy="-450" rx="83.69" ry="18"/>
<text text-anchor="middle" x="199.35" y="-446.3" font-family="Times,serif" font-size="14.00">libncursesw.so=6&#45;64</text>
</g>
<!-- readline&#45;&gt;libncursesw.so=6&#45;64 -->
<g id="edge19" class="edge">
<title>readline&#45;&gt;libncursesw.so=6&#45;64</title>
<path fill="none" stroke="#8b4513" d="M176.61,-504.05C180.02,-496.09 184.17,-486.41 187.99,-477.51"/>
<polygon fill="#8b4513" stroke="#8b4513" points="191.22,-478.85 191.94,-468.28 184.79,-476.09 191.22,-478.85"/>
</g>
<!-- ncurses&#45;&gt;gcc&#45;libs -->
<g id="edge18" class="edge">
<title>ncurses&#45;&gt;gcc&#45;libs</title>
<path fill="none" stroke="#8b4513" d="M100.35,-359.7C100.35,-351.98 100.35,-342.71 100.35,-334.11"/>
<polygon fill="#8b4513" stroke="#8b4513" points="103.85,-334.1 100.35,-324.1 96.85,-334.1 103.85,-334.1"/>
</g>
<!-- ncurses&#45;&gt;glibc -->
<g id="edge17" class="edge">
<title>ncurses&#45;&gt;glibc</title>
<path fill="none" stroke="#8b4513" d="M115.13,-361.09C124.58,-350.72 136.97,-336.8 147.35,-324 185.55,-276.85 226.99,-219.13 249.49,-187.19"/>
<polygon fill="#8b4513" stroke="#8b4513" points="252.43,-189.09 255.31,-178.89 246.7,-185.07 252.43,-189.09"/>
</g>
<!-- libncursesw.so=6&#45;64&#45;&gt;ncurses -->
<g id="edge20" class="edge">
<title>libncursesw.so=6&#45;64&#45;&gt;ncurses</title>
<path fill="none" stroke="grey" d="M176.14,-432.59C159.22,-420.63 136.53,-404.59 120.4,-393.18"/>
</g>
</g>
</svg>
