<?xml version="1.0" encoding="UTF-8" standalone="no"?>
<!DOCTYPE svg PUBLIC "-//W3C//DTD SVG 1.1//EN"
 "http://www.w3.org/Graphics/SVG/1.1/DTD/svg11.dtd">
<!-- Generated by graphviz version 2.44.0 (0)
 -->
<!-- Title: G Pages: 1 -->
<svg width="1179pt" height="1412pt"
 viewBox="0.00 0.00 1179.34 1412.00" xmlns="http://www.w3.org/2000/svg" xmlns:xlink="http://www.w3.org/1999/xlink">
<g id="graph0" class="graph" transform="scale(1 1) rotate(0) translate(4 1408)">
<title>G</title>
<polygon fill="white" stroke="transparent" points="-4,4 -4,-1408 1175.34,-1408 1175.34,4 -4,4"/>
<!-- START -->
<g id="node1" class="node">
<title>START</title>
<ellipse fill="red" stroke="red" cx="143" cy="-1386" rx="38.19" ry="18"/>
<text text-anchor="middle" x="143" y="-1382.3" font-family="Times,serif" font-size="14.00">START</text>
</g>
<!-- nss -->
<g id="node2" class="node">
<title>nss</title>
<ellipse fill="green" stroke="green" cx="143" cy="-1314" rx="27" ry="18"/>
<text text-anchor="middle" x="143" y="-1310.3" font-family="Times,serif" font-size="14.00">nss</text>
</g>
<!-- START&#45;&gt;nss -->
<g id="edge1" class="edge">
<title>START&#45;&gt;nss</title>
<path fill="none" stroke="black" d="M143,-1367.7C143,-1359.98 143,-1350.71 143,-1342.11"/>
<polygon fill="black" stroke="black" points="146.5,-1342.1 143,-1332.1 139.5,-1342.1 146.5,-1342.1"/>
</g>
<!-- nspr -->
<g id="node3" class="node">
<title>nspr</title>
<ellipse fill="green" stroke="green" cx="140" cy="-810" rx="27" ry="18"/>
<text text-anchor="middle" x="140" y="-806.3" font-family="Times,serif" font-size="14.00">nspr</text>
</g>
<!-- nss&#45;&gt;nspr -->
<g id="edge2" class="edge">
<title>nss&#45;&gt;nspr</title>
<path fill="none" stroke="#8b4513" d="M143,-1295.95C143,-1269.29 143,-1216.11 143,-1171 143,-1171 143,-1171 143,-953 143,-912.99 141.79,-866.65 140.91,-838.08"/>
<polygon fill="#8b4513" stroke="#8b4513" points="144.41,-837.93 140.59,-828.05 137.41,-838.15 144.41,-837.93"/>
</g>
<!-- sh -->
<g id="node10" class="node">
<title>sh</title>
<ellipse fill="green" stroke="green" cx="380" cy="-738" rx="27" ry="18"/>
<text text-anchor="middle" x="380" y="-734.3" font-family="Times,serif" font-size="14.00">sh</text>
</g>
<!-- nss&#45;&gt;sh -->
<g id="edge28" class="edge">
<title>nss&#45;&gt;sh</title>
<path fill="none" stroke="#8b4513" d="M154.18,-1297.25C171.04,-1271.92 201,-1220 201,-1171 201,-1171 201,-1171 201,-1025 201,-913.33 223.2,-877.52 295,-792 309.25,-775.03 330.37,-761.82 347.99,-752.84"/>
<polygon fill="#8b4513" stroke="#8b4513" points="349.89,-755.81 357.35,-748.28 346.83,-749.51 349.89,-755.81"/>
</g>
<!-- sqlite -->
<g id="node18" class="node">
<title>sqlite</title>
<ellipse fill="green" stroke="green" cx="85" cy="-1242" rx="29.8" ry="18"/>
<text text-anchor="middle" x="85" y="-1238.3" font-family="Times,serif" font-size="14.00">sqlite</text>
</g>
<!-- nss&#45;&gt;sqlite -->
<g id="edge23" class="edge">
<title>nss&#45;&gt;sqlite</title>
<path fill="none" stroke="#8b4513" d="M130.41,-1297.81C122.84,-1288.67 113.05,-1276.85 104.49,-1266.52"/>
<polygon fill="#8b4513" stroke="#8b4513" points="107.04,-1264.11 97.96,-1258.64 101.65,-1268.58 107.04,-1264.11"/>
</g>
<!-- zlib -->
<g id="node19" class="node">
<title>zlib</title>
<ellipse fill="green" stroke="green" cx="27" cy="-1170" rx="27" ry="18"/>
<text text-anchor="middle" x="27" y="-1166.3" font-family="Times,serif" font-size="14.00">zlib</text>
</g>
<!-- nss&#45;&gt;zlib -->
<g id="edge27" class="edge">
<title>nss&#45;&gt;zlib</title>
<path fill="none" stroke="#8b4513" d="M118.35,-1306.04C96,-1298.43 63.89,-1284 46,-1260 32.76,-1242.23 28.32,-1217.22 27.02,-1198.23"/>
<polygon fill="#8b4513" stroke="#8b4513" points="30.51,-1197.96 26.58,-1188.12 23.52,-1198.26 30.51,-1197.96"/>
</g>
<!-- p11&#45;kit&gt;=0.23.19 -->
<g id="node20" class="node">
<title>p11&#45;kit&gt;=0.23.19</title>
<ellipse fill="green" stroke="green" cx="507" cy="-1242" rx="74.19" ry="18"/>
<text text-anchor="middle" x="507" y="-1238.3" font-family="Times,serif" font-size="14.00">p11&#45;kit&gt;=0.23.19</text>
</g>
<!-- nss&#45;&gt;p11&#45;kit&gt;=0.23.19 -->
<g id="edge30" class="edge">
<title>nss&#45;&gt;p11&#45;kit&gt;=0.23.19</title>
<path fill="none" stroke="#8b4513" d="M168.6,-1308.08C224.46,-1297.33 358.85,-1271.49 440.46,-1255.8"/>
<polygon fill="#8b4513" stroke="#8b4513" points="441.48,-1259.16 450.64,-1253.84 440.16,-1252.29 441.48,-1259.16"/>
</g>
<!-- glibc -->
<g id="node4" class="node">
<title>glibc</title>
<ellipse fill="green" stroke="green" cx="595" cy="-162" rx="28.7" ry="18"/>
<text text-anchor="middle" x="595" y="-158.3" font-family="Times,serif" font-size="14.00">glibc</text>
</g>
<!-- nspr&#45;&gt;glibc -->
<g id="edge3" class="edge">
<title>nspr&#45;&gt;glibc</title>
<path fill="none" stroke="#8b4513" d="M129.93,-793.06C109.06,-758.44 63,-673.18 63,-595 63,-595 63,-595 63,-305 63,-252.98 93.1,-240.47 139,-216 211.02,-177.6 459.7,-166.72 556.25,-163.9"/>
<polygon fill="#8b4513" stroke="#8b4513" points="556.55,-167.4 566.45,-163.62 556.35,-160.4 556.55,-167.4"/>
</g>
<!-- nspr&#45;&gt;sh -->
<g id="edge9" class="edge">
<title>nspr&#45;&gt;sh</title>
<path fill="none" stroke="#8b4513" d="M161.04,-798.26C165.88,-796.02 171.06,-793.79 176,-792 233.72,-771.08 303.41,-754.82 344.58,-746.09"/>
<polygon fill="#8b4513" stroke="#8b4513" points="345.34,-749.51 354.41,-744.04 343.91,-742.66 345.34,-749.51"/>
</g>
<!-- linux&#45;api&#45;headers&gt;=4.10 -->
<g id="node5" class="node">
<title>linux&#45;api&#45;headers&gt;=4.10</title>
<ellipse fill="green" stroke="green" cx="447" cy="-90" rx="98.28" ry="18"/>
<text text-anchor="middle" x="447" y="-86.3" font-family="Times,serif" font-size="14.00">linux&#45;api&#45;headers&gt;=4.10</text>
</g>
<!-- glibc&#45;&gt;linux&#45;api&#45;headers&gt;=4.10 -->
<g id="edge4" class="edge">
<title>glibc&#45;&gt;linux&#45;api&#45;headers&gt;=4.10</title>
<path fill="none" stroke="#8b4513" d="M572.84,-150.52C551.06,-140.22 517.23,-124.22 490.13,-111.4"/>
<polygon fill="#8b4513" stroke="#8b4513" points="491.39,-108.12 480.85,-107.01 488.4,-114.45 491.39,-108.12"/>
</g>
<!-- tzdata -->
<g id="node7" class="node">
<title>tzdata</title>
<ellipse fill="green" stroke="green" cx="595" cy="-90" rx="31.7" ry="18"/>
<text text-anchor="middle" x="595" y="-86.3" font-family="Times,serif" font-size="14.00">tzdata</text>
</g>
<!-- glibc&#45;&gt;tzdata -->
<g id="edge6" class="edge">
<title>glibc&#45;&gt;tzdata</title>
<path fill="none" stroke="#8b4513" d="M595,-143.7C595,-135.98 595,-126.71 595,-118.11"/>
<polygon fill="#8b4513" stroke="#8b4513" points="598.5,-118.1 595,-108.1 591.5,-118.1 598.5,-118.1"/>
</g>
<!-- filesystem -->
<g id="node8" class="node">
<title>filesystem</title>
<ellipse fill="green" stroke="green" cx="692" cy="-90" rx="46.59" ry="18"/>
<text text-anchor="middle" x="692" y="-86.3" font-family="Times,serif" font-size="14.00">filesystem</text>
</g>
<!-- glibc&#45;&gt;filesystem -->
<g id="edge7" class="edge">
<title>glibc&#45;&gt;filesystem</title>
<path fill="none" stroke="#8b4513" d="M613.24,-147.83C627.04,-137.88 646.28,-123.99 662.29,-112.44"/>
<polygon fill="#8b4513" stroke="#8b4513" points="664.74,-114.99 670.8,-106.3 660.64,-109.31 664.74,-114.99"/>
</g>
<!-- linux&#45;api&#45;headers -->
<g id="node6" class="node">
<title>linux&#45;api&#45;headers</title>
<ellipse fill="green" stroke="green" cx="447" cy="-18" rx="71.49" ry="18"/>
<text text-anchor="middle" x="447" y="-14.3" font-family="Times,serif" font-size="14.00">linux&#45;api&#45;headers</text>
</g>
<!-- linux&#45;api&#45;headers&gt;=4.10&#45;&gt;linux&#45;api&#45;headers -->
<g id="edge5" class="edge">
<title>linux&#45;api&#45;headers&gt;=4.10&#45;&gt;linux&#45;api&#45;headers</title>
<path fill="none" stroke="grey" d="M447,-71.7C447,-60.85 447,-46.92 447,-36.1"/>
</g>
<!-- iana&#45;etc -->
<g id="node9" class="node">
<title>iana&#45;etc</title>
<ellipse fill="green" stroke="green" cx="692" cy="-18" rx="38.19" ry="18"/>
<text text-anchor="middle" x="692" y="-14.3" font-family="Times,serif" font-size="14.00">iana&#45;etc</text>
</g>
<!-- filesystem&#45;&gt;iana&#45;etc -->
<g id="edge8" class="edge">
<title>filesystem&#45;&gt;iana&#45;etc</title>
<path fill="none" stroke="#8b4513" d="M692,-71.7C692,-63.98 692,-54.71 692,-46.11"/>
<polygon fill="#8b4513" stroke="#8b4513" points="695.5,-46.1 692,-36.1 688.5,-46.1 695.5,-46.1"/>
</g>
<!-- bash -->
<g id="node11" class="node">
<title>bash</title>
<ellipse fill="green" stroke="green" cx="380" cy="-666" rx="27" ry="18"/>
<text text-anchor="middle" x="380" y="-662.3" font-family="Times,serif" font-size="14.00">bash</text>
</g>
<!-- sh&#45;&gt;bash -->
<g id="edge10" class="edge">
<title>sh&#45;&gt;bash</title>
<path fill="none" stroke="grey" d="M374.16,-720.41C372.96,-709.41 372.95,-695.03 374.12,-683.96"/>
</g>
<!-- sh&#45;&gt;bash -->
<g id="edge29" class="edge">
<title>sh&#45;&gt;bash</title>
<path fill="none" stroke="grey" d="M385.84,-720.41C387.04,-709.41 387.05,-695.03 385.88,-683.96"/>
</g>
<!-- bash&#45;&gt;glibc -->
<g id="edge21" class="edge">
<title>bash&#45;&gt;glibc</title>
<path fill="none" stroke="#8b4513" d="M390.05,-648.95C415.6,-606.56 481,-487.48 481,-379 481,-379 481,-379 481,-305 481,-264.03 480.17,-248.59 505,-216 519.19,-197.37 541.98,-184.04 561.07,-175.42"/>
<polygon fill="#8b4513" stroke="#8b4513" points="562.55,-178.59 570.37,-171.44 559.8,-172.15 562.55,-178.59"/>
</g>
<!-- readline&gt;=7.0 -->
<g id="node12" class="node">
<title>readline&gt;=7.0</title>
<ellipse fill="green" stroke="green" cx="224" cy="-594" rx="61.19" ry="18"/>
<text text-anchor="middle" x="224" y="-590.3" font-family="Times,serif" font-size="14.00">readline&gt;=7.0</text>
</g>
<!-- bash&#45;&gt;readline&gt;=7.0 -->
<g id="edge11" class="edge">
<title>bash&#45;&gt;readline&gt;=7.0</title>
<path fill="none" stroke="#8b4513" d="M358.31,-655.27C334.36,-644.52 295.25,-626.97 265.39,-613.57"/>
<polygon fill="#8b4513" stroke="#8b4513" points="266.61,-610.29 256.06,-609.38 263.75,-616.67 266.61,-610.29"/>
</g>
<!-- ncurses -->
<g id="node14" class="node">
<title>ncurses</title>
<ellipse fill="green" stroke="green" cx="325" cy="-378" rx="37.09" ry="18"/>
<text text-anchor="middle" x="325" y="-374.3" font-family="Times,serif" font-size="14.00">ncurses</text>
</g>
<!-- bash&#45;&gt;ncurses -->
<g id="edge22" class="edge">
<title>bash&#45;&gt;ncurses</title>
<path fill="none" stroke="#8b4513" d="M376.72,-647.97C367.52,-600.08 341.34,-463.98 330.16,-405.85"/>
<polygon fill="#8b4513" stroke="#8b4513" points="333.58,-405.1 328.26,-395.94 326.71,-406.43 333.58,-405.1"/>
</g>
<!-- readline -->
<g id="node13" class="node">
<title>readline</title>
<ellipse fill="green" stroke="green" cx="213" cy="-522" rx="38.99" ry="18"/>
<text text-anchor="middle" x="213" y="-518.3" font-family="Times,serif" font-size="14.00">readline</text>
</g>
<!-- readline&gt;=7.0&#45;&gt;readline -->
<g id="edge12" class="edge">
<title>readline&gt;=7.0&#45;&gt;readline</title>
<path fill="none" stroke="grey" d="M221.28,-575.7C219.58,-564.85 217.39,-550.92 215.69,-540.1"/>
</g>
<!-- readline&#45;&gt;glibc -->
<g id="edge13" class="edge">
<title>readline&#45;&gt;glibc</title>
<path fill="none" stroke="#8b4513" d="M182.04,-510.97C161.36,-502.68 135.25,-488.85 120,-468 96.12,-435.36 101,-419.45 101,-379 101,-379 101,-379 101,-305 101,-210.35 440.19,-175.06 556.45,-165.74"/>
<polygon fill="#8b4513" stroke="#8b4513" points="556.97,-169.21 566.67,-164.95 556.42,-162.23 556.97,-169.21"/>
</g>
<!-- readline&#45;&gt;ncurses -->
<g id="edge14" class="edge">
<title>readline&#45;&gt;ncurses</title>
<path fill="none" stroke="#8b4513" d="M243.96,-510.97C264.64,-502.68 290.75,-488.85 306,-468 319.08,-450.11 323.53,-425.11 324.88,-406.16"/>
<polygon fill="#8b4513" stroke="#8b4513" points="328.38,-406.22 325.36,-396.07 321.39,-405.9 328.38,-406.22"/>
</g>
<!-- libncursesw.so=6&#45;64 -->
<g id="node17" class="node">
<title>libncursesw.so=6&#45;64</title>
<ellipse fill="green" stroke="green" cx="213" cy="-450" rx="83.69" ry="18"/>
<text text-anchor="middle" x="213" y="-446.3" font-family="Times,serif" font-size="14.00">libncursesw.so=6&#45;64</text>
</g>
<!-- readline&#45;&gt;libncursesw.so=6&#45;64 -->
<g id="edge19" class="edge">
<title>readline&#45;&gt;libncursesw.so=6&#45;64</title>
<path fill="none" stroke="#8b4513" d="M213,-503.7C213,-495.98 213,-486.71 213,-478.11"/>
<polygon fill="#8b4513" stroke="#8b4513" points="216.5,-478.1 213,-468.1 209.5,-478.1 216.5,-478.1"/>
</g>
<!-- ncurses&#45;&gt;glibc -->
<g id="edge15" class="edge">
<title>ncurses&#45;&gt;glibc</title>
<path fill="none" stroke="#8b4513" d="M319.94,-359.97C311.49,-327.62 298.65,-256.86 334,-216 362.51,-183.04 490.55,-169.88 556.08,-165.24"/>
<polygon fill="#8b4513" stroke="#8b4513" points="556.68,-168.7 566.42,-164.54 556.21,-161.72 556.68,-168.7"/>
</g>
<!-- gcc&#45;libs -->
<g id="node15" class="node">
<title>gcc&#45;libs</title>
<ellipse fill="green" stroke="green" cx="400" cy="-306" rx="38.19" ry="18"/>
<text text-anchor="middle" x="400" y="-302.3" font-family="Times,serif" font-size="14.00">gcc&#45;libs</text>
</g>
<!-- ncurses&#45;&gt;gcc&#45;libs -->
<g id="edge16" class="edge">
<title>ncurses&#45;&gt;gcc&#45;libs</title>
<path fill="none" stroke="#8b4513" d="M341.27,-361.81C351.43,-352.34 364.67,-339.97 376.01,-329.39"/>
<polygon fill="#8b4513" stroke="#8b4513" points="378.58,-331.78 383.5,-322.4 373.8,-326.67 378.58,-331.78"/>
</g>
<!-- glibc&gt;=2.27 -->
<g id="node16" class="node">
<title>glibc&gt;=2.27</title>
<ellipse fill="green" stroke="green" cx="398" cy="-234" rx="54.69" ry="18"/>
<text text-anchor="middle" x="398" y="-230.3" font-family="Times,serif" font-size="14.00">glibc&gt;=2.27</text>
</g>
<!-- gcc&#45;libs&#45;&gt;glibc&gt;=2.27 -->
<g id="edge17" class="edge">
<title>gcc&#45;libs&#45;&gt;glibc&gt;=2.27</title>
<path fill="none" stroke="#8b4513" d="M399.51,-287.7C399.29,-279.98 399.02,-270.71 398.77,-262.11"/>
<polygon fill="#8b4513" stroke="#8b4513" points="402.27,-262 398.49,-252.1 395.28,-262.2 402.27,-262"/>
</g>
<!-- glibc&gt;=2.27&#45;&gt;glibc -->
<g id="edge18" class="edge">
<title>glibc&gt;=2.27&#45;&gt;glibc</title>
<path fill="none" stroke="grey" d="M433.68,-220.32C473.37,-206.22 536.43,-183.81 570.77,-171.61"/>
</g>
<!-- libncursesw.so=6&#45;64&#45;&gt;ncurses -->
<g id="edge20" class="edge">
<title>libncursesw.so=6&#45;64&#45;&gt;ncurses</title>
<path fill="none" stroke="grey" d="M238.98,-432.76C258.36,-420.65 284.56,-404.27 302.94,-392.79"/>
</g>
<!-- sqlite&#45;&gt;readline -->
<g id="edge24" class="edge">
<title>sqlite&#45;&gt;readline</title>
<path fill="none" stroke="#8b4513" d="M85,-1223.95C85,-1197.29 85,-1144.11 85,-1099 85,-1099 85,-1099 85,-809 85,-701 96.32,-667.31 154,-576 161.79,-563.66 173.25,-552.46 183.99,-543.56"/>
<polygon fill="#8b4513" stroke="#8b4513" points="186.33,-546.17 192,-537.23 181.99,-540.68 186.33,-546.17"/>
</g>
<!-- sqlite&#45;&gt;zlib -->
<g id="edge25" class="edge">
<title>sqlite&#45;&gt;zlib</title>
<path fill="none" stroke="#8b4513" d="M72.13,-1225.46C64.44,-1216.18 54.53,-1204.23 45.96,-1193.88"/>
<polygon fill="#8b4513" stroke="#8b4513" points="48.51,-1191.48 39.44,-1186.01 43.12,-1195.94 48.51,-1191.48"/>
</g>
<!-- zlib&#45;&gt;glibc -->
<g id="edge26" class="edge">
<title>zlib&#45;&gt;glibc</title>
<path fill="none" stroke="#8b4513" d="M26.6,-1151.95C26.02,-1125.29 25,-1072.12 25,-1027 25,-1027 25,-1027 25,-305 25,-258.96 39.19,-240.76 78,-216 157.15,-165.5 449.25,-162.08 555.79,-162.57"/>
<polygon fill="#8b4513" stroke="#8b4513" points="556.07,-166.07 566.09,-162.63 556.12,-159.07 556.07,-166.07"/>
</g>
<!-- p11&#45;kit -->
<g id="node21" class="node">
<title>p11&#45;kit</title>
<ellipse fill="green" stroke="green" cx="732" cy="-1170" rx="36.29" ry="18"/>
<text text-anchor="middle" x="732" y="-1166.3" font-family="Times,serif" font-size="14.00">p11&#45;kit</text>
</g>
<!-- p11&#45;kit&gt;=0.23.19&#45;&gt;p11&#45;kit -->
<g id="edge31" class="edge">
<title>p11&#45;kit&gt;=0.23.19&#45;&gt;p11&#45;kit</title>
<path fill="none" stroke="grey" d="M550.65,-1227.42C595.25,-1213.54 663.31,-1192.37 702.12,-1180.3"/>
</g>
<!-- libp11&#45;kit=0.23.20&#45;5 -->
<g id="node22" class="node">
<title>libp11&#45;kit=0.23.20&#45;5</title>
<ellipse fill="green" stroke="green" cx="985" cy="-1026" rx="85.29" ry="18"/>
<text text-anchor="middle" x="985" y="-1022.3" font-family="Times,serif" font-size="14.00">libp11&#45;kit=0.23.20&#45;5</text>
</g>
<!-- p11&#45;kit&#45;&gt;libp11&#45;kit=0.23.20&#45;5 -->
<g id="edge32" class="edge">
<title>p11&#45;kit&#45;&gt;libp11&#45;kit=0.23.20&#45;5</title>
<path fill="none" stroke="#8b4513" d="M755.35,-1155.9C799.29,-1131.23 894.62,-1077.73 947.6,-1047.99"/>
<polygon fill="#8b4513" stroke="#8b4513" points="949.34,-1051.03 956.35,-1043.08 945.91,-1044.92 949.34,-1051.03"/>
</g>
<!-- coreutils -->
<g id="node26" class="node">
<title>coreutils</title>
<ellipse fill="green" stroke="green" cx="579" cy="-1098" rx="40.89" ry="18"/>
<text text-anchor="middle" x="579" y="-1094.3" font-family="Times,serif" font-size="14.00">coreutils</text>
</g>
<!-- p11&#45;kit&#45;&gt;coreutils -->
<g id="edge39" class="edge">
<title>p11&#45;kit&#45;&gt;coreutils</title>
<path fill="none" stroke="#8b4513" d="M706.05,-1157.13C681.26,-1145.79 643.66,-1128.58 615.79,-1115.83"/>
<polygon fill="#8b4513" stroke="#8b4513" points="616.92,-1112.5 606.37,-1111.52 614.01,-1118.87 616.92,-1112.5"/>
</g>
<!-- libp11&#45;kit.so=0&#45;64 -->
<g id="node36" class="node">
<title>libp11&#45;kit.so=0&#45;64</title>
<ellipse fill="green" stroke="green" cx="1094" cy="-666" rx="77.19" ry="18"/>
<text text-anchor="middle" x="1094" y="-662.3" font-family="Times,serif" font-size="14.00">libp11&#45;kit.so=0&#45;64</text>
</g>
<!-- p11&#45;kit&#45;&gt;libp11&#45;kit.so=0&#45;64 -->
<g id="edge61" class="edge">
<title>p11&#45;kit&#45;&gt;libp11&#45;kit.so=0&#45;64</title>
<path fill="none" stroke="#8b4513" d="M766.1,-1163.31C856.96,-1147.2 1098,-1097.8 1098,-1027 1098,-1027 1098,-1027 1098,-809 1098,-768.98 1096.39,-722.64 1095.22,-694.07"/>
<polygon fill="#8b4513" stroke="#8b4513" points="1098.71,-693.89 1094.79,-684.04 1091.72,-694.18 1098.71,-693.89"/>
</g>
<!-- libsystemd.so=0&#45;64 -->
<g id="node37" class="node">
<title>libsystemd.so=0&#45;64</title>
<ellipse fill="green" stroke="green" cx="732" cy="-1098" rx="81.49" ry="18"/>
<text text-anchor="middle" x="732" y="-1094.3" font-family="Times,serif" font-size="14.00">libsystemd.so=0&#45;64</text>
</g>
<!-- p11&#45;kit&#45;&gt;libsystemd.so=0&#45;64 -->
<g id="edge63" class="edge">
<title>p11&#45;kit&#45;&gt;libsystemd.so=0&#45;64</title>
<path fill="none" stroke="#8b4513" d="M732,-1151.7C732,-1143.98 732,-1134.71 732,-1126.11"/>
<polygon fill="#8b4513" stroke="#8b4513" points="735.5,-1126.1 732,-1116.1 728.5,-1126.1 735.5,-1126.1"/>
</g>
<!-- libp11&#45;kit -->
<g id="node23" class="node">
<title>libp11&#45;kit</title>
<ellipse fill="green" stroke="green" cx="985" cy="-306" rx="46.29" ry="18"/>
<text text-anchor="middle" x="985" y="-302.3" font-family="Times,serif" font-size="14.00">libp11&#45;kit</text>
</g>
<!-- libp11&#45;kit=0.23.20&#45;5&#45;&gt;libp11&#45;kit -->
<g id="edge33" class="edge">
<title>libp11&#45;kit=0.23.20&#45;5&#45;&gt;libp11&#45;kit</title>
<path fill="none" stroke="grey" d="M985,-1007.95C985,-981.29 985,-928.11 985,-883 985,-883 985,-883 985,-449 985,-403.89 985,-350.71 985,-324.05"/>
</g>
<!-- libp11&#45;kit&#45;&gt;glibc -->
<g id="edge34" class="edge">
<title>libp11&#45;kit&#45;&gt;glibc</title>
<path fill="none" stroke="#8b4513" d="M970.2,-288.53C949.06,-265.4 910.81,-225.1 893,-216 807.81,-172.46 693.06,-164.05 633.89,-162.82"/>
<polygon fill="#8b4513" stroke="#8b4513" points="633.9,-159.31 623.85,-162.66 633.8,-166.31 633.9,-159.31"/>
</g>
<!-- libtasn1 -->
<g id="node24" class="node">
<title>libtasn1</title>
<ellipse fill="green" stroke="green" cx="983" cy="-234" rx="38.19" ry="18"/>
<text text-anchor="middle" x="983" y="-230.3" font-family="Times,serif" font-size="14.00">libtasn1</text>
</g>
<!-- libp11&#45;kit&#45;&gt;libtasn1 -->
<g id="edge35" class="edge">
<title>libp11&#45;kit&#45;&gt;libtasn1</title>
<path fill="none" stroke="#8b4513" d="M984.51,-287.7C984.29,-279.98 984.02,-270.71 983.77,-262.11"/>
<polygon fill="#8b4513" stroke="#8b4513" points="987.27,-262 983.49,-252.1 980.28,-262.2 987.27,-262"/>
</g>
<!-- libffi -->
<g id="node25" class="node">
<title>libffi</title>
<ellipse fill="green" stroke="green" cx="1067" cy="-234" rx="27.9" ry="18"/>
<text text-anchor="middle" x="1067" y="-230.3" font-family="Times,serif" font-size="14.00">libffi</text>
</g>
<!-- libp11&#45;kit&#45;&gt;libffi -->
<g id="edge37" class="edge">
<title>libp11&#45;kit&#45;&gt;libffi</title>
<path fill="none" stroke="#8b4513" d="M1003.61,-289.12C1015.24,-279.19 1030.33,-266.3 1042.87,-255.6"/>
<polygon fill="#8b4513" stroke="#8b4513" points="1045.35,-258.08 1050.69,-248.93 1040.81,-252.76 1045.35,-258.08"/>
</g>
<!-- libtasn1&#45;&gt;glibc -->
<g id="edge36" class="edge">
<title>libtasn1&#45;&gt;glibc</title>
<path fill="none" stroke="#8b4513" d="M953.54,-222.46C946.24,-220.11 938.39,-217.78 931,-216 824.62,-190.39 696.22,-174.09 633.4,-167.04"/>
<polygon fill="#8b4513" stroke="#8b4513" points="633.5,-163.53 623.17,-165.91 632.73,-170.48 633.5,-163.53"/>
</g>
<!-- libffi&#45;&gt;glibc -->
<g id="edge38" class="edge">
<title>libffi&#45;&gt;glibc</title>
<path fill="none" stroke="#8b4513" d="M1045.91,-221.95C1040.81,-219.67 1035.31,-217.5 1030,-216 887.73,-175.71 710.75,-166.05 633.77,-163.73"/>
<polygon fill="#8b4513" stroke="#8b4513" points="633.68,-160.23 623.59,-163.45 633.49,-167.22 633.68,-160.23"/>
</g>
<!-- coreutils&#45;&gt;glibc -->
<g id="edge40" class="edge">
<title>coreutils&#45;&gt;glibc</title>
<path fill="none" stroke="#8b4513" d="M609.77,-1085.98C655.65,-1068.22 742.41,-1029.36 797,-972 852.36,-913.83 879,-891.3 879,-811 879,-811 879,-811 879,-305 879,-196.67 711.66,-170.98 633.88,-164.89"/>
<polygon fill="#8b4513" stroke="#8b4513" points="633.75,-161.37 623.53,-164.16 633.26,-168.36 633.75,-161.37"/>
</g>
<!-- acl -->
<g id="node27" class="node">
<title>acl</title>
<ellipse fill="green" stroke="green" cx="487" cy="-954" rx="27" ry="18"/>
<text text-anchor="middle" x="487" y="-950.3" font-family="Times,serif" font-size="14.00">acl</text>
</g>
<!-- coreutils&#45;&gt;acl -->
<g id="edge41" class="edge">
<title>coreutils&#45;&gt;acl</title>
<path fill="none" stroke="#8b4513" d="M568.27,-1080.43C552.18,-1055.61 521.73,-1008.61 503.01,-979.72"/>
<polygon fill="#8b4513" stroke="#8b4513" points="505.76,-977.52 497.38,-971.03 499.88,-981.32 505.76,-977.52"/>
</g>
<!-- attr -->
<g id="node28" class="node">
<title>attr</title>
<ellipse fill="green" stroke="green" cx="579" cy="-810" rx="27" ry="18"/>
<text text-anchor="middle" x="579" y="-806.3" font-family="Times,serif" font-size="14.00">attr</text>
</g>
<!-- coreutils&#45;&gt;attr -->
<g id="edge44" class="edge">
<title>coreutils&#45;&gt;attr</title>
<path fill="none" stroke="#8b4513" d="M579,-1079.97C579,-1032.29 579,-897.18 579,-838.63"/>
<polygon fill="#8b4513" stroke="#8b4513" points="582.5,-838.31 579,-828.31 575.5,-838.31 582.5,-838.31"/>
</g>
<!-- gmp -->
<g id="node29" class="node">
<title>gmp</title>
<ellipse fill="green" stroke="green" cx="212" cy="-810" rx="27" ry="18"/>
<text text-anchor="middle" x="212" y="-806.3" font-family="Times,serif" font-size="14.00">gmp</text>
</g>
<!-- coreutils&#45;&gt;gmp -->
<g id="edge45" class="edge">
<title>coreutils&#45;&gt;gmp</title>
<path fill="none" stroke="#8b4513" d="M538.06,-1097.21C488.28,-1095.48 403.87,-1085.91 347,-1044 274.8,-990.79 234.99,-886.47 219.58,-837.53"/>
<polygon fill="#8b4513" stroke="#8b4513" points="222.93,-836.51 216.66,-827.97 216.23,-838.56 222.93,-836.51"/>
</g>
<!-- libcap -->
<g id="node30" class="node">
<title>libcap</title>
<ellipse fill="green" stroke="green" cx="639" cy="-882" rx="32.49" ry="18"/>
<text text-anchor="middle" x="639" y="-878.3" font-family="Times,serif" font-size="14.00">libcap</text>
</g>
<!-- coreutils&#45;&gt;libcap -->
<g id="edge48" class="edge">
<title>coreutils&#45;&gt;libcap</title>
<path fill="none" stroke="#8b4513" d="M583.81,-1079.85C594.24,-1042.66 618.99,-954.37 631.49,-909.77"/>
<polygon fill="#8b4513" stroke="#8b4513" points="634.92,-910.51 634.25,-899.94 628.18,-908.62 634.92,-910.51"/>
</g>
<!-- openssl -->
<g id="node31" class="node">
<title>openssl</title>
<ellipse fill="green" stroke="green" cx="393" cy="-1026" rx="37.09" ry="18"/>
<text text-anchor="middle" x="393" y="-1022.3" font-family="Times,serif" font-size="14.00">openssl</text>
</g>
<!-- coreutils&#45;&gt;openssl -->
<g id="edge51" class="edge">
<title>coreutils&#45;&gt;openssl</title>
<path fill="none" stroke="#8b4513" d="M548.7,-1085.6C516.66,-1073.54 466.03,-1054.48 431.25,-1041.4"/>
<polygon fill="#8b4513" stroke="#8b4513" points="432.05,-1037.95 421.45,-1037.71 429.58,-1044.51 432.05,-1037.95"/>
</g>
<!-- acl&#45;&gt;attr -->
<g id="edge42" class="edge">
<title>acl&#45;&gt;attr</title>
<path fill="none" stroke="#8b4513" d="M482.5,-935.95C478.5,-917.01 475.09,-886.17 488,-864 494.79,-852.34 524.02,-836.5 547.55,-825.18"/>
<polygon fill="#8b4513" stroke="#8b4513" points="549.32,-828.21 556.87,-820.78 546.34,-821.88 549.32,-828.21"/>
</g>
<!-- attr&#45;&gt;glibc -->
<g id="edge43" class="edge">
<title>attr&#45;&gt;glibc</title>
<path fill="none" stroke="#8b4513" d="M582.16,-792.02C586.82,-765.45 595,-712.4 595,-667 595,-667 595,-667 595,-305 595,-265 595,-218.65 595,-190.08"/>
<polygon fill="#8b4513" stroke="#8b4513" points="598.5,-190.05 595,-180.05 591.5,-190.05 598.5,-190.05"/>
</g>
<!-- gmp&#45;&gt;sh -->
<g id="edge47" class="edge">
<title>gmp&#45;&gt;sh</title>
<path fill="none" stroke="#8b4513" d="M234.31,-799.7C263.55,-787.52 315.03,-766.07 348.31,-752.2"/>
<polygon fill="#8b4513" stroke="#8b4513" points="349.71,-755.41 357.6,-748.33 347.02,-748.95 349.71,-755.41"/>
</g>
<!-- gmp&#45;&gt;gcc&#45;libs -->
<g id="edge46" class="edge">
<title>gmp&#45;&gt;gcc&#45;libs</title>
<path fill="none" stroke="#8b4513" d="M219.2,-792.51C233.85,-758.82 267.92,-679.56 294,-612 330.71,-516.92 338.1,-492.46 371,-396 378.1,-375.17 385.81,-351.47 391.49,-333.77"/>
<polygon fill="#8b4513" stroke="#8b4513" points="394.87,-334.7 394.58,-324.11 388.2,-332.57 394.87,-334.7"/>
</g>
<!-- libcap&#45;&gt;glibc -->
<g id="edge49" class="edge">
<title>libcap&#45;&gt;glibc</title>
<path fill="none" stroke="#8b4513" d="M638.01,-863.96C636.56,-837.31 634,-784.14 634,-739 634,-739 634,-739 634,-305 634,-263.33 618.19,-217.16 606.7,-189.11"/>
<polygon fill="#8b4513" stroke="#8b4513" points="609.82,-187.49 602.71,-179.64 603.37,-190.22 609.82,-187.49"/>
</g>
<!-- libcap&#45;&gt;attr -->
<g id="edge50" class="edge">
<title>libcap&#45;&gt;attr</title>
<path fill="none" stroke="#8b4513" d="M625.68,-865.46C617.73,-856.18 607.48,-844.23 598.61,-833.88"/>
<polygon fill="#8b4513" stroke="#8b4513" points="601.03,-831.33 591.87,-826.01 595.72,-835.88 601.03,-831.33"/>
</g>
<!-- perl -->
<g id="node32" class="node">
<title>perl</title>
<ellipse fill="green" stroke="green" cx="369" cy="-954" rx="27" ry="18"/>
<text text-anchor="middle" x="369" y="-950.3" font-family="Times,serif" font-size="14.00">perl</text>
</g>
<!-- openssl&#45;&gt;perl -->
<g id="edge52" class="edge">
<title>openssl&#45;&gt;perl</title>
<path fill="none" stroke="#8b4513" d="M387.19,-1008.05C384.45,-1000.06 381.11,-990.33 378.05,-981.4"/>
<polygon fill="#8b4513" stroke="#8b4513" points="381.31,-980.11 374.76,-971.79 374.69,-982.38 381.31,-980.11"/>
</g>
<!-- perl&#45;&gt;glibc -->
<g id="edge60" class="edge">
<title>perl&#45;&gt;glibc</title>
<path fill="none" stroke="#8b4513" d="M386.02,-939.91C432.29,-902.69 557,-790.89 557,-667 557,-667 557,-667 557,-305 557,-263.41 572.4,-217.22 583.6,-189.14"/>
<polygon fill="#8b4513" stroke="#8b4513" points="586.93,-190.24 587.49,-179.66 580.45,-187.58 586.93,-190.24"/>
</g>
<!-- gdbm&gt;=1.17 -->
<g id="node33" class="node">
<title>gdbm&gt;=1.17</title>
<ellipse fill="green" stroke="green" cx="345" cy="-882" rx="57.69" ry="18"/>
<text text-anchor="middle" x="345" y="-878.3" font-family="Times,serif" font-size="14.00">gdbm&gt;=1.17</text>
</g>
<!-- perl&#45;&gt;gdbm&gt;=1.17 -->
<g id="edge53" class="edge">
<title>perl&#45;&gt;gdbm&gt;=1.17</title>
<path fill="none" stroke="#8b4513" d="M363.19,-936.05C360.49,-928.18 357.21,-918.62 354.19,-909.79"/>
<polygon fill="#8b4513" stroke="#8b4513" points="357.48,-908.6 350.92,-900.28 350.86,-910.87 357.48,-908.6"/>
</g>
<!-- db -->
<g id="node35" class="node">
<title>db</title>
<ellipse fill="green" stroke="green" cx="331" cy="-810" rx="27" ry="18"/>
<text text-anchor="middle" x="331" y="-806.3" font-family="Times,serif" font-size="14.00">db</text>
</g>
<!-- perl&#45;&gt;db -->
<g id="edge57" class="edge">
<title>perl&#45;&gt;db</title>
<path fill="none" stroke="#8b4513" d="M344.28,-946.23C322.5,-938.82 292.12,-924.57 278,-900 270.03,-886.13 271.88,-878.78 278,-864 283.56,-850.59 294.33,-838.8 304.73,-829.77"/>
<polygon fill="#8b4513" stroke="#8b4513" points="306.98,-832.45 312.51,-823.42 302.55,-827.03 306.98,-832.45"/>
</g>
<!-- gdbm -->
<g id="node34" class="node">
<title>gdbm</title>
<ellipse fill="green" stroke="green" cx="445" cy="-810" rx="31.4" ry="18"/>
<text text-anchor="middle" x="445" y="-806.3" font-family="Times,serif" font-size="14.00">gdbm</text>
</g>
<!-- gdbm&gt;=1.17&#45;&gt;gdbm -->
<g id="edge54" class="edge">
<title>gdbm&gt;=1.17&#45;&gt;gdbm</title>
<path fill="none" stroke="grey" d="M367.69,-865.12C385.21,-852.85 409.18,-836.07 425.76,-824.47"/>
</g>
<!-- gdbm&#45;&gt;glibc -->
<g id="edge55" class="edge">
<title>gdbm&#45;&gt;glibc</title>
<path fill="none" stroke="#8b4513" d="M459.27,-793.76C480.77,-769.13 519,-718.15 519,-667 519,-667 519,-667 519,-305 519,-264.03 522.66,-251.56 543,-216 549.97,-203.82 560.42,-192.41 570.13,-183.32"/>
<polygon fill="#8b4513" stroke="#8b4513" points="572.56,-185.84 577.67,-176.56 567.89,-180.63 572.56,-185.84"/>
</g>
<!-- gdbm&#45;&gt;sh -->
<g id="edge56" class="edge">
<title>gdbm&#45;&gt;sh</title>
<path fill="none" stroke="#8b4513" d="M430.9,-793.81C422,-784.23 410.37,-771.7 400.47,-761.04"/>
<polygon fill="#8b4513" stroke="#8b4513" points="403,-758.63 393.63,-753.68 397.87,-763.39 403,-758.63"/>
</g>
<!-- db&#45;&gt;sh -->
<g id="edge59" class="edge">
<title>db&#45;&gt;sh</title>
<path fill="none" stroke="#8b4513" d="M341.87,-793.46C348.16,-784.49 356.19,-773.02 363.26,-762.92"/>
<polygon fill="#8b4513" stroke="#8b4513" points="366.29,-764.69 369.16,-754.49 360.55,-760.68 366.29,-764.69"/>
</g>
<!-- db&#45;&gt;gcc&#45;libs -->
<g id="edge58" class="edge">
<title>db&#45;&gt;gcc&#45;libs</title>
<path fill="none" stroke="#8b4513" d="M353.49,-799.69C394.45,-781.06 477,-735.07 477,-667 477,-667 477,-667 477,-593 477,-494.14 433.57,-382.46 411.95,-332.98"/>
<polygon fill="#8b4513" stroke="#8b4513" points="415.06,-331.38 407.81,-323.66 408.67,-334.22 415.06,-331.38"/>
</g>
<!-- libp11&#45;kit.so=0&#45;64&#45;&gt;libp11&#45;kit -->
<g id="edge62" class="edge">
<title>libp11&#45;kit.so=0&#45;64&#45;&gt;libp11&#45;kit</title>
<path fill="none" stroke="grey" d="M1086.71,-647.87C1076.2,-621.53 1058,-569.29 1058,-523 1058,-523 1058,-523 1058,-449 1058,-398.55 1021.1,-348.06 999.77,-323.09"/>
</g>
<!-- systemd&#45;libs -->
<g id="node38" class="node">
<title>systemd&#45;libs</title>
<ellipse fill="green" stroke="green" cx="732" cy="-954" rx="55.79" ry="18"/>
<text text-anchor="middle" x="732" y="-950.3" font-family="Times,serif" font-size="14.00">systemd&#45;libs</text>
</g>
<!-- libsystemd.so=0&#45;64&#45;&gt;systemd&#45;libs -->
<g id="edge64" class="edge">
<title>libsystemd.so=0&#45;64&#45;&gt;systemd&#45;libs</title>
<path fill="none" stroke="grey" d="M732,-1079.87C732,-1052.58 732,-999.52 732,-972.19"/>
</g>
<!-- systemd&#45;libs&#45;&gt;glibc -->
<g id="edge65" class="edge">
<title>systemd&#45;libs&#45;&gt;glibc</title>
<path fill="none" stroke="#8b4513" d="M757.94,-937.99C772.42,-928.57 789.92,-915.32 802,-900 828.75,-866.09 841,-854.19 841,-811 841,-811 841,-811 841,-305 841,-210.25 702.43,-177.74 633.29,-167.41"/>
<polygon fill="#8b4513" stroke="#8b4513" points="633.61,-163.92 623.22,-165.99 632.63,-170.85 633.61,-163.92"/>
</g>
<!-- systemd&#45;libs&#45;&gt;libcap -->
<g id="edge66" class="edge">
<title>systemd&#45;libs&#45;&gt;libcap</title>
<path fill="none" stroke="#8b4513" d="M710.9,-937.12C697.46,-927 679.93,-913.81 665.55,-902.99"/>
<polygon fill="#8b4513" stroke="#8b4513" points="667.6,-900.14 657.5,-896.93 663.39,-905.74 667.6,-900.14"/>
</g>
<!-- libgcrypt -->
<g id="node39" class="node">
<title>libgcrypt</title>
<ellipse fill="green" stroke="green" cx="732" cy="-882" rx="42.79" ry="18"/>
<text text-anchor="middle" x="732" y="-878.3" font-family="Times,serif" font-size="14.00">libgcrypt</text>
</g>
<!-- systemd&#45;libs&#45;&gt;libgcrypt -->
<g id="edge67" class="edge">
<title>systemd&#45;libs&#45;&gt;libgcrypt</title>
<path fill="none" stroke="#8b4513" d="M732,-935.7C732,-927.98 732,-918.71 732,-910.11"/>
<polygon fill="#8b4513" stroke="#8b4513" points="735.5,-910.1 732,-900.1 728.5,-910.1 735.5,-910.1"/>
</g>
<!-- lz4 -->
<g id="node41" class="node">
<title>lz4</title>
<ellipse fill="green" stroke="green" cx="768" cy="-738" rx="27" ry="18"/>
<text text-anchor="middle" x="768" y="-734.3" font-family="Times,serif" font-size="14.00">lz4</text>
</g>
<!-- systemd&#45;libs&#45;&gt;lz4 -->
<g id="edge71" class="edge">
<title>systemd&#45;libs&#45;&gt;lz4</title>
<path fill="none" stroke="#8b4513" d="M754.13,-937.29C765.36,-927.9 777.9,-914.92 784,-900 802.22,-855.42 788.86,-798.34 778.05,-765.5"/>
<polygon fill="#8b4513" stroke="#8b4513" points="781.24,-764.04 774.67,-755.73 774.63,-766.33 781.24,-764.04"/>
</g>
<!-- xz -->
<g id="node42" class="node">
<title>xz</title>
<ellipse fill="green" stroke="green" cx="524" cy="-882" rx="27" ry="18"/>
<text text-anchor="middle" x="524" y="-878.3" font-family="Times,serif" font-size="14.00">xz</text>
</g>
<!-- systemd&#45;libs&#45;&gt;xz -->
<g id="edge73" class="edge">
<title>systemd&#45;libs&#45;&gt;xz</title>
<path fill="none" stroke="#8b4513" d="M694.81,-940.49C655.83,-927.37 595.12,-906.93 557.55,-894.29"/>
<polygon fill="#8b4513" stroke="#8b4513" points="558.2,-890.82 547.61,-890.95 555.97,-897.45 558.2,-890.82"/>
</g>
<!-- libgpg&#45;error -->
<g id="node40" class="node">
<title>libgpg&#45;error</title>
<ellipse fill="green" stroke="green" cx="716" cy="-810" rx="53.89" ry="18"/>
<text text-anchor="middle" x="716" y="-806.3" font-family="Times,serif" font-size="14.00">libgpg&#45;error</text>
</g>
<!-- libgcrypt&#45;&gt;libgpg&#45;error -->
<g id="edge68" class="edge">
<title>libgcrypt&#45;&gt;libgpg&#45;error</title>
<path fill="none" stroke="#8b4513" d="M728.13,-864.05C726.35,-856.26 724.19,-846.82 722.19,-838.08"/>
<polygon fill="#8b4513" stroke="#8b4513" points="725.59,-837.24 719.95,-828.28 718.76,-838.8 725.59,-837.24"/>
</g>
<!-- libgpg&#45;error&#45;&gt;glibc -->
<g id="edge69" class="edge">
<title>libgpg&#45;error&#45;&gt;glibc</title>
<path fill="none" stroke="#8b4513" d="M711.55,-791.65C705.12,-765.02 694,-712.4 694,-667 694,-667 694,-667 694,-305 694,-253.63 649.86,-207.55 620.53,-182.6"/>
<polygon fill="#8b4513" stroke="#8b4513" points="622.64,-179.8 612.7,-176.14 618.18,-185.2 622.64,-179.8"/>
</g>
<!-- libgpg&#45;error&#45;&gt;sh -->
<g id="edge70" class="edge">
<title>libgpg&#45;error&#45;&gt;sh</title>
<path fill="none" stroke="#8b4513" d="M671.38,-799.7C603.88,-785.64 477.16,-759.24 415.5,-746.4"/>
<polygon fill="#8b4513" stroke="#8b4513" points="415.98,-742.92 405.48,-744.31 414.55,-749.77 415.98,-742.92"/>
</g>
<!-- lz4&#45;&gt;glibc -->
<g id="edge72" class="edge">
<title>lz4&#45;&gt;glibc</title>
<path fill="none" stroke="#8b4513" d="M764.84,-720.02C760.18,-693.45 752,-640.4 752,-595 752,-595 752,-595 752,-305 752,-260.87 739.52,-246.88 708,-216 686.5,-194.94 655.08,-181.14 630.82,-172.91"/>
<polygon fill="#8b4513" stroke="#8b4513" points="631.84,-169.56 621.25,-169.82 629.69,-176.22 631.84,-169.56"/>
</g>
<!-- xz&#45;&gt;sh -->
<g id="edge74" class="edge">
<title>xz&#45;&gt;sh</title>
<path fill="none" stroke="#8b4513" d="M498.34,-876.26C471.27,-869.92 429.26,-856.06 405,-828 390.12,-810.79 384.06,-785.35 381.6,-766.07"/>
<polygon fill="#8b4513" stroke="#8b4513" points="385.08,-765.68 380.58,-756.09 378.12,-766.39 385.08,-765.68"/>
</g>
</g>
</svg>
