<?xml version="1.0" encoding="UTF-8" standalone="no"?>
<!DOCTYPE svg PUBLIC "-//W3C//DTD SVG 1.1//EN"
 "http://www.w3.org/Graphics/SVG/1.1/DTD/svg11.dtd">
<!-- Generated by graphviz version 2.44.0 (0)
 -->
<!-- Title: G Pages: 1 -->
<svg width="580pt" height="1412pt"
 viewBox="0.00 0.00 580.34 1412.00" xmlns="http://www.w3.org/2000/svg" xmlns:xlink="http://www.w3.org/1999/xlink">
<g id="graph0" class="graph" transform="scale(1 1) rotate(0) translate(4 1408)">
<title>G</title>
<polygon fill="white" stroke="transparent" points="-4,4 -4,-1408 576.34,-1408 576.34,4 -4,4"/>
<!-- START -->
<g id="node1" class="node">
<title>START</title>
<ellipse fill="red" stroke="red" cx="330" cy="-1386" rx="38.19" ry="18"/>
<text text-anchor="middle" x="330" y="-1382.3" font-family="Times,serif" font-size="14.00">START</text>
</g>
<!-- openssh -->
<g id="node2" class="node">
<title>openssh</title>
<ellipse fill="green" stroke="green" cx="330" cy="-1314" rx="38.99" ry="18"/>
<text text-anchor="middle" x="330" y="-1310.3" font-family="Times,serif" font-size="14.00">openssh</text>
</g>
<!-- START&#45;&gt;openssh -->
<g id="edge1" class="edge">
<title>START&#45;&gt;openssh</title>
<path fill="none" stroke="black" d="M330,-1367.7C330,-1359.98 330,-1350.71 330,-1342.11"/>
<polygon fill="black" stroke="black" points="333.5,-1342.1 330,-1332.1 326.5,-1342.1 333.5,-1342.1"/>
</g>
<!-- krb5 -->
<g id="node3" class="node">
<title>krb5</title>
<ellipse fill="green" stroke="green" cx="252" cy="-1242" rx="27.1" ry="18"/>
<text text-anchor="middle" x="252" y="-1238.3" font-family="Times,serif" font-size="14.00">krb5</text>
</g>
<!-- openssh&#45;&gt;krb5 -->
<g id="edge2" class="edge">
<title>openssh&#45;&gt;krb5</title>
<path fill="none" stroke="#8b4513" d="M312.69,-1297.46C301.64,-1287.55 287.2,-1274.59 275.17,-1263.79"/>
<polygon fill="#8b4513" stroke="#8b4513" points="277.45,-1261.14 267.67,-1257.07 272.78,-1266.35 277.45,-1261.14"/>
</g>
<!-- openssl -->
<g id="node22" class="node">
<title>openssl</title>
<ellipse fill="green" stroke="green" cx="391" cy="-1026" rx="37.09" ry="18"/>
<text text-anchor="middle" x="391" y="-1022.3" font-family="Times,serif" font-size="14.00">openssl</text>
</g>
<!-- openssh&#45;&gt;openssl -->
<g id="edge43" class="edge">
<title>openssh&#45;&gt;openssl</title>
<path fill="none" stroke="#8b4513" d="M333.63,-1295.97C343.85,-1248.08 372.87,-1111.98 385.27,-1053.85"/>
<polygon fill="#8b4513" stroke="#8b4513" points="388.72,-1054.45 387.39,-1043.94 381.88,-1052.99 388.72,-1054.45"/>
</g>
<!-- libedit -->
<g id="node28" class="node">
<title>libedit</title>
<ellipse fill="green" stroke="green" cx="78" cy="-954" rx="33.29" ry="18"/>
<text text-anchor="middle" x="78" y="-950.3" font-family="Times,serif" font-size="14.00">libedit</text>
</g>
<!-- openssh&#45;&gt;libedit -->
<g id="edge44" class="edge">
<title>openssh&#45;&gt;libedit</title>
<path fill="none" stroke="#8b4513" d="M292.76,-1308.28C225.35,-1297.44 90,-1264.08 90,-1171 90,-1171 90,-1171 90,-1097 90,-1056.85 85.18,-1010.55 81.65,-982.02"/>
<polygon fill="#8b4513" stroke="#8b4513" points="85.11,-981.49 80.37,-972.01 78.16,-982.37 85.11,-981.49"/>
</g>
<!-- ldns -->
<g id="node29" class="node">
<title>ldns</title>
<ellipse fill="green" stroke="green" cx="433" cy="-1242" rx="27" ry="18"/>
<text text-anchor="middle" x="433" y="-1238.3" font-family="Times,serif" font-size="14.00">ldns</text>
</g>
<!-- openssh&#45;&gt;ldns -->
<g id="edge46" class="edge">
<title>openssh&#45;&gt;ldns</title>
<path fill="none" stroke="#8b4513" d="M351.34,-1298.5C367.3,-1287.65 389.22,-1272.75 406.33,-1261.12"/>
<polygon fill="#8b4513" stroke="#8b4513" points="408.48,-1263.9 414.78,-1255.38 404.55,-1258.11 408.48,-1263.9"/>
</g>
<!-- e2fsprogs -->
<g id="node4" class="node">
<title>e2fsprogs</title>
<ellipse fill="green" stroke="green" cx="221" cy="-1098" rx="44.69" ry="18"/>
<text text-anchor="middle" x="221" y="-1094.3" font-family="Times,serif" font-size="14.00">e2fsprogs</text>
</g>
<!-- krb5&#45;&gt;e2fsprogs -->
<g id="edge3" class="edge">
<title>krb5&#45;&gt;e2fsprogs</title>
<path fill="none" stroke="#8b4513" d="M248.06,-1223.83C245.69,-1213.46 242.63,-1199.98 240,-1188 235.45,-1167.3 230.45,-1143.85 226.72,-1126.22"/>
<polygon fill="#8b4513" stroke="#8b4513" points="230.07,-1125.14 224.58,-1116.08 223.22,-1126.58 230.07,-1125.14"/>
</g>
<!-- libldap -->
<g id="node20" class="node">
<title>libldap</title>
<ellipse fill="green" stroke="green" cx="284" cy="-1170" rx="35.19" ry="18"/>
<text text-anchor="middle" x="284" y="-1166.3" font-family="Times,serif" font-size="14.00">libldap</text>
</g>
<!-- krb5&#45;&gt;libldap -->
<g id="edge24" class="edge">
<title>krb5&#45;&gt;libldap</title>
<path fill="none" stroke="#8b4513" d="M259.58,-1224.41C263.31,-1216.25 267.9,-1206.22 272.08,-1197.07"/>
<polygon fill="#8b4513" stroke="#8b4513" points="275.27,-1198.51 276.25,-1187.96 268.91,-1195.6 275.27,-1198.51"/>
</g>
<!-- keyutils -->
<g id="node27" class="node">
<title>keyutils</title>
<ellipse fill="green" stroke="green" cx="142" cy="-810" rx="38.19" ry="18"/>
<text text-anchor="middle" x="142" y="-806.3" font-family="Times,serif" font-size="14.00">keyutils</text>
</g>
<!-- krb5&#45;&gt;keyutils -->
<g id="edge39" class="edge">
<title>krb5&#45;&gt;keyutils</title>
<path fill="none" stroke="#8b4513" d="M232.75,-1228.93C200.72,-1207.2 140,-1158.19 140,-1099 140,-1099 140,-1099 140,-953 140,-912.99 140.8,-866.65 141.39,-838.08"/>
<polygon fill="#8b4513" stroke="#8b4513" points="144.89,-838.12 141.6,-828.05 137.89,-837.97 144.89,-838.12"/>
</g>
<!-- sh -->
<g id="node5" class="node">
<title>sh</title>
<ellipse fill="green" stroke="green" cx="338" cy="-738" rx="27" ry="18"/>
<text text-anchor="middle" x="338" y="-734.3" font-family="Times,serif" font-size="14.00">sh</text>
</g>
<!-- e2fsprogs&#45;&gt;sh -->
<g id="edge4" class="edge">
<title>e2fsprogs&#45;&gt;sh</title>
<path fill="none" stroke="#8b4513" d="M244.43,-1082.62C257.74,-1073.24 273.58,-1059.82 283,-1044 303.69,-1009.24 302,-995.45 302,-955 302,-955 302,-955 302,-881 302,-839.55 316.59,-793.32 327.2,-765.2"/>
<polygon fill="#8b4513" stroke="#8b4513" points="330.53,-766.29 330.89,-755.7 324,-763.75 330.53,-766.29"/>
</g>
<!-- libutil&#45;linux -->
<g id="node19" class="node">
<title>libutil&#45;linux</title>
<ellipse fill="green" stroke="green" cx="221" cy="-1026" rx="52.79" ry="18"/>
<text text-anchor="middle" x="221" y="-1022.3" font-family="Times,serif" font-size="14.00">libutil&#45;linux</text>
</g>
<!-- e2fsprogs&#45;&gt;libutil&#45;linux -->
<g id="edge23" class="edge">
<title>e2fsprogs&#45;&gt;libutil&#45;linux</title>
<path fill="none" stroke="#8b4513" d="M221,-1079.7C221,-1071.98 221,-1062.71 221,-1054.11"/>
<polygon fill="#8b4513" stroke="#8b4513" points="224.5,-1054.1 221,-1044.1 217.5,-1054.1 224.5,-1054.1"/>
</g>
<!-- bash -->
<g id="node6" class="node">
<title>bash</title>
<ellipse fill="green" stroke="green" cx="338" cy="-666" rx="27" ry="18"/>
<text text-anchor="middle" x="338" y="-662.3" font-family="Times,serif" font-size="14.00">bash</text>
</g>
<!-- sh&#45;&gt;bash -->
<g id="edge5" class="edge">
<title>sh&#45;&gt;bash</title>
<path fill="none" stroke="grey" d="M321.63,-723.5C316.45,-711.11 316.46,-692.84 321.64,-680.46"/>
</g>
<!-- sh&#45;&gt;bash -->
<g id="edge32" class="edge">
<title>sh&#45;&gt;bash</title>
<path fill="none" stroke="grey" d="M332.16,-720.41C330.96,-709.41 330.95,-695.03 332.12,-683.96"/>
</g>
<!-- sh&#45;&gt;bash -->
<g id="edge36" class="edge">
<title>sh&#45;&gt;bash</title>
<path fill="none" stroke="grey" d="M343.84,-720.41C345.04,-709.41 345.05,-695.03 343.88,-683.96"/>
</g>
<!-- sh&#45;&gt;bash -->
<g id="edge42" class="edge">
<title>sh&#45;&gt;bash</title>
<path fill="none" stroke="grey" d="M354.37,-723.5C359.55,-711.11 359.54,-692.84 354.36,-680.46"/>
</g>
<!-- readline&gt;=7.0 -->
<g id="node7" class="node">
<title>readline&gt;=7.0</title>
<ellipse fill="green" stroke="green" cx="226" cy="-594" rx="61.19" ry="18"/>
<text text-anchor="middle" x="226" y="-590.3" font-family="Times,serif" font-size="14.00">readline&gt;=7.0</text>
</g>
<!-- bash&#45;&gt;readline&gt;=7.0 -->
<g id="edge6" class="edge">
<title>bash&#45;&gt;readline&gt;=7.0</title>
<path fill="none" stroke="#8b4513" d="M319,-653.13C302.76,-642.98 279.02,-628.14 259.58,-615.99"/>
<polygon fill="#8b4513" stroke="#8b4513" points="261.33,-612.96 251,-610.62 257.62,-618.89 261.33,-612.96"/>
</g>
<!-- glibc -->
<g id="node9" class="node">
<title>glibc</title>
<ellipse fill="green" stroke="green" cx="297" cy="-162" rx="28.7" ry="18"/>
<text text-anchor="middle" x="297" y="-158.3" font-family="Times,serif" font-size="14.00">glibc</text>
</g>
<!-- bash&#45;&gt;glibc -->
<g id="edge21" class="edge">
<title>bash&#45;&gt;glibc</title>
<path fill="none" stroke="#8b4513" d="M347.46,-648.92C352.89,-638.72 359.19,-625.03 362,-612 378.47,-535.68 403.43,-305.83 361,-216 353.89,-200.95 340.19,-188.7 327.28,-179.78"/>
<polygon fill="#8b4513" stroke="#8b4513" points="328.86,-176.64 318.57,-174.15 325.06,-182.52 328.86,-176.64"/>
</g>
<!-- ncurses -->
<g id="node15" class="node">
<title>ncurses</title>
<ellipse fill="green" stroke="green" cx="218" cy="-378" rx="37.09" ry="18"/>
<text text-anchor="middle" x="218" y="-374.3" font-family="Times,serif" font-size="14.00">ncurses</text>
</g>
<!-- bash&#45;&gt;ncurses -->
<g id="edge22" class="edge">
<title>bash&#45;&gt;ncurses</title>
<path fill="none" stroke="#8b4513" d="M341.74,-648.01C349.77,-606.96 364.46,-500.71 319,-432 305.45,-411.52 281.33,-398.44 260.06,-390.41"/>
<polygon fill="#8b4513" stroke="#8b4513" points="261.13,-387.07 250.53,-387.06 258.81,-393.68 261.13,-387.07"/>
</g>
<!-- readline -->
<g id="node8" class="node">
<title>readline</title>
<ellipse fill="green" stroke="green" cx="203" cy="-522" rx="38.99" ry="18"/>
<text text-anchor="middle" x="203" y="-518.3" font-family="Times,serif" font-size="14.00">readline</text>
</g>
<!-- readline&gt;=7.0&#45;&gt;readline -->
<g id="edge7" class="edge">
<title>readline&gt;=7.0&#45;&gt;readline</title>
<path fill="none" stroke="grey" d="M220.43,-576.05C216.87,-565.21 212.26,-551.18 208.68,-540.28"/>
</g>
<!-- readline&#45;&gt;glibc -->
<g id="edge8" class="edge">
<title>readline&#45;&gt;glibc</title>
<path fill="none" stroke="#8b4513" d="M172.35,-510.57C124.63,-492.17 38,-449.11 38,-379 38,-379 38,-379 38,-305 38,-205.54 186.68,-175.28 258.74,-166.45"/>
<polygon fill="#8b4513" stroke="#8b4513" points="259.25,-169.92 268.79,-165.3 258.46,-162.96 259.25,-169.92"/>
</g>
<!-- readline&#45;&gt;ncurses -->
<g id="edge14" class="edge">
<title>readline&#45;&gt;ncurses</title>
<path fill="none" stroke="#8b4513" d="M176.3,-508.62C160.57,-499.75 142.03,-486.15 133,-468 125.88,-453.67 125.24,-445.99 133,-432 142.9,-414.17 161.57,-401.55 178.89,-393.11"/>
<polygon fill="#8b4513" stroke="#8b4513" points="180.65,-396.16 188.32,-388.85 177.76,-389.78 180.65,-396.16"/>
</g>
<!-- libncursesw.so=6&#45;64 -->
<g id="node18" class="node">
<title>libncursesw.so=6&#45;64</title>
<ellipse fill="green" stroke="green" cx="226" cy="-450" rx="83.69" ry="18"/>
<text text-anchor="middle" x="226" y="-446.3" font-family="Times,serif" font-size="14.00">libncursesw.so=6&#45;64</text>
</g>
<!-- readline&#45;&gt;libncursesw.so=6&#45;64 -->
<g id="edge19" class="edge">
<title>readline&#45;&gt;libncursesw.so=6&#45;64</title>
<path fill="none" stroke="#8b4513" d="M208.57,-504.05C211.16,-496.18 214.3,-486.62 217.2,-477.79"/>
<polygon fill="#8b4513" stroke="#8b4513" points="220.53,-478.87 220.32,-468.28 213.88,-476.68 220.53,-478.87"/>
</g>
<!-- linux&#45;api&#45;headers&gt;=4.10 -->
<g id="node10" class="node">
<title>linux&#45;api&#45;headers&gt;=4.10</title>
<ellipse fill="green" stroke="green" cx="149" cy="-90" rx="98.28" ry="18"/>
<text text-anchor="middle" x="149" y="-86.3" font-family="Times,serif" font-size="14.00">linux&#45;api&#45;headers&gt;=4.10</text>
</g>
<!-- glibc&#45;&gt;linux&#45;api&#45;headers&gt;=4.10 -->
<g id="edge9" class="edge">
<title>glibc&#45;&gt;linux&#45;api&#45;headers&gt;=4.10</title>
<path fill="none" stroke="#8b4513" d="M274.84,-150.52C253.06,-140.22 219.23,-124.22 192.13,-111.4"/>
<polygon fill="#8b4513" stroke="#8b4513" points="193.39,-108.12 182.85,-107.01 190.4,-114.45 193.39,-108.12"/>
</g>
<!-- tzdata -->
<g id="node12" class="node">
<title>tzdata</title>
<ellipse fill="green" stroke="green" cx="297" cy="-90" rx="31.7" ry="18"/>
<text text-anchor="middle" x="297" y="-86.3" font-family="Times,serif" font-size="14.00">tzdata</text>
</g>
<!-- glibc&#45;&gt;tzdata -->
<g id="edge11" class="edge">
<title>glibc&#45;&gt;tzdata</title>
<path fill="none" stroke="#8b4513" d="M297,-143.7C297,-135.98 297,-126.71 297,-118.11"/>
<polygon fill="#8b4513" stroke="#8b4513" points="300.5,-118.1 297,-108.1 293.5,-118.1 300.5,-118.1"/>
</g>
<!-- filesystem -->
<g id="node13" class="node">
<title>filesystem</title>
<ellipse fill="green" stroke="green" cx="394" cy="-90" rx="46.59" ry="18"/>
<text text-anchor="middle" x="394" y="-86.3" font-family="Times,serif" font-size="14.00">filesystem</text>
</g>
<!-- glibc&#45;&gt;filesystem -->
<g id="edge12" class="edge">
<title>glibc&#45;&gt;filesystem</title>
<path fill="none" stroke="#8b4513" d="M315.24,-147.83C329.04,-137.88 348.28,-123.99 364.29,-112.44"/>
<polygon fill="#8b4513" stroke="#8b4513" points="366.74,-114.99 372.8,-106.3 362.64,-109.31 366.74,-114.99"/>
</g>
<!-- linux&#45;api&#45;headers -->
<g id="node11" class="node">
<title>linux&#45;api&#45;headers</title>
<ellipse fill="green" stroke="green" cx="149" cy="-18" rx="71.49" ry="18"/>
<text text-anchor="middle" x="149" y="-14.3" font-family="Times,serif" font-size="14.00">linux&#45;api&#45;headers</text>
</g>
<!-- linux&#45;api&#45;headers&gt;=4.10&#45;&gt;linux&#45;api&#45;headers -->
<g id="edge10" class="edge">
<title>linux&#45;api&#45;headers&gt;=4.10&#45;&gt;linux&#45;api&#45;headers</title>
<path fill="none" stroke="grey" d="M149,-71.7C149,-60.85 149,-46.92 149,-36.1"/>
</g>
<!-- iana&#45;etc -->
<g id="node14" class="node">
<title>iana&#45;etc</title>
<ellipse fill="green" stroke="green" cx="394" cy="-18" rx="38.19" ry="18"/>
<text text-anchor="middle" x="394" y="-14.3" font-family="Times,serif" font-size="14.00">iana&#45;etc</text>
</g>
<!-- filesystem&#45;&gt;iana&#45;etc -->
<g id="edge13" class="edge">
<title>filesystem&#45;&gt;iana&#45;etc</title>
<path fill="none" stroke="#8b4513" d="M394,-71.7C394,-63.98 394,-54.71 394,-46.11"/>
<polygon fill="#8b4513" stroke="#8b4513" points="397.5,-46.1 394,-36.1 390.5,-46.1 397.5,-46.1"/>
</g>
<!-- ncurses&#45;&gt;glibc -->
<g id="edge15" class="edge">
<title>ncurses&#45;&gt;glibc</title>
<path fill="none" stroke="#8b4513" d="M215.51,-359.82C211.89,-329 208.09,-263.16 233,-216 240.77,-201.28 254.54,-189.07 267.32,-180.09"/>
<polygon fill="#8b4513" stroke="#8b4513" points="269.51,-182.83 275.92,-174.39 265.65,-176.99 269.51,-182.83"/>
</g>
<!-- gcc&#45;libs -->
<g id="node16" class="node">
<title>gcc&#45;libs</title>
<ellipse fill="green" stroke="green" cx="297" cy="-306" rx="38.19" ry="18"/>
<text text-anchor="middle" x="297" y="-302.3" font-family="Times,serif" font-size="14.00">gcc&#45;libs</text>
</g>
<!-- ncurses&#45;&gt;gcc&#45;libs -->
<g id="edge16" class="edge">
<title>ncurses&#45;&gt;gcc&#45;libs</title>
<path fill="none" stroke="#8b4513" d="M235.14,-361.81C246.01,-352.18 260.25,-339.56 272.33,-328.86"/>
<polygon fill="#8b4513" stroke="#8b4513" points="274.73,-331.41 279.89,-322.16 270.09,-326.17 274.73,-331.41"/>
</g>
<!-- glibc&gt;=2.27 -->
<g id="node17" class="node">
<title>glibc&gt;=2.27</title>
<ellipse fill="green" stroke="green" cx="297" cy="-234" rx="54.69" ry="18"/>
<text text-anchor="middle" x="297" y="-230.3" font-family="Times,serif" font-size="14.00">glibc&gt;=2.27</text>
</g>
<!-- gcc&#45;libs&#45;&gt;glibc&gt;=2.27 -->
<g id="edge17" class="edge">
<title>gcc&#45;libs&#45;&gt;glibc&gt;=2.27</title>
<path fill="none" stroke="#8b4513" d="M297,-287.7C297,-279.98 297,-270.71 297,-262.11"/>
<polygon fill="#8b4513" stroke="#8b4513" points="300.5,-262.1 297,-252.1 293.5,-262.1 300.5,-262.1"/>
</g>
<!-- glibc&gt;=2.27&#45;&gt;glibc -->
<g id="edge18" class="edge">
<title>glibc&gt;=2.27&#45;&gt;glibc</title>
<path fill="none" stroke="grey" d="M297,-215.7C297,-204.85 297,-190.92 297,-180.1"/>
</g>
<!-- libncursesw.so=6&#45;64&#45;&gt;ncurses -->
<g id="edge20" class="edge">
<title>libncursesw.so=6&#45;64&#45;&gt;ncurses</title>
<path fill="none" stroke="grey" d="M224.02,-431.7C222.78,-420.85 221.19,-406.92 219.95,-396.1"/>
</g>
<!-- libldap&#45;&gt;e2fsprogs -->
<g id="edge38" class="edge">
<title>libldap&#45;&gt;e2fsprogs</title>
<path fill="none" stroke="#8b4513" d="M270.02,-1153.46C262.01,-1144.57 251.78,-1133.21 242.75,-1123.16"/>
<polygon fill="#8b4513" stroke="#8b4513" points="245.11,-1120.56 235.82,-1115.47 239.91,-1125.24 245.11,-1120.56"/>
</g>
<!-- libsasl -->
<g id="node21" class="node">
<title>libsasl</title>
<ellipse fill="green" stroke="green" cx="317" cy="-1098" rx="33.29" ry="18"/>
<text text-anchor="middle" x="317" y="-1094.3" font-family="Times,serif" font-size="14.00">libsasl</text>
</g>
<!-- libldap&#45;&gt;libsasl -->
<g id="edge25" class="edge">
<title>libldap&#45;&gt;libsasl</title>
<path fill="none" stroke="#8b4513" d="M291.82,-1152.41C295.67,-1144.25 300.4,-1134.22 304.71,-1125.07"/>
<polygon fill="#8b4513" stroke="#8b4513" points="307.91,-1126.49 309.01,-1115.96 301.58,-1123.51 307.91,-1126.49"/>
</g>
<!-- libsasl&#45;&gt;openssl -->
<g id="edge26" class="edge">
<title>libsasl&#45;&gt;openssl</title>
<path fill="none" stroke="#8b4513" d="M333.06,-1081.81C343.07,-1072.34 356.14,-1059.97 367.33,-1049.39"/>
<polygon fill="#8b4513" stroke="#8b4513" points="369.86,-1051.82 374.72,-1042.4 365.05,-1046.73 369.86,-1051.82"/>
</g>
<!-- perl -->
<g id="node23" class="node">
<title>perl</title>
<ellipse fill="green" stroke="green" cx="416" cy="-954" rx="27" ry="18"/>
<text text-anchor="middle" x="416" y="-950.3" font-family="Times,serif" font-size="14.00">perl</text>
</g>
<!-- openssl&#45;&gt;perl -->
<g id="edge27" class="edge">
<title>openssl&#45;&gt;perl</title>
<path fill="none" stroke="#8b4513" d="M397.05,-1008.05C399.91,-1000.06 403.38,-990.33 406.57,-981.4"/>
<polygon fill="#8b4513" stroke="#8b4513" points="409.94,-982.38 410,-971.79 403.34,-980.03 409.94,-982.38"/>
</g>
<!-- perl&#45;&gt;glibc -->
<g id="edge37" class="edge">
<title>perl&#45;&gt;glibc</title>
<path fill="none" stroke="#8b4513" d="M438.55,-943.89C456.88,-935.3 481.93,-920.65 496,-900 518.77,-866.57 515,-851.45 515,-811 515,-811 515,-811 515,-305 515,-219.86 396.8,-183.11 334.47,-169.65"/>
<polygon fill="#8b4513" stroke="#8b4513" points="335.11,-166.21 324.61,-167.62 333.7,-173.07 335.11,-166.21"/>
</g>
<!-- gdbm&gt;=1.17 -->
<g id="node24" class="node">
<title>gdbm&gt;=1.17</title>
<ellipse fill="green" stroke="green" cx="429" cy="-882" rx="57.69" ry="18"/>
<text text-anchor="middle" x="429" y="-878.3" font-family="Times,serif" font-size="14.00">gdbm&gt;=1.17</text>
</g>
<!-- perl&#45;&gt;gdbm&gt;=1.17 -->
<g id="edge28" class="edge">
<title>perl&#45;&gt;gdbm&gt;=1.17</title>
<path fill="none" stroke="#8b4513" d="M419.15,-936.05C420.58,-928.35 422.31,-919.03 423.92,-910.36"/>
<polygon fill="#8b4513" stroke="#8b4513" points="427.41,-910.75 425.79,-900.28 420.52,-909.47 427.41,-910.75"/>
</g>
<!-- db -->
<g id="node26" class="node">
<title>db</title>
<ellipse fill="green" stroke="green" cx="357" cy="-810" rx="27" ry="18"/>
<text text-anchor="middle" x="357" y="-806.3" font-family="Times,serif" font-size="14.00">db</text>
</g>
<!-- perl&#45;&gt;db -->
<g id="edge33" class="edge">
<title>perl&#45;&gt;db</title>
<path fill="none" stroke="#8b4513" d="M397.73,-940.74C385.25,-931.24 369.64,-916.87 362,-900 353.19,-880.56 352.42,-856.23 353.59,-837.92"/>
<polygon fill="#8b4513" stroke="#8b4513" points="357.08,-838.19 354.45,-827.93 350.1,-837.59 357.08,-838.19"/>
</g>
<!-- gdbm -->
<g id="node25" class="node">
<title>gdbm</title>
<ellipse fill="green" stroke="green" cx="433" cy="-810" rx="31.4" ry="18"/>
<text text-anchor="middle" x="433" y="-806.3" font-family="Times,serif" font-size="14.00">gdbm</text>
</g>
<!-- gdbm&gt;=1.17&#45;&gt;gdbm -->
<g id="edge29" class="edge">
<title>gdbm&gt;=1.17&#45;&gt;gdbm</title>
<path fill="none" stroke="grey" d="M429.99,-863.7C430.61,-852.85 431.4,-838.92 432.02,-828.1"/>
</g>
<!-- gdbm&#45;&gt;sh -->
<g id="edge31" class="edge">
<title>gdbm&#45;&gt;sh</title>
<path fill="none" stroke="#8b4513" d="M414.23,-795.17C399.81,-784.55 379.74,-769.76 363.81,-758.02"/>
<polygon fill="#8b4513" stroke="#8b4513" points="365.58,-754.97 355.45,-751.86 361.42,-760.61 365.58,-754.97"/>
</g>
<!-- gdbm&#45;&gt;glibc -->
<g id="edge30" class="edge">
<title>gdbm&#45;&gt;glibc</title>
<path fill="none" stroke="#8b4513" d="M436.75,-792.05C442.29,-765.52 452,-712.52 452,-667 452,-667 452,-667 452,-305 452,-239.41 375.61,-195.93 330.09,-175.84"/>
<polygon fill="#8b4513" stroke="#8b4513" points="331.45,-172.62 320.88,-171.91 328.7,-179.05 331.45,-172.62"/>
</g>
<!-- db&#45;&gt;sh -->
<g id="edge35" class="edge">
<title>db&#45;&gt;sh</title>
<path fill="none" stroke="#8b4513" d="M352.4,-792.05C350.25,-784.14 347.65,-774.54 345.24,-765.69"/>
<polygon fill="#8b4513" stroke="#8b4513" points="348.55,-764.52 342.56,-755.79 341.8,-766.36 348.55,-764.52"/>
</g>
<!-- db&#45;&gt;gcc&#45;libs -->
<g id="edge34" class="edge">
<title>db&#45;&gt;gcc&#45;libs</title>
<path fill="none" stroke="#8b4513" d="M367.99,-793.22C384.55,-767.85 414,-715.88 414,-667 414,-667 414,-667 414,-521 414,-443.45 354.12,-367.33 320.03,-330.29"/>
<polygon fill="#8b4513" stroke="#8b4513" points="322.18,-327.46 312.78,-322.57 317.08,-332.25 322.18,-327.46"/>
</g>
<!-- keyutils&#45;&gt;sh -->
<g id="edge41" class="edge">
<title>keyutils&#45;&gt;sh</title>
<path fill="none" stroke="#8b4513" d="M171.77,-798.37C207.6,-785.57 267.57,-764.15 304.85,-750.84"/>
<polygon fill="#8b4513" stroke="#8b4513" points="306.48,-753.97 314.72,-747.31 304.12,-747.38 306.48,-753.97"/>
</g>
<!-- keyutils&#45;&gt;glibc -->
<g id="edge40" class="edge">
<title>keyutils&#45;&gt;glibc</title>
<path fill="none" stroke="#8b4513" d="M136.47,-792.16C128.31,-765.79 114,-712.98 114,-667 114,-667 114,-667 114,-593 114,-485.24 0,-486.76 0,-379 0,-379 0,-379 0,-305 0,-259.19 14.92,-242.9 52,-216 113.96,-171.06 206.43,-162.85 258.24,-162.12"/>
<polygon fill="#8b4513" stroke="#8b4513" points="258.36,-165.62 268.34,-162.06 258.32,-158.62 258.36,-165.62"/>
</g>
<!-- libedit&#45;&gt;ncurses -->
<g id="edge45" class="edge">
<title>libedit&#45;&gt;ncurses</title>
<path fill="none" stroke="#8b4513" d="M77.6,-935.95C77.02,-909.29 76,-856.12 76,-811 76,-811 76,-811 76,-521 76,-476.06 92.52,-464.08 124,-432 139.94,-415.76 161.92,-403 180.62,-394.07"/>
<polygon fill="#8b4513" stroke="#8b4513" points="182.13,-397.22 189.77,-389.87 179.22,-390.86 182.13,-397.22"/>
</g>
<!-- ldns&#45;&gt;openssl -->
<g id="edge47" class="edge">
<title>ldns&#45;&gt;openssl</title>
<path fill="none" stroke="#8b4513" d="M429.63,-1223.85C422.34,-1186.66 405.01,-1098.37 396.25,-1053.77"/>
<polygon fill="#8b4513" stroke="#8b4513" points="399.68,-1053.07 394.32,-1043.94 392.82,-1054.42 399.68,-1053.07"/>
</g>
<!-- dnssec&#45;anchors -->
<g id="node30" class="node">
<title>dnssec&#45;anchors</title>
<ellipse fill="green" stroke="green" cx="508" cy="-1170" rx="64.19" ry="18"/>
<text text-anchor="middle" x="508" y="-1166.3" font-family="Times,serif" font-size="14.00">dnssec&#45;anchors</text>
</g>
<!-- ldns&#45;&gt;dnssec&#45;anchors -->
<g id="edge48" class="edge">
<title>ldns&#45;&gt;dnssec&#45;anchors</title>
<path fill="none" stroke="#8b4513" d="M448.18,-1226.83C458.12,-1217.55 471.36,-1205.19 482.86,-1194.46"/>
<polygon fill="#8b4513" stroke="#8b4513" points="485.56,-1196.74 490.48,-1187.35 480.78,-1191.62 485.56,-1196.74"/>
</g>
</g>
</svg>
