<?xml version="1.0" encoding="UTF-8" standalone="no"?>
<!DOCTYPE svg PUBLIC "-//W3C//DTD SVG 1.1//EN"
 "http://www.w3.org/Graphics/SVG/1.1/DTD/svg11.dtd">
<!-- Generated by graphviz version 2.44.0 (0)
 -->
<!-- Title: G Pages: 1 -->
<svg width="1007pt" height="1268pt"
 viewBox="0.00 0.00 1007.14 1268.00" xmlns="http://www.w3.org/2000/svg" xmlns:xlink="http://www.w3.org/1999/xlink">
<g id="graph0" class="graph" transform="scale(1 1) rotate(0) translate(4 1264)">
<title>G</title>
<polygon fill="white" stroke="transparent" points="-4,4 -4,-1264 1003.14,-1264 1003.14,4 -4,4"/>
<!-- START -->
<g id="node1" class="node">
<title>START</title>
<ellipse fill="red" stroke="red" cx="378.14" cy="-1242" rx="38.19" ry="18"/>
<text text-anchor="middle" x="378.14" y="-1238.3" font-family="Times,serif" font-size="14.00">START</text>
</g>
<!-- p11&#45;kit -->
<g id="node2" class="node">
<title>p11&#45;kit</title>
<ellipse fill="green" stroke="green" cx="378.14" cy="-1170" rx="36.29" ry="18"/>
<text text-anchor="middle" x="378.14" y="-1166.3" font-family="Times,serif" font-size="14.00">p11&#45;kit</text>
</g>
<!-- START&#45;&gt;p11&#45;kit -->
<g id="edge1" class="edge">
<title>START&#45;&gt;p11&#45;kit</title>
<path fill="none" stroke="black" d="M378.14,-1223.7C378.14,-1215.98 378.14,-1206.71 378.14,-1198.11"/>
<polygon fill="black" stroke="black" points="381.64,-1198.1 378.14,-1188.1 374.64,-1198.1 381.64,-1198.1"/>
</g>
<!-- libp11&#45;kit=0.23.20&#45;5 -->
<g id="node3" class="node">
<title>libp11&#45;kit=0.23.20&#45;5</title>
<ellipse fill="green" stroke="green" cx="85.14" cy="-1026" rx="85.29" ry="18"/>
<text text-anchor="middle" x="85.14" y="-1022.3" font-family="Times,serif" font-size="14.00">libp11&#45;kit=0.23.20&#45;5</text>
</g>
<!-- p11&#45;kit&#45;&gt;libp11&#45;kit=0.23.20&#45;5 -->
<g id="edge2" class="edge">
<title>p11&#45;kit&#45;&gt;libp11&#45;kit=0.23.20&#45;5</title>
<path fill="none" stroke="#8b4513" d="M345.73,-1161.63C311.64,-1153.18 256.97,-1137.67 213.14,-1116 176.3,-1097.79 138.14,-1069.87 113.17,-1050.17"/>
<polygon fill="#8b4513" stroke="#8b4513" points="115.23,-1047.33 105.24,-1043.83 110.87,-1052.8 115.23,-1047.33"/>
</g>
<!-- coreutils -->
<g id="node13" class="node">
<title>coreutils</title>
<ellipse fill="green" stroke="green" cx="551.14" cy="-1098" rx="40.89" ry="18"/>
<text text-anchor="middle" x="551.14" y="-1094.3" font-family="Times,serif" font-size="14.00">coreutils</text>
</g>
<!-- p11&#45;kit&#45;&gt;coreutils -->
<g id="edge14" class="edge">
<title>p11&#45;kit&#45;&gt;coreutils</title>
<path fill="none" stroke="#8b4513" d="M405.55,-1157.91C434.39,-1146.24 480.02,-1127.78 512.5,-1114.64"/>
<polygon fill="#8b4513" stroke="#8b4513" points="514.17,-1117.74 522.13,-1110.74 511.54,-1111.25 514.17,-1117.74"/>
</g>
<!-- libp11&#45;kit.so=0&#45;64 -->
<g id="node31" class="node">
<title>libp11&#45;kit.so=0&#45;64</title>
<ellipse fill="green" stroke="green" cx="175.14" cy="-666" rx="77.19" ry="18"/>
<text text-anchor="middle" x="175.14" y="-662.3" font-family="Times,serif" font-size="14.00">libp11&#45;kit.so=0&#45;64</text>
</g>
<!-- p11&#45;kit&#45;&gt;libp11&#45;kit.so=0&#45;64 -->
<g id="edge51" class="edge">
<title>p11&#45;kit&#45;&gt;libp11&#45;kit.so=0&#45;64</title>
<path fill="none" stroke="#8b4513" d="M350.45,-1157.97C306.85,-1138.57 227.14,-1093.93 227.14,-1027 227.14,-1027 227.14,-1027 227.14,-809 227.14,-766.49 206.34,-720.95 191.05,-693.22"/>
<polygon fill="#8b4513" stroke="#8b4513" points="193.9,-691.15 185.92,-684.19 187.82,-694.61 193.9,-691.15"/>
</g>
<!-- libsystemd.so=0&#45;64 -->
<g id="node32" class="node">
<title>libsystemd.so=0&#45;64</title>
<ellipse fill="green" stroke="green" cx="786.14" cy="-1098" rx="81.49" ry="18"/>
<text text-anchor="middle" x="786.14" y="-1094.3" font-family="Times,serif" font-size="14.00">libsystemd.so=0&#45;64</text>
</g>
<!-- p11&#45;kit&#45;&gt;libsystemd.so=0&#45;64 -->
<g id="edge53" class="edge">
<title>p11&#45;kit&#45;&gt;libsystemd.so=0&#45;64</title>
<path fill="none" stroke="#8b4513" d="M411.88,-1163.21C477.78,-1151.9 624.95,-1126.66 713.84,-1111.4"/>
<polygon fill="#8b4513" stroke="#8b4513" points="714.59,-1114.83 723.85,-1109.69 713.4,-1107.93 714.59,-1114.83"/>
</g>
<!-- libp11&#45;kit -->
<g id="node4" class="node">
<title>libp11&#45;kit</title>
<ellipse fill="green" stroke="green" cx="140.14" cy="-306" rx="46.29" ry="18"/>
<text text-anchor="middle" x="140.14" y="-302.3" font-family="Times,serif" font-size="14.00">libp11&#45;kit</text>
</g>
<!-- libp11&#45;kit=0.23.20&#45;5&#45;&gt;libp11&#45;kit -->
<g id="edge3" class="edge">
<title>libp11&#45;kit=0.23.20&#45;5&#45;&gt;libp11&#45;kit</title>
<path fill="none" stroke="grey" d="M82.11,-1007.57C77.72,-980.86 70.14,-928.12 70.14,-883 70.14,-883 70.14,-883 70.14,-449 70.14,-398.98 105.52,-348.31 125.98,-323.2"/>
</g>
<!-- glibc -->
<g id="node5" class="node">
<title>glibc</title>
<ellipse fill="green" stroke="green" cx="567.14" cy="-162" rx="28.7" ry="18"/>
<text text-anchor="middle" x="567.14" y="-158.3" font-family="Times,serif" font-size="14.00">glibc</text>
</g>
<!-- libp11&#45;kit&#45;&gt;glibc -->
<g id="edge4" class="edge">
<title>libp11&#45;kit&#45;&gt;glibc</title>
<path fill="none" stroke="#8b4513" d="M121.45,-289.45C100.89,-270.5 73.22,-238.27 93.14,-216 122.02,-183.71 420.46,-168.79 528.43,-164.42"/>
<polygon fill="#8b4513" stroke="#8b4513" points="528.71,-167.92 538.57,-164.02 528.44,-160.92 528.71,-167.92"/>
</g>
<!-- libtasn1 -->
<g id="node11" class="node">
<title>libtasn1</title>
<ellipse fill="green" stroke="green" cx="140.14" cy="-234" rx="38.19" ry="18"/>
<text text-anchor="middle" x="140.14" y="-230.3" font-family="Times,serif" font-size="14.00">libtasn1</text>
</g>
<!-- libp11&#45;kit&#45;&gt;libtasn1 -->
<g id="edge10" class="edge">
<title>libp11&#45;kit&#45;&gt;libtasn1</title>
<path fill="none" stroke="#8b4513" d="M140.14,-287.7C140.14,-279.98 140.14,-270.71 140.14,-262.11"/>
<polygon fill="#8b4513" stroke="#8b4513" points="143.64,-262.1 140.14,-252.1 136.64,-262.1 143.64,-262.1"/>
</g>
<!-- libffi -->
<g id="node12" class="node">
<title>libffi</title>
<ellipse fill="green" stroke="green" cx="224.14" cy="-234" rx="27.9" ry="18"/>
<text text-anchor="middle" x="224.14" y="-230.3" font-family="Times,serif" font-size="14.00">libffi</text>
</g>
<!-- libp11&#45;kit&#45;&gt;libffi -->
<g id="edge12" class="edge">
<title>libp11&#45;kit&#45;&gt;libffi</title>
<path fill="none" stroke="#8b4513" d="M158.78,-289.46C170.87,-279.39 186.75,-266.16 199.82,-255.27"/>
<polygon fill="#8b4513" stroke="#8b4513" points="202.1,-257.92 207.54,-248.83 197.62,-252.55 202.1,-257.92"/>
</g>
<!-- linux&#45;api&#45;headers&gt;=4.10 -->
<g id="node6" class="node">
<title>linux&#45;api&#45;headers&gt;=4.10</title>
<ellipse fill="green" stroke="green" cx="419.14" cy="-90" rx="98.28" ry="18"/>
<text text-anchor="middle" x="419.14" y="-86.3" font-family="Times,serif" font-size="14.00">linux&#45;api&#45;headers&gt;=4.10</text>
</g>
<!-- glibc&#45;&gt;linux&#45;api&#45;headers&gt;=4.10 -->
<g id="edge5" class="edge">
<title>glibc&#45;&gt;linux&#45;api&#45;headers&gt;=4.10</title>
<path fill="none" stroke="#8b4513" d="M544.99,-150.52C523.2,-140.22 489.37,-124.22 462.27,-111.4"/>
<polygon fill="#8b4513" stroke="#8b4513" points="463.53,-108.12 453,-107.01 460.54,-114.45 463.53,-108.12"/>
</g>
<!-- tzdata -->
<g id="node8" class="node">
<title>tzdata</title>
<ellipse fill="green" stroke="green" cx="567.14" cy="-90" rx="31.7" ry="18"/>
<text text-anchor="middle" x="567.14" y="-86.3" font-family="Times,serif" font-size="14.00">tzdata</text>
</g>
<!-- glibc&#45;&gt;tzdata -->
<g id="edge7" class="edge">
<title>glibc&#45;&gt;tzdata</title>
<path fill="none" stroke="#8b4513" d="M567.14,-143.7C567.14,-135.98 567.14,-126.71 567.14,-118.11"/>
<polygon fill="#8b4513" stroke="#8b4513" points="570.64,-118.1 567.14,-108.1 563.64,-118.1 570.64,-118.1"/>
</g>
<!-- filesystem -->
<g id="node9" class="node">
<title>filesystem</title>
<ellipse fill="green" stroke="green" cx="664.14" cy="-90" rx="46.59" ry="18"/>
<text text-anchor="middle" x="664.14" y="-86.3" font-family="Times,serif" font-size="14.00">filesystem</text>
</g>
<!-- glibc&#45;&gt;filesystem -->
<g id="edge8" class="edge">
<title>glibc&#45;&gt;filesystem</title>
<path fill="none" stroke="#8b4513" d="M585.39,-147.83C599.19,-137.88 618.43,-123.99 634.43,-112.44"/>
<polygon fill="#8b4513" stroke="#8b4513" points="636.88,-114.99 642.94,-106.3 632.78,-109.31 636.88,-114.99"/>
</g>
<!-- linux&#45;api&#45;headers -->
<g id="node7" class="node">
<title>linux&#45;api&#45;headers</title>
<ellipse fill="green" stroke="green" cx="419.14" cy="-18" rx="71.49" ry="18"/>
<text text-anchor="middle" x="419.14" y="-14.3" font-family="Times,serif" font-size="14.00">linux&#45;api&#45;headers</text>
</g>
<!-- linux&#45;api&#45;headers&gt;=4.10&#45;&gt;linux&#45;api&#45;headers -->
<g id="edge6" class="edge">
<title>linux&#45;api&#45;headers&gt;=4.10&#45;&gt;linux&#45;api&#45;headers</title>
<path fill="none" stroke="grey" d="M419.14,-71.7C419.14,-60.85 419.14,-46.92 419.14,-36.1"/>
</g>
<!-- iana&#45;etc -->
<g id="node10" class="node">
<title>iana&#45;etc</title>
<ellipse fill="green" stroke="green" cx="664.14" cy="-18" rx="38.19" ry="18"/>
<text text-anchor="middle" x="664.14" y="-14.3" font-family="Times,serif" font-size="14.00">iana&#45;etc</text>
</g>
<!-- filesystem&#45;&gt;iana&#45;etc -->
<g id="edge9" class="edge">
<title>filesystem&#45;&gt;iana&#45;etc</title>
<path fill="none" stroke="#8b4513" d="M664.14,-71.7C664.14,-63.98 664.14,-54.71 664.14,-46.11"/>
<polygon fill="#8b4513" stroke="#8b4513" points="667.64,-46.1 664.14,-36.1 660.64,-46.1 667.64,-46.1"/>
</g>
<!-- libtasn1&#45;&gt;glibc -->
<g id="edge11" class="edge">
<title>libtasn1&#45;&gt;glibc</title>
<path fill="none" stroke="#8b4513" d="M168.68,-221.61C174.71,-219.5 181.08,-217.5 187.14,-216 309.83,-185.61 459.43,-171.15 528.63,-165.7"/>
<polygon fill="#8b4513" stroke="#8b4513" points="528.93,-169.19 538.63,-164.94 528.39,-162.21 528.93,-169.19"/>
</g>
<!-- libffi&#45;&gt;glibc -->
<g id="edge13" class="edge">
<title>libffi&#45;&gt;glibc</title>
<path fill="none" stroke="#8b4513" d="M246.5,-222.94C252.77,-220.4 259.64,-217.87 266.14,-216 358.57,-189.48 470.97,-173.95 528.76,-167.14"/>
<polygon fill="#8b4513" stroke="#8b4513" points="529.36,-170.59 538.89,-165.96 528.56,-163.64 529.36,-170.59"/>
</g>
<!-- coreutils&#45;&gt;glibc -->
<g id="edge15" class="edge">
<title>coreutils&#45;&gt;glibc</title>
<path fill="none" stroke="#8b4513" d="M510.86,-1094.15C435.37,-1086.39 280.14,-1057.91 280.14,-955 280.14,-955 280.14,-955 280.14,-305 280.14,-261.07 288.64,-243.19 323.14,-216 354.7,-191.13 468.49,-174.49 528.88,-167.2"/>
<polygon fill="#8b4513" stroke="#8b4513" points="529.63,-170.63 539.15,-165.99 528.81,-163.68 529.63,-170.63"/>
</g>
<!-- acl -->
<g id="node14" class="node">
<title>acl</title>
<ellipse fill="green" stroke="green" cx="781.14" cy="-954" rx="27" ry="18"/>
<text text-anchor="middle" x="781.14" y="-950.3" font-family="Times,serif" font-size="14.00">acl</text>
</g>
<!-- coreutils&#45;&gt;acl -->
<g id="edge16" class="edge">
<title>coreutils&#45;&gt;acl</title>
<path fill="none" stroke="#8b4513" d="M591.89,-1095.3C633.61,-1091.54 698.14,-1079.83 740.14,-1044 758.88,-1028.02 769.54,-1001.65 775.26,-981.75"/>
<polygon fill="#8b4513" stroke="#8b4513" points="778.66,-982.59 777.82,-972.03 771.89,-980.81 778.66,-982.59"/>
</g>
<!-- attr -->
<g id="node15" class="node">
<title>attr</title>
<ellipse fill="green" stroke="green" cx="780.14" cy="-810" rx="27" ry="18"/>
<text text-anchor="middle" x="780.14" y="-806.3" font-family="Times,serif" font-size="14.00">attr</text>
</g>
<!-- coreutils&#45;&gt;attr -->
<g id="edge19" class="edge">
<title>coreutils&#45;&gt;attr</title>
<path fill="none" stroke="#8b4513" d="M569.33,-1081.68C581.12,-1071.45 596.56,-1057.45 609.14,-1044 665.1,-984.19 676.7,-966.77 724.14,-900 739.09,-878.96 754.6,-854.02 765.5,-835.9"/>
<polygon fill="#8b4513" stroke="#8b4513" points="768.63,-837.49 770.75,-827.11 762.62,-833.9 768.63,-837.49"/>
</g>
<!-- gmp -->
<g id="node16" class="node">
<title>gmp</title>
<ellipse fill="green" stroke="green" cx="551.14" cy="-810" rx="27" ry="18"/>
<text text-anchor="middle" x="551.14" y="-806.3" font-family="Times,serif" font-size="14.00">gmp</text>
</g>
<!-- coreutils&#45;&gt;gmp -->
<g id="edge20" class="edge">
<title>coreutils&#45;&gt;gmp</title>
<path fill="none" stroke="#8b4513" d="M551.14,-1079.97C551.14,-1032.29 551.14,-897.18 551.14,-838.63"/>
<polygon fill="#8b4513" stroke="#8b4513" points="554.64,-838.31 551.14,-828.31 547.64,-838.31 554.64,-838.31"/>
</g>
<!-- libcap -->
<g id="node25" class="node">
<title>libcap</title>
<ellipse fill="green" stroke="green" cx="683.14" cy="-882" rx="32.49" ry="18"/>
<text text-anchor="middle" x="683.14" y="-878.3" font-family="Times,serif" font-size="14.00">libcap</text>
</g>
<!-- coreutils&#45;&gt;libcap -->
<g id="edge36" class="edge">
<title>coreutils&#45;&gt;libcap</title>
<path fill="none" stroke="#8b4513" d="M561.5,-1080.21C584.59,-1042.77 640.41,-952.28 667.66,-908.11"/>
<polygon fill="#8b4513" stroke="#8b4513" points="670.74,-909.77 673.01,-899.42 664.79,-906.09 670.74,-909.77"/>
</g>
<!-- openssl -->
<g id="node26" class="node">
<title>openssl</title>
<ellipse fill="green" stroke="green" cx="465.14" cy="-1026" rx="37.09" ry="18"/>
<text text-anchor="middle" x="465.14" y="-1022.3" font-family="Times,serif" font-size="14.00">openssl</text>
</g>
<!-- coreutils&#45;&gt;openssl -->
<g id="edge39" class="edge">
<title>coreutils&#45;&gt;openssl</title>
<path fill="none" stroke="#8b4513" d="M532.48,-1081.81C520.45,-1072.02 504.64,-1059.15 491.36,-1048.34"/>
<polygon fill="#8b4513" stroke="#8b4513" points="493.44,-1045.52 483.47,-1041.92 489.02,-1050.95 493.44,-1045.52"/>
</g>
<!-- acl&#45;&gt;attr -->
<g id="edge17" class="edge">
<title>acl&#45;&gt;attr</title>
<path fill="none" stroke="#8b4513" d="M781.02,-935.87C780.85,-911.67 780.54,-867.21 780.34,-838.39"/>
<polygon fill="#8b4513" stroke="#8b4513" points="783.83,-838.16 780.26,-828.19 776.83,-838.21 783.83,-838.16"/>
</g>
<!-- attr&#45;&gt;glibc -->
<g id="edge18" class="edge">
<title>attr&#45;&gt;glibc</title>
<path fill="none" stroke="#8b4513" d="M792.56,-793.9C811.68,-769.05 846.14,-717.29 846.14,-667 846.14,-667 846.14,-667 846.14,-305 846.14,-264.03 851.95,-244.11 822.14,-216 791.29,-186.91 668.77,-171.99 605.46,-166.1"/>
<polygon fill="#8b4513" stroke="#8b4513" points="605.74,-162.61 595.46,-165.2 605.11,-169.58 605.74,-162.61"/>
</g>
<!-- gcc&#45;libs -->
<g id="node17" class="node">
<title>gcc&#45;libs</title>
<ellipse fill="green" stroke="green" cx="443.14" cy="-306" rx="38.19" ry="18"/>
<text text-anchor="middle" x="443.14" y="-302.3" font-family="Times,serif" font-size="14.00">gcc&#45;libs</text>
</g>
<!-- gmp&#45;&gt;gcc&#45;libs -->
<g id="edge21" class="edge">
<title>gmp&#45;&gt;gcc&#45;libs</title>
<path fill="none" stroke="#8b4513" d="M531.22,-797.57C497.35,-776.48 432.14,-727.95 432.14,-667 432.14,-667 432.14,-667 432.14,-449 432.14,-408.88 436.56,-362.57 439.8,-334.03"/>
<polygon fill="#8b4513" stroke="#8b4513" points="443.28,-334.36 440.97,-324.02 436.33,-333.54 443.28,-334.36"/>
</g>
<!-- sh -->
<g id="node19" class="node">
<title>sh</title>
<ellipse fill="green" stroke="green" cx="602.14" cy="-738" rx="27" ry="18"/>
<text text-anchor="middle" x="602.14" y="-734.3" font-family="Times,serif" font-size="14.00">sh</text>
</g>
<!-- gmp&#45;&gt;sh -->
<g id="edge24" class="edge">
<title>gmp&#45;&gt;sh</title>
<path fill="none" stroke="#8b4513" d="M562.46,-793.46C569.06,-784.4 577.53,-772.79 584.94,-762.61"/>
<polygon fill="#8b4513" stroke="#8b4513" points="587.8,-764.64 590.86,-754.49 582.14,-760.51 587.8,-764.64"/>
</g>
<!-- glibc&gt;=2.27 -->
<g id="node18" class="node">
<title>glibc&gt;=2.27</title>
<ellipse fill="green" stroke="green" cx="454.14" cy="-234" rx="54.69" ry="18"/>
<text text-anchor="middle" x="454.14" y="-230.3" font-family="Times,serif" font-size="14.00">glibc&gt;=2.27</text>
</g>
<!-- gcc&#45;libs&#45;&gt;glibc&gt;=2.27 -->
<g id="edge22" class="edge">
<title>gcc&#45;libs&#45;&gt;glibc&gt;=2.27</title>
<path fill="none" stroke="#8b4513" d="M445.86,-287.7C447.07,-279.98 448.53,-270.71 449.88,-262.11"/>
<polygon fill="#8b4513" stroke="#8b4513" points="453.36,-262.53 451.45,-252.1 446.44,-261.44 453.36,-262.53"/>
</g>
<!-- glibc&gt;=2.27&#45;&gt;glibc -->
<g id="edge23" class="edge">
<title>glibc&gt;=2.27&#45;&gt;glibc</title>
<path fill="none" stroke="grey" d="M478.66,-217.81C499.3,-205.02 528.44,-186.98 547.55,-175.14"/>
</g>
<!-- bash -->
<g id="node20" class="node">
<title>bash</title>
<ellipse fill="green" stroke="green" cx="602.14" cy="-666" rx="27" ry="18"/>
<text text-anchor="middle" x="602.14" y="-662.3" font-family="Times,serif" font-size="14.00">bash</text>
</g>
<!-- sh&#45;&gt;bash -->
<g id="edge25" class="edge">
<title>sh&#45;&gt;bash</title>
<path fill="none" stroke="grey" d="M581.89,-726.06C572.93,-712.99 572.89,-691.23 581.79,-678.09"/>
</g>
<!-- sh&#45;&gt;bash -->
<g id="edge45" class="edge">
<title>sh&#45;&gt;bash</title>
<path fill="none" stroke="grey" d="M590.7,-721.46C587.95,-709.86 587.96,-694.08 590.71,-682.49"/>
</g>
<!-- sh&#45;&gt;bash -->
<g id="edge49" class="edge">
<title>sh&#45;&gt;bash</title>
<path fill="none" stroke="grey" d="M602.14,-719.7C602.14,-708.85 602.14,-694.92 602.14,-684.1"/>
</g>
<!-- sh&#45;&gt;bash -->
<g id="edge61" class="edge">
<title>sh&#45;&gt;bash</title>
<path fill="none" stroke="grey" d="M613.58,-721.46C616.33,-709.86 616.33,-694.08 613.57,-682.49"/>
</g>
<!-- sh&#45;&gt;bash -->
<g id="edge66" class="edge">
<title>sh&#45;&gt;bash</title>
<path fill="none" stroke="grey" d="M622.39,-726.06C631.36,-712.99 631.39,-691.23 622.5,-678.09"/>
</g>
<!-- bash&#45;&gt;glibc -->
<g id="edge34" class="edge">
<title>bash&#45;&gt;glibc</title>
<path fill="none" stroke="#8b4513" d="M626.21,-657.34C672.67,-640.88 770.14,-597.47 770.14,-523 770.14,-523 770.14,-523 770.14,-305 770.14,-224.87 662.62,-186.16 604.08,-171.02"/>
<polygon fill="#8b4513" stroke="#8b4513" points="604.65,-167.56 594.1,-168.55 602.96,-174.35 604.65,-167.56"/>
</g>
<!-- readline&gt;=7.0 -->
<g id="node21" class="node">
<title>readline&gt;=7.0</title>
<ellipse fill="green" stroke="green" cx="596.14" cy="-594" rx="61.19" ry="18"/>
<text text-anchor="middle" x="596.14" y="-590.3" font-family="Times,serif" font-size="14.00">readline&gt;=7.0</text>
</g>
<!-- bash&#45;&gt;readline&gt;=7.0 -->
<g id="edge26" class="edge">
<title>bash&#45;&gt;readline&gt;=7.0</title>
<path fill="none" stroke="#8b4513" d="M600.66,-647.7C600,-639.98 599.2,-630.71 598.47,-622.11"/>
<polygon fill="#8b4513" stroke="#8b4513" points="601.95,-621.77 597.61,-612.1 594.98,-622.37 601.95,-621.77"/>
</g>
<!-- ncurses -->
<g id="node23" class="node">
<title>ncurses</title>
<ellipse fill="green" stroke="green" cx="567.14" cy="-378" rx="37.09" ry="18"/>
<text text-anchor="middle" x="567.14" y="-374.3" font-family="Times,serif" font-size="14.00">ncurses</text>
</g>
<!-- bash&#45;&gt;ncurses -->
<g id="edge35" class="edge">
<title>bash&#45;&gt;ncurses</title>
<path fill="none" stroke="#8b4513" d="M622.76,-654.07C637.65,-644.97 656.72,-630.51 666.14,-612 702.47,-540.61 717.51,-499.98 675.14,-432 661.03,-409.36 634.11,-396.11 610.68,-388.53"/>
<polygon fill="#8b4513" stroke="#8b4513" points="611.48,-385.11 600.89,-385.61 609.48,-391.82 611.48,-385.11"/>
</g>
<!-- readline -->
<g id="node22" class="node">
<title>readline</title>
<ellipse fill="green" stroke="green" cx="585.14" cy="-522" rx="38.99" ry="18"/>
<text text-anchor="middle" x="585.14" y="-518.3" font-family="Times,serif" font-size="14.00">readline</text>
</g>
<!-- readline&gt;=7.0&#45;&gt;readline -->
<g id="edge27" class="edge">
<title>readline&gt;=7.0&#45;&gt;readline</title>
<path fill="none" stroke="grey" d="M593.42,-575.7C591.72,-564.85 589.53,-550.92 587.83,-540.1"/>
</g>
<!-- readline&#45;&gt;glibc -->
<g id="edge28" class="edge">
<title>readline&#45;&gt;glibc</title>
<path fill="none" stroke="#8b4513" d="M613.14,-509.28C655.79,-489.33 732.14,-444.47 732.14,-379 732.14,-379 732.14,-379 732.14,-305 732.14,-236.58 649.63,-193.92 601.31,-174.8"/>
<polygon fill="#8b4513" stroke="#8b4513" points="602.44,-171.48 591.84,-171.18 599.94,-178.02 602.44,-171.48"/>
</g>
<!-- readline&#45;&gt;ncurses -->
<g id="edge29" class="edge">
<title>readline&#45;&gt;ncurses</title>
<path fill="none" stroke="#8b4513" d="M552.22,-512.35C530.13,-504.65 502.69,-490.95 489.14,-468 481.01,-454.22 481.66,-446.14 489.14,-432 497.92,-415.43 514.45,-403.08 530.05,-394.49"/>
<polygon fill="#8b4513" stroke="#8b4513" points="531.76,-397.54 539.05,-389.86 528.56,-391.32 531.76,-397.54"/>
</g>
<!-- libncursesw.so=6&#45;64 -->
<g id="node24" class="node">
<title>libncursesw.so=6&#45;64</title>
<ellipse fill="green" stroke="green" cx="582.14" cy="-450" rx="83.69" ry="18"/>
<text text-anchor="middle" x="582.14" y="-446.3" font-family="Times,serif" font-size="14.00">libncursesw.so=6&#45;64</text>
</g>
<!-- readline&#45;&gt;libncursesw.so=6&#45;64 -->
<g id="edge32" class="edge">
<title>readline&#45;&gt;libncursesw.so=6&#45;64</title>
<path fill="none" stroke="#8b4513" d="M584.4,-503.7C584.07,-495.98 583.67,-486.71 583.3,-478.11"/>
<polygon fill="#8b4513" stroke="#8b4513" points="586.8,-477.95 582.88,-468.1 579.81,-478.25 586.8,-477.95"/>
</g>
<!-- ncurses&#45;&gt;glibc -->
<g id="edge30" class="edge">
<title>ncurses&#45;&gt;glibc</title>
<path fill="none" stroke="#8b4513" d="M567.14,-359.85C567.14,-322.83 567.14,-235.18 567.14,-190.39"/>
<polygon fill="#8b4513" stroke="#8b4513" points="570.64,-190.23 567.14,-180.23 563.64,-190.23 570.64,-190.23"/>
</g>
<!-- ncurses&#45;&gt;gcc&#45;libs -->
<g id="edge31" class="edge">
<title>ncurses&#45;&gt;gcc&#45;libs</title>
<path fill="none" stroke="#8b4513" d="M543.82,-363.83C524.54,-352.95 496.96,-337.38 475.54,-325.29"/>
<polygon fill="#8b4513" stroke="#8b4513" points="477.21,-322.21 466.78,-320.35 473.77,-328.31 477.21,-322.21"/>
</g>
<!-- libncursesw.so=6&#45;64&#45;&gt;ncurses -->
<g id="edge33" class="edge">
<title>libncursesw.so=6&#45;64&#45;&gt;ncurses</title>
<path fill="none" stroke="grey" d="M578.43,-431.7C576.11,-420.85 573.12,-406.92 570.81,-396.1"/>
</g>
<!-- libcap&#45;&gt;glibc -->
<g id="edge37" class="edge">
<title>libcap&#45;&gt;glibc</title>
<path fill="none" stroke="#8b4513" d="M693.37,-864.58C723.23,-815.04 808.14,-661.91 808.14,-523 808.14,-523 808.14,-523 808.14,-305 808.14,-211.92 673.06,-178.62 605.16,-167.76"/>
<polygon fill="#8b4513" stroke="#8b4513" points="605.67,-164.3 595.26,-166.26 604.62,-171.22 605.67,-164.3"/>
</g>
<!-- libcap&#45;&gt;attr -->
<g id="edge38" class="edge">
<title>libcap&#45;&gt;attr</title>
<path fill="none" stroke="#8b4513" d="M702.31,-867.17C717.03,-856.55 737.52,-841.76 753.79,-830.02"/>
<polygon fill="#8b4513" stroke="#8b4513" points="756.27,-832.55 762.33,-823.86 752.17,-826.87 756.27,-832.55"/>
</g>
<!-- perl -->
<g id="node27" class="node">
<title>perl</title>
<ellipse fill="green" stroke="green" cx="424.14" cy="-954" rx="27" ry="18"/>
<text text-anchor="middle" x="424.14" y="-950.3" font-family="Times,serif" font-size="14.00">perl</text>
</g>
<!-- openssl&#45;&gt;perl -->
<g id="edge40" class="edge">
<title>openssl&#45;&gt;perl</title>
<path fill="none" stroke="#8b4513" d="M455.43,-1008.41C450.4,-999.83 444.17,-989.19 438.59,-979.67"/>
<polygon fill="#8b4513" stroke="#8b4513" points="441.58,-977.85 433.51,-970.99 435.54,-981.39 441.58,-977.85"/>
</g>
<!-- perl&#45;&gt;glibc -->
<g id="edge50" class="edge">
<title>perl&#45;&gt;glibc</title>
<path fill="none" stroke="#8b4513" d="M400.83,-944.88C380.82,-936.69 352.8,-922.07 337.14,-900 313.74,-867.01 318.14,-851.45 318.14,-811 318.14,-811 318.14,-811 318.14,-305 318.14,-261.45 325.67,-243.87 359.14,-216 407.63,-175.63 482.96,-165.48 528.42,-163.23"/>
<polygon fill="#8b4513" stroke="#8b4513" points="528.62,-166.72 538.48,-162.84 528.35,-159.73 528.62,-166.72"/>
</g>
<!-- gdbm&gt;=1.17 -->
<g id="node28" class="node">
<title>gdbm&gt;=1.17</title>
<ellipse fill="green" stroke="green" cx="404.14" cy="-882" rx="57.69" ry="18"/>
<text text-anchor="middle" x="404.14" y="-878.3" font-family="Times,serif" font-size="14.00">gdbm&gt;=1.17</text>
</g>
<!-- perl&#45;&gt;gdbm&gt;=1.17 -->
<g id="edge41" class="edge">
<title>perl&#45;&gt;gdbm&gt;=1.17</title>
<path fill="none" stroke="#8b4513" d="M419.3,-936.05C417.07,-928.26 414.38,-918.82 411.88,-910.08"/>
<polygon fill="#8b4513" stroke="#8b4513" points="415.19,-908.93 409.08,-900.28 408.46,-910.85 415.19,-908.93"/>
</g>
<!-- db -->
<g id="node30" class="node">
<title>db</title>
<ellipse fill="green" stroke="green" cx="479.14" cy="-810" rx="27" ry="18"/>
<text text-anchor="middle" x="479.14" y="-806.3" font-family="Times,serif" font-size="14.00">db</text>
</g>
<!-- perl&#45;&gt;db -->
<g id="edge46" class="edge">
<title>perl&#45;&gt;db</title>
<path fill="none" stroke="#8b4513" d="M440.61,-939.53C451.28,-929.77 464.42,-915.58 471.14,-900 479.53,-880.57 481.25,-856.56 481.03,-838.38"/>
<polygon fill="#8b4513" stroke="#8b4513" points="484.52,-838.05 480.69,-828.17 477.52,-838.28 484.52,-838.05"/>
</g>
<!-- gdbm -->
<g id="node29" class="node">
<title>gdbm</title>
<ellipse fill="green" stroke="green" cx="403.14" cy="-810" rx="31.4" ry="18"/>
<text text-anchor="middle" x="403.14" y="-806.3" font-family="Times,serif" font-size="14.00">gdbm</text>
</g>
<!-- gdbm&gt;=1.17&#45;&gt;gdbm -->
<g id="edge42" class="edge">
<title>gdbm&gt;=1.17&#45;&gt;gdbm</title>
<path fill="none" stroke="grey" d="M403.9,-863.7C403.74,-852.85 403.54,-838.92 403.39,-828.1"/>
</g>
<!-- gdbm&#45;&gt;glibc -->
<g id="edge43" class="edge">
<title>gdbm&#45;&gt;glibc</title>
<path fill="none" stroke="#8b4513" d="M393.86,-792.54C380.16,-766.66 356.14,-714.52 356.14,-667 356.14,-667 356.14,-667 356.14,-305 356.14,-262.66 359.11,-244.81 390.14,-216 428.23,-180.63 489,-168.8 528.49,-164.89"/>
<polygon fill="#8b4513" stroke="#8b4513" points="528.88,-168.37 538.54,-164.01 528.27,-161.39 528.88,-168.37"/>
</g>
<!-- gdbm&#45;&gt;sh -->
<g id="edge44" class="edge">
<title>gdbm&#45;&gt;sh</title>
<path fill="none" stroke="#8b4513" d="M427.13,-798.44C432.37,-796.23 437.92,-793.98 443.14,-792 485.75,-775.88 535.71,-759.65 568.09,-749.48"/>
<polygon fill="#8b4513" stroke="#8b4513" points="569.46,-752.72 577.96,-746.4 567.37,-746.04 569.46,-752.72"/>
</g>
<!-- db&#45;&gt;gcc&#45;libs -->
<g id="edge47" class="edge">
<title>db&#45;&gt;gcc&#45;libs</title>
<path fill="none" stroke="#8b4513" d="M460.2,-797.08C446.58,-787.55 428.79,-773 418.14,-756 396.4,-721.28 394.14,-707.97 394.14,-667 394.14,-667 394.14,-667 394.14,-449 394.14,-406.54 413.96,-360.66 428.39,-332.87"/>
<polygon fill="#8b4513" stroke="#8b4513" points="431.59,-334.31 433.23,-323.84 425.42,-331 431.59,-334.31"/>
</g>
<!-- db&#45;&gt;sh -->
<g id="edge48" class="edge">
<title>db&#45;&gt;sh</title>
<path fill="none" stroke="#8b4513" d="M499.18,-797.6C519.28,-786.16 550.45,-768.42 573.23,-755.46"/>
<polygon fill="#8b4513" stroke="#8b4513" points="575.16,-758.39 582.12,-750.4 571.69,-752.3 575.16,-758.39"/>
</g>
<!-- libp11&#45;kit.so=0&#45;64&#45;&gt;libp11&#45;kit -->
<g id="edge52" class="edge">
<title>libp11&#45;kit.so=0&#45;64&#45;&gt;libp11&#45;kit</title>
<path fill="none" stroke="grey" d="M171.5,-647.6C166.24,-620.92 157.14,-568.23 157.14,-523 157.14,-523 157.14,-523 157.14,-449 157.14,-403.56 148.46,-350.52 143.5,-323.97"/>
</g>
<!-- systemd&#45;libs -->
<g id="node33" class="node">
<title>systemd&#45;libs</title>
<ellipse fill="green" stroke="green" cx="882.14" cy="-954" rx="55.79" ry="18"/>
<text text-anchor="middle" x="882.14" y="-950.3" font-family="Times,serif" font-size="14.00">systemd&#45;libs</text>
</g>
<!-- libsystemd.so=0&#45;64&#45;&gt;systemd&#45;libs -->
<g id="edge54" class="edge">
<title>libsystemd.so=0&#45;64&#45;&gt;systemd&#45;libs</title>
<path fill="none" stroke="grey" d="M797.53,-1080.15C816.01,-1052.82 852.3,-999.14 870.77,-971.82"/>
</g>
<!-- systemd&#45;libs&#45;&gt;glibc -->
<g id="edge55" class="edge">
<title>systemd&#45;libs&#45;&gt;glibc</title>
<path fill="none" stroke="#8b4513" d="M907.24,-937.9C941.62,-915.08 999.14,-868.34 999.14,-811 999.14,-811 999.14,-811 999.14,-305 999.14,-253.84 970.66,-241.21 926.14,-216 871.9,-185.29 687.04,-170.39 605.88,-165.21"/>
<polygon fill="#8b4513" stroke="#8b4513" points="605.8,-161.69 595.6,-164.57 605.36,-168.68 605.8,-161.69"/>
</g>
<!-- systemd&#45;libs&#45;&gt;libcap -->
<g id="edge56" class="edge">
<title>systemd&#45;libs&#45;&gt;libcap</title>
<path fill="none" stroke="#8b4513" d="M845.64,-940.16C809.75,-927.53 755.26,-908.37 719.44,-895.77"/>
<polygon fill="#8b4513" stroke="#8b4513" points="720.45,-892.41 709.86,-892.4 718.13,-899.02 720.45,-892.41"/>
</g>
<!-- libgcrypt -->
<g id="node34" class="node">
<title>libgcrypt</title>
<ellipse fill="green" stroke="green" cx="881.14" cy="-882" rx="42.79" ry="18"/>
<text text-anchor="middle" x="881.14" y="-878.3" font-family="Times,serif" font-size="14.00">libgcrypt</text>
</g>
<!-- systemd&#45;libs&#45;&gt;libgcrypt -->
<g id="edge57" class="edge">
<title>systemd&#45;libs&#45;&gt;libgcrypt</title>
<path fill="none" stroke="#8b4513" d="M881.9,-935.7C881.79,-927.98 881.65,-918.71 881.53,-910.11"/>
<polygon fill="#8b4513" stroke="#8b4513" points="885.03,-910.05 881.39,-900.1 878.03,-910.15 885.03,-910.05"/>
</g>
<!-- lz4 -->
<g id="node36" class="node">
<title>lz4</title>
<ellipse fill="green" stroke="green" cx="942.14" cy="-738" rx="27" ry="18"/>
<text text-anchor="middle" x="942.14" y="-734.3" font-family="Times,serif" font-size="14.00">lz4</text>
</g>
<!-- systemd&#45;libs&#45;&gt;lz4 -->
<g id="edge62" class="edge">
<title>systemd&#45;libs&#45;&gt;lz4</title>
<path fill="none" stroke="#8b4513" d="M902.88,-937.11C913.75,-927.59 926.21,-914.52 933.14,-900 953.72,-856.87 950.86,-799.67 946.67,-766.35"/>
<polygon fill="#8b4513" stroke="#8b4513" points="950.07,-765.43 945.22,-756.01 943.14,-766.4 950.07,-765.43"/>
</g>
<!-- xz -->
<g id="node37" class="node">
<title>xz</title>
<ellipse fill="green" stroke="green" cx="606.14" cy="-882" rx="27" ry="18"/>
<text text-anchor="middle" x="606.14" y="-878.3" font-family="Times,serif" font-size="14.00">xz</text>
</g>
<!-- systemd&#45;libs&#45;&gt;xz -->
<g id="edge64" class="edge">
<title>systemd&#45;libs&#45;&gt;xz</title>
<path fill="none" stroke="#8b4513" d="M840.61,-941.79C832.83,-939.79 824.75,-937.78 817.14,-936 739.82,-917.95 717.47,-925.13 642.14,-900 640.22,-899.36 638.28,-898.64 636.33,-897.88"/>
<polygon fill="#8b4513" stroke="#8b4513" points="637.3,-894.49 626.74,-893.75 634.54,-900.92 637.3,-894.49"/>
</g>
<!-- libgpg&#45;error -->
<g id="node35" class="node">
<title>libgpg&#45;error</title>
<ellipse fill="green" stroke="green" cx="879.14" cy="-810" rx="53.89" ry="18"/>
<text text-anchor="middle" x="879.14" y="-806.3" font-family="Times,serif" font-size="14.00">libgpg&#45;error</text>
</g>
<!-- libgcrypt&#45;&gt;libgpg&#45;error -->
<g id="edge58" class="edge">
<title>libgcrypt&#45;&gt;libgpg&#45;error</title>
<path fill="none" stroke="#8b4513" d="M880.65,-863.7C880.43,-855.98 880.16,-846.71 879.92,-838.11"/>
<polygon fill="#8b4513" stroke="#8b4513" points="883.42,-838 879.63,-828.1 876.42,-838.2 883.42,-838"/>
</g>
<!-- libgpg&#45;error&#45;&gt;glibc -->
<g id="edge59" class="edge">
<title>libgpg&#45;error&#45;&gt;glibc</title>
<path fill="none" stroke="#8b4513" d="M880.13,-791.96C881.59,-765.31 884.14,-712.14 884.14,-667 884.14,-667 884.14,-667 884.14,-305 884.14,-262.16 880.4,-243 847.14,-216 810.59,-186.33 673.63,-171.48 605.76,-165.82"/>
<polygon fill="#8b4513" stroke="#8b4513" points="605.74,-162.3 595.49,-164.99 605.17,-169.28 605.74,-162.3"/>
</g>
<!-- libgpg&#45;error&#45;&gt;sh -->
<g id="edge60" class="edge">
<title>libgpg&#45;error&#45;&gt;sh</title>
<path fill="none" stroke="#8b4513" d="M838.85,-797.99C831.31,-795.97 823.49,-793.9 816.14,-792 753.15,-775.7 679.46,-757.68 637.05,-747.41"/>
<polygon fill="#8b4513" stroke="#8b4513" points="637.77,-743.98 627.22,-745.03 636.12,-750.79 637.77,-743.98"/>
</g>
<!-- lz4&#45;&gt;glibc -->
<g id="edge63" class="edge">
<title>lz4&#45;&gt;glibc</title>
<path fill="none" stroke="#8b4513" d="M940.17,-719.98C937.25,-693.36 932.14,-640.23 932.14,-595 932.14,-595 932.14,-595 932.14,-305 932.14,-262.66 931.01,-242.7 898.14,-216 853.93,-180.07 683.73,-168.1 606.12,-164.45"/>
<polygon fill="#8b4513" stroke="#8b4513" points="605.95,-160.94 595.81,-163.99 605.64,-167.94 605.95,-160.94"/>
</g>
<!-- xz&#45;&gt;sh -->
<g id="edge65" class="edge">
<title>xz&#45;&gt;sh</title>
<path fill="none" stroke="#8b4513" d="M605.66,-863.87C604.98,-839.67 603.73,-795.21 602.91,-766.39"/>
<polygon fill="#8b4513" stroke="#8b4513" points="606.41,-766.09 602.63,-756.19 599.41,-766.28 606.41,-766.09"/>
</g>
</g>
</svg>
