<?xml version="1.0" encoding="UTF-8" standalone="no"?>
<!DOCTYPE svg PUBLIC "-//W3C//DTD SVG 1.1//EN"
 "http://www.w3.org/Graphics/SVG/1.1/DTD/svg11.dtd">
<!-- Generated by graphviz version 2.44.0 (0)
 -->
<!-- Title: G Pages: 1 -->
<svg width="630pt" height="1484pt"
 viewBox="0.00 0.00 630.14 1484.00" xmlns="http://www.w3.org/2000/svg" xmlns:xlink="http://www.w3.org/1999/xlink">
<g id="graph0" class="graph" transform="scale(1 1) rotate(0) translate(4 1480)">
<title>G</title>
<polygon fill="white" stroke="transparent" points="-4,4 -4,-1480 626.14,-1480 626.14,4 -4,4"/>
<!-- START -->
<g id="node1" class="node">
<title>START</title>
<ellipse fill="red" stroke="red" cx="128.14" cy="-1458" rx="38.19" ry="18"/>
<text text-anchor="middle" x="128.14" y="-1454.3" font-family="Times,serif" font-size="14.00">START</text>
</g>
<!-- pam -->
<g id="node2" class="node">
<title>pam</title>
<ellipse fill="green" stroke="green" cx="128.14" cy="-1386" rx="27" ry="18"/>
<text text-anchor="middle" x="128.14" y="-1382.3" font-family="Times,serif" font-size="14.00">pam</text>
</g>
<!-- START&#45;&gt;pam -->
<g id="edge1" class="edge">
<title>START&#45;&gt;pam</title>
<path fill="none" stroke="black" d="M128.14,-1439.7C128.14,-1431.98 128.14,-1422.71 128.14,-1414.11"/>
<polygon fill="black" stroke="black" points="131.64,-1414.1 128.14,-1404.1 124.64,-1414.1 131.64,-1414.1"/>
</g>
<!-- glibc -->
<g id="node3" class="node">
<title>glibc</title>
<ellipse fill="green" stroke="green" cx="246.14" cy="-162" rx="28.7" ry="18"/>
<text text-anchor="middle" x="246.14" y="-158.3" font-family="Times,serif" font-size="14.00">glibc</text>
</g>
<!-- pam&#45;&gt;glibc -->
<g id="edge2" class="edge">
<title>pam&#45;&gt;glibc</title>
<path fill="none" stroke="#8b4513" d="M109.68,-1372.51C79.31,-1350.31 22.14,-1300.84 22.14,-1243 22.14,-1243 22.14,-1243 22.14,-305 22.14,-260.47 33.85,-244.4 68.14,-216 108.18,-182.85 168.38,-170.43 207.47,-165.78"/>
<polygon fill="#8b4513" stroke="#8b4513" points="208.09,-169.24 217.66,-164.69 207.35,-162.28 208.09,-169.24"/>
</g>
<!-- cracklib -->
<g id="node9" class="node">
<title>cracklib</title>
<ellipse fill="green" stroke="green" cx="96.14" cy="-306" rx="39.79" ry="18"/>
<text text-anchor="middle" x="96.14" y="-302.3" font-family="Times,serif" font-size="14.00">cracklib</text>
</g>
<!-- pam&#45;&gt;cracklib -->
<g id="edge8" class="edge">
<title>pam&#45;&gt;cracklib</title>
<path fill="none" stroke="#8b4513" d="M121.82,-1368.23C112.49,-1341.94 96.14,-1289.25 96.14,-1243 96.14,-1243 96.14,-1243 96.14,-449 96.14,-409 96.14,-362.65 96.14,-334.08"/>
<polygon fill="#8b4513" stroke="#8b4513" points="99.64,-334.05 96.14,-324.05 92.64,-334.05 99.64,-334.05"/>
</g>
<!-- libtirpc -->
<g id="node11" class="node">
<title>libtirpc</title>
<ellipse fill="green" stroke="green" cx="160.14" cy="-1314" rx="36.29" ry="18"/>
<text text-anchor="middle" x="160.14" y="-1310.3" font-family="Times,serif" font-size="14.00">libtirpc</text>
</g>
<!-- pam&#45;&gt;libtirpc -->
<g id="edge12" class="edge">
<title>pam&#45;&gt;libtirpc</title>
<path fill="none" stroke="#8b4513" d="M135.72,-1368.41C139.46,-1360.25 144.04,-1350.22 148.23,-1341.07"/>
<polygon fill="#8b4513" stroke="#8b4513" points="151.42,-1342.51 152.39,-1331.96 145.05,-1339.6 151.42,-1342.51"/>
</g>
<!-- pambase -->
<g id="node31" class="node">
<title>pambase</title>
<ellipse fill="green" stroke="green" cx="257.14" cy="-1314" rx="42.49" ry="18"/>
<text text-anchor="middle" x="257.14" y="-1310.3" font-family="Times,serif" font-size="14.00">pambase</text>
</g>
<!-- pam&#45;&gt;pambase -->
<g id="edge49" class="edge">
<title>pam&#45;&gt;pambase</title>
<path fill="none" stroke="#8b4513" d="M148.58,-1373.91C168.53,-1363.09 199.24,-1346.42 222.91,-1333.57"/>
<polygon fill="#8b4513" stroke="#8b4513" points="224.81,-1336.53 231.93,-1328.68 221.47,-1330.38 224.81,-1336.53"/>
</g>
<!-- linux&#45;api&#45;headers&gt;=4.10 -->
<g id="node4" class="node">
<title>linux&#45;api&#45;headers&gt;=4.10</title>
<ellipse fill="green" stroke="green" cx="98.14" cy="-90" rx="98.28" ry="18"/>
<text text-anchor="middle" x="98.14" y="-86.3" font-family="Times,serif" font-size="14.00">linux&#45;api&#45;headers&gt;=4.10</text>
</g>
<!-- glibc&#45;&gt;linux&#45;api&#45;headers&gt;=4.10 -->
<g id="edge3" class="edge">
<title>glibc&#45;&gt;linux&#45;api&#45;headers&gt;=4.10</title>
<path fill="none" stroke="#8b4513" d="M223.98,-150.52C202.2,-140.22 168.37,-124.22 141.27,-111.4"/>
<polygon fill="#8b4513" stroke="#8b4513" points="142.53,-108.12 132,-107.01 139.54,-114.45 142.53,-108.12"/>
</g>
<!-- tzdata -->
<g id="node6" class="node">
<title>tzdata</title>
<ellipse fill="green" stroke="green" cx="246.14" cy="-90" rx="31.7" ry="18"/>
<text text-anchor="middle" x="246.14" y="-86.3" font-family="Times,serif" font-size="14.00">tzdata</text>
</g>
<!-- glibc&#45;&gt;tzdata -->
<g id="edge5" class="edge">
<title>glibc&#45;&gt;tzdata</title>
<path fill="none" stroke="#8b4513" d="M246.14,-143.7C246.14,-135.98 246.14,-126.71 246.14,-118.11"/>
<polygon fill="#8b4513" stroke="#8b4513" points="249.64,-118.1 246.14,-108.1 242.64,-118.1 249.64,-118.1"/>
</g>
<!-- filesystem -->
<g id="node7" class="node">
<title>filesystem</title>
<ellipse fill="green" stroke="green" cx="343.14" cy="-90" rx="46.59" ry="18"/>
<text text-anchor="middle" x="343.14" y="-86.3" font-family="Times,serif" font-size="14.00">filesystem</text>
</g>
<!-- glibc&#45;&gt;filesystem -->
<g id="edge6" class="edge">
<title>glibc&#45;&gt;filesystem</title>
<path fill="none" stroke="#8b4513" d="M264.39,-147.83C278.19,-137.88 297.42,-123.99 313.43,-112.44"/>
<polygon fill="#8b4513" stroke="#8b4513" points="315.88,-114.99 321.94,-106.3 311.78,-109.31 315.88,-114.99"/>
</g>
<!-- linux&#45;api&#45;headers -->
<g id="node5" class="node">
<title>linux&#45;api&#45;headers</title>
<ellipse fill="green" stroke="green" cx="98.14" cy="-18" rx="71.49" ry="18"/>
<text text-anchor="middle" x="98.14" y="-14.3" font-family="Times,serif" font-size="14.00">linux&#45;api&#45;headers</text>
</g>
<!-- linux&#45;api&#45;headers&gt;=4.10&#45;&gt;linux&#45;api&#45;headers -->
<g id="edge4" class="edge">
<title>linux&#45;api&#45;headers&gt;=4.10&#45;&gt;linux&#45;api&#45;headers</title>
<path fill="none" stroke="grey" d="M98.14,-71.7C98.14,-60.85 98.14,-46.92 98.14,-36.1"/>
</g>
<!-- iana&#45;etc -->
<g id="node8" class="node">
<title>iana&#45;etc</title>
<ellipse fill="green" stroke="green" cx="343.14" cy="-18" rx="38.19" ry="18"/>
<text text-anchor="middle" x="343.14" y="-14.3" font-family="Times,serif" font-size="14.00">iana&#45;etc</text>
</g>
<!-- filesystem&#45;&gt;iana&#45;etc -->
<g id="edge7" class="edge">
<title>filesystem&#45;&gt;iana&#45;etc</title>
<path fill="none" stroke="#8b4513" d="M343.14,-71.7C343.14,-63.98 343.14,-54.71 343.14,-46.11"/>
<polygon fill="#8b4513" stroke="#8b4513" points="346.64,-46.1 343.14,-36.1 339.64,-46.1 346.64,-46.1"/>
</g>
<!-- cracklib&#45;&gt;glibc -->
<g id="edge9" class="edge">
<title>cracklib&#45;&gt;glibc</title>
<path fill="none" stroke="#8b4513" d="M85.96,-288.24C75.73,-268.99 63.53,-237.33 79.14,-216 108.33,-176.12 167.74,-165.51 207.25,-163.08"/>
<polygon fill="#8b4513" stroke="#8b4513" points="207.5,-166.58 217.33,-162.61 207.18,-159.58 207.5,-166.58"/>
</g>
<!-- zlib -->
<g id="node10" class="node">
<title>zlib</title>
<ellipse fill="green" stroke="green" cx="115.14" cy="-234" rx="27" ry="18"/>
<text text-anchor="middle" x="115.14" y="-230.3" font-family="Times,serif" font-size="14.00">zlib</text>
</g>
<!-- cracklib&#45;&gt;zlib -->
<g id="edge10" class="edge">
<title>cracklib&#45;&gt;zlib</title>
<path fill="none" stroke="#8b4513" d="M100.74,-288.05C102.89,-280.14 105.49,-270.54 107.9,-261.69"/>
<polygon fill="#8b4513" stroke="#8b4513" points="111.34,-262.36 110.58,-251.79 104.59,-260.52 111.34,-262.36"/>
</g>
<!-- zlib&#45;&gt;glibc -->
<g id="edge11" class="edge">
<title>zlib&#45;&gt;glibc</title>
<path fill="none" stroke="#8b4513" d="M135.61,-222.06C157.18,-210.54 191.37,-192.27 216.02,-179.1"/>
<polygon fill="#8b4513" stroke="#8b4513" points="217.78,-182.12 224.95,-174.32 214.48,-175.95 217.78,-182.12"/>
</g>
<!-- krb5 -->
<g id="node12" class="node">
<title>krb5</title>
<ellipse fill="green" stroke="green" cx="194.14" cy="-1242" rx="27.1" ry="18"/>
<text text-anchor="middle" x="194.14" y="-1238.3" font-family="Times,serif" font-size="14.00">krb5</text>
</g>
<!-- libtirpc&#45;&gt;krb5 -->
<g id="edge13" class="edge">
<title>libtirpc&#45;&gt;krb5</title>
<path fill="none" stroke="#8b4513" d="M168.2,-1296.41C172.22,-1288.13 177.18,-1277.92 181.68,-1268.66"/>
<polygon fill="#8b4513" stroke="#8b4513" points="184.92,-1269.99 186.14,-1259.47 178.62,-1266.94 184.92,-1269.99"/>
</g>
<!-- e2fsprogs -->
<g id="node13" class="node">
<title>e2fsprogs</title>
<ellipse fill="green" stroke="green" cx="267.14" cy="-1098" rx="44.69" ry="18"/>
<text text-anchor="middle" x="267.14" y="-1094.3" font-family="Times,serif" font-size="14.00">e2fsprogs</text>
</g>
<!-- krb5&#45;&gt;e2fsprogs -->
<g id="edge14" class="edge">
<title>krb5&#45;&gt;e2fsprogs</title>
<path fill="none" stroke="#8b4513" d="M200.28,-1224.18C207.16,-1205.97 219.09,-1176.26 232.14,-1152 237.18,-1142.63 243.39,-1132.8 249.18,-1124.18"/>
<polygon fill="#8b4513" stroke="#8b4513" points="252.22,-1125.93 254.99,-1115.7 246.45,-1121.97 252.22,-1125.93"/>
</g>
<!-- libldap -->
<g id="node23" class="node">
<title>libldap</title>
<ellipse fill="green" stroke="green" cx="276.14" cy="-1170" rx="35.19" ry="18"/>
<text text-anchor="middle" x="276.14" y="-1166.3" font-family="Times,serif" font-size="14.00">libldap</text>
</g>
<!-- krb5&#45;&gt;libldap -->
<g id="edge30" class="edge">
<title>krb5&#45;&gt;libldap</title>
<path fill="none" stroke="#8b4513" d="M210.34,-1227.17C221.94,-1217.27 237.77,-1203.75 251,-1192.46"/>
<polygon fill="#8b4513" stroke="#8b4513" points="253.51,-1194.92 258.84,-1185.77 248.96,-1189.6 253.51,-1194.92"/>
</g>
<!-- keyutils -->
<g id="node30" class="node">
<title>keyutils</title>
<ellipse fill="green" stroke="green" cx="175.14" cy="-810" rx="38.19" ry="18"/>
<text text-anchor="middle" x="175.14" y="-806.3" font-family="Times,serif" font-size="14.00">keyutils</text>
</g>
<!-- krb5&#45;&gt;keyutils -->
<g id="edge45" class="edge">
<title>krb5&#45;&gt;keyutils</title>
<path fill="none" stroke="#8b4513" d="M190.39,-1224.05C184.85,-1197.52 175.14,-1144.52 175.14,-1099 175.14,-1099 175.14,-1099 175.14,-953 175.14,-913 175.14,-866.65 175.14,-838.08"/>
<polygon fill="#8b4513" stroke="#8b4513" points="178.64,-838.05 175.14,-828.05 171.64,-838.05 178.64,-838.05"/>
</g>
<!-- sh -->
<g id="node14" class="node">
<title>sh</title>
<ellipse fill="green" stroke="green" cx="255.14" cy="-738" rx="27" ry="18"/>
<text text-anchor="middle" x="255.14" y="-734.3" font-family="Times,serif" font-size="14.00">sh</text>
</g>
<!-- e2fsprogs&#45;&gt;sh -->
<g id="edge15" class="edge">
<title>e2fsprogs&#45;&gt;sh</title>
<path fill="none" stroke="#8b4513" d="M264.77,-1079.99C261.27,-1053.38 255.14,-1000.28 255.14,-955 255.14,-955 255.14,-955 255.14,-881 255.14,-841 255.14,-794.65 255.14,-766.08"/>
<polygon fill="#8b4513" stroke="#8b4513" points="258.64,-766.05 255.14,-756.05 251.64,-766.05 258.64,-766.05"/>
</g>
<!-- libutil&#45;linux -->
<g id="node22" class="node">
<title>libutil&#45;linux</title>
<ellipse fill="green" stroke="green" cx="336.14" cy="-1026" rx="52.79" ry="18"/>
<text text-anchor="middle" x="336.14" y="-1022.3" font-family="Times,serif" font-size="14.00">libutil&#45;linux</text>
</g>
<!-- e2fsprogs&#45;&gt;libutil&#45;linux -->
<g id="edge29" class="edge">
<title>e2fsprogs&#45;&gt;libutil&#45;linux</title>
<path fill="none" stroke="#8b4513" d="M282.8,-1081.12C291.67,-1072.12 302.94,-1060.68 312.83,-1050.65"/>
<polygon fill="#8b4513" stroke="#8b4513" points="315.54,-1052.89 320.07,-1043.31 310.55,-1047.97 315.54,-1052.89"/>
</g>
<!-- bash -->
<g id="node15" class="node">
<title>bash</title>
<ellipse fill="green" stroke="green" cx="255.14" cy="-666" rx="27" ry="18"/>
<text text-anchor="middle" x="255.14" y="-662.3" font-family="Times,serif" font-size="14.00">bash</text>
</g>
<!-- sh&#45;&gt;bash -->
<g id="edge16" class="edge">
<title>sh&#45;&gt;bash</title>
<path fill="none" stroke="grey" d="M238.77,-723.5C233.59,-711.11 233.6,-692.84 238.78,-680.46"/>
</g>
<!-- sh&#45;&gt;bash -->
<g id="edge38" class="edge">
<title>sh&#45;&gt;bash</title>
<path fill="none" stroke="grey" d="M249.3,-720.41C248.1,-709.41 248.09,-695.03 249.26,-683.96"/>
</g>
<!-- sh&#45;&gt;bash -->
<g id="edge42" class="edge">
<title>sh&#45;&gt;bash</title>
<path fill="none" stroke="grey" d="M260.98,-720.41C262.18,-709.41 262.19,-695.03 261.02,-683.96"/>
</g>
<!-- sh&#45;&gt;bash -->
<g id="edge48" class="edge">
<title>sh&#45;&gt;bash</title>
<path fill="none" stroke="grey" d="M271.52,-723.5C276.69,-711.11 276.68,-692.84 271.5,-680.46"/>
</g>
<!-- bash&#45;&gt;glibc -->
<g id="edge27" class="edge">
<title>bash&#45;&gt;glibc</title>
<path fill="none" stroke="#8b4513" d="M246.08,-648.96C232.42,-623.23 208.14,-570.78 208.14,-523 208.14,-523 208.14,-523 208.14,-305 208.14,-263.41 223.54,-217.22 234.74,-189.14"/>
<polygon fill="#8b4513" stroke="#8b4513" points="238.07,-190.24 238.63,-179.66 231.59,-187.58 238.07,-190.24"/>
</g>
<!-- readline&gt;=7.0 -->
<g id="node16" class="node">
<title>readline&gt;=7.0</title>
<ellipse fill="green" stroke="green" cx="351.14" cy="-594" rx="61.19" ry="18"/>
<text text-anchor="middle" x="351.14" y="-590.3" font-family="Times,serif" font-size="14.00">readline&gt;=7.0</text>
</g>
<!-- bash&#45;&gt;readline&gt;=7.0 -->
<g id="edge17" class="edge">
<title>bash&#45;&gt;readline&gt;=7.0</title>
<path fill="none" stroke="#8b4513" d="M272.75,-652.16C286.18,-642.37 304.99,-628.65 320.83,-617.1"/>
<polygon fill="#8b4513" stroke="#8b4513" points="323.25,-619.67 329.26,-610.95 319.12,-614.02 323.25,-619.67"/>
</g>
<!-- ncurses -->
<g id="node18" class="node">
<title>ncurses</title>
<ellipse fill="green" stroke="green" cx="284.14" cy="-378" rx="37.09" ry="18"/>
<text text-anchor="middle" x="284.14" y="-374.3" font-family="Times,serif" font-size="14.00">ncurses</text>
</g>
<!-- bash&#45;&gt;ncurses -->
<g id="edge28" class="edge">
<title>bash&#45;&gt;ncurses</title>
<path fill="none" stroke="#8b4513" d="M256.87,-647.97C261.71,-600.19 275.46,-464.62 281.38,-406.27"/>
<polygon fill="#8b4513" stroke="#8b4513" points="284.86,-406.61 282.39,-396.31 277.9,-405.9 284.86,-406.61"/>
</g>
<!-- readline -->
<g id="node17" class="node">
<title>readline</title>
<ellipse fill="green" stroke="green" cx="366.14" cy="-522" rx="38.99" ry="18"/>
<text text-anchor="middle" x="366.14" y="-518.3" font-family="Times,serif" font-size="14.00">readline</text>
</g>
<!-- readline&gt;=7.0&#45;&gt;readline -->
<g id="edge18" class="edge">
<title>readline&gt;=7.0&#45;&gt;readline</title>
<path fill="none" stroke="grey" d="M354.85,-575.7C357.17,-564.85 360.16,-550.92 362.48,-540.1"/>
</g>
<!-- readline&#45;&gt;glibc -->
<g id="edge19" class="edge">
<title>readline&#45;&gt;glibc</title>
<path fill="none" stroke="#8b4513" d="M403.24,-516.01C432.07,-509.97 470.23,-496.75 489.14,-468 497.94,-454.63 494.89,-446.93 489.14,-432 445.04,-317.38 326.98,-221.2 273.34,-181.95"/>
<polygon fill="#8b4513" stroke="#8b4513" points="275.16,-178.95 265,-175.93 271.06,-184.62 275.16,-178.95"/>
</g>
<!-- readline&#45;&gt;ncurses -->
<g id="edge20" class="edge">
<title>readline&#45;&gt;ncurses</title>
<path fill="none" stroke="#8b4513" d="M343.26,-507.34C329.55,-497.97 312.93,-484.3 303.14,-468 291.92,-449.32 287.28,-424.93 285.38,-406.41"/>
<polygon fill="#8b4513" stroke="#8b4513" points="288.85,-405.95 284.55,-396.27 281.88,-406.52 288.85,-405.95"/>
</g>
<!-- libncursesw.so=6&#45;64 -->
<g id="node21" class="node">
<title>libncursesw.so=6&#45;64</title>
<ellipse fill="green" stroke="green" cx="396.14" cy="-450" rx="83.69" ry="18"/>
<text text-anchor="middle" x="396.14" y="-446.3" font-family="Times,serif" font-size="14.00">libncursesw.so=6&#45;64</text>
</g>
<!-- readline&#45;&gt;libncursesw.so=6&#45;64 -->
<g id="edge25" class="edge">
<title>readline&#45;&gt;libncursesw.so=6&#45;64</title>
<path fill="none" stroke="#8b4513" d="M373.4,-504.05C376.82,-496.09 380.97,-486.41 384.78,-477.51"/>
<polygon fill="#8b4513" stroke="#8b4513" points="388.02,-478.85 388.74,-468.28 381.58,-476.09 388.02,-478.85"/>
</g>
<!-- ncurses&#45;&gt;glibc -->
<g id="edge21" class="edge">
<title>ncurses&#45;&gt;glibc</title>
<path fill="none" stroke="#8b4513" d="M281.1,-359.85C274.51,-322.74 258.88,-234.75 250.95,-190.05"/>
<polygon fill="#8b4513" stroke="#8b4513" points="254.34,-189.17 249.15,-179.94 247.45,-190.39 254.34,-189.17"/>
</g>
<!-- gcc&#45;libs -->
<g id="node19" class="node">
<title>gcc&#45;libs</title>
<ellipse fill="green" stroke="green" cx="501.14" cy="-306" rx="38.19" ry="18"/>
<text text-anchor="middle" x="501.14" y="-302.3" font-family="Times,serif" font-size="14.00">gcc&#45;libs</text>
</g>
<!-- ncurses&#45;&gt;gcc&#45;libs -->
<g id="edge22" class="edge">
<title>ncurses&#45;&gt;gcc&#45;libs</title>
<path fill="none" stroke="#8b4513" d="M314.31,-367.27C352.48,-354.96 418.33,-333.71 460.79,-320.02"/>
<polygon fill="#8b4513" stroke="#8b4513" points="462.08,-323.28 470.53,-316.88 459.93,-316.62 462.08,-323.28"/>
</g>
<!-- glibc&gt;=2.27 -->
<g id="node20" class="node">
<title>glibc&gt;=2.27</title>
<ellipse fill="green" stroke="green" cx="501.14" cy="-234" rx="54.69" ry="18"/>
<text text-anchor="middle" x="501.14" y="-230.3" font-family="Times,serif" font-size="14.00">glibc&gt;=2.27</text>
</g>
<!-- gcc&#45;libs&#45;&gt;glibc&gt;=2.27 -->
<g id="edge23" class="edge">
<title>gcc&#45;libs&#45;&gt;glibc&gt;=2.27</title>
<path fill="none" stroke="#8b4513" d="M501.14,-287.7C501.14,-279.98 501.14,-270.71 501.14,-262.11"/>
<polygon fill="#8b4513" stroke="#8b4513" points="504.64,-262.1 501.14,-252.1 497.64,-262.1 504.64,-262.1"/>
</g>
<!-- glibc&gt;=2.27&#45;&gt;glibc -->
<g id="edge24" class="edge">
<title>glibc&gt;=2.27&#45;&gt;glibc</title>
<path fill="none" stroke="grey" d="M460.45,-221.83C407.44,-207.28 316.3,-182.26 271.93,-170.08"/>
</g>
<!-- libncursesw.so=6&#45;64&#45;&gt;ncurses -->
<g id="edge26" class="edge">
<title>libncursesw.so=6&#45;64&#45;&gt;ncurses</title>
<path fill="none" stroke="grey" d="M370.16,-432.76C350.78,-420.65 324.58,-404.27 306.2,-392.79"/>
</g>
<!-- libldap&#45;&gt;e2fsprogs -->
<g id="edge44" class="edge">
<title>libldap&#45;&gt;e2fsprogs</title>
<path fill="none" stroke="#8b4513" d="M273.92,-1151.7C272.92,-1143.98 271.73,-1134.71 270.63,-1126.11"/>
<polygon fill="#8b4513" stroke="#8b4513" points="274.09,-1125.58 269.34,-1116.1 267.14,-1126.47 274.09,-1125.58"/>
</g>
<!-- libsasl -->
<g id="node24" class="node">
<title>libsasl</title>
<ellipse fill="green" stroke="green" cx="409.14" cy="-1098" rx="33.29" ry="18"/>
<text text-anchor="middle" x="409.14" y="-1094.3" font-family="Times,serif" font-size="14.00">libsasl</text>
</g>
<!-- libldap&#45;&gt;libsasl -->
<g id="edge31" class="edge">
<title>libldap&#45;&gt;libsasl</title>
<path fill="none" stroke="#8b4513" d="M299.92,-1156.49C321.42,-1145.17 353.26,-1128.41 377.02,-1115.9"/>
<polygon fill="#8b4513" stroke="#8b4513" points="378.8,-1118.93 386.01,-1111.17 375.54,-1112.73 378.8,-1118.93"/>
</g>
<!-- openssl -->
<g id="node25" class="node">
<title>openssl</title>
<ellipse fill="green" stroke="green" cx="494.14" cy="-1026" rx="37.09" ry="18"/>
<text text-anchor="middle" x="494.14" y="-1022.3" font-family="Times,serif" font-size="14.00">openssl</text>
</g>
<!-- libsasl&#45;&gt;openssl -->
<g id="edge32" class="edge">
<title>libsasl&#45;&gt;openssl</title>
<path fill="none" stroke="#8b4513" d="M426.75,-1082.5C438.67,-1072.68 454.63,-1059.54 468.02,-1048.51"/>
<polygon fill="#8b4513" stroke="#8b4513" points="470.47,-1051.03 475.97,-1041.97 466.02,-1045.62 470.47,-1051.03"/>
</g>
<!-- perl -->
<g id="node26" class="node">
<title>perl</title>
<ellipse fill="green" stroke="green" cx="502.14" cy="-954" rx="27" ry="18"/>
<text text-anchor="middle" x="502.14" y="-950.3" font-family="Times,serif" font-size="14.00">perl</text>
</g>
<!-- openssl&#45;&gt;perl -->
<g id="edge33" class="edge">
<title>openssl&#45;&gt;perl</title>
<path fill="none" stroke="#8b4513" d="M496.12,-1007.7C497,-999.98 498.06,-990.71 499.04,-982.11"/>
<polygon fill="#8b4513" stroke="#8b4513" points="502.53,-982.44 500.19,-972.1 495.57,-981.64 502.53,-982.44"/>
</g>
<!-- perl&#45;&gt;glibc -->
<g id="edge43" class="edge">
<title>perl&#45;&gt;glibc</title>
<path fill="none" stroke="#8b4513" d="M525.85,-945.01C546.69,-936.82 576.37,-922.14 594.14,-900 620.1,-867.66 622.14,-852.47 622.14,-811 622.14,-811 622.14,-811 622.14,-305 622.14,-262.66 621.07,-242.62 588.14,-216 542.08,-178.77 364.13,-167.45 284.75,-164.21"/>
<polygon fill="#8b4513" stroke="#8b4513" points="284.8,-160.71 274.68,-163.82 284.53,-167.71 284.8,-160.71"/>
</g>
<!-- gdbm&gt;=1.17 -->
<g id="node27" class="node">
<title>gdbm&gt;=1.17</title>
<ellipse fill="green" stroke="green" cx="527.14" cy="-882" rx="57.69" ry="18"/>
<text text-anchor="middle" x="527.14" y="-878.3" font-family="Times,serif" font-size="14.00">gdbm&gt;=1.17</text>
</g>
<!-- perl&#45;&gt;gdbm&gt;=1.17 -->
<g id="edge34" class="edge">
<title>perl&#45;&gt;gdbm&gt;=1.17</title>
<path fill="none" stroke="#8b4513" d="M508.07,-936.41C510.92,-928.42 514.41,-918.64 517.63,-909.64"/>
<polygon fill="#8b4513" stroke="#8b4513" points="521.02,-910.55 521.09,-899.96 514.43,-908.2 521.02,-910.55"/>
</g>
<!-- db -->
<g id="node29" class="node">
<title>db</title>
<ellipse fill="green" stroke="green" cx="441.14" cy="-810" rx="27" ry="18"/>
<text text-anchor="middle" x="441.14" y="-806.3" font-family="Times,serif" font-size="14.00">db</text>
</g>
<!-- perl&#45;&gt;db -->
<g id="edge39" class="edge">
<title>perl&#45;&gt;db</title>
<path fill="none" stroke="#8b4513" d="M487.59,-938.5C478.37,-928.5 466.95,-914.44 460.14,-900 450.91,-880.4 446.12,-856.27 443.66,-838.08"/>
<polygon fill="#8b4513" stroke="#8b4513" points="447.13,-837.65 442.46,-828.14 440.18,-838.49 447.13,-837.65"/>
</g>
<!-- gdbm -->
<g id="node28" class="node">
<title>gdbm</title>
<ellipse fill="green" stroke="green" cx="527.14" cy="-810" rx="31.4" ry="18"/>
<text text-anchor="middle" x="527.14" y="-806.3" font-family="Times,serif" font-size="14.00">gdbm</text>
</g>
<!-- gdbm&gt;=1.17&#45;&gt;gdbm -->
<g id="edge35" class="edge">
<title>gdbm&gt;=1.17&#45;&gt;gdbm</title>
<path fill="none" stroke="grey" d="M527.14,-863.7C527.14,-852.85 527.14,-838.92 527.14,-828.1"/>
</g>
<!-- gdbm&#45;&gt;glibc -->
<g id="edge36" class="edge">
<title>gdbm&#45;&gt;glibc</title>
<path fill="none" stroke="#8b4513" d="M538.4,-792.8C555.01,-767.29 584.14,-715.61 584.14,-667 584.14,-667 584.14,-667 584.14,-305 584.14,-264.55 594.39,-243.94 565.14,-216 525.5,-178.13 360.66,-167.19 284.74,-164.14"/>
<polygon fill="#8b4513" stroke="#8b4513" points="284.76,-160.64 274.64,-163.76 284.5,-167.63 284.76,-160.64"/>
</g>
<!-- gdbm&#45;&gt;sh -->
<g id="edge37" class="edge">
<title>gdbm&#45;&gt;sh</title>
<path fill="none" stroke="#8b4513" d="M501.34,-799.71C493.6,-797.07 485.07,-794.29 477.14,-792 411.94,-773.18 334.62,-755.82 290.57,-746.39"/>
<polygon fill="#8b4513" stroke="#8b4513" points="291.15,-742.93 280.65,-744.28 289.7,-749.78 291.15,-742.93"/>
</g>
<!-- db&#45;&gt;sh -->
<g id="edge41" class="edge">
<title>db&#45;&gt;sh</title>
<path fill="none" stroke="#8b4513" d="M417.96,-800.28C385.06,-787.9 324.7,-765.18 287.43,-751.15"/>
<polygon fill="#8b4513" stroke="#8b4513" points="288.62,-747.86 278.03,-747.61 286.16,-754.41 288.62,-747.86"/>
</g>
<!-- db&#45;&gt;gcc&#45;libs -->
<g id="edge40" class="edge">
<title>db&#45;&gt;gcc&#45;libs</title>
<path fill="none" stroke="#8b4513" d="M459.43,-796.47C489.51,-774.2 546.14,-724.64 546.14,-667 546.14,-667 546.14,-667 546.14,-449 546.14,-406.67 527.74,-360.41 514.47,-332.56"/>
<polygon fill="#8b4513" stroke="#8b4513" points="517.58,-330.94 510.03,-323.51 511.3,-334.03 517.58,-330.94"/>
</g>
<!-- keyutils&#45;&gt;glibc -->
<g id="edge46" class="edge">
<title>keyutils&#45;&gt;glibc</title>
<path fill="none" stroke="#8b4513" d="M174.15,-791.96C172.7,-765.31 170.14,-712.14 170.14,-667 170.14,-667 170.14,-667 170.14,-305 170.14,-258.12 202.74,-211.74 225.24,-185.31"/>
<polygon fill="#8b4513" stroke="#8b4513" points="227.89,-187.6 231.85,-177.77 222.62,-182.98 227.89,-187.6"/>
</g>
<!-- keyutils&#45;&gt;sh -->
<g id="edge47" class="edge">
<title>keyutils&#45;&gt;sh</title>
<path fill="none" stroke="#8b4513" d="M192.5,-793.81C203.96,-783.78 219.12,-770.52 231.65,-759.55"/>
<polygon fill="#8b4513" stroke="#8b4513" points="234.22,-761.95 239.44,-752.74 229.61,-756.69 234.22,-761.95"/>
</g>
</g>
</svg>
