<?xml version="1.0" encoding="UTF-8" standalone="no"?>
<!DOCTYPE svg PUBLIC "-//W3C//DTD SVG 1.1//EN"
 "http://www.w3.org/Graphics/SVG/1.1/DTD/svg11.dtd">
<!-- Generated by graphviz version 2.44.0 (0)
 -->
<!-- Title: G Pages: 1 -->
<svg width="630pt" height="1268pt"
 viewBox="0.00 0.00 630.14 1268.00" xmlns="http://www.w3.org/2000/svg" xmlns:xlink="http://www.w3.org/1999/xlink">
<g id="graph0" class="graph" transform="scale(1 1) rotate(0) translate(4 1264)">
<title>G</title>
<polygon fill="white" stroke="transparent" points="-4,4 -4,-1264 626.14,-1264 626.14,4 -4,4"/>
<!-- START -->
<g id="node1" class="node">
<title>START</title>
<ellipse fill="red" stroke="red" cx="187.14" cy="-1242" rx="38.19" ry="18"/>
<text text-anchor="middle" x="187.14" y="-1238.3" font-family="Times,serif" font-size="14.00">START</text>
</g>
<!-- pciutils -->
<g id="node2" class="node">
<title>pciutils</title>
<ellipse fill="green" stroke="green" cx="187.14" cy="-1170" rx="36.29" ry="18"/>
<text text-anchor="middle" x="187.14" y="-1166.3" font-family="Times,serif" font-size="14.00">pciutils</text>
</g>
<!-- START&#45;&gt;pciutils -->
<g id="edge1" class="edge">
<title>START&#45;&gt;pciutils</title>
<path fill="none" stroke="black" d="M187.14,-1223.7C187.14,-1215.98 187.14,-1206.71 187.14,-1198.11"/>
<polygon fill="black" stroke="black" points="190.64,-1198.1 187.14,-1188.1 183.64,-1198.1 190.64,-1198.1"/>
</g>
<!-- glibc -->
<g id="node3" class="node">
<title>glibc</title>
<ellipse fill="green" stroke="green" cx="246.14" cy="-162" rx="28.7" ry="18"/>
<text text-anchor="middle" x="246.14" y="-158.3" font-family="Times,serif" font-size="14.00">glibc</text>
</g>
<!-- pciutils&#45;&gt;glibc -->
<g id="edge2" class="edge">
<title>pciutils&#45;&gt;glibc</title>
<path fill="none" stroke="#8b4513" d="M168.77,-1154.1C141.66,-1130.32 94.14,-1080.93 94.14,-1027 94.14,-1027 94.14,-1027 94.14,-305 94.14,-259.41 112.31,-247.63 145.14,-216 164.18,-197.65 190.85,-184.02 211.99,-175.18"/>
<polygon fill="#8b4513" stroke="#8b4513" points="213.3,-178.43 221.27,-171.46 210.69,-171.93 213.3,-178.43"/>
</g>
<!-- hwids -->
<g id="node9" class="node">
<title>hwids</title>
<ellipse fill="green" stroke="green" cx="269.14" cy="-1098" rx="31.7" ry="18"/>
<text text-anchor="middle" x="269.14" y="-1094.3" font-family="Times,serif" font-size="14.00">hwids</text>
</g>
<!-- pciutils&#45;&gt;hwids -->
<g id="edge8" class="edge">
<title>pciutils&#45;&gt;hwids</title>
<path fill="none" stroke="#8b4513" d="M204.53,-1154.15C216.21,-1144.18 231.77,-1130.9 244.69,-1119.87"/>
<polygon fill="#8b4513" stroke="#8b4513" points="247,-1122.5 252.34,-1113.35 242.46,-1117.18 247,-1122.5"/>
</g>
<!-- kmod -->
<g id="node10" class="node">
<title>kmod</title>
<ellipse fill="green" stroke="green" cx="187.14" cy="-1098" rx="31.7" ry="18"/>
<text text-anchor="middle" x="187.14" y="-1094.3" font-family="Times,serif" font-size="14.00">kmod</text>
</g>
<!-- pciutils&#45;&gt;kmod -->
<g id="edge9" class="edge">
<title>pciutils&#45;&gt;kmod</title>
<path fill="none" stroke="#8b4513" d="M187.14,-1151.7C187.14,-1143.98 187.14,-1134.71 187.14,-1126.11"/>
<polygon fill="#8b4513" stroke="#8b4513" points="190.64,-1126.1 187.14,-1116.1 183.64,-1126.1 190.64,-1126.1"/>
</g>
<!-- linux&#45;api&#45;headers&gt;=4.10 -->
<g id="node4" class="node">
<title>linux&#45;api&#45;headers&gt;=4.10</title>
<ellipse fill="green" stroke="green" cx="98.14" cy="-90" rx="98.28" ry="18"/>
<text text-anchor="middle" x="98.14" y="-86.3" font-family="Times,serif" font-size="14.00">linux&#45;api&#45;headers&gt;=4.10</text>
</g>
<!-- glibc&#45;&gt;linux&#45;api&#45;headers&gt;=4.10 -->
<g id="edge3" class="edge">
<title>glibc&#45;&gt;linux&#45;api&#45;headers&gt;=4.10</title>
<path fill="none" stroke="#8b4513" d="M223.98,-150.52C202.2,-140.22 168.37,-124.22 141.27,-111.4"/>
<polygon fill="#8b4513" stroke="#8b4513" points="142.53,-108.12 132,-107.01 139.54,-114.45 142.53,-108.12"/>
</g>
<!-- tzdata -->
<g id="node6" class="node">
<title>tzdata</title>
<ellipse fill="green" stroke="green" cx="246.14" cy="-90" rx="31.7" ry="18"/>
<text text-anchor="middle" x="246.14" y="-86.3" font-family="Times,serif" font-size="14.00">tzdata</text>
</g>
<!-- glibc&#45;&gt;tzdata -->
<g id="edge5" class="edge">
<title>glibc&#45;&gt;tzdata</title>
<path fill="none" stroke="#8b4513" d="M246.14,-143.7C246.14,-135.98 246.14,-126.71 246.14,-118.11"/>
<polygon fill="#8b4513" stroke="#8b4513" points="249.64,-118.1 246.14,-108.1 242.64,-118.1 249.64,-118.1"/>
</g>
<!-- filesystem -->
<g id="node7" class="node">
<title>filesystem</title>
<ellipse fill="green" stroke="green" cx="343.14" cy="-90" rx="46.59" ry="18"/>
<text text-anchor="middle" x="343.14" y="-86.3" font-family="Times,serif" font-size="14.00">filesystem</text>
</g>
<!-- glibc&#45;&gt;filesystem -->
<g id="edge6" class="edge">
<title>glibc&#45;&gt;filesystem</title>
<path fill="none" stroke="#8b4513" d="M264.39,-147.83C278.19,-137.88 297.42,-123.99 313.43,-112.44"/>
<polygon fill="#8b4513" stroke="#8b4513" points="315.88,-114.99 321.94,-106.3 311.78,-109.31 315.88,-114.99"/>
</g>
<!-- linux&#45;api&#45;headers -->
<g id="node5" class="node">
<title>linux&#45;api&#45;headers</title>
<ellipse fill="green" stroke="green" cx="98.14" cy="-18" rx="71.49" ry="18"/>
<text text-anchor="middle" x="98.14" y="-14.3" font-family="Times,serif" font-size="14.00">linux&#45;api&#45;headers</text>
</g>
<!-- linux&#45;api&#45;headers&gt;=4.10&#45;&gt;linux&#45;api&#45;headers -->
<g id="edge4" class="edge">
<title>linux&#45;api&#45;headers&gt;=4.10&#45;&gt;linux&#45;api&#45;headers</title>
<path fill="none" stroke="grey" d="M98.14,-71.7C98.14,-60.85 98.14,-46.92 98.14,-36.1"/>
</g>
<!-- iana&#45;etc -->
<g id="node8" class="node">
<title>iana&#45;etc</title>
<ellipse fill="green" stroke="green" cx="343.14" cy="-18" rx="38.19" ry="18"/>
<text text-anchor="middle" x="343.14" y="-14.3" font-family="Times,serif" font-size="14.00">iana&#45;etc</text>
</g>
<!-- filesystem&#45;&gt;iana&#45;etc -->
<g id="edge7" class="edge">
<title>filesystem&#45;&gt;iana&#45;etc</title>
<path fill="none" stroke="#8b4513" d="M343.14,-71.7C343.14,-63.98 343.14,-54.71 343.14,-46.11"/>
<polygon fill="#8b4513" stroke="#8b4513" points="346.64,-46.1 343.14,-36.1 339.64,-46.1 346.64,-46.1"/>
</g>
<!-- kmod&#45;&gt;glibc -->
<g id="edge10" class="edge">
<title>kmod&#45;&gt;glibc</title>
<path fill="none" stroke="#8b4513" d="M176.28,-1080.75C160.25,-1055.15 132.14,-1003.38 132.14,-955 132.14,-955 132.14,-955 132.14,-305 132.14,-250.44 183.95,-204.91 217.71,-181.03"/>
<polygon fill="#8b4513" stroke="#8b4513" points="220.01,-183.69 226.28,-175.15 216.06,-177.92 220.01,-183.69"/>
</g>
<!-- zlib -->
<g id="node11" class="node">
<title>zlib</title>
<ellipse fill="green" stroke="green" cx="187.14" cy="-954" rx="27" ry="18"/>
<text text-anchor="middle" x="187.14" y="-950.3" font-family="Times,serif" font-size="14.00">zlib</text>
</g>
<!-- kmod&#45;&gt;zlib -->
<g id="edge11" class="edge">
<title>kmod&#45;&gt;zlib</title>
<path fill="none" stroke="#8b4513" d="M187.14,-1079.87C187.14,-1055.67 187.14,-1011.21 187.14,-982.39"/>
<polygon fill="#8b4513" stroke="#8b4513" points="190.64,-982.19 187.14,-972.19 183.64,-982.19 190.64,-982.19"/>
</g>
<!-- openssl -->
<g id="node12" class="node">
<title>openssl</title>
<ellipse fill="green" stroke="green" cx="351.14" cy="-1026" rx="37.09" ry="18"/>
<text text-anchor="middle" x="351.14" y="-1022.3" font-family="Times,serif" font-size="14.00">openssl</text>
</g>
<!-- kmod&#45;&gt;openssl -->
<g id="edge13" class="edge">
<title>kmod&#45;&gt;openssl</title>
<path fill="none" stroke="#8b4513" d="M211.69,-1086.52C239.06,-1074.84 283.6,-1055.83 314.96,-1042.44"/>
<polygon fill="#8b4513" stroke="#8b4513" points="316.41,-1045.63 324.24,-1038.48 313.67,-1039.19 316.41,-1045.63"/>
</g>
<!-- xz -->
<g id="node25" class="node">
<title>xz</title>
<ellipse fill="green" stroke="green" cx="268.14" cy="-882" rx="27" ry="18"/>
<text text-anchor="middle" x="268.14" y="-878.3" font-family="Times,serif" font-size="14.00">xz</text>
</g>
<!-- kmod&#45;&gt;xz -->
<g id="edge36" class="edge">
<title>kmod&#45;&gt;xz</title>
<path fill="none" stroke="#8b4513" d="M193.5,-1080.21C207.54,-1043.09 241.32,-953.86 258.2,-909.27"/>
<polygon fill="#8b4513" stroke="#8b4513" points="261.55,-910.31 261.81,-899.71 255,-907.83 261.55,-910.31"/>
</g>
<!-- zlib&#45;&gt;glibc -->
<g id="edge12" class="edge">
<title>zlib&#45;&gt;glibc</title>
<path fill="none" stroke="#8b4513" d="M183.78,-936.03C178.83,-909.48 170.14,-856.44 170.14,-811 170.14,-811 170.14,-811 170.14,-305 170.14,-258.12 202.74,-211.74 225.24,-185.31"/>
<polygon fill="#8b4513" stroke="#8b4513" points="227.89,-187.6 231.85,-177.77 222.62,-182.98 227.89,-187.6"/>
</g>
<!-- perl -->
<g id="node13" class="node">
<title>perl</title>
<ellipse fill="green" stroke="green" cx="427.14" cy="-954" rx="27" ry="18"/>
<text text-anchor="middle" x="427.14" y="-950.3" font-family="Times,serif" font-size="14.00">perl</text>
</g>
<!-- openssl&#45;&gt;perl -->
<g id="edge14" class="edge">
<title>openssl&#45;&gt;perl</title>
<path fill="none" stroke="#8b4513" d="M367.63,-1009.81C378.45,-999.85 392.73,-986.7 404.59,-975.77"/>
<polygon fill="#8b4513" stroke="#8b4513" points="406.99,-978.32 411.97,-968.97 402.25,-973.17 406.99,-978.32"/>
</g>
<!-- perl&#45;&gt;glibc -->
<g id="edge35" class="edge">
<title>perl&#45;&gt;glibc</title>
<path fill="none" stroke="#8b4513" d="M452.23,-947.31C504.9,-933.72 622.14,-894.13 622.14,-811 622.14,-811 622.14,-811 622.14,-305 622.14,-252.98 591.3,-241.82 546.14,-216 502.03,-190.78 355.14,-173.56 284.6,-166.54"/>
<polygon fill="#8b4513" stroke="#8b4513" points="284.66,-163.03 274.37,-165.54 283.98,-170 284.66,-163.03"/>
</g>
<!-- gdbm&gt;=1.17 -->
<g id="node14" class="node">
<title>gdbm&gt;=1.17</title>
<ellipse fill="green" stroke="green" cx="384.14" cy="-882" rx="57.69" ry="18"/>
<text text-anchor="middle" x="384.14" y="-878.3" font-family="Times,serif" font-size="14.00">gdbm&gt;=1.17</text>
</g>
<!-- perl&#45;&gt;gdbm&gt;=1.17 -->
<g id="edge15" class="edge">
<title>perl&#45;&gt;gdbm&gt;=1.17</title>
<path fill="none" stroke="#8b4513" d="M417.38,-937.12C412.2,-928.68 405.71,-918.1 399.83,-908.55"/>
<polygon fill="#8b4513" stroke="#8b4513" points="402.68,-906.49 394.46,-899.8 396.71,-910.15 402.68,-906.49"/>
</g>
<!-- db -->
<g id="node24" class="node">
<title>db</title>
<ellipse fill="green" stroke="green" cx="470.14" cy="-810" rx="27" ry="18"/>
<text text-anchor="middle" x="470.14" y="-806.3" font-family="Times,serif" font-size="14.00">db</text>
</g>
<!-- perl&#45;&gt;db -->
<g id="edge32" class="edge">
<title>perl&#45;&gt;db</title>
<path fill="none" stroke="#8b4513" d="M435.65,-936.66C440.72,-926.36 446.98,-912.67 451.14,-900 457.84,-879.65 462.77,-855.88 465.93,-838.03"/>
<polygon fill="#8b4513" stroke="#8b4513" points="469.41,-838.46 467.63,-828.02 462.5,-837.29 469.41,-838.46"/>
</g>
<!-- gdbm -->
<g id="node15" class="node">
<title>gdbm</title>
<ellipse fill="green" stroke="green" cx="384.14" cy="-810" rx="31.4" ry="18"/>
<text text-anchor="middle" x="384.14" y="-806.3" font-family="Times,serif" font-size="14.00">gdbm</text>
</g>
<!-- gdbm&gt;=1.17&#45;&gt;gdbm -->
<g id="edge16" class="edge">
<title>gdbm&gt;=1.17&#45;&gt;gdbm</title>
<path fill="none" stroke="grey" d="M384.14,-863.7C384.14,-852.85 384.14,-838.92 384.14,-828.1"/>
</g>
<!-- gdbm&#45;&gt;glibc -->
<g id="edge17" class="edge">
<title>gdbm&#45;&gt;glibc</title>
<path fill="none" stroke="#8b4513" d="M357.03,-801.07C307.66,-784.78 208.14,-742.58 208.14,-667 208.14,-667 208.14,-667 208.14,-305 208.14,-263.41 223.54,-217.22 234.74,-189.14"/>
<polygon fill="#8b4513" stroke="#8b4513" points="238.07,-190.24 238.63,-179.66 231.59,-187.58 238.07,-190.24"/>
</g>
<!-- sh -->
<g id="node16" class="node">
<title>sh</title>
<ellipse fill="green" stroke="green" cx="387.14" cy="-738" rx="27" ry="18"/>
<text text-anchor="middle" x="387.14" y="-734.3" font-family="Times,serif" font-size="14.00">sh</text>
</g>
<!-- gdbm&#45;&gt;sh -->
<g id="edge18" class="edge">
<title>gdbm&#45;&gt;sh</title>
<path fill="none" stroke="#8b4513" d="M384.88,-791.7C385.21,-783.98 385.61,-774.71 385.98,-766.11"/>
<polygon fill="#8b4513" stroke="#8b4513" points="389.48,-766.25 386.41,-756.1 382.48,-765.95 389.48,-766.25"/>
</g>
<!-- bash -->
<g id="node17" class="node">
<title>bash</title>
<ellipse fill="green" stroke="green" cx="387.14" cy="-666" rx="27" ry="18"/>
<text text-anchor="middle" x="387.14" y="-662.3" font-family="Times,serif" font-size="14.00">bash</text>
</g>
<!-- sh&#45;&gt;bash -->
<g id="edge19" class="edge">
<title>sh&#45;&gt;bash</title>
<path fill="none" stroke="grey" d="M381.3,-720.41C380.1,-709.41 380.09,-695.03 381.26,-683.96"/>
</g>
<!-- sh&#45;&gt;bash -->
<g id="edge38" class="edge">
<title>sh&#45;&gt;bash</title>
<path fill="none" stroke="grey" d="M392.98,-720.41C394.18,-709.41 394.19,-695.03 393.02,-683.96"/>
</g>
<!-- bash&#45;&gt;glibc -->
<g id="edge30" class="edge">
<title>bash&#45;&gt;glibc</title>
<path fill="none" stroke="#8b4513" d="M365.11,-655.32C325.45,-636.23 246.14,-589.7 246.14,-523 246.14,-523 246.14,-523 246.14,-305 246.14,-265 246.14,-218.65 246.14,-190.08"/>
<polygon fill="#8b4513" stroke="#8b4513" points="249.64,-190.05 246.14,-180.05 242.64,-190.05 249.64,-190.05"/>
</g>
<!-- readline&gt;=7.0 -->
<g id="node18" class="node">
<title>readline&gt;=7.0</title>
<ellipse fill="green" stroke="green" cx="388.14" cy="-594" rx="61.19" ry="18"/>
<text text-anchor="middle" x="388.14" y="-590.3" font-family="Times,serif" font-size="14.00">readline&gt;=7.0</text>
</g>
<!-- bash&#45;&gt;readline&gt;=7.0 -->
<g id="edge20" class="edge">
<title>bash&#45;&gt;readline&gt;=7.0</title>
<path fill="none" stroke="#8b4513" d="M387.39,-647.7C387.5,-639.98 387.63,-630.71 387.75,-622.11"/>
<polygon fill="#8b4513" stroke="#8b4513" points="391.25,-622.15 387.9,-612.1 384.25,-622.05 391.25,-622.15"/>
</g>
<!-- ncurses -->
<g id="node20" class="node">
<title>ncurses</title>
<ellipse fill="green" stroke="green" cx="495.14" cy="-378" rx="37.09" ry="18"/>
<text text-anchor="middle" x="495.14" y="-374.3" font-family="Times,serif" font-size="14.00">ncurses</text>
</g>
<!-- bash&#45;&gt;ncurses -->
<g id="edge31" class="edge">
<title>bash&#45;&gt;ncurses</title>
<path fill="none" stroke="#8b4513" d="M407.86,-654.09C423.65,-644.81 444.88,-630.12 458.14,-612 507.18,-545 518.1,-514.43 508.14,-432 507.1,-423.4 505.15,-414.19 503.06,-405.89"/>
<polygon fill="#8b4513" stroke="#8b4513" points="506.38,-404.75 500.42,-395.99 499.62,-406.56 506.38,-404.75"/>
</g>
<!-- readline -->
<g id="node19" class="node">
<title>readline</title>
<ellipse fill="green" stroke="green" cx="390.14" cy="-522" rx="38.99" ry="18"/>
<text text-anchor="middle" x="390.14" y="-518.3" font-family="Times,serif" font-size="14.00">readline</text>
</g>
<!-- readline&gt;=7.0&#45;&gt;readline -->
<g id="edge21" class="edge">
<title>readline&gt;=7.0&#45;&gt;readline</title>
<path fill="none" stroke="grey" d="M388.64,-575.7C388.95,-564.85 389.34,-550.92 389.65,-540.1"/>
</g>
<!-- readline&#45;&gt;glibc -->
<g id="edge22" class="edge">
<title>readline&#45;&gt;glibc</title>
<path fill="none" stroke="#8b4513" d="M360.31,-510.1C341.09,-501.55 317.16,-487.76 303.14,-468 279.74,-435.01 284.14,-419.45 284.14,-379 284.14,-379 284.14,-379 284.14,-305 284.14,-263.41 268.74,-217.22 257.55,-189.14"/>
<polygon fill="#8b4513" stroke="#8b4513" points="260.69,-187.58 253.65,-179.66 254.21,-190.24 260.69,-187.58"/>
</g>
<!-- readline&#45;&gt;ncurses -->
<g id="edge23" class="edge">
<title>readline&#45;&gt;ncurses</title>
<path fill="none" stroke="#8b4513" d="M423.58,-512.34C446.12,-504.63 474.34,-490.93 489.14,-468 500.85,-449.86 501.59,-425.08 499.83,-406.28"/>
<polygon fill="#8b4513" stroke="#8b4513" points="503.29,-405.76 498.61,-396.26 496.34,-406.61 503.29,-405.76"/>
</g>
<!-- libncursesw.so=6&#45;64 -->
<g id="node23" class="node">
<title>libncursesw.so=6&#45;64</title>
<ellipse fill="green" stroke="green" cx="396.14" cy="-450" rx="83.69" ry="18"/>
<text text-anchor="middle" x="396.14" y="-446.3" font-family="Times,serif" font-size="14.00">libncursesw.so=6&#45;64</text>
</g>
<!-- readline&#45;&gt;libncursesw.so=6&#45;64 -->
<g id="edge28" class="edge">
<title>readline&#45;&gt;libncursesw.so=6&#45;64</title>
<path fill="none" stroke="#8b4513" d="M391.62,-503.7C392.29,-495.98 393.08,-486.71 393.82,-478.11"/>
<polygon fill="#8b4513" stroke="#8b4513" points="397.31,-478.37 394.68,-468.1 390.33,-477.77 397.31,-478.37"/>
</g>
<!-- ncurses&#45;&gt;glibc -->
<g id="edge24" class="edge">
<title>ncurses&#45;&gt;glibc</title>
<path fill="none" stroke="#8b4513" d="M477.63,-361.95C433.91,-324.37 319.86,-226.36 270.03,-183.53"/>
<polygon fill="#8b4513" stroke="#8b4513" points="272.19,-180.77 262.33,-176.91 267.63,-186.08 272.19,-180.77"/>
</g>
<!-- gcc&#45;libs -->
<g id="node21" class="node">
<title>gcc&#45;libs</title>
<ellipse fill="green" stroke="green" cx="495.14" cy="-306" rx="38.19" ry="18"/>
<text text-anchor="middle" x="495.14" y="-302.3" font-family="Times,serif" font-size="14.00">gcc&#45;libs</text>
</g>
<!-- ncurses&#45;&gt;gcc&#45;libs -->
<g id="edge25" class="edge">
<title>ncurses&#45;&gt;gcc&#45;libs</title>
<path fill="none" stroke="#8b4513" d="M495.14,-359.7C495.14,-351.98 495.14,-342.71 495.14,-334.11"/>
<polygon fill="#8b4513" stroke="#8b4513" points="498.64,-334.1 495.14,-324.1 491.64,-334.1 498.64,-334.1"/>
</g>
<!-- glibc&gt;=2.27 -->
<g id="node22" class="node">
<title>glibc&gt;=2.27</title>
<ellipse fill="green" stroke="green" cx="482.14" cy="-234" rx="54.69" ry="18"/>
<text text-anchor="middle" x="482.14" y="-230.3" font-family="Times,serif" font-size="14.00">glibc&gt;=2.27</text>
</g>
<!-- gcc&#45;libs&#45;&gt;glibc&gt;=2.27 -->
<g id="edge26" class="edge">
<title>gcc&#45;libs&#45;&gt;glibc&gt;=2.27</title>
<path fill="none" stroke="#8b4513" d="M491.99,-288.05C490.56,-280.35 488.83,-271.03 487.22,-262.36"/>
<polygon fill="#8b4513" stroke="#8b4513" points="490.62,-261.47 485.35,-252.28 483.73,-262.75 490.62,-261.47"/>
</g>
<!-- glibc&gt;=2.27&#45;&gt;glibc -->
<g id="edge27" class="edge">
<title>glibc&gt;=2.27&#45;&gt;glibc</title>
<path fill="none" stroke="grey" d="M442.91,-221.36C394.28,-206.94 312.81,-182.77 271.63,-170.56"/>
</g>
<!-- libncursesw.so=6&#45;64&#45;&gt;ncurses -->
<g id="edge29" class="edge">
<title>libncursesw.so=6&#45;64&#45;&gt;ncurses</title>
<path fill="none" stroke="grey" d="M419.35,-432.59C436.27,-420.63 458.96,-404.59 475.09,-393.18"/>
</g>
<!-- db&#45;&gt;sh -->
<g id="edge34" class="edge">
<title>db&#45;&gt;sh</title>
<path fill="none" stroke="#8b4513" d="M453.74,-795.17C441.5,-784.85 424.59,-770.58 410.87,-759.01"/>
<polygon fill="#8b4513" stroke="#8b4513" points="413.12,-756.33 403.22,-752.56 408.61,-761.69 413.12,-756.33"/>
</g>
<!-- db&#45;&gt;gcc&#45;libs -->
<g id="edge33" class="edge">
<title>db&#45;&gt;gcc&#45;libs</title>
<path fill="none" stroke="#8b4513" d="M489.48,-797.19C522,-775.67 584.14,-726.75 584.14,-667 584.14,-667 584.14,-667 584.14,-449 584.14,-400.54 546.47,-355.03 520.14,-329.14"/>
<polygon fill="#8b4513" stroke="#8b4513" points="522.38,-326.44 512.72,-322.07 517.54,-331.5 522.38,-326.44"/>
</g>
<!-- xz&#45;&gt;sh -->
<g id="edge37" class="edge">
<title>xz&#45;&gt;sh</title>
<path fill="none" stroke="#8b4513" d="M280.88,-865.8C301.72,-840.93 343.26,-791.36 367.77,-762.11"/>
<polygon fill="#8b4513" stroke="#8b4513" points="370.76,-764 374.5,-754.09 365.39,-759.5 370.76,-764"/>
</g>
</g>
</svg>
