<?xml version="1.0" encoding="UTF-8" standalone="no"?>
<!DOCTYPE svg PUBLIC "-//W3C//DTD SVG 1.1//EN"
 "http://www.w3.org/Graphics/SVG/1.1/DTD/svg11.dtd">
<!-- Generated by graphviz version 2.44.0 (0)
 -->
<!-- Title: G Pages: 1 -->
<svg width="466pt" height="980pt"
 viewBox="0.00 0.00 466.00 980.00" xmlns="http://www.w3.org/2000/svg" xmlns:xlink="http://www.w3.org/1999/xlink">
<g id="graph0" class="graph" transform="scale(1 1) rotate(0) translate(4 976)">
<title>G</title>
<polygon fill="white" stroke="transparent" points="-4,4 -4,-976 462,-976 462,4 -4,4"/>
<!-- START -->
<g id="node1" class="node">
<title>START</title>
<ellipse fill="red" stroke="red" cx="253" cy="-954" rx="38.19" ry="18"/>
<text text-anchor="middle" x="253" y="-950.3" font-family="Times,serif" font-size="14.00">START</text>
</g>
<!-- pcre -->
<g id="node2" class="node">
<title>pcre</title>
<ellipse fill="green" stroke="green" cx="253" cy="-882" rx="27" ry="18"/>
<text text-anchor="middle" x="253" y="-878.3" font-family="Times,serif" font-size="14.00">pcre</text>
</g>
<!-- START&#45;&gt;pcre -->
<g id="edge1" class="edge">
<title>START&#45;&gt;pcre</title>
<path fill="none" stroke="black" d="M253,-935.7C253,-927.98 253,-918.71 253,-910.11"/>
<polygon fill="black" stroke="black" points="256.5,-910.1 253,-900.1 249.5,-910.1 256.5,-910.1"/>
</g>
<!-- gcc&#45;libs -->
<g id="node3" class="node">
<title>gcc&#45;libs</title>
<ellipse fill="green" stroke="green" cx="141" cy="-306" rx="38.19" ry="18"/>
<text text-anchor="middle" x="141" y="-302.3" font-family="Times,serif" font-size="14.00">gcc&#45;libs</text>
</g>
<!-- pcre&#45;&gt;gcc&#45;libs -->
<g id="edge2" class="edge">
<title>pcre&#45;&gt;gcc&#45;libs</title>
<path fill="none" stroke="#8b4513" d="M226.4,-878.58C161.45,-871.06 0,-842 0,-739 0,-739 0,-739 0,-449 0,-389.41 63.3,-345.92 105.07,-323.71"/>
<polygon fill="#8b4513" stroke="#8b4513" points="106.86,-326.73 114.15,-319.04 103.65,-320.51 106.86,-326.73"/>
</g>
<!-- readline -->
<g id="node11" class="node">
<title>readline</title>
<ellipse fill="green" stroke="green" cx="150" cy="-522" rx="38.99" ry="18"/>
<text text-anchor="middle" x="150" y="-518.3" font-family="Times,serif" font-size="14.00">readline</text>
</g>
<!-- pcre&#45;&gt;readline -->
<g id="edge10" class="edge">
<title>pcre&#45;&gt;readline</title>
<path fill="none" stroke="#8b4513" d="M231.95,-870.58C194.92,-850.58 122,-803.06 122,-739 122,-739 122,-739 122,-665 122,-624.23 133.25,-578.09 141.49,-549.77"/>
<polygon fill="#8b4513" stroke="#8b4513" points="144.95,-550.42 144.47,-539.84 138.24,-548.41 144.95,-550.42"/>
</g>
<!-- zlib -->
<g id="node14" class="node">
<title>zlib</title>
<ellipse fill="green" stroke="green" cx="431" cy="-738" rx="27" ry="18"/>
<text text-anchor="middle" x="431" y="-734.3" font-family="Times,serif" font-size="14.00">zlib</text>
</g>
<!-- pcre&#45;&gt;zlib -->
<g id="edge17" class="edge">
<title>pcre&#45;&gt;zlib</title>
<path fill="none" stroke="#8b4513" d="M275.59,-871.68C296.59,-862.4 328.13,-846.84 352,-828 376.16,-808.93 398.95,-781.92 413.78,-762.67"/>
<polygon fill="#8b4513" stroke="#8b4513" points="416.59,-764.77 419.83,-754.68 411,-760.54 416.59,-764.77"/>
</g>
<!-- bzip2 -->
<g id="node15" class="node">
<title>bzip2</title>
<ellipse fill="green" stroke="green" cx="312" cy="-810" rx="30.59" ry="18"/>
<text text-anchor="middle" x="312" y="-806.3" font-family="Times,serif" font-size="14.00">bzip2</text>
</g>
<!-- pcre&#45;&gt;bzip2 -->
<g id="edge19" class="edge">
<title>pcre&#45;&gt;bzip2</title>
<path fill="none" stroke="#8b4513" d="M265.8,-865.81C273.5,-856.67 283.47,-844.85 292.17,-834.52"/>
<polygon fill="#8b4513" stroke="#8b4513" points="295.05,-836.55 298.81,-826.64 289.69,-832.03 295.05,-836.55"/>
</g>
<!-- bash -->
<g id="node17" class="node">
<title>bash</title>
<ellipse fill="green" stroke="green" cx="300" cy="-666" rx="27" ry="18"/>
<text text-anchor="middle" x="300" y="-662.3" font-family="Times,serif" font-size="14.00">bash</text>
</g>
<!-- pcre&#45;&gt;bash -->
<g id="edge27" class="edge">
<title>pcre&#45;&gt;bash</title>
<path fill="none" stroke="#8b4513" d="M253.42,-863.7C254.55,-833.78 258.7,-770.74 274,-720 276.84,-710.59 281.2,-700.79 285.54,-692.22"/>
<polygon fill="#8b4513" stroke="#8b4513" points="288.76,-693.62 290.36,-683.14 282.58,-690.33 288.76,-693.62"/>
</g>
<!-- glibc&gt;=2.27 -->
<g id="node4" class="node">
<title>glibc&gt;=2.27</title>
<ellipse fill="green" stroke="green" cx="141" cy="-234" rx="54.69" ry="18"/>
<text text-anchor="middle" x="141" y="-230.3" font-family="Times,serif" font-size="14.00">glibc&gt;=2.27</text>
</g>
<!-- gcc&#45;libs&#45;&gt;glibc&gt;=2.27 -->
<g id="edge3" class="edge">
<title>gcc&#45;libs&#45;&gt;glibc&gt;=2.27</title>
<path fill="none" stroke="#8b4513" d="M141,-287.7C141,-279.98 141,-270.71 141,-262.11"/>
<polygon fill="#8b4513" stroke="#8b4513" points="144.5,-262.1 141,-252.1 137.5,-262.1 144.5,-262.1"/>
</g>
<!-- glibc -->
<g id="node5" class="node">
<title>glibc</title>
<ellipse fill="green" stroke="green" cx="300" cy="-162" rx="28.7" ry="18"/>
<text text-anchor="middle" x="300" y="-158.3" font-family="Times,serif" font-size="14.00">glibc</text>
</g>
<!-- glibc&gt;=2.27&#45;&gt;glibc -->
<g id="edge4" class="edge">
<title>glibc&gt;=2.27&#45;&gt;glibc</title>
<path fill="none" stroke="grey" d="M172.41,-219.17C203.18,-205.62 249.35,-185.3 276.9,-173.17"/>
</g>
<!-- linux&#45;api&#45;headers&gt;=4.10 -->
<g id="node6" class="node">
<title>linux&#45;api&#45;headers&gt;=4.10</title>
<ellipse fill="green" stroke="green" cx="152" cy="-90" rx="98.28" ry="18"/>
<text text-anchor="middle" x="152" y="-86.3" font-family="Times,serif" font-size="14.00">linux&#45;api&#45;headers&gt;=4.10</text>
</g>
<!-- glibc&#45;&gt;linux&#45;api&#45;headers&gt;=4.10 -->
<g id="edge5" class="edge">
<title>glibc&#45;&gt;linux&#45;api&#45;headers&gt;=4.10</title>
<path fill="none" stroke="#8b4513" d="M277.84,-150.52C256.06,-140.22 222.23,-124.22 195.13,-111.4"/>
<polygon fill="#8b4513" stroke="#8b4513" points="196.39,-108.12 185.85,-107.01 193.4,-114.45 196.39,-108.12"/>
</g>
<!-- tzdata -->
<g id="node8" class="node">
<title>tzdata</title>
<ellipse fill="green" stroke="green" cx="300" cy="-90" rx="31.7" ry="18"/>
<text text-anchor="middle" x="300" y="-86.3" font-family="Times,serif" font-size="14.00">tzdata</text>
</g>
<!-- glibc&#45;&gt;tzdata -->
<g id="edge7" class="edge">
<title>glibc&#45;&gt;tzdata</title>
<path fill="none" stroke="#8b4513" d="M300,-143.7C300,-135.98 300,-126.71 300,-118.11"/>
<polygon fill="#8b4513" stroke="#8b4513" points="303.5,-118.1 300,-108.1 296.5,-118.1 303.5,-118.1"/>
</g>
<!-- filesystem -->
<g id="node9" class="node">
<title>filesystem</title>
<ellipse fill="green" stroke="green" cx="397" cy="-90" rx="46.59" ry="18"/>
<text text-anchor="middle" x="397" y="-86.3" font-family="Times,serif" font-size="14.00">filesystem</text>
</g>
<!-- glibc&#45;&gt;filesystem -->
<g id="edge8" class="edge">
<title>glibc&#45;&gt;filesystem</title>
<path fill="none" stroke="#8b4513" d="M318.24,-147.83C332.04,-137.88 351.28,-123.99 367.29,-112.44"/>
<polygon fill="#8b4513" stroke="#8b4513" points="369.74,-114.99 375.8,-106.3 365.64,-109.31 369.74,-114.99"/>
</g>
<!-- linux&#45;api&#45;headers -->
<g id="node7" class="node">
<title>linux&#45;api&#45;headers</title>
<ellipse fill="green" stroke="green" cx="152" cy="-18" rx="71.49" ry="18"/>
<text text-anchor="middle" x="152" y="-14.3" font-family="Times,serif" font-size="14.00">linux&#45;api&#45;headers</text>
</g>
<!-- linux&#45;api&#45;headers&gt;=4.10&#45;&gt;linux&#45;api&#45;headers -->
<g id="edge6" class="edge">
<title>linux&#45;api&#45;headers&gt;=4.10&#45;&gt;linux&#45;api&#45;headers</title>
<path fill="none" stroke="grey" d="M152,-71.7C152,-60.85 152,-46.92 152,-36.1"/>
</g>
<!-- iana&#45;etc -->
<g id="node10" class="node">
<title>iana&#45;etc</title>
<ellipse fill="green" stroke="green" cx="397" cy="-18" rx="38.19" ry="18"/>
<text text-anchor="middle" x="397" y="-14.3" font-family="Times,serif" font-size="14.00">iana&#45;etc</text>
</g>
<!-- filesystem&#45;&gt;iana&#45;etc -->
<g id="edge9" class="edge">
<title>filesystem&#45;&gt;iana&#45;etc</title>
<path fill="none" stroke="#8b4513" d="M397,-71.7C397,-63.98 397,-54.71 397,-46.11"/>
<polygon fill="#8b4513" stroke="#8b4513" points="400.5,-46.1 397,-36.1 393.5,-46.1 400.5,-46.1"/>
</g>
<!-- readline&#45;&gt;glibc -->
<g id="edge11" class="edge">
<title>readline&#45;&gt;glibc</title>
<path fill="none" stroke="#8b4513" d="M180.96,-510.97C201.64,-502.68 227.75,-488.85 243,-468 266.88,-435.36 262,-419.45 262,-379 262,-379 262,-379 262,-305 262,-263.41 277.4,-217.22 288.6,-189.14"/>
<polygon fill="#8b4513" stroke="#8b4513" points="291.93,-190.24 292.49,-179.66 285.45,-187.58 291.93,-190.24"/>
</g>
<!-- ncurses -->
<g id="node12" class="node">
<title>ncurses</title>
<ellipse fill="green" stroke="green" cx="150" cy="-378" rx="37.09" ry="18"/>
<text text-anchor="middle" x="150" y="-374.3" font-family="Times,serif" font-size="14.00">ncurses</text>
</g>
<!-- readline&#45;&gt;ncurses -->
<g id="edge12" class="edge">
<title>readline&#45;&gt;ncurses</title>
<path fill="none" stroke="#8b4513" d="M117.61,-511.9C96.28,-504.04 69.98,-490.33 57,-468 48.96,-454.17 48.96,-445.83 57,-432 68.31,-412.53 89.75,-399.62 109.2,-391.42"/>
<polygon fill="#8b4513" stroke="#8b4513" points="110.5,-394.67 118.53,-387.76 107.94,-388.15 110.5,-394.67"/>
</g>
<!-- libncursesw.so=6&#45;64 -->
<g id="node13" class="node">
<title>libncursesw.so=6&#45;64</title>
<ellipse fill="green" stroke="green" cx="150" cy="-450" rx="83.69" ry="18"/>
<text text-anchor="middle" x="150" y="-446.3" font-family="Times,serif" font-size="14.00">libncursesw.so=6&#45;64</text>
</g>
<!-- readline&#45;&gt;libncursesw.so=6&#45;64 -->
<g id="edge15" class="edge">
<title>readline&#45;&gt;libncursesw.so=6&#45;64</title>
<path fill="none" stroke="#8b4513" d="M150,-503.7C150,-495.98 150,-486.71 150,-478.11"/>
<polygon fill="#8b4513" stroke="#8b4513" points="153.5,-478.1 150,-468.1 146.5,-478.1 153.5,-478.1"/>
</g>
<!-- ncurses&#45;&gt;gcc&#45;libs -->
<g id="edge14" class="edge">
<title>ncurses&#45;&gt;gcc&#45;libs</title>
<path fill="none" stroke="#8b4513" d="M147.78,-359.7C146.78,-351.98 145.59,-342.71 144.49,-334.11"/>
<polygon fill="#8b4513" stroke="#8b4513" points="147.95,-333.58 143.2,-324.1 141,-334.47 147.95,-333.58"/>
</g>
<!-- ncurses&#45;&gt;glibc -->
<g id="edge13" class="edge">
<title>ncurses&#45;&gt;glibc</title>
<path fill="none" stroke="#8b4513" d="M162.48,-360.63C170.15,-350.32 180,-336.63 188,-324 217.38,-277.61 215.14,-259.99 248,-216 256.4,-204.75 267.06,-193.49 276.54,-184.25"/>
<polygon fill="#8b4513" stroke="#8b4513" points="279,-186.75 283.83,-177.32 274.17,-181.68 279,-186.75"/>
</g>
<!-- libncursesw.so=6&#45;64&#45;&gt;ncurses -->
<g id="edge16" class="edge">
<title>libncursesw.so=6&#45;64&#45;&gt;ncurses</title>
<path fill="none" stroke="grey" d="M150,-431.7C150,-420.85 150,-406.92 150,-396.1"/>
</g>
<!-- zlib&#45;&gt;glibc -->
<g id="edge18" class="edge">
<title>zlib&#45;&gt;glibc</title>
<path fill="none" stroke="#8b4513" d="M429.22,-719.97C426.6,-693.34 422,-640.21 422,-595 422,-595 422,-595 422,-305 422,-262.97 416.82,-248.37 390,-216 375.06,-197.96 352.28,-184.63 333.38,-175.85"/>
<polygon fill="#8b4513" stroke="#8b4513" points="334.75,-172.63 324.19,-171.79 331.92,-179.04 334.75,-172.63"/>
</g>
<!-- bzip2&#45;&gt;glibc -->
<g id="edge20" class="edge">
<title>bzip2&#45;&gt;glibc</title>
<path fill="none" stroke="#8b4513" d="M324.34,-793.43C342.94,-768.34 376,-716.76 376,-667 376,-667 376,-667 376,-305 376,-258.12 343.4,-211.74 320.91,-185.31"/>
<polygon fill="#8b4513" stroke="#8b4513" points="323.52,-182.98 314.3,-177.77 318.26,-187.6 323.52,-182.98"/>
</g>
<!-- sh -->
<g id="node16" class="node">
<title>sh</title>
<ellipse fill="green" stroke="green" cx="310" cy="-738" rx="27" ry="18"/>
<text text-anchor="middle" x="310" y="-734.3" font-family="Times,serif" font-size="14.00">sh</text>
</g>
<!-- bzip2&#45;&gt;sh -->
<g id="edge21" class="edge">
<title>bzip2&#45;&gt;sh</title>
<path fill="none" stroke="#8b4513" d="M311.51,-791.7C311.29,-783.98 311.02,-774.71 310.77,-766.11"/>
<polygon fill="#8b4513" stroke="#8b4513" points="314.27,-766 310.49,-756.1 307.28,-766.2 314.27,-766"/>
</g>
<!-- sh&#45;&gt;bash -->
<g id="edge22" class="edge">
<title>sh&#45;&gt;bash</title>
<path fill="none" stroke="grey" d="M307.58,-720.05C306.03,-709.21 304.03,-695.18 302.47,-684.28"/>
</g>
<!-- bash&#45;&gt;glibc -->
<g id="edge25" class="edge">
<title>bash&#45;&gt;glibc</title>
<path fill="none" stroke="#8b4513" d="M307.51,-648.34C318.58,-622.2 338,-569.7 338,-523 338,-523 338,-523 338,-305 338,-263.41 322.6,-217.22 311.4,-189.14"/>
<polygon fill="#8b4513" stroke="#8b4513" points="314.55,-187.58 307.51,-179.66 308.07,-190.24 314.55,-187.58"/>
</g>
<!-- bash&#45;&gt;ncurses -->
<g id="edge26" class="edge">
<title>bash&#45;&gt;ncurses</title>
<path fill="none" stroke="#8b4513" d="M300.31,-647.79C300.18,-606.26 294.52,-499.02 243,-432 229.34,-414.23 207.9,-401.44 189.05,-392.88"/>
<polygon fill="#8b4513" stroke="#8b4513" points="190.34,-389.62 179.77,-388.9 187.58,-396.06 190.34,-389.62"/>
</g>
<!-- readline&gt;=7.0 -->
<g id="node18" class="node">
<title>readline&gt;=7.0</title>
<ellipse fill="green" stroke="green" cx="211" cy="-594" rx="61.19" ry="18"/>
<text text-anchor="middle" x="211" y="-590.3" font-family="Times,serif" font-size="14.00">readline&gt;=7.0</text>
</g>
<!-- bash&#45;&gt;readline&gt;=7.0 -->
<g id="edge23" class="edge">
<title>bash&#45;&gt;readline&gt;=7.0</title>
<path fill="none" stroke="#8b4513" d="M283.26,-651.83C270.97,-642.17 253.97,-628.8 239.55,-617.46"/>
<polygon fill="#8b4513" stroke="#8b4513" points="241.44,-614.49 231.41,-611.06 237.11,-619.99 241.44,-614.49"/>
</g>
<!-- readline&gt;=7.0&#45;&gt;readline -->
<g id="edge24" class="edge">
<title>readline&gt;=7.0&#45;&gt;readline</title>
<path fill="none" stroke="grey" d="M196.54,-576.41C186.68,-565.09 173.68,-550.18 163.93,-538.99"/>
</g>
</g>
</svg>
