<?xml version="1.0" encoding="UTF-8" standalone="no"?>
<!DOCTYPE svg PUBLIC "-//W3C//DTD SVG 1.1//EN"
 "http://www.w3.org/Graphics/SVG/1.1/DTD/svg11.dtd">
<!-- Generated by graphviz version 2.44.0 (0)
 -->
<!-- Title: G Pages: 1 -->
<svg width="702pt" height="1196pt"
 viewBox="0.00 0.00 701.95 1196.00" xmlns="http://www.w3.org/2000/svg" xmlns:xlink="http://www.w3.org/1999/xlink">
<g id="graph0" class="graph" transform="scale(1 1) rotate(0) translate(4 1192)">
<title>G</title>
<polygon fill="white" stroke="transparent" points="-4,4 -4,-1192 697.95,-1192 697.95,4 -4,4"/>
<!-- START -->
<g id="node1" class="node">
<title>START</title>
<ellipse fill="red" stroke="red" cx="566.95" cy="-1170" rx="38.19" ry="18"/>
<text text-anchor="middle" x="566.95" y="-1166.3" font-family="Times,serif" font-size="14.00">START</text>
</g>
<!-- pinentry -->
<g id="node2" class="node">
<title>pinentry</title>
<ellipse fill="green" stroke="green" cx="566.95" cy="-1098" rx="40.09" ry="18"/>
<text text-anchor="middle" x="566.95" y="-1094.3" font-family="Times,serif" font-size="14.00">pinentry</text>
</g>
<!-- START&#45;&gt;pinentry -->
<g id="edge1" class="edge">
<title>START&#45;&gt;pinentry</title>
<path fill="none" stroke="black" d="M566.95,-1151.7C566.95,-1143.98 566.95,-1134.71 566.95,-1126.11"/>
<polygon fill="black" stroke="black" points="570.45,-1126.1 566.95,-1116.1 563.45,-1126.1 570.45,-1126.1"/>
</g>
<!-- ncurses -->
<g id="node3" class="node">
<title>ncurses</title>
<ellipse fill="green" stroke="green" cx="389.95" cy="-378" rx="37.09" ry="18"/>
<text text-anchor="middle" x="389.95" y="-374.3" font-family="Times,serif" font-size="14.00">ncurses</text>
</g>
<!-- pinentry&#45;&gt;ncurses -->
<g id="edge2" class="edge">
<title>pinentry&#45;&gt;ncurses</title>
<path fill="none" stroke="#8b4513" d="M574.23,-1079.87C584.75,-1053.53 602.95,-1001.29 602.95,-955 602.95,-955 602.95,-955 602.95,-665 602.95,-543.69 478.17,-440.53 419.62,-398.81"/>
<polygon fill="#8b4513" stroke="#8b4513" points="421.35,-395.75 411.15,-392.87 417.33,-401.48 421.35,-395.75"/>
</g>
<!-- libcap -->
<g id="node12" class="node">
<title>libcap</title>
<ellipse fill="green" stroke="green" cx="640.95" cy="-306" rx="32.49" ry="18"/>
<text text-anchor="middle" x="640.95" y="-302.3" font-family="Times,serif" font-size="14.00">libcap</text>
</g>
<!-- pinentry&#45;&gt;libcap -->
<g id="edge12" class="edge">
<title>pinentry&#45;&gt;libcap</title>
<path fill="none" stroke="#8b4513" d="M581.92,-1080.95C603.55,-1056.02 640.95,-1005.6 640.95,-955 640.95,-955 640.95,-955 640.95,-449 640.95,-409 640.95,-362.65 640.95,-334.08"/>
<polygon fill="#8b4513" stroke="#8b4513" points="644.45,-334.05 640.95,-324.05 637.45,-334.05 644.45,-334.05"/>
</g>
<!-- libassuan -->
<g id="node14" class="node">
<title>libassuan</title>
<ellipse fill="green" stroke="green" cx="530.95" cy="-1026" rx="43.59" ry="18"/>
<text text-anchor="middle" x="530.95" y="-1022.3" font-family="Times,serif" font-size="14.00">libassuan</text>
</g>
<!-- pinentry&#45;&gt;libassuan -->
<g id="edge16" class="edge">
<title>pinentry&#45;&gt;libassuan</title>
<path fill="none" stroke="#8b4513" d="M558.23,-1080.05C554.03,-1071.89 548.9,-1061.91 544.23,-1052.82"/>
<polygon fill="#8b4513" stroke="#8b4513" points="547.27,-1051.08 539.58,-1043.79 541.04,-1054.28 547.27,-1051.08"/>
</g>
<!-- libsecret -->
<g id="node21" class="node">
<title>libsecret</title>
<ellipse fill="green" stroke="green" cx="428.95" cy="-1026" rx="40.09" ry="18"/>
<text text-anchor="middle" x="428.95" y="-1022.3" font-family="Times,serif" font-size="14.00">libsecret</text>
</g>
<!-- pinentry&#45;&gt;libsecret -->
<g id="edge29" class="edge">
<title>pinentry&#45;&gt;libsecret</title>
<path fill="none" stroke="#8b4513" d="M541.31,-1084C519.57,-1072.97 488.16,-1057.04 464.08,-1044.82"/>
<polygon fill="#8b4513" stroke="#8b4513" points="465.41,-1041.57 454.91,-1040.17 462.25,-1047.82 465.41,-1041.57"/>
</g>
<!-- glibc -->
<g id="node4" class="node">
<title>glibc</title>
<ellipse fill="green" stroke="green" cx="440.95" cy="-162" rx="28.7" ry="18"/>
<text text-anchor="middle" x="440.95" y="-158.3" font-family="Times,serif" font-size="14.00">glibc</text>
</g>
<!-- ncurses&#45;&gt;glibc -->
<g id="edge3" class="edge">
<title>ncurses&#45;&gt;glibc</title>
<path fill="none" stroke="#8b4513" d="M394.03,-359.85C402.9,-322.66 423.94,-234.37 434.57,-189.77"/>
<polygon fill="#8b4513" stroke="#8b4513" points="438,-190.47 436.91,-179.94 431.19,-188.85 438,-190.47"/>
</g>
<!-- gcc&#45;libs -->
<g id="node10" class="node">
<title>gcc&#45;libs</title>
<ellipse fill="green" stroke="green" cx="338.95" cy="-306" rx="38.19" ry="18"/>
<text text-anchor="middle" x="338.95" y="-302.3" font-family="Times,serif" font-size="14.00">gcc&#45;libs</text>
</g>
<!-- ncurses&#45;&gt;gcc&#45;libs -->
<g id="edge9" class="edge">
<title>ncurses&#45;&gt;gcc&#45;libs</title>
<path fill="none" stroke="#8b4513" d="M378.12,-360.76C371.75,-352.02 363.76,-341.05 356.66,-331.31"/>
<polygon fill="#8b4513" stroke="#8b4513" points="359.43,-329.17 350.71,-323.15 353.77,-333.29 359.43,-329.17"/>
</g>
<!-- linux&#45;api&#45;headers&gt;=4.10 -->
<g id="node5" class="node">
<title>linux&#45;api&#45;headers&gt;=4.10</title>
<ellipse fill="green" stroke="green" cx="292.95" cy="-90" rx="98.28" ry="18"/>
<text text-anchor="middle" x="292.95" y="-86.3" font-family="Times,serif" font-size="14.00">linux&#45;api&#45;headers&gt;=4.10</text>
</g>
<!-- glibc&#45;&gt;linux&#45;api&#45;headers&gt;=4.10 -->
<g id="edge4" class="edge">
<title>glibc&#45;&gt;linux&#45;api&#45;headers&gt;=4.10</title>
<path fill="none" stroke="#8b4513" d="M418.79,-150.52C397.01,-140.22 363.18,-124.22 336.08,-111.4"/>
<polygon fill="#8b4513" stroke="#8b4513" points="337.34,-108.12 326.8,-107.01 334.35,-114.45 337.34,-108.12"/>
</g>
<!-- tzdata -->
<g id="node7" class="node">
<title>tzdata</title>
<ellipse fill="green" stroke="green" cx="440.95" cy="-90" rx="31.7" ry="18"/>
<text text-anchor="middle" x="440.95" y="-86.3" font-family="Times,serif" font-size="14.00">tzdata</text>
</g>
<!-- glibc&#45;&gt;tzdata -->
<g id="edge6" class="edge">
<title>glibc&#45;&gt;tzdata</title>
<path fill="none" stroke="#8b4513" d="M440.95,-143.7C440.95,-135.98 440.95,-126.71 440.95,-118.11"/>
<polygon fill="#8b4513" stroke="#8b4513" points="444.45,-118.1 440.95,-108.1 437.45,-118.1 444.45,-118.1"/>
</g>
<!-- filesystem -->
<g id="node8" class="node">
<title>filesystem</title>
<ellipse fill="green" stroke="green" cx="537.95" cy="-90" rx="46.59" ry="18"/>
<text text-anchor="middle" x="537.95" y="-86.3" font-family="Times,serif" font-size="14.00">filesystem</text>
</g>
<!-- glibc&#45;&gt;filesystem -->
<g id="edge7" class="edge">
<title>glibc&#45;&gt;filesystem</title>
<path fill="none" stroke="#8b4513" d="M459.19,-147.83C472.99,-137.88 492.23,-123.99 508.24,-112.44"/>
<polygon fill="#8b4513" stroke="#8b4513" points="510.68,-114.99 516.74,-106.3 506.59,-109.31 510.68,-114.99"/>
</g>
<!-- linux&#45;api&#45;headers -->
<g id="node6" class="node">
<title>linux&#45;api&#45;headers</title>
<ellipse fill="green" stroke="green" cx="292.95" cy="-18" rx="71.49" ry="18"/>
<text text-anchor="middle" x="292.95" y="-14.3" font-family="Times,serif" font-size="14.00">linux&#45;api&#45;headers</text>
</g>
<!-- linux&#45;api&#45;headers&gt;=4.10&#45;&gt;linux&#45;api&#45;headers -->
<g id="edge5" class="edge">
<title>linux&#45;api&#45;headers&gt;=4.10&#45;&gt;linux&#45;api&#45;headers</title>
<path fill="none" stroke="grey" d="M292.95,-71.7C292.95,-60.85 292.95,-46.92 292.95,-36.1"/>
</g>
<!-- iana&#45;etc -->
<g id="node9" class="node">
<title>iana&#45;etc</title>
<ellipse fill="green" stroke="green" cx="537.95" cy="-18" rx="38.19" ry="18"/>
<text text-anchor="middle" x="537.95" y="-14.3" font-family="Times,serif" font-size="14.00">iana&#45;etc</text>
</g>
<!-- filesystem&#45;&gt;iana&#45;etc -->
<g id="edge8" class="edge">
<title>filesystem&#45;&gt;iana&#45;etc</title>
<path fill="none" stroke="#8b4513" d="M537.95,-71.7C537.95,-63.98 537.95,-54.71 537.95,-46.11"/>
<polygon fill="#8b4513" stroke="#8b4513" points="541.45,-46.1 537.95,-36.1 534.45,-46.1 541.45,-46.1"/>
</g>
<!-- glibc&gt;=2.27 -->
<g id="node11" class="node">
<title>glibc&gt;=2.27</title>
<ellipse fill="green" stroke="green" cx="338.95" cy="-234" rx="54.69" ry="18"/>
<text text-anchor="middle" x="338.95" y="-230.3" font-family="Times,serif" font-size="14.00">glibc&gt;=2.27</text>
</g>
<!-- gcc&#45;libs&#45;&gt;glibc&gt;=2.27 -->
<g id="edge10" class="edge">
<title>gcc&#45;libs&#45;&gt;glibc&gt;=2.27</title>
<path fill="none" stroke="#8b4513" d="M338.95,-287.7C338.95,-279.98 338.95,-270.71 338.95,-262.11"/>
<polygon fill="#8b4513" stroke="#8b4513" points="342.45,-262.1 338.95,-252.1 335.45,-262.1 342.45,-262.1"/>
</g>
<!-- glibc&gt;=2.27&#45;&gt;glibc -->
<g id="edge11" class="edge">
<title>glibc&gt;=2.27&#45;&gt;glibc</title>
<path fill="none" stroke="grey" d="M361.58,-217.46C379.78,-204.98 405.03,-187.65 422.13,-175.91"/>
</g>
<!-- libcap&#45;&gt;glibc -->
<g id="edge13" class="edge">
<title>libcap&#45;&gt;glibc</title>
<path fill="none" stroke="#8b4513" d="M635.01,-288.2C627.16,-268.32 611.53,-235.46 587.95,-216 556.13,-189.75 510.25,-175.98 478.24,-169.13"/>
<polygon fill="#8b4513" stroke="#8b4513" points="478.86,-165.69 468.37,-167.15 477.48,-172.55 478.86,-165.69"/>
</g>
<!-- attr -->
<g id="node13" class="node">
<title>attr</title>
<ellipse fill="green" stroke="green" cx="666.95" cy="-234" rx="27" ry="18"/>
<text text-anchor="middle" x="666.95" y="-230.3" font-family="Times,serif" font-size="14.00">attr</text>
</g>
<!-- libcap&#45;&gt;attr -->
<g id="edge14" class="edge">
<title>libcap&#45;&gt;attr</title>
<path fill="none" stroke="#8b4513" d="M647.24,-288.05C650.21,-280.06 653.82,-270.33 657.14,-261.4"/>
<polygon fill="#8b4513" stroke="#8b4513" points="660.51,-262.38 660.71,-251.79 653.95,-259.94 660.51,-262.38"/>
</g>
<!-- attr&#45;&gt;glibc -->
<g id="edge15" class="edge">
<title>attr&#45;&gt;glibc</title>
<path fill="none" stroke="#8b4513" d="M645,-223.36C638.88,-220.82 632.2,-218.19 625.95,-216 574.92,-198.18 514.5,-181.71 476.94,-172.01"/>
<polygon fill="#8b4513" stroke="#8b4513" points="477.53,-168.55 466.98,-169.46 475.8,-175.33 477.53,-168.55"/>
</g>
<!-- libgpg&#45;error -->
<g id="node15" class="node">
<title>libgpg&#45;error</title>
<ellipse fill="green" stroke="green" cx="520.95" cy="-810" rx="53.89" ry="18"/>
<text text-anchor="middle" x="520.95" y="-806.3" font-family="Times,serif" font-size="14.00">libgpg&#45;error</text>
</g>
<!-- libassuan&#45;&gt;libgpg&#45;error -->
<g id="edge17" class="edge">
<title>libassuan&#45;&gt;libgpg&#45;error</title>
<path fill="none" stroke="#8b4513" d="M530.15,-1007.85C528.42,-970.83 524.32,-883.18 522.23,-838.39"/>
<polygon fill="#8b4513" stroke="#8b4513" points="525.72,-838.06 521.75,-828.23 518.72,-838.38 525.72,-838.06"/>
</g>
<!-- libgpg&#45;error&#45;&gt;glibc -->
<g id="edge18" class="edge">
<title>libgpg&#45;error&#45;&gt;glibc</title>
<path fill="none" stroke="#8b4513" d="M525.28,-791.99C537.94,-740.81 573.95,-583.57 573.95,-451 573.95,-451 573.95,-451 573.95,-305 573.95,-264.03 576.05,-247.58 549.95,-216 531.41,-193.58 501.11,-179.92 477.15,-172.09"/>
<polygon fill="#8b4513" stroke="#8b4513" points="477.91,-168.67 467.33,-169.09 475.86,-175.36 477.91,-168.67"/>
</g>
<!-- sh -->
<g id="node16" class="node">
<title>sh</title>
<ellipse fill="green" stroke="green" cx="365.95" cy="-738" rx="27" ry="18"/>
<text text-anchor="middle" x="365.95" y="-734.3" font-family="Times,serif" font-size="14.00">sh</text>
</g>
<!-- libgpg&#45;error&#45;&gt;sh -->
<g id="edge19" class="edge">
<title>libgpg&#45;error&#45;&gt;sh</title>
<path fill="none" stroke="#8b4513" d="M490.32,-795.17C463.45,-783.03 424.53,-765.46 397.41,-753.21"/>
<polygon fill="#8b4513" stroke="#8b4513" points="398.55,-749.88 388,-748.96 395.67,-756.26 398.55,-749.88"/>
</g>
<!-- bash -->
<g id="node17" class="node">
<title>bash</title>
<ellipse fill="green" stroke="green" cx="365.95" cy="-666" rx="27" ry="18"/>
<text text-anchor="middle" x="365.95" y="-662.3" font-family="Times,serif" font-size="14.00">bash</text>
</g>
<!-- sh&#45;&gt;bash -->
<g id="edge20" class="edge">
<title>sh&#45;&gt;bash</title>
<path fill="none" stroke="grey" d="M360.11,-720.41C358.91,-709.41 358.89,-695.03 360.07,-683.96"/>
</g>
<!-- sh&#45;&gt;bash -->
<g id="edge39" class="edge">
<title>sh&#45;&gt;bash</title>
<path fill="none" stroke="grey" d="M371.79,-720.41C372.99,-709.41 373,-695.03 371.83,-683.96"/>
</g>
<!-- bash&#45;&gt;ncurses -->
<g id="edge28" class="edge">
<title>bash&#45;&gt;ncurses</title>
<path fill="none" stroke="#8b4513" d="M371.38,-648C374.43,-637.7 378.01,-624.22 379.95,-612 391.61,-538.27 391.66,-449.88 390.78,-406.2"/>
<polygon fill="#8b4513" stroke="#8b4513" points="394.27,-406 390.54,-396.09 387.27,-406.17 394.27,-406"/>
</g>
<!-- bash&#45;&gt;glibc -->
<g id="edge27" class="edge">
<title>bash&#45;&gt;glibc</title>
<path fill="none" stroke="#8b4513" d="M382.75,-651.66C409.79,-628.57 459.95,-578.29 459.95,-523 459.95,-523 459.95,-523 459.95,-305 459.95,-264.64 452.31,-218.39 446.72,-189.94"/>
<polygon fill="#8b4513" stroke="#8b4513" points="450.12,-189.06 444.7,-179.95 443.26,-190.45 450.12,-189.06"/>
</g>
<!-- readline&gt;=7.0 -->
<g id="node18" class="node">
<title>readline&gt;=7.0</title>
<ellipse fill="green" stroke="green" cx="309.95" cy="-594" rx="61.19" ry="18"/>
<text text-anchor="middle" x="309.95" y="-590.3" font-family="Times,serif" font-size="14.00">readline&gt;=7.0</text>
</g>
<!-- bash&#45;&gt;readline&gt;=7.0 -->
<g id="edge21" class="edge">
<title>bash&#45;&gt;readline&gt;=7.0</title>
<path fill="none" stroke="#8b4513" d="M353.8,-649.81C346.76,-641.02 337.73,-629.73 329.7,-619.69"/>
<polygon fill="#8b4513" stroke="#8b4513" points="332.23,-617.25 323.25,-611.63 326.76,-621.62 332.23,-617.25"/>
</g>
<!-- readline -->
<g id="node19" class="node">
<title>readline</title>
<ellipse fill="green" stroke="green" cx="271.95" cy="-522" rx="38.99" ry="18"/>
<text text-anchor="middle" x="271.95" y="-518.3" font-family="Times,serif" font-size="14.00">readline</text>
</g>
<!-- readline&gt;=7.0&#45;&gt;readline -->
<g id="edge22" class="edge">
<title>readline&gt;=7.0&#45;&gt;readline</title>
<path fill="none" stroke="grey" d="M300.75,-576.05C294.77,-565.05 287.02,-550.76 281.06,-539.79"/>
</g>
<!-- readline&#45;&gt;ncurses -->
<g id="edge24" class="edge">
<title>readline&#45;&gt;ncurses</title>
<path fill="none" stroke="#8b4513" d="M302.5,-510.66C322.99,-502.23 349.04,-488.35 364.95,-468 378.81,-450.26 384.98,-425.25 387.74,-406.25"/>
<polygon fill="#8b4513" stroke="#8b4513" points="391.23,-406.48 388.97,-396.13 384.29,-405.64 391.23,-406.48"/>
</g>
<!-- readline&#45;&gt;glibc -->
<g id="edge23" class="edge">
<title>readline&#45;&gt;glibc</title>
<path fill="none" stroke="#8b4513" d="M243.38,-509.44C199.86,-489.71 121.95,-445.16 121.95,-379 121.95,-379 121.95,-379 121.95,-305 121.95,-183.52 317.41,-165.21 402.33,-162.99"/>
<polygon fill="#8b4513" stroke="#8b4513" points="402.43,-166.49 412.36,-162.79 402.29,-159.49 402.43,-166.49"/>
</g>
<!-- libncursesw.so=6&#45;64 -->
<g id="node20" class="node">
<title>libncursesw.so=6&#45;64</title>
<ellipse fill="green" stroke="green" cx="271.95" cy="-450" rx="83.69" ry="18"/>
<text text-anchor="middle" x="271.95" y="-446.3" font-family="Times,serif" font-size="14.00">libncursesw.so=6&#45;64</text>
</g>
<!-- readline&#45;&gt;libncursesw.so=6&#45;64 -->
<g id="edge25" class="edge">
<title>readline&#45;&gt;libncursesw.so=6&#45;64</title>
<path fill="none" stroke="#8b4513" d="M271.95,-503.7C271.95,-495.98 271.95,-486.71 271.95,-478.11"/>
<polygon fill="#8b4513" stroke="#8b4513" points="275.45,-478.1 271.95,-468.1 268.45,-478.1 275.45,-478.1"/>
</g>
<!-- libncursesw.so=6&#45;64&#45;&gt;ncurses -->
<g id="edge26" class="edge">
<title>libncursesw.so=6&#45;64&#45;&gt;ncurses</title>
<path fill="none" stroke="grey" d="M299.02,-432.94C319.7,-420.67 347.88,-403.95 367.36,-392.4"/>
</g>
<!-- glib2 -->
<g id="node22" class="node">
<title>glib2</title>
<ellipse fill="green" stroke="green" cx="244.95" cy="-954" rx="28.7" ry="18"/>
<text text-anchor="middle" x="244.95" y="-950.3" font-family="Times,serif" font-size="14.00">glib2</text>
</g>
<!-- libsecret&#45;&gt;glib2 -->
<g id="edge30" class="edge">
<title>libsecret&#45;&gt;glib2</title>
<path fill="none" stroke="#8b4513" d="M399.38,-1013.75C366.38,-1001.2 313.07,-980.91 278.51,-967.77"/>
<polygon fill="#8b4513" stroke="#8b4513" points="279.46,-964.38 268.87,-964.1 276.97,-970.93 279.46,-964.38"/>
</g>
<!-- libgcrypt -->
<g id="node29" class="node">
<title>libgcrypt</title>
<ellipse fill="green" stroke="green" cx="443.95" cy="-954" rx="42.79" ry="18"/>
<text text-anchor="middle" x="443.95" y="-950.3" font-family="Times,serif" font-size="14.00">libgcrypt</text>
</g>
<!-- libsecret&#45;&gt;libgcrypt -->
<g id="edge47" class="edge">
<title>libsecret&#45;&gt;libgcrypt</title>
<path fill="none" stroke="#8b4513" d="M432.58,-1008.05C434.25,-1000.26 436.27,-990.82 438.14,-982.08"/>
<polygon fill="#8b4513" stroke="#8b4513" points="441.57,-982.79 440.25,-972.28 434.73,-981.32 441.57,-982.79"/>
</g>
<!-- pcre -->
<g id="node23" class="node">
<title>pcre</title>
<ellipse fill="green" stroke="green" cx="199.95" cy="-882" rx="27" ry="18"/>
<text text-anchor="middle" x="199.95" y="-878.3" font-family="Times,serif" font-size="14.00">pcre</text>
</g>
<!-- glib2&#45;&gt;pcre -->
<g id="edge31" class="edge">
<title>glib2&#45;&gt;pcre</title>
<path fill="none" stroke="#8b4513" d="M234.74,-937.12C229.1,-928.34 221.97,-917.26 215.64,-907.42"/>
<polygon fill="#8b4513" stroke="#8b4513" points="218.47,-905.34 210.12,-898.82 212.58,-909.13 218.47,-905.34"/>
</g>
<!-- zlib -->
<g id="node24" class="node">
<title>zlib</title>
<ellipse fill="green" stroke="green" cx="104.95" cy="-810" rx="27" ry="18"/>
<text text-anchor="middle" x="104.95" y="-806.3" font-family="Times,serif" font-size="14.00">zlib</text>
</g>
<!-- glib2&#45;&gt;zlib -->
<g id="edge44" class="edge">
<title>glib2&#45;&gt;zlib</title>
<path fill="none" stroke="#8b4513" d="M223.28,-942.02C205.9,-932.51 181.59,-917.53 163.95,-900 144.94,-881.11 128.58,-855.17 117.95,-836.17"/>
<polygon fill="#8b4513" stroke="#8b4513" points="120.92,-834.3 113.06,-827.2 114.77,-837.65 120.92,-834.3"/>
</g>
<!-- libffi -->
<g id="node26" class="node">
<title>libffi</title>
<ellipse fill="green" stroke="green" cx="27.95" cy="-738" rx="27.9" ry="18"/>
<text text-anchor="middle" x="27.95" y="-734.3" font-family="Times,serif" font-size="14.00">libffi</text>
</g>
<!-- glib2&#45;&gt;libffi -->
<g id="edge41" class="edge">
<title>glib2&#45;&gt;libffi</title>
<path fill="none" stroke="#8b4513" d="M220.23,-944.61C196.44,-935.79 160.15,-920.38 132.95,-900 98.68,-874.33 92.38,-863.83 68.95,-828 55.98,-808.18 45,-783.59 37.67,-765.29"/>
<polygon fill="#8b4513" stroke="#8b4513" points="40.87,-763.88 33.98,-755.84 34.35,-766.43 40.87,-763.88"/>
</g>
<!-- libutil&#45;linux -->
<g id="node27" class="node">
<title>libutil&#45;linux</title>
<ellipse fill="green" stroke="green" cx="395.95" cy="-810" rx="52.79" ry="18"/>
<text text-anchor="middle" x="395.95" y="-806.3" font-family="Times,serif" font-size="14.00">libutil&#45;linux</text>
</g>
<!-- glib2&#45;&gt;libutil&#45;linux -->
<g id="edge43" class="edge">
<title>glib2&#45;&gt;libutil&#45;linux</title>
<path fill="none" stroke="#8b4513" d="M251.77,-936.46C260.41,-917.13 276.87,-885.1 298.95,-864 314.54,-849.1 335.14,-837.06 353.35,-828.25"/>
<polygon fill="#8b4513" stroke="#8b4513" points="355.02,-831.33 362.61,-823.94 352.07,-824.99 355.02,-831.33"/>
</g>
<!-- libmount.so=1&#45;64 -->
<g id="node28" class="node">
<title>libmount.so=1&#45;64</title>
<ellipse fill="green" stroke="green" cx="382.95" cy="-882" rx="74.99" ry="18"/>
<text text-anchor="middle" x="382.95" y="-878.3" font-family="Times,serif" font-size="14.00">libmount.so=1&#45;64</text>
</g>
<!-- glib2&#45;&gt;libmount.so=1&#45;64 -->
<g id="edge45" class="edge">
<title>glib2&#45;&gt;libmount.so=1&#45;64</title>
<path fill="none" stroke="#8b4513" d="M266.51,-942.06C286.94,-931.7 318.14,-915.87 343.1,-903.21"/>
<polygon fill="#8b4513" stroke="#8b4513" points="344.99,-906.18 352.32,-898.54 341.82,-899.94 344.99,-906.18"/>
</g>
<!-- pcre&#45;&gt;gcc&#45;libs -->
<g id="edge32" class="edge">
<title>pcre&#45;&gt;gcc&#45;libs</title>
<path fill="none" stroke="#8b4513" d="M192.04,-864.38C180.39,-838.29 159.95,-785.87 159.95,-739 159.95,-739 159.95,-739 159.95,-449 159.95,-379.17 244.59,-338.23 297.47,-319.47"/>
<polygon fill="#8b4513" stroke="#8b4513" points="298.62,-322.77 306.95,-316.22 296.35,-316.15 298.62,-322.77"/>
</g>
<!-- pcre&#45;&gt;bash -->
<g id="edge40" class="edge">
<title>pcre&#45;&gt;bash</title>
<path fill="none" stroke="#8b4513" d="M208.89,-864.7C219.16,-846.43 236.94,-816.19 254.95,-792 283.41,-753.77 321.03,-713.14 344.35,-688.93"/>
<polygon fill="#8b4513" stroke="#8b4513" points="346.94,-691.29 351.39,-681.67 341.92,-686.42 346.94,-691.29"/>
</g>
<!-- pcre&#45;&gt;readline -->
<g id="edge33" class="edge">
<title>pcre&#45;&gt;readline</title>
<path fill="none" stroke="#8b4513" d="M199.55,-863.95C198.97,-837.29 197.95,-784.12 197.95,-739 197.95,-739 197.95,-739 197.95,-665 197.95,-619.15 228.67,-573.43 250.52,-546.71"/>
<polygon fill="#8b4513" stroke="#8b4513" points="253.21,-548.96 256.97,-539.05 247.85,-544.45 253.21,-548.96"/>
</g>
<!-- pcre&#45;&gt;zlib -->
<g id="edge34" class="edge">
<title>pcre&#45;&gt;zlib</title>
<path fill="none" stroke="#8b4513" d="M182.52,-868.16C168.02,-857.47 147.16,-842.1 130.72,-829.99"/>
<polygon fill="#8b4513" stroke="#8b4513" points="132.71,-827.11 122.58,-823.99 128.56,-832.74 132.71,-827.11"/>
</g>
<!-- bzip2 -->
<g id="node25" class="node">
<title>bzip2</title>
<ellipse fill="green" stroke="green" cx="294.95" cy="-810" rx="30.59" ry="18"/>
<text text-anchor="middle" x="294.95" y="-806.3" font-family="Times,serif" font-size="14.00">bzip2</text>
</g>
<!-- pcre&#45;&gt;bzip2 -->
<g id="edge36" class="edge">
<title>pcre&#45;&gt;bzip2</title>
<path fill="none" stroke="#8b4513" d="M217.37,-868.16C231.69,-857.61 252.22,-842.49 268.55,-830.45"/>
<polygon fill="#8b4513" stroke="#8b4513" points="270.69,-833.22 276.66,-824.47 266.54,-827.59 270.69,-833.22"/>
</g>
<!-- zlib&#45;&gt;glibc -->
<g id="edge35" class="edge">
<title>zlib&#45;&gt;glibc</title>
<path fill="none" stroke="#8b4513" d="M100.8,-792.07C94.68,-765.57 83.95,-712.61 83.95,-667 83.95,-667 83.95,-667 83.95,-305 83.95,-259.19 98.32,-242.13 135.95,-216 178.55,-186.41 330.28,-171.31 402.37,-165.67"/>
<polygon fill="#8b4513" stroke="#8b4513" points="402.7,-169.16 412.41,-164.91 402.17,-162.18 402.7,-169.16"/>
</g>
<!-- bzip2&#45;&gt;glibc -->
<g id="edge37" class="edge">
<title>bzip2&#45;&gt;glibc</title>
<path fill="none" stroke="#8b4513" d="M318.63,-798.24C345.51,-785.86 387.53,-765.94 401.95,-756 449.84,-722.97 497.95,-725.18 497.95,-667 497.95,-667 497.95,-667 497.95,-593 497.95,-496.4 535.95,-475.6 535.95,-379 535.95,-379 535.95,-379 535.95,-305 535.95,-254.79 494.4,-208.89 466.26,-183.56"/>
<polygon fill="#8b4513" stroke="#8b4513" points="468.21,-180.61 458.37,-176.67 463.61,-185.88 468.21,-180.61"/>
</g>
<!-- bzip2&#45;&gt;sh -->
<g id="edge38" class="edge">
<title>bzip2&#45;&gt;sh</title>
<path fill="none" stroke="#8b4513" d="M310,-794.15C319.93,-784.37 333.08,-771.4 344.14,-760.5"/>
<polygon fill="#8b4513" stroke="#8b4513" points="346.73,-762.86 351.4,-753.35 341.82,-757.87 346.73,-762.86"/>
</g>
<!-- libffi&#45;&gt;glibc -->
<g id="edge42" class="edge">
<title>libffi&#45;&gt;glibc</title>
<path fill="none" stroke="#8b4513" d="M29.73,-719.97C32.35,-693.34 36.95,-640.21 36.95,-595 36.95,-595 36.95,-595 36.95,-305 36.95,-262.81 37.11,-242.49 69.95,-216 120.45,-175.26 317.49,-165.83 402.05,-163.65"/>
<polygon fill="#8b4513" stroke="#8b4513" points="402.35,-167.15 412.26,-163.41 402.18,-160.15 402.35,-167.15"/>
</g>
<!-- libmount.so=1&#45;64&#45;&gt;libutil&#45;linux -->
<g id="edge46" class="edge">
<title>libmount.so=1&#45;64&#45;&gt;libutil&#45;linux</title>
<path fill="none" stroke="grey" d="M386.16,-863.7C388.18,-852.85 390.76,-838.92 392.77,-828.1"/>
</g>
<!-- libgcrypt&#45;&gt;libgpg&#45;error -->
<g id="edge48" class="edge">
<title>libgcrypt&#45;&gt;libgpg&#45;error</title>
<path fill="none" stroke="#8b4513" d="M453.08,-936.15C466.4,-911.6 491.25,-865.77 506.9,-836.91"/>
<polygon fill="#8b4513" stroke="#8b4513" points="510.13,-838.28 511.82,-827.82 503.98,-834.95 510.13,-838.28"/>
</g>
</g>
</svg>
