<?xml version="1.0" encoding="UTF-8" standalone="no"?>
<!DOCTYPE svg PUBLIC "-//W3C//DTD SVG 1.1//EN"
 "http://www.w3.org/Graphics/SVG/1.1/DTD/svg11.dtd">
<!-- Generated by graphviz version 2.44.0 (0)
 -->
<!-- Title: G Pages: 1 -->
<svg width="630pt" height="1124pt"
 viewBox="0.00 0.00 630.14 1124.00" xmlns="http://www.w3.org/2000/svg" xmlns:xlink="http://www.w3.org/1999/xlink">
<g id="graph0" class="graph" transform="scale(1 1) rotate(0) translate(4 1120)">
<title>G</title>
<polygon fill="white" stroke="transparent" points="-4,4 -4,-1120 626.14,-1120 626.14,4 -4,4"/>
<!-- START -->
<g id="node1" class="node">
<title>START</title>
<ellipse fill="red" stroke="red" cx="436.14" cy="-1098" rx="38.19" ry="18"/>
<text text-anchor="middle" x="436.14" y="-1094.3" font-family="Times,serif" font-size="14.00">START</text>
</g>
<!-- procps&#45;ng -->
<g id="node2" class="node">
<title>procps&#45;ng</title>
<ellipse fill="green" stroke="green" cx="436.14" cy="-1026" rx="46.29" ry="18"/>
<text text-anchor="middle" x="436.14" y="-1022.3" font-family="Times,serif" font-size="14.00">procps&#45;ng</text>
</g>
<!-- START&#45;&gt;procps&#45;ng -->
<g id="edge1" class="edge">
<title>START&#45;&gt;procps&#45;ng</title>
<path fill="none" stroke="black" d="M436.14,-1079.7C436.14,-1071.98 436.14,-1062.71 436.14,-1054.11"/>
<polygon fill="black" stroke="black" points="439.64,-1054.1 436.14,-1044.1 432.64,-1054.1 439.64,-1054.1"/>
</g>
<!-- ncurses -->
<g id="node3" class="node">
<title>ncurses</title>
<ellipse fill="green" stroke="green" cx="505.14" cy="-378" rx="37.09" ry="18"/>
<text text-anchor="middle" x="505.14" y="-374.3" font-family="Times,serif" font-size="14.00">ncurses</text>
</g>
<!-- procps&#45;ng&#45;&gt;ncurses -->
<g id="edge2" class="edge">
<title>procps&#45;ng&#45;&gt;ncurses</title>
<path fill="none" stroke="#8b4513" d="M472.89,-1015.08C527.09,-997.96 622.14,-957.35 622.14,-883 622.14,-883 622.14,-883 622.14,-521 622.14,-466.82 570.77,-422.09 536.11,-398.08"/>
<polygon fill="#8b4513" stroke="#8b4513" points="537.95,-395.1 527.7,-392.43 534.05,-400.91 537.95,-395.1"/>
</g>
<!-- systemd&#45;libs -->
<g id="node12" class="node">
<title>systemd&#45;libs</title>
<ellipse fill="green" stroke="green" cx="323.14" cy="-954" rx="55.79" ry="18"/>
<text text-anchor="middle" x="323.14" y="-950.3" font-family="Times,serif" font-size="14.00">systemd&#45;libs</text>
</g>
<!-- procps&#45;ng&#45;&gt;systemd&#45;libs -->
<g id="edge12" class="edge">
<title>procps&#45;ng&#45;&gt;systemd&#45;libs</title>
<path fill="none" stroke="#8b4513" d="M412.45,-1010.33C396.36,-1000.36 374.83,-987.02 356.95,-975.94"/>
<polygon fill="#8b4513" stroke="#8b4513" points="358.32,-972.67 347.97,-970.38 354.63,-978.62 358.32,-972.67"/>
</g>
<!-- glibc -->
<g id="node4" class="node">
<title>glibc</title>
<ellipse fill="green" stroke="green" cx="246.14" cy="-162" rx="28.7" ry="18"/>
<text text-anchor="middle" x="246.14" y="-158.3" font-family="Times,serif" font-size="14.00">glibc</text>
</g>
<!-- ncurses&#45;&gt;glibc -->
<g id="edge3" class="edge">
<title>ncurses&#45;&gt;glibc</title>
<path fill="none" stroke="#8b4513" d="M486.93,-361.95C441.45,-324.37 322.82,-226.36 270.99,-183.53"/>
<polygon fill="#8b4513" stroke="#8b4513" points="272.91,-180.58 262.98,-176.91 268.45,-185.98 272.91,-180.58"/>
</g>
<!-- gcc&#45;libs -->
<g id="node10" class="node">
<title>gcc&#45;libs</title>
<ellipse fill="green" stroke="green" cx="491.14" cy="-306" rx="38.19" ry="18"/>
<text text-anchor="middle" x="491.14" y="-302.3" font-family="Times,serif" font-size="14.00">gcc&#45;libs</text>
</g>
<!-- ncurses&#45;&gt;gcc&#45;libs -->
<g id="edge9" class="edge">
<title>ncurses&#45;&gt;gcc&#45;libs</title>
<path fill="none" stroke="#8b4513" d="M501.75,-360.05C500.21,-352.35 498.35,-343.03 496.61,-334.36"/>
<polygon fill="#8b4513" stroke="#8b4513" points="499.99,-333.39 494.6,-324.28 493.13,-334.77 499.99,-333.39"/>
</g>
<!-- linux&#45;api&#45;headers&gt;=4.10 -->
<g id="node5" class="node">
<title>linux&#45;api&#45;headers&gt;=4.10</title>
<ellipse fill="green" stroke="green" cx="98.14" cy="-90" rx="98.28" ry="18"/>
<text text-anchor="middle" x="98.14" y="-86.3" font-family="Times,serif" font-size="14.00">linux&#45;api&#45;headers&gt;=4.10</text>
</g>
<!-- glibc&#45;&gt;linux&#45;api&#45;headers&gt;=4.10 -->
<g id="edge4" class="edge">
<title>glibc&#45;&gt;linux&#45;api&#45;headers&gt;=4.10</title>
<path fill="none" stroke="#8b4513" d="M223.98,-150.52C202.2,-140.22 168.37,-124.22 141.27,-111.4"/>
<polygon fill="#8b4513" stroke="#8b4513" points="142.53,-108.12 132,-107.01 139.54,-114.45 142.53,-108.12"/>
</g>
<!-- tzdata -->
<g id="node7" class="node">
<title>tzdata</title>
<ellipse fill="green" stroke="green" cx="246.14" cy="-90" rx="31.7" ry="18"/>
<text text-anchor="middle" x="246.14" y="-86.3" font-family="Times,serif" font-size="14.00">tzdata</text>
</g>
<!-- glibc&#45;&gt;tzdata -->
<g id="edge6" class="edge">
<title>glibc&#45;&gt;tzdata</title>
<path fill="none" stroke="#8b4513" d="M246.14,-143.7C246.14,-135.98 246.14,-126.71 246.14,-118.11"/>
<polygon fill="#8b4513" stroke="#8b4513" points="249.64,-118.1 246.14,-108.1 242.64,-118.1 249.64,-118.1"/>
</g>
<!-- filesystem -->
<g id="node8" class="node">
<title>filesystem</title>
<ellipse fill="green" stroke="green" cx="343.14" cy="-90" rx="46.59" ry="18"/>
<text text-anchor="middle" x="343.14" y="-86.3" font-family="Times,serif" font-size="14.00">filesystem</text>
</g>
<!-- glibc&#45;&gt;filesystem -->
<g id="edge7" class="edge">
<title>glibc&#45;&gt;filesystem</title>
<path fill="none" stroke="#8b4513" d="M264.39,-147.83C278.19,-137.88 297.42,-123.99 313.43,-112.44"/>
<polygon fill="#8b4513" stroke="#8b4513" points="315.88,-114.99 321.94,-106.3 311.78,-109.31 315.88,-114.99"/>
</g>
<!-- linux&#45;api&#45;headers -->
<g id="node6" class="node">
<title>linux&#45;api&#45;headers</title>
<ellipse fill="green" stroke="green" cx="98.14" cy="-18" rx="71.49" ry="18"/>
<text text-anchor="middle" x="98.14" y="-14.3" font-family="Times,serif" font-size="14.00">linux&#45;api&#45;headers</text>
</g>
<!-- linux&#45;api&#45;headers&gt;=4.10&#45;&gt;linux&#45;api&#45;headers -->
<g id="edge5" class="edge">
<title>linux&#45;api&#45;headers&gt;=4.10&#45;&gt;linux&#45;api&#45;headers</title>
<path fill="none" stroke="grey" d="M98.14,-71.7C98.14,-60.85 98.14,-46.92 98.14,-36.1"/>
</g>
<!-- iana&#45;etc -->
<g id="node9" class="node">
<title>iana&#45;etc</title>
<ellipse fill="green" stroke="green" cx="343.14" cy="-18" rx="38.19" ry="18"/>
<text text-anchor="middle" x="343.14" y="-14.3" font-family="Times,serif" font-size="14.00">iana&#45;etc</text>
</g>
<!-- filesystem&#45;&gt;iana&#45;etc -->
<g id="edge8" class="edge">
<title>filesystem&#45;&gt;iana&#45;etc</title>
<path fill="none" stroke="#8b4513" d="M343.14,-71.7C343.14,-63.98 343.14,-54.71 343.14,-46.11"/>
<polygon fill="#8b4513" stroke="#8b4513" points="346.64,-46.1 343.14,-36.1 339.64,-46.1 346.64,-46.1"/>
</g>
<!-- glibc&gt;=2.27 -->
<g id="node11" class="node">
<title>glibc&gt;=2.27</title>
<ellipse fill="green" stroke="green" cx="477.14" cy="-234" rx="54.69" ry="18"/>
<text text-anchor="middle" x="477.14" y="-230.3" font-family="Times,serif" font-size="14.00">glibc&gt;=2.27</text>
</g>
<!-- gcc&#45;libs&#45;&gt;glibc&gt;=2.27 -->
<g id="edge10" class="edge">
<title>gcc&#45;libs&#45;&gt;glibc&gt;=2.27</title>
<path fill="none" stroke="#8b4513" d="M487.75,-288.05C486.21,-280.35 484.35,-271.03 482.61,-262.36"/>
<polygon fill="#8b4513" stroke="#8b4513" points="485.99,-261.39 480.6,-252.28 479.13,-262.77 485.99,-261.39"/>
</g>
<!-- glibc&gt;=2.27&#45;&gt;glibc -->
<g id="edge11" class="edge">
<title>glibc&gt;=2.27&#45;&gt;glibc</title>
<path fill="none" stroke="grey" d="M438.48,-221.28C390.96,-206.88 311.67,-182.86 271.35,-170.64"/>
</g>
<!-- systemd&#45;libs&#45;&gt;glibc -->
<g id="edge13" class="edge">
<title>systemd&#45;libs&#45;&gt;glibc</title>
<path fill="none" stroke="#8b4513" d="M375.96,-947.8C452.22,-937.05 584.14,-904.88 584.14,-811 584.14,-811 584.14,-811 584.14,-305 584.14,-261.07 576.13,-242.56 541.14,-216 501.32,-185.78 355.1,-171.07 284.62,-165.61"/>
<polygon fill="#8b4513" stroke="#8b4513" points="284.63,-162.1 274.39,-164.84 284.1,-169.08 284.63,-162.1"/>
</g>
<!-- libcap -->
<g id="node13" class="node">
<title>libcap</title>
<ellipse fill="green" stroke="green" cx="107.14" cy="-306" rx="32.49" ry="18"/>
<text text-anchor="middle" x="107.14" y="-302.3" font-family="Times,serif" font-size="14.00">libcap</text>
</g>
<!-- systemd&#45;libs&#45;&gt;libcap -->
<g id="edge14" class="edge">
<title>systemd&#45;libs&#45;&gt;libcap</title>
<path fill="none" stroke="#8b4513" d="M276.54,-944.05C213.04,-928.85 107.14,-891.44 107.14,-811 107.14,-811 107.14,-811 107.14,-449 107.14,-409 107.14,-362.65 107.14,-334.08"/>
<polygon fill="#8b4513" stroke="#8b4513" points="110.64,-334.05 107.14,-324.05 103.64,-334.05 110.64,-334.05"/>
</g>
<!-- libgcrypt -->
<g id="node15" class="node">
<title>libgcrypt</title>
<ellipse fill="green" stroke="green" cx="280.14" cy="-882" rx="42.79" ry="18"/>
<text text-anchor="middle" x="280.14" y="-878.3" font-family="Times,serif" font-size="14.00">libgcrypt</text>
</g>
<!-- systemd&#45;libs&#45;&gt;libgcrypt -->
<g id="edge18" class="edge">
<title>systemd&#45;libs&#45;&gt;libgcrypt</title>
<path fill="none" stroke="#8b4513" d="M312.73,-936.05C307.66,-927.8 301.46,-917.7 295.83,-908.54"/>
<polygon fill="#8b4513" stroke="#8b4513" points="298.67,-906.48 290.45,-899.79 292.71,-910.14 298.67,-906.48"/>
</g>
<!-- lz4 -->
<g id="node22" class="node">
<title>lz4</title>
<ellipse fill="green" stroke="green" cx="162.14" cy="-738" rx="27" ry="18"/>
<text text-anchor="middle" x="162.14" y="-734.3" font-family="Times,serif" font-size="14.00">lz4</text>
</g>
<!-- systemd&#45;libs&#45;&gt;lz4 -->
<g id="edge31" class="edge">
<title>systemd&#45;libs&#45;&gt;lz4</title>
<path fill="none" stroke="#8b4513" d="M287.67,-940.07C267.93,-931.34 244.18,-918.09 228.14,-900 193.27,-860.67 175.31,-800.43 167.38,-765.87"/>
<polygon fill="#8b4513" stroke="#8b4513" points="170.79,-765.05 165.24,-756.02 163.95,-766.54 170.79,-765.05"/>
</g>
<!-- xz -->
<g id="node23" class="node">
<title>xz</title>
<ellipse fill="green" stroke="green" cx="372.14" cy="-810" rx="27" ry="18"/>
<text text-anchor="middle" x="372.14" y="-806.3" font-family="Times,serif" font-size="14.00">xz</text>
</g>
<!-- systemd&#45;libs&#45;&gt;xz -->
<g id="edge33" class="edge">
<title>systemd&#45;libs&#45;&gt;xz</title>
<path fill="none" stroke="#8b4513" d="M329.05,-935.87C337.49,-911.43 353.05,-866.33 362.98,-837.55"/>
<polygon fill="#8b4513" stroke="#8b4513" points="366.41,-838.34 366.36,-827.75 359.79,-836.06 366.41,-838.34"/>
</g>
<!-- libcap&#45;&gt;glibc -->
<g id="edge15" class="edge">
<title>libcap&#45;&gt;glibc</title>
<path fill="none" stroke="#8b4513" d="M94.28,-289.14C80.56,-270.18 62.88,-238.22 79.14,-216 108.33,-176.12 167.74,-165.51 207.25,-163.08"/>
<polygon fill="#8b4513" stroke="#8b4513" points="207.5,-166.58 217.33,-162.61 207.18,-159.58 207.5,-166.58"/>
</g>
<!-- attr -->
<g id="node14" class="node">
<title>attr</title>
<ellipse fill="green" stroke="green" cx="115.14" cy="-234" rx="27" ry="18"/>
<text text-anchor="middle" x="115.14" y="-230.3" font-family="Times,serif" font-size="14.00">attr</text>
</g>
<!-- libcap&#45;&gt;attr -->
<g id="edge16" class="edge">
<title>libcap&#45;&gt;attr</title>
<path fill="none" stroke="#8b4513" d="M109.12,-287.7C110,-279.98 111.06,-270.71 112.04,-262.11"/>
<polygon fill="#8b4513" stroke="#8b4513" points="115.53,-262.44 113.19,-252.1 108.57,-261.64 115.53,-262.44"/>
</g>
<!-- attr&#45;&gt;glibc -->
<g id="edge17" class="edge">
<title>attr&#45;&gt;glibc</title>
<path fill="none" stroke="#8b4513" d="M135.61,-222.06C157.18,-210.54 191.37,-192.27 216.02,-179.1"/>
<polygon fill="#8b4513" stroke="#8b4513" points="217.78,-182.12 224.95,-174.32 214.48,-175.95 217.78,-182.12"/>
</g>
<!-- libgpg&#45;error -->
<g id="node16" class="node">
<title>libgpg&#45;error</title>
<ellipse fill="green" stroke="green" cx="273.14" cy="-810" rx="53.89" ry="18"/>
<text text-anchor="middle" x="273.14" y="-806.3" font-family="Times,serif" font-size="14.00">libgpg&#45;error</text>
</g>
<!-- libgcrypt&#45;&gt;libgpg&#45;error -->
<g id="edge19" class="edge">
<title>libgcrypt&#45;&gt;libgpg&#45;error</title>
<path fill="none" stroke="#8b4513" d="M278.41,-863.7C277.64,-855.98 276.71,-846.71 275.85,-838.11"/>
<polygon fill="#8b4513" stroke="#8b4513" points="279.33,-837.71 274.85,-828.1 272.36,-838.4 279.33,-837.71"/>
</g>
<!-- libgpg&#45;error&#45;&gt;glibc -->
<g id="edge20" class="edge">
<title>libgpg&#45;error&#45;&gt;glibc</title>
<path fill="none" stroke="#8b4513" d="M266.43,-791.9C249.82,-747.99 208.14,-627.38 208.14,-523 208.14,-523 208.14,-523 208.14,-305 208.14,-263.41 223.54,-217.22 234.74,-189.14"/>
<polygon fill="#8b4513" stroke="#8b4513" points="238.07,-190.24 238.63,-179.66 231.59,-187.58 238.07,-190.24"/>
</g>
<!-- sh -->
<g id="node17" class="node">
<title>sh</title>
<ellipse fill="green" stroke="green" cx="372.14" cy="-738" rx="27" ry="18"/>
<text text-anchor="middle" x="372.14" y="-734.3" font-family="Times,serif" font-size="14.00">sh</text>
</g>
<!-- libgpg&#45;error&#45;&gt;sh -->
<g id="edge21" class="edge">
<title>libgpg&#45;error&#45;&gt;sh</title>
<path fill="none" stroke="#8b4513" d="M295.11,-793.46C310.11,-782.86 330.05,-768.76 345.88,-757.57"/>
<polygon fill="#8b4513" stroke="#8b4513" points="348.05,-760.32 354.2,-751.69 344.01,-754.6 348.05,-760.32"/>
</g>
<!-- bash -->
<g id="node18" class="node">
<title>bash</title>
<ellipse fill="green" stroke="green" cx="372.14" cy="-666" rx="27" ry="18"/>
<text text-anchor="middle" x="372.14" y="-662.3" font-family="Times,serif" font-size="14.00">bash</text>
</g>
<!-- sh&#45;&gt;bash -->
<g id="edge22" class="edge">
<title>sh&#45;&gt;bash</title>
<path fill="none" stroke="grey" d="M366.3,-720.41C365.1,-709.41 365.09,-695.03 366.26,-683.96"/>
</g>
<!-- sh&#45;&gt;bash -->
<g id="edge35" class="edge">
<title>sh&#45;&gt;bash</title>
<path fill="none" stroke="grey" d="M377.98,-720.41C379.18,-709.41 379.19,-695.03 378.02,-683.96"/>
</g>
<!-- bash&#45;&gt;ncurses -->
<g id="edge30" class="edge">
<title>bash&#45;&gt;ncurses</title>
<path fill="none" stroke="#8b4513" d="M394.41,-655.4C412.68,-646.52 438.08,-631.71 454.14,-612 497.53,-558.78 497.48,-535.49 510.14,-468 513.97,-447.59 512.41,-424.13 510.06,-406.42"/>
<polygon fill="#8b4513" stroke="#8b4513" points="513.48,-405.59 508.54,-396.22 506.55,-406.63 513.48,-405.59"/>
</g>
<!-- bash&#45;&gt;glibc -->
<g id="edge29" class="edge">
<title>bash&#45;&gt;glibc</title>
<path fill="none" stroke="#8b4513" d="M351.62,-654.2C315.91,-633.76 246.14,-585.79 246.14,-523 246.14,-523 246.14,-523 246.14,-305 246.14,-265 246.14,-218.65 246.14,-190.08"/>
<polygon fill="#8b4513" stroke="#8b4513" points="249.64,-190.05 246.14,-180.05 242.64,-190.05 249.64,-190.05"/>
</g>
<!-- readline&gt;=7.0 -->
<g id="node19" class="node">
<title>readline&gt;=7.0</title>
<ellipse fill="green" stroke="green" cx="384.14" cy="-594" rx="61.19" ry="18"/>
<text text-anchor="middle" x="384.14" y="-590.3" font-family="Times,serif" font-size="14.00">readline&gt;=7.0</text>
</g>
<!-- bash&#45;&gt;readline&gt;=7.0 -->
<g id="edge23" class="edge">
<title>bash&#45;&gt;readline&gt;=7.0</title>
<path fill="none" stroke="#8b4513" d="M375.05,-648.05C376.37,-640.35 377.97,-631.03 379.45,-622.36"/>
<polygon fill="#8b4513" stroke="#8b4513" points="382.94,-622.72 381.18,-612.28 376.04,-621.54 382.94,-622.72"/>
</g>
<!-- readline -->
<g id="node20" class="node">
<title>readline</title>
<ellipse fill="green" stroke="green" cx="392.14" cy="-522" rx="38.99" ry="18"/>
<text text-anchor="middle" x="392.14" y="-518.3" font-family="Times,serif" font-size="14.00">readline</text>
</g>
<!-- readline&gt;=7.0&#45;&gt;readline -->
<g id="edge24" class="edge">
<title>readline&gt;=7.0&#45;&gt;readline</title>
<path fill="none" stroke="grey" d="M386.12,-575.7C387.36,-564.85 388.95,-550.92 390.19,-540.1"/>
</g>
<!-- readline&#45;&gt;ncurses -->
<g id="edge26" class="edge">
<title>readline&#45;&gt;ncurses</title>
<path fill="none" stroke="#8b4513" d="M424.17,-511.64C445.9,-503.61 473.44,-489.8 489.14,-468 502.01,-450.13 505.58,-425.13 506.18,-406.17"/>
<polygon fill="#8b4513" stroke="#8b4513" points="509.68,-406.1 506.24,-396.08 502.68,-406.06 509.68,-406.1"/>
</g>
<!-- readline&#45;&gt;glibc -->
<g id="edge25" class="edge">
<title>readline&#45;&gt;glibc</title>
<path fill="none" stroke="#8b4513" d="M362.06,-510.45C342.33,-501.99 317.6,-488.17 303.14,-468 279.57,-435.13 284.14,-419.45 284.14,-379 284.14,-379 284.14,-379 284.14,-305 284.14,-263.41 268.74,-217.22 257.55,-189.14"/>
<polygon fill="#8b4513" stroke="#8b4513" points="260.69,-187.58 253.65,-179.66 254.21,-190.24 260.69,-187.58"/>
</g>
<!-- libncursesw.so=6&#45;64 -->
<g id="node21" class="node">
<title>libncursesw.so=6&#45;64</title>
<ellipse fill="green" stroke="green" cx="396.14" cy="-450" rx="83.69" ry="18"/>
<text text-anchor="middle" x="396.14" y="-446.3" font-family="Times,serif" font-size="14.00">libncursesw.so=6&#45;64</text>
</g>
<!-- readline&#45;&gt;libncursesw.so=6&#45;64 -->
<g id="edge27" class="edge">
<title>readline&#45;&gt;libncursesw.so=6&#45;64</title>
<path fill="none" stroke="#8b4513" d="M393.13,-503.7C393.57,-495.98 394.1,-486.71 394.59,-478.11"/>
<polygon fill="#8b4513" stroke="#8b4513" points="398.09,-478.29 395.16,-468.1 391.1,-477.89 398.09,-478.29"/>
</g>
<!-- libncursesw.so=6&#45;64&#45;&gt;ncurses -->
<g id="edge28" class="edge">
<title>libncursesw.so=6&#45;64&#45;&gt;ncurses</title>
<path fill="none" stroke="grey" d="M421.42,-432.76C440.29,-420.65 465.79,-404.27 483.67,-392.79"/>
</g>
<!-- lz4&#45;&gt;glibc -->
<g id="edge32" class="edge">
<title>lz4&#45;&gt;glibc</title>
<path fill="none" stroke="#8b4513" d="M163.72,-719.97C166.05,-693.33 170.14,-640.19 170.14,-595 170.14,-595 170.14,-595 170.14,-305 170.14,-264.03 173.8,-251.56 194.14,-216 201.11,-203.82 211.56,-192.41 221.27,-183.32"/>
<polygon fill="#8b4513" stroke="#8b4513" points="223.7,-185.84 228.81,-176.56 219.03,-180.63 223.7,-185.84"/>
</g>
<!-- xz&#45;&gt;sh -->
<g id="edge34" class="edge">
<title>xz&#45;&gt;sh</title>
<path fill="none" stroke="#8b4513" d="M372.14,-791.7C372.14,-783.98 372.14,-774.71 372.14,-766.11"/>
<polygon fill="#8b4513" stroke="#8b4513" points="375.64,-766.1 372.14,-756.1 368.64,-766.1 375.64,-766.1"/>
</g>
</g>
</svg>
