<?xml version="1.0" encoding="UTF-8" standalone="no"?>
<!DOCTYPE svg PUBLIC "-//W3C//DTD SVG 1.1//EN"
 "http://www.w3.org/Graphics/SVG/1.1/DTD/svg11.dtd">
<!-- Generated by graphviz version 2.44.0 (0)
 -->
<!-- Title: G Pages: 1 -->
<svg width="740pt" height="1916pt"
 viewBox="0.00 0.00 739.74 1916.00" xmlns="http://www.w3.org/2000/svg" xmlns:xlink="http://www.w3.org/1999/xlink">
<g id="graph0" class="graph" transform="scale(1 1) rotate(0) translate(4 1912)">
<title>G</title>
<polygon fill="white" stroke="transparent" points="-4,4 -4,-1912 735.74,-1912 735.74,4 -4,4"/>
<!-- START -->
<g id="node1" class="node">
<title>START</title>
<ellipse fill="red" stroke="red" cx="242.74" cy="-1890" rx="38.19" ry="18"/>
<text text-anchor="middle" x="242.74" y="-1886.3" font-family="Times,serif" font-size="14.00">START</text>
</g>
<!-- python&#45;requests -->
<g id="node2" class="node">
<title>python&#45;requests</title>
<ellipse fill="green" stroke="green" cx="242.74" cy="-1818" rx="66.89" ry="18"/>
<text text-anchor="middle" x="242.74" y="-1814.3" font-family="Times,serif" font-size="14.00">python&#45;requests</text>
</g>
<!-- START&#45;&gt;python&#45;requests -->
<g id="edge1" class="edge">
<title>START&#45;&gt;python&#45;requests</title>
<path fill="none" stroke="black" d="M242.74,-1871.7C242.74,-1863.98 242.74,-1854.71 242.74,-1846.11"/>
<polygon fill="black" stroke="black" points="246.24,-1846.1 242.74,-1836.1 239.24,-1846.1 246.24,-1846.1"/>
</g>
<!-- python&#45;urllib3 -->
<g id="node3" class="node">
<title>python&#45;urllib3</title>
<ellipse fill="green" stroke="green" cx="61.74" cy="-1674" rx="61.99" ry="18"/>
<text text-anchor="middle" x="61.74" y="-1670.3" font-family="Times,serif" font-size="14.00">python&#45;urllib3</text>
</g>
<!-- python&#45;requests&#45;&gt;python&#45;urllib3 -->
<g id="edge2" class="edge">
<title>python&#45;requests&#45;&gt;python&#45;urllib3</title>
<path fill="none" stroke="#8b4513" d="M219.79,-1800.88C205.28,-1790.56 186.22,-1776.75 169.74,-1764 141.63,-1742.24 110.38,-1716.29 88.75,-1698.03"/>
<polygon fill="#8b4513" stroke="#8b4513" points="90.86,-1695.23 80.96,-1691.44 86.34,-1700.57 90.86,-1695.23"/>
</g>
<!-- python&#45;chardet -->
<g id="node36" class="node">
<title>python&#45;chardet</title>
<ellipse fill="green" stroke="green" cx="242.74" cy="-1746" rx="63.89" ry="18"/>
<text text-anchor="middle" x="242.74" y="-1742.3" font-family="Times,serif" font-size="14.00">python&#45;chardet</text>
</g>
<!-- python&#45;requests&#45;&gt;python&#45;chardet -->
<g id="edge58" class="edge">
<title>python&#45;requests&#45;&gt;python&#45;chardet</title>
<path fill="none" stroke="#8b4513" d="M242.74,-1799.7C242.74,-1791.98 242.74,-1782.71 242.74,-1774.11"/>
<polygon fill="#8b4513" stroke="#8b4513" points="246.24,-1774.1 242.74,-1764.1 239.24,-1774.1 246.24,-1774.1"/>
</g>
<!-- python&#45;idna -->
<g id="node43" class="node">
<title>python&#45;idna</title>
<ellipse fill="green" stroke="green" cx="454.74" cy="-1746" rx="53.09" ry="18"/>
<text text-anchor="middle" x="454.74" y="-1742.3" font-family="Times,serif" font-size="14.00">python&#45;idna</text>
</g>
<!-- python&#45;requests&#45;&gt;python&#45;idna -->
<g id="edge69" class="edge">
<title>python&#45;requests&#45;&gt;python&#45;idna</title>
<path fill="none" stroke="#8b4513" d="M283.62,-1803.5C319.3,-1791.72 371.04,-1774.64 408.28,-1762.34"/>
<polygon fill="#8b4513" stroke="#8b4513" points="409.49,-1765.63 417.89,-1759.17 407.3,-1758.98 409.49,-1765.63"/>
</g>
<!-- python -->
<g id="node4" class="node">
<title>python</title>
<ellipse fill="green" stroke="green" cx="253.74" cy="-1458" rx="35.19" ry="18"/>
<text text-anchor="middle" x="253.74" y="-1454.3" font-family="Times,serif" font-size="14.00">python</text>
</g>
<!-- python&#45;urllib3&#45;&gt;python -->
<g id="edge3" class="edge">
<title>python&#45;urllib3&#45;&gt;python</title>
<path fill="none" stroke="#8b4513" d="M57.69,-1655.93C55.44,-1645.6 52.88,-1632.12 51.74,-1620 46.93,-1568.56 54.48,-1544.37 94.74,-1512 128.04,-1485.24 175.44,-1471.74 209.82,-1465.09"/>
<polygon fill="#8b4513" stroke="#8b4513" points="210.82,-1468.47 220.04,-1463.24 209.57,-1461.58 210.82,-1468.47"/>
</g>
<!-- expat -->
<g id="node5" class="node">
<title>expat</title>
<ellipse fill="green" stroke="green" cx="52.74" cy="-1314" rx="29.8" ry="18"/>
<text text-anchor="middle" x="52.74" y="-1310.3" font-family="Times,serif" font-size="14.00">expat</text>
</g>
<!-- python&#45;&gt;expat -->
<g id="edge4" class="edge">
<title>python&#45;&gt;expat</title>
<path fill="none" stroke="#8b4513" d="M220.77,-1451.53C188.97,-1444.86 140.9,-1430.97 107.74,-1404 87.25,-1387.33 72.29,-1360.88 63.19,-1341.14"/>
<polygon fill="#8b4513" stroke="#8b4513" points="66.31,-1339.54 59.08,-1331.79 59.9,-1342.35 66.31,-1339.54"/>
</g>
<!-- bzip2 -->
<g id="node12" class="node">
<title>bzip2</title>
<ellipse fill="green" stroke="green" cx="105.74" cy="-810" rx="30.59" ry="18"/>
<text text-anchor="middle" x="105.74" y="-806.3" font-family="Times,serif" font-size="14.00">bzip2</text>
</g>
<!-- python&#45;&gt;bzip2 -->
<g id="edge11" class="edge">
<title>python&#45;&gt;bzip2</title>
<path fill="none" stroke="#8b4513" d="M229.23,-1444.83C191.05,-1423.95 121.74,-1377.44 121.74,-1315 121.74,-1315 121.74,-1315 121.74,-953 121.74,-912.74 115.32,-866.47 110.61,-837.98"/>
<polygon fill="#8b4513" stroke="#8b4513" points="114.04,-837.25 108.91,-827.98 107.13,-838.43 114.04,-837.25"/>
</g>
<!-- gdbm -->
<g id="node21" class="node">
<title>gdbm</title>
<ellipse fill="green" stroke="green" cx="256.74" cy="-810" rx="31.4" ry="18"/>
<text text-anchor="middle" x="256.74" y="-806.3" font-family="Times,serif" font-size="14.00">gdbm</text>
</g>
<!-- python&#45;&gt;gdbm -->
<g id="edge27" class="edge">
<title>python&#45;&gt;gdbm</title>
<path fill="none" stroke="#8b4513" d="M243.67,-1440.64C228.81,-1414.9 202.74,-1362.94 202.74,-1315 202.74,-1315 202.74,-1315 202.74,-953 202.74,-912.55 206.11,-901.3 221.74,-864 225.97,-853.93 232.16,-843.73 238.16,-834.99"/>
<polygon fill="#8b4513" stroke="#8b4513" points="241.04,-836.98 244.03,-826.81 235.36,-832.9 241.04,-836.98"/>
</g>
<!-- openssl -->
<g id="node22" class="node">
<title>openssl</title>
<ellipse fill="green" stroke="green" cx="267.74" cy="-1026" rx="37.09" ry="18"/>
<text text-anchor="middle" x="267.74" y="-1022.3" font-family="Times,serif" font-size="14.00">openssl</text>
</g>
<!-- python&#45;&gt;openssl -->
<g id="edge30" class="edge">
<title>python&#45;&gt;openssl</title>
<path fill="none" stroke="#8b4513" d="M253.74,-1439.95C253.74,-1413.29 253.74,-1360.11 253.74,-1315 253.74,-1315 253.74,-1315 253.74,-1169 253.74,-1128.8 259.37,-1082.51 263.49,-1054"/>
<polygon fill="#8b4513" stroke="#8b4513" points="266.97,-1054.4 264.98,-1044 260.04,-1053.37 266.97,-1054.4"/>
</g>
<!-- libffi -->
<g id="node26" class="node">
<title>libffi</title>
<ellipse fill="green" stroke="green" cx="563.74" cy="-1242" rx="27.9" ry="18"/>
<text text-anchor="middle" x="563.74" y="-1238.3" font-family="Times,serif" font-size="14.00">libffi</text>
</g>
<!-- python&#45;&gt;libffi -->
<g id="edge39" class="edge">
<title>python&#45;&gt;libffi</title>
<path fill="none" stroke="#8b4513" d="M280.16,-1446.14C302.79,-1436.37 335.89,-1420.98 362.74,-1404 431.95,-1360.23 505.01,-1296.68 540.99,-1264.06"/>
<polygon fill="#8b4513" stroke="#8b4513" points="543.47,-1266.54 548.5,-1257.21 538.75,-1261.36 543.47,-1266.54"/>
</g>
<!-- zlib -->
<g id="node27" class="node">
<title>zlib</title>
<ellipse fill="green" stroke="green" cx="704.74" cy="-1170" rx="27" ry="18"/>
<text text-anchor="middle" x="704.74" y="-1166.3" font-family="Times,serif" font-size="14.00">zlib</text>
</g>
<!-- python&#45;&gt;zlib -->
<g id="edge41" class="edge">
<title>python&#45;&gt;zlib</title>
<path fill="none" stroke="#8b4513" d="M284.28,-1448.82C314.96,-1439.98 363.12,-1424.36 401.74,-1404 517.68,-1342.88 635.08,-1237.38 682.67,-1192.36"/>
<polygon fill="#8b4513" stroke="#8b4513" points="685.13,-1194.85 689.96,-1185.42 680.31,-1189.78 685.13,-1194.85"/>
</g>
<!-- libnsl -->
<g id="node28" class="node">
<title>libnsl</title>
<ellipse fill="green" stroke="green" cx="322.74" cy="-1386" rx="30.59" ry="18"/>
<text text-anchor="middle" x="322.74" y="-1382.3" font-family="Times,serif" font-size="14.00">libnsl</text>
</g>
<!-- python&#45;&gt;libnsl -->
<g id="edge43" class="edge">
<title>python&#45;&gt;libnsl</title>
<path fill="none" stroke="#8b4513" d="M269.06,-1441.46C278.39,-1432 290.46,-1419.75 300.79,-1409.27"/>
<polygon fill="#8b4513" stroke="#8b4513" points="303.42,-1411.59 307.95,-1402.01 298.43,-1406.68 303.42,-1411.59"/>
</g>
<!-- glibc -->
<g id="node6" class="node">
<title>glibc</title>
<ellipse fill="green" stroke="green" cx="378.74" cy="-162" rx="28.7" ry="18"/>
<text text-anchor="middle" x="378.74" y="-158.3" font-family="Times,serif" font-size="14.00">glibc</text>
</g>
<!-- expat&#45;&gt;glibc -->
<g id="edge5" class="edge">
<title>expat&#45;&gt;glibc</title>
<path fill="none" stroke="#8b4513" d="M51.56,-1295.96C49.81,-1269.31 46.74,-1216.15 46.74,-1171 46.74,-1171 46.74,-1171 46.74,-305 46.74,-178.64 252.55,-163.23 340.08,-162.39"/>
<polygon fill="#8b4513" stroke="#8b4513" points="340.16,-165.89 350.15,-162.35 340.14,-158.89 340.16,-165.89"/>
</g>
<!-- linux&#45;api&#45;headers&gt;=4.10 -->
<g id="node7" class="node">
<title>linux&#45;api&#45;headers&gt;=4.10</title>
<ellipse fill="green" stroke="green" cx="230.74" cy="-90" rx="98.28" ry="18"/>
<text text-anchor="middle" x="230.74" y="-86.3" font-family="Times,serif" font-size="14.00">linux&#45;api&#45;headers&gt;=4.10</text>
</g>
<!-- glibc&#45;&gt;linux&#45;api&#45;headers&gt;=4.10 -->
<g id="edge6" class="edge">
<title>glibc&#45;&gt;linux&#45;api&#45;headers&gt;=4.10</title>
<path fill="none" stroke="#8b4513" d="M356.59,-150.52C334.8,-140.22 300.97,-124.22 273.87,-111.4"/>
<polygon fill="#8b4513" stroke="#8b4513" points="275.14,-108.12 264.6,-107.01 272.14,-114.45 275.14,-108.12"/>
</g>
<!-- tzdata -->
<g id="node9" class="node">
<title>tzdata</title>
<ellipse fill="green" stroke="green" cx="378.74" cy="-90" rx="31.7" ry="18"/>
<text text-anchor="middle" x="378.74" y="-86.3" font-family="Times,serif" font-size="14.00">tzdata</text>
</g>
<!-- glibc&#45;&gt;tzdata -->
<g id="edge8" class="edge">
<title>glibc&#45;&gt;tzdata</title>
<path fill="none" stroke="#8b4513" d="M378.74,-143.7C378.74,-135.98 378.74,-126.71 378.74,-118.11"/>
<polygon fill="#8b4513" stroke="#8b4513" points="382.24,-118.1 378.74,-108.1 375.24,-118.1 382.24,-118.1"/>
</g>
<!-- filesystem -->
<g id="node10" class="node">
<title>filesystem</title>
<ellipse fill="green" stroke="green" cx="475.74" cy="-90" rx="46.59" ry="18"/>
<text text-anchor="middle" x="475.74" y="-86.3" font-family="Times,serif" font-size="14.00">filesystem</text>
</g>
<!-- glibc&#45;&gt;filesystem -->
<g id="edge9" class="edge">
<title>glibc&#45;&gt;filesystem</title>
<path fill="none" stroke="#8b4513" d="M396.99,-147.83C410.79,-137.88 430.03,-123.99 446.04,-112.44"/>
<polygon fill="#8b4513" stroke="#8b4513" points="448.48,-114.99 454.54,-106.3 444.38,-109.31 448.48,-114.99"/>
</g>
<!-- linux&#45;api&#45;headers -->
<g id="node8" class="node">
<title>linux&#45;api&#45;headers</title>
<ellipse fill="green" stroke="green" cx="230.74" cy="-18" rx="71.49" ry="18"/>
<text text-anchor="middle" x="230.74" y="-14.3" font-family="Times,serif" font-size="14.00">linux&#45;api&#45;headers</text>
</g>
<!-- linux&#45;api&#45;headers&gt;=4.10&#45;&gt;linux&#45;api&#45;headers -->
<g id="edge7" class="edge">
<title>linux&#45;api&#45;headers&gt;=4.10&#45;&gt;linux&#45;api&#45;headers</title>
<path fill="none" stroke="grey" d="M230.74,-71.7C230.74,-60.85 230.74,-46.92 230.74,-36.1"/>
</g>
<!-- iana&#45;etc -->
<g id="node11" class="node">
<title>iana&#45;etc</title>
<ellipse fill="green" stroke="green" cx="475.74" cy="-18" rx="38.19" ry="18"/>
<text text-anchor="middle" x="475.74" y="-14.3" font-family="Times,serif" font-size="14.00">iana&#45;etc</text>
</g>
<!-- filesystem&#45;&gt;iana&#45;etc -->
<g id="edge10" class="edge">
<title>filesystem&#45;&gt;iana&#45;etc</title>
<path fill="none" stroke="#8b4513" d="M475.74,-71.7C475.74,-63.98 475.74,-54.71 475.74,-46.11"/>
<polygon fill="#8b4513" stroke="#8b4513" points="479.24,-46.1 475.74,-36.1 472.24,-46.1 479.24,-46.1"/>
</g>
<!-- bzip2&#45;&gt;glibc -->
<g id="edge12" class="edge">
<title>bzip2&#45;&gt;glibc</title>
<path fill="none" stroke="#8b4513" d="M106.93,-791.96C108.68,-765.31 111.74,-712.15 111.74,-667 111.74,-667 111.74,-667 111.74,-305 111.74,-262.66 113.76,-243.75 145.74,-216 174.56,-190.99 282.27,-174.56 340.62,-167.29"/>
<polygon fill="#8b4513" stroke="#8b4513" points="341.06,-170.76 350.56,-166.08 340.22,-163.81 341.06,-170.76"/>
</g>
<!-- sh -->
<g id="node13" class="node">
<title>sh</title>
<ellipse fill="green" stroke="green" cx="401.74" cy="-738" rx="27" ry="18"/>
<text text-anchor="middle" x="401.74" y="-734.3" font-family="Times,serif" font-size="14.00">sh</text>
</g>
<!-- bzip2&#45;&gt;sh -->
<g id="edge13" class="edge">
<title>bzip2&#45;&gt;sh</title>
<path fill="none" stroke="#8b4513" d="M133.59,-802.41C187.76,-789.6 307.21,-761.36 366.68,-747.29"/>
<polygon fill="#8b4513" stroke="#8b4513" points="367.79,-750.63 376.72,-744.92 366.18,-743.81 367.79,-750.63"/>
</g>
<!-- bash -->
<g id="node14" class="node">
<title>bash</title>
<ellipse fill="green" stroke="green" cx="401.74" cy="-666" rx="27" ry="18"/>
<text text-anchor="middle" x="401.74" y="-662.3" font-family="Times,serif" font-size="14.00">bash</text>
</g>
<!-- sh&#45;&gt;bash -->
<g id="edge14" class="edge">
<title>sh&#45;&gt;bash</title>
<path fill="none" stroke="grey" d="M385.37,-723.5C380.2,-711.11 380.2,-692.84 385.39,-680.46"/>
</g>
<!-- sh&#45;&gt;bash -->
<g id="edge37" class="edge">
<title>sh&#45;&gt;bash</title>
<path fill="none" stroke="grey" d="M395.9,-720.41C394.7,-709.41 394.69,-695.03 395.87,-683.96"/>
</g>
<!-- sh&#45;&gt;bash -->
<g id="edge48" class="edge">
<title>sh&#45;&gt;bash</title>
<path fill="none" stroke="grey" d="M407.58,-720.41C408.78,-709.41 408.8,-695.03 407.62,-683.96"/>
</g>
<!-- sh&#45;&gt;bash -->
<g id="edge57" class="edge">
<title>sh&#45;&gt;bash</title>
<path fill="none" stroke="grey" d="M418.12,-723.5C423.29,-711.11 423.29,-692.84 418.1,-680.46"/>
</g>
<!-- bash&#45;&gt;glibc -->
<g id="edge25" class="edge">
<title>bash&#45;&gt;glibc</title>
<path fill="none" stroke="#8b4513" d="M426.02,-657.64C473.44,-641.6 573.74,-598.7 573.74,-523 573.74,-523 573.74,-523 573.74,-305 573.74,-227.53 471.92,-187.87 415.44,-171.83"/>
<polygon fill="#8b4513" stroke="#8b4513" points="416.02,-168.37 405.45,-169.11 414.18,-175.12 416.02,-168.37"/>
</g>
<!-- readline&gt;=7.0 -->
<g id="node15" class="node">
<title>readline&gt;=7.0</title>
<ellipse fill="green" stroke="green" cx="405.74" cy="-594" rx="61.19" ry="18"/>
<text text-anchor="middle" x="405.74" y="-590.3" font-family="Times,serif" font-size="14.00">readline&gt;=7.0</text>
</g>
<!-- bash&#45;&gt;readline&gt;=7.0 -->
<g id="edge15" class="edge">
<title>bash&#45;&gt;readline&gt;=7.0</title>
<path fill="none" stroke="#8b4513" d="M402.73,-647.7C403.17,-639.98 403.7,-630.71 404.2,-622.11"/>
<polygon fill="#8b4513" stroke="#8b4513" points="407.69,-622.29 404.77,-612.1 400.7,-621.89 407.69,-622.29"/>
</g>
<!-- ncurses -->
<g id="node17" class="node">
<title>ncurses</title>
<ellipse fill="green" stroke="green" cx="311.74" cy="-378" rx="37.09" ry="18"/>
<text text-anchor="middle" x="311.74" y="-374.3" font-family="Times,serif" font-size="14.00">ncurses</text>
</g>
<!-- bash&#45;&gt;ncurses -->
<g id="edge26" class="edge">
<title>bash&#45;&gt;ncurses</title>
<path fill="none" stroke="#8b4513" d="M381.32,-654.14C366.2,-644.98 346.45,-630.42 335.74,-612 297.54,-546.24 302.35,-452.22 307.71,-406.32"/>
<polygon fill="#8b4513" stroke="#8b4513" points="311.2,-406.61 308.99,-396.25 304.26,-405.73 311.2,-406.61"/>
</g>
<!-- readline -->
<g id="node16" class="node">
<title>readline</title>
<ellipse fill="green" stroke="green" cx="418.74" cy="-522" rx="38.99" ry="18"/>
<text text-anchor="middle" x="418.74" y="-518.3" font-family="Times,serif" font-size="14.00">readline</text>
</g>
<!-- readline&gt;=7.0&#45;&gt;readline -->
<g id="edge16" class="edge">
<title>readline&gt;=7.0&#45;&gt;readline</title>
<path fill="none" stroke="grey" d="M408.96,-575.7C410.97,-564.85 413.56,-550.92 415.57,-540.1"/>
</g>
<!-- readline&#45;&gt;glibc -->
<g id="edge17" class="edge">
<title>readline&#45;&gt;glibc</title>
<path fill="none" stroke="#8b4513" d="M450.88,-511.57C472.73,-503.5 500.51,-489.68 516.74,-468 540.99,-435.62 535.74,-419.45 535.74,-379 535.74,-379 535.74,-379 535.74,-305 535.74,-238.95 458.37,-195.66 412.26,-175.72"/>
<polygon fill="#8b4513" stroke="#8b4513" points="413.51,-172.45 402.93,-171.82 410.81,-178.9 413.51,-172.45"/>
</g>
<!-- readline&#45;&gt;ncurses -->
<g id="edge18" class="edge">
<title>readline&#45;&gt;ncurses</title>
<path fill="none" stroke="#8b4513" d="M388.57,-510.19C369.14,-501.67 344.93,-487.89 330.74,-468 317.88,-449.96 313.41,-424.97 311.99,-406.07"/>
<polygon fill="#8b4513" stroke="#8b4513" points="315.49,-405.81 311.48,-396 308.49,-406.17 315.49,-405.81"/>
</g>
<!-- libncursesw.so=6&#45;64 -->
<g id="node20" class="node">
<title>libncursesw.so=6&#45;64</title>
<ellipse fill="green" stroke="green" cx="423.74" cy="-450" rx="83.69" ry="18"/>
<text text-anchor="middle" x="423.74" y="-446.3" font-family="Times,serif" font-size="14.00">libncursesw.so=6&#45;64</text>
</g>
<!-- readline&#45;&gt;libncursesw.so=6&#45;64 -->
<g id="edge23" class="edge">
<title>readline&#45;&gt;libncursesw.so=6&#45;64</title>
<path fill="none" stroke="#8b4513" d="M419.98,-503.7C420.53,-495.98 421.19,-486.71 421.81,-478.11"/>
<polygon fill="#8b4513" stroke="#8b4513" points="425.3,-478.33 422.52,-468.1 418.32,-477.83 425.3,-478.33"/>
</g>
<!-- ncurses&#45;&gt;glibc -->
<g id="edge19" class="edge">
<title>ncurses&#45;&gt;glibc</title>
<path fill="none" stroke="#8b4513" d="M323.14,-360.47C329.68,-350.33 337.6,-336.87 342.74,-324 360.81,-278.84 370.75,-222.76 375.39,-190.11"/>
<polygon fill="#8b4513" stroke="#8b4513" points="378.89,-190.36 376.77,-179.98 371.95,-189.42 378.89,-190.36"/>
</g>
<!-- gcc&#45;libs -->
<g id="node18" class="node">
<title>gcc&#45;libs</title>
<ellipse fill="green" stroke="green" cx="295.74" cy="-306" rx="38.19" ry="18"/>
<text text-anchor="middle" x="295.74" y="-302.3" font-family="Times,serif" font-size="14.00">gcc&#45;libs</text>
</g>
<!-- ncurses&#45;&gt;gcc&#45;libs -->
<g id="edge20" class="edge">
<title>ncurses&#45;&gt;gcc&#45;libs</title>
<path fill="none" stroke="#8b4513" d="M307.87,-360.05C306.09,-352.26 303.93,-342.82 301.93,-334.08"/>
<polygon fill="#8b4513" stroke="#8b4513" points="305.33,-333.24 299.69,-324.28 298.51,-334.8 305.33,-333.24"/>
</g>
<!-- glibc&gt;=2.27 -->
<g id="node19" class="node">
<title>glibc&gt;=2.27</title>
<ellipse fill="green" stroke="green" cx="295.74" cy="-234" rx="54.69" ry="18"/>
<text text-anchor="middle" x="295.74" y="-230.3" font-family="Times,serif" font-size="14.00">glibc&gt;=2.27</text>
</g>
<!-- gcc&#45;libs&#45;&gt;glibc&gt;=2.27 -->
<g id="edge21" class="edge">
<title>gcc&#45;libs&#45;&gt;glibc&gt;=2.27</title>
<path fill="none" stroke="#8b4513" d="M295.74,-287.7C295.74,-279.98 295.74,-270.71 295.74,-262.11"/>
<polygon fill="#8b4513" stroke="#8b4513" points="299.24,-262.1 295.74,-252.1 292.24,-262.1 299.24,-262.1"/>
</g>
<!-- glibc&gt;=2.27&#45;&gt;glibc -->
<g id="edge22" class="edge">
<title>glibc&gt;=2.27&#45;&gt;glibc</title>
<path fill="none" stroke="grey" d="M315,-216.76C329.36,-204.65 348.78,-188.27 362.4,-176.79"/>
</g>
<!-- libncursesw.so=6&#45;64&#45;&gt;ncurses -->
<g id="edge24" class="edge">
<title>libncursesw.so=6&#45;64&#45;&gt;ncurses</title>
<path fill="none" stroke="grey" d="M397.77,-432.76C378.38,-420.65 352.18,-404.27 333.81,-392.79"/>
</g>
<!-- gdbm&#45;&gt;glibc -->
<g id="edge28" class="edge">
<title>gdbm&#45;&gt;glibc</title>
<path fill="none" stroke="#8b4513" d="M245.09,-792.86C227.89,-767.42 197.74,-715.85 197.74,-667 197.74,-667 197.74,-667 197.74,-305 197.74,-262.66 201.52,-245.66 231.74,-216 261.27,-187.02 307.78,-173.76 340.57,-167.78"/>
<polygon fill="#8b4513" stroke="#8b4513" points="341.41,-171.18 350.69,-166.08 340.25,-164.28 341.41,-171.18"/>
</g>
<!-- gdbm&#45;&gt;sh -->
<g id="edge29" class="edge">
<title>gdbm&#45;&gt;sh</title>
<path fill="none" stroke="#8b4513" d="M280.04,-797.75C304.82,-785.79 344.11,-766.82 371.32,-753.69"/>
<polygon fill="#8b4513" stroke="#8b4513" points="372.91,-756.81 380.4,-749.31 369.87,-750.5 372.91,-756.81"/>
</g>
<!-- perl -->
<g id="node23" class="node">
<title>perl</title>
<ellipse fill="green" stroke="green" cx="277.74" cy="-954" rx="27" ry="18"/>
<text text-anchor="middle" x="277.74" y="-950.3" font-family="Times,serif" font-size="14.00">perl</text>
</g>
<!-- openssl&#45;&gt;perl -->
<g id="edge31" class="edge">
<title>openssl&#45;&gt;perl</title>
<path fill="none" stroke="#8b4513" d="M270.22,-1007.7C271.32,-999.98 272.64,-990.71 273.87,-982.11"/>
<polygon fill="#8b4513" stroke="#8b4513" points="277.35,-982.5 275.3,-972.1 270.42,-981.51 277.35,-982.5"/>
</g>
<!-- perl&#45;&gt;glibc -->
<g id="edge38" class="edge">
<title>perl&#45;&gt;glibc</title>
<path fill="none" stroke="#8b4513" d="M259.84,-940.34C247.4,-930.65 231.39,-916.22 221.74,-900 166.97,-807.9 159.74,-774.16 159.74,-667 159.74,-667 159.74,-667 159.74,-305 159.74,-261.26 168.59,-244.52 201.74,-216 240.87,-182.35 300.72,-170.06 339.79,-165.58"/>
<polygon fill="#8b4513" stroke="#8b4513" points="340.64,-169.01 350.23,-164.51 339.93,-162.04 340.64,-169.01"/>
</g>
<!-- gdbm&gt;=1.17 -->
<g id="node24" class="node">
<title>gdbm&gt;=1.17</title>
<ellipse fill="green" stroke="green" cx="288.74" cy="-882" rx="57.69" ry="18"/>
<text text-anchor="middle" x="288.74" y="-878.3" font-family="Times,serif" font-size="14.00">gdbm&gt;=1.17</text>
</g>
<!-- perl&#45;&gt;gdbm&gt;=1.17 -->
<g id="edge32" class="edge">
<title>perl&#45;&gt;gdbm&gt;=1.17</title>
<path fill="none" stroke="#8b4513" d="M280.41,-936.05C281.62,-928.35 283.08,-919.03 284.44,-910.36"/>
<polygon fill="#8b4513" stroke="#8b4513" points="287.93,-910.7 286.03,-900.28 281.02,-909.61 287.93,-910.7"/>
</g>
<!-- db -->
<g id="node25" class="node">
<title>db</title>
<ellipse fill="green" stroke="green" cx="374.74" cy="-810" rx="27" ry="18"/>
<text text-anchor="middle" x="374.74" y="-806.3" font-family="Times,serif" font-size="14.00">db</text>
</g>
<!-- perl&#45;&gt;db -->
<g id="edge34" class="edge">
<title>perl&#45;&gt;db</title>
<path fill="none" stroke="#8b4513" d="M300.1,-943.57C317.94,-934.87 342.13,-920.24 355.74,-900 368.04,-881.72 372.58,-856.96 374.16,-838.19"/>
<polygon fill="#8b4513" stroke="#8b4513" points="377.66,-838.39 374.78,-828.2 370.67,-837.96 377.66,-838.39"/>
</g>
<!-- gdbm&gt;=1.17&#45;&gt;gdbm -->
<g id="edge33" class="edge">
<title>gdbm&gt;=1.17&#45;&gt;gdbm</title>
<path fill="none" stroke="grey" d="M281,-864.05C275.97,-853.05 269.44,-838.76 264.42,-827.79"/>
</g>
<!-- db&#45;&gt;sh -->
<g id="edge36" class="edge">
<title>db&#45;&gt;sh</title>
<path fill="none" stroke="#8b4513" d="M381.14,-792.41C384.26,-784.34 388.08,-774.43 391.58,-765.35"/>
<polygon fill="#8b4513" stroke="#8b4513" points="394.87,-766.55 395.2,-755.96 388.34,-764.03 394.87,-766.55"/>
</g>
<!-- db&#45;&gt;gcc&#45;libs -->
<g id="edge35" class="edge">
<title>db&#45;&gt;gcc&#45;libs</title>
<path fill="none" stroke="#8b4513" d="M353.03,-799.23C313.93,-779.99 235.74,-733.24 235.74,-667 235.74,-667 235.74,-667 235.74,-449 235.74,-405.24 260.22,-359.45 277.91,-332.07"/>
<polygon fill="#8b4513" stroke="#8b4513" points="280.97,-333.79 283.6,-323.53 275.15,-329.91 280.97,-333.79"/>
</g>
<!-- libffi&#45;&gt;glibc -->
<g id="edge40" class="edge">
<title>libffi&#45;&gt;glibc</title>
<path fill="none" stroke="#8b4513" d="M579.52,-1226.98C604.35,-1203.28 649.74,-1152.61 649.74,-1099 649.74,-1099 649.74,-1099 649.74,-305 649.74,-201.26 492,-173.16 417.21,-165.67"/>
<polygon fill="#8b4513" stroke="#8b4513" points="417.51,-162.18 407.23,-164.74 416.87,-169.15 417.51,-162.18"/>
</g>
<!-- zlib&#45;&gt;glibc -->
<g id="edge42" class="edge">
<title>zlib&#45;&gt;glibc</title>
<path fill="none" stroke="#8b4513" d="M702.97,-1151.97C700.34,-1125.34 695.74,-1072.21 695.74,-1027 695.74,-1027 695.74,-1027 695.74,-305 695.74,-262.97 695.77,-243.23 663.74,-216 627.1,-184.83 486.23,-170.66 417.25,-165.48"/>
<polygon fill="#8b4513" stroke="#8b4513" points="417.45,-161.98 407.22,-164.75 416.94,-168.96 417.45,-161.98"/>
</g>
<!-- libtirpc -->
<g id="node29" class="node">
<title>libtirpc</title>
<ellipse fill="green" stroke="green" cx="332.74" cy="-1314" rx="36.29" ry="18"/>
<text text-anchor="middle" x="332.74" y="-1310.3" font-family="Times,serif" font-size="14.00">libtirpc</text>
</g>
<!-- libnsl&#45;&gt;libtirpc -->
<g id="edge44" class="edge">
<title>libnsl&#45;&gt;libtirpc</title>
<path fill="none" stroke="#8b4513" d="M325.17,-1368.05C326.27,-1360.35 327.6,-1351.03 328.84,-1342.36"/>
<polygon fill="#8b4513" stroke="#8b4513" points="332.33,-1342.67 330.28,-1332.28 325.4,-1341.68 332.33,-1342.67"/>
</g>
<!-- krb5 -->
<g id="node30" class="node">
<title>krb5</title>
<ellipse fill="green" stroke="green" cx="374.74" cy="-1242" rx="27.1" ry="18"/>
<text text-anchor="middle" x="374.74" y="-1238.3" font-family="Times,serif" font-size="14.00">krb5</text>
</g>
<!-- libtirpc&#45;&gt;krb5 -->
<g id="edge45" class="edge">
<title>libtirpc&#45;&gt;krb5</title>
<path fill="none" stroke="#8b4513" d="M342.7,-1296.41C347.85,-1287.83 354.23,-1277.19 359.94,-1267.67"/>
<polygon fill="#8b4513" stroke="#8b4513" points="363.01,-1269.36 365.15,-1258.99 357.01,-1265.76 363.01,-1269.36"/>
</g>
<!-- e2fsprogs -->
<g id="node31" class="node">
<title>e2fsprogs</title>
<ellipse fill="green" stroke="green" cx="410.74" cy="-1098" rx="44.69" ry="18"/>
<text text-anchor="middle" x="410.74" y="-1094.3" font-family="Times,serif" font-size="14.00">e2fsprogs</text>
</g>
<!-- krb5&#45;&gt;e2fsprogs -->
<g id="edge46" class="edge">
<title>krb5&#45;&gt;e2fsprogs</title>
<path fill="none" stroke="#8b4513" d="M380.7,-1223.94C384.18,-1213.62 388.51,-1200.14 391.74,-1188 397.2,-1167.52 402.16,-1144.06 405.64,-1126.37"/>
<polygon fill="#8b4513" stroke="#8b4513" points="409.15,-1126.66 407.61,-1116.18 402.27,-1125.34 409.15,-1126.66"/>
</g>
<!-- libldap -->
<g id="node33" class="node">
<title>libldap</title>
<ellipse fill="green" stroke="green" cx="347.74" cy="-1170" rx="35.19" ry="18"/>
<text text-anchor="middle" x="347.74" y="-1166.3" font-family="Times,serif" font-size="14.00">libldap</text>
</g>
<!-- krb5&#45;&gt;libldap -->
<g id="edge50" class="edge">
<title>krb5&#45;&gt;libldap</title>
<path fill="none" stroke="#8b4513" d="M368.35,-1224.41C365.23,-1216.34 361.41,-1206.43 357.91,-1197.35"/>
<polygon fill="#8b4513" stroke="#8b4513" points="361.15,-1196.03 354.28,-1187.96 354.62,-1198.55 361.15,-1196.03"/>
</g>
<!-- keyutils -->
<g id="node35" class="node">
<title>keyutils</title>
<ellipse fill="green" stroke="green" cx="522.74" cy="-810" rx="38.19" ry="18"/>
<text text-anchor="middle" x="522.74" y="-806.3" font-family="Times,serif" font-size="14.00">keyutils</text>
</g>
<!-- krb5&#45;&gt;keyutils -->
<g id="edge54" class="edge">
<title>krb5&#45;&gt;keyutils</title>
<path fill="none" stroke="#8b4513" d="M396.27,-1230.71C434.15,-1210.92 508.74,-1163.74 508.74,-1099 508.74,-1099 508.74,-1099 508.74,-953 508.74,-912.8 514.37,-866.51 518.49,-838"/>
<polygon fill="#8b4513" stroke="#8b4513" points="521.97,-838.4 519.98,-828 515.04,-837.37 521.97,-838.4"/>
</g>
<!-- e2fsprogs&#45;&gt;sh -->
<g id="edge47" class="edge">
<title>e2fsprogs&#45;&gt;sh</title>
<path fill="none" stroke="#8b4513" d="M420.67,-1080.32C426.37,-1070.12 433.26,-1056.65 437.74,-1044 451.26,-1005.88 456.74,-995.45 456.74,-955 456.74,-955 456.74,-955 456.74,-881 456.74,-837.3 433.81,-790.82 417.56,-763.38"/>
<polygon fill="#8b4513" stroke="#8b4513" points="420.54,-761.55 412.35,-754.84 414.57,-765.2 420.54,-761.55"/>
</g>
<!-- libutil&#45;linux -->
<g id="node32" class="node">
<title>libutil&#45;linux</title>
<ellipse fill="green" stroke="green" cx="375.74" cy="-1026" rx="52.79" ry="18"/>
<text text-anchor="middle" x="375.74" y="-1022.3" font-family="Times,serif" font-size="14.00">libutil&#45;linux</text>
</g>
<!-- e2fsprogs&#45;&gt;libutil&#45;linux -->
<g id="edge49" class="edge">
<title>e2fsprogs&#45;&gt;libutil&#45;linux</title>
<path fill="none" stroke="#8b4513" d="M402.27,-1080.05C398.19,-1071.89 393.2,-1061.91 388.66,-1052.82"/>
<polygon fill="#8b4513" stroke="#8b4513" points="391.74,-1051.17 384.14,-1043.79 385.48,-1054.3 391.74,-1051.17"/>
</g>
<!-- libldap&#45;&gt;e2fsprogs -->
<g id="edge53" class="edge">
<title>libldap&#45;&gt;e2fsprogs</title>
<path fill="none" stroke="#8b4513" d="M361.73,-1153.46C369.74,-1144.57 379.96,-1133.21 389,-1123.16"/>
<polygon fill="#8b4513" stroke="#8b4513" points="391.84,-1125.24 395.92,-1115.47 386.63,-1120.56 391.84,-1125.24"/>
</g>
<!-- libsasl -->
<g id="node34" class="node">
<title>libsasl</title>
<ellipse fill="green" stroke="green" cx="314.74" cy="-1098" rx="33.29" ry="18"/>
<text text-anchor="middle" x="314.74" y="-1094.3" font-family="Times,serif" font-size="14.00">libsasl</text>
</g>
<!-- libldap&#45;&gt;libsasl -->
<g id="edge51" class="edge">
<title>libldap&#45;&gt;libsasl</title>
<path fill="none" stroke="#8b4513" d="M339.92,-1152.41C336.08,-1144.25 331.35,-1134.22 327.03,-1125.07"/>
<polygon fill="#8b4513" stroke="#8b4513" points="330.17,-1123.51 322.74,-1115.96 323.84,-1126.49 330.17,-1123.51"/>
</g>
<!-- libsasl&#45;&gt;openssl -->
<g id="edge52" class="edge">
<title>libsasl&#45;&gt;openssl</title>
<path fill="none" stroke="#8b4513" d="M303.84,-1080.76C298.11,-1072.23 290.96,-1061.58 284.54,-1052.02"/>
<polygon fill="#8b4513" stroke="#8b4513" points="287.39,-1049.98 278.91,-1043.63 281.58,-1053.89 287.39,-1049.98"/>
</g>
<!-- keyutils&#45;&gt;glibc -->
<g id="edge55" class="edge">
<title>keyutils&#45;&gt;glibc</title>
<path fill="none" stroke="#8b4513" d="M540.33,-793.93C566.27,-769.93 611.74,-720.24 611.74,-667 611.74,-667 611.74,-667 611.74,-305 611.74,-214.62 482.32,-180.08 416.39,-168.35"/>
<polygon fill="#8b4513" stroke="#8b4513" points="416.83,-164.88 406.39,-166.66 415.66,-171.78 416.83,-164.88"/>
</g>
<!-- keyutils&#45;&gt;sh -->
<g id="edge56" class="edge">
<title>keyutils&#45;&gt;sh</title>
<path fill="none" stroke="#8b4513" d="M499.41,-795.5C479.67,-784.08 451.31,-767.68 430.23,-755.48"/>
<polygon fill="#8b4513" stroke="#8b4513" points="431.81,-752.35 421.4,-750.37 428.31,-758.41 431.81,-752.35"/>
</g>
<!-- python&#45;setuptools -->
<g id="node37" class="node">
<title>python&#45;setuptools</title>
<ellipse fill="green" stroke="green" cx="242.74" cy="-1674" rx="73.39" ry="18"/>
<text text-anchor="middle" x="242.74" y="-1670.3" font-family="Times,serif" font-size="14.00">python&#45;setuptools</text>
</g>
<!-- python&#45;chardet&#45;&gt;python&#45;setuptools -->
<g id="edge59" class="edge">
<title>python&#45;chardet&#45;&gt;python&#45;setuptools</title>
<path fill="none" stroke="#8b4513" d="M242.74,-1727.7C242.74,-1719.98 242.74,-1710.71 242.74,-1702.11"/>
<polygon fill="#8b4513" stroke="#8b4513" points="246.24,-1702.1 242.74,-1692.1 239.24,-1702.1 246.24,-1702.1"/>
</g>
<!-- python&#45;appdirs -->
<g id="node38" class="node">
<title>python&#45;appdirs</title>
<ellipse fill="green" stroke="green" cx="176.74" cy="-1530" rx="63.89" ry="18"/>
<text text-anchor="middle" x="176.74" y="-1526.3" font-family="Times,serif" font-size="14.00">python&#45;appdirs</text>
</g>
<!-- python&#45;setuptools&#45;&gt;python&#45;appdirs -->
<g id="edge60" class="edge">
<title>python&#45;setuptools&#45;&gt;python&#45;appdirs</title>
<path fill="none" stroke="#8b4513" d="M241.67,-1655.74C239.94,-1637.15 235.43,-1607.13 223.74,-1584 218.39,-1573.41 210.4,-1563.28 202.52,-1554.76"/>
<polygon fill="#8b4513" stroke="#8b4513" points="204.87,-1552.15 195.39,-1547.42 199.85,-1557.03 204.87,-1552.15"/>
</g>
<!-- python&#45;packaging -->
<g id="node39" class="node">
<title>python&#45;packaging</title>
<ellipse fill="green" stroke="green" cx="344.74" cy="-1602" rx="74.19" ry="18"/>
<text text-anchor="middle" x="344.74" y="-1598.3" font-family="Times,serif" font-size="14.00">python&#45;packaging</text>
</g>
<!-- python&#45;setuptools&#45;&gt;python&#45;packaging -->
<g id="edge62" class="edge">
<title>python&#45;setuptools&#45;&gt;python&#45;packaging</title>
<path fill="none" stroke="#8b4513" d="M266.4,-1656.76C280.18,-1647.31 297.73,-1635.26 312.73,-1624.97"/>
<polygon fill="#8b4513" stroke="#8b4513" points="314.95,-1627.69 321.22,-1619.15 310.99,-1621.92 314.95,-1627.69"/>
</g>
<!-- python&#45;ordered&#45;set -->
<g id="node42" class="node">
<title>python&#45;ordered&#45;set</title>
<ellipse fill="green" stroke="green" cx="137.74" cy="-1602" rx="77.19" ry="18"/>
<text text-anchor="middle" x="137.74" y="-1598.3" font-family="Times,serif" font-size="14.00">python&#45;ordered&#45;set</text>
</g>
<!-- python&#45;setuptools&#45;&gt;python&#45;ordered&#45;set -->
<g id="edge67" class="edge">
<title>python&#45;setuptools&#45;&gt;python&#45;ordered&#45;set</title>
<path fill="none" stroke="#8b4513" d="M218.66,-1656.94C204.35,-1647.4 186.02,-1635.18 170.43,-1624.79"/>
<polygon fill="#8b4513" stroke="#8b4513" points="172.35,-1621.86 162.09,-1619.23 168.46,-1627.69 172.35,-1621.86"/>
</g>
<!-- python&#45;appdirs&#45;&gt;python -->
<g id="edge61" class="edge">
<title>python&#45;appdirs&#45;&gt;python</title>
<path fill="none" stroke="#8b4513" d="M194.99,-1512.41C205.4,-1502.95 218.57,-1490.98 229.8,-1480.77"/>
<polygon fill="#8b4513" stroke="#8b4513" points="232.16,-1483.35 237.2,-1474.04 227.45,-1478.18 232.16,-1483.35"/>
</g>
<!-- python&#45;pyparsing -->
<g id="node40" class="node">
<title>python&#45;pyparsing</title>
<ellipse fill="green" stroke="green" cx="330.74" cy="-1530" rx="72.59" ry="18"/>
<text text-anchor="middle" x="330.74" y="-1526.3" font-family="Times,serif" font-size="14.00">python&#45;pyparsing</text>
</g>
<!-- python&#45;packaging&#45;&gt;python&#45;pyparsing -->
<g id="edge63" class="edge">
<title>python&#45;packaging&#45;&gt;python&#45;pyparsing</title>
<path fill="none" stroke="#8b4513" d="M341.28,-1583.7C339.74,-1575.98 337.89,-1566.71 336.17,-1558.11"/>
<polygon fill="#8b4513" stroke="#8b4513" points="339.56,-1557.22 334.17,-1548.1 332.69,-1558.6 339.56,-1557.22"/>
</g>
<!-- python&#45;six -->
<g id="node41" class="node">
<title>python&#45;six</title>
<ellipse fill="green" stroke="green" cx="469.74" cy="-1530" rx="48.19" ry="18"/>
<text text-anchor="middle" x="469.74" y="-1526.3" font-family="Times,serif" font-size="14.00">python&#45;six</text>
</g>
<!-- python&#45;packaging&#45;&gt;python&#45;six -->
<g id="edge65" class="edge">
<title>python&#45;packaging&#45;&gt;python&#45;six</title>
<path fill="none" stroke="#8b4513" d="M372.8,-1585.29C391.19,-1574.99 415.37,-1561.45 434.98,-1550.47"/>
<polygon fill="#8b4513" stroke="#8b4513" points="436.9,-1553.4 443.92,-1545.46 433.48,-1547.3 436.9,-1553.4"/>
</g>
<!-- python&#45;pyparsing&#45;&gt;python -->
<g id="edge64" class="edge">
<title>python&#45;pyparsing&#45;&gt;python</title>
<path fill="none" stroke="#8b4513" d="M312.5,-1512.41C302.09,-1502.95 288.92,-1490.98 277.69,-1480.77"/>
<polygon fill="#8b4513" stroke="#8b4513" points="280.04,-1478.18 270.29,-1474.04 275.33,-1483.35 280.04,-1478.18"/>
</g>
<!-- python&#45;six&#45;&gt;python -->
<g id="edge66" class="edge">
<title>python&#45;six&#45;&gt;python</title>
<path fill="none" stroke="#8b4513" d="M434.56,-1517.6C395.55,-1504.95 332.81,-1484.62 292.44,-1471.54"/>
<polygon fill="#8b4513" stroke="#8b4513" points="293.28,-1468.13 282.68,-1468.38 291.12,-1474.79 293.28,-1468.13"/>
</g>
<!-- python&#45;ordered&#45;set&#45;&gt;python -->
<g id="edge68" class="edge">
<title>python&#45;ordered&#45;set&#45;&gt;python</title>
<path fill="none" stroke="#8b4513" d="M122.21,-1584.05C106.89,-1565.18 87.89,-1534.42 103.74,-1512 127.33,-1478.65 173.73,-1466.14 208.71,-1461.53"/>
<polygon fill="#8b4513" stroke="#8b4513" points="209.17,-1465 218.7,-1460.38 208.37,-1458.05 209.17,-1465"/>
</g>
<!-- python&#45;idna&#45;&gt;python -->
<g id="edge70" class="edge">
<title>python&#45;idna&#45;&gt;python</title>
<path fill="none" stroke="#8b4513" d="M469,-1728.62C502.96,-1687.56 581.83,-1578.8 526.74,-1512 498.37,-1477.59 368.75,-1465.24 298.8,-1461.03"/>
<polygon fill="#8b4513" stroke="#8b4513" points="298.71,-1457.52 288.53,-1460.45 298.31,-1464.51 298.71,-1457.52"/>
</g>
</g>
</svg>
