<?xml version="1.0" encoding="UTF-8" standalone="no"?>
<!DOCTYPE svg PUBLIC "-//W3C//DTD SVG 1.1//EN"
 "http://www.w3.org/Graphics/SVG/1.1/DTD/svg11.dtd">
<!-- Generated by graphviz version 2.44.0 (0)
 -->
<!-- Title: G Pages: 1 -->
<svg width="716pt" height="1700pt"
 viewBox="0.00 0.00 715.90 1700.00" xmlns="http://www.w3.org/2000/svg" xmlns:xlink="http://www.w3.org/1999/xlink">
<g id="graph0" class="graph" transform="scale(1 1) rotate(0) translate(4 1696)">
<title>G</title>
<polygon fill="white" stroke="transparent" points="-4,4 -4,-1696 711.9,-1696 711.9,4 -4,4"/>
<!-- START -->
<g id="node1" class="node">
<title>START</title>
<ellipse fill="red" stroke="red" cx="231.9" cy="-1674" rx="38.19" ry="18"/>
<text text-anchor="middle" x="231.9" y="-1670.3" font-family="Times,serif" font-size="14.00">START</text>
</g>
<!-- python&#45;html5lib -->
<g id="node2" class="node">
<title>python&#45;html5lib</title>
<ellipse fill="green" stroke="green" cx="231.9" cy="-1602" rx="68.49" ry="18"/>
<text text-anchor="middle" x="231.9" y="-1598.3" font-family="Times,serif" font-size="14.00">python&#45;html5lib</text>
</g>
<!-- START&#45;&gt;python&#45;html5lib -->
<g id="edge1" class="edge">
<title>START&#45;&gt;python&#45;html5lib</title>
<path fill="none" stroke="black" d="M231.9,-1655.7C231.9,-1647.98 231.9,-1638.71 231.9,-1630.11"/>
<polygon fill="black" stroke="black" points="235.4,-1630.1 231.9,-1620.1 228.4,-1630.1 235.4,-1630.1"/>
</g>
<!-- python&#45;six -->
<g id="node3" class="node">
<title>python&#45;six</title>
<ellipse fill="green" stroke="green" cx="154.9" cy="-1530" rx="48.19" ry="18"/>
<text text-anchor="middle" x="154.9" y="-1526.3" font-family="Times,serif" font-size="14.00">python&#45;six</text>
</g>
<!-- python&#45;html5lib&#45;&gt;python&#45;six -->
<g id="edge2" class="edge">
<title>python&#45;html5lib&#45;&gt;python&#45;six</title>
<path fill="none" stroke="#8b4513" d="M213.65,-1584.41C203.63,-1575.3 191.05,-1563.87 180.11,-1553.92"/>
<polygon fill="#8b4513" stroke="#8b4513" points="182.24,-1551.13 172.48,-1546.99 177.53,-1556.3 182.24,-1551.13"/>
</g>
<!-- python&#45;webencodings -->
<g id="node36" class="node">
<title>python&#45;webencodings</title>
<ellipse fill="green" stroke="green" cx="308.9" cy="-1530" rx="88.28" ry="18"/>
<text text-anchor="middle" x="308.9" y="-1526.3" font-family="Times,serif" font-size="14.00">python&#45;webencodings</text>
</g>
<!-- python&#45;html5lib&#45;&gt;python&#45;webencodings -->
<g id="edge58" class="edge">
<title>python&#45;html5lib&#45;&gt;python&#45;webencodings</title>
<path fill="none" stroke="#8b4513" d="M250.15,-1584.41C259.95,-1575.5 272.21,-1564.36 282.98,-1554.56"/>
<polygon fill="#8b4513" stroke="#8b4513" points="285.47,-1557.03 290.51,-1547.71 280.76,-1551.85 285.47,-1557.03"/>
</g>
<!-- python -->
<g id="node4" class="node">
<title>python</title>
<ellipse fill="green" stroke="green" cx="231.9" cy="-1458" rx="35.19" ry="18"/>
<text text-anchor="middle" x="231.9" y="-1454.3" font-family="Times,serif" font-size="14.00">python</text>
</g>
<!-- python&#45;six&#45;&gt;python -->
<g id="edge3" class="edge">
<title>python&#45;six&#45;&gt;python</title>
<path fill="none" stroke="#8b4513" d="M172.37,-1513.12C182.82,-1503.61 196.26,-1491.39 207.73,-1480.97"/>
<polygon fill="#8b4513" stroke="#8b4513" points="210.24,-1483.42 215.29,-1474.1 205.53,-1478.24 210.24,-1483.42"/>
</g>
<!-- expat -->
<g id="node5" class="node">
<title>expat</title>
<ellipse fill="green" stroke="green" cx="29.9" cy="-1314" rx="29.8" ry="18"/>
<text text-anchor="middle" x="29.9" y="-1310.3" font-family="Times,serif" font-size="14.00">expat</text>
</g>
<!-- python&#45;&gt;expat -->
<g id="edge4" class="edge">
<title>python&#45;&gt;expat</title>
<path fill="none" stroke="#8b4513" d="M198.27,-1452.34C164.98,-1446.24 114.18,-1432.71 79.9,-1404 60.14,-1387.45 46.69,-1360.98 38.76,-1341.2"/>
<polygon fill="#8b4513" stroke="#8b4513" points="42.03,-1339.95 35.21,-1331.83 35.48,-1342.43 42.03,-1339.95"/>
</g>
<!-- bzip2 -->
<g id="node12" class="node">
<title>bzip2</title>
<ellipse fill="green" stroke="green" cx="82.9" cy="-810" rx="30.59" ry="18"/>
<text text-anchor="middle" x="82.9" y="-806.3" font-family="Times,serif" font-size="14.00">bzip2</text>
</g>
<!-- python&#45;&gt;bzip2 -->
<g id="edge11" class="edge">
<title>python&#45;&gt;bzip2</title>
<path fill="none" stroke="#8b4513" d="M206.59,-1445.3C166.75,-1424.93 93.9,-1378.94 93.9,-1315 93.9,-1315 93.9,-1315 93.9,-953 93.9,-912.88 89.48,-866.57 86.24,-838.03"/>
<polygon fill="#8b4513" stroke="#8b4513" points="89.71,-837.54 85.07,-828.02 82.76,-838.36 89.71,-837.54"/>
</g>
<!-- gdbm -->
<g id="node21" class="node">
<title>gdbm</title>
<ellipse fill="green" stroke="green" cx="233.9" cy="-810" rx="31.4" ry="18"/>
<text text-anchor="middle" x="233.9" y="-806.3" font-family="Times,serif" font-size="14.00">gdbm</text>
</g>
<!-- python&#45;&gt;gdbm -->
<g id="edge27" class="edge">
<title>python&#45;&gt;gdbm</title>
<path fill="none" stroke="#8b4513" d="M221.62,-1440.67C206.47,-1414.96 179.9,-1363.04 179.9,-1315 179.9,-1315 179.9,-1315 179.9,-953 179.9,-912.55 183.26,-901.3 198.9,-864 203.12,-853.93 209.31,-843.73 215.31,-834.99"/>
<polygon fill="#8b4513" stroke="#8b4513" points="218.2,-836.98 221.18,-826.81 212.51,-832.9 218.2,-836.98"/>
</g>
<!-- openssl -->
<g id="node22" class="node">
<title>openssl</title>
<ellipse fill="green" stroke="green" cx="244.9" cy="-1026" rx="37.09" ry="18"/>
<text text-anchor="middle" x="244.9" y="-1022.3" font-family="Times,serif" font-size="14.00">openssl</text>
</g>
<!-- python&#45;&gt;openssl -->
<g id="edge30" class="edge">
<title>python&#45;&gt;openssl</title>
<path fill="none" stroke="#8b4513" d="M231.9,-1439.95C231.9,-1413.29 231.9,-1360.11 231.9,-1315 231.9,-1315 231.9,-1315 231.9,-1169 231.9,-1128.83 237.12,-1082.53 240.95,-1054.01"/>
<polygon fill="#8b4513" stroke="#8b4513" points="244.43,-1054.39 242.33,-1044 237.49,-1053.43 244.43,-1054.39"/>
</g>
<!-- libffi -->
<g id="node26" class="node">
<title>libffi</title>
<ellipse fill="green" stroke="green" cx="538.9" cy="-1242" rx="27.9" ry="18"/>
<text text-anchor="middle" x="538.9" y="-1238.3" font-family="Times,serif" font-size="14.00">libffi</text>
</g>
<!-- python&#45;&gt;libffi -->
<g id="edge39" class="edge">
<title>python&#45;&gt;libffi</title>
<path fill="none" stroke="#8b4513" d="M260.49,-1447.56C286.25,-1438.41 324.61,-1423.11 354.9,-1404 420.04,-1362.9 485.28,-1299.18 517.75,-1265.55"/>
<polygon fill="#8b4513" stroke="#8b4513" points="520.52,-1267.71 524.91,-1258.07 515.46,-1262.87 520.52,-1267.71"/>
</g>
<!-- zlib -->
<g id="node27" class="node">
<title>zlib</title>
<ellipse fill="green" stroke="green" cx="680.9" cy="-1170" rx="27" ry="18"/>
<text text-anchor="middle" x="680.9" y="-1166.3" font-family="Times,serif" font-size="14.00">zlib</text>
</g>
<!-- python&#45;&gt;zlib -->
<g id="edge41" class="edge">
<title>python&#45;&gt;zlib</title>
<path fill="none" stroke="#8b4513" d="M263.47,-1450.08C296.92,-1441.96 350.63,-1426.67 392.9,-1404 504.6,-1344.08 615.02,-1238.31 659.91,-1192.81"/>
<polygon fill="#8b4513" stroke="#8b4513" points="662.54,-1195.13 667.04,-1185.54 657.54,-1190.24 662.54,-1195.13"/>
</g>
<!-- libnsl -->
<g id="node28" class="node">
<title>libnsl</title>
<ellipse fill="green" stroke="green" cx="314.9" cy="-1386" rx="30.59" ry="18"/>
<text text-anchor="middle" x="314.9" y="-1382.3" font-family="Times,serif" font-size="14.00">libnsl</text>
</g>
<!-- python&#45;&gt;libnsl -->
<g id="edge43" class="edge">
<title>python&#45;&gt;libnsl</title>
<path fill="none" stroke="#8b4513" d="M249.5,-1442.15C261.4,-1432.12 277.28,-1418.73 290.41,-1407.65"/>
<polygon fill="#8b4513" stroke="#8b4513" points="292.78,-1410.23 298.17,-1401.11 288.27,-1404.88 292.78,-1410.23"/>
</g>
<!-- glibc -->
<g id="node6" class="node">
<title>glibc</title>
<ellipse fill="green" stroke="green" cx="354.9" cy="-162" rx="28.7" ry="18"/>
<text text-anchor="middle" x="354.9" y="-158.3" font-family="Times,serif" font-size="14.00">glibc</text>
</g>
<!-- expat&#45;&gt;glibc -->
<g id="edge5" class="edge">
<title>expat&#45;&gt;glibc</title>
<path fill="none" stroke="#8b4513" d="M28.71,-1295.96C26.96,-1269.31 23.9,-1216.15 23.9,-1171 23.9,-1171 23.9,-1171 23.9,-305 23.9,-179.12 228.59,-163.41 316.04,-162.44"/>
<polygon fill="#8b4513" stroke="#8b4513" points="316.12,-165.94 326.1,-162.39 316.08,-158.94 316.12,-165.94"/>
</g>
<!-- linux&#45;api&#45;headers&gt;=4.10 -->
<g id="node7" class="node">
<title>linux&#45;api&#45;headers&gt;=4.10</title>
<ellipse fill="green" stroke="green" cx="206.9" cy="-90" rx="98.28" ry="18"/>
<text text-anchor="middle" x="206.9" y="-86.3" font-family="Times,serif" font-size="14.00">linux&#45;api&#45;headers&gt;=4.10</text>
</g>
<!-- glibc&#45;&gt;linux&#45;api&#45;headers&gt;=4.10 -->
<g id="edge6" class="edge">
<title>glibc&#45;&gt;linux&#45;api&#45;headers&gt;=4.10</title>
<path fill="none" stroke="#8b4513" d="M332.74,-150.52C310.96,-140.22 277.13,-124.22 250.03,-111.4"/>
<polygon fill="#8b4513" stroke="#8b4513" points="251.29,-108.12 240.75,-107.01 248.29,-114.45 251.29,-108.12"/>
</g>
<!-- tzdata -->
<g id="node9" class="node">
<title>tzdata</title>
<ellipse fill="green" stroke="green" cx="354.9" cy="-90" rx="31.7" ry="18"/>
<text text-anchor="middle" x="354.9" y="-86.3" font-family="Times,serif" font-size="14.00">tzdata</text>
</g>
<!-- glibc&#45;&gt;tzdata -->
<g id="edge8" class="edge">
<title>glibc&#45;&gt;tzdata</title>
<path fill="none" stroke="#8b4513" d="M354.9,-143.7C354.9,-135.98 354.9,-126.71 354.9,-118.11"/>
<polygon fill="#8b4513" stroke="#8b4513" points="358.4,-118.1 354.9,-108.1 351.4,-118.1 358.4,-118.1"/>
</g>
<!-- filesystem -->
<g id="node10" class="node">
<title>filesystem</title>
<ellipse fill="green" stroke="green" cx="451.9" cy="-90" rx="46.59" ry="18"/>
<text text-anchor="middle" x="451.9" y="-86.3" font-family="Times,serif" font-size="14.00">filesystem</text>
</g>
<!-- glibc&#45;&gt;filesystem -->
<g id="edge9" class="edge">
<title>glibc&#45;&gt;filesystem</title>
<path fill="none" stroke="#8b4513" d="M373.14,-147.83C386.94,-137.88 406.18,-123.99 422.19,-112.44"/>
<polygon fill="#8b4513" stroke="#8b4513" points="424.63,-114.99 430.69,-106.3 420.54,-109.31 424.63,-114.99"/>
</g>
<!-- linux&#45;api&#45;headers -->
<g id="node8" class="node">
<title>linux&#45;api&#45;headers</title>
<ellipse fill="green" stroke="green" cx="206.9" cy="-18" rx="71.49" ry="18"/>
<text text-anchor="middle" x="206.9" y="-14.3" font-family="Times,serif" font-size="14.00">linux&#45;api&#45;headers</text>
</g>
<!-- linux&#45;api&#45;headers&gt;=4.10&#45;&gt;linux&#45;api&#45;headers -->
<g id="edge7" class="edge">
<title>linux&#45;api&#45;headers&gt;=4.10&#45;&gt;linux&#45;api&#45;headers</title>
<path fill="none" stroke="grey" d="M206.9,-71.7C206.9,-60.85 206.9,-46.92 206.9,-36.1"/>
</g>
<!-- iana&#45;etc -->
<g id="node11" class="node">
<title>iana&#45;etc</title>
<ellipse fill="green" stroke="green" cx="451.9" cy="-18" rx="38.19" ry="18"/>
<text text-anchor="middle" x="451.9" y="-14.3" font-family="Times,serif" font-size="14.00">iana&#45;etc</text>
</g>
<!-- filesystem&#45;&gt;iana&#45;etc -->
<g id="edge10" class="edge">
<title>filesystem&#45;&gt;iana&#45;etc</title>
<path fill="none" stroke="#8b4513" d="M451.9,-71.7C451.9,-63.98 451.9,-54.71 451.9,-46.11"/>
<polygon fill="#8b4513" stroke="#8b4513" points="455.4,-46.1 451.9,-36.1 448.4,-46.1 455.4,-46.1"/>
</g>
<!-- bzip2&#45;&gt;glibc -->
<g id="edge12" class="edge">
<title>bzip2&#45;&gt;glibc</title>
<path fill="none" stroke="#8b4513" d="M83.89,-791.96C85.34,-765.31 87.9,-712.14 87.9,-667 87.9,-667 87.9,-667 87.9,-305 87.9,-262.66 89.92,-243.75 121.9,-216 150.71,-190.99 258.43,-174.56 316.77,-167.29"/>
<polygon fill="#8b4513" stroke="#8b4513" points="317.21,-170.76 326.72,-166.08 316.37,-163.81 317.21,-170.76"/>
</g>
<!-- sh -->
<g id="node13" class="node">
<title>sh</title>
<ellipse fill="green" stroke="green" cx="359.9" cy="-738" rx="27" ry="18"/>
<text text-anchor="middle" x="359.9" y="-734.3" font-family="Times,serif" font-size="14.00">sh</text>
</g>
<!-- bzip2&#45;&gt;sh -->
<g id="edge13" class="edge">
<title>bzip2&#45;&gt;sh</title>
<path fill="none" stroke="#8b4513" d="M110.47,-802.03C161.23,-789.21 269.35,-761.88 325.08,-747.8"/>
<polygon fill="#8b4513" stroke="#8b4513" points="326.01,-751.17 334.85,-745.33 324.3,-744.39 326.01,-751.17"/>
</g>
<!-- bash -->
<g id="node14" class="node">
<title>bash</title>
<ellipse fill="green" stroke="green" cx="359.9" cy="-666" rx="27" ry="18"/>
<text text-anchor="middle" x="359.9" y="-662.3" font-family="Times,serif" font-size="14.00">bash</text>
</g>
<!-- sh&#45;&gt;bash -->
<g id="edge14" class="edge">
<title>sh&#45;&gt;bash</title>
<path fill="none" stroke="grey" d="M343.52,-723.5C338.35,-711.11 338.36,-692.84 343.54,-680.46"/>
</g>
<!-- sh&#45;&gt;bash -->
<g id="edge37" class="edge">
<title>sh&#45;&gt;bash</title>
<path fill="none" stroke="grey" d="M354.06,-720.41C352.86,-709.41 352.84,-695.03 354.02,-683.96"/>
</g>
<!-- sh&#45;&gt;bash -->
<g id="edge48" class="edge">
<title>sh&#45;&gt;bash</title>
<path fill="none" stroke="grey" d="M365.74,-720.41C366.94,-709.41 366.95,-695.03 365.78,-683.96"/>
</g>
<!-- sh&#45;&gt;bash -->
<g id="edge57" class="edge">
<title>sh&#45;&gt;bash</title>
<path fill="none" stroke="grey" d="M376.27,-723.5C381.45,-711.11 381.44,-692.84 376.25,-680.46"/>
</g>
<!-- bash&#45;&gt;glibc -->
<g id="edge25" class="edge">
<title>bash&#45;&gt;glibc</title>
<path fill="none" stroke="#8b4513" d="M385.13,-658.88C436.81,-644.69 549.9,-604.33 549.9,-523 549.9,-523 549.9,-523 549.9,-305 549.9,-227.53 448.08,-187.87 391.59,-171.83"/>
<polygon fill="#8b4513" stroke="#8b4513" points="392.17,-168.37 381.6,-169.11 390.33,-175.12 392.17,-168.37"/>
</g>
<!-- readline&gt;=7.0 -->
<g id="node15" class="node">
<title>readline&gt;=7.0</title>
<ellipse fill="green" stroke="green" cx="375.9" cy="-594" rx="61.19" ry="18"/>
<text text-anchor="middle" x="375.9" y="-590.3" font-family="Times,serif" font-size="14.00">readline&gt;=7.0</text>
</g>
<!-- bash&#45;&gt;readline&gt;=7.0 -->
<g id="edge15" class="edge">
<title>bash&#45;&gt;readline&gt;=7.0</title>
<path fill="none" stroke="#8b4513" d="M363.77,-648.05C365.55,-640.26 367.71,-630.82 369.71,-622.08"/>
<polygon fill="#8b4513" stroke="#8b4513" points="373.13,-622.8 371.95,-612.28 366.31,-621.24 373.13,-622.8"/>
</g>
<!-- ncurses -->
<g id="node17" class="node">
<title>ncurses</title>
<ellipse fill="green" stroke="green" cx="287.9" cy="-378" rx="37.09" ry="18"/>
<text text-anchor="middle" x="287.9" y="-374.3" font-family="Times,serif" font-size="14.00">ncurses</text>
</g>
<!-- bash&#45;&gt;ncurses -->
<g id="edge26" class="edge">
<title>bash&#45;&gt;ncurses</title>
<path fill="none" stroke="#8b4513" d="M341.67,-652.39C329.39,-642.81 314,-628.51 305.9,-612 272.56,-544.05 278.25,-451.41 283.79,-406.14"/>
<polygon fill="#8b4513" stroke="#8b4513" points="287.26,-406.58 285.1,-396.2 280.32,-405.66 287.26,-406.58"/>
</g>
<!-- readline -->
<g id="node16" class="node">
<title>readline</title>
<ellipse fill="green" stroke="green" cx="391.9" cy="-522" rx="38.99" ry="18"/>
<text text-anchor="middle" x="391.9" y="-518.3" font-family="Times,serif" font-size="14.00">readline</text>
</g>
<!-- readline&gt;=7.0&#45;&gt;readline -->
<g id="edge16" class="edge">
<title>readline&gt;=7.0&#45;&gt;readline</title>
<path fill="none" stroke="grey" d="M379.85,-575.7C382.33,-564.85 385.52,-550.92 387.99,-540.1"/>
</g>
<!-- readline&#45;&gt;glibc -->
<g id="edge17" class="edge">
<title>readline&#45;&gt;glibc</title>
<path fill="none" stroke="#8b4513" d="M424.52,-511.99C447.1,-504.06 476.02,-490.25 492.9,-468 517.34,-435.77 511.9,-419.45 511.9,-379 511.9,-379 511.9,-379 511.9,-305 511.9,-238.95 434.52,-195.66 388.41,-175.72"/>
<polygon fill="#8b4513" stroke="#8b4513" points="389.66,-172.45 379.08,-171.82 386.96,-178.9 389.66,-172.45"/>
</g>
<!-- readline&#45;&gt;ncurses -->
<g id="edge18" class="edge">
<title>readline&#45;&gt;ncurses</title>
<path fill="none" stroke="#8b4513" d="M362.74,-509.93C343.96,-501.31 320.58,-487.5 306.9,-468 294.25,-449.97 289.74,-425.18 288.26,-406.34"/>
<polygon fill="#8b4513" stroke="#8b4513" points="291.75,-406.1 287.71,-396.3 284.76,-406.48 291.75,-406.1"/>
</g>
<!-- libncursesw.so=6&#45;64 -->
<g id="node20" class="node">
<title>libncursesw.so=6&#45;64</title>
<ellipse fill="green" stroke="green" cx="399.9" cy="-450" rx="83.69" ry="18"/>
<text text-anchor="middle" x="399.9" y="-446.3" font-family="Times,serif" font-size="14.00">libncursesw.so=6&#45;64</text>
</g>
<!-- readline&#45;&gt;libncursesw.so=6&#45;64 -->
<g id="edge23" class="edge">
<title>readline&#45;&gt;libncursesw.so=6&#45;64</title>
<path fill="none" stroke="#8b4513" d="M393.87,-503.7C394.76,-495.98 395.82,-486.71 396.8,-478.11"/>
<polygon fill="#8b4513" stroke="#8b4513" points="400.28,-478.44 397.94,-468.1 393.33,-477.64 400.28,-478.44"/>
</g>
<!-- ncurses&#45;&gt;glibc -->
<g id="edge19" class="edge">
<title>ncurses&#45;&gt;glibc</title>
<path fill="none" stroke="#8b4513" d="M299.29,-360.47C305.84,-350.33 313.75,-336.87 318.9,-324 336.96,-278.84 346.9,-222.76 351.55,-190.11"/>
<polygon fill="#8b4513" stroke="#8b4513" points="355.04,-190.36 352.92,-179.98 348.11,-189.42 355.04,-190.36"/>
</g>
<!-- gcc&#45;libs -->
<g id="node18" class="node">
<title>gcc&#45;libs</title>
<ellipse fill="green" stroke="green" cx="271.9" cy="-306" rx="38.19" ry="18"/>
<text text-anchor="middle" x="271.9" y="-302.3" font-family="Times,serif" font-size="14.00">gcc&#45;libs</text>
</g>
<!-- ncurses&#45;&gt;gcc&#45;libs -->
<g id="edge20" class="edge">
<title>ncurses&#45;&gt;gcc&#45;libs</title>
<path fill="none" stroke="#8b4513" d="M284.02,-360.05C282.24,-352.26 280.09,-342.82 278.09,-334.08"/>
<polygon fill="#8b4513" stroke="#8b4513" points="281.49,-333.24 275.85,-324.28 274.66,-334.8 281.49,-333.24"/>
</g>
<!-- glibc&gt;=2.27 -->
<g id="node19" class="node">
<title>glibc&gt;=2.27</title>
<ellipse fill="green" stroke="green" cx="271.9" cy="-234" rx="54.69" ry="18"/>
<text text-anchor="middle" x="271.9" y="-230.3" font-family="Times,serif" font-size="14.00">glibc&gt;=2.27</text>
</g>
<!-- gcc&#45;libs&#45;&gt;glibc&gt;=2.27 -->
<g id="edge21" class="edge">
<title>gcc&#45;libs&#45;&gt;glibc&gt;=2.27</title>
<path fill="none" stroke="#8b4513" d="M271.9,-287.7C271.9,-279.98 271.9,-270.71 271.9,-262.11"/>
<polygon fill="#8b4513" stroke="#8b4513" points="275.4,-262.1 271.9,-252.1 268.4,-262.1 275.4,-262.1"/>
</g>
<!-- glibc&gt;=2.27&#45;&gt;glibc -->
<g id="edge22" class="edge">
<title>glibc&gt;=2.27&#45;&gt;glibc</title>
<path fill="none" stroke="grey" d="M291.15,-216.76C305.51,-204.65 324.93,-188.27 338.55,-176.79"/>
</g>
<!-- libncursesw.so=6&#45;64&#45;&gt;ncurses -->
<g id="edge24" class="edge">
<title>libncursesw.so=6&#45;64&#45;&gt;ncurses</title>
<path fill="none" stroke="grey" d="M373.92,-432.76C354.53,-420.65 328.33,-404.27 309.96,-392.79"/>
</g>
<!-- gdbm&#45;&gt;glibc -->
<g id="edge28" class="edge">
<title>gdbm&#45;&gt;glibc</title>
<path fill="none" stroke="#8b4513" d="M222.04,-792.89C204.56,-767.49 173.9,-715.98 173.9,-667 173.9,-667 173.9,-667 173.9,-305 173.9,-262.66 177.67,-245.66 207.9,-216 237.43,-187.02 283.94,-173.76 316.72,-167.78"/>
<polygon fill="#8b4513" stroke="#8b4513" points="317.56,-171.18 326.84,-166.08 316.4,-164.28 317.56,-171.18"/>
</g>
<!-- gdbm&#45;&gt;sh -->
<g id="edge29" class="edge">
<title>gdbm&#45;&gt;sh</title>
<path fill="none" stroke="#8b4513" d="M255.56,-796.97C276.34,-785.42 307.86,-767.91 330.82,-755.16"/>
<polygon fill="#8b4513" stroke="#8b4513" points="332.72,-758.1 339.77,-750.18 329.33,-751.98 332.72,-758.1"/>
</g>
<!-- perl -->
<g id="node23" class="node">
<title>perl</title>
<ellipse fill="green" stroke="green" cx="255.9" cy="-954" rx="27" ry="18"/>
<text text-anchor="middle" x="255.9" y="-950.3" font-family="Times,serif" font-size="14.00">perl</text>
</g>
<!-- openssl&#45;&gt;perl -->
<g id="edge31" class="edge">
<title>openssl&#45;&gt;perl</title>
<path fill="none" stroke="#8b4513" d="M247.62,-1007.7C248.83,-999.98 250.29,-990.71 251.64,-982.11"/>
<polygon fill="#8b4513" stroke="#8b4513" points="255.11,-982.53 253.21,-972.1 248.2,-981.44 255.11,-982.53"/>
</g>
<!-- perl&#45;&gt;glibc -->
<g id="edge38" class="edge">
<title>perl&#45;&gt;glibc</title>
<path fill="none" stroke="#8b4513" d="M237.68,-940.4C225.03,-930.73 208.74,-916.31 198.9,-900 143.48,-808.15 135.9,-774.27 135.9,-667 135.9,-667 135.9,-667 135.9,-305 135.9,-261.26 144.74,-244.52 177.9,-216 217.02,-182.35 276.87,-170.06 315.95,-165.58"/>
<polygon fill="#8b4513" stroke="#8b4513" points="316.79,-169.01 326.38,-164.51 316.08,-162.04 316.79,-169.01"/>
</g>
<!-- gdbm&gt;=1.17 -->
<g id="node24" class="node">
<title>gdbm&gt;=1.17</title>
<ellipse fill="green" stroke="green" cx="265.9" cy="-882" rx="57.69" ry="18"/>
<text text-anchor="middle" x="265.9" y="-878.3" font-family="Times,serif" font-size="14.00">gdbm&gt;=1.17</text>
</g>
<!-- perl&#45;&gt;gdbm&gt;=1.17 -->
<g id="edge32" class="edge">
<title>perl&#45;&gt;gdbm&gt;=1.17</title>
<path fill="none" stroke="#8b4513" d="M258.32,-936.05C259.42,-928.35 260.75,-919.03 261.99,-910.36"/>
<polygon fill="#8b4513" stroke="#8b4513" points="265.48,-910.67 263.43,-900.28 258.55,-909.68 265.48,-910.67"/>
</g>
<!-- db -->
<g id="node25" class="node">
<title>db</title>
<ellipse fill="green" stroke="green" cx="351.9" cy="-810" rx="27" ry="18"/>
<text text-anchor="middle" x="351.9" y="-806.3" font-family="Times,serif" font-size="14.00">db</text>
</g>
<!-- perl&#45;&gt;db -->
<g id="edge34" class="edge">
<title>perl&#45;&gt;db</title>
<path fill="none" stroke="#8b4513" d="M277.97,-943.5C295.58,-934.76 319.46,-920.1 332.9,-900 345.14,-881.69 349.68,-856.92 351.28,-838.17"/>
<polygon fill="#8b4513" stroke="#8b4513" points="354.77,-838.38 351.91,-828.18 347.79,-837.94 354.77,-838.38"/>
</g>
<!-- gdbm&gt;=1.17&#45;&gt;gdbm -->
<g id="edge33" class="edge">
<title>gdbm&gt;=1.17&#45;&gt;gdbm</title>
<path fill="none" stroke="grey" d="M258.15,-864.05C253.12,-853.05 246.59,-838.76 241.57,-827.79"/>
</g>
<!-- db&#45;&gt;sh -->
<g id="edge36" class="edge">
<title>db&#45;&gt;sh</title>
<path fill="none" stroke="#8b4513" d="M353.87,-791.7C354.76,-783.98 355.82,-774.71 356.8,-766.11"/>
<polygon fill="#8b4513" stroke="#8b4513" points="360.28,-766.44 357.94,-756.1 353.33,-765.64 360.28,-766.44"/>
</g>
<!-- db&#45;&gt;gcc&#45;libs -->
<g id="edge35" class="edge">
<title>db&#45;&gt;gcc&#45;libs</title>
<path fill="none" stroke="#8b4513" d="M330.02,-799.28C290.65,-780.11 211.9,-733.47 211.9,-667 211.9,-667 211.9,-667 211.9,-449 211.9,-405.24 236.38,-359.45 254.06,-332.07"/>
<polygon fill="#8b4513" stroke="#8b4513" points="257.13,-333.79 259.76,-323.53 251.3,-329.91 257.13,-333.79"/>
</g>
<!-- libffi&#45;&gt;glibc -->
<g id="edge40" class="edge">
<title>libffi&#45;&gt;glibc</title>
<path fill="none" stroke="#8b4513" d="M554.85,-1227.02C579.97,-1203.37 625.9,-1152.78 625.9,-1099 625.9,-1099 625.9,-1099 625.9,-305 625.9,-201.26 468.15,-173.16 393.36,-165.67"/>
<polygon fill="#8b4513" stroke="#8b4513" points="393.67,-162.18 383.39,-164.74 393.02,-169.15 393.67,-162.18"/>
</g>
<!-- zlib&#45;&gt;glibc -->
<g id="edge42" class="edge">
<title>zlib&#45;&gt;glibc</title>
<path fill="none" stroke="#8b4513" d="M679.12,-1151.97C676.5,-1125.34 671.9,-1072.21 671.9,-1027 671.9,-1027 671.9,-1027 671.9,-305 671.9,-262.97 671.92,-243.23 639.9,-216 603.25,-184.83 462.38,-170.66 393.41,-165.48"/>
<polygon fill="#8b4513" stroke="#8b4513" points="393.6,-161.98 383.37,-164.75 393.09,-168.96 393.6,-161.98"/>
</g>
<!-- libtirpc -->
<g id="node29" class="node">
<title>libtirpc</title>
<ellipse fill="green" stroke="green" cx="331.9" cy="-1314" rx="36.29" ry="18"/>
<text text-anchor="middle" x="331.9" y="-1310.3" font-family="Times,serif" font-size="14.00">libtirpc</text>
</g>
<!-- libnsl&#45;&gt;libtirpc -->
<g id="edge44" class="edge">
<title>libnsl&#45;&gt;libtirpc</title>
<path fill="none" stroke="#8b4513" d="M319.01,-1368.05C320.91,-1360.26 323.2,-1350.82 325.32,-1342.08"/>
<polygon fill="#8b4513" stroke="#8b4513" points="328.74,-1342.82 327.7,-1332.28 321.94,-1341.17 328.74,-1342.82"/>
</g>
<!-- krb5 -->
<g id="node30" class="node">
<title>krb5</title>
<ellipse fill="green" stroke="green" cx="355.9" cy="-1242" rx="27.1" ry="18"/>
<text text-anchor="middle" x="355.9" y="-1238.3" font-family="Times,serif" font-size="14.00">krb5</text>
</g>
<!-- libtirpc&#45;&gt;krb5 -->
<g id="edge45" class="edge">
<title>libtirpc&#45;&gt;krb5</title>
<path fill="none" stroke="#8b4513" d="M337.71,-1296.05C340.45,-1288.06 343.78,-1278.33 346.85,-1269.4"/>
<polygon fill="#8b4513" stroke="#8b4513" points="350.21,-1270.38 350.14,-1259.79 343.59,-1268.11 350.21,-1270.38"/>
</g>
<!-- e2fsprogs -->
<g id="node31" class="node">
<title>e2fsprogs</title>
<ellipse fill="green" stroke="green" cx="388.9" cy="-1098" rx="44.69" ry="18"/>
<text text-anchor="middle" x="388.9" y="-1094.3" font-family="Times,serif" font-size="14.00">e2fsprogs</text>
</g>
<!-- krb5&#45;&gt;e2fsprogs -->
<g id="edge46" class="edge">
<title>krb5&#45;&gt;e2fsprogs</title>
<path fill="none" stroke="#8b4513" d="M360.65,-1223.87C363.46,-1213.51 367.03,-1200.03 369.9,-1188 374.82,-1167.38 379.8,-1143.93 383.43,-1126.28"/>
<polygon fill="#8b4513" stroke="#8b4513" points="386.93,-1126.61 385.5,-1116.12 380.07,-1125.22 386.93,-1126.61"/>
</g>
<!-- libldap -->
<g id="node33" class="node">
<title>libldap</title>
<ellipse fill="green" stroke="green" cx="325.9" cy="-1170" rx="35.19" ry="18"/>
<text text-anchor="middle" x="325.9" y="-1166.3" font-family="Times,serif" font-size="14.00">libldap</text>
</g>
<!-- krb5&#45;&gt;libldap -->
<g id="edge50" class="edge">
<title>krb5&#45;&gt;libldap</title>
<path fill="none" stroke="#8b4513" d="M348.79,-1224.41C345.33,-1216.34 341.08,-1206.43 337.19,-1197.35"/>
<polygon fill="#8b4513" stroke="#8b4513" points="340.32,-1195.77 333.16,-1187.96 333.89,-1198.53 340.32,-1195.77"/>
</g>
<!-- keyutils -->
<g id="node35" class="node">
<title>keyutils</title>
<ellipse fill="green" stroke="green" cx="499.9" cy="-810" rx="38.19" ry="18"/>
<text text-anchor="middle" x="499.9" y="-806.3" font-family="Times,serif" font-size="14.00">keyutils</text>
</g>
<!-- krb5&#45;&gt;keyutils -->
<g id="edge54" class="edge">
<title>krb5&#45;&gt;keyutils</title>
<path fill="none" stroke="#8b4513" d="M377.11,-1230.62C414.42,-1210.69 487.9,-1163.29 487.9,-1099 487.9,-1099 487.9,-1099 487.9,-953 487.9,-912.85 492.72,-866.55 496.25,-838.02"/>
<polygon fill="#8b4513" stroke="#8b4513" points="499.73,-838.37 497.53,-828.01 492.79,-837.49 499.73,-838.37"/>
</g>
<!-- e2fsprogs&#45;&gt;sh -->
<g id="edge47" class="edge">
<title>e2fsprogs&#45;&gt;sh</title>
<path fill="none" stroke="#8b4513" d="M398.43,-1080.27C403.9,-1070.06 410.54,-1056.59 414.9,-1044 428.13,-1005.78 433.9,-995.45 433.9,-955 433.9,-955 433.9,-955 433.9,-881 433.9,-834.59 402.43,-788.33 380.54,-761.75"/>
<polygon fill="#8b4513" stroke="#8b4513" points="382.96,-759.2 373.82,-753.84 377.62,-763.73 382.96,-759.2"/>
</g>
<!-- libutil&#45;linux -->
<g id="node32" class="node">
<title>libutil&#45;linux</title>
<ellipse fill="green" stroke="green" cx="352.9" cy="-1026" rx="52.79" ry="18"/>
<text text-anchor="middle" x="352.9" y="-1022.3" font-family="Times,serif" font-size="14.00">libutil&#45;linux</text>
</g>
<!-- e2fsprogs&#45;&gt;libutil&#45;linux -->
<g id="edge49" class="edge">
<title>e2fsprogs&#45;&gt;libutil&#45;linux</title>
<path fill="none" stroke="#8b4513" d="M380.18,-1080.05C375.98,-1071.89 370.85,-1061.91 366.18,-1052.82"/>
<polygon fill="#8b4513" stroke="#8b4513" points="369.22,-1051.08 361.53,-1043.79 362.99,-1054.28 369.22,-1051.08"/>
</g>
<!-- libldap&#45;&gt;e2fsprogs -->
<g id="edge53" class="edge">
<title>libldap&#45;&gt;e2fsprogs</title>
<path fill="none" stroke="#8b4513" d="M339.88,-1153.46C347.89,-1144.57 358.11,-1133.21 367.15,-1123.16"/>
<polygon fill="#8b4513" stroke="#8b4513" points="369.99,-1125.24 374.08,-1115.47 364.79,-1120.56 369.99,-1125.24"/>
</g>
<!-- libsasl -->
<g id="node34" class="node">
<title>libsasl</title>
<ellipse fill="green" stroke="green" cx="292.9" cy="-1098" rx="33.29" ry="18"/>
<text text-anchor="middle" x="292.9" y="-1094.3" font-family="Times,serif" font-size="14.00">libsasl</text>
</g>
<!-- libldap&#45;&gt;libsasl -->
<g id="edge51" class="edge">
<title>libldap&#45;&gt;libsasl</title>
<path fill="none" stroke="#8b4513" d="M318.08,-1152.41C314.23,-1144.25 309.5,-1134.22 305.19,-1125.07"/>
<polygon fill="#8b4513" stroke="#8b4513" points="308.32,-1123.51 300.89,-1115.96 301.99,-1126.49 308.32,-1123.51"/>
</g>
<!-- libsasl&#45;&gt;openssl -->
<g id="edge52" class="edge">
<title>libsasl&#45;&gt;openssl</title>
<path fill="none" stroke="#8b4513" d="M281.76,-1080.76C275.91,-1072.23 268.61,-1061.58 262.05,-1052.02"/>
<polygon fill="#8b4513" stroke="#8b4513" points="264.84,-1049.9 256.3,-1043.63 259.07,-1053.86 264.84,-1049.9"/>
</g>
<!-- keyutils&#45;&gt;glibc -->
<g id="edge55" class="edge">
<title>keyutils&#45;&gt;glibc</title>
<path fill="none" stroke="#8b4513" d="M517.28,-793.89C542.93,-769.83 587.9,-720.08 587.9,-667 587.9,-667 587.9,-667 587.9,-305 587.9,-214.62 458.48,-180.08 392.55,-168.35"/>
<polygon fill="#8b4513" stroke="#8b4513" points="392.98,-164.88 382.54,-166.66 391.82,-171.78 392.98,-164.88"/>
</g>
<!-- keyutils&#45;&gt;sh -->
<g id="edge56" class="edge">
<title>keyutils&#45;&gt;sh</title>
<path fill="none" stroke="#8b4513" d="M474.54,-796.32C450.79,-784.45 415.26,-766.68 390.06,-754.08"/>
<polygon fill="#8b4513" stroke="#8b4513" points="391.46,-750.87 380.95,-749.53 388.33,-757.13 391.46,-750.87"/>
</g>
<!-- python&#45;webencodings&#45;&gt;python -->
<g id="edge59" class="edge">
<title>python&#45;webencodings&#45;&gt;python</title>
<path fill="none" stroke="#8b4513" d="M290.26,-1512.05C280.01,-1502.74 267.19,-1491.08 256.17,-1481.07"/>
<polygon fill="#8b4513" stroke="#8b4513" points="258.28,-1478.26 248.53,-1474.12 253.58,-1483.44 258.28,-1478.26"/>
</g>
</g>
</svg>
