<?xml version="1.0" encoding="UTF-8" standalone="no"?>
<!DOCTYPE svg PUBLIC "-//W3C//DTD SVG 1.1//EN"
 "http://www.w3.org/Graphics/SVG/1.1/DTD/svg11.dtd">
<!-- Generated by graphviz version 2.44.0 (0)
 -->
<!-- Title: G Pages: 1 -->
<svg width="716pt" height="1628pt"
 viewBox="0.00 0.00 715.90 1628.00" xmlns="http://www.w3.org/2000/svg" xmlns:xlink="http://www.w3.org/1999/xlink">
<g id="graph0" class="graph" transform="scale(1 1) rotate(0) translate(4 1624)">
<title>G</title>
<polygon fill="white" stroke="transparent" points="-4,4 -4,-1624 711.9,-1624 711.9,4 -4,4"/>
<!-- START -->
<g id="node1" class="node">
<title>START</title>
<ellipse fill="red" stroke="red" cx="231.9" cy="-1602" rx="38.19" ry="18"/>
<text text-anchor="middle" x="231.9" y="-1598.3" font-family="Times,serif" font-size="14.00">START</text>
</g>
<!-- python&#45;contextlib2 -->
<g id="node2" class="node">
<title>python&#45;contextlib2</title>
<ellipse fill="green" stroke="green" cx="231.9" cy="-1530" rx="77.19" ry="18"/>
<text text-anchor="middle" x="231.9" y="-1526.3" font-family="Times,serif" font-size="14.00">python&#45;contextlib2</text>
</g>
<!-- START&#45;&gt;python&#45;contextlib2 -->
<g id="edge1" class="edge">
<title>START&#45;&gt;python&#45;contextlib2</title>
<path fill="none" stroke="black" d="M231.9,-1583.7C231.9,-1575.98 231.9,-1566.71 231.9,-1558.11"/>
<polygon fill="black" stroke="black" points="235.4,-1558.1 231.9,-1548.1 228.4,-1558.1 235.4,-1558.1"/>
</g>
<!-- python -->
<g id="node3" class="node">
<title>python</title>
<ellipse fill="green" stroke="green" cx="231.9" cy="-1458" rx="35.19" ry="18"/>
<text text-anchor="middle" x="231.9" y="-1454.3" font-family="Times,serif" font-size="14.00">python</text>
</g>
<!-- python&#45;contextlib2&#45;&gt;python -->
<g id="edge2" class="edge">
<title>python&#45;contextlib2&#45;&gt;python</title>
<path fill="none" stroke="#8b4513" d="M231.9,-1511.7C231.9,-1503.98 231.9,-1494.71 231.9,-1486.11"/>
<polygon fill="#8b4513" stroke="#8b4513" points="235.4,-1486.1 231.9,-1476.1 228.4,-1486.1 235.4,-1486.1"/>
</g>
<!-- expat -->
<g id="node4" class="node">
<title>expat</title>
<ellipse fill="green" stroke="green" cx="29.9" cy="-1314" rx="29.8" ry="18"/>
<text text-anchor="middle" x="29.9" y="-1310.3" font-family="Times,serif" font-size="14.00">expat</text>
</g>
<!-- python&#45;&gt;expat -->
<g id="edge3" class="edge">
<title>python&#45;&gt;expat</title>
<path fill="none" stroke="#8b4513" d="M199,-1451.64C166.99,-1445.04 118.39,-1431.18 84.9,-1404 64.38,-1387.36 49.43,-1360.9 40.34,-1341.15"/>
<polygon fill="#8b4513" stroke="#8b4513" points="43.45,-1339.55 36.23,-1331.8 37.04,-1342.36 43.45,-1339.55"/>
</g>
<!-- bzip2 -->
<g id="node11" class="node">
<title>bzip2</title>
<ellipse fill="green" stroke="green" cx="82.9" cy="-810" rx="30.59" ry="18"/>
<text text-anchor="middle" x="82.9" y="-806.3" font-family="Times,serif" font-size="14.00">bzip2</text>
</g>
<!-- python&#45;&gt;bzip2 -->
<g id="edge10" class="edge">
<title>python&#45;&gt;bzip2</title>
<path fill="none" stroke="#8b4513" d="M207.5,-1445.05C169.11,-1424.32 98.9,-1377.83 98.9,-1315 98.9,-1315 98.9,-1315 98.9,-953 98.9,-912.74 92.47,-866.47 87.76,-837.98"/>
<polygon fill="#8b4513" stroke="#8b4513" points="91.19,-837.25 86.06,-827.98 84.29,-838.43 91.19,-837.25"/>
</g>
<!-- gdbm -->
<g id="node20" class="node">
<title>gdbm</title>
<ellipse fill="green" stroke="green" cx="233.9" cy="-810" rx="31.4" ry="18"/>
<text text-anchor="middle" x="233.9" y="-806.3" font-family="Times,serif" font-size="14.00">gdbm</text>
</g>
<!-- python&#45;&gt;gdbm -->
<g id="edge26" class="edge">
<title>python&#45;&gt;gdbm</title>
<path fill="none" stroke="#8b4513" d="M221.62,-1440.67C206.47,-1414.96 179.9,-1363.04 179.9,-1315 179.9,-1315 179.9,-1315 179.9,-953 179.9,-912.55 183.26,-901.3 198.9,-864 203.12,-853.93 209.31,-843.73 215.31,-834.99"/>
<polygon fill="#8b4513" stroke="#8b4513" points="218.2,-836.98 221.18,-826.81 212.51,-832.9 218.2,-836.98"/>
</g>
<!-- openssl -->
<g id="node21" class="node">
<title>openssl</title>
<ellipse fill="green" stroke="green" cx="244.9" cy="-1026" rx="37.09" ry="18"/>
<text text-anchor="middle" x="244.9" y="-1022.3" font-family="Times,serif" font-size="14.00">openssl</text>
</g>
<!-- python&#45;&gt;openssl -->
<g id="edge29" class="edge">
<title>python&#45;&gt;openssl</title>
<path fill="none" stroke="#8b4513" d="M231.9,-1439.95C231.9,-1413.29 231.9,-1360.11 231.9,-1315 231.9,-1315 231.9,-1315 231.9,-1169 231.9,-1128.83 237.12,-1082.53 240.95,-1054.01"/>
<polygon fill="#8b4513" stroke="#8b4513" points="244.43,-1054.39 242.33,-1044 237.49,-1053.43 244.43,-1054.39"/>
</g>
<!-- libffi -->
<g id="node25" class="node">
<title>libffi</title>
<ellipse fill="green" stroke="green" cx="528.9" cy="-1242" rx="27.9" ry="18"/>
<text text-anchor="middle" x="528.9" y="-1238.3" font-family="Times,serif" font-size="14.00">libffi</text>
</g>
<!-- python&#45;&gt;libffi -->
<g id="edge38" class="edge">
<title>python&#45;&gt;libffi</title>
<path fill="none" stroke="#8b4513" d="M260.08,-1447.03C284.58,-1437.72 320.5,-1422.51 348.9,-1404 412.64,-1362.46 476.45,-1298.92 508.21,-1265.44"/>
<polygon fill="#8b4513" stroke="#8b4513" points="510.91,-1267.68 515.21,-1257.99 505.81,-1262.88 510.91,-1267.68"/>
</g>
<!-- zlib -->
<g id="node26" class="node">
<title>zlib</title>
<ellipse fill="green" stroke="green" cx="680.9" cy="-1170" rx="27" ry="18"/>
<text text-anchor="middle" x="680.9" y="-1166.3" font-family="Times,serif" font-size="14.00">zlib</text>
</g>
<!-- python&#45;&gt;zlib -->
<g id="edge40" class="edge">
<title>python&#45;&gt;zlib</title>
<path fill="none" stroke="#8b4513" d="M262.98,-1449.62C295.02,-1441.26 345.82,-1425.89 385.9,-1404 498.78,-1342.33 612.71,-1237.51 659.16,-1192.53"/>
<polygon fill="#8b4513" stroke="#8b4513" points="661.81,-1194.84 666.53,-1185.35 656.93,-1189.82 661.81,-1194.84"/>
</g>
<!-- libnsl -->
<g id="node27" class="node">
<title>libnsl</title>
<ellipse fill="green" stroke="green" cx="308.9" cy="-1386" rx="30.59" ry="18"/>
<text text-anchor="middle" x="308.9" y="-1382.3" font-family="Times,serif" font-size="14.00">libnsl</text>
</g>
<!-- python&#45;&gt;libnsl -->
<g id="edge42" class="edge">
<title>python&#45;&gt;libnsl</title>
<path fill="none" stroke="#8b4513" d="M248.61,-1441.81C259.42,-1431.98 273.65,-1419.04 285.57,-1408.21"/>
<polygon fill="#8b4513" stroke="#8b4513" points="287.97,-1410.76 293.01,-1401.44 283.26,-1405.58 287.97,-1410.76"/>
</g>
<!-- glibc -->
<g id="node5" class="node">
<title>glibc</title>
<ellipse fill="green" stroke="green" cx="354.9" cy="-162" rx="28.7" ry="18"/>
<text text-anchor="middle" x="354.9" y="-158.3" font-family="Times,serif" font-size="14.00">glibc</text>
</g>
<!-- expat&#45;&gt;glibc -->
<g id="edge4" class="edge">
<title>expat&#45;&gt;glibc</title>
<path fill="none" stroke="#8b4513" d="M28.71,-1295.96C26.96,-1269.31 23.9,-1216.15 23.9,-1171 23.9,-1171 23.9,-1171 23.9,-305 23.9,-179.12 228.59,-163.41 316.04,-162.44"/>
<polygon fill="#8b4513" stroke="#8b4513" points="316.12,-165.94 326.1,-162.39 316.08,-158.94 316.12,-165.94"/>
</g>
<!-- linux&#45;api&#45;headers&gt;=4.10 -->
<g id="node6" class="node">
<title>linux&#45;api&#45;headers&gt;=4.10</title>
<ellipse fill="green" stroke="green" cx="206.9" cy="-90" rx="98.28" ry="18"/>
<text text-anchor="middle" x="206.9" y="-86.3" font-family="Times,serif" font-size="14.00">linux&#45;api&#45;headers&gt;=4.10</text>
</g>
<!-- glibc&#45;&gt;linux&#45;api&#45;headers&gt;=4.10 -->
<g id="edge5" class="edge">
<title>glibc&#45;&gt;linux&#45;api&#45;headers&gt;=4.10</title>
<path fill="none" stroke="#8b4513" d="M332.74,-150.52C310.96,-140.22 277.13,-124.22 250.03,-111.4"/>
<polygon fill="#8b4513" stroke="#8b4513" points="251.29,-108.12 240.75,-107.01 248.29,-114.45 251.29,-108.12"/>
</g>
<!-- tzdata -->
<g id="node8" class="node">
<title>tzdata</title>
<ellipse fill="green" stroke="green" cx="354.9" cy="-90" rx="31.7" ry="18"/>
<text text-anchor="middle" x="354.9" y="-86.3" font-family="Times,serif" font-size="14.00">tzdata</text>
</g>
<!-- glibc&#45;&gt;tzdata -->
<g id="edge7" class="edge">
<title>glibc&#45;&gt;tzdata</title>
<path fill="none" stroke="#8b4513" d="M354.9,-143.7C354.9,-135.98 354.9,-126.71 354.9,-118.11"/>
<polygon fill="#8b4513" stroke="#8b4513" points="358.4,-118.1 354.9,-108.1 351.4,-118.1 358.4,-118.1"/>
</g>
<!-- filesystem -->
<g id="node9" class="node">
<title>filesystem</title>
<ellipse fill="green" stroke="green" cx="451.9" cy="-90" rx="46.59" ry="18"/>
<text text-anchor="middle" x="451.9" y="-86.3" font-family="Times,serif" font-size="14.00">filesystem</text>
</g>
<!-- glibc&#45;&gt;filesystem -->
<g id="edge8" class="edge">
<title>glibc&#45;&gt;filesystem</title>
<path fill="none" stroke="#8b4513" d="M373.14,-147.83C386.94,-137.88 406.18,-123.99 422.19,-112.44"/>
<polygon fill="#8b4513" stroke="#8b4513" points="424.63,-114.99 430.69,-106.3 420.54,-109.31 424.63,-114.99"/>
</g>
<!-- linux&#45;api&#45;headers -->
<g id="node7" class="node">
<title>linux&#45;api&#45;headers</title>
<ellipse fill="green" stroke="green" cx="206.9" cy="-18" rx="71.49" ry="18"/>
<text text-anchor="middle" x="206.9" y="-14.3" font-family="Times,serif" font-size="14.00">linux&#45;api&#45;headers</text>
</g>
<!-- linux&#45;api&#45;headers&gt;=4.10&#45;&gt;linux&#45;api&#45;headers -->
<g id="edge6" class="edge">
<title>linux&#45;api&#45;headers&gt;=4.10&#45;&gt;linux&#45;api&#45;headers</title>
<path fill="none" stroke="grey" d="M206.9,-71.7C206.9,-60.85 206.9,-46.92 206.9,-36.1"/>
</g>
<!-- iana&#45;etc -->
<g id="node10" class="node">
<title>iana&#45;etc</title>
<ellipse fill="green" stroke="green" cx="451.9" cy="-18" rx="38.19" ry="18"/>
<text text-anchor="middle" x="451.9" y="-14.3" font-family="Times,serif" font-size="14.00">iana&#45;etc</text>
</g>
<!-- filesystem&#45;&gt;iana&#45;etc -->
<g id="edge9" class="edge">
<title>filesystem&#45;&gt;iana&#45;etc</title>
<path fill="none" stroke="#8b4513" d="M451.9,-71.7C451.9,-63.98 451.9,-54.71 451.9,-46.11"/>
<polygon fill="#8b4513" stroke="#8b4513" points="455.4,-46.1 451.9,-36.1 448.4,-46.1 455.4,-46.1"/>
</g>
<!-- bzip2&#45;&gt;glibc -->
<g id="edge11" class="edge">
<title>bzip2&#45;&gt;glibc</title>
<path fill="none" stroke="#8b4513" d="M83.89,-791.96C85.34,-765.31 87.9,-712.14 87.9,-667 87.9,-667 87.9,-667 87.9,-305 87.9,-262.66 89.92,-243.75 121.9,-216 150.71,-190.99 258.43,-174.56 316.77,-167.29"/>
<polygon fill="#8b4513" stroke="#8b4513" points="317.21,-170.76 326.72,-166.08 316.37,-163.81 317.21,-170.76"/>
</g>
<!-- sh -->
<g id="node12" class="node">
<title>sh</title>
<ellipse fill="green" stroke="green" cx="357.9" cy="-738" rx="27" ry="18"/>
<text text-anchor="middle" x="357.9" y="-734.3" font-family="Times,serif" font-size="14.00">sh</text>
</g>
<!-- bzip2&#45;&gt;sh -->
<g id="edge12" class="edge">
<title>bzip2&#45;&gt;sh</title>
<path fill="none" stroke="#8b4513" d="M110.52,-801.97C160.94,-789.13 267.75,-761.95 323.06,-747.87"/>
<polygon fill="#8b4513" stroke="#8b4513" points="324.26,-751.17 333.09,-745.32 322.53,-744.39 324.26,-751.17"/>
</g>
<!-- bash -->
<g id="node13" class="node">
<title>bash</title>
<ellipse fill="green" stroke="green" cx="357.9" cy="-666" rx="27" ry="18"/>
<text text-anchor="middle" x="357.9" y="-662.3" font-family="Times,serif" font-size="14.00">bash</text>
</g>
<!-- sh&#45;&gt;bash -->
<g id="edge13" class="edge">
<title>sh&#45;&gt;bash</title>
<path fill="none" stroke="grey" d="M341.52,-723.5C336.35,-711.11 336.36,-692.84 341.54,-680.46"/>
</g>
<!-- sh&#45;&gt;bash -->
<g id="edge36" class="edge">
<title>sh&#45;&gt;bash</title>
<path fill="none" stroke="grey" d="M352.06,-720.41C350.86,-709.41 350.84,-695.03 352.02,-683.96"/>
</g>
<!-- sh&#45;&gt;bash -->
<g id="edge47" class="edge">
<title>sh&#45;&gt;bash</title>
<path fill="none" stroke="grey" d="M363.74,-720.41C364.94,-709.41 364.95,-695.03 363.78,-683.96"/>
</g>
<!-- sh&#45;&gt;bash -->
<g id="edge56" class="edge">
<title>sh&#45;&gt;bash</title>
<path fill="none" stroke="grey" d="M374.27,-723.5C379.45,-711.11 379.44,-692.84 374.25,-680.46"/>
</g>
<!-- bash&#45;&gt;glibc -->
<g id="edge24" class="edge">
<title>bash&#45;&gt;glibc</title>
<path fill="none" stroke="#8b4513" d="M383,-659.08C435.04,-645.14 549.9,-605.09 549.9,-523 549.9,-523 549.9,-523 549.9,-305 549.9,-227.53 448.08,-187.87 391.59,-171.83"/>
<polygon fill="#8b4513" stroke="#8b4513" points="392.17,-168.37 381.6,-169.11 390.33,-175.12 392.17,-168.37"/>
</g>
<!-- readline&gt;=7.0 -->
<g id="node14" class="node">
<title>readline&gt;=7.0</title>
<ellipse fill="green" stroke="green" cx="369.9" cy="-594" rx="61.19" ry="18"/>
<text text-anchor="middle" x="369.9" y="-590.3" font-family="Times,serif" font-size="14.00">readline&gt;=7.0</text>
</g>
<!-- bash&#45;&gt;readline&gt;=7.0 -->
<g id="edge14" class="edge">
<title>bash&#45;&gt;readline&gt;=7.0</title>
<path fill="none" stroke="#8b4513" d="M360.8,-648.05C362.12,-640.35 363.72,-631.03 365.21,-622.36"/>
<polygon fill="#8b4513" stroke="#8b4513" points="368.7,-622.72 366.94,-612.28 361.8,-621.54 368.7,-622.72"/>
</g>
<!-- ncurses -->
<g id="node16" class="node">
<title>ncurses</title>
<ellipse fill="green" stroke="green" cx="287.9" cy="-378" rx="37.09" ry="18"/>
<text text-anchor="middle" x="287.9" y="-374.3" font-family="Times,serif" font-size="14.00">ncurses</text>
</g>
<!-- bash&#45;&gt;ncurses -->
<g id="edge25" class="edge">
<title>bash&#45;&gt;ncurses</title>
<path fill="none" stroke="#8b4513" d="M338.68,-653.19C325.3,-643.82 308.38,-629.41 299.9,-612 266.81,-544.07 275.57,-451.42 282.76,-406.15"/>
<polygon fill="#8b4513" stroke="#8b4513" points="286.22,-406.65 284.44,-396.21 279.32,-405.49 286.22,-406.65"/>
</g>
<!-- readline -->
<g id="node15" class="node">
<title>readline</title>
<ellipse fill="green" stroke="green" cx="393.9" cy="-522" rx="38.99" ry="18"/>
<text text-anchor="middle" x="393.9" y="-518.3" font-family="Times,serif" font-size="14.00">readline</text>
</g>
<!-- readline&gt;=7.0&#45;&gt;readline -->
<g id="edge15" class="edge">
<title>readline&gt;=7.0&#45;&gt;readline</title>
<path fill="none" stroke="grey" d="M375.71,-576.05C379.42,-565.21 384.23,-551.18 387.97,-540.28"/>
</g>
<!-- readline&#45;&gt;glibc -->
<g id="edge16" class="edge">
<title>readline&#45;&gt;glibc</title>
<path fill="none" stroke="#8b4513" d="M426.35,-511.65C448.42,-503.62 476.49,-489.81 492.9,-468 517.21,-435.67 511.9,-419.45 511.9,-379 511.9,-379 511.9,-379 511.9,-305 511.9,-238.95 434.52,-195.66 388.41,-175.72"/>
<polygon fill="#8b4513" stroke="#8b4513" points="389.66,-172.45 379.08,-171.82 386.96,-178.9 389.66,-172.45"/>
</g>
<!-- readline&#45;&gt;ncurses -->
<g id="edge17" class="edge">
<title>readline&#45;&gt;ncurses</title>
<path fill="none" stroke="#8b4513" d="M364.07,-510.1C344.85,-501.55 320.92,-487.76 306.9,-468 294.15,-450.03 289.65,-425.24 288.2,-406.39"/>
<polygon fill="#8b4513" stroke="#8b4513" points="291.69,-406.13 287.66,-396.33 284.7,-406.51 291.69,-406.13"/>
</g>
<!-- libncursesw.so=6&#45;64 -->
<g id="node19" class="node">
<title>libncursesw.so=6&#45;64</title>
<ellipse fill="green" stroke="green" cx="399.9" cy="-450" rx="83.69" ry="18"/>
<text text-anchor="middle" x="399.9" y="-446.3" font-family="Times,serif" font-size="14.00">libncursesw.so=6&#45;64</text>
</g>
<!-- readline&#45;&gt;libncursesw.so=6&#45;64 -->
<g id="edge22" class="edge">
<title>readline&#45;&gt;libncursesw.so=6&#45;64</title>
<path fill="none" stroke="#8b4513" d="M395.38,-503.7C396.04,-495.98 396.84,-486.71 397.57,-478.11"/>
<polygon fill="#8b4513" stroke="#8b4513" points="401.06,-478.37 398.43,-468.1 394.09,-477.77 401.06,-478.37"/>
</g>
<!-- ncurses&#45;&gt;glibc -->
<g id="edge18" class="edge">
<title>ncurses&#45;&gt;glibc</title>
<path fill="none" stroke="#8b4513" d="M299.29,-360.47C305.84,-350.33 313.75,-336.87 318.9,-324 336.96,-278.84 346.9,-222.76 351.55,-190.11"/>
<polygon fill="#8b4513" stroke="#8b4513" points="355.04,-190.36 352.92,-179.98 348.11,-189.42 355.04,-190.36"/>
</g>
<!-- gcc&#45;libs -->
<g id="node17" class="node">
<title>gcc&#45;libs</title>
<ellipse fill="green" stroke="green" cx="271.9" cy="-306" rx="38.19" ry="18"/>
<text text-anchor="middle" x="271.9" y="-302.3" font-family="Times,serif" font-size="14.00">gcc&#45;libs</text>
</g>
<!-- ncurses&#45;&gt;gcc&#45;libs -->
<g id="edge19" class="edge">
<title>ncurses&#45;&gt;gcc&#45;libs</title>
<path fill="none" stroke="#8b4513" d="M284.02,-360.05C282.24,-352.26 280.09,-342.82 278.09,-334.08"/>
<polygon fill="#8b4513" stroke="#8b4513" points="281.49,-333.24 275.85,-324.28 274.66,-334.8 281.49,-333.24"/>
</g>
<!-- glibc&gt;=2.27 -->
<g id="node18" class="node">
<title>glibc&gt;=2.27</title>
<ellipse fill="green" stroke="green" cx="271.9" cy="-234" rx="54.69" ry="18"/>
<text text-anchor="middle" x="271.9" y="-230.3" font-family="Times,serif" font-size="14.00">glibc&gt;=2.27</text>
</g>
<!-- gcc&#45;libs&#45;&gt;glibc&gt;=2.27 -->
<g id="edge20" class="edge">
<title>gcc&#45;libs&#45;&gt;glibc&gt;=2.27</title>
<path fill="none" stroke="#8b4513" d="M271.9,-287.7C271.9,-279.98 271.9,-270.71 271.9,-262.11"/>
<polygon fill="#8b4513" stroke="#8b4513" points="275.4,-262.1 271.9,-252.1 268.4,-262.1 275.4,-262.1"/>
</g>
<!-- glibc&gt;=2.27&#45;&gt;glibc -->
<g id="edge21" class="edge">
<title>glibc&gt;=2.27&#45;&gt;glibc</title>
<path fill="none" stroke="grey" d="M291.15,-216.76C305.51,-204.65 324.93,-188.27 338.55,-176.79"/>
</g>
<!-- libncursesw.so=6&#45;64&#45;&gt;ncurses -->
<g id="edge23" class="edge">
<title>libncursesw.so=6&#45;64&#45;&gt;ncurses</title>
<path fill="none" stroke="grey" d="M373.92,-432.76C354.53,-420.65 328.33,-404.27 309.96,-392.79"/>
</g>
<!-- gdbm&#45;&gt;glibc -->
<g id="edge27" class="edge">
<title>gdbm&#45;&gt;glibc</title>
<path fill="none" stroke="#8b4513" d="M222.04,-792.89C204.56,-767.49 173.9,-715.98 173.9,-667 173.9,-667 173.9,-667 173.9,-305 173.9,-262.66 177.67,-245.66 207.9,-216 237.43,-187.02 283.94,-173.76 316.72,-167.78"/>
<polygon fill="#8b4513" stroke="#8b4513" points="317.56,-171.18 326.84,-166.08 316.4,-164.28 317.56,-171.18"/>
</g>
<!-- gdbm&#45;&gt;sh -->
<g id="edge28" class="edge">
<title>gdbm&#45;&gt;sh</title>
<path fill="none" stroke="#8b4513" d="M255.5,-796.81C275.87,-785.31 306.54,-767.99 329.01,-755.31"/>
<polygon fill="#8b4513" stroke="#8b4513" points="330.79,-758.32 337.78,-750.36 327.35,-752.23 330.79,-758.32"/>
</g>
<!-- perl -->
<g id="node22" class="node">
<title>perl</title>
<ellipse fill="green" stroke="green" cx="255.9" cy="-954" rx="27" ry="18"/>
<text text-anchor="middle" x="255.9" y="-950.3" font-family="Times,serif" font-size="14.00">perl</text>
</g>
<!-- openssl&#45;&gt;perl -->
<g id="edge30" class="edge">
<title>openssl&#45;&gt;perl</title>
<path fill="none" stroke="#8b4513" d="M247.62,-1007.7C248.83,-999.98 250.29,-990.71 251.64,-982.11"/>
<polygon fill="#8b4513" stroke="#8b4513" points="255.11,-982.53 253.21,-972.1 248.2,-981.44 255.11,-982.53"/>
</g>
<!-- perl&#45;&gt;glibc -->
<g id="edge37" class="edge">
<title>perl&#45;&gt;glibc</title>
<path fill="none" stroke="#8b4513" d="M237.68,-940.4C225.03,-930.73 208.74,-916.31 198.9,-900 143.48,-808.15 135.9,-774.27 135.9,-667 135.9,-667 135.9,-667 135.9,-305 135.9,-261.26 144.74,-244.52 177.9,-216 217.02,-182.35 276.87,-170.06 315.95,-165.58"/>
<polygon fill="#8b4513" stroke="#8b4513" points="316.79,-169.01 326.38,-164.51 316.08,-162.04 316.79,-169.01"/>
</g>
<!-- gdbm&gt;=1.17 -->
<g id="node23" class="node">
<title>gdbm&gt;=1.17</title>
<ellipse fill="green" stroke="green" cx="265.9" cy="-882" rx="57.69" ry="18"/>
<text text-anchor="middle" x="265.9" y="-878.3" font-family="Times,serif" font-size="14.00">gdbm&gt;=1.17</text>
</g>
<!-- perl&#45;&gt;gdbm&gt;=1.17 -->
<g id="edge31" class="edge">
<title>perl&#45;&gt;gdbm&gt;=1.17</title>
<path fill="none" stroke="#8b4513" d="M258.32,-936.05C259.42,-928.35 260.75,-919.03 261.99,-910.36"/>
<polygon fill="#8b4513" stroke="#8b4513" points="265.48,-910.67 263.43,-900.28 258.55,-909.68 265.48,-910.67"/>
</g>
<!-- db -->
<g id="node24" class="node">
<title>db</title>
<ellipse fill="green" stroke="green" cx="351.9" cy="-810" rx="27" ry="18"/>
<text text-anchor="middle" x="351.9" y="-806.3" font-family="Times,serif" font-size="14.00">db</text>
</g>
<!-- perl&#45;&gt;db -->
<g id="edge33" class="edge">
<title>perl&#45;&gt;db</title>
<path fill="none" stroke="#8b4513" d="M277.97,-943.5C295.58,-934.76 319.46,-920.1 332.9,-900 345.14,-881.69 349.68,-856.92 351.28,-838.17"/>
<polygon fill="#8b4513" stroke="#8b4513" points="354.77,-838.38 351.91,-828.18 347.79,-837.94 354.77,-838.38"/>
</g>
<!-- gdbm&gt;=1.17&#45;&gt;gdbm -->
<g id="edge32" class="edge">
<title>gdbm&gt;=1.17&#45;&gt;gdbm</title>
<path fill="none" stroke="grey" d="M258.15,-864.05C253.12,-853.05 246.59,-838.76 241.57,-827.79"/>
</g>
<!-- db&#45;&gt;sh -->
<g id="edge35" class="edge">
<title>db&#45;&gt;sh</title>
<path fill="none" stroke="#8b4513" d="M353.38,-791.7C354.04,-783.98 354.84,-774.71 355.57,-766.11"/>
<polygon fill="#8b4513" stroke="#8b4513" points="359.06,-766.37 356.43,-756.1 352.09,-765.77 359.06,-766.37"/>
</g>
<!-- db&#45;&gt;gcc&#45;libs -->
<g id="edge34" class="edge">
<title>db&#45;&gt;gcc&#45;libs</title>
<path fill="none" stroke="#8b4513" d="M330.02,-799.28C290.65,-780.11 211.9,-733.47 211.9,-667 211.9,-667 211.9,-667 211.9,-449 211.9,-405.24 236.38,-359.45 254.06,-332.07"/>
<polygon fill="#8b4513" stroke="#8b4513" points="257.13,-333.79 259.76,-323.53 251.3,-329.91 257.13,-333.79"/>
</g>
<!-- libffi&#45;&gt;glibc -->
<g id="edge39" class="edge">
<title>libffi&#45;&gt;glibc</title>
<path fill="none" stroke="#8b4513" d="M546.24,-1227.78C574.14,-1204.86 625.9,-1154.83 625.9,-1099 625.9,-1099 625.9,-1099 625.9,-305 625.9,-201.26 468.15,-173.16 393.36,-165.67"/>
<polygon fill="#8b4513" stroke="#8b4513" points="393.67,-162.18 383.39,-164.74 393.02,-169.15 393.67,-162.18"/>
</g>
<!-- zlib&#45;&gt;glibc -->
<g id="edge41" class="edge">
<title>zlib&#45;&gt;glibc</title>
<path fill="none" stroke="#8b4513" d="M679.12,-1151.97C676.5,-1125.34 671.9,-1072.21 671.9,-1027 671.9,-1027 671.9,-1027 671.9,-305 671.9,-262.97 671.92,-243.23 639.9,-216 603.25,-184.83 462.38,-170.66 393.41,-165.48"/>
<polygon fill="#8b4513" stroke="#8b4513" points="393.6,-161.98 383.37,-164.75 393.09,-168.96 393.6,-161.98"/>
</g>
<!-- libtirpc -->
<g id="node28" class="node">
<title>libtirpc</title>
<ellipse fill="green" stroke="green" cx="310.9" cy="-1314" rx="36.29" ry="18"/>
<text text-anchor="middle" x="310.9" y="-1310.3" font-family="Times,serif" font-size="14.00">libtirpc</text>
</g>
<!-- libnsl&#45;&gt;libtirpc -->
<g id="edge43" class="edge">
<title>libnsl&#45;&gt;libtirpc</title>
<path fill="none" stroke="#8b4513" d="M309.39,-1367.7C309.61,-1359.98 309.88,-1350.71 310.12,-1342.11"/>
<polygon fill="#8b4513" stroke="#8b4513" points="313.62,-1342.2 310.41,-1332.1 306.62,-1342 313.62,-1342.2"/>
</g>
<!-- krb5 -->
<g id="node29" class="node">
<title>krb5</title>
<ellipse fill="green" stroke="green" cx="356.9" cy="-1242" rx="27.1" ry="18"/>
<text text-anchor="middle" x="356.9" y="-1238.3" font-family="Times,serif" font-size="14.00">krb5</text>
</g>
<!-- libtirpc&#45;&gt;krb5 -->
<g id="edge44" class="edge">
<title>libtirpc&#45;&gt;krb5</title>
<path fill="none" stroke="#8b4513" d="M321.57,-1296.76C327.26,-1288.11 334.38,-1277.27 340.73,-1267.6"/>
<polygon fill="#8b4513" stroke="#8b4513" points="343.72,-1269.43 346.29,-1259.15 337.87,-1265.58 343.72,-1269.43"/>
</g>
<!-- e2fsprogs -->
<g id="node30" class="node">
<title>e2fsprogs</title>
<ellipse fill="green" stroke="green" cx="388.9" cy="-1098" rx="44.69" ry="18"/>
<text text-anchor="middle" x="388.9" y="-1094.3" font-family="Times,serif" font-size="14.00">e2fsprogs</text>
</g>
<!-- krb5&#45;&gt;e2fsprogs -->
<g id="edge45" class="edge">
<title>krb5&#45;&gt;e2fsprogs</title>
<path fill="none" stroke="#8b4513" d="M361.24,-1223.85C363.83,-1213.48 367.14,-1200 369.9,-1188 374.64,-1167.34 379.63,-1143.89 383.3,-1126.25"/>
<polygon fill="#8b4513" stroke="#8b4513" points="386.8,-1126.6 385.41,-1116.1 379.95,-1125.18 386.8,-1126.6"/>
</g>
<!-- libldap -->
<g id="node32" class="node">
<title>libldap</title>
<ellipse fill="green" stroke="green" cx="325.9" cy="-1170" rx="35.19" ry="18"/>
<text text-anchor="middle" x="325.9" y="-1166.3" font-family="Times,serif" font-size="14.00">libldap</text>
</g>
<!-- krb5&#45;&gt;libldap -->
<g id="edge49" class="edge">
<title>krb5&#45;&gt;libldap</title>
<path fill="none" stroke="#8b4513" d="M349.55,-1224.41C345.97,-1216.34 341.59,-1206.43 337.57,-1197.35"/>
<polygon fill="#8b4513" stroke="#8b4513" points="340.66,-1195.68 333.41,-1187.96 334.26,-1198.52 340.66,-1195.68"/>
</g>
<!-- keyutils -->
<g id="node34" class="node">
<title>keyutils</title>
<ellipse fill="green" stroke="green" cx="499.9" cy="-810" rx="38.19" ry="18"/>
<text text-anchor="middle" x="499.9" y="-806.3" font-family="Times,serif" font-size="14.00">keyutils</text>
</g>
<!-- krb5&#45;&gt;keyutils -->
<g id="edge53" class="edge">
<title>krb5&#45;&gt;keyutils</title>
<path fill="none" stroke="#8b4513" d="M377.91,-1230.33C414.46,-1210.1 485.9,-1162.45 485.9,-1099 485.9,-1099 485.9,-1099 485.9,-953 485.9,-912.8 491.52,-866.51 495.64,-838"/>
<polygon fill="#8b4513" stroke="#8b4513" points="499.12,-838.4 497.13,-828 492.2,-837.37 499.12,-838.4"/>
</g>
<!-- e2fsprogs&#45;&gt;sh -->
<g id="edge46" class="edge">
<title>e2fsprogs&#45;&gt;sh</title>
<path fill="none" stroke="#8b4513" d="M398.43,-1080.27C403.9,-1070.06 410.54,-1056.59 414.9,-1044 428.13,-1005.78 433.9,-995.45 433.9,-955 433.9,-955 433.9,-955 433.9,-881 433.9,-834.12 401.3,-787.74 378.8,-761.31"/>
<polygon fill="#8b4513" stroke="#8b4513" points="381.42,-758.98 372.19,-753.77 376.15,-763.6 381.42,-758.98"/>
</g>
<!-- libutil&#45;linux -->
<g id="node31" class="node">
<title>libutil&#45;linux</title>
<ellipse fill="green" stroke="green" cx="352.9" cy="-1026" rx="52.79" ry="18"/>
<text text-anchor="middle" x="352.9" y="-1022.3" font-family="Times,serif" font-size="14.00">libutil&#45;linux</text>
</g>
<!-- e2fsprogs&#45;&gt;libutil&#45;linux -->
<g id="edge48" class="edge">
<title>e2fsprogs&#45;&gt;libutil&#45;linux</title>
<path fill="none" stroke="#8b4513" d="M380.18,-1080.05C375.98,-1071.89 370.85,-1061.91 366.18,-1052.82"/>
<polygon fill="#8b4513" stroke="#8b4513" points="369.22,-1051.08 361.53,-1043.79 362.99,-1054.28 369.22,-1051.08"/>
</g>
<!-- libldap&#45;&gt;e2fsprogs -->
<g id="edge52" class="edge">
<title>libldap&#45;&gt;e2fsprogs</title>
<path fill="none" stroke="#8b4513" d="M339.88,-1153.46C347.89,-1144.57 358.11,-1133.21 367.15,-1123.16"/>
<polygon fill="#8b4513" stroke="#8b4513" points="369.99,-1125.24 374.08,-1115.47 364.79,-1120.56 369.99,-1125.24"/>
</g>
<!-- libsasl -->
<g id="node33" class="node">
<title>libsasl</title>
<ellipse fill="green" stroke="green" cx="292.9" cy="-1098" rx="33.29" ry="18"/>
<text text-anchor="middle" x="292.9" y="-1094.3" font-family="Times,serif" font-size="14.00">libsasl</text>
</g>
<!-- libldap&#45;&gt;libsasl -->
<g id="edge50" class="edge">
<title>libldap&#45;&gt;libsasl</title>
<path fill="none" stroke="#8b4513" d="M318.08,-1152.41C314.23,-1144.25 309.5,-1134.22 305.19,-1125.07"/>
<polygon fill="#8b4513" stroke="#8b4513" points="308.32,-1123.51 300.89,-1115.96 301.99,-1126.49 308.32,-1123.51"/>
</g>
<!-- libsasl&#45;&gt;openssl -->
<g id="edge51" class="edge">
<title>libsasl&#45;&gt;openssl</title>
<path fill="none" stroke="#8b4513" d="M281.76,-1080.76C275.91,-1072.23 268.61,-1061.58 262.05,-1052.02"/>
<polygon fill="#8b4513" stroke="#8b4513" points="264.84,-1049.9 256.3,-1043.63 259.07,-1053.86 264.84,-1049.9"/>
</g>
<!-- keyutils&#45;&gt;glibc -->
<g id="edge54" class="edge">
<title>keyutils&#45;&gt;glibc</title>
<path fill="none" stroke="#8b4513" d="M517.28,-793.89C542.93,-769.83 587.9,-720.08 587.9,-667 587.9,-667 587.9,-667 587.9,-305 587.9,-214.62 458.48,-180.08 392.55,-168.35"/>
<polygon fill="#8b4513" stroke="#8b4513" points="392.98,-164.88 382.54,-166.66 391.82,-171.78 392.98,-164.88"/>
</g>
<!-- keyutils&#45;&gt;sh -->
<g id="edge55" class="edge">
<title>keyutils&#45;&gt;sh</title>
<path fill="none" stroke="#8b4513" d="M474.51,-796.49C450.32,-784.56 413.87,-766.59 388.18,-753.93"/>
<polygon fill="#8b4513" stroke="#8b4513" points="389.42,-750.64 378.9,-749.36 386.33,-756.92 389.42,-750.64"/>
</g>
</g>
</svg>
