<?xml version="1.0" encoding="UTF-8" standalone="no"?>
<!DOCTYPE svg PUBLIC "-//W3C//DTD SVG 1.1//EN"
 "http://www.w3.org/Graphics/SVG/1.1/DTD/svg11.dtd">
<!-- Generated by graphviz version 2.44.0 (0)
 -->
<!-- Title: G Pages: 1 -->
<svg width="772pt" height="1772pt"
 viewBox="0.00 0.00 771.69 1772.00" xmlns="http://www.w3.org/2000/svg" xmlns:xlink="http://www.w3.org/1999/xlink">
<g id="graph0" class="graph" transform="scale(1 1) rotate(0) translate(4 1768)">
<title>G</title>
<polygon fill="white" stroke="transparent" points="-4,4 -4,-1768 767.69,-1768 767.69,4 -4,4"/>
<!-- START -->
<g id="node1" class="node">
<title>START</title>
<ellipse fill="red" stroke="red" cx="228.69" cy="-1746" rx="38.19" ry="18"/>
<text text-anchor="middle" x="228.69" y="-1742.3" font-family="Times,serif" font-size="14.00">START</text>
</g>
<!-- python&#45;setuptools -->
<g id="node2" class="node">
<title>python&#45;setuptools</title>
<ellipse fill="green" stroke="green" cx="228.69" cy="-1674" rx="73.39" ry="18"/>
<text text-anchor="middle" x="228.69" y="-1670.3" font-family="Times,serif" font-size="14.00">python&#45;setuptools</text>
</g>
<!-- START&#45;&gt;python&#45;setuptools -->
<g id="edge1" class="edge">
<title>START&#45;&gt;python&#45;setuptools</title>
<path fill="none" stroke="black" d="M228.69,-1727.7C228.69,-1719.98 228.69,-1710.71 228.69,-1702.11"/>
<polygon fill="black" stroke="black" points="232.19,-1702.1 228.69,-1692.1 225.19,-1702.1 232.19,-1702.1"/>
</g>
<!-- python&#45;appdirs -->
<g id="node3" class="node">
<title>python&#45;appdirs</title>
<ellipse fill="green" stroke="green" cx="63.69" cy="-1530" rx="63.89" ry="18"/>
<text text-anchor="middle" x="63.69" y="-1526.3" font-family="Times,serif" font-size="14.00">python&#45;appdirs</text>
</g>
<!-- python&#45;setuptools&#45;&gt;python&#45;appdirs -->
<g id="edge2" class="edge">
<title>python&#45;setuptools&#45;&gt;python&#45;appdirs</title>
<path fill="none" stroke="#8b4513" d="M200.16,-1657.27C183.54,-1647.51 162.6,-1634.16 145.69,-1620 122.26,-1600.37 98.98,-1574.31 83.25,-1555.47"/>
<polygon fill="#8b4513" stroke="#8b4513" points="85.84,-1553.11 76.78,-1547.62 80.44,-1557.57 85.84,-1553.11"/>
</g>
<!-- python&#45;packaging -->
<g id="node36" class="node">
<title>python&#45;packaging</title>
<ellipse fill="green" stroke="green" cx="228.69" cy="-1602" rx="74.19" ry="18"/>
<text text-anchor="middle" x="228.69" y="-1598.3" font-family="Times,serif" font-size="14.00">python&#45;packaging</text>
</g>
<!-- python&#45;setuptools&#45;&gt;python&#45;packaging -->
<g id="edge58" class="edge">
<title>python&#45;setuptools&#45;&gt;python&#45;packaging</title>
<path fill="none" stroke="#8b4513" d="M228.69,-1655.7C228.69,-1647.98 228.69,-1638.71 228.69,-1630.11"/>
<polygon fill="#8b4513" stroke="#8b4513" points="232.19,-1630.1 228.69,-1620.1 225.19,-1630.1 232.19,-1630.1"/>
</g>
<!-- python&#45;ordered&#45;set -->
<g id="node39" class="node">
<title>python&#45;ordered&#45;set</title>
<ellipse fill="green" stroke="green" cx="420.69" cy="-1602" rx="77.19" ry="18"/>
<text text-anchor="middle" x="420.69" y="-1598.3" font-family="Times,serif" font-size="14.00">python&#45;ordered&#45;set</text>
</g>
<!-- python&#45;setuptools&#45;&gt;python&#45;ordered&#45;set -->
<g id="edge63" class="edge">
<title>python&#45;setuptools&#45;&gt;python&#45;ordered&#45;set</title>
<path fill="none" stroke="#8b4513" d="M268.01,-1658.67C297.84,-1647.79 339.04,-1632.77 371.13,-1621.07"/>
<polygon fill="#8b4513" stroke="#8b4513" points="372.57,-1624.27 380.77,-1617.56 370.18,-1617.69 372.57,-1624.27"/>
</g>
<!-- python -->
<g id="node4" class="node">
<title>python</title>
<ellipse fill="green" stroke="green" cx="286.69" cy="-1458" rx="35.19" ry="18"/>
<text text-anchor="middle" x="286.69" y="-1454.3" font-family="Times,serif" font-size="14.00">python</text>
</g>
<!-- python&#45;appdirs&#45;&gt;python -->
<g id="edge3" class="edge">
<title>python&#45;appdirs&#45;&gt;python</title>
<path fill="none" stroke="#8b4513" d="M104.6,-1516.16C145.4,-1503.35 207.63,-1483.82 247.73,-1471.23"/>
<polygon fill="#8b4513" stroke="#8b4513" points="248.93,-1474.52 257.43,-1468.19 246.84,-1467.84 248.93,-1474.52"/>
</g>
<!-- expat -->
<g id="node5" class="node">
<title>expat</title>
<ellipse fill="green" stroke="green" cx="85.69" cy="-1314" rx="29.8" ry="18"/>
<text text-anchor="middle" x="85.69" y="-1310.3" font-family="Times,serif" font-size="14.00">expat</text>
</g>
<!-- python&#45;&gt;expat -->
<g id="edge4" class="edge">
<title>python&#45;&gt;expat</title>
<path fill="none" stroke="#8b4513" d="M253.28,-1452.29C220.22,-1446.14 169.74,-1432.58 135.69,-1404 115.95,-1387.43 102.5,-1360.96 94.57,-1341.19"/>
<polygon fill="#8b4513" stroke="#8b4513" points="97.84,-1339.94 91.02,-1331.83 91.29,-1342.42 97.84,-1339.94"/>
</g>
<!-- bzip2 -->
<g id="node12" class="node">
<title>bzip2</title>
<ellipse fill="green" stroke="green" cx="138.69" cy="-810" rx="30.59" ry="18"/>
<text text-anchor="middle" x="138.69" y="-806.3" font-family="Times,serif" font-size="14.00">bzip2</text>
</g>
<!-- python&#45;&gt;bzip2 -->
<g id="edge11" class="edge">
<title>python&#45;&gt;bzip2</title>
<path fill="none" stroke="#8b4513" d="M261.57,-1445.25C222.02,-1424.81 149.69,-1378.72 149.69,-1315 149.69,-1315 149.69,-1315 149.69,-953 149.69,-912.88 145.27,-866.57 142.04,-838.03"/>
<polygon fill="#8b4513" stroke="#8b4513" points="145.51,-837.54 140.87,-828.02 138.55,-838.36 145.51,-837.54"/>
</g>
<!-- gdbm -->
<g id="node21" class="node">
<title>gdbm</title>
<ellipse fill="green" stroke="green" cx="289.69" cy="-810" rx="31.4" ry="18"/>
<text text-anchor="middle" x="289.69" y="-806.3" font-family="Times,serif" font-size="14.00">gdbm</text>
</g>
<!-- python&#45;&gt;gdbm -->
<g id="edge27" class="edge">
<title>python&#45;&gt;gdbm</title>
<path fill="none" stroke="#8b4513" d="M276.62,-1440.64C261.76,-1414.9 235.69,-1362.94 235.69,-1315 235.69,-1315 235.69,-1315 235.69,-953 235.69,-912.55 239.06,-901.3 254.69,-864 258.92,-853.93 265.11,-843.73 271.11,-834.99"/>
<polygon fill="#8b4513" stroke="#8b4513" points="273.99,-836.98 276.98,-826.81 268.31,-832.9 273.99,-836.98"/>
</g>
<!-- openssl -->
<g id="node22" class="node">
<title>openssl</title>
<ellipse fill="green" stroke="green" cx="300.69" cy="-1026" rx="37.09" ry="18"/>
<text text-anchor="middle" x="300.69" y="-1022.3" font-family="Times,serif" font-size="14.00">openssl</text>
</g>
<!-- python&#45;&gt;openssl -->
<g id="edge30" class="edge">
<title>python&#45;&gt;openssl</title>
<path fill="none" stroke="#8b4513" d="M286.69,-1439.95C286.69,-1413.29 286.69,-1360.11 286.69,-1315 286.69,-1315 286.69,-1315 286.69,-1169 286.69,-1128.8 292.32,-1082.51 296.44,-1054"/>
<polygon fill="#8b4513" stroke="#8b4513" points="299.92,-1054.4 297.93,-1044 292.99,-1053.37 299.92,-1054.4"/>
</g>
<!-- libffi -->
<g id="node26" class="node">
<title>libffi</title>
<ellipse fill="green" stroke="green" cx="594.69" cy="-1242" rx="27.9" ry="18"/>
<text text-anchor="middle" x="594.69" y="-1238.3" font-family="Times,serif" font-size="14.00">libffi</text>
</g>
<!-- python&#45;&gt;libffi -->
<g id="edge39" class="edge">
<title>python&#45;&gt;libffi</title>
<path fill="none" stroke="#8b4513" d="M315.28,-1447.54C341.03,-1438.37 379.38,-1423.07 409.69,-1404 475.09,-1362.86 540.72,-1299.16 573.4,-1265.54"/>
<polygon fill="#8b4513" stroke="#8b4513" points="576.19,-1267.69 580.61,-1258.06 571.15,-1262.83 576.19,-1267.69"/>
</g>
<!-- zlib -->
<g id="node27" class="node">
<title>zlib</title>
<ellipse fill="green" stroke="green" cx="736.69" cy="-1170" rx="27" ry="18"/>
<text text-anchor="middle" x="736.69" y="-1166.3" font-family="Times,serif" font-size="14.00">zlib</text>
</g>
<!-- python&#45;&gt;zlib -->
<g id="edge41" class="edge">
<title>python&#45;&gt;zlib</title>
<path fill="none" stroke="#8b4513" d="M318.35,-1449.92C351.59,-1441.72 404.75,-1426.41 446.69,-1404 558.97,-1344.02 670.26,-1238.28 715.53,-1192.8"/>
<polygon fill="#8b4513" stroke="#8b4513" points="718.18,-1195.11 722.71,-1185.53 713.2,-1190.19 718.18,-1195.11"/>
</g>
<!-- libnsl -->
<g id="node28" class="node">
<title>libnsl</title>
<ellipse fill="green" stroke="green" cx="369.69" cy="-1386" rx="30.59" ry="18"/>
<text text-anchor="middle" x="369.69" y="-1382.3" font-family="Times,serif" font-size="14.00">libnsl</text>
</g>
<!-- python&#45;&gt;libnsl -->
<g id="edge43" class="edge">
<title>python&#45;&gt;libnsl</title>
<path fill="none" stroke="#8b4513" d="M304.3,-1442.15C316.2,-1432.12 332.08,-1418.73 345.21,-1407.65"/>
<polygon fill="#8b4513" stroke="#8b4513" points="347.58,-1410.23 352.97,-1401.11 343.07,-1404.88 347.58,-1410.23"/>
</g>
<!-- glibc -->
<g id="node6" class="node">
<title>glibc</title>
<ellipse fill="green" stroke="green" cx="410.69" cy="-162" rx="28.7" ry="18"/>
<text text-anchor="middle" x="410.69" y="-158.3" font-family="Times,serif" font-size="14.00">glibc</text>
</g>
<!-- expat&#45;&gt;glibc -->
<g id="edge5" class="edge">
<title>expat&#45;&gt;glibc</title>
<path fill="none" stroke="#8b4513" d="M84.51,-1295.96C82.76,-1269.31 79.69,-1216.15 79.69,-1171 79.69,-1171 79.69,-1171 79.69,-305 79.69,-179.12 284.39,-163.41 371.84,-162.44"/>
<polygon fill="#8b4513" stroke="#8b4513" points="371.92,-165.94 381.9,-162.39 371.88,-158.94 371.92,-165.94"/>
</g>
<!-- linux&#45;api&#45;headers&gt;=4.10 -->
<g id="node7" class="node">
<title>linux&#45;api&#45;headers&gt;=4.10</title>
<ellipse fill="green" stroke="green" cx="262.69" cy="-90" rx="98.28" ry="18"/>
<text text-anchor="middle" x="262.69" y="-86.3" font-family="Times,serif" font-size="14.00">linux&#45;api&#45;headers&gt;=4.10</text>
</g>
<!-- glibc&#45;&gt;linux&#45;api&#45;headers&gt;=4.10 -->
<g id="edge6" class="edge">
<title>glibc&#45;&gt;linux&#45;api&#45;headers&gt;=4.10</title>
<path fill="none" stroke="#8b4513" d="M388.54,-150.52C366.75,-140.22 332.92,-124.22 305.82,-111.4"/>
<polygon fill="#8b4513" stroke="#8b4513" points="307.08,-108.12 296.55,-107.01 304.09,-114.45 307.08,-108.12"/>
</g>
<!-- tzdata -->
<g id="node9" class="node">
<title>tzdata</title>
<ellipse fill="green" stroke="green" cx="410.69" cy="-90" rx="31.7" ry="18"/>
<text text-anchor="middle" x="410.69" y="-86.3" font-family="Times,serif" font-size="14.00">tzdata</text>
</g>
<!-- glibc&#45;&gt;tzdata -->
<g id="edge8" class="edge">
<title>glibc&#45;&gt;tzdata</title>
<path fill="none" stroke="#8b4513" d="M410.69,-143.7C410.69,-135.98 410.69,-126.71 410.69,-118.11"/>
<polygon fill="#8b4513" stroke="#8b4513" points="414.19,-118.1 410.69,-108.1 407.19,-118.1 414.19,-118.1"/>
</g>
<!-- filesystem -->
<g id="node10" class="node">
<title>filesystem</title>
<ellipse fill="green" stroke="green" cx="507.69" cy="-90" rx="46.59" ry="18"/>
<text text-anchor="middle" x="507.69" y="-86.3" font-family="Times,serif" font-size="14.00">filesystem</text>
</g>
<!-- glibc&#45;&gt;filesystem -->
<g id="edge9" class="edge">
<title>glibc&#45;&gt;filesystem</title>
<path fill="none" stroke="#8b4513" d="M428.94,-147.83C442.74,-137.88 461.98,-123.99 477.99,-112.44"/>
<polygon fill="#8b4513" stroke="#8b4513" points="480.43,-114.99 486.49,-106.3 476.33,-109.31 480.43,-114.99"/>
</g>
<!-- linux&#45;api&#45;headers -->
<g id="node8" class="node">
<title>linux&#45;api&#45;headers</title>
<ellipse fill="green" stroke="green" cx="262.69" cy="-18" rx="71.49" ry="18"/>
<text text-anchor="middle" x="262.69" y="-14.3" font-family="Times,serif" font-size="14.00">linux&#45;api&#45;headers</text>
</g>
<!-- linux&#45;api&#45;headers&gt;=4.10&#45;&gt;linux&#45;api&#45;headers -->
<g id="edge7" class="edge">
<title>linux&#45;api&#45;headers&gt;=4.10&#45;&gt;linux&#45;api&#45;headers</title>
<path fill="none" stroke="grey" d="M262.69,-71.7C262.69,-60.85 262.69,-46.92 262.69,-36.1"/>
</g>
<!-- iana&#45;etc -->
<g id="node11" class="node">
<title>iana&#45;etc</title>
<ellipse fill="green" stroke="green" cx="507.69" cy="-18" rx="38.19" ry="18"/>
<text text-anchor="middle" x="507.69" y="-14.3" font-family="Times,serif" font-size="14.00">iana&#45;etc</text>
</g>
<!-- filesystem&#45;&gt;iana&#45;etc -->
<g id="edge10" class="edge">
<title>filesystem&#45;&gt;iana&#45;etc</title>
<path fill="none" stroke="#8b4513" d="M507.69,-71.7C507.69,-63.98 507.69,-54.71 507.69,-46.11"/>
<polygon fill="#8b4513" stroke="#8b4513" points="511.19,-46.1 507.69,-36.1 504.19,-46.1 511.19,-46.1"/>
</g>
<!-- bzip2&#45;&gt;glibc -->
<g id="edge12" class="edge">
<title>bzip2&#45;&gt;glibc</title>
<path fill="none" stroke="#8b4513" d="M139.68,-791.96C141.14,-765.31 143.69,-712.14 143.69,-667 143.69,-667 143.69,-667 143.69,-305 143.69,-262.66 145.71,-243.75 177.69,-216 206.51,-190.99 314.22,-174.56 372.57,-167.29"/>
<polygon fill="#8b4513" stroke="#8b4513" points="373.01,-170.76 382.51,-166.08 372.16,-163.81 373.01,-170.76"/>
</g>
<!-- sh -->
<g id="node13" class="node">
<title>sh</title>
<ellipse fill="green" stroke="green" cx="413.69" cy="-738" rx="27" ry="18"/>
<text text-anchor="middle" x="413.69" y="-734.3" font-family="Times,serif" font-size="14.00">sh</text>
</g>
<!-- bzip2&#45;&gt;sh -->
<g id="edge13" class="edge">
<title>bzip2&#45;&gt;sh</title>
<path fill="none" stroke="#8b4513" d="M166.32,-801.97C216.74,-789.13 323.54,-761.95 378.86,-747.87"/>
<polygon fill="#8b4513" stroke="#8b4513" points="380.06,-751.17 388.88,-745.32 378.33,-744.39 380.06,-751.17"/>
</g>
<!-- bash -->
<g id="node14" class="node">
<title>bash</title>
<ellipse fill="green" stroke="green" cx="413.69" cy="-666" rx="27" ry="18"/>
<text text-anchor="middle" x="413.69" y="-662.3" font-family="Times,serif" font-size="14.00">bash</text>
</g>
<!-- sh&#45;&gt;bash -->
<g id="edge14" class="edge">
<title>sh&#45;&gt;bash</title>
<path fill="none" stroke="grey" d="M397.32,-723.5C392.15,-711.11 392.15,-692.84 397.34,-680.46"/>
</g>
<!-- sh&#45;&gt;bash -->
<g id="edge37" class="edge">
<title>sh&#45;&gt;bash</title>
<path fill="none" stroke="grey" d="M407.85,-720.41C406.65,-709.41 406.64,-695.03 407.81,-683.96"/>
</g>
<!-- sh&#45;&gt;bash -->
<g id="edge48" class="edge">
<title>sh&#45;&gt;bash</title>
<path fill="none" stroke="grey" d="M419.53,-720.41C420.73,-709.41 420.75,-695.03 419.57,-683.96"/>
</g>
<!-- sh&#45;&gt;bash -->
<g id="edge57" class="edge">
<title>sh&#45;&gt;bash</title>
<path fill="none" stroke="grey" d="M430.07,-723.5C435.24,-711.11 435.24,-692.84 430.05,-680.46"/>
</g>
<!-- bash&#45;&gt;glibc -->
<g id="edge25" class="edge">
<title>bash&#45;&gt;glibc</title>
<path fill="none" stroke="#8b4513" d="M438.79,-659.08C490.84,-645.14 605.69,-605.09 605.69,-523 605.69,-523 605.69,-523 605.69,-305 605.69,-227.53 503.87,-187.87 447.38,-171.83"/>
<polygon fill="#8b4513" stroke="#8b4513" points="447.97,-168.37 437.4,-169.11 446.13,-175.12 447.97,-168.37"/>
</g>
<!-- readline&gt;=7.0 -->
<g id="node15" class="node">
<title>readline&gt;=7.0</title>
<ellipse fill="green" stroke="green" cx="437.69" cy="-594" rx="61.19" ry="18"/>
<text text-anchor="middle" x="437.69" y="-590.3" font-family="Times,serif" font-size="14.00">readline&gt;=7.0</text>
</g>
<!-- bash&#45;&gt;readline&gt;=7.0 -->
<g id="edge15" class="edge">
<title>bash&#45;&gt;readline&gt;=7.0</title>
<path fill="none" stroke="#8b4513" d="M419.5,-648.05C422.21,-640.18 425.48,-630.62 428.51,-621.79"/>
<polygon fill="#8b4513" stroke="#8b4513" points="431.84,-622.87 431.77,-612.28 425.22,-620.6 431.84,-622.87"/>
</g>
<!-- ncurses -->
<g id="node17" class="node">
<title>ncurses</title>
<ellipse fill="green" stroke="green" cx="343.69" cy="-378" rx="37.09" ry="18"/>
<text text-anchor="middle" x="343.69" y="-374.3" font-family="Times,serif" font-size="14.00">ncurses</text>
</g>
<!-- bash&#45;&gt;ncurses -->
<g id="edge26" class="edge">
<title>bash&#45;&gt;ncurses</title>
<path fill="none" stroke="#8b4513" d="M397.95,-651.3C387.66,-641.42 374.86,-627.21 367.69,-612 335.45,-543.51 337.41,-451.43 340.88,-406.28"/>
<polygon fill="#8b4513" stroke="#8b4513" points="344.38,-406.37 341.75,-396.1 337.41,-405.77 344.38,-406.37"/>
</g>
<!-- readline -->
<g id="node16" class="node">
<title>readline</title>
<ellipse fill="green" stroke="green" cx="443.69" cy="-522" rx="38.99" ry="18"/>
<text text-anchor="middle" x="443.69" y="-518.3" font-family="Times,serif" font-size="14.00">readline</text>
</g>
<!-- readline&gt;=7.0&#45;&gt;readline -->
<g id="edge16" class="edge">
<title>readline&gt;=7.0&#45;&gt;readline</title>
<path fill="none" stroke="grey" d="M439.18,-575.7C440.11,-564.85 441.3,-550.92 442.23,-540.1"/>
</g>
<!-- readline&#45;&gt;glibc -->
<g id="edge17" class="edge">
<title>readline&#45;&gt;glibc</title>
<path fill="none" stroke="#8b4513" d="M477.08,-512.49C500.62,-504.76 530.99,-490.96 548.69,-468 573.39,-435.97 567.69,-419.45 567.69,-379 567.69,-379 567.69,-379 567.69,-305 567.69,-238.95 490.32,-195.66 444.21,-175.72"/>
<polygon fill="#8b4513" stroke="#8b4513" points="445.46,-172.45 434.88,-171.82 442.76,-178.9 445.46,-172.45"/>
</g>
<!-- readline&#45;&gt;ncurses -->
<g id="edge18" class="edge">
<title>readline&#45;&gt;ncurses</title>
<path fill="none" stroke="#8b4513" d="M415.5,-509.41C397.67,-500.63 375.62,-486.85 362.69,-468 350.24,-449.83 345.72,-425.06 344.18,-406.26"/>
<polygon fill="#8b4513" stroke="#8b4513" points="347.67,-406.02 343.59,-396.24 340.68,-406.43 347.67,-406.02"/>
</g>
<!-- libncursesw.so=6&#45;64 -->
<g id="node20" class="node">
<title>libncursesw.so=6&#45;64</title>
<ellipse fill="green" stroke="green" cx="455.69" cy="-450" rx="83.69" ry="18"/>
<text text-anchor="middle" x="455.69" y="-446.3" font-family="Times,serif" font-size="14.00">libncursesw.so=6&#45;64</text>
</g>
<!-- readline&#45;&gt;libncursesw.so=6&#45;64 -->
<g id="edge23" class="edge">
<title>readline&#45;&gt;libncursesw.so=6&#45;64</title>
<path fill="none" stroke="#8b4513" d="M446.66,-503.7C447.98,-495.98 449.57,-486.71 451.05,-478.11"/>
<polygon fill="#8b4513" stroke="#8b4513" points="454.52,-478.55 452.76,-468.1 447.62,-477.37 454.52,-478.55"/>
</g>
<!-- ncurses&#45;&gt;glibc -->
<g id="edge19" class="edge">
<title>ncurses&#45;&gt;glibc</title>
<path fill="none" stroke="#8b4513" d="M355.09,-360.47C361.63,-350.33 369.55,-336.87 374.69,-324 392.76,-278.84 402.7,-222.76 407.34,-190.11"/>
<polygon fill="#8b4513" stroke="#8b4513" points="410.84,-190.36 408.72,-179.98 403.9,-189.42 410.84,-190.36"/>
</g>
<!-- gcc&#45;libs -->
<g id="node18" class="node">
<title>gcc&#45;libs</title>
<ellipse fill="green" stroke="green" cx="327.69" cy="-306" rx="38.19" ry="18"/>
<text text-anchor="middle" x="327.69" y="-302.3" font-family="Times,serif" font-size="14.00">gcc&#45;libs</text>
</g>
<!-- ncurses&#45;&gt;gcc&#45;libs -->
<g id="edge20" class="edge">
<title>ncurses&#45;&gt;gcc&#45;libs</title>
<path fill="none" stroke="#8b4513" d="M339.82,-360.05C338.04,-352.26 335.88,-342.82 333.88,-334.08"/>
<polygon fill="#8b4513" stroke="#8b4513" points="337.28,-333.24 331.64,-324.28 330.46,-334.8 337.28,-333.24"/>
</g>
<!-- glibc&gt;=2.27 -->
<g id="node19" class="node">
<title>glibc&gt;=2.27</title>
<ellipse fill="green" stroke="green" cx="327.69" cy="-234" rx="54.69" ry="18"/>
<text text-anchor="middle" x="327.69" y="-230.3" font-family="Times,serif" font-size="14.00">glibc&gt;=2.27</text>
</g>
<!-- gcc&#45;libs&#45;&gt;glibc&gt;=2.27 -->
<g id="edge21" class="edge">
<title>gcc&#45;libs&#45;&gt;glibc&gt;=2.27</title>
<path fill="none" stroke="#8b4513" d="M327.69,-287.7C327.69,-279.98 327.69,-270.71 327.69,-262.11"/>
<polygon fill="#8b4513" stroke="#8b4513" points="331.19,-262.1 327.69,-252.1 324.19,-262.1 331.19,-262.1"/>
</g>
<!-- glibc&gt;=2.27&#45;&gt;glibc -->
<g id="edge22" class="edge">
<title>glibc&gt;=2.27&#45;&gt;glibc</title>
<path fill="none" stroke="grey" d="M346.94,-216.76C361.31,-204.65 380.73,-188.27 394.35,-176.79"/>
</g>
<!-- libncursesw.so=6&#45;64&#45;&gt;ncurses -->
<g id="edge24" class="edge">
<title>libncursesw.so=6&#45;64&#45;&gt;ncurses</title>
<path fill="none" stroke="grey" d="M429.72,-432.76C410.33,-420.65 384.13,-404.27 365.76,-392.79"/>
</g>
<!-- gdbm&#45;&gt;glibc -->
<g id="edge28" class="edge">
<title>gdbm&#45;&gt;glibc</title>
<path fill="none" stroke="#8b4513" d="M277.84,-792.89C260.35,-767.49 229.69,-715.98 229.69,-667 229.69,-667 229.69,-667 229.69,-305 229.69,-262.66 233.47,-245.66 263.69,-216 293.22,-187.02 339.73,-173.76 372.52,-167.78"/>
<polygon fill="#8b4513" stroke="#8b4513" points="373.36,-171.18 382.64,-166.08 372.2,-164.28 373.36,-171.18"/>
</g>
<!-- gdbm&#45;&gt;sh -->
<g id="edge29" class="edge">
<title>gdbm&#45;&gt;sh</title>
<path fill="none" stroke="#8b4513" d="M311.29,-796.81C331.66,-785.31 362.34,-767.99 384.8,-755.31"/>
<polygon fill="#8b4513" stroke="#8b4513" points="386.59,-758.32 393.57,-750.36 383.14,-752.23 386.59,-758.32"/>
</g>
<!-- perl -->
<g id="node23" class="node">
<title>perl</title>
<ellipse fill="green" stroke="green" cx="310.69" cy="-954" rx="27" ry="18"/>
<text text-anchor="middle" x="310.69" y="-950.3" font-family="Times,serif" font-size="14.00">perl</text>
</g>
<!-- openssl&#45;&gt;perl -->
<g id="edge31" class="edge">
<title>openssl&#45;&gt;perl</title>
<path fill="none" stroke="#8b4513" d="M303.17,-1007.7C304.27,-999.98 305.59,-990.71 306.82,-982.11"/>
<polygon fill="#8b4513" stroke="#8b4513" points="310.3,-982.5 308.25,-972.1 303.37,-981.51 310.3,-982.5"/>
</g>
<!-- perl&#45;&gt;glibc -->
<g id="edge38" class="edge">
<title>perl&#45;&gt;glibc</title>
<path fill="none" stroke="#8b4513" d="M292.81,-940.33C280.38,-930.64 264.37,-916.2 254.69,-900 199.68,-807.91 191.69,-774.27 191.69,-667 191.69,-667 191.69,-667 191.69,-305 191.69,-261.45 199.79,-244.53 232.69,-216 272.17,-181.78 332.97,-169.65 372.3,-165.35"/>
<polygon fill="#8b4513" stroke="#8b4513" points="372.69,-168.83 382.3,-164.37 372.01,-161.86 372.69,-168.83"/>
</g>
<!-- gdbm&gt;=1.17 -->
<g id="node24" class="node">
<title>gdbm&gt;=1.17</title>
<ellipse fill="green" stroke="green" cx="321.69" cy="-882" rx="57.69" ry="18"/>
<text text-anchor="middle" x="321.69" y="-878.3" font-family="Times,serif" font-size="14.00">gdbm&gt;=1.17</text>
</g>
<!-- perl&#45;&gt;gdbm&gt;=1.17 -->
<g id="edge32" class="edge">
<title>perl&#45;&gt;gdbm&gt;=1.17</title>
<path fill="none" stroke="#8b4513" d="M313.36,-936.05C314.57,-928.35 316.03,-919.03 317.39,-910.36"/>
<polygon fill="#8b4513" stroke="#8b4513" points="320.88,-910.7 318.98,-900.28 313.97,-909.61 320.88,-910.7"/>
</g>
<!-- db -->
<g id="node25" class="node">
<title>db</title>
<ellipse fill="green" stroke="green" cx="407.69" cy="-810" rx="27" ry="18"/>
<text text-anchor="middle" x="407.69" y="-806.3" font-family="Times,serif" font-size="14.00">db</text>
</g>
<!-- perl&#45;&gt;db -->
<g id="edge34" class="edge">
<title>perl&#45;&gt;db</title>
<path fill="none" stroke="#8b4513" d="M333.05,-943.57C350.89,-934.87 375.08,-920.24 388.69,-900 400.99,-881.72 405.53,-856.96 407.11,-838.19"/>
<polygon fill="#8b4513" stroke="#8b4513" points="410.61,-838.39 407.73,-828.2 403.62,-837.96 410.61,-838.39"/>
</g>
<!-- gdbm&gt;=1.17&#45;&gt;gdbm -->
<g id="edge33" class="edge">
<title>gdbm&gt;=1.17&#45;&gt;gdbm</title>
<path fill="none" stroke="grey" d="M313.95,-864.05C308.92,-853.05 302.39,-838.76 297.37,-827.79"/>
</g>
<!-- db&#45;&gt;sh -->
<g id="edge36" class="edge">
<title>db&#45;&gt;sh</title>
<path fill="none" stroke="#8b4513" d="M409.18,-791.7C409.84,-783.98 410.63,-774.71 411.37,-766.11"/>
<polygon fill="#8b4513" stroke="#8b4513" points="414.86,-766.37 412.23,-756.1 407.89,-765.77 414.86,-766.37"/>
</g>
<!-- db&#45;&gt;gcc&#45;libs -->
<g id="edge35" class="edge">
<title>db&#45;&gt;gcc&#45;libs</title>
<path fill="none" stroke="#8b4513" d="M385.82,-799.28C346.44,-780.11 267.69,-733.47 267.69,-667 267.69,-667 267.69,-667 267.69,-449 267.69,-405.24 292.17,-359.45 309.86,-332.07"/>
<polygon fill="#8b4513" stroke="#8b4513" points="312.92,-333.79 315.55,-323.53 307.1,-329.91 312.92,-333.79"/>
</g>
<!-- libffi&#45;&gt;glibc -->
<g id="edge40" class="edge">
<title>libffi&#45;&gt;glibc</title>
<path fill="none" stroke="#8b4513" d="M610.65,-1227.02C635.77,-1203.37 681.69,-1152.78 681.69,-1099 681.69,-1099 681.69,-1099 681.69,-305 681.69,-201.26 523.95,-173.16 449.16,-165.67"/>
<polygon fill="#8b4513" stroke="#8b4513" points="449.46,-162.18 439.18,-164.74 448.82,-169.15 449.46,-162.18"/>
</g>
<!-- zlib&#45;&gt;glibc -->
<g id="edge42" class="edge">
<title>zlib&#45;&gt;glibc</title>
<path fill="none" stroke="#8b4513" d="M735.11,-1151.97C732.78,-1125.33 728.69,-1072.19 728.69,-1027 728.69,-1027 728.69,-1027 728.69,-305 728.69,-262.81 727.97,-243.17 695.69,-216 658.89,-185.01 518.1,-170.75 449.17,-165.51"/>
<polygon fill="#8b4513" stroke="#8b4513" points="449.38,-162.02 439.15,-164.78 448.87,-169 449.38,-162.02"/>
</g>
<!-- libtirpc -->
<g id="node29" class="node">
<title>libtirpc</title>
<ellipse fill="green" stroke="green" cx="386.69" cy="-1314" rx="36.29" ry="18"/>
<text text-anchor="middle" x="386.69" y="-1310.3" font-family="Times,serif" font-size="14.00">libtirpc</text>
</g>
<!-- libnsl&#45;&gt;libtirpc -->
<g id="edge44" class="edge">
<title>libnsl&#45;&gt;libtirpc</title>
<path fill="none" stroke="#8b4513" d="M373.81,-1368.05C375.7,-1360.26 377.99,-1350.82 380.12,-1342.08"/>
<polygon fill="#8b4513" stroke="#8b4513" points="383.54,-1342.82 382.5,-1332.28 376.74,-1341.17 383.54,-1342.82"/>
</g>
<!-- krb5 -->
<g id="node30" class="node">
<title>krb5</title>
<ellipse fill="green" stroke="green" cx="410.69" cy="-1242" rx="27.1" ry="18"/>
<text text-anchor="middle" x="410.69" y="-1238.3" font-family="Times,serif" font-size="14.00">krb5</text>
</g>
<!-- libtirpc&#45;&gt;krb5 -->
<g id="edge45" class="edge">
<title>libtirpc&#45;&gt;krb5</title>
<path fill="none" stroke="#8b4513" d="M392.5,-1296.05C395.25,-1288.06 398.58,-1278.33 401.64,-1269.4"/>
<polygon fill="#8b4513" stroke="#8b4513" points="405.01,-1270.38 404.94,-1259.79 398.38,-1268.11 405.01,-1270.38"/>
</g>
<!-- e2fsprogs -->
<g id="node31" class="node">
<title>e2fsprogs</title>
<ellipse fill="green" stroke="green" cx="443.69" cy="-1098" rx="44.69" ry="18"/>
<text text-anchor="middle" x="443.69" y="-1094.3" font-family="Times,serif" font-size="14.00">e2fsprogs</text>
</g>
<!-- krb5&#45;&gt;e2fsprogs -->
<g id="edge46" class="edge">
<title>krb5&#45;&gt;e2fsprogs</title>
<path fill="none" stroke="#8b4513" d="M415.44,-1223.87C418.26,-1213.51 421.82,-1200.03 424.69,-1188 429.62,-1167.38 434.6,-1143.93 438.22,-1126.28"/>
<polygon fill="#8b4513" stroke="#8b4513" points="441.73,-1126.61 440.29,-1116.12 434.87,-1125.22 441.73,-1126.61"/>
</g>
<!-- libldap -->
<g id="node33" class="node">
<title>libldap</title>
<ellipse fill="green" stroke="green" cx="380.69" cy="-1170" rx="35.19" ry="18"/>
<text text-anchor="middle" x="380.69" y="-1166.3" font-family="Times,serif" font-size="14.00">libldap</text>
</g>
<!-- krb5&#45;&gt;libldap -->
<g id="edge50" class="edge">
<title>krb5&#45;&gt;libldap</title>
<path fill="none" stroke="#8b4513" d="M403.58,-1224.41C400.12,-1216.34 395.88,-1206.43 391.99,-1197.35"/>
<polygon fill="#8b4513" stroke="#8b4513" points="395.12,-1195.77 387.96,-1187.96 388.68,-1198.53 395.12,-1195.77"/>
</g>
<!-- keyutils -->
<g id="node35" class="node">
<title>keyutils</title>
<ellipse fill="green" stroke="green" cx="555.69" cy="-810" rx="38.19" ry="18"/>
<text text-anchor="middle" x="555.69" y="-806.3" font-family="Times,serif" font-size="14.00">keyutils</text>
</g>
<!-- krb5&#45;&gt;keyutils -->
<g id="edge54" class="edge">
<title>krb5&#45;&gt;keyutils</title>
<path fill="none" stroke="#8b4513" d="M432.03,-1230.42C469.15,-1210.33 541.69,-1162.9 541.69,-1099 541.69,-1099 541.69,-1099 541.69,-953 541.69,-912.8 547.32,-866.51 551.44,-838"/>
<polygon fill="#8b4513" stroke="#8b4513" points="554.92,-838.4 552.93,-828 547.99,-837.37 554.92,-838.4"/>
</g>
<!-- e2fsprogs&#45;&gt;sh -->
<g id="edge47" class="edge">
<title>e2fsprogs&#45;&gt;sh</title>
<path fill="none" stroke="#8b4513" d="M453.62,-1080.32C459.32,-1070.12 466.21,-1056.65 470.69,-1044 484.21,-1005.88 489.69,-995.45 489.69,-955 489.69,-955 489.69,-955 489.69,-881 489.69,-834.12 457.1,-787.74 434.6,-761.31"/>
<polygon fill="#8b4513" stroke="#8b4513" points="437.21,-758.98 427.99,-753.77 431.95,-763.6 437.21,-758.98"/>
</g>
<!-- libutil&#45;linux -->
<g id="node32" class="node">
<title>libutil&#45;linux</title>
<ellipse fill="green" stroke="green" cx="408.69" cy="-1026" rx="52.79" ry="18"/>
<text text-anchor="middle" x="408.69" y="-1022.3" font-family="Times,serif" font-size="14.00">libutil&#45;linux</text>
</g>
<!-- e2fsprogs&#45;&gt;libutil&#45;linux -->
<g id="edge49" class="edge">
<title>e2fsprogs&#45;&gt;libutil&#45;linux</title>
<path fill="none" stroke="#8b4513" d="M435.22,-1080.05C431.14,-1071.89 426.15,-1061.91 421.61,-1052.82"/>
<polygon fill="#8b4513" stroke="#8b4513" points="424.69,-1051.17 417.09,-1043.79 418.43,-1054.3 424.69,-1051.17"/>
</g>
<!-- libldap&#45;&gt;e2fsprogs -->
<g id="edge53" class="edge">
<title>libldap&#45;&gt;e2fsprogs</title>
<path fill="none" stroke="#8b4513" d="M394.68,-1153.46C402.69,-1144.57 412.91,-1133.21 421.95,-1123.16"/>
<polygon fill="#8b4513" stroke="#8b4513" points="424.79,-1125.24 428.87,-1115.47 419.58,-1120.56 424.79,-1125.24"/>
</g>
<!-- libsasl -->
<g id="node34" class="node">
<title>libsasl</title>
<ellipse fill="green" stroke="green" cx="347.69" cy="-1098" rx="33.29" ry="18"/>
<text text-anchor="middle" x="347.69" y="-1094.3" font-family="Times,serif" font-size="14.00">libsasl</text>
</g>
<!-- libldap&#45;&gt;libsasl -->
<g id="edge51" class="edge">
<title>libldap&#45;&gt;libsasl</title>
<path fill="none" stroke="#8b4513" d="M372.87,-1152.41C369.03,-1144.25 364.3,-1134.22 359.98,-1125.07"/>
<polygon fill="#8b4513" stroke="#8b4513" points="363.12,-1123.51 355.69,-1115.96 356.79,-1126.49 363.12,-1123.51"/>
</g>
<!-- libsasl&#45;&gt;openssl -->
<g id="edge52" class="edge">
<title>libsasl&#45;&gt;openssl</title>
<path fill="none" stroke="#8b4513" d="M336.79,-1080.76C331.06,-1072.23 323.91,-1061.58 317.49,-1052.02"/>
<polygon fill="#8b4513" stroke="#8b4513" points="320.34,-1049.98 311.86,-1043.63 314.53,-1053.89 320.34,-1049.98"/>
</g>
<!-- keyutils&#45;&gt;glibc -->
<g id="edge55" class="edge">
<title>keyutils&#45;&gt;glibc</title>
<path fill="none" stroke="#8b4513" d="M573.08,-793.89C598.73,-769.83 643.69,-720.08 643.69,-667 643.69,-667 643.69,-667 643.69,-305 643.69,-214.62 514.27,-180.08 448.34,-168.35"/>
<polygon fill="#8b4513" stroke="#8b4513" points="448.78,-164.88 438.34,-166.66 447.61,-171.78 448.78,-164.88"/>
</g>
<!-- keyutils&#45;&gt;sh -->
<g id="edge56" class="edge">
<title>keyutils&#45;&gt;sh</title>
<path fill="none" stroke="#8b4513" d="M530.31,-796.49C506.12,-784.56 469.67,-766.59 443.98,-753.93"/>
<polygon fill="#8b4513" stroke="#8b4513" points="445.22,-750.64 434.7,-749.36 442.12,-756.92 445.22,-750.64"/>
</g>
<!-- python&#45;pyparsing -->
<g id="node37" class="node">
<title>python&#45;pyparsing</title>
<ellipse fill="green" stroke="green" cx="217.69" cy="-1530" rx="72.59" ry="18"/>
<text text-anchor="middle" x="217.69" y="-1526.3" font-family="Times,serif" font-size="14.00">python&#45;pyparsing</text>
</g>
<!-- python&#45;packaging&#45;&gt;python&#45;pyparsing -->
<g id="edge59" class="edge">
<title>python&#45;packaging&#45;&gt;python&#45;pyparsing</title>
<path fill="none" stroke="#8b4513" d="M225.98,-1583.7C224.76,-1575.98 223.31,-1566.71 221.95,-1558.11"/>
<polygon fill="#8b4513" stroke="#8b4513" points="225.39,-1557.44 220.38,-1548.1 218.48,-1558.53 225.39,-1557.44"/>
</g>
<!-- python&#45;six -->
<g id="node38" class="node">
<title>python&#45;six</title>
<ellipse fill="green" stroke="green" cx="356.69" cy="-1530" rx="48.19" ry="18"/>
<text text-anchor="middle" x="356.69" y="-1526.3" font-family="Times,serif" font-size="14.00">python&#45;six</text>
</g>
<!-- python&#45;packaging&#45;&gt;python&#45;six -->
<g id="edge61" class="edge">
<title>python&#45;packaging&#45;&gt;python&#45;six</title>
<path fill="none" stroke="#8b4513" d="M257.42,-1585.29C276.47,-1574.87 301.58,-1561.14 321.78,-1550.09"/>
<polygon fill="#8b4513" stroke="#8b4513" points="323.58,-1553.1 330.67,-1545.23 320.22,-1546.96 323.58,-1553.1"/>
</g>
<!-- python&#45;pyparsing&#45;&gt;python -->
<g id="edge60" class="edge">
<title>python&#45;pyparsing&#45;&gt;python</title>
<path fill="none" stroke="#8b4513" d="M234.05,-1512.41C243.07,-1503.26 254.4,-1491.76 264.24,-1481.78"/>
<polygon fill="#8b4513" stroke="#8b4513" points="266.88,-1484.09 271.41,-1474.51 261.89,-1479.18 266.88,-1484.09"/>
</g>
<!-- python&#45;six&#45;&gt;python -->
<g id="edge62" class="edge">
<title>python&#45;six&#45;&gt;python</title>
<path fill="none" stroke="#8b4513" d="M340.46,-1512.76C331.32,-1503.62 319.75,-1492.06 309.69,-1482"/>
<polygon fill="#8b4513" stroke="#8b4513" points="311.91,-1479.26 302.36,-1474.67 306.96,-1484.21 311.91,-1479.26"/>
</g>
<!-- python&#45;ordered&#45;set&#45;&gt;python -->
<g id="edge64" class="edge">
<title>python&#45;ordered&#45;set&#45;&gt;python</title>
<path fill="none" stroke="#8b4513" d="M424.25,-1583.81C427.23,-1564.45 428.88,-1532.96 413.69,-1512 394.41,-1485.38 359.16,-1472.06 330.69,-1465.44"/>
<polygon fill="#8b4513" stroke="#8b4513" points="331.05,-1461.94 320.54,-1463.29 329.6,-1468.79 331.05,-1461.94"/>
</g>
</g>
</svg>
