<?xml version="1.0" encoding="UTF-8" standalone="no"?>
<!DOCTYPE svg PUBLIC "-//W3C//DTD SVG 1.1//EN"
 "http://www.w3.org/Graphics/SVG/1.1/DTD/svg11.dtd">
<!-- Generated by graphviz version 2.44.0 (0)
 -->
<!-- Title: G Pages: 1 -->
<svg width="727pt" height="1844pt"
 viewBox="0.00 0.00 726.71 1844.00" xmlns="http://www.w3.org/2000/svg" xmlns:xlink="http://www.w3.org/1999/xlink">
<g id="graph0" class="graph" transform="scale(1 1) rotate(0) translate(4 1840)">
<title>G</title>
<polygon fill="white" stroke="transparent" points="-4,4 -4,-1840 722.71,-1840 722.71,4 -4,4"/>
<!-- START -->
<g id="node1" class="node">
<title>START</title>
<ellipse fill="red" stroke="red" cx="68.71" cy="-1818" rx="38.19" ry="18"/>
<text text-anchor="middle" x="68.71" y="-1814.3" font-family="Times,serif" font-size="14.00">START</text>
</g>
<!-- python&#45;distro -->
<g id="node2" class="node">
<title>python&#45;distro</title>
<ellipse fill="green" stroke="green" cx="68.71" cy="-1746" rx="57.69" ry="18"/>
<text text-anchor="middle" x="68.71" y="-1742.3" font-family="Times,serif" font-size="14.00">python&#45;distro</text>
</g>
<!-- START&#45;&gt;python&#45;distro -->
<g id="edge1" class="edge">
<title>START&#45;&gt;python&#45;distro</title>
<path fill="none" stroke="black" d="M68.71,-1799.7C68.71,-1791.98 68.71,-1782.71 68.71,-1774.11"/>
<polygon fill="black" stroke="black" points="72.21,-1774.1 68.71,-1764.1 65.21,-1774.1 72.21,-1774.1"/>
</g>
<!-- python -->
<g id="node3" class="node">
<title>python</title>
<ellipse fill="green" stroke="green" cx="241.71" cy="-1458" rx="35.19" ry="18"/>
<text text-anchor="middle" x="241.71" y="-1454.3" font-family="Times,serif" font-size="14.00">python</text>
</g>
<!-- python&#45;distro&#45;&gt;python -->
<g id="edge2" class="edge">
<title>python&#45;distro&#45;&gt;python</title>
<path fill="none" stroke="#8b4513" d="M57.12,-1728.25C30,-1686.83 -31.46,-1578.16 20.71,-1512 42.26,-1484.67 139.05,-1469.84 197.15,-1463.26"/>
<polygon fill="#8b4513" stroke="#8b4513" points="197.62,-1466.73 207.18,-1462.16 196.86,-1459.77 197.62,-1466.73"/>
</g>
<!-- python&#45;setuptools -->
<g id="node35" class="node">
<title>python&#45;setuptools</title>
<ellipse fill="green" stroke="green" cx="219.71" cy="-1674" rx="73.39" ry="18"/>
<text text-anchor="middle" x="219.71" y="-1670.3" font-family="Times,serif" font-size="14.00">python&#45;setuptools</text>
</g>
<!-- python&#45;distro&#45;&gt;python&#45;setuptools -->
<g id="edge57" class="edge">
<title>python&#45;distro&#45;&gt;python&#45;setuptools</title>
<path fill="none" stroke="#8b4513" d="M99.63,-1730.67C122.2,-1720.2 153.05,-1705.9 177.83,-1694.41"/>
<polygon fill="#8b4513" stroke="#8b4513" points="179.4,-1697.54 187,-1690.16 176.46,-1691.19 179.4,-1697.54"/>
</g>
<!-- expat -->
<g id="node4" class="node">
<title>expat</title>
<ellipse fill="green" stroke="green" cx="45.71" cy="-1314" rx="29.8" ry="18"/>
<text text-anchor="middle" x="45.71" y="-1310.3" font-family="Times,serif" font-size="14.00">expat</text>
</g>
<!-- python&#45;&gt;expat -->
<g id="edge3" class="edge">
<title>python&#45;&gt;expat</title>
<path fill="none" stroke="#8b4513" d="M208.49,-1451.83C176.5,-1445.38 128.3,-1431.65 95.71,-1404 76.06,-1387.33 62.6,-1360.87 54.64,-1341.13"/>
<polygon fill="#8b4513" stroke="#8b4513" points="57.9,-1339.88 51.07,-1331.78 51.36,-1342.38 57.9,-1339.88"/>
</g>
<!-- bzip2 -->
<g id="node11" class="node">
<title>bzip2</title>
<ellipse fill="green" stroke="green" cx="93.71" cy="-810" rx="30.59" ry="18"/>
<text text-anchor="middle" x="93.71" y="-806.3" font-family="Times,serif" font-size="14.00">bzip2</text>
</g>
<!-- python&#45;&gt;bzip2 -->
<g id="edge10" class="edge">
<title>python&#45;&gt;bzip2</title>
<path fill="none" stroke="#8b4513" d="M217.19,-1444.83C179.02,-1423.95 109.71,-1377.44 109.71,-1315 109.71,-1315 109.71,-1315 109.71,-953 109.71,-912.74 103.28,-866.47 98.57,-837.98"/>
<polygon fill="#8b4513" stroke="#8b4513" points="102,-837.25 96.87,-827.98 95.1,-838.43 102,-837.25"/>
</g>
<!-- gdbm -->
<g id="node20" class="node">
<title>gdbm</title>
<ellipse fill="green" stroke="green" cx="244.71" cy="-810" rx="31.4" ry="18"/>
<text text-anchor="middle" x="244.71" y="-806.3" font-family="Times,serif" font-size="14.00">gdbm</text>
</g>
<!-- python&#45;&gt;gdbm -->
<g id="edge26" class="edge">
<title>python&#45;&gt;gdbm</title>
<path fill="none" stroke="#8b4513" d="M231.63,-1440.64C216.77,-1414.9 190.71,-1362.94 190.71,-1315 190.71,-1315 190.71,-1315 190.71,-953 190.71,-912.55 194.07,-901.3 209.71,-864 213.93,-853.93 220.12,-843.73 226.13,-834.99"/>
<polygon fill="#8b4513" stroke="#8b4513" points="229.01,-836.98 231.99,-826.81 223.32,-832.9 229.01,-836.98"/>
</g>
<!-- openssl -->
<g id="node21" class="node">
<title>openssl</title>
<ellipse fill="green" stroke="green" cx="255.71" cy="-1026" rx="37.09" ry="18"/>
<text text-anchor="middle" x="255.71" y="-1022.3" font-family="Times,serif" font-size="14.00">openssl</text>
</g>
<!-- python&#45;&gt;openssl -->
<g id="edge29" class="edge">
<title>python&#45;&gt;openssl</title>
<path fill="none" stroke="#8b4513" d="M241.71,-1439.95C241.71,-1413.29 241.71,-1360.11 241.71,-1315 241.71,-1315 241.71,-1315 241.71,-1169 241.71,-1128.8 247.33,-1082.51 251.45,-1054"/>
<polygon fill="#8b4513" stroke="#8b4513" points="254.93,-1054.4 252.94,-1044 248.01,-1053.37 254.93,-1054.4"/>
</g>
<!-- libffi -->
<g id="node25" class="node">
<title>libffi</title>
<ellipse fill="green" stroke="green" cx="549.71" cy="-1242" rx="27.9" ry="18"/>
<text text-anchor="middle" x="549.71" y="-1238.3" font-family="Times,serif" font-size="14.00">libffi</text>
</g>
<!-- python&#45;&gt;libffi -->
<g id="edge38" class="edge">
<title>python&#45;&gt;libffi</title>
<path fill="none" stroke="#8b4513" d="M270.29,-1447.54C296.05,-1438.37 334.4,-1423.07 364.71,-1404 430.11,-1362.86 495.74,-1299.16 528.42,-1265.54"/>
<polygon fill="#8b4513" stroke="#8b4513" points="531.21,-1267.69 535.63,-1258.06 526.17,-1262.83 531.21,-1267.69"/>
</g>
<!-- zlib -->
<g id="node26" class="node">
<title>zlib</title>
<ellipse fill="green" stroke="green" cx="691.71" cy="-1170" rx="27" ry="18"/>
<text text-anchor="middle" x="691.71" y="-1166.3" font-family="Times,serif" font-size="14.00">zlib</text>
</g>
<!-- python&#45;&gt;zlib -->
<g id="edge40" class="edge">
<title>python&#45;&gt;zlib</title>
<path fill="none" stroke="#8b4513" d="M273.27,-1450.05C306.71,-1441.92 360.41,-1426.62 402.71,-1404 514.73,-1344.1 625.57,-1238.32 670.64,-1192.82"/>
<polygon fill="#8b4513" stroke="#8b4513" points="673.28,-1195.13 677.79,-1185.54 668.29,-1190.22 673.28,-1195.13"/>
</g>
<!-- libnsl -->
<g id="node27" class="node">
<title>libnsl</title>
<ellipse fill="green" stroke="green" cx="324.71" cy="-1386" rx="30.59" ry="18"/>
<text text-anchor="middle" x="324.71" y="-1382.3" font-family="Times,serif" font-size="14.00">libnsl</text>
</g>
<!-- python&#45;&gt;libnsl -->
<g id="edge42" class="edge">
<title>python&#45;&gt;libnsl</title>
<path fill="none" stroke="#8b4513" d="M259.31,-1442.15C271.21,-1432.12 287.09,-1418.73 300.22,-1407.65"/>
<polygon fill="#8b4513" stroke="#8b4513" points="302.59,-1410.23 307.98,-1401.11 298.08,-1404.88 302.59,-1410.23"/>
</g>
<!-- glibc -->
<g id="node5" class="node">
<title>glibc</title>
<ellipse fill="green" stroke="green" cx="365.71" cy="-162" rx="28.7" ry="18"/>
<text text-anchor="middle" x="365.71" y="-158.3" font-family="Times,serif" font-size="14.00">glibc</text>
</g>
<!-- expat&#45;&gt;glibc -->
<g id="edge4" class="edge">
<title>expat&#45;&gt;glibc</title>
<path fill="none" stroke="#8b4513" d="M43.54,-1295.98C40.33,-1269.37 34.71,-1216.25 34.71,-1171 34.71,-1171 34.71,-1171 34.71,-305 34.71,-179.12 239.4,-163.41 326.85,-162.44"/>
<polygon fill="#8b4513" stroke="#8b4513" points="326.93,-165.94 336.91,-162.39 326.9,-158.94 326.93,-165.94"/>
</g>
<!-- linux&#45;api&#45;headers&gt;=4.10 -->
<g id="node6" class="node">
<title>linux&#45;api&#45;headers&gt;=4.10</title>
<ellipse fill="green" stroke="green" cx="217.71" cy="-90" rx="98.28" ry="18"/>
<text text-anchor="middle" x="217.71" y="-86.3" font-family="Times,serif" font-size="14.00">linux&#45;api&#45;headers&gt;=4.10</text>
</g>
<!-- glibc&#45;&gt;linux&#45;api&#45;headers&gt;=4.10 -->
<g id="edge5" class="edge">
<title>glibc&#45;&gt;linux&#45;api&#45;headers&gt;=4.10</title>
<path fill="none" stroke="#8b4513" d="M343.55,-150.52C321.77,-140.22 287.94,-124.22 260.84,-111.4"/>
<polygon fill="#8b4513" stroke="#8b4513" points="262.1,-108.12 251.56,-107.01 259.11,-114.45 262.1,-108.12"/>
</g>
<!-- tzdata -->
<g id="node8" class="node">
<title>tzdata</title>
<ellipse fill="green" stroke="green" cx="365.71" cy="-90" rx="31.7" ry="18"/>
<text text-anchor="middle" x="365.71" y="-86.3" font-family="Times,serif" font-size="14.00">tzdata</text>
</g>
<!-- glibc&#45;&gt;tzdata -->
<g id="edge7" class="edge">
<title>glibc&#45;&gt;tzdata</title>
<path fill="none" stroke="#8b4513" d="M365.71,-143.7C365.71,-135.98 365.71,-126.71 365.71,-118.11"/>
<polygon fill="#8b4513" stroke="#8b4513" points="369.21,-118.1 365.71,-108.1 362.21,-118.1 369.21,-118.1"/>
</g>
<!-- filesystem -->
<g id="node9" class="node">
<title>filesystem</title>
<ellipse fill="green" stroke="green" cx="462.71" cy="-90" rx="46.59" ry="18"/>
<text text-anchor="middle" x="462.71" y="-86.3" font-family="Times,serif" font-size="14.00">filesystem</text>
</g>
<!-- glibc&#45;&gt;filesystem -->
<g id="edge8" class="edge">
<title>glibc&#45;&gt;filesystem</title>
<path fill="none" stroke="#8b4513" d="M383.95,-147.83C397.75,-137.88 416.99,-123.99 433,-112.44"/>
<polygon fill="#8b4513" stroke="#8b4513" points="435.45,-114.99 441.51,-106.3 431.35,-109.31 435.45,-114.99"/>
</g>
<!-- linux&#45;api&#45;headers -->
<g id="node7" class="node">
<title>linux&#45;api&#45;headers</title>
<ellipse fill="green" stroke="green" cx="217.71" cy="-18" rx="71.49" ry="18"/>
<text text-anchor="middle" x="217.71" y="-14.3" font-family="Times,serif" font-size="14.00">linux&#45;api&#45;headers</text>
</g>
<!-- linux&#45;api&#45;headers&gt;=4.10&#45;&gt;linux&#45;api&#45;headers -->
<g id="edge6" class="edge">
<title>linux&#45;api&#45;headers&gt;=4.10&#45;&gt;linux&#45;api&#45;headers</title>
<path fill="none" stroke="grey" d="M217.71,-71.7C217.71,-60.85 217.71,-46.92 217.71,-36.1"/>
</g>
<!-- iana&#45;etc -->
<g id="node10" class="node">
<title>iana&#45;etc</title>
<ellipse fill="green" stroke="green" cx="462.71" cy="-18" rx="38.19" ry="18"/>
<text text-anchor="middle" x="462.71" y="-14.3" font-family="Times,serif" font-size="14.00">iana&#45;etc</text>
</g>
<!-- filesystem&#45;&gt;iana&#45;etc -->
<g id="edge9" class="edge">
<title>filesystem&#45;&gt;iana&#45;etc</title>
<path fill="none" stroke="#8b4513" d="M462.71,-71.7C462.71,-63.98 462.71,-54.71 462.71,-46.11"/>
<polygon fill="#8b4513" stroke="#8b4513" points="466.21,-46.1 462.71,-36.1 459.21,-46.1 466.21,-46.1"/>
</g>
<!-- bzip2&#45;&gt;glibc -->
<g id="edge11" class="edge">
<title>bzip2&#45;&gt;glibc</title>
<path fill="none" stroke="#8b4513" d="M94.7,-791.96C96.15,-765.31 98.71,-712.14 98.71,-667 98.71,-667 98.71,-667 98.71,-305 98.71,-262.66 100.73,-243.75 132.71,-216 161.53,-190.99 269.24,-174.56 327.58,-167.29"/>
<polygon fill="#8b4513" stroke="#8b4513" points="328.03,-170.76 337.53,-166.08 327.18,-163.81 328.03,-170.76"/>
</g>
<!-- sh -->
<g id="node12" class="node">
<title>sh</title>
<ellipse fill="green" stroke="green" cx="368.71" cy="-738" rx="27" ry="18"/>
<text text-anchor="middle" x="368.71" y="-734.3" font-family="Times,serif" font-size="14.00">sh</text>
</g>
<!-- bzip2&#45;&gt;sh -->
<g id="edge12" class="edge">
<title>bzip2&#45;&gt;sh</title>
<path fill="none" stroke="#8b4513" d="M121.34,-801.97C171.75,-789.13 278.56,-761.95 333.87,-747.87"/>
<polygon fill="#8b4513" stroke="#8b4513" points="335.07,-751.17 343.9,-745.32 333.34,-744.39 335.07,-751.17"/>
</g>
<!-- bash -->
<g id="node13" class="node">
<title>bash</title>
<ellipse fill="green" stroke="green" cx="368.71" cy="-666" rx="27" ry="18"/>
<text text-anchor="middle" x="368.71" y="-662.3" font-family="Times,serif" font-size="14.00">bash</text>
</g>
<!-- sh&#45;&gt;bash -->
<g id="edge13" class="edge">
<title>sh&#45;&gt;bash</title>
<path fill="none" stroke="grey" d="M352.34,-723.5C347.16,-711.11 347.17,-692.84 352.35,-680.46"/>
</g>
<!-- sh&#45;&gt;bash -->
<g id="edge36" class="edge">
<title>sh&#45;&gt;bash</title>
<path fill="none" stroke="grey" d="M362.87,-720.41C361.67,-709.41 361.66,-695.03 362.83,-683.96"/>
</g>
<!-- sh&#45;&gt;bash -->
<g id="edge47" class="edge">
<title>sh&#45;&gt;bash</title>
<path fill="none" stroke="grey" d="M374.55,-720.41C375.75,-709.41 375.76,-695.03 374.59,-683.96"/>
</g>
<!-- sh&#45;&gt;bash -->
<g id="edge56" class="edge">
<title>sh&#45;&gt;bash</title>
<path fill="none" stroke="grey" d="M385.08,-723.5C390.26,-711.11 390.25,-692.84 385.07,-680.46"/>
</g>
<!-- bash&#45;&gt;glibc -->
<g id="edge24" class="edge">
<title>bash&#45;&gt;glibc</title>
<path fill="none" stroke="#8b4513" d="M393.81,-659.08C445.85,-645.14 560.71,-605.09 560.71,-523 560.71,-523 560.71,-523 560.71,-305 560.71,-227.53 458.89,-187.87 402.4,-171.83"/>
<polygon fill="#8b4513" stroke="#8b4513" points="402.98,-168.37 392.41,-169.11 401.14,-175.12 402.98,-168.37"/>
</g>
<!-- readline&gt;=7.0 -->
<g id="node14" class="node">
<title>readline&gt;=7.0</title>
<ellipse fill="green" stroke="green" cx="380.71" cy="-594" rx="61.19" ry="18"/>
<text text-anchor="middle" x="380.71" y="-590.3" font-family="Times,serif" font-size="14.00">readline&gt;=7.0</text>
</g>
<!-- bash&#45;&gt;readline&gt;=7.0 -->
<g id="edge14" class="edge">
<title>bash&#45;&gt;readline&gt;=7.0</title>
<path fill="none" stroke="#8b4513" d="M371.61,-648.05C372.94,-640.35 374.53,-631.03 376.02,-622.36"/>
<polygon fill="#8b4513" stroke="#8b4513" points="379.51,-622.72 377.75,-612.28 372.61,-621.54 379.51,-622.72"/>
</g>
<!-- ncurses -->
<g id="node16" class="node">
<title>ncurses</title>
<ellipse fill="green" stroke="green" cx="298.71" cy="-378" rx="37.09" ry="18"/>
<text text-anchor="middle" x="298.71" y="-374.3" font-family="Times,serif" font-size="14.00">ncurses</text>
</g>
<!-- bash&#45;&gt;ncurses -->
<g id="edge25" class="edge">
<title>bash&#45;&gt;ncurses</title>
<path fill="none" stroke="#8b4513" d="M349.5,-653.19C336.11,-643.82 319.19,-629.41 310.71,-612 277.62,-544.07 286.38,-451.42 293.57,-406.15"/>
<polygon fill="#8b4513" stroke="#8b4513" points="297.04,-406.65 295.25,-396.21 290.13,-405.49 297.04,-406.65"/>
</g>
<!-- readline -->
<g id="node15" class="node">
<title>readline</title>
<ellipse fill="green" stroke="green" cx="404.71" cy="-522" rx="38.99" ry="18"/>
<text text-anchor="middle" x="404.71" y="-518.3" font-family="Times,serif" font-size="14.00">readline</text>
</g>
<!-- readline&gt;=7.0&#45;&gt;readline -->
<g id="edge15" class="edge">
<title>readline&gt;=7.0&#45;&gt;readline</title>
<path fill="none" stroke="grey" d="M386.52,-576.05C390.24,-565.21 395.05,-551.18 398.79,-540.28"/>
</g>
<!-- readline&#45;&gt;glibc -->
<g id="edge16" class="edge">
<title>readline&#45;&gt;glibc</title>
<path fill="none" stroke="#8b4513" d="M437.16,-511.65C459.23,-503.62 487.31,-489.81 503.71,-468 528.02,-435.67 522.71,-419.45 522.71,-379 522.71,-379 522.71,-379 522.71,-305 522.71,-238.95 445.34,-195.66 399.22,-175.72"/>
<polygon fill="#8b4513" stroke="#8b4513" points="400.47,-172.45 389.9,-171.82 397.77,-178.9 400.47,-172.45"/>
</g>
<!-- readline&#45;&gt;ncurses -->
<g id="edge17" class="edge">
<title>readline&#45;&gt;ncurses</title>
<path fill="none" stroke="#8b4513" d="M374.88,-510.1C355.66,-501.55 331.73,-487.76 317.71,-468 304.97,-450.03 300.47,-425.24 299.01,-406.39"/>
<polygon fill="#8b4513" stroke="#8b4513" points="302.5,-406.13 298.48,-396.33 295.51,-406.51 302.5,-406.13"/>
</g>
<!-- libncursesw.so=6&#45;64 -->
<g id="node19" class="node">
<title>libncursesw.so=6&#45;64</title>
<ellipse fill="green" stroke="green" cx="410.71" cy="-450" rx="83.69" ry="18"/>
<text text-anchor="middle" x="410.71" y="-446.3" font-family="Times,serif" font-size="14.00">libncursesw.so=6&#45;64</text>
</g>
<!-- readline&#45;&gt;libncursesw.so=6&#45;64 -->
<g id="edge22" class="edge">
<title>readline&#45;&gt;libncursesw.so=6&#45;64</title>
<path fill="none" stroke="#8b4513" d="M406.19,-503.7C406.85,-495.98 407.65,-486.71 408.39,-478.11"/>
<polygon fill="#8b4513" stroke="#8b4513" points="411.88,-478.37 409.24,-468.1 404.9,-477.77 411.88,-478.37"/>
</g>
<!-- ncurses&#45;&gt;glibc -->
<g id="edge18" class="edge">
<title>ncurses&#45;&gt;glibc</title>
<path fill="none" stroke="#8b4513" d="M310.11,-360.47C316.65,-350.33 324.56,-336.87 329.71,-324 347.77,-278.84 357.71,-222.76 362.36,-190.11"/>
<polygon fill="#8b4513" stroke="#8b4513" points="365.86,-190.36 363.73,-179.98 358.92,-189.42 365.86,-190.36"/>
</g>
<!-- gcc&#45;libs -->
<g id="node17" class="node">
<title>gcc&#45;libs</title>
<ellipse fill="green" stroke="green" cx="282.71" cy="-306" rx="38.19" ry="18"/>
<text text-anchor="middle" x="282.71" y="-302.3" font-family="Times,serif" font-size="14.00">gcc&#45;libs</text>
</g>
<!-- ncurses&#45;&gt;gcc&#45;libs -->
<g id="edge19" class="edge">
<title>ncurses&#45;&gt;gcc&#45;libs</title>
<path fill="none" stroke="#8b4513" d="M294.84,-360.05C293.05,-352.26 290.9,-342.82 288.9,-334.08"/>
<polygon fill="#8b4513" stroke="#8b4513" points="292.3,-333.24 286.66,-324.28 285.47,-334.8 292.3,-333.24"/>
</g>
<!-- glibc&gt;=2.27 -->
<g id="node18" class="node">
<title>glibc&gt;=2.27</title>
<ellipse fill="green" stroke="green" cx="282.71" cy="-234" rx="54.69" ry="18"/>
<text text-anchor="middle" x="282.71" y="-230.3" font-family="Times,serif" font-size="14.00">glibc&gt;=2.27</text>
</g>
<!-- gcc&#45;libs&#45;&gt;glibc&gt;=2.27 -->
<g id="edge20" class="edge">
<title>gcc&#45;libs&#45;&gt;glibc&gt;=2.27</title>
<path fill="none" stroke="#8b4513" d="M282.71,-287.7C282.71,-279.98 282.71,-270.71 282.71,-262.11"/>
<polygon fill="#8b4513" stroke="#8b4513" points="286.21,-262.1 282.71,-252.1 279.21,-262.1 286.21,-262.1"/>
</g>
<!-- glibc&gt;=2.27&#45;&gt;glibc -->
<g id="edge21" class="edge">
<title>glibc&gt;=2.27&#45;&gt;glibc</title>
<path fill="none" stroke="grey" d="M301.96,-216.76C316.33,-204.65 335.74,-188.27 349.36,-176.79"/>
</g>
<!-- libncursesw.so=6&#45;64&#45;&gt;ncurses -->
<g id="edge23" class="edge">
<title>libncursesw.so=6&#45;64&#45;&gt;ncurses</title>
<path fill="none" stroke="grey" d="M384.73,-432.76C365.35,-420.65 339.14,-404.27 320.77,-392.79"/>
</g>
<!-- gdbm&#45;&gt;glibc -->
<g id="edge27" class="edge">
<title>gdbm&#45;&gt;glibc</title>
<path fill="none" stroke="#8b4513" d="M232.86,-792.89C215.37,-767.49 184.71,-715.98 184.71,-667 184.71,-667 184.71,-667 184.71,-305 184.71,-262.66 188.49,-245.66 218.71,-216 248.24,-187.02 294.75,-173.76 327.53,-167.78"/>
<polygon fill="#8b4513" stroke="#8b4513" points="328.37,-171.18 337.65,-166.08 327.21,-164.28 328.37,-171.18"/>
</g>
<!-- gdbm&#45;&gt;sh -->
<g id="edge28" class="edge">
<title>gdbm&#45;&gt;sh</title>
<path fill="none" stroke="#8b4513" d="M266.31,-796.81C286.68,-785.31 317.35,-767.99 339.82,-755.31"/>
<polygon fill="#8b4513" stroke="#8b4513" points="341.6,-758.32 348.59,-750.36 338.16,-752.23 341.6,-758.32"/>
</g>
<!-- perl -->
<g id="node22" class="node">
<title>perl</title>
<ellipse fill="green" stroke="green" cx="265.71" cy="-954" rx="27" ry="18"/>
<text text-anchor="middle" x="265.71" y="-950.3" font-family="Times,serif" font-size="14.00">perl</text>
</g>
<!-- openssl&#45;&gt;perl -->
<g id="edge30" class="edge">
<title>openssl&#45;&gt;perl</title>
<path fill="none" stroke="#8b4513" d="M258.18,-1007.7C259.28,-999.98 260.61,-990.71 261.84,-982.11"/>
<polygon fill="#8b4513" stroke="#8b4513" points="265.32,-982.5 263.27,-972.1 258.39,-981.51 265.32,-982.5"/>
</g>
<!-- perl&#45;&gt;glibc -->
<g id="edge37" class="edge">
<title>perl&#45;&gt;glibc</title>
<path fill="none" stroke="#8b4513" d="M247.82,-940.33C235.39,-930.64 219.39,-916.2 209.71,-900 154.69,-807.91 146.71,-774.27 146.71,-667 146.71,-667 146.71,-667 146.71,-305 146.71,-261.26 155.55,-244.52 188.71,-216 227.83,-182.35 287.68,-170.06 326.76,-165.58"/>
<polygon fill="#8b4513" stroke="#8b4513" points="327.6,-169.01 337.2,-164.51 326.89,-162.04 327.6,-169.01"/>
</g>
<!-- gdbm&gt;=1.17 -->
<g id="node23" class="node">
<title>gdbm&gt;=1.17</title>
<ellipse fill="green" stroke="green" cx="276.71" cy="-882" rx="57.69" ry="18"/>
<text text-anchor="middle" x="276.71" y="-878.3" font-family="Times,serif" font-size="14.00">gdbm&gt;=1.17</text>
</g>
<!-- perl&#45;&gt;gdbm&gt;=1.17 -->
<g id="edge31" class="edge">
<title>perl&#45;&gt;gdbm&gt;=1.17</title>
<path fill="none" stroke="#8b4513" d="M268.37,-936.05C269.58,-928.35 271.05,-919.03 272.41,-910.36"/>
<polygon fill="#8b4513" stroke="#8b4513" points="275.9,-910.7 273.99,-900.28 268.98,-909.61 275.9,-910.7"/>
</g>
<!-- db -->
<g id="node24" class="node">
<title>db</title>
<ellipse fill="green" stroke="green" cx="362.71" cy="-810" rx="27" ry="18"/>
<text text-anchor="middle" x="362.71" y="-806.3" font-family="Times,serif" font-size="14.00">db</text>
</g>
<!-- perl&#45;&gt;db -->
<g id="edge33" class="edge">
<title>perl&#45;&gt;db</title>
<path fill="none" stroke="#8b4513" d="M288.06,-943.57C305.9,-934.87 330.09,-920.24 343.71,-900 356,-881.72 360.54,-856.96 362.13,-838.19"/>
<polygon fill="#8b4513" stroke="#8b4513" points="365.62,-838.39 362.74,-828.2 358.63,-837.96 365.62,-838.39"/>
</g>
<!-- gdbm&gt;=1.17&#45;&gt;gdbm -->
<g id="edge32" class="edge">
<title>gdbm&gt;=1.17&#45;&gt;gdbm</title>
<path fill="none" stroke="grey" d="M268.96,-864.05C263.93,-853.05 257.4,-838.76 252.38,-827.79"/>
</g>
<!-- db&#45;&gt;sh -->
<g id="edge35" class="edge">
<title>db&#45;&gt;sh</title>
<path fill="none" stroke="#8b4513" d="M364.19,-791.7C364.85,-783.98 365.65,-774.71 366.39,-766.11"/>
<polygon fill="#8b4513" stroke="#8b4513" points="369.88,-766.37 367.24,-756.1 362.9,-765.77 369.88,-766.37"/>
</g>
<!-- db&#45;&gt;gcc&#45;libs -->
<g id="edge34" class="edge">
<title>db&#45;&gt;gcc&#45;libs</title>
<path fill="none" stroke="#8b4513" d="M340.83,-799.28C301.46,-780.11 222.71,-733.47 222.71,-667 222.71,-667 222.71,-667 222.71,-449 222.71,-405.24 247.19,-359.45 264.88,-332.07"/>
<polygon fill="#8b4513" stroke="#8b4513" points="267.94,-333.79 270.57,-323.53 262.11,-329.91 267.94,-333.79"/>
</g>
<!-- libffi&#45;&gt;glibc -->
<g id="edge39" class="edge">
<title>libffi&#45;&gt;glibc</title>
<path fill="none" stroke="#8b4513" d="M565.67,-1227.02C590.78,-1203.37 636.71,-1152.78 636.71,-1099 636.71,-1099 636.71,-1099 636.71,-305 636.71,-201.26 478.97,-173.16 404.18,-165.67"/>
<polygon fill="#8b4513" stroke="#8b4513" points="404.48,-162.18 394.2,-164.74 403.83,-169.15 404.48,-162.18"/>
</g>
<!-- zlib&#45;&gt;glibc -->
<g id="edge41" class="edge">
<title>zlib&#45;&gt;glibc</title>
<path fill="none" stroke="#8b4513" d="M690.13,-1151.97C687.8,-1125.33 683.71,-1072.19 683.71,-1027 683.71,-1027 683.71,-1027 683.71,-305 683.71,-262.81 682.98,-243.17 650.71,-216 613.91,-185.01 473.12,-170.75 404.19,-165.51"/>
<polygon fill="#8b4513" stroke="#8b4513" points="404.39,-162.02 394.16,-164.78 403.88,-169 404.39,-162.02"/>
</g>
<!-- libtirpc -->
<g id="node28" class="node">
<title>libtirpc</title>
<ellipse fill="green" stroke="green" cx="341.71" cy="-1314" rx="36.29" ry="18"/>
<text text-anchor="middle" x="341.71" y="-1310.3" font-family="Times,serif" font-size="14.00">libtirpc</text>
</g>
<!-- libnsl&#45;&gt;libtirpc -->
<g id="edge43" class="edge">
<title>libnsl&#45;&gt;libtirpc</title>
<path fill="none" stroke="#8b4513" d="M328.82,-1368.05C330.72,-1360.26 333.01,-1350.82 335.13,-1342.08"/>
<polygon fill="#8b4513" stroke="#8b4513" points="338.56,-1342.82 337.51,-1332.28 331.75,-1341.17 338.56,-1342.82"/>
</g>
<!-- krb5 -->
<g id="node29" class="node">
<title>krb5</title>
<ellipse fill="green" stroke="green" cx="365.71" cy="-1242" rx="27.1" ry="18"/>
<text text-anchor="middle" x="365.71" y="-1238.3" font-family="Times,serif" font-size="14.00">krb5</text>
</g>
<!-- libtirpc&#45;&gt;krb5 -->
<g id="edge44" class="edge">
<title>libtirpc&#45;&gt;krb5</title>
<path fill="none" stroke="#8b4513" d="M347.52,-1296.05C350.26,-1288.06 353.6,-1278.33 356.66,-1269.4"/>
<polygon fill="#8b4513" stroke="#8b4513" points="360.02,-1270.38 359.95,-1259.79 353.4,-1268.11 360.02,-1270.38"/>
</g>
<!-- e2fsprogs -->
<g id="node30" class="node">
<title>e2fsprogs</title>
<ellipse fill="green" stroke="green" cx="398.71" cy="-1098" rx="44.69" ry="18"/>
<text text-anchor="middle" x="398.71" y="-1094.3" font-family="Times,serif" font-size="14.00">e2fsprogs</text>
</g>
<!-- krb5&#45;&gt;e2fsprogs -->
<g id="edge45" class="edge">
<title>krb5&#45;&gt;e2fsprogs</title>
<path fill="none" stroke="#8b4513" d="M370.46,-1223.87C373.27,-1213.51 376.84,-1200.03 379.71,-1188 384.63,-1167.38 389.61,-1143.93 393.24,-1126.28"/>
<polygon fill="#8b4513" stroke="#8b4513" points="396.74,-1126.61 395.31,-1116.12 389.88,-1125.22 396.74,-1126.61"/>
</g>
<!-- libldap -->
<g id="node32" class="node">
<title>libldap</title>
<ellipse fill="green" stroke="green" cx="335.71" cy="-1170" rx="35.19" ry="18"/>
<text text-anchor="middle" x="335.71" y="-1166.3" font-family="Times,serif" font-size="14.00">libldap</text>
</g>
<!-- krb5&#45;&gt;libldap -->
<g id="edge49" class="edge">
<title>krb5&#45;&gt;libldap</title>
<path fill="none" stroke="#8b4513" d="M358.6,-1224.41C355.14,-1216.34 350.89,-1206.43 347,-1197.35"/>
<polygon fill="#8b4513" stroke="#8b4513" points="350.13,-1195.77 342.98,-1187.96 343.7,-1198.53 350.13,-1195.77"/>
</g>
<!-- keyutils -->
<g id="node34" class="node">
<title>keyutils</title>
<ellipse fill="green" stroke="green" cx="510.71" cy="-810" rx="38.19" ry="18"/>
<text text-anchor="middle" x="510.71" y="-806.3" font-family="Times,serif" font-size="14.00">keyutils</text>
</g>
<!-- krb5&#45;&gt;keyutils -->
<g id="edge53" class="edge">
<title>krb5&#45;&gt;keyutils</title>
<path fill="none" stroke="#8b4513" d="M387.05,-1230.42C424.17,-1210.33 496.71,-1162.9 496.71,-1099 496.71,-1099 496.71,-1099 496.71,-953 496.71,-912.8 502.33,-866.51 506.45,-838"/>
<polygon fill="#8b4513" stroke="#8b4513" points="509.93,-838.4 507.94,-828 503.01,-837.37 509.93,-838.4"/>
</g>
<!-- e2fsprogs&#45;&gt;sh -->
<g id="edge46" class="edge">
<title>e2fsprogs&#45;&gt;sh</title>
<path fill="none" stroke="#8b4513" d="M408.63,-1080.32C414.33,-1070.12 421.22,-1056.65 425.71,-1044 439.23,-1005.88 444.71,-995.45 444.71,-955 444.71,-955 444.71,-955 444.71,-881 444.71,-834.12 412.11,-787.74 389.62,-761.31"/>
<polygon fill="#8b4513" stroke="#8b4513" points="392.23,-758.98 383,-753.77 386.97,-763.6 392.23,-758.98"/>
</g>
<!-- libutil&#45;linux -->
<g id="node31" class="node">
<title>libutil&#45;linux</title>
<ellipse fill="green" stroke="green" cx="363.71" cy="-1026" rx="52.79" ry="18"/>
<text text-anchor="middle" x="363.71" y="-1022.3" font-family="Times,serif" font-size="14.00">libutil&#45;linux</text>
</g>
<!-- e2fsprogs&#45;&gt;libutil&#45;linux -->
<g id="edge48" class="edge">
<title>e2fsprogs&#45;&gt;libutil&#45;linux</title>
<path fill="none" stroke="#8b4513" d="M390.24,-1080.05C386.15,-1071.89 381.17,-1061.91 376.62,-1052.82"/>
<polygon fill="#8b4513" stroke="#8b4513" points="379.71,-1051.17 372.1,-1043.79 373.45,-1054.3 379.71,-1051.17"/>
</g>
<!-- libldap&#45;&gt;e2fsprogs -->
<g id="edge52" class="edge">
<title>libldap&#45;&gt;e2fsprogs</title>
<path fill="none" stroke="#8b4513" d="M349.69,-1153.46C357.7,-1144.57 367.92,-1133.21 376.96,-1123.16"/>
<polygon fill="#8b4513" stroke="#8b4513" points="379.8,-1125.24 383.89,-1115.47 374.6,-1120.56 379.8,-1125.24"/>
</g>
<!-- libsasl -->
<g id="node33" class="node">
<title>libsasl</title>
<ellipse fill="green" stroke="green" cx="302.71" cy="-1098" rx="33.29" ry="18"/>
<text text-anchor="middle" x="302.71" y="-1094.3" font-family="Times,serif" font-size="14.00">libsasl</text>
</g>
<!-- libldap&#45;&gt;libsasl -->
<g id="edge50" class="edge">
<title>libldap&#45;&gt;libsasl</title>
<path fill="none" stroke="#8b4513" d="M327.89,-1152.41C324.04,-1144.25 319.31,-1134.22 315,-1125.07"/>
<polygon fill="#8b4513" stroke="#8b4513" points="318.13,-1123.51 310.7,-1115.96 311.8,-1126.49 318.13,-1123.51"/>
</g>
<!-- libsasl&#45;&gt;openssl -->
<g id="edge51" class="edge">
<title>libsasl&#45;&gt;openssl</title>
<path fill="none" stroke="#8b4513" d="M291.81,-1080.76C286.08,-1072.23 278.93,-1061.58 272.51,-1052.02"/>
<polygon fill="#8b4513" stroke="#8b4513" points="275.36,-1049.98 266.88,-1043.63 269.55,-1053.89 275.36,-1049.98"/>
</g>
<!-- keyutils&#45;&gt;glibc -->
<g id="edge54" class="edge">
<title>keyutils&#45;&gt;glibc</title>
<path fill="none" stroke="#8b4513" d="M528.1,-793.89C553.74,-769.83 598.71,-720.08 598.71,-667 598.71,-667 598.71,-667 598.71,-305 598.71,-214.62 469.29,-180.08 403.36,-168.35"/>
<polygon fill="#8b4513" stroke="#8b4513" points="403.8,-164.88 393.35,-166.66 402.63,-171.78 403.8,-164.88"/>
</g>
<!-- keyutils&#45;&gt;sh -->
<g id="edge55" class="edge">
<title>keyutils&#45;&gt;sh</title>
<path fill="none" stroke="#8b4513" d="M485.32,-796.49C461.13,-784.56 424.69,-766.59 398.99,-753.93"/>
<polygon fill="#8b4513" stroke="#8b4513" points="400.23,-750.64 389.72,-749.36 397.14,-756.92 400.23,-750.64"/>
</g>
<!-- python&#45;appdirs -->
<g id="node36" class="node">
<title>python&#45;appdirs</title>
<ellipse fill="green" stroke="green" cx="409.71" cy="-1530" rx="63.89" ry="18"/>
<text text-anchor="middle" x="409.71" y="-1526.3" font-family="Times,serif" font-size="14.00">python&#45;appdirs</text>
</g>
<!-- python&#45;setuptools&#45;&gt;python&#45;appdirs -->
<g id="edge58" class="edge">
<title>python&#45;setuptools&#45;&gt;python&#45;appdirs</title>
<path fill="none" stroke="#8b4513" d="M288.91,-1667.88C324.11,-1661.67 364.82,-1648.34 390.71,-1620 405.91,-1603.37 410.07,-1577.65 410.77,-1558.13"/>
<polygon fill="#8b4513" stroke="#8b4513" points="414.27,-1558.05 410.86,-1548.02 407.27,-1557.99 414.27,-1558.05"/>
</g>
<!-- python&#45;packaging -->
<g id="node37" class="node">
<title>python&#45;packaging</title>
<ellipse fill="green" stroke="green" cx="135.71" cy="-1602" rx="74.19" ry="18"/>
<text text-anchor="middle" x="135.71" y="-1598.3" font-family="Times,serif" font-size="14.00">python&#45;packaging</text>
</g>
<!-- python&#45;setuptools&#45;&gt;python&#45;packaging -->
<g id="edge60" class="edge">
<title>python&#45;setuptools&#45;&gt;python&#45;packaging</title>
<path fill="none" stroke="#8b4513" d="M199.8,-1656.41C188.92,-1647.34 175.28,-1635.97 163.38,-1626.06"/>
<polygon fill="#8b4513" stroke="#8b4513" points="165.4,-1623.18 155.47,-1619.47 160.92,-1628.56 165.4,-1623.18"/>
</g>
<!-- python&#45;ordered&#45;set -->
<g id="node40" class="node">
<title>python&#45;ordered&#45;set</title>
<ellipse fill="green" stroke="green" cx="304.71" cy="-1602" rx="77.19" ry="18"/>
<text text-anchor="middle" x="304.71" y="-1598.3" font-family="Times,serif" font-size="14.00">python&#45;ordered&#45;set</text>
</g>
<!-- python&#45;setuptools&#45;&gt;python&#45;ordered&#45;set -->
<g id="edge65" class="edge">
<title>python&#45;setuptools&#45;&gt;python&#45;ordered&#45;set</title>
<path fill="none" stroke="#8b4513" d="M239.85,-1656.41C250.86,-1647.34 264.67,-1635.97 276.71,-1626.06"/>
<polygon fill="#8b4513" stroke="#8b4513" points="279.22,-1628.53 284.71,-1619.47 274.77,-1623.13 279.22,-1628.53"/>
</g>
<!-- python&#45;appdirs&#45;&gt;python -->
<g id="edge59" class="edge">
<title>python&#45;appdirs&#45;&gt;python</title>
<path fill="none" stroke="#8b4513" d="M375.31,-1514.67C346.76,-1502.77 306.3,-1485.91 277.4,-1473.87"/>
<polygon fill="#8b4513" stroke="#8b4513" points="278.66,-1470.6 268.08,-1469.99 275.96,-1477.06 278.66,-1470.6"/>
</g>
<!-- python&#45;pyparsing -->
<g id="node38" class="node">
<title>python&#45;pyparsing</title>
<ellipse fill="green" stroke="green" cx="102.71" cy="-1530" rx="72.59" ry="18"/>
<text text-anchor="middle" x="102.71" y="-1526.3" font-family="Times,serif" font-size="14.00">python&#45;pyparsing</text>
</g>
<!-- python&#45;packaging&#45;&gt;python&#45;pyparsing -->
<g id="edge61" class="edge">
<title>python&#45;packaging&#45;&gt;python&#45;pyparsing</title>
<path fill="none" stroke="#8b4513" d="M127.72,-1584.05C123.97,-1576.09 119.4,-1566.41 115.21,-1557.51"/>
<polygon fill="#8b4513" stroke="#8b4513" points="118.28,-1555.83 110.85,-1548.28 111.95,-1558.81 118.28,-1555.83"/>
</g>
<!-- python&#45;six -->
<g id="node39" class="node">
<title>python&#45;six</title>
<ellipse fill="green" stroke="green" cx="241.71" cy="-1530" rx="48.19" ry="18"/>
<text text-anchor="middle" x="241.71" y="-1526.3" font-family="Times,serif" font-size="14.00">python&#45;six</text>
</g>
<!-- python&#45;packaging&#45;&gt;python&#45;six -->
<g id="edge63" class="edge">
<title>python&#45;packaging&#45;&gt;python&#45;six</title>
<path fill="none" stroke="#8b4513" d="M160.03,-1584.94C174.98,-1575.06 194.3,-1562.31 210.39,-1551.68"/>
<polygon fill="#8b4513" stroke="#8b4513" points="212.54,-1554.46 218.95,-1546.03 208.68,-1548.62 212.54,-1554.46"/>
</g>
<!-- python&#45;pyparsing&#45;&gt;python -->
<g id="edge62" class="edge">
<title>python&#45;pyparsing&#45;&gt;python</title>
<path fill="none" stroke="#8b4513" d="M133.21,-1513.64C155.41,-1502.46 185.45,-1487.33 208.29,-1475.83"/>
<polygon fill="#8b4513" stroke="#8b4513" points="209.93,-1478.92 217.29,-1471.3 206.78,-1472.67 209.93,-1478.92"/>
</g>
<!-- python&#45;six&#45;&gt;python -->
<g id="edge64" class="edge">
<title>python&#45;six&#45;&gt;python</title>
<path fill="none" stroke="#8b4513" d="M241.71,-1511.7C241.71,-1503.98 241.71,-1494.71 241.71,-1486.11"/>
<polygon fill="#8b4513" stroke="#8b4513" points="245.21,-1486.1 241.71,-1476.1 238.21,-1486.1 245.21,-1486.1"/>
</g>
<!-- python&#45;ordered&#45;set&#45;&gt;python -->
<g id="edge66" class="edge">
<title>python&#45;ordered&#45;set&#45;&gt;python</title>
<path fill="none" stroke="#8b4513" d="M307.14,-1584C309.01,-1565.37 309.7,-1535.07 298.71,-1512 292.5,-1498.97 281.56,-1487.59 270.91,-1478.75"/>
<polygon fill="#8b4513" stroke="#8b4513" points="272.94,-1475.9 262.9,-1472.5 268.63,-1481.41 272.94,-1475.9"/>
</g>
</g>
</svg>
