<?xml version="1.0" encoding="UTF-8" standalone="no"?>
<!DOCTYPE svg PUBLIC "-//W3C//DTD SVG 1.1//EN"
 "http://www.w3.org/Graphics/SVG/1.1/DTD/svg11.dtd">
<!-- Generated by graphviz version 2.44.0 (0)
 -->
<!-- Title: G Pages: 1 -->
<svg width="801pt" height="1988pt"
 viewBox="0.00 0.00 801.19 1988.00" xmlns="http://www.w3.org/2000/svg" xmlns:xlink="http://www.w3.org/1999/xlink">
<g id="graph0" class="graph" transform="scale(1 1) rotate(0) translate(4 1984)">
<title>G</title>
<polygon fill="white" stroke="transparent" points="-4,4 -4,-1984 797.19,-1984 797.19,4 -4,4"/>
<!-- START -->
<g id="node1" class="node">
<title>START</title>
<ellipse fill="red" stroke="red" cx="278.19" cy="-1962" rx="38.19" ry="18"/>
<text text-anchor="middle" x="278.19" y="-1958.3" font-family="Times,serif" font-size="14.00">START</text>
</g>
<!-- python&#45;cachecontrol -->
<g id="node2" class="node">
<title>python&#45;cachecontrol</title>
<ellipse fill="green" stroke="green" cx="278.19" cy="-1890" rx="83.39" ry="18"/>
<text text-anchor="middle" x="278.19" y="-1886.3" font-family="Times,serif" font-size="14.00">python&#45;cachecontrol</text>
</g>
<!-- START&#45;&gt;python&#45;cachecontrol -->
<g id="edge1" class="edge">
<title>START&#45;&gt;python&#45;cachecontrol</title>
<path fill="none" stroke="black" d="M278.19,-1943.7C278.19,-1935.98 278.19,-1926.71 278.19,-1918.11"/>
<polygon fill="black" stroke="black" points="281.69,-1918.1 278.19,-1908.1 274.69,-1918.1 281.69,-1918.1"/>
</g>
<!-- python&#45;msgpack -->
<g id="node3" class="node">
<title>python&#45;msgpack</title>
<ellipse fill="green" stroke="green" cx="70.19" cy="-1674" rx="70.39" ry="18"/>
<text text-anchor="middle" x="70.19" y="-1670.3" font-family="Times,serif" font-size="14.00">python&#45;msgpack</text>
</g>
<!-- python&#45;cachecontrol&#45;&gt;python&#45;msgpack -->
<g id="edge2" class="edge">
<title>python&#45;cachecontrol&#45;&gt;python&#45;msgpack</title>
<path fill="none" stroke="#8b4513" d="M261.87,-1872.21C225.19,-1834.47 136.13,-1742.84 93.58,-1699.06"/>
<polygon fill="#8b4513" stroke="#8b4513" points="95.92,-1696.45 86.44,-1691.71 90.9,-1701.32 95.92,-1696.45"/>
</g>
<!-- python&#45;requests -->
<g id="node36" class="node">
<title>python&#45;requests</title>
<ellipse fill="green" stroke="green" cx="392.19" cy="-1818" rx="66.89" ry="18"/>
<text text-anchor="middle" x="392.19" y="-1814.3" font-family="Times,serif" font-size="14.00">python&#45;requests</text>
</g>
<!-- python&#45;cachecontrol&#45;&gt;python&#45;requests -->
<g id="edge58" class="edge">
<title>python&#45;cachecontrol&#45;&gt;python&#45;requests</title>
<path fill="none" stroke="#8b4513" d="M304.63,-1872.76C320.54,-1863 340.96,-1850.46 358.07,-1839.95"/>
<polygon fill="#8b4513" stroke="#8b4513" points="359.99,-1842.88 366.68,-1834.67 356.33,-1836.92 359.99,-1842.88"/>
</g>
<!-- python -->
<g id="node4" class="node">
<title>python</title>
<ellipse fill="green" stroke="green" cx="316.19" cy="-1458" rx="35.19" ry="18"/>
<text text-anchor="middle" x="316.19" y="-1454.3" font-family="Times,serif" font-size="14.00">python</text>
</g>
<!-- python&#45;msgpack&#45;&gt;python -->
<g id="edge3" class="edge">
<title>python&#45;msgpack&#45;&gt;python</title>
<path fill="none" stroke="#8b4513" d="M62.3,-1655.75C58.09,-1645.58 53.34,-1632.33 51.19,-1620 42.7,-1571.15 41.59,-1544.32 79.19,-1512 107.76,-1487.45 211.89,-1471.35 272.2,-1463.87"/>
<polygon fill="#8b4513" stroke="#8b4513" points="272.69,-1467.33 282.2,-1462.65 271.85,-1460.38 272.69,-1467.33"/>
</g>
<!-- expat -->
<g id="node5" class="node">
<title>expat</title>
<ellipse fill="green" stroke="green" cx="120.19" cy="-1314" rx="29.8" ry="18"/>
<text text-anchor="middle" x="120.19" y="-1310.3" font-family="Times,serif" font-size="14.00">expat</text>
</g>
<!-- python&#45;&gt;expat -->
<g id="edge4" class="edge">
<title>python&#45;&gt;expat</title>
<path fill="none" stroke="#8b4513" d="M282.97,-1451.83C250.99,-1445.38 202.78,-1431.65 170.19,-1404 150.54,-1387.33 137.08,-1360.87 129.12,-1341.13"/>
<polygon fill="#8b4513" stroke="#8b4513" points="132.39,-1339.88 125.55,-1331.78 125.85,-1342.38 132.39,-1339.88"/>
</g>
<!-- bzip2 -->
<g id="node12" class="node">
<title>bzip2</title>
<ellipse fill="green" stroke="green" cx="168.19" cy="-810" rx="30.59" ry="18"/>
<text text-anchor="middle" x="168.19" y="-806.3" font-family="Times,serif" font-size="14.00">bzip2</text>
</g>
<!-- python&#45;&gt;bzip2 -->
<g id="edge11" class="edge">
<title>python&#45;&gt;bzip2</title>
<path fill="none" stroke="#8b4513" d="M291.67,-1444.83C253.5,-1423.95 184.19,-1377.44 184.19,-1315 184.19,-1315 184.19,-1315 184.19,-953 184.19,-912.74 177.77,-866.47 173.06,-837.98"/>
<polygon fill="#8b4513" stroke="#8b4513" points="176.48,-837.25 171.35,-827.98 169.58,-838.43 176.48,-837.25"/>
</g>
<!-- gdbm -->
<g id="node21" class="node">
<title>gdbm</title>
<ellipse fill="green" stroke="green" cx="319.19" cy="-810" rx="31.4" ry="18"/>
<text text-anchor="middle" x="319.19" y="-806.3" font-family="Times,serif" font-size="14.00">gdbm</text>
</g>
<!-- python&#45;&gt;gdbm -->
<g id="edge27" class="edge">
<title>python&#45;&gt;gdbm</title>
<path fill="none" stroke="#8b4513" d="M306.12,-1440.64C291.25,-1414.9 265.19,-1362.94 265.19,-1315 265.19,-1315 265.19,-1315 265.19,-953 265.19,-912.55 268.56,-901.3 284.19,-864 288.41,-853.93 294.61,-843.73 300.61,-834.99"/>
<polygon fill="#8b4513" stroke="#8b4513" points="303.49,-836.98 306.47,-826.81 297.8,-832.9 303.49,-836.98"/>
</g>
<!-- openssl -->
<g id="node22" class="node">
<title>openssl</title>
<ellipse fill="green" stroke="green" cx="330.19" cy="-1026" rx="37.09" ry="18"/>
<text text-anchor="middle" x="330.19" y="-1022.3" font-family="Times,serif" font-size="14.00">openssl</text>
</g>
<!-- python&#45;&gt;openssl -->
<g id="edge30" class="edge">
<title>python&#45;&gt;openssl</title>
<path fill="none" stroke="#8b4513" d="M316.19,-1439.95C316.19,-1413.29 316.19,-1360.11 316.19,-1315 316.19,-1315 316.19,-1315 316.19,-1169 316.19,-1128.8 321.82,-1082.51 325.94,-1054"/>
<polygon fill="#8b4513" stroke="#8b4513" points="329.42,-1054.4 327.43,-1044 322.49,-1053.37 329.42,-1054.4"/>
</g>
<!-- libffi -->
<g id="node26" class="node">
<title>libffi</title>
<ellipse fill="green" stroke="green" cx="624.19" cy="-1242" rx="27.9" ry="18"/>
<text text-anchor="middle" x="624.19" y="-1238.3" font-family="Times,serif" font-size="14.00">libffi</text>
</g>
<!-- python&#45;&gt;libffi -->
<g id="edge39" class="edge">
<title>python&#45;&gt;libffi</title>
<path fill="none" stroke="#8b4513" d="M344.78,-1447.54C370.53,-1438.37 408.88,-1423.07 439.19,-1404 504.59,-1362.86 570.22,-1299.16 602.9,-1265.54"/>
<polygon fill="#8b4513" stroke="#8b4513" points="605.69,-1267.69 610.11,-1258.06 600.65,-1262.83 605.69,-1267.69"/>
</g>
<!-- zlib -->
<g id="node27" class="node">
<title>zlib</title>
<ellipse fill="green" stroke="green" cx="766.19" cy="-1170" rx="27" ry="18"/>
<text text-anchor="middle" x="766.19" y="-1166.3" font-family="Times,serif" font-size="14.00">zlib</text>
</g>
<!-- python&#45;&gt;zlib -->
<g id="edge41" class="edge">
<title>python&#45;&gt;zlib</title>
<path fill="none" stroke="#8b4513" d="M347.75,-1450.05C381.19,-1441.92 434.9,-1426.62 477.19,-1404 589.21,-1344.1 700.05,-1238.32 745.13,-1192.82"/>
<polygon fill="#8b4513" stroke="#8b4513" points="747.76,-1195.13 752.28,-1185.54 742.77,-1190.22 747.76,-1195.13"/>
</g>
<!-- libnsl -->
<g id="node28" class="node">
<title>libnsl</title>
<ellipse fill="green" stroke="green" cx="399.19" cy="-1386" rx="30.59" ry="18"/>
<text text-anchor="middle" x="399.19" y="-1382.3" font-family="Times,serif" font-size="14.00">libnsl</text>
</g>
<!-- python&#45;&gt;libnsl -->
<g id="edge43" class="edge">
<title>python&#45;&gt;libnsl</title>
<path fill="none" stroke="#8b4513" d="M333.8,-1442.15C345.7,-1432.12 361.58,-1418.73 374.71,-1407.65"/>
<polygon fill="#8b4513" stroke="#8b4513" points="377.08,-1410.23 382.47,-1401.11 372.57,-1404.88 377.08,-1410.23"/>
</g>
<!-- glibc -->
<g id="node6" class="node">
<title>glibc</title>
<ellipse fill="green" stroke="green" cx="440.19" cy="-162" rx="28.7" ry="18"/>
<text text-anchor="middle" x="440.19" y="-158.3" font-family="Times,serif" font-size="14.00">glibc</text>
</g>
<!-- expat&#45;&gt;glibc -->
<g id="edge5" class="edge">
<title>expat&#45;&gt;glibc</title>
<path fill="none" stroke="#8b4513" d="M118.02,-1295.98C114.81,-1269.37 109.19,-1216.25 109.19,-1171 109.19,-1171 109.19,-1171 109.19,-305 109.19,-179.12 313.89,-163.41 401.34,-162.44"/>
<polygon fill="#8b4513" stroke="#8b4513" points="401.42,-165.94 411.4,-162.39 401.38,-158.94 401.42,-165.94"/>
</g>
<!-- linux&#45;api&#45;headers&gt;=4.10 -->
<g id="node7" class="node">
<title>linux&#45;api&#45;headers&gt;=4.10</title>
<ellipse fill="green" stroke="green" cx="292.19" cy="-90" rx="98.28" ry="18"/>
<text text-anchor="middle" x="292.19" y="-86.3" font-family="Times,serif" font-size="14.00">linux&#45;api&#45;headers&gt;=4.10</text>
</g>
<!-- glibc&#45;&gt;linux&#45;api&#45;headers&gt;=4.10 -->
<g id="edge6" class="edge">
<title>glibc&#45;&gt;linux&#45;api&#45;headers&gt;=4.10</title>
<path fill="none" stroke="#8b4513" d="M418.04,-150.52C396.25,-140.22 362.42,-124.22 335.32,-111.4"/>
<polygon fill="#8b4513" stroke="#8b4513" points="336.58,-108.12 326.05,-107.01 333.59,-114.45 336.58,-108.12"/>
</g>
<!-- tzdata -->
<g id="node9" class="node">
<title>tzdata</title>
<ellipse fill="green" stroke="green" cx="440.19" cy="-90" rx="31.7" ry="18"/>
<text text-anchor="middle" x="440.19" y="-86.3" font-family="Times,serif" font-size="14.00">tzdata</text>
</g>
<!-- glibc&#45;&gt;tzdata -->
<g id="edge8" class="edge">
<title>glibc&#45;&gt;tzdata</title>
<path fill="none" stroke="#8b4513" d="M440.19,-143.7C440.19,-135.98 440.19,-126.71 440.19,-118.11"/>
<polygon fill="#8b4513" stroke="#8b4513" points="443.69,-118.1 440.19,-108.1 436.69,-118.1 443.69,-118.1"/>
</g>
<!-- filesystem -->
<g id="node10" class="node">
<title>filesystem</title>
<ellipse fill="green" stroke="green" cx="537.19" cy="-90" rx="46.59" ry="18"/>
<text text-anchor="middle" x="537.19" y="-86.3" font-family="Times,serif" font-size="14.00">filesystem</text>
</g>
<!-- glibc&#45;&gt;filesystem -->
<g id="edge9" class="edge">
<title>glibc&#45;&gt;filesystem</title>
<path fill="none" stroke="#8b4513" d="M458.44,-147.83C472.24,-137.88 491.48,-123.99 507.49,-112.44"/>
<polygon fill="#8b4513" stroke="#8b4513" points="509.93,-114.99 515.99,-106.3 505.83,-109.31 509.93,-114.99"/>
</g>
<!-- linux&#45;api&#45;headers -->
<g id="node8" class="node">
<title>linux&#45;api&#45;headers</title>
<ellipse fill="green" stroke="green" cx="292.19" cy="-18" rx="71.49" ry="18"/>
<text text-anchor="middle" x="292.19" y="-14.3" font-family="Times,serif" font-size="14.00">linux&#45;api&#45;headers</text>
</g>
<!-- linux&#45;api&#45;headers&gt;=4.10&#45;&gt;linux&#45;api&#45;headers -->
<g id="edge7" class="edge">
<title>linux&#45;api&#45;headers&gt;=4.10&#45;&gt;linux&#45;api&#45;headers</title>
<path fill="none" stroke="grey" d="M292.19,-71.7C292.19,-60.85 292.19,-46.92 292.19,-36.1"/>
</g>
<!-- iana&#45;etc -->
<g id="node11" class="node">
<title>iana&#45;etc</title>
<ellipse fill="green" stroke="green" cx="537.19" cy="-18" rx="38.19" ry="18"/>
<text text-anchor="middle" x="537.19" y="-14.3" font-family="Times,serif" font-size="14.00">iana&#45;etc</text>
</g>
<!-- filesystem&#45;&gt;iana&#45;etc -->
<g id="edge10" class="edge">
<title>filesystem&#45;&gt;iana&#45;etc</title>
<path fill="none" stroke="#8b4513" d="M537.19,-71.7C537.19,-63.98 537.19,-54.71 537.19,-46.11"/>
<polygon fill="#8b4513" stroke="#8b4513" points="540.69,-46.1 537.19,-36.1 533.69,-46.1 540.69,-46.1"/>
</g>
<!-- bzip2&#45;&gt;glibc -->
<g id="edge12" class="edge">
<title>bzip2&#45;&gt;glibc</title>
<path fill="none" stroke="#8b4513" d="M169.18,-791.96C170.64,-765.31 173.19,-712.14 173.19,-667 173.19,-667 173.19,-667 173.19,-305 173.19,-262.66 175.21,-243.75 207.19,-216 236.01,-190.99 343.72,-174.56 402.07,-167.29"/>
<polygon fill="#8b4513" stroke="#8b4513" points="402.51,-170.76 412.01,-166.08 401.66,-163.81 402.51,-170.76"/>
</g>
<!-- sh -->
<g id="node13" class="node">
<title>sh</title>
<ellipse fill="green" stroke="green" cx="446.19" cy="-738" rx="27" ry="18"/>
<text text-anchor="middle" x="446.19" y="-734.3" font-family="Times,serif" font-size="14.00">sh</text>
</g>
<!-- bzip2&#45;&gt;sh -->
<g id="edge13" class="edge">
<title>bzip2&#45;&gt;sh</title>
<path fill="none" stroke="#8b4513" d="M195.87,-802.03C246.94,-789.17 355.87,-761.74 411.67,-747.69"/>
<polygon fill="#8b4513" stroke="#8b4513" points="412.61,-751.07 421.45,-745.23 410.9,-744.28 412.61,-751.07"/>
</g>
<!-- bash -->
<g id="node14" class="node">
<title>bash</title>
<ellipse fill="green" stroke="green" cx="446.19" cy="-666" rx="27" ry="18"/>
<text text-anchor="middle" x="446.19" y="-662.3" font-family="Times,serif" font-size="14.00">bash</text>
</g>
<!-- sh&#45;&gt;bash -->
<g id="edge14" class="edge">
<title>sh&#45;&gt;bash</title>
<path fill="none" stroke="grey" d="M429.82,-723.5C424.65,-711.11 424.65,-692.84 429.84,-680.46"/>
</g>
<!-- sh&#45;&gt;bash -->
<g id="edge37" class="edge">
<title>sh&#45;&gt;bash</title>
<path fill="none" stroke="grey" d="M440.35,-720.41C439.15,-709.41 439.14,-695.03 440.31,-683.96"/>
</g>
<!-- sh&#45;&gt;bash -->
<g id="edge48" class="edge">
<title>sh&#45;&gt;bash</title>
<path fill="none" stroke="grey" d="M452.03,-720.41C453.23,-709.41 453.25,-695.03 452.07,-683.96"/>
</g>
<!-- sh&#45;&gt;bash -->
<g id="edge57" class="edge">
<title>sh&#45;&gt;bash</title>
<path fill="none" stroke="grey" d="M462.57,-723.5C467.74,-711.11 467.74,-692.84 462.55,-680.46"/>
</g>
<!-- bash&#45;&gt;glibc -->
<g id="edge25" class="edge">
<title>bash&#45;&gt;glibc</title>
<path fill="none" stroke="#8b4513" d="M471.29,-658.84C522.7,-644.56 635.19,-604.06 635.19,-523 635.19,-523 635.19,-523 635.19,-305 635.19,-227.53 533.37,-187.87 476.88,-171.83"/>
<polygon fill="#8b4513" stroke="#8b4513" points="477.47,-168.37 466.9,-169.11 475.63,-175.12 477.47,-168.37"/>
</g>
<!-- readline&gt;=7.0 -->
<g id="node15" class="node">
<title>readline&gt;=7.0</title>
<ellipse fill="green" stroke="green" cx="456.19" cy="-594" rx="61.19" ry="18"/>
<text text-anchor="middle" x="456.19" y="-590.3" font-family="Times,serif" font-size="14.00">readline&gt;=7.0</text>
</g>
<!-- bash&#45;&gt;readline&gt;=7.0 -->
<g id="edge15" class="edge">
<title>bash&#45;&gt;readline&gt;=7.0</title>
<path fill="none" stroke="#8b4513" d="M448.61,-648.05C449.72,-640.35 451.05,-631.03 452.28,-622.36"/>
<polygon fill="#8b4513" stroke="#8b4513" points="455.78,-622.67 453.73,-612.28 448.85,-621.68 455.78,-622.67"/>
</g>
<!-- ncurses -->
<g id="node17" class="node">
<title>ncurses</title>
<ellipse fill="green" stroke="green" cx="373.19" cy="-378" rx="37.09" ry="18"/>
<text text-anchor="middle" x="373.19" y="-374.3" font-family="Times,serif" font-size="14.00">ncurses</text>
</g>
<!-- bash&#45;&gt;ncurses -->
<g id="edge26" class="edge">
<title>bash&#45;&gt;ncurses</title>
<path fill="none" stroke="#8b4513" d="M426.65,-653.52C412.79,-644.22 395.11,-629.76 386.19,-612 352.21,-544.29 360.94,-451.17 368.11,-405.89"/>
<polygon fill="#8b4513" stroke="#8b4513" points="371.57,-406.41 369.78,-395.96 364.67,-405.24 371.57,-406.41"/>
</g>
<!-- readline -->
<g id="node16" class="node">
<title>readline</title>
<ellipse fill="green" stroke="green" cx="469.19" cy="-522" rx="38.99" ry="18"/>
<text text-anchor="middle" x="469.19" y="-518.3" font-family="Times,serif" font-size="14.00">readline</text>
</g>
<!-- readline&gt;=7.0&#45;&gt;readline -->
<g id="edge16" class="edge">
<title>readline&gt;=7.0&#45;&gt;readline</title>
<path fill="none" stroke="grey" d="M459.41,-575.7C461.42,-564.85 464.01,-550.92 466.02,-540.1"/>
</g>
<!-- readline&#45;&gt;glibc -->
<g id="edge17" class="edge">
<title>readline&#45;&gt;glibc</title>
<path fill="none" stroke="#8b4513" d="M503.06,-513.06C527.58,-505.55 559.58,-491.77 578.19,-468 603.13,-436.15 597.19,-419.45 597.19,-379 597.19,-379 597.19,-379 597.19,-305 597.19,-238.95 519.82,-195.66 473.71,-175.72"/>
<polygon fill="#8b4513" stroke="#8b4513" points="474.96,-172.45 464.38,-171.82 472.26,-178.9 474.96,-172.45"/>
</g>
<!-- readline&#45;&gt;ncurses -->
<g id="edge18" class="edge">
<title>readline&#45;&gt;ncurses</title>
<path fill="none" stroke="#8b4513" d="M442.01,-508.88C425.11,-499.96 404.37,-486.22 392.19,-468 379.95,-449.69 375.41,-424.92 373.81,-406.17"/>
<polygon fill="#8b4513" stroke="#8b4513" points="377.3,-405.94 373.18,-396.18 370.32,-406.38 377.3,-405.94"/>
</g>
<!-- libncursesw.so=6&#45;64 -->
<g id="node20" class="node">
<title>libncursesw.so=6&#45;64</title>
<ellipse fill="green" stroke="green" cx="485.19" cy="-450" rx="83.69" ry="18"/>
<text text-anchor="middle" x="485.19" y="-446.3" font-family="Times,serif" font-size="14.00">libncursesw.so=6&#45;64</text>
</g>
<!-- readline&#45;&gt;libncursesw.so=6&#45;64 -->
<g id="edge23" class="edge">
<title>readline&#45;&gt;libncursesw.so=6&#45;64</title>
<path fill="none" stroke="#8b4513" d="M473.07,-504.05C474.85,-496.26 477.01,-486.82 479,-478.08"/>
<polygon fill="#8b4513" stroke="#8b4513" points="482.43,-478.8 481.25,-468.28 475.6,-477.24 482.43,-478.8"/>
</g>
<!-- ncurses&#45;&gt;glibc -->
<g id="edge19" class="edge">
<title>ncurses&#45;&gt;glibc</title>
<path fill="none" stroke="#8b4513" d="M384.59,-360.47C391.13,-350.33 399.05,-336.87 404.19,-324 422.26,-278.84 432.2,-222.76 436.84,-190.11"/>
<polygon fill="#8b4513" stroke="#8b4513" points="440.34,-190.36 438.22,-179.98 433.4,-189.42 440.34,-190.36"/>
</g>
<!-- gcc&#45;libs -->
<g id="node18" class="node">
<title>gcc&#45;libs</title>
<ellipse fill="green" stroke="green" cx="357.19" cy="-306" rx="38.19" ry="18"/>
<text text-anchor="middle" x="357.19" y="-302.3" font-family="Times,serif" font-size="14.00">gcc&#45;libs</text>
</g>
<!-- ncurses&#45;&gt;gcc&#45;libs -->
<g id="edge20" class="edge">
<title>ncurses&#45;&gt;gcc&#45;libs</title>
<path fill="none" stroke="#8b4513" d="M369.32,-360.05C367.54,-352.26 365.38,-342.82 363.38,-334.08"/>
<polygon fill="#8b4513" stroke="#8b4513" points="366.78,-333.24 361.14,-324.28 359.96,-334.8 366.78,-333.24"/>
</g>
<!-- glibc&gt;=2.27 -->
<g id="node19" class="node">
<title>glibc&gt;=2.27</title>
<ellipse fill="green" stroke="green" cx="357.19" cy="-234" rx="54.69" ry="18"/>
<text text-anchor="middle" x="357.19" y="-230.3" font-family="Times,serif" font-size="14.00">glibc&gt;=2.27</text>
</g>
<!-- gcc&#45;libs&#45;&gt;glibc&gt;=2.27 -->
<g id="edge21" class="edge">
<title>gcc&#45;libs&#45;&gt;glibc&gt;=2.27</title>
<path fill="none" stroke="#8b4513" d="M357.19,-287.7C357.19,-279.98 357.19,-270.71 357.19,-262.11"/>
<polygon fill="#8b4513" stroke="#8b4513" points="360.69,-262.1 357.19,-252.1 353.69,-262.1 360.69,-262.1"/>
</g>
<!-- glibc&gt;=2.27&#45;&gt;glibc -->
<g id="edge22" class="edge">
<title>glibc&gt;=2.27&#45;&gt;glibc</title>
<path fill="none" stroke="grey" d="M376.44,-216.76C390.81,-204.65 410.23,-188.27 423.85,-176.79"/>
</g>
<!-- libncursesw.so=6&#45;64&#45;&gt;ncurses -->
<g id="edge24" class="edge">
<title>libncursesw.so=6&#45;64&#45;&gt;ncurses</title>
<path fill="none" stroke="grey" d="M459.22,-432.76C439.83,-420.65 413.63,-404.27 395.25,-392.79"/>
</g>
<!-- gdbm&#45;&gt;glibc -->
<g id="edge28" class="edge">
<title>gdbm&#45;&gt;glibc</title>
<path fill="none" stroke="#8b4513" d="M307.34,-792.89C289.85,-767.49 259.19,-715.98 259.19,-667 259.19,-667 259.19,-667 259.19,-305 259.19,-262.66 262.97,-245.66 293.19,-216 322.72,-187.02 369.23,-173.76 402.02,-167.78"/>
<polygon fill="#8b4513" stroke="#8b4513" points="402.86,-171.18 412.14,-166.08 401.7,-164.28 402.86,-171.18"/>
</g>
<!-- gdbm&#45;&gt;sh -->
<g id="edge29" class="edge">
<title>gdbm&#45;&gt;sh</title>
<path fill="none" stroke="#8b4513" d="M341.03,-796.97C361.97,-785.42 393.74,-767.91 416.88,-755.16"/>
<polygon fill="#8b4513" stroke="#8b4513" points="418.84,-758.08 425.9,-750.18 415.46,-751.95 418.84,-758.08"/>
</g>
<!-- perl -->
<g id="node23" class="node">
<title>perl</title>
<ellipse fill="green" stroke="green" cx="341.19" cy="-954" rx="27" ry="18"/>
<text text-anchor="middle" x="341.19" y="-950.3" font-family="Times,serif" font-size="14.00">perl</text>
</g>
<!-- openssl&#45;&gt;perl -->
<g id="edge31" class="edge">
<title>openssl&#45;&gt;perl</title>
<path fill="none" stroke="#8b4513" d="M332.91,-1007.7C334.13,-999.98 335.58,-990.71 336.93,-982.11"/>
<polygon fill="#8b4513" stroke="#8b4513" points="340.41,-982.53 338.51,-972.1 333.5,-981.44 340.41,-982.53"/>
</g>
<!-- perl&#45;&gt;glibc -->
<g id="edge38" class="edge">
<title>perl&#45;&gt;glibc</title>
<path fill="none" stroke="#8b4513" d="M322.98,-940.4C310.33,-930.73 294.04,-916.31 284.19,-900 228.77,-808.15 221.19,-774.27 221.19,-667 221.19,-667 221.19,-667 221.19,-305 221.19,-261.26 230.04,-244.52 263.19,-216 302.31,-182.35 362.17,-170.06 401.24,-165.58"/>
<polygon fill="#8b4513" stroke="#8b4513" points="402.09,-169.01 411.68,-164.51 401.38,-162.04 402.09,-169.01"/>
</g>
<!-- gdbm&gt;=1.17 -->
<g id="node24" class="node">
<title>gdbm&gt;=1.17</title>
<ellipse fill="green" stroke="green" cx="351.19" cy="-882" rx="57.69" ry="18"/>
<text text-anchor="middle" x="351.19" y="-878.3" font-family="Times,serif" font-size="14.00">gdbm&gt;=1.17</text>
</g>
<!-- perl&#45;&gt;gdbm&gt;=1.17 -->
<g id="edge32" class="edge">
<title>perl&#45;&gt;gdbm&gt;=1.17</title>
<path fill="none" stroke="#8b4513" d="M343.61,-936.05C344.72,-928.35 346.05,-919.03 347.28,-910.36"/>
<polygon fill="#8b4513" stroke="#8b4513" points="350.78,-910.67 348.73,-900.28 343.85,-909.68 350.78,-910.67"/>
</g>
<!-- db -->
<g id="node25" class="node">
<title>db</title>
<ellipse fill="green" stroke="green" cx="437.19" cy="-810" rx="27" ry="18"/>
<text text-anchor="middle" x="437.19" y="-806.3" font-family="Times,serif" font-size="14.00">db</text>
</g>
<!-- perl&#45;&gt;db -->
<g id="edge34" class="edge">
<title>perl&#45;&gt;db</title>
<path fill="none" stroke="#8b4513" d="M363.26,-943.5C380.88,-934.76 404.76,-920.1 418.19,-900 430.43,-881.69 434.98,-856.92 436.58,-838.17"/>
<polygon fill="#8b4513" stroke="#8b4513" points="440.07,-838.38 437.2,-828.18 433.08,-837.94 440.07,-838.38"/>
</g>
<!-- gdbm&gt;=1.17&#45;&gt;gdbm -->
<g id="edge33" class="edge">
<title>gdbm&gt;=1.17&#45;&gt;gdbm</title>
<path fill="none" stroke="grey" d="M343.45,-864.05C338.42,-853.05 331.89,-838.76 326.87,-827.79"/>
</g>
<!-- db&#45;&gt;sh -->
<g id="edge36" class="edge">
<title>db&#45;&gt;sh</title>
<path fill="none" stroke="#8b4513" d="M439.37,-792.05C440.36,-784.35 441.56,-775.03 442.68,-766.36"/>
<polygon fill="#8b4513" stroke="#8b4513" points="446.17,-766.64 443.97,-756.28 439.23,-765.75 446.17,-766.64"/>
</g>
<!-- db&#45;&gt;gcc&#45;libs -->
<g id="edge35" class="edge">
<title>db&#45;&gt;gcc&#45;libs</title>
<path fill="none" stroke="#8b4513" d="M415.32,-799.28C375.94,-780.11 297.19,-733.47 297.19,-667 297.19,-667 297.19,-667 297.19,-449 297.19,-405.24 321.67,-359.45 339.36,-332.07"/>
<polygon fill="#8b4513" stroke="#8b4513" points="342.42,-333.79 345.05,-323.53 336.6,-329.91 342.42,-333.79"/>
</g>
<!-- libffi&#45;&gt;glibc -->
<g id="edge40" class="edge">
<title>libffi&#45;&gt;glibc</title>
<path fill="none" stroke="#8b4513" d="M640.15,-1227.02C665.27,-1203.37 711.19,-1152.78 711.19,-1099 711.19,-1099 711.19,-1099 711.19,-305 711.19,-201.26 553.45,-173.16 478.66,-165.67"/>
<polygon fill="#8b4513" stroke="#8b4513" points="478.96,-162.18 468.68,-164.74 478.32,-169.15 478.96,-162.18"/>
</g>
<!-- zlib&#45;&gt;glibc -->
<g id="edge42" class="edge">
<title>zlib&#45;&gt;glibc</title>
<path fill="none" stroke="#8b4513" d="M764.61,-1151.97C762.28,-1125.33 758.19,-1072.19 758.19,-1027 758.19,-1027 758.19,-1027 758.19,-305 758.19,-262.81 757.47,-243.17 725.19,-216 688.39,-185.01 547.6,-170.75 478.67,-165.51"/>
<polygon fill="#8b4513" stroke="#8b4513" points="478.88,-162.02 468.65,-164.78 478.37,-169 478.88,-162.02"/>
</g>
<!-- libtirpc -->
<g id="node29" class="node">
<title>libtirpc</title>
<ellipse fill="green" stroke="green" cx="416.19" cy="-1314" rx="36.29" ry="18"/>
<text text-anchor="middle" x="416.19" y="-1310.3" font-family="Times,serif" font-size="14.00">libtirpc</text>
</g>
<!-- libnsl&#45;&gt;libtirpc -->
<g id="edge44" class="edge">
<title>libnsl&#45;&gt;libtirpc</title>
<path fill="none" stroke="#8b4513" d="M403.31,-1368.05C405.2,-1360.26 407.49,-1350.82 409.62,-1342.08"/>
<polygon fill="#8b4513" stroke="#8b4513" points="413.04,-1342.82 412,-1332.28 406.24,-1341.17 413.04,-1342.82"/>
</g>
<!-- krb5 -->
<g id="node30" class="node">
<title>krb5</title>
<ellipse fill="green" stroke="green" cx="440.19" cy="-1242" rx="27.1" ry="18"/>
<text text-anchor="middle" x="440.19" y="-1238.3" font-family="Times,serif" font-size="14.00">krb5</text>
</g>
<!-- libtirpc&#45;&gt;krb5 -->
<g id="edge45" class="edge">
<title>libtirpc&#45;&gt;krb5</title>
<path fill="none" stroke="#8b4513" d="M422,-1296.05C424.75,-1288.06 428.08,-1278.33 431.14,-1269.4"/>
<polygon fill="#8b4513" stroke="#8b4513" points="434.51,-1270.38 434.44,-1259.79 427.88,-1268.11 434.51,-1270.38"/>
</g>
<!-- e2fsprogs -->
<g id="node31" class="node">
<title>e2fsprogs</title>
<ellipse fill="green" stroke="green" cx="473.19" cy="-1098" rx="44.69" ry="18"/>
<text text-anchor="middle" x="473.19" y="-1094.3" font-family="Times,serif" font-size="14.00">e2fsprogs</text>
</g>
<!-- krb5&#45;&gt;e2fsprogs -->
<g id="edge46" class="edge">
<title>krb5&#45;&gt;e2fsprogs</title>
<path fill="none" stroke="#8b4513" d="M444.94,-1223.87C447.76,-1213.51 451.32,-1200.03 454.19,-1188 459.11,-1167.38 464.1,-1143.93 467.72,-1126.28"/>
<polygon fill="#8b4513" stroke="#8b4513" points="471.23,-1126.61 469.79,-1116.12 464.37,-1125.22 471.23,-1126.61"/>
</g>
<!-- libldap -->
<g id="node33" class="node">
<title>libldap</title>
<ellipse fill="green" stroke="green" cx="410.19" cy="-1170" rx="35.19" ry="18"/>
<text text-anchor="middle" x="410.19" y="-1166.3" font-family="Times,serif" font-size="14.00">libldap</text>
</g>
<!-- krb5&#45;&gt;libldap -->
<g id="edge50" class="edge">
<title>krb5&#45;&gt;libldap</title>
<path fill="none" stroke="#8b4513" d="M433.08,-1224.41C429.62,-1216.34 425.38,-1206.43 421.49,-1197.35"/>
<polygon fill="#8b4513" stroke="#8b4513" points="424.62,-1195.77 417.46,-1187.96 418.18,-1198.53 424.62,-1195.77"/>
</g>
<!-- keyutils -->
<g id="node35" class="node">
<title>keyutils</title>
<ellipse fill="green" stroke="green" cx="585.19" cy="-810" rx="38.19" ry="18"/>
<text text-anchor="middle" x="585.19" y="-806.3" font-family="Times,serif" font-size="14.00">keyutils</text>
</g>
<!-- krb5&#45;&gt;keyutils -->
<g id="edge54" class="edge">
<title>krb5&#45;&gt;keyutils</title>
<path fill="none" stroke="#8b4513" d="M461.53,-1230.42C498.65,-1210.33 571.19,-1162.9 571.19,-1099 571.19,-1099 571.19,-1099 571.19,-953 571.19,-912.8 576.82,-866.51 580.94,-838"/>
<polygon fill="#8b4513" stroke="#8b4513" points="584.42,-838.4 582.43,-828 577.49,-837.37 584.42,-838.4"/>
</g>
<!-- e2fsprogs&#45;&gt;sh -->
<g id="edge47" class="edge">
<title>e2fsprogs&#45;&gt;sh</title>
<path fill="none" stroke="#8b4513" d="M483.12,-1080.32C488.81,-1070.12 495.71,-1056.65 500.19,-1044 513.71,-1005.88 519.19,-995.45 519.19,-955 519.19,-955 519.19,-955 519.19,-881 519.19,-834.73 488.15,-788.42 466.55,-761.8"/>
<polygon fill="#8b4513" stroke="#8b4513" points="469.03,-759.3 459.92,-753.88 463.66,-763.79 469.03,-759.3"/>
</g>
<!-- libutil&#45;linux -->
<g id="node32" class="node">
<title>libutil&#45;linux</title>
<ellipse fill="green" stroke="green" cx="438.19" cy="-1026" rx="52.79" ry="18"/>
<text text-anchor="middle" x="438.19" y="-1022.3" font-family="Times,serif" font-size="14.00">libutil&#45;linux</text>
</g>
<!-- e2fsprogs&#45;&gt;libutil&#45;linux -->
<g id="edge49" class="edge">
<title>e2fsprogs&#45;&gt;libutil&#45;linux</title>
<path fill="none" stroke="#8b4513" d="M464.72,-1080.05C460.64,-1071.89 455.65,-1061.91 451.11,-1052.82"/>
<polygon fill="#8b4513" stroke="#8b4513" points="454.19,-1051.17 446.59,-1043.79 447.93,-1054.3 454.19,-1051.17"/>
</g>
<!-- libldap&#45;&gt;e2fsprogs -->
<g id="edge53" class="edge">
<title>libldap&#45;&gt;e2fsprogs</title>
<path fill="none" stroke="#8b4513" d="M424.18,-1153.46C432.18,-1144.57 442.41,-1133.21 451.45,-1123.16"/>
<polygon fill="#8b4513" stroke="#8b4513" points="454.29,-1125.24 458.37,-1115.47 449.08,-1120.56 454.29,-1125.24"/>
</g>
<!-- libsasl -->
<g id="node34" class="node">
<title>libsasl</title>
<ellipse fill="green" stroke="green" cx="377.19" cy="-1098" rx="33.29" ry="18"/>
<text text-anchor="middle" x="377.19" y="-1094.3" font-family="Times,serif" font-size="14.00">libsasl</text>
</g>
<!-- libldap&#45;&gt;libsasl -->
<g id="edge51" class="edge">
<title>libldap&#45;&gt;libsasl</title>
<path fill="none" stroke="#8b4513" d="M402.37,-1152.41C398.53,-1144.25 393.8,-1134.22 389.48,-1125.07"/>
<polygon fill="#8b4513" stroke="#8b4513" points="392.62,-1123.51 385.19,-1115.96 386.29,-1126.49 392.62,-1123.51"/>
</g>
<!-- libsasl&#45;&gt;openssl -->
<g id="edge52" class="edge">
<title>libsasl&#45;&gt;openssl</title>
<path fill="none" stroke="#8b4513" d="M366.29,-1080.76C360.56,-1072.23 353.41,-1061.58 346.99,-1052.02"/>
<polygon fill="#8b4513" stroke="#8b4513" points="349.84,-1049.98 341.36,-1043.63 344.03,-1053.89 349.84,-1049.98"/>
</g>
<!-- keyutils&#45;&gt;glibc -->
<g id="edge55" class="edge">
<title>keyutils&#45;&gt;glibc</title>
<path fill="none" stroke="#8b4513" d="M602.58,-793.89C628.23,-769.83 673.19,-720.08 673.19,-667 673.19,-667 673.19,-667 673.19,-305 673.19,-214.62 543.77,-180.08 477.84,-168.35"/>
<polygon fill="#8b4513" stroke="#8b4513" points="478.28,-164.88 467.84,-166.66 477.11,-171.78 478.28,-164.88"/>
</g>
<!-- keyutils&#45;&gt;sh -->
<g id="edge56" class="edge">
<title>keyutils&#45;&gt;sh</title>
<path fill="none" stroke="#8b4513" d="M560.02,-796.32C536.44,-784.45 501.16,-766.68 476.14,-754.08"/>
<polygon fill="#8b4513" stroke="#8b4513" points="477.6,-750.9 467.1,-749.53 474.45,-757.15 477.6,-750.9"/>
</g>
<!-- python&#45;urllib3 -->
<g id="node37" class="node">
<title>python&#45;urllib3</title>
<ellipse fill="green" stroke="green" cx="621.19" cy="-1674" rx="61.99" ry="18"/>
<text text-anchor="middle" x="621.19" y="-1670.3" font-family="Times,serif" font-size="14.00">python&#45;urllib3</text>
</g>
<!-- python&#45;requests&#45;&gt;python&#45;urllib3 -->
<g id="edge59" class="edge">
<title>python&#45;requests&#45;&gt;python&#45;urllib3</title>
<path fill="none" stroke="#8b4513" d="M452.29,-1809.82C488.59,-1802.97 534.08,-1789.68 567.19,-1764 587.96,-1747.89 602.56,-1721.36 611.3,-1701.45"/>
<polygon fill="#8b4513" stroke="#8b4513" points="614.62,-1702.59 615.23,-1692.01 608.15,-1699.9 614.62,-1702.59"/>
</g>
<!-- python&#45;chardet -->
<g id="node38" class="node">
<title>python&#45;chardet</title>
<ellipse fill="green" stroke="green" cx="357.19" cy="-1746" rx="63.89" ry="18"/>
<text text-anchor="middle" x="357.19" y="-1742.3" font-family="Times,serif" font-size="14.00">python&#45;chardet</text>
</g>
<!-- python&#45;requests&#45;&gt;python&#45;chardet -->
<g id="edge61" class="edge">
<title>python&#45;requests&#45;&gt;python&#45;chardet</title>
<path fill="none" stroke="#8b4513" d="M383.72,-1800.05C379.7,-1792.01 374.8,-1782.2 370.31,-1773.23"/>
<polygon fill="#8b4513" stroke="#8b4513" points="373.43,-1771.65 365.83,-1764.28 367.17,-1774.78 373.43,-1771.65"/>
</g>
<!-- python&#45;idna -->
<g id="node45" class="node">
<title>python&#45;idna</title>
<ellipse fill="green" stroke="green" cx="505.19" cy="-1746" rx="53.09" ry="18"/>
<text text-anchor="middle" x="505.19" y="-1742.3" font-family="Times,serif" font-size="14.00">python&#45;idna</text>
</g>
<!-- python&#45;requests&#45;&gt;python&#45;idna -->
<g id="edge72" class="edge">
<title>python&#45;requests&#45;&gt;python&#45;idna</title>
<path fill="none" stroke="#8b4513" d="M417.55,-1801.29C433.62,-1791.34 454.58,-1778.35 471.97,-1767.58"/>
<polygon fill="#8b4513" stroke="#8b4513" points="474.04,-1770.42 480.7,-1762.18 470.35,-1764.47 474.04,-1770.42"/>
</g>
<!-- python&#45;urllib3&#45;&gt;python -->
<g id="edge60" class="edge">
<title>python&#45;urllib3&#45;&gt;python</title>
<path fill="none" stroke="#8b4513" d="M618.19,-1655.87C611.45,-1622.69 591.87,-1549.64 545.19,-1512 492.55,-1469.55 412.11,-1459.85 361.91,-1458.29"/>
<polygon fill="#8b4513" stroke="#8b4513" points="361.75,-1454.78 351.68,-1458.07 361.6,-1461.78 361.75,-1454.78"/>
</g>
<!-- python&#45;setuptools -->
<g id="node39" class="node">
<title>python&#45;setuptools</title>
<ellipse fill="green" stroke="green" cx="307.19" cy="-1674" rx="73.39" ry="18"/>
<text text-anchor="middle" x="307.19" y="-1670.3" font-family="Times,serif" font-size="14.00">python&#45;setuptools</text>
</g>
<!-- python&#45;chardet&#45;&gt;python&#45;setuptools -->
<g id="edge62" class="edge">
<title>python&#45;chardet&#45;&gt;python&#45;setuptools</title>
<path fill="none" stroke="#8b4513" d="M345.09,-1728.05C339.07,-1719.63 331.68,-1709.28 325.03,-1699.97"/>
<polygon fill="#8b4513" stroke="#8b4513" points="327.85,-1697.89 319.19,-1691.79 322.15,-1701.96 327.85,-1697.89"/>
</g>
<!-- python&#45;appdirs -->
<g id="node40" class="node">
<title>python&#45;appdirs</title>
<ellipse fill="green" stroke="green" cx="162.19" cy="-1530" rx="63.89" ry="18"/>
<text text-anchor="middle" x="162.19" y="-1526.3" font-family="Times,serif" font-size="14.00">python&#45;appdirs</text>
</g>
<!-- python&#45;setuptools&#45;&gt;python&#45;appdirs -->
<g id="edge63" class="edge">
<title>python&#45;setuptools&#45;&gt;python&#45;appdirs</title>
<path fill="none" stroke="#8b4513" d="M292.19,-1656.13C275.74,-1637.87 248.33,-1608.13 223.19,-1584 212.55,-1573.78 200.35,-1563.01 189.68,-1553.87"/>
<polygon fill="#8b4513" stroke="#8b4513" points="191.75,-1551.04 181.86,-1547.23 187.22,-1556.37 191.75,-1551.04"/>
</g>
<!-- python&#45;packaging -->
<g id="node41" class="node">
<title>python&#45;packaging</title>
<ellipse fill="green" stroke="green" cx="344.19" cy="-1602" rx="74.19" ry="18"/>
<text text-anchor="middle" x="344.19" y="-1598.3" font-family="Times,serif" font-size="14.00">python&#45;packaging</text>
</g>
<!-- python&#45;setuptools&#45;&gt;python&#45;packaging -->
<g id="edge65" class="edge">
<title>python&#45;setuptools&#45;&gt;python&#45;packaging</title>
<path fill="none" stroke="#8b4513" d="M316.15,-1656.05C320.4,-1648.01 325.59,-1638.2 330.33,-1629.23"/>
<polygon fill="#8b4513" stroke="#8b4513" points="333.48,-1630.75 335.06,-1620.28 327.3,-1627.48 333.48,-1630.75"/>
</g>
<!-- python&#45;ordered&#45;set -->
<g id="node44" class="node">
<title>python&#45;ordered&#45;set</title>
<ellipse fill="green" stroke="green" cx="137.19" cy="-1602" rx="77.19" ry="18"/>
<text text-anchor="middle" x="137.19" y="-1598.3" font-family="Times,serif" font-size="14.00">python&#45;ordered&#45;set</text>
</g>
<!-- python&#45;setuptools&#45;&gt;python&#45;ordered&#45;set -->
<g id="edge70" class="edge">
<title>python&#45;setuptools&#45;&gt;python&#45;ordered&#45;set</title>
<path fill="none" stroke="#8b4513" d="M271.14,-1658.15C245.42,-1647.56 210.63,-1633.24 182.95,-1621.84"/>
<polygon fill="#8b4513" stroke="#8b4513" points="184.07,-1618.52 173.49,-1617.94 181.4,-1624.99 184.07,-1618.52"/>
</g>
<!-- python&#45;appdirs&#45;&gt;python -->
<g id="edge64" class="edge">
<title>python&#45;appdirs&#45;&gt;python</title>
<path fill="none" stroke="#8b4513" d="M194.48,-1514.33C219.93,-1502.76 255.35,-1486.65 281.43,-1474.8"/>
<polygon fill="#8b4513" stroke="#8b4513" points="282.92,-1477.97 290.57,-1470.65 280.02,-1471.6 282.92,-1477.97"/>
</g>
<!-- python&#45;pyparsing -->
<g id="node42" class="node">
<title>python&#45;pyparsing</title>
<ellipse fill="green" stroke="green" cx="316.19" cy="-1530" rx="72.59" ry="18"/>
<text text-anchor="middle" x="316.19" y="-1526.3" font-family="Times,serif" font-size="14.00">python&#45;pyparsing</text>
</g>
<!-- python&#45;packaging&#45;&gt;python&#45;pyparsing -->
<g id="edge66" class="edge">
<title>python&#45;packaging&#45;&gt;python&#45;pyparsing</title>
<path fill="none" stroke="#8b4513" d="M337.42,-1584.05C334.26,-1576.18 330.44,-1566.62 326.91,-1557.79"/>
<polygon fill="#8b4513" stroke="#8b4513" points="330.07,-1556.26 323.1,-1548.28 323.57,-1558.86 330.07,-1556.26"/>
</g>
<!-- python&#45;six -->
<g id="node43" class="node">
<title>python&#45;six</title>
<ellipse fill="green" stroke="green" cx="455.19" cy="-1530" rx="48.19" ry="18"/>
<text text-anchor="middle" x="455.19" y="-1526.3" font-family="Times,serif" font-size="14.00">python&#45;six</text>
</g>
<!-- python&#45;packaging&#45;&gt;python&#45;six -->
<g id="edge68" class="edge">
<title>python&#45;packaging&#45;&gt;python&#45;six</title>
<path fill="none" stroke="#8b4513" d="M369.66,-1584.94C385.57,-1574.9 406.21,-1561.89 423.22,-1551.16"/>
<polygon fill="#8b4513" stroke="#8b4513" points="425.15,-1554.09 431.74,-1545.79 421.41,-1548.16 425.15,-1554.09"/>
</g>
<!-- python&#45;pyparsing&#45;&gt;python -->
<g id="edge67" class="edge">
<title>python&#45;pyparsing&#45;&gt;python</title>
<path fill="none" stroke="#8b4513" d="M316.19,-1511.7C316.19,-1503.98 316.19,-1494.71 316.19,-1486.11"/>
<polygon fill="#8b4513" stroke="#8b4513" points="319.69,-1486.1 316.19,-1476.1 312.69,-1486.1 319.69,-1486.1"/>
</g>
<!-- python&#45;six&#45;&gt;python -->
<g id="edge69" class="edge">
<title>python&#45;six&#45;&gt;python</title>
<path fill="none" stroke="#8b4513" d="M427.73,-1515.17C405.24,-1503.84 373.34,-1487.78 349.42,-1475.73"/>
<polygon fill="#8b4513" stroke="#8b4513" points="350.85,-1472.54 340.35,-1471.16 347.71,-1478.79 350.85,-1472.54"/>
</g>
<!-- python&#45;ordered&#45;set&#45;&gt;python -->
<g id="edge71" class="edge">
<title>python&#45;ordered&#45;set&#45;&gt;python</title>
<path fill="none" stroke="#8b4513" d="M117.22,-1584.54C96.95,-1565.84 70.97,-1534.97 89.19,-1512 111.5,-1483.89 211.85,-1469.29 271.4,-1462.97"/>
<polygon fill="#8b4513" stroke="#8b4513" points="272.07,-1466.42 281.66,-1461.92 271.35,-1459.46 272.07,-1466.42"/>
</g>
<!-- python&#45;idna&#45;&gt;python -->
<g id="edge73" class="edge">
<title>python&#45;idna&#45;&gt;python</title>
<path fill="none" stroke="#8b4513" d="M512.27,-1727.87C528.3,-1686.05 562.25,-1577.39 512.19,-1512 493.81,-1487.99 412.04,-1472.36 360.1,-1464.66"/>
<polygon fill="#8b4513" stroke="#8b4513" points="360.53,-1461.18 350.13,-1463.22 359.53,-1468.11 360.53,-1461.18"/>
</g>
</g>
</svg>
