<?xml version="1.0" encoding="UTF-8" standalone="no"?>
<!DOCTYPE svg PUBLIC "-//W3C//DTD SVG 1.1//EN"
 "http://www.w3.org/Graphics/SVG/1.1/DTD/svg11.dtd">
<!-- Generated by graphviz version 2.44.0 (0)
 -->
<!-- Title: G Pages: 1 -->
<svg width="697pt" height="1556pt"
 viewBox="0.00 0.00 696.65 1556.00" xmlns="http://www.w3.org/2000/svg" xmlns:xlink="http://www.w3.org/1999/xlink">
<g id="graph0" class="graph" transform="scale(1 1) rotate(0) translate(4 1552)">
<title>G</title>
<polygon fill="white" stroke="transparent" points="-4,4 -4,-1552 692.65,-1552 692.65,4 -4,4"/>
<!-- START -->
<g id="node1" class="node">
<title>START</title>
<ellipse fill="red" stroke="red" cx="451.65" cy="-1530" rx="38.19" ry="18"/>
<text text-anchor="middle" x="451.65" y="-1526.3" font-family="Times,serif" font-size="14.00">START</text>
</g>
<!-- shadow -->
<g id="node2" class="node">
<title>shadow</title>
<ellipse fill="green" stroke="green" cx="451.65" cy="-1458" rx="37.89" ry="18"/>
<text text-anchor="middle" x="451.65" y="-1454.3" font-family="Times,serif" font-size="14.00">shadow</text>
</g>
<!-- START&#45;&gt;shadow -->
<g id="edge1" class="edge">
<title>START&#45;&gt;shadow</title>
<path fill="none" stroke="black" d="M451.65,-1511.7C451.65,-1503.98 451.65,-1494.71 451.65,-1486.11"/>
<polygon fill="black" stroke="black" points="455.15,-1486.1 451.65,-1476.1 448.15,-1486.1 455.15,-1486.1"/>
</g>
<!-- pam -->
<g id="node3" class="node">
<title>pam</title>
<ellipse fill="green" stroke="green" cx="235.65" cy="-1386" rx="27" ry="18"/>
<text text-anchor="middle" x="235.65" y="-1382.3" font-family="Times,serif" font-size="14.00">pam</text>
</g>
<!-- shadow&#45;&gt;pam -->
<g id="edge2" class="edge">
<title>shadow&#45;&gt;pam</title>
<path fill="none" stroke="#8b4513" d="M421.16,-1447.12C380.98,-1434.1 310.55,-1411.27 268.99,-1397.81"/>
<polygon fill="#8b4513" stroke="#8b4513" points="269.93,-1394.43 259.33,-1394.68 267.77,-1401.09 269.93,-1394.43"/>
</g>
<!-- acl -->
<g id="node33" class="node">
<title>acl</title>
<ellipse fill="green" stroke="green" cx="651.65" cy="-1386" rx="27" ry="18"/>
<text text-anchor="middle" x="651.65" y="-1382.3" font-family="Times,serif" font-size="14.00">acl</text>
</g>
<!-- shadow&#45;&gt;acl -->
<g id="edge51" class="edge">
<title>shadow&#45;&gt;acl</title>
<path fill="none" stroke="#8b4513" d="M481.16,-1446.67C517.86,-1433.82 580.35,-1411.95 618.62,-1398.56"/>
<polygon fill="#8b4513" stroke="#8b4513" points="619.98,-1401.79 628.26,-1395.18 617.67,-1395.18 619.98,-1401.79"/>
</g>
<!-- audit -->
<g id="node35" class="node">
<title>audit</title>
<ellipse fill="green" stroke="green" cx="497.65" cy="-1314" rx="28.7" ry="18"/>
<text text-anchor="middle" x="497.65" y="-1310.3" font-family="Times,serif" font-size="14.00">audit</text>
</g>
<!-- shadow&#45;&gt;audit -->
<g id="edge54" class="edge">
<title>shadow&#45;&gt;audit</title>
<path fill="none" stroke="#8b4513" d="M438.72,-1440.96C425.65,-1422.66 409.05,-1392.14 421.65,-1368 430.79,-1350.48 448.67,-1337.56 464.79,-1328.87"/>
<polygon fill="#8b4513" stroke="#8b4513" points="466.63,-1331.86 473.99,-1324.24 463.49,-1325.61 466.63,-1331.86"/>
</g>
<!-- libaudit.so=1&#45;64 -->
<g id="node37" class="node">
<title>libaudit.so=1&#45;64</title>
<ellipse fill="green" stroke="green" cx="500.65" cy="-1386" rx="69.59" ry="18"/>
<text text-anchor="middle" x="500.65" y="-1382.3" font-family="Times,serif" font-size="14.00">libaudit.so=1&#45;64</text>
</g>
<!-- shadow&#45;&gt;libaudit.so=1&#45;64 -->
<g id="edge58" class="edge">
<title>shadow&#45;&gt;libaudit.so=1&#45;64</title>
<path fill="none" stroke="#8b4513" d="M463.01,-1440.76C468.9,-1432.35 476.22,-1421.89 482.84,-1412.44"/>
<polygon fill="#8b4513" stroke="#8b4513" points="485.79,-1414.32 488.66,-1404.12 480.06,-1410.31 485.79,-1414.32"/>
</g>
<!-- glibc -->
<g id="node4" class="node">
<title>glibc</title>
<ellipse fill="green" stroke="green" cx="307.65" cy="-162" rx="28.7" ry="18"/>
<text text-anchor="middle" x="307.65" y="-158.3" font-family="Times,serif" font-size="14.00">glibc</text>
</g>
<!-- pam&#45;&gt;glibc -->
<g id="edge3" class="edge">
<title>pam&#45;&gt;glibc</title>
<path fill="none" stroke="#8b4513" d="M214.8,-1374.29C178.53,-1353.99 107.65,-1306.23 107.65,-1243 107.65,-1243 107.65,-1243 107.65,-305 107.65,-261.07 117.71,-245.07 150.65,-216 184.07,-186.5 234.56,-173.29 269.21,-167.46"/>
<polygon fill="#8b4513" stroke="#8b4513" points="270.07,-170.87 279.41,-165.88 269,-163.96 270.07,-170.87"/>
</g>
<!-- cracklib -->
<g id="node10" class="node">
<title>cracklib</title>
<ellipse fill="green" stroke="green" cx="39.65" cy="-306" rx="39.79" ry="18"/>
<text text-anchor="middle" x="39.65" y="-302.3" font-family="Times,serif" font-size="14.00">cracklib</text>
</g>
<!-- pam&#45;&gt;cracklib -->
<g id="edge9" class="edge">
<title>pam&#45;&gt;cracklib</title>
<path fill="none" stroke="#8b4513" d="M209.34,-1381.48C178.1,-1376.02 126.15,-1362.74 93.65,-1332 62.27,-1302.33 54.65,-1286.19 54.65,-1243 54.65,-1243 54.65,-1243 54.65,-449 54.65,-408.77 48.62,-362.49 44.21,-333.99"/>
<polygon fill="#8b4513" stroke="#8b4513" points="47.64,-333.31 42.61,-323.99 40.73,-334.41 47.64,-333.31"/>
</g>
<!-- libtirpc -->
<g id="node12" class="node">
<title>libtirpc</title>
<ellipse fill="green" stroke="green" cx="235.65" cy="-1314" rx="36.29" ry="18"/>
<text text-anchor="middle" x="235.65" y="-1310.3" font-family="Times,serif" font-size="14.00">libtirpc</text>
</g>
<!-- pam&#45;&gt;libtirpc -->
<g id="edge13" class="edge">
<title>pam&#45;&gt;libtirpc</title>
<path fill="none" stroke="#8b4513" d="M235.65,-1367.7C235.65,-1359.98 235.65,-1350.71 235.65,-1342.11"/>
<polygon fill="#8b4513" stroke="#8b4513" points="239.15,-1342.1 235.65,-1332.1 232.15,-1342.1 239.15,-1342.1"/>
</g>
<!-- pambase -->
<g id="node32" class="node">
<title>pambase</title>
<ellipse fill="green" stroke="green" cx="332.65" cy="-1314" rx="42.49" ry="18"/>
<text text-anchor="middle" x="332.65" y="-1310.3" font-family="Times,serif" font-size="14.00">pambase</text>
</g>
<!-- pam&#45;&gt;pambase -->
<g id="edge50" class="edge">
<title>pam&#45;&gt;pambase</title>
<path fill="none" stroke="#8b4513" d="M253.44,-1372.16C267.5,-1362.01 287.42,-1347.64 303.77,-1335.84"/>
<polygon fill="#8b4513" stroke="#8b4513" points="305.88,-1338.63 311.94,-1329.94 301.78,-1332.96 305.88,-1338.63"/>
</g>
<!-- linux&#45;api&#45;headers&gt;=4.10 -->
<g id="node5" class="node">
<title>linux&#45;api&#45;headers&gt;=4.10</title>
<ellipse fill="green" stroke="green" cx="159.65" cy="-90" rx="98.28" ry="18"/>
<text text-anchor="middle" x="159.65" y="-86.3" font-family="Times,serif" font-size="14.00">linux&#45;api&#45;headers&gt;=4.10</text>
</g>
<!-- glibc&#45;&gt;linux&#45;api&#45;headers&gt;=4.10 -->
<g id="edge4" class="edge">
<title>glibc&#45;&gt;linux&#45;api&#45;headers&gt;=4.10</title>
<path fill="none" stroke="#8b4513" d="M285.49,-150.52C263.7,-140.22 229.87,-124.22 202.77,-111.4"/>
<polygon fill="#8b4513" stroke="#8b4513" points="204.04,-108.12 193.5,-107.01 201.04,-114.45 204.04,-108.12"/>
</g>
<!-- tzdata -->
<g id="node7" class="node">
<title>tzdata</title>
<ellipse fill="green" stroke="green" cx="307.65" cy="-90" rx="31.7" ry="18"/>
<text text-anchor="middle" x="307.65" y="-86.3" font-family="Times,serif" font-size="14.00">tzdata</text>
</g>
<!-- glibc&#45;&gt;tzdata -->
<g id="edge6" class="edge">
<title>glibc&#45;&gt;tzdata</title>
<path fill="none" stroke="#8b4513" d="M307.65,-143.7C307.65,-135.98 307.65,-126.71 307.65,-118.11"/>
<polygon fill="#8b4513" stroke="#8b4513" points="311.15,-118.1 307.65,-108.1 304.15,-118.1 311.15,-118.1"/>
</g>
<!-- filesystem -->
<g id="node8" class="node">
<title>filesystem</title>
<ellipse fill="green" stroke="green" cx="404.65" cy="-90" rx="46.59" ry="18"/>
<text text-anchor="middle" x="404.65" y="-86.3" font-family="Times,serif" font-size="14.00">filesystem</text>
</g>
<!-- glibc&#45;&gt;filesystem -->
<g id="edge7" class="edge">
<title>glibc&#45;&gt;filesystem</title>
<path fill="none" stroke="#8b4513" d="M325.89,-147.83C339.69,-137.88 358.93,-123.99 374.94,-112.44"/>
<polygon fill="#8b4513" stroke="#8b4513" points="377.38,-114.99 383.44,-106.3 373.29,-109.31 377.38,-114.99"/>
</g>
<!-- linux&#45;api&#45;headers -->
<g id="node6" class="node">
<title>linux&#45;api&#45;headers</title>
<ellipse fill="green" stroke="green" cx="159.65" cy="-18" rx="71.49" ry="18"/>
<text text-anchor="middle" x="159.65" y="-14.3" font-family="Times,serif" font-size="14.00">linux&#45;api&#45;headers</text>
</g>
<!-- linux&#45;api&#45;headers&gt;=4.10&#45;&gt;linux&#45;api&#45;headers -->
<g id="edge5" class="edge">
<title>linux&#45;api&#45;headers&gt;=4.10&#45;&gt;linux&#45;api&#45;headers</title>
<path fill="none" stroke="grey" d="M159.65,-71.7C159.65,-60.85 159.65,-46.92 159.65,-36.1"/>
</g>
<!-- iana&#45;etc -->
<g id="node9" class="node">
<title>iana&#45;etc</title>
<ellipse fill="green" stroke="green" cx="404.65" cy="-18" rx="38.19" ry="18"/>
<text text-anchor="middle" x="404.65" y="-14.3" font-family="Times,serif" font-size="14.00">iana&#45;etc</text>
</g>
<!-- filesystem&#45;&gt;iana&#45;etc -->
<g id="edge8" class="edge">
<title>filesystem&#45;&gt;iana&#45;etc</title>
<path fill="none" stroke="#8b4513" d="M404.65,-71.7C404.65,-63.98 404.65,-54.71 404.65,-46.11"/>
<polygon fill="#8b4513" stroke="#8b4513" points="408.15,-46.1 404.65,-36.1 401.15,-46.1 408.15,-46.1"/>
</g>
<!-- cracklib&#45;&gt;glibc -->
<g id="edge10" class="edge">
<title>cracklib&#45;&gt;glibc</title>
<path fill="none" stroke="#8b4513" d="M27.72,-288.67C15.11,-269.24 -0.73,-236.83 16.65,-216 48.32,-178.04 196.94,-167.2 268.7,-164.16"/>
<polygon fill="#8b4513" stroke="#8b4513" points="268.85,-167.66 278.7,-163.76 268.57,-160.66 268.85,-167.66"/>
</g>
<!-- zlib -->
<g id="node11" class="node">
<title>zlib</title>
<ellipse fill="green" stroke="green" cx="52.65" cy="-234" rx="27" ry="18"/>
<text text-anchor="middle" x="52.65" y="-230.3" font-family="Times,serif" font-size="14.00">zlib</text>
</g>
<!-- cracklib&#45;&gt;zlib -->
<g id="edge11" class="edge">
<title>cracklib&#45;&gt;zlib</title>
<path fill="none" stroke="#8b4513" d="M42.79,-288.05C44.23,-280.35 45.96,-271.03 47.56,-262.36"/>
<polygon fill="#8b4513" stroke="#8b4513" points="51.05,-262.75 49.44,-252.28 44.17,-261.47 51.05,-262.75"/>
</g>
<!-- zlib&#45;&gt;glibc -->
<g id="edge12" class="edge">
<title>zlib&#45;&gt;glibc</title>
<path fill="none" stroke="#8b4513" d="M74.55,-223.21C80.66,-220.67 87.35,-218.07 93.65,-216 154.61,-195.94 227.52,-179.42 270.57,-170.41"/>
<polygon fill="#8b4513" stroke="#8b4513" points="271.51,-173.79 280.59,-168.34 270.09,-166.94 271.51,-173.79"/>
</g>
<!-- krb5 -->
<g id="node13" class="node">
<title>krb5</title>
<ellipse fill="green" stroke="green" cx="470.65" cy="-1242" rx="27.1" ry="18"/>
<text text-anchor="middle" x="470.65" y="-1238.3" font-family="Times,serif" font-size="14.00">krb5</text>
</g>
<!-- libtirpc&#45;&gt;krb5 -->
<g id="edge14" class="edge">
<title>libtirpc&#45;&gt;krb5</title>
<path fill="none" stroke="#8b4513" d="M263.74,-1302.21C269.63,-1300.06 275.82,-1297.89 281.65,-1296 334.83,-1278.75 397.48,-1261.84 435.61,-1251.92"/>
<polygon fill="#8b4513" stroke="#8b4513" points="436.88,-1255.21 445.69,-1249.31 435.13,-1248.43 436.88,-1255.21"/>
</g>
<!-- e2fsprogs -->
<g id="node14" class="node">
<title>e2fsprogs</title>
<ellipse fill="green" stroke="green" cx="426.65" cy="-1098" rx="44.69" ry="18"/>
<text text-anchor="middle" x="426.65" y="-1094.3" font-family="Times,serif" font-size="14.00">e2fsprogs</text>
</g>
<!-- krb5&#45;&gt;e2fsprogs -->
<g id="edge15" class="edge">
<title>krb5&#45;&gt;e2fsprogs</title>
<path fill="none" stroke="#8b4513" d="M468.21,-1223.96C465.33,-1205.81 459.88,-1176.4 451.65,-1152 448.57,-1142.9 444.36,-1133.29 440.28,-1124.8"/>
<polygon fill="#8b4513" stroke="#8b4513" points="443.37,-1123.16 435.78,-1115.77 437.1,-1126.28 443.37,-1123.16"/>
</g>
<!-- libldap -->
<g id="node24" class="node">
<title>libldap</title>
<ellipse fill="green" stroke="green" cx="407.65" cy="-1170" rx="35.19" ry="18"/>
<text text-anchor="middle" x="407.65" y="-1166.3" font-family="Times,serif" font-size="14.00">libldap</text>
</g>
<!-- krb5&#45;&gt;libldap -->
<g id="edge31" class="edge">
<title>krb5&#45;&gt;libldap</title>
<path fill="none" stroke="#8b4513" d="M457.29,-1226.15C449,-1216.94 438.16,-1204.91 428.74,-1194.43"/>
<polygon fill="#8b4513" stroke="#8b4513" points="431.15,-1191.89 421.86,-1186.8 425.95,-1196.57 431.15,-1191.89"/>
</g>
<!-- keyutils -->
<g id="node31" class="node">
<title>keyutils</title>
<ellipse fill="green" stroke="green" cx="526.65" cy="-810" rx="38.19" ry="18"/>
<text text-anchor="middle" x="526.65" y="-806.3" font-family="Times,serif" font-size="14.00">keyutils</text>
</g>
<!-- krb5&#45;&gt;keyutils -->
<g id="edge46" class="edge">
<title>krb5&#45;&gt;keyutils</title>
<path fill="none" stroke="#8b4513" d="M481.44,-1225.19C497.72,-1199.79 526.65,-1147.76 526.65,-1099 526.65,-1099 526.65,-1099 526.65,-953 526.65,-913 526.65,-866.65 526.65,-838.08"/>
<polygon fill="#8b4513" stroke="#8b4513" points="530.15,-838.05 526.65,-828.05 523.15,-838.05 530.15,-838.05"/>
</g>
<!-- sh -->
<g id="node15" class="node">
<title>sh</title>
<ellipse fill="green" stroke="green" cx="364.65" cy="-738" rx="27" ry="18"/>
<text text-anchor="middle" x="364.65" y="-734.3" font-family="Times,serif" font-size="14.00">sh</text>
</g>
<!-- e2fsprogs&#45;&gt;sh -->
<g id="edge16" class="edge">
<title>e2fsprogs&#45;&gt;sh</title>
<path fill="none" stroke="#8b4513" d="M410.05,-1080.76C400.94,-1070.93 390.19,-1057.68 383.65,-1044 366.2,-1007.51 364.65,-995.45 364.65,-955 364.65,-955 364.65,-955 364.65,-881 364.65,-841 364.65,-794.65 364.65,-766.08"/>
<polygon fill="#8b4513" stroke="#8b4513" points="368.15,-766.05 364.65,-756.05 361.15,-766.05 368.15,-766.05"/>
</g>
<!-- libutil&#45;linux -->
<g id="node23" class="node">
<title>libutil&#45;linux</title>
<ellipse fill="green" stroke="green" cx="445.65" cy="-1026" rx="52.79" ry="18"/>
<text text-anchor="middle" x="445.65" y="-1022.3" font-family="Times,serif" font-size="14.00">libutil&#45;linux</text>
</g>
<!-- e2fsprogs&#45;&gt;libutil&#45;linux -->
<g id="edge30" class="edge">
<title>e2fsprogs&#45;&gt;libutil&#45;linux</title>
<path fill="none" stroke="#8b4513" d="M431.25,-1080.05C433.36,-1072.26 435.92,-1062.82 438.3,-1054.08"/>
<polygon fill="#8b4513" stroke="#8b4513" points="441.72,-1054.84 440.96,-1044.28 434.96,-1053.01 441.72,-1054.84"/>
</g>
<!-- bash -->
<g id="node16" class="node">
<title>bash</title>
<ellipse fill="green" stroke="green" cx="364.65" cy="-666" rx="27" ry="18"/>
<text text-anchor="middle" x="364.65" y="-662.3" font-family="Times,serif" font-size="14.00">bash</text>
</g>
<!-- sh&#45;&gt;bash -->
<g id="edge17" class="edge">
<title>sh&#45;&gt;bash</title>
<path fill="none" stroke="grey" d="M348.27,-723.5C343.1,-711.11 343.1,-692.84 348.29,-680.46"/>
</g>
<!-- sh&#45;&gt;bash -->
<g id="edge39" class="edge">
<title>sh&#45;&gt;bash</title>
<path fill="none" stroke="grey" d="M358.81,-720.41C357.61,-709.41 357.59,-695.03 358.77,-683.96"/>
</g>
<!-- sh&#45;&gt;bash -->
<g id="edge43" class="edge">
<title>sh&#45;&gt;bash</title>
<path fill="none" stroke="grey" d="M370.49,-720.41C371.69,-709.41 371.7,-695.03 370.53,-683.96"/>
</g>
<!-- sh&#45;&gt;bash -->
<g id="edge49" class="edge">
<title>sh&#45;&gt;bash</title>
<path fill="none" stroke="grey" d="M381.02,-723.5C386.19,-711.11 386.19,-692.84 381,-680.46"/>
</g>
<!-- bash&#45;&gt;glibc -->
<g id="edge28" class="edge">
<title>bash&#45;&gt;glibc</title>
<path fill="none" stroke="#8b4513" d="M389.74,-659.31C442.41,-645.72 559.65,-606.13 559.65,-523 559.65,-523 559.65,-523 559.65,-305 559.65,-208.27 416.99,-176.71 346.35,-167.02"/>
<polygon fill="#8b4513" stroke="#8b4513" points="346.43,-163.5 336.06,-165.69 345.53,-170.44 346.43,-163.5"/>
</g>
<!-- readline&gt;=7.0 -->
<g id="node17" class="node">
<title>readline&gt;=7.0</title>
<ellipse fill="green" stroke="green" cx="376.65" cy="-594" rx="61.19" ry="18"/>
<text text-anchor="middle" x="376.65" y="-590.3" font-family="Times,serif" font-size="14.00">readline&gt;=7.0</text>
</g>
<!-- bash&#45;&gt;readline&gt;=7.0 -->
<g id="edge18" class="edge">
<title>bash&#45;&gt;readline&gt;=7.0</title>
<path fill="none" stroke="#8b4513" d="M367.55,-648.05C368.87,-640.35 370.47,-631.03 371.96,-622.36"/>
<polygon fill="#8b4513" stroke="#8b4513" points="375.44,-622.72 373.69,-612.28 368.55,-621.54 375.44,-622.72"/>
</g>
<!-- ncurses -->
<g id="node19" class="node">
<title>ncurses</title>
<ellipse fill="green" stroke="green" cx="297.65" cy="-378" rx="37.09" ry="18"/>
<text text-anchor="middle" x="297.65" y="-374.3" font-family="Times,serif" font-size="14.00">ncurses</text>
</g>
<!-- bash&#45;&gt;ncurses -->
<g id="edge29" class="edge">
<title>bash&#45;&gt;ncurses</title>
<path fill="none" stroke="#8b4513" d="M345.32,-653.24C331.89,-643.89 314.95,-629.5 306.65,-612 274.28,-543.77 284.3,-451.26 292.13,-406.08"/>
<polygon fill="#8b4513" stroke="#8b4513" points="295.58,-406.63 293.94,-396.16 288.7,-405.37 295.58,-406.63"/>
</g>
<!-- readline -->
<g id="node18" class="node">
<title>readline</title>
<ellipse fill="green" stroke="green" cx="398.65" cy="-522" rx="38.99" ry="18"/>
<text text-anchor="middle" x="398.65" y="-518.3" font-family="Times,serif" font-size="14.00">readline</text>
</g>
<!-- readline&gt;=7.0&#45;&gt;readline -->
<g id="edge19" class="edge">
<title>readline&gt;=7.0&#45;&gt;readline</title>
<path fill="none" stroke="grey" d="M381.97,-576.05C385.38,-565.21 389.79,-551.18 393.22,-540.28"/>
</g>
<!-- readline&#45;&gt;glibc -->
<g id="edge20" class="edge">
<title>readline&#45;&gt;glibc</title>
<path fill="none" stroke="#8b4513" d="M431.72,-512.41C455.04,-504.63 485.12,-490.82 502.65,-468 527.28,-435.92 521.65,-419.45 521.65,-379 521.65,-379 521.65,-379 521.65,-305 521.65,-221.12 406.09,-183.84 344.81,-169.97"/>
<polygon fill="#8b4513" stroke="#8b4513" points="345.26,-166.48 334.75,-167.79 343.78,-173.32 345.26,-166.48"/>
</g>
<!-- readline&#45;&gt;ncurses -->
<g id="edge21" class="edge">
<title>readline&#45;&gt;ncurses</title>
<path fill="none" stroke="#8b4513" d="M370.11,-509.49C352.06,-500.75 329.73,-486.98 316.65,-468 304.14,-449.87 299.62,-425.09 298.1,-406.28"/>
<polygon fill="#8b4513" stroke="#8b4513" points="301.59,-406.04 297.52,-396.26 294.6,-406.45 301.59,-406.04"/>
</g>
<!-- libncursesw.so=6&#45;64 -->
<g id="node22" class="node">
<title>libncursesw.so=6&#45;64</title>
<ellipse fill="green" stroke="green" cx="409.65" cy="-450" rx="83.69" ry="18"/>
<text text-anchor="middle" x="409.65" y="-446.3" font-family="Times,serif" font-size="14.00">libncursesw.so=6&#45;64</text>
</g>
<!-- readline&#45;&gt;libncursesw.so=6&#45;64 -->
<g id="edge26" class="edge">
<title>readline&#45;&gt;libncursesw.so=6&#45;64</title>
<path fill="none" stroke="#8b4513" d="M401.37,-503.7C402.58,-495.98 404.03,-486.71 405.39,-478.11"/>
<polygon fill="#8b4513" stroke="#8b4513" points="408.86,-478.53 406.96,-468.1 401.95,-477.44 408.86,-478.53"/>
</g>
<!-- ncurses&#45;&gt;glibc -->
<g id="edge22" class="edge">
<title>ncurses&#45;&gt;glibc</title>
<path fill="none" stroke="#8b4513" d="M305.7,-360.07C318.64,-330.73 341.55,-268.52 330.65,-216 328.69,-206.58 324.97,-196.78 321.09,-188.21"/>
<polygon fill="#8b4513" stroke="#8b4513" points="324.21,-186.62 316.71,-179.13 317.9,-189.66 324.21,-186.62"/>
</g>
<!-- gcc&#45;libs -->
<g id="node20" class="node">
<title>gcc&#45;libs</title>
<ellipse fill="green" stroke="green" cx="266.65" cy="-306" rx="38.19" ry="18"/>
<text text-anchor="middle" x="266.65" y="-302.3" font-family="Times,serif" font-size="14.00">gcc&#45;libs</text>
</g>
<!-- ncurses&#45;&gt;gcc&#45;libs -->
<g id="edge23" class="edge">
<title>ncurses&#45;&gt;gcc&#45;libs</title>
<path fill="none" stroke="#8b4513" d="M290.14,-360.05C286.56,-351.97 282.2,-342.12 278.21,-333.11"/>
<polygon fill="#8b4513" stroke="#8b4513" points="281.33,-331.52 274.08,-323.79 274.93,-334.35 281.33,-331.52"/>
</g>
<!-- glibc&gt;=2.27 -->
<g id="node21" class="node">
<title>glibc&gt;=2.27</title>
<ellipse fill="green" stroke="green" cx="266.65" cy="-234" rx="54.69" ry="18"/>
<text text-anchor="middle" x="266.65" y="-230.3" font-family="Times,serif" font-size="14.00">glibc&gt;=2.27</text>
</g>
<!-- gcc&#45;libs&#45;&gt;glibc&gt;=2.27 -->
<g id="edge24" class="edge">
<title>gcc&#45;libs&#45;&gt;glibc&gt;=2.27</title>
<path fill="none" stroke="#8b4513" d="M266.65,-287.7C266.65,-279.98 266.65,-270.71 266.65,-262.11"/>
<polygon fill="#8b4513" stroke="#8b4513" points="270.15,-262.1 266.65,-252.1 263.15,-262.1 270.15,-262.1"/>
</g>
<!-- glibc&gt;=2.27&#45;&gt;glibc -->
<g id="edge25" class="edge">
<title>glibc&gt;=2.27&#45;&gt;glibc</title>
<path fill="none" stroke="grey" d="M276.57,-216.05C283.11,-204.89 291.63,-190.34 298.1,-179.31"/>
</g>
<!-- libncursesw.so=6&#45;64&#45;&gt;ncurses -->
<g id="edge27" class="edge">
<title>libncursesw.so=6&#45;64&#45;&gt;ncurses</title>
<path fill="none" stroke="grey" d="M383.67,-432.76C364.28,-420.65 338.08,-404.27 319.71,-392.79"/>
</g>
<!-- libldap&#45;&gt;e2fsprogs -->
<g id="edge45" class="edge">
<title>libldap&#45;&gt;e2fsprogs</title>
<path fill="none" stroke="#8b4513" d="M412.25,-1152.05C414.36,-1144.26 416.92,-1134.82 419.3,-1126.08"/>
<polygon fill="#8b4513" stroke="#8b4513" points="422.72,-1126.84 421.96,-1116.28 415.96,-1125.01 422.72,-1126.84"/>
</g>
<!-- libsasl -->
<g id="node25" class="node">
<title>libsasl</title>
<ellipse fill="green" stroke="green" cx="305.65" cy="-1098" rx="33.29" ry="18"/>
<text text-anchor="middle" x="305.65" y="-1094.3" font-family="Times,serif" font-size="14.00">libsasl</text>
</g>
<!-- libldap&#45;&gt;libsasl -->
<g id="edge32" class="edge">
<title>libldap&#45;&gt;libsasl</title>
<path fill="none" stroke="#8b4513" d="M387.49,-1155.17C372.17,-1144.65 350.89,-1130.05 333.87,-1118.37"/>
<polygon fill="#8b4513" stroke="#8b4513" points="335.64,-1115.34 325.41,-1112.56 331.67,-1121.11 335.64,-1115.34"/>
</g>
<!-- openssl -->
<g id="node26" class="node">
<title>openssl</title>
<ellipse fill="green" stroke="green" cx="281.65" cy="-1026" rx="37.09" ry="18"/>
<text text-anchor="middle" x="281.65" y="-1022.3" font-family="Times,serif" font-size="14.00">openssl</text>
</g>
<!-- libsasl&#45;&gt;openssl -->
<g id="edge33" class="edge">
<title>libsasl&#45;&gt;openssl</title>
<path fill="none" stroke="#8b4513" d="M299.84,-1080.05C297.1,-1072.06 293.76,-1062.33 290.7,-1053.4"/>
<polygon fill="#8b4513" stroke="#8b4513" points="293.96,-1052.11 287.4,-1043.79 287.34,-1054.38 293.96,-1052.11"/>
</g>
<!-- perl -->
<g id="node27" class="node">
<title>perl</title>
<ellipse fill="green" stroke="green" cx="248.65" cy="-954" rx="27" ry="18"/>
<text text-anchor="middle" x="248.65" y="-950.3" font-family="Times,serif" font-size="14.00">perl</text>
</g>
<!-- openssl&#45;&gt;perl -->
<g id="edge34" class="edge">
<title>openssl&#45;&gt;perl</title>
<path fill="none" stroke="#8b4513" d="M273.66,-1008.05C269.75,-999.77 264.97,-989.62 260.63,-980.42"/>
<polygon fill="#8b4513" stroke="#8b4513" points="263.76,-978.86 256.33,-971.31 257.43,-981.84 263.76,-978.86"/>
</g>
<!-- perl&#45;&gt;glibc -->
<g id="edge44" class="edge">
<title>perl&#45;&gt;glibc</title>
<path fill="none" stroke="#8b4513" d="M225.36,-944.34C206.09,-935.96 179.54,-921.35 164.65,-900 141.5,-866.83 145.65,-851.45 145.65,-811 145.65,-811 145.65,-811 145.65,-305 145.65,-262.33 151.68,-246.38 181.65,-216 205.84,-191.47 243.11,-177.72 270.85,-170.41"/>
<polygon fill="#8b4513" stroke="#8b4513" points="271.73,-173.8 280.6,-168 270.05,-167 271.73,-173.8"/>
</g>
<!-- gdbm&gt;=1.17 -->
<g id="node28" class="node">
<title>gdbm&gt;=1.17</title>
<ellipse fill="green" stroke="green" cx="231.65" cy="-882" rx="57.69" ry="18"/>
<text text-anchor="middle" x="231.65" y="-878.3" font-family="Times,serif" font-size="14.00">gdbm&gt;=1.17</text>
</g>
<!-- perl&#45;&gt;gdbm&gt;=1.17 -->
<g id="edge35" class="edge">
<title>perl&#45;&gt;gdbm&gt;=1.17</title>
<path fill="none" stroke="#8b4513" d="M244.53,-936.05C242.64,-928.26 240.35,-918.82 238.22,-910.08"/>
<polygon fill="#8b4513" stroke="#8b4513" points="241.6,-909.17 235.84,-900.28 234.8,-910.82 241.6,-909.17"/>
</g>
<!-- db -->
<g id="node30" class="node">
<title>db</title>
<ellipse fill="green" stroke="green" cx="309.65" cy="-810" rx="27" ry="18"/>
<text text-anchor="middle" x="309.65" y="-806.3" font-family="Times,serif" font-size="14.00">db</text>
</g>
<!-- perl&#45;&gt;db -->
<g id="edge40" class="edge">
<title>perl&#45;&gt;db</title>
<path fill="none" stroke="#8b4513" d="M265.99,-939.67C277.27,-929.96 291.22,-915.8 298.65,-900 307.69,-880.78 310.22,-856.76 310.61,-838.52"/>
<polygon fill="#8b4513" stroke="#8b4513" points="314.11,-838.27 310.62,-828.27 307.11,-838.27 314.11,-838.27"/>
</g>
<!-- gdbm -->
<g id="node29" class="node">
<title>gdbm</title>
<ellipse fill="green" stroke="green" cx="231.65" cy="-810" rx="31.4" ry="18"/>
<text text-anchor="middle" x="231.65" y="-806.3" font-family="Times,serif" font-size="14.00">gdbm</text>
</g>
<!-- gdbm&gt;=1.17&#45;&gt;gdbm -->
<g id="edge36" class="edge">
<title>gdbm&gt;=1.17&#45;&gt;gdbm</title>
<path fill="none" stroke="grey" d="M231.65,-863.7C231.65,-852.85 231.65,-838.92 231.65,-828.1"/>
</g>
<!-- gdbm&#45;&gt;glibc -->
<g id="edge37" class="edge">
<title>gdbm&#45;&gt;glibc</title>
<path fill="none" stroke="#8b4513" d="M222.16,-792.56C208.17,-766.72 183.65,-714.62 183.65,-667 183.65,-667 183.65,-667 183.65,-305 183.65,-264.55 177.95,-248.03 202.65,-216 219.7,-193.88 248.5,-180.27 271.63,-172.39"/>
<polygon fill="#8b4513" stroke="#8b4513" points="273,-175.63 281.47,-169.26 270.88,-168.96 273,-175.63"/>
</g>
<!-- gdbm&#45;&gt;sh -->
<g id="edge38" class="edge">
<title>gdbm&#45;&gt;sh</title>
<path fill="none" stroke="#8b4513" d="M253.91,-797.28C276.2,-785.55 310.64,-767.43 335.19,-754.51"/>
<polygon fill="#8b4513" stroke="#8b4513" points="336.84,-757.59 344.06,-749.83 333.58,-751.39 336.84,-757.59"/>
</g>
<!-- db&#45;&gt;sh -->
<g id="edge42" class="edge">
<title>db&#45;&gt;sh</title>
<path fill="none" stroke="#8b4513" d="M321.58,-793.81C328.86,-784.55 338.31,-772.52 346.5,-762.09"/>
<polygon fill="#8b4513" stroke="#8b4513" points="349.31,-764.18 352.74,-754.16 343.81,-759.86 349.31,-764.18"/>
</g>
<!-- db&#45;&gt;gcc&#45;libs -->
<g id="edge41" class="edge">
<title>db&#45;&gt;gcc&#45;libs</title>
<path fill="none" stroke="#8b4513" d="M293.51,-795.06C268.1,-771.46 221.65,-720.95 221.65,-667 221.65,-667 221.65,-667 221.65,-449 221.65,-406.67 240.05,-360.41 253.32,-332.56"/>
<polygon fill="#8b4513" stroke="#8b4513" points="256.49,-334.03 257.76,-323.51 250.21,-330.94 256.49,-334.03"/>
</g>
<!-- keyutils&#45;&gt;glibc -->
<g id="edge47" class="edge">
<title>keyutils&#45;&gt;glibc</title>
<path fill="none" stroke="#8b4513" d="M541.01,-792.84C561.76,-767.77 597.65,-717.16 597.65,-667 597.65,-667 597.65,-667 597.65,-305 597.65,-194.35 425.24,-169.91 346.29,-164.52"/>
<polygon fill="#8b4513" stroke="#8b4513" points="346.44,-161.02 336.25,-163.9 346.01,-168.01 346.44,-161.02"/>
</g>
<!-- keyutils&#45;&gt;sh -->
<g id="edge48" class="edge">
<title>keyutils&#45;&gt;sh</title>
<path fill="none" stroke="#8b4513" d="M499.17,-797.13C470.7,-784.82 426.27,-765.63 396.34,-752.69"/>
<polygon fill="#8b4513" stroke="#8b4513" points="397.35,-749.32 386.79,-748.57 394.58,-755.75 397.35,-749.32"/>
</g>
<!-- attr -->
<g id="node34" class="node">
<title>attr</title>
<ellipse fill="green" stroke="green" cx="661.65" cy="-1170" rx="27" ry="18"/>
<text text-anchor="middle" x="661.65" y="-1166.3" font-family="Times,serif" font-size="14.00">attr</text>
</g>
<!-- acl&#45;&gt;attr -->
<g id="edge52" class="edge">
<title>acl&#45;&gt;attr</title>
<path fill="none" stroke="#8b4513" d="M652.45,-1367.85C654.18,-1330.83 658.27,-1243.18 660.37,-1198.39"/>
<polygon fill="#8b4513" stroke="#8b4513" points="663.87,-1198.38 660.84,-1188.23 656.88,-1198.06 663.87,-1198.38"/>
</g>
<!-- attr&#45;&gt;glibc -->
<g id="edge53" class="edge">
<title>attr&#45;&gt;glibc</title>
<path fill="none" stroke="#8b4513" d="M664.02,-1151.99C667.51,-1125.38 673.65,-1072.28 673.65,-1027 673.65,-1027 673.65,-1027 673.65,-305 673.65,-258.03 655.79,-241.96 616.65,-216 572.76,-186.9 418.7,-171.51 346.08,-165.73"/>
<polygon fill="#8b4513" stroke="#8b4513" points="346.22,-162.23 335.98,-164.95 345.67,-169.21 346.22,-162.23"/>
</g>
<!-- audit&#45;&gt;krb5 -->
<g id="edge55" class="edge">
<title>audit&#45;&gt;krb5</title>
<path fill="none" stroke="#8b4513" d="M491.25,-1296.41C488.13,-1288.34 484.31,-1278.43 480.81,-1269.35"/>
<polygon fill="#8b4513" stroke="#8b4513" points="484.05,-1268.03 477.19,-1259.96 477.52,-1270.55 484.05,-1268.03"/>
</g>
<!-- libcap&#45;ng -->
<g id="node36" class="node">
<title>libcap&#45;ng</title>
<ellipse fill="green" stroke="green" cx="600.65" cy="-954" rx="44.39" ry="18"/>
<text text-anchor="middle" x="600.65" y="-950.3" font-family="Times,serif" font-size="14.00">libcap&#45;ng</text>
</g>
<!-- audit&#45;&gt;libcap&#45;ng -->
<g id="edge56" class="edge">
<title>audit&#45;&gt;libcap&#45;ng</title>
<path fill="none" stroke="#8b4513" d="M511.94,-1298.23C533.96,-1273.85 573.65,-1222.73 573.65,-1171 573.65,-1171 573.65,-1171 573.65,-1097 573.65,-1056.5 584.38,-1010.63 592.31,-982.26"/>
<polygon fill="#8b4513" stroke="#8b4513" points="595.78,-982.87 595.18,-972.29 589.05,-980.93 595.78,-982.87"/>
</g>
<!-- libcap&#45;ng&#45;&gt;glibc -->
<g id="edge57" class="edge">
<title>libcap&#45;ng&#45;&gt;glibc</title>
<path fill="none" stroke="#8b4513" d="M607.73,-935.85C617.96,-909.49 635.65,-857.21 635.65,-811 635.65,-811 635.65,-811 635.65,-305 635.65,-180.36 433.7,-163.89 346.73,-162.58"/>
<polygon fill="#8b4513" stroke="#8b4513" points="346.5,-159.08 336.47,-162.49 346.44,-166.08 346.5,-159.08"/>
</g>
<!-- libaudit.so=1&#45;64&#45;&gt;audit -->
<g id="edge59" class="edge">
<title>libaudit.so=1&#45;64&#45;&gt;audit</title>
<path fill="none" stroke="grey" d="M499.9,-1367.7C499.44,-1356.85 498.84,-1342.92 498.38,-1332.1"/>
</g>
</g>
</svg>
