<?xml version="1.0" encoding="UTF-8" standalone="no"?>
<!DOCTYPE svg PUBLIC "-//W3C//DTD SVG 1.1//EN"
 "http://www.w3.org/Graphics/SVG/1.1/DTD/svg11.dtd">
<!-- Generated by graphviz version 2.44.0 (0)
 -->
<!-- Title: G Pages: 1 -->
<svg width="771pt" height="1124pt"
 viewBox="0.00 0.00 771.34 1124.00" xmlns="http://www.w3.org/2000/svg" xmlns:xlink="http://www.w3.org/1999/xlink">
<g id="graph0" class="graph" transform="scale(1 1) rotate(0) translate(4 1120)">
<title>G</title>
<polygon fill="white" stroke="transparent" points="-4,4 -4,-1120 767.34,-1120 767.34,4 -4,4"/>
<!-- START -->
<g id="node1" class="node">
<title>START</title>
<ellipse fill="red" stroke="red" cx="410.6" cy="-1098" rx="38.19" ry="18"/>
<text text-anchor="middle" x="410.6" y="-1094.3" font-family="Times,serif" font-size="14.00">START</text>
</g>
<!-- shared&#45;mime&#45;info -->
<g id="node2" class="node">
<title>shared&#45;mime&#45;info</title>
<ellipse fill="green" stroke="green" cx="410.6" cy="-1026" rx="74.99" ry="18"/>
<text text-anchor="middle" x="410.6" y="-1022.3" font-family="Times,serif" font-size="14.00">shared&#45;mime&#45;info</text>
</g>
<!-- START&#45;&gt;shared&#45;mime&#45;info -->
<g id="edge1" class="edge">
<title>START&#45;&gt;shared&#45;mime&#45;info</title>
<path fill="none" stroke="black" d="M410.6,-1079.7C410.6,-1071.98 410.6,-1062.71 410.6,-1054.11"/>
<polygon fill="black" stroke="black" points="414.1,-1054.1 410.6,-1044.1 407.1,-1054.1 414.1,-1054.1"/>
</g>
<!-- libxml2 -->
<g id="node3" class="node">
<title>libxml2</title>
<ellipse fill="green" stroke="green" cx="254.6" cy="-882" rx="38.19" ry="18"/>
<text text-anchor="middle" x="254.6" y="-878.3" font-family="Times,serif" font-size="14.00">libxml2</text>
</g>
<!-- shared&#45;mime&#45;info&#45;&gt;libxml2 -->
<g id="edge2" class="edge">
<title>shared&#45;mime&#45;info&#45;&gt;libxml2</title>
<path fill="none" stroke="#8b4513" d="M392.39,-1008.43C364.39,-982.94 310.67,-934.04 279.22,-905.41"/>
<polygon fill="#8b4513" stroke="#8b4513" points="281.48,-902.74 271.73,-898.6 276.77,-907.92 281.48,-902.74"/>
</g>
<!-- glib2 -->
<g id="node21" class="node">
<title>glib2</title>
<ellipse fill="green" stroke="green" cx="524.6" cy="-954" rx="28.7" ry="18"/>
<text text-anchor="middle" x="524.6" y="-950.3" font-family="Times,serif" font-size="14.00">glib2</text>
</g>
<!-- shared&#45;mime&#45;info&#45;&gt;glib2 -->
<g id="edge31" class="edge">
<title>shared&#45;mime&#45;info&#45;&gt;glib2</title>
<path fill="none" stroke="#8b4513" d="M436.75,-1008.94C454.33,-998.15 477.5,-983.92 495.64,-972.78"/>
<polygon fill="#8b4513" stroke="#8b4513" points="497.91,-975.49 504.6,-967.28 494.25,-969.53 497.91,-975.49"/>
</g>
<!-- zlib -->
<g id="node4" class="node">
<title>zlib</title>
<ellipse fill="green" stroke="green" cx="492.6" cy="-810" rx="27" ry="18"/>
<text text-anchor="middle" x="492.6" y="-806.3" font-family="Times,serif" font-size="14.00">zlib</text>
</g>
<!-- libxml2&#45;&gt;zlib -->
<g id="edge3" class="edge">
<title>libxml2&#45;&gt;zlib</title>
<path fill="none" stroke="#8b4513" d="M286.2,-871.7C330.99,-858.53 412.59,-834.53 458.63,-820.99"/>
<polygon fill="#8b4513" stroke="#8b4513" points="459.83,-824.29 468.44,-818.11 457.85,-817.57 459.83,-824.29"/>
</g>
<!-- readline -->
<g id="node11" class="node">
<title>readline</title>
<ellipse fill="green" stroke="green" cx="377.6" cy="-522" rx="38.99" ry="18"/>
<text text-anchor="middle" x="377.6" y="-518.3" font-family="Times,serif" font-size="14.00">readline</text>
</g>
<!-- libxml2&#45;&gt;readline -->
<g id="edge10" class="edge">
<title>libxml2&#45;&gt;readline</title>
<path fill="none" stroke="#8b4513" d="M260.53,-863.73C280.34,-806.08 344.3,-619.89 368.35,-549.92"/>
<polygon fill="#8b4513" stroke="#8b4513" points="371.78,-550.69 371.72,-540.09 365.16,-548.41 371.78,-550.69"/>
</g>
<!-- ncurses -->
<g id="node12" class="node">
<title>ncurses</title>
<ellipse fill="green" stroke="green" cx="244.6" cy="-378" rx="37.09" ry="18"/>
<text text-anchor="middle" x="244.6" y="-374.3" font-family="Times,serif" font-size="14.00">ncurses</text>
</g>
<!-- libxml2&#45;&gt;ncurses -->
<g id="edge19" class="edge">
<title>libxml2&#45;&gt;ncurses</title>
<path fill="none" stroke="#8b4513" d="M218.68,-875.44C171.77,-867.36 93.6,-850.81 76.6,-828 54.3,-798.1 -35.64,-957.69 85.6,-576 108.66,-503.39 127.57,-488.58 178.6,-432 189.55,-419.85 203.46,-408.25 215.68,-399.01"/>
<polygon fill="#8b4513" stroke="#8b4513" points="217.84,-401.77 223.81,-393.02 213.68,-396.13 217.84,-401.77"/>
</g>
<!-- xz -->
<g id="node16" class="node">
<title>xz</title>
<ellipse fill="green" stroke="green" cx="226.6" cy="-810" rx="27" ry="18"/>
<text text-anchor="middle" x="226.6" y="-806.3" font-family="Times,serif" font-size="14.00">xz</text>
</g>
<!-- libxml2&#45;&gt;xz -->
<g id="edge20" class="edge">
<title>libxml2&#45;&gt;xz</title>
<path fill="none" stroke="#8b4513" d="M247.82,-864.05C244.58,-855.97 240.64,-846.12 237.04,-837.11"/>
<polygon fill="#8b4513" stroke="#8b4513" points="240.27,-835.77 233.31,-827.79 233.78,-838.37 240.27,-835.77"/>
</g>
<!-- icu -->
<g id="node20" class="node">
<title>icu</title>
<ellipse fill="green" stroke="green" cx="112.6" cy="-810" rx="27" ry="18"/>
<text text-anchor="middle" x="112.6" y="-806.3" font-family="Times,serif" font-size="14.00">icu</text>
</g>
<!-- libxml2&#45;&gt;icu -->
<g id="edge27" class="edge">
<title>libxml2&#45;&gt;icu</title>
<path fill="none" stroke="#8b4513" d="M229.21,-868.49C205.02,-856.56 168.57,-838.59 142.88,-825.93"/>
<polygon fill="#8b4513" stroke="#8b4513" points="144.12,-822.64 133.6,-821.36 141.02,-828.92 144.12,-822.64"/>
</g>
<!-- glibc -->
<g id="node5" class="node">
<title>glibc</title>
<ellipse fill="green" stroke="green" cx="437.6" cy="-162" rx="28.7" ry="18"/>
<text text-anchor="middle" x="437.6" y="-158.3" font-family="Times,serif" font-size="14.00">glibc</text>
</g>
<!-- zlib&#45;&gt;glibc -->
<g id="edge4" class="edge">
<title>zlib&#45;&gt;glibc</title>
<path fill="none" stroke="#8b4513" d="M496.74,-792.07C502.86,-765.57 513.6,-712.61 513.6,-667 513.6,-667 513.6,-667 513.6,-305 513.6,-264.03 509.94,-251.56 489.6,-216 482.63,-203.82 472.18,-192.41 462.47,-183.32"/>
<polygon fill="#8b4513" stroke="#8b4513" points="464.71,-180.63 454.92,-176.56 460.04,-185.84 464.71,-180.63"/>
</g>
<!-- linux&#45;api&#45;headers&gt;=4.10 -->
<g id="node6" class="node">
<title>linux&#45;api&#45;headers&gt;=4.10</title>
<ellipse fill="green" stroke="green" cx="289.6" cy="-90" rx="98.28" ry="18"/>
<text text-anchor="middle" x="289.6" y="-86.3" font-family="Times,serif" font-size="14.00">linux&#45;api&#45;headers&gt;=4.10</text>
</g>
<!-- glibc&#45;&gt;linux&#45;api&#45;headers&gt;=4.10 -->
<g id="edge5" class="edge">
<title>glibc&#45;&gt;linux&#45;api&#45;headers&gt;=4.10</title>
<path fill="none" stroke="#8b4513" d="M415.44,-150.52C393.65,-140.22 359.82,-124.22 332.72,-111.4"/>
<polygon fill="#8b4513" stroke="#8b4513" points="333.99,-108.12 323.45,-107.01 330.99,-114.45 333.99,-108.12"/>
</g>
<!-- tzdata -->
<g id="node8" class="node">
<title>tzdata</title>
<ellipse fill="green" stroke="green" cx="437.6" cy="-90" rx="31.7" ry="18"/>
<text text-anchor="middle" x="437.6" y="-86.3" font-family="Times,serif" font-size="14.00">tzdata</text>
</g>
<!-- glibc&#45;&gt;tzdata -->
<g id="edge7" class="edge">
<title>glibc&#45;&gt;tzdata</title>
<path fill="none" stroke="#8b4513" d="M437.6,-143.7C437.6,-135.98 437.6,-126.71 437.6,-118.11"/>
<polygon fill="#8b4513" stroke="#8b4513" points="441.1,-118.1 437.6,-108.1 434.1,-118.1 441.1,-118.1"/>
</g>
<!-- filesystem -->
<g id="node9" class="node">
<title>filesystem</title>
<ellipse fill="green" stroke="green" cx="534.6" cy="-90" rx="46.59" ry="18"/>
<text text-anchor="middle" x="534.6" y="-86.3" font-family="Times,serif" font-size="14.00">filesystem</text>
</g>
<!-- glibc&#45;&gt;filesystem -->
<g id="edge8" class="edge">
<title>glibc&#45;&gt;filesystem</title>
<path fill="none" stroke="#8b4513" d="M455.84,-147.83C469.64,-137.88 488.88,-123.99 504.89,-112.44"/>
<polygon fill="#8b4513" stroke="#8b4513" points="507.33,-114.99 513.39,-106.3 503.24,-109.31 507.33,-114.99"/>
</g>
<!-- linux&#45;api&#45;headers -->
<g id="node7" class="node">
<title>linux&#45;api&#45;headers</title>
<ellipse fill="green" stroke="green" cx="289.6" cy="-18" rx="71.49" ry="18"/>
<text text-anchor="middle" x="289.6" y="-14.3" font-family="Times,serif" font-size="14.00">linux&#45;api&#45;headers</text>
</g>
<!-- linux&#45;api&#45;headers&gt;=4.10&#45;&gt;linux&#45;api&#45;headers -->
<g id="edge6" class="edge">
<title>linux&#45;api&#45;headers&gt;=4.10&#45;&gt;linux&#45;api&#45;headers</title>
<path fill="none" stroke="grey" d="M289.6,-71.7C289.6,-60.85 289.6,-46.92 289.6,-36.1"/>
</g>
<!-- iana&#45;etc -->
<g id="node10" class="node">
<title>iana&#45;etc</title>
<ellipse fill="green" stroke="green" cx="534.6" cy="-18" rx="38.19" ry="18"/>
<text text-anchor="middle" x="534.6" y="-14.3" font-family="Times,serif" font-size="14.00">iana&#45;etc</text>
</g>
<!-- filesystem&#45;&gt;iana&#45;etc -->
<g id="edge9" class="edge">
<title>filesystem&#45;&gt;iana&#45;etc</title>
<path fill="none" stroke="#8b4513" d="M534.6,-71.7C534.6,-63.98 534.6,-54.71 534.6,-46.11"/>
<polygon fill="#8b4513" stroke="#8b4513" points="538.1,-46.1 534.6,-36.1 531.1,-46.1 538.1,-46.1"/>
</g>
<!-- readline&#45;&gt;glibc -->
<g id="edge11" class="edge">
<title>readline&#45;&gt;glibc</title>
<path fill="none" stroke="#8b4513" d="M389.74,-504.47C407.27,-478.93 437.6,-427.71 437.6,-379 437.6,-379 437.6,-379 437.6,-305 437.6,-265 437.6,-218.65 437.6,-190.08"/>
<polygon fill="#8b4513" stroke="#8b4513" points="441.1,-190.05 437.6,-180.05 434.1,-190.05 441.1,-190.05"/>
</g>
<!-- readline&#45;&gt;ncurses -->
<g id="edge12" class="edge">
<title>readline&#45;&gt;ncurses</title>
<path fill="none" stroke="#8b4513" d="M383.71,-503.94C389.45,-484.69 395.16,-453.31 380.6,-432 360.62,-402.77 321.94,-389.66 290.92,-383.78"/>
<polygon fill="#8b4513" stroke="#8b4513" points="291.18,-380.27 280.74,-382.05 290.01,-387.18 291.18,-380.27"/>
</g>
<!-- libncursesw.so=6&#45;64 -->
<g id="node15" class="node">
<title>libncursesw.so=6&#45;64</title>
<ellipse fill="green" stroke="green" cx="287.6" cy="-450" rx="83.69" ry="18"/>
<text text-anchor="middle" x="287.6" y="-446.3" font-family="Times,serif" font-size="14.00">libncursesw.so=6&#45;64</text>
</g>
<!-- readline&#45;&gt;libncursesw.so=6&#45;64 -->
<g id="edge17" class="edge">
<title>readline&#45;&gt;libncursesw.so=6&#45;64</title>
<path fill="none" stroke="#8b4513" d="M358.51,-506.15C346.46,-496.78 330.65,-484.49 317.01,-473.88"/>
<polygon fill="#8b4513" stroke="#8b4513" points="318.9,-470.92 308.86,-467.54 314.6,-476.44 318.9,-470.92"/>
</g>
<!-- ncurses&#45;&gt;glibc -->
<g id="edge13" class="edge">
<title>ncurses&#45;&gt;glibc</title>
<path fill="none" stroke="#8b4513" d="M258.79,-361.26C292.63,-323.74 378.19,-228.87 417.4,-185.4"/>
<polygon fill="#8b4513" stroke="#8b4513" points="420.06,-187.67 424.16,-177.9 414.86,-182.98 420.06,-187.67"/>
</g>
<!-- gcc&#45;libs -->
<g id="node13" class="node">
<title>gcc&#45;libs</title>
<ellipse fill="green" stroke="green" cx="63.6" cy="-306" rx="38.19" ry="18"/>
<text text-anchor="middle" x="63.6" y="-302.3" font-family="Times,serif" font-size="14.00">gcc&#45;libs</text>
</g>
<!-- ncurses&#45;&gt;gcc&#45;libs -->
<g id="edge14" class="edge">
<title>ncurses&#45;&gt;gcc&#45;libs</title>
<path fill="none" stroke="#8b4513" d="M216.31,-366.06C185.55,-354.16 136.18,-335.07 101.94,-321.83"/>
<polygon fill="#8b4513" stroke="#8b4513" points="102.86,-318.43 92.28,-318.09 100.34,-324.96 102.86,-318.43"/>
</g>
<!-- glibc&gt;=2.27 -->
<g id="node14" class="node">
<title>glibc&gt;=2.27</title>
<ellipse fill="green" stroke="green" cx="54.6" cy="-234" rx="54.69" ry="18"/>
<text text-anchor="middle" x="54.6" y="-230.3" font-family="Times,serif" font-size="14.00">glibc&gt;=2.27</text>
</g>
<!-- gcc&#45;libs&#45;&gt;glibc&gt;=2.27 -->
<g id="edge15" class="edge">
<title>gcc&#45;libs&#45;&gt;glibc&gt;=2.27</title>
<path fill="none" stroke="#8b4513" d="M61.37,-287.7C60.38,-279.98 59.19,-270.71 58.08,-262.11"/>
<polygon fill="#8b4513" stroke="#8b4513" points="61.54,-261.58 56.79,-252.1 54.6,-262.47 61.54,-261.58"/>
</g>
<!-- glibc&gt;=2.27&#45;&gt;glibc -->
<g id="edge16" class="edge">
<title>glibc&gt;=2.27&#45;&gt;glibc</title>
<path fill="none" stroke="grey" d="M96.08,-222.25C105.12,-220.06 114.66,-217.85 123.6,-216 228.62,-194.23 354.79,-175.02 409.74,-166.99"/>
</g>
<!-- libncursesw.so=6&#45;64&#45;&gt;ncurses -->
<g id="edge18" class="edge">
<title>libncursesw.so=6&#45;64&#45;&gt;ncurses</title>
<path fill="none" stroke="grey" d="M277.19,-432.05C270.43,-421.05 261.65,-406.76 254.91,-395.79"/>
</g>
<!-- sh -->
<g id="node17" class="node">
<title>sh</title>
<ellipse fill="green" stroke="green" cx="226.6" cy="-738" rx="27" ry="18"/>
<text text-anchor="middle" x="226.6" y="-734.3" font-family="Times,serif" font-size="14.00">sh</text>
</g>
<!-- xz&#45;&gt;sh -->
<g id="edge21" class="edge">
<title>xz&#45;&gt;sh</title>
<path fill="none" stroke="#8b4513" d="M226.6,-791.7C226.6,-783.98 226.6,-774.71 226.6,-766.11"/>
<polygon fill="#8b4513" stroke="#8b4513" points="230.1,-766.1 226.6,-756.1 223.1,-766.1 230.1,-766.1"/>
</g>
<!-- bash -->
<g id="node18" class="node">
<title>bash</title>
<ellipse fill="green" stroke="green" cx="226.6" cy="-666" rx="27" ry="18"/>
<text text-anchor="middle" x="226.6" y="-662.3" font-family="Times,serif" font-size="14.00">bash</text>
</g>
<!-- sh&#45;&gt;bash -->
<g id="edge22" class="edge">
<title>sh&#45;&gt;bash</title>
<path fill="none" stroke="grey" d="M215.16,-721.46C212.41,-709.86 212.41,-694.08 215.17,-682.49"/>
</g>
<!-- sh&#45;&gt;bash -->
<g id="edge30" class="edge">
<title>sh&#45;&gt;bash</title>
<path fill="none" stroke="grey" d="M226.6,-719.7C226.6,-708.85 226.6,-694.92 226.6,-684.1"/>
</g>
<!-- sh&#45;&gt;bash -->
<g id="edge39" class="edge">
<title>sh&#45;&gt;bash</title>
<path fill="none" stroke="grey" d="M238.04,-721.46C240.79,-709.86 240.78,-694.08 238.02,-682.49"/>
</g>
<!-- bash&#45;&gt;glibc -->
<g id="edge25" class="edge">
<title>bash&#45;&gt;glibc</title>
<path fill="none" stroke="#8b4513" d="M210.27,-651.09C184.58,-627.56 137.6,-577.12 137.6,-523 137.6,-523 137.6,-523 137.6,-305 137.6,-190.85 317.25,-168.33 398.51,-163.99"/>
<polygon fill="#8b4513" stroke="#8b4513" points="399,-167.47 408.83,-163.51 398.68,-160.48 399,-167.47"/>
</g>
<!-- bash&#45;&gt;ncurses -->
<g id="edge26" class="edge">
<title>bash&#45;&gt;ncurses</title>
<path fill="none" stroke="#8b4513" d="M214.76,-649.75C207.7,-639.65 199.38,-625.77 195.6,-612 174.4,-534.86 165.06,-506.35 194.6,-432 199.41,-419.88 208.46,-408.92 217.55,-400.16"/>
<polygon fill="#8b4513" stroke="#8b4513" points="220.03,-402.64 225.11,-393.34 215.34,-397.44 220.03,-402.64"/>
</g>
<!-- readline&gt;=7.0 -->
<g id="node19" class="node">
<title>readline&gt;=7.0</title>
<ellipse fill="green" stroke="green" cx="265.6" cy="-594" rx="61.19" ry="18"/>
<text text-anchor="middle" x="265.6" y="-590.3" font-family="Times,serif" font-size="14.00">readline&gt;=7.0</text>
</g>
<!-- bash&#45;&gt;readline&gt;=7.0 -->
<g id="edge23" class="edge">
<title>bash&#45;&gt;readline&gt;=7.0</title>
<path fill="none" stroke="#8b4513" d="M235.64,-648.76C240.23,-640.53 245.92,-630.32 251.1,-621.02"/>
<polygon fill="#8b4513" stroke="#8b4513" points="254.25,-622.56 256.05,-612.12 248.13,-619.16 254.25,-622.56"/>
</g>
<!-- readline&gt;=7.0&#45;&gt;readline -->
<g id="edge24" class="edge">
<title>readline&gt;=7.0&#45;&gt;readline</title>
<path fill="none" stroke="grey" d="M290.45,-577.46C309.91,-565.3 336.74,-548.54 355.46,-536.83"/>
</g>
<!-- icu&#45;&gt;gcc&#45;libs -->
<g id="edge28" class="edge">
<title>icu&#45;&gt;gcc&#45;libs</title>
<path fill="none" stroke="#8b4513" d="M103.74,-792.79C81.22,-750.04 23.6,-630.12 23.6,-523 23.6,-523 23.6,-523 23.6,-449 23.6,-407.26 39.81,-361.11 51.59,-333.08"/>
<polygon fill="#8b4513" stroke="#8b4513" points="54.93,-334.19 55.69,-323.62 48.5,-331.4 54.93,-334.19"/>
</g>
<!-- icu&#45;&gt;sh -->
<g id="edge29" class="edge">
<title>icu&#45;&gt;sh</title>
<path fill="none" stroke="#8b4513" d="M131.93,-797.13C150.19,-785.91 177.79,-768.97 198.48,-756.26"/>
<polygon fill="#8b4513" stroke="#8b4513" points="200.47,-759.15 207.16,-750.93 196.81,-753.18 200.47,-759.15"/>
</g>
<!-- glib2&#45;&gt;zlib -->
<g id="edge44" class="edge">
<title>glib2&#45;&gt;zlib</title>
<path fill="none" stroke="#8b4513" d="M520.8,-936.15C515.31,-911.81 505.12,-866.57 498.6,-837.67"/>
<polygon fill="#8b4513" stroke="#8b4513" points="502,-836.81 496.39,-827.82 495.17,-838.35 502,-836.81"/>
</g>
<!-- pcre -->
<g id="node22" class="node">
<title>pcre</title>
<ellipse fill="green" stroke="green" cx="408.6" cy="-882" rx="27" ry="18"/>
<text text-anchor="middle" x="408.6" y="-878.3" font-family="Times,serif" font-size="14.00">pcre</text>
</g>
<!-- glib2&#45;&gt;pcre -->
<g id="edge32" class="edge">
<title>glib2&#45;&gt;pcre</title>
<path fill="none" stroke="#8b4513" d="M504.65,-940.97C485.92,-929.66 457.7,-912.63 436.69,-899.95"/>
<polygon fill="#8b4513" stroke="#8b4513" points="438.26,-896.81 427.89,-894.64 434.64,-902.81 438.26,-896.81"/>
</g>
<!-- libffi -->
<g id="node24" class="node">
<title>libffi</title>
<ellipse fill="green" stroke="green" cx="569.6" cy="-738" rx="27.9" ry="18"/>
<text text-anchor="middle" x="569.6" y="-734.3" font-family="Times,serif" font-size="14.00">libffi</text>
</g>
<!-- glib2&#45;&gt;libffi -->
<g id="edge41" class="edge">
<title>glib2&#45;&gt;libffi</title>
<path fill="none" stroke="#8b4513" d="M528.2,-935.85C536.02,-898.66 554.59,-810.37 563.97,-765.77"/>
<polygon fill="#8b4513" stroke="#8b4513" points="567.4,-766.44 566.03,-755.94 560.55,-765 567.4,-766.44"/>
</g>
<!-- libutil&#45;linux -->
<g id="node25" class="node">
<title>libutil&#45;linux</title>
<ellipse fill="green" stroke="green" cx="658.6" cy="-810" rx="52.79" ry="18"/>
<text text-anchor="middle" x="658.6" y="-806.3" font-family="Times,serif" font-size="14.00">libutil&#45;linux</text>
</g>
<!-- glib2&#45;&gt;libutil&#45;linux -->
<g id="edge43" class="edge">
<title>glib2&#45;&gt;libutil&#45;linux</title>
<path fill="none" stroke="#8b4513" d="M537.62,-937.94C553.23,-920.03 580.32,-889.37 604.6,-864 613.96,-854.21 624.54,-843.71 633.84,-834.66"/>
<polygon fill="#8b4513" stroke="#8b4513" points="636.55,-836.91 641.3,-827.44 631.68,-831.88 636.55,-836.91"/>
</g>
<!-- libmount.so=1&#45;64 -->
<g id="node26" class="node">
<title>libmount.so=1&#45;64</title>
<ellipse fill="green" stroke="green" cx="688.6" cy="-882" rx="74.99" ry="18"/>
<text text-anchor="middle" x="688.6" y="-878.3" font-family="Times,serif" font-size="14.00">libmount.so=1&#45;64</text>
</g>
<!-- glib2&#45;&gt;libmount.so=1&#45;64 -->
<g id="edge45" class="edge">
<title>glib2&#45;&gt;libmount.so=1&#45;64</title>
<path fill="none" stroke="#8b4513" d="M547.74,-943.12C572.71,-932.46 613.06,-915.24 644.18,-901.96"/>
<polygon fill="#8b4513" stroke="#8b4513" points="645.7,-905.12 653.52,-897.97 642.95,-898.68 645.7,-905.12"/>
</g>
<!-- pcre&#45;&gt;zlib -->
<g id="edge35" class="edge">
<title>pcre&#45;&gt;zlib</title>
<path fill="none" stroke="#8b4513" d="M424.79,-867.5C437.23,-857.14 454.59,-842.67 468.63,-830.97"/>
<polygon fill="#8b4513" stroke="#8b4513" points="471.01,-833.55 476.45,-824.46 466.53,-828.17 471.01,-833.55"/>
</g>
<!-- pcre&#45;&gt;readline -->
<g id="edge34" class="edge">
<title>pcre&#45;&gt;readline</title>
<path fill="none" stroke="#8b4513" d="M414.32,-864.18C422.78,-837.82 437.6,-785.05 437.6,-739 437.6,-739 437.6,-739 437.6,-665 437.6,-621.24 413.12,-575.45 395.43,-548.07"/>
<polygon fill="#8b4513" stroke="#8b4513" points="398.19,-545.91 389.74,-539.53 392.37,-549.79 398.19,-545.91"/>
</g>
<!-- pcre&#45;&gt;gcc&#45;libs -->
<g id="edge33" class="edge">
<title>pcre&#45;&gt;gcc&#45;libs</title>
<path fill="none" stroke="#8b4513" d="M382.66,-876.19C327.96,-865.84 204.61,-841.31 190.6,-828 88.03,-730.58 99.6,-664.46 99.6,-523 99.6,-523 99.6,-523 99.6,-449 99.6,-407.55 85,-361.32 74.4,-333.2"/>
<polygon fill="#8b4513" stroke="#8b4513" points="77.59,-331.75 70.71,-323.7 71.07,-334.29 77.59,-331.75"/>
</g>
<!-- pcre&#45;&gt;bash -->
<g id="edge40" class="edge">
<title>pcre&#45;&gt;bash</title>
<path fill="none" stroke="#8b4513" d="M389.47,-868.94C374.61,-859.03 354.01,-844.05 338.6,-828 332.93,-822.1 272.6,-734.26 242.92,-690.88"/>
<polygon fill="#8b4513" stroke="#8b4513" points="245.78,-688.86 237.24,-682.59 240,-692.82 245.78,-688.86"/>
</g>
<!-- bzip2 -->
<g id="node23" class="node">
<title>bzip2</title>
<ellipse fill="green" stroke="green" cx="378.6" cy="-810" rx="30.59" ry="18"/>
<text text-anchor="middle" x="378.6" y="-806.3" font-family="Times,serif" font-size="14.00">bzip2</text>
</g>
<!-- pcre&#45;&gt;bzip2 -->
<g id="edge36" class="edge">
<title>pcre&#45;&gt;bzip2</title>
<path fill="none" stroke="#8b4513" d="M401.49,-864.41C398.02,-856.34 393.78,-846.43 389.89,-837.35"/>
<polygon fill="#8b4513" stroke="#8b4513" points="393.02,-835.77 385.86,-827.96 386.58,-838.53 393.02,-835.77"/>
</g>
<!-- bzip2&#45;&gt;glibc -->
<g id="edge37" class="edge">
<title>bzip2&#45;&gt;glibc</title>
<path fill="none" stroke="#8b4513" d="M388.25,-792.89C412.79,-750.38 475.6,-631.01 475.6,-523 475.6,-523 475.6,-523 475.6,-305 475.6,-263.41 460.19,-217.22 449,-189.14"/>
<polygon fill="#8b4513" stroke="#8b4513" points="452.14,-187.58 445.1,-179.66 445.67,-190.24 452.14,-187.58"/>
</g>
<!-- bzip2&#45;&gt;sh -->
<g id="edge38" class="edge">
<title>bzip2&#45;&gt;sh</title>
<path fill="none" stroke="#8b4513" d="M355.18,-798.22C328.99,-786.16 286.47,-766.57 257.55,-753.26"/>
<polygon fill="#8b4513" stroke="#8b4513" points="258.86,-750.01 248.31,-749 255.93,-756.36 258.86,-750.01"/>
</g>
<!-- libffi&#45;&gt;glibc -->
<g id="edge42" class="edge">
<title>libffi&#45;&gt;glibc</title>
<path fill="none" stroke="#8b4513" d="M567.82,-719.97C565.19,-693.34 560.6,-640.21 560.6,-595 560.6,-595 560.6,-595 560.6,-305 560.6,-262.81 554.67,-248.35 527.6,-216 512.56,-198.04 489.79,-184.71 470.91,-175.91"/>
<polygon fill="#8b4513" stroke="#8b4513" points="472.29,-172.69 461.73,-171.84 469.45,-179.09 472.29,-172.69"/>
</g>
<!-- libmount.so=1&#45;64&#45;&gt;libutil&#45;linux -->
<g id="edge46" class="edge">
<title>libmount.so=1&#45;64&#45;&gt;libutil&#45;linux</title>
<path fill="none" stroke="grey" d="M681.33,-864.05C676.69,-853.21 670.67,-839.18 666,-828.28"/>
</g>
</g>
</svg>
