<?xml version="1.0" encoding="UTF-8" standalone="no"?>
<!DOCTYPE svg PUBLIC "-//W3C//DTD SVG 1.1//EN"
 "http://www.w3.org/Graphics/SVG/1.1/DTD/svg11.dtd">
<!-- Generated by graphviz version 2.44.0 (0)
 -->
<!-- Title: G Pages: 1 -->
<svg width="449pt" height="692pt"
 viewBox="0.00 0.00 449.14 692.00" xmlns="http://www.w3.org/2000/svg" xmlns:xlink="http://www.w3.org/1999/xlink">
<g id="graph0" class="graph" transform="scale(1 1) rotate(0) translate(4 688)">
<title>G</title>
<polygon fill="white" stroke="transparent" points="-4,4 -4,-688 445.14,-688 445.14,4 -4,4"/>
<!-- START -->
<g id="node1" class="node">
<title>START</title>
<ellipse fill="red" stroke="red" cx="262.14" cy="-666" rx="38.19" ry="18"/>
<text text-anchor="middle" x="262.14" y="-662.3" font-family="Times,serif" font-size="14.00">START</text>
</g>
<!-- sqlite -->
<g id="node2" class="node">
<title>sqlite</title>
<ellipse fill="green" stroke="green" cx="262.14" cy="-594" rx="29.8" ry="18"/>
<text text-anchor="middle" x="262.14" y="-590.3" font-family="Times,serif" font-size="14.00">sqlite</text>
</g>
<!-- START&#45;&gt;sqlite -->
<g id="edge1" class="edge">
<title>START&#45;&gt;sqlite</title>
<path fill="none" stroke="black" d="M262.14,-647.7C262.14,-639.98 262.14,-630.71 262.14,-622.11"/>
<polygon fill="black" stroke="black" points="265.64,-622.1 262.14,-612.1 258.64,-622.1 265.64,-622.1"/>
</g>
<!-- readline -->
<g id="node3" class="node">
<title>readline</title>
<ellipse fill="green" stroke="green" cx="229.14" cy="-522" rx="38.99" ry="18"/>
<text text-anchor="middle" x="229.14" y="-518.3" font-family="Times,serif" font-size="14.00">readline</text>
</g>
<!-- sqlite&#45;&gt;readline -->
<g id="edge2" class="edge">
<title>sqlite&#45;&gt;readline</title>
<path fill="none" stroke="#8b4513" d="M254.32,-576.41C250.47,-568.25 245.75,-558.22 241.43,-549.07"/>
<polygon fill="#8b4513" stroke="#8b4513" points="244.57,-547.51 237.13,-539.96 238.23,-550.49 244.57,-547.51"/>
</g>
<!-- zlib -->
<g id="node14" class="node">
<title>zlib</title>
<ellipse fill="green" stroke="green" cx="414.14" cy="-450" rx="27" ry="18"/>
<text text-anchor="middle" x="414.14" y="-446.3" font-family="Times,serif" font-size="14.00">zlib</text>
</g>
<!-- sqlite&#45;&gt;zlib -->
<g id="edge16" class="edge">
<title>sqlite&#45;&gt;zlib</title>
<path fill="none" stroke="#8b4513" d="M277.84,-578.34C304.83,-553.12 360.14,-501.45 391.37,-472.27"/>
<polygon fill="#8b4513" stroke="#8b4513" points="393.84,-474.75 398.76,-465.37 389.06,-469.64 393.84,-474.75"/>
</g>
<!-- glibc -->
<g id="node4" class="node">
<title>glibc</title>
<ellipse fill="green" stroke="green" cx="246.14" cy="-162" rx="28.7" ry="18"/>
<text text-anchor="middle" x="246.14" y="-158.3" font-family="Times,serif" font-size="14.00">glibc</text>
</g>
<!-- readline&#45;&gt;glibc -->
<g id="edge3" class="edge">
<title>readline&#45;&gt;glibc</title>
<path fill="none" stroke="#8b4513" d="M210.57,-506.14C183.18,-482.42 135.14,-433.1 135.14,-379 135.14,-379 135.14,-379 135.14,-305 135.14,-251 185.59,-205.27 218.46,-181.21"/>
<polygon fill="#8b4513" stroke="#8b4513" points="220.68,-183.93 226.81,-175.28 216.63,-178.22 220.68,-183.93"/>
</g>
<!-- ncurses -->
<g id="node10" class="node">
<title>ncurses</title>
<ellipse fill="green" stroke="green" cx="252.14" cy="-378" rx="37.09" ry="18"/>
<text text-anchor="middle" x="252.14" y="-374.3" font-family="Times,serif" font-size="14.00">ncurses</text>
</g>
<!-- readline&#45;&gt;ncurses -->
<g id="edge9" class="edge">
<title>readline&#45;&gt;ncurses</title>
<path fill="none" stroke="#8b4513" d="M214.26,-505.23C205.99,-495.37 196.52,-481.92 192.14,-468 187.34,-452.74 185.56,-446.59 192.14,-432 198.26,-418.44 209.74,-406.95 221.05,-398.18"/>
<polygon fill="#8b4513" stroke="#8b4513" points="223.13,-400.99 229.16,-392.28 219.01,-395.33 223.13,-400.99"/>
</g>
<!-- libncursesw.so=6&#45;64 -->
<g id="node13" class="node">
<title>libncursesw.so=6&#45;64</title>
<ellipse fill="green" stroke="green" cx="285.14" cy="-450" rx="83.69" ry="18"/>
<text text-anchor="middle" x="285.14" y="-446.3" font-family="Times,serif" font-size="14.00">libncursesw.so=6&#45;64</text>
</g>
<!-- readline&#45;&gt;libncursesw.so=6&#45;64 -->
<g id="edge14" class="edge">
<title>readline&#45;&gt;libncursesw.so=6&#45;64</title>
<path fill="none" stroke="#8b4513" d="M242.13,-504.76C248.93,-496.27 257.4,-485.68 265.02,-476.15"/>
<polygon fill="#8b4513" stroke="#8b4513" points="267.93,-478.12 271.44,-468.12 262.46,-473.75 267.93,-478.12"/>
</g>
<!-- linux&#45;api&#45;headers&gt;=4.10 -->
<g id="node5" class="node">
<title>linux&#45;api&#45;headers&gt;=4.10</title>
<ellipse fill="green" stroke="green" cx="98.14" cy="-90" rx="98.28" ry="18"/>
<text text-anchor="middle" x="98.14" y="-86.3" font-family="Times,serif" font-size="14.00">linux&#45;api&#45;headers&gt;=4.10</text>
</g>
<!-- glibc&#45;&gt;linux&#45;api&#45;headers&gt;=4.10 -->
<g id="edge4" class="edge">
<title>glibc&#45;&gt;linux&#45;api&#45;headers&gt;=4.10</title>
<path fill="none" stroke="#8b4513" d="M223.98,-150.52C202.2,-140.22 168.37,-124.22 141.27,-111.4"/>
<polygon fill="#8b4513" stroke="#8b4513" points="142.53,-108.12 132,-107.01 139.54,-114.45 142.53,-108.12"/>
</g>
<!-- tzdata -->
<g id="node7" class="node">
<title>tzdata</title>
<ellipse fill="green" stroke="green" cx="246.14" cy="-90" rx="31.7" ry="18"/>
<text text-anchor="middle" x="246.14" y="-86.3" font-family="Times,serif" font-size="14.00">tzdata</text>
</g>
<!-- glibc&#45;&gt;tzdata -->
<g id="edge6" class="edge">
<title>glibc&#45;&gt;tzdata</title>
<path fill="none" stroke="#8b4513" d="M246.14,-143.7C246.14,-135.98 246.14,-126.71 246.14,-118.11"/>
<polygon fill="#8b4513" stroke="#8b4513" points="249.64,-118.1 246.14,-108.1 242.64,-118.1 249.64,-118.1"/>
</g>
<!-- filesystem -->
<g id="node8" class="node">
<title>filesystem</title>
<ellipse fill="green" stroke="green" cx="343.14" cy="-90" rx="46.59" ry="18"/>
<text text-anchor="middle" x="343.14" y="-86.3" font-family="Times,serif" font-size="14.00">filesystem</text>
</g>
<!-- glibc&#45;&gt;filesystem -->
<g id="edge7" class="edge">
<title>glibc&#45;&gt;filesystem</title>
<path fill="none" stroke="#8b4513" d="M264.39,-147.83C278.19,-137.88 297.42,-123.99 313.43,-112.44"/>
<polygon fill="#8b4513" stroke="#8b4513" points="315.88,-114.99 321.94,-106.3 311.78,-109.31 315.88,-114.99"/>
</g>
<!-- linux&#45;api&#45;headers -->
<g id="node6" class="node">
<title>linux&#45;api&#45;headers</title>
<ellipse fill="green" stroke="green" cx="98.14" cy="-18" rx="71.49" ry="18"/>
<text text-anchor="middle" x="98.14" y="-14.3" font-family="Times,serif" font-size="14.00">linux&#45;api&#45;headers</text>
</g>
<!-- linux&#45;api&#45;headers&gt;=4.10&#45;&gt;linux&#45;api&#45;headers -->
<g id="edge5" class="edge">
<title>linux&#45;api&#45;headers&gt;=4.10&#45;&gt;linux&#45;api&#45;headers</title>
<path fill="none" stroke="grey" d="M98.14,-71.7C98.14,-60.85 98.14,-46.92 98.14,-36.1"/>
</g>
<!-- iana&#45;etc -->
<g id="node9" class="node">
<title>iana&#45;etc</title>
<ellipse fill="green" stroke="green" cx="343.14" cy="-18" rx="38.19" ry="18"/>
<text text-anchor="middle" x="343.14" y="-14.3" font-family="Times,serif" font-size="14.00">iana&#45;etc</text>
</g>
<!-- filesystem&#45;&gt;iana&#45;etc -->
<g id="edge8" class="edge">
<title>filesystem&#45;&gt;iana&#45;etc</title>
<path fill="none" stroke="#8b4513" d="M343.14,-71.7C343.14,-63.98 343.14,-54.71 343.14,-46.11"/>
<polygon fill="#8b4513" stroke="#8b4513" points="346.64,-46.1 343.14,-36.1 339.64,-46.1 346.64,-46.1"/>
</g>
<!-- ncurses&#45;&gt;glibc -->
<g id="edge10" class="edge">
<title>ncurses&#45;&gt;glibc</title>
<path fill="none" stroke="#8b4513" d="M245.06,-360.03C233.7,-330.62 213.72,-268.31 224.14,-216 226.01,-206.63 229.56,-196.84 233.28,-188.26"/>
<polygon fill="#8b4513" stroke="#8b4513" points="236.46,-189.73 237.47,-179.18 230.1,-186.8 236.46,-189.73"/>
</g>
<!-- gcc&#45;libs -->
<g id="node11" class="node">
<title>gcc&#45;libs</title>
<ellipse fill="green" stroke="green" cx="280.14" cy="-306" rx="38.19" ry="18"/>
<text text-anchor="middle" x="280.14" y="-302.3" font-family="Times,serif" font-size="14.00">gcc&#45;libs</text>
</g>
<!-- ncurses&#45;&gt;gcc&#45;libs -->
<g id="edge11" class="edge">
<title>ncurses&#45;&gt;gcc&#45;libs</title>
<path fill="none" stroke="#8b4513" d="M258.92,-360.05C262.15,-351.97 266.09,-342.12 269.7,-333.11"/>
<polygon fill="#8b4513" stroke="#8b4513" points="272.96,-334.37 273.43,-323.79 266.46,-331.77 272.96,-334.37"/>
</g>
<!-- glibc&gt;=2.27 -->
<g id="node12" class="node">
<title>glibc&gt;=2.27</title>
<ellipse fill="green" stroke="green" cx="288.14" cy="-234" rx="54.69" ry="18"/>
<text text-anchor="middle" x="288.14" y="-230.3" font-family="Times,serif" font-size="14.00">glibc&gt;=2.27</text>
</g>
<!-- gcc&#45;libs&#45;&gt;glibc&gt;=2.27 -->
<g id="edge12" class="edge">
<title>gcc&#45;libs&#45;&gt;glibc&gt;=2.27</title>
<path fill="none" stroke="#8b4513" d="M282.12,-287.7C283,-279.98 284.06,-270.71 285.04,-262.11"/>
<polygon fill="#8b4513" stroke="#8b4513" points="288.53,-262.44 286.19,-252.1 281.57,-261.64 288.53,-262.44"/>
</g>
<!-- glibc&gt;=2.27&#45;&gt;glibc -->
<g id="edge13" class="edge">
<title>glibc&gt;=2.27&#45;&gt;glibc</title>
<path fill="none" stroke="grey" d="M277.97,-216.05C271.27,-204.89 262.55,-190.34 255.93,-179.31"/>
</g>
<!-- libncursesw.so=6&#45;64&#45;&gt;ncurses -->
<g id="edge15" class="edge">
<title>libncursesw.so=6&#45;64&#45;&gt;ncurses</title>
<path fill="none" stroke="grey" d="M277.15,-432.05C271.96,-421.05 265.23,-406.76 260.06,-395.79"/>
</g>
<!-- zlib&#45;&gt;glibc -->
<g id="edge17" class="edge">
<title>zlib&#45;&gt;glibc</title>
<path fill="none" stroke="#8b4513" d="M414.18,-431.95C413.39,-390.32 405.94,-282.04 352.14,-216 334.29,-194.09 305.07,-180.43 281.83,-172.48"/>
<polygon fill="#8b4513" stroke="#8b4513" points="282.88,-169.14 272.28,-169.41 280.73,-175.8 282.88,-169.14"/>
</g>
</g>
</svg>
