<?xml version="1.0" encoding="UTF-8" standalone="no"?>
<!DOCTYPE svg PUBLIC "-//W3C//DTD SVG 1.1//EN"
 "http://www.w3.org/Graphics/SVG/1.1/DTD/svg11.dtd">
<!-- Generated by graphviz version 2.44.0 (0)
 -->
<!-- Title: G Pages: 1 -->
<svg width="762pt" height="1556pt"
 viewBox="0.00 0.00 761.64 1556.00" xmlns="http://www.w3.org/2000/svg" xmlns:xlink="http://www.w3.org/1999/xlink">
<g id="graph0" class="graph" transform="scale(1 1) rotate(0) translate(4 1552)">
<title>G</title>
<polygon fill="white" stroke="transparent" points="-4,4 -4,-1552 757.64,-1552 757.64,4 -4,4"/>
<!-- START -->
<g id="node1" class="node">
<title>START</title>
<ellipse fill="red" stroke="red" cx="291" cy="-1530" rx="38.19" ry="18"/>
<text text-anchor="middle" x="291" y="-1526.3" font-family="Times,serif" font-size="14.00">START</text>
</g>
<!-- sudo -->
<g id="node2" class="node">
<title>sudo</title>
<ellipse fill="green" stroke="green" cx="291" cy="-1458" rx="27.1" ry="18"/>
<text text-anchor="middle" x="291" y="-1454.3" font-family="Times,serif" font-size="14.00">sudo</text>
</g>
<!-- START&#45;&gt;sudo -->
<g id="edge1" class="edge">
<title>START&#45;&gt;sudo</title>
<path fill="none" stroke="black" d="M291,-1511.7C291,-1503.98 291,-1494.71 291,-1486.11"/>
<polygon fill="black" stroke="black" points="294.5,-1486.1 291,-1476.1 287.5,-1486.1 294.5,-1486.1"/>
</g>
<!-- glibc -->
<g id="node3" class="node">
<title>glibc</title>
<ellipse fill="green" stroke="green" cx="482" cy="-162" rx="28.7" ry="18"/>
<text text-anchor="middle" x="482" y="-158.3" font-family="Times,serif" font-size="14.00">glibc</text>
</g>
<!-- sudo&#45;&gt;glibc -->
<g id="edge2" class="edge">
<title>sudo&#45;&gt;glibc</title>
<path fill="none" stroke="#8b4513" d="M263.62,-1456.2C191.18,-1452.49 0,-1431.65 0,-1315 0,-1315 0,-1315 0,-305 0,-251.52 33.61,-240.79 81,-216 143.64,-183.24 355.74,-169.23 443.5,-164.74"/>
<polygon fill="#8b4513" stroke="#8b4513" points="443.75,-168.23 453.57,-164.24 443.41,-161.24 443.75,-168.23"/>
</g>
<!-- libgcrypt -->
<g id="node9" class="node">
<title>libgcrypt</title>
<ellipse fill="green" stroke="green" cx="133" cy="-1386" rx="42.79" ry="18"/>
<text text-anchor="middle" x="133" y="-1382.3" font-family="Times,serif" font-size="14.00">libgcrypt</text>
</g>
<!-- sudo&#45;&gt;libgcrypt -->
<g id="edge8" class="edge">
<title>sudo&#45;&gt;libgcrypt</title>
<path fill="none" stroke="#8b4513" d="M269.03,-1447.27C243.71,-1436.05 201.64,-1417.41 170.98,-1403.82"/>
<polygon fill="#8b4513" stroke="#8b4513" points="172.02,-1400.46 161.46,-1399.61 169.18,-1406.86 172.02,-1400.46"/>
</g>
<!-- pam -->
<g id="node19" class="node">
<title>pam</title>
<ellipse fill="green" stroke="green" cx="612" cy="-1386" rx="27" ry="18"/>
<text text-anchor="middle" x="612" y="-1382.3" font-family="Times,serif" font-size="14.00">pam</text>
</g>
<!-- sudo&#45;&gt;pam -->
<g id="edge25" class="edge">
<title>sudo&#45;&gt;pam</title>
<path fill="none" stroke="#8b4513" d="M316.46,-1451.45C373.46,-1439.02 511.48,-1408.92 576.72,-1394.69"/>
<polygon fill="#8b4513" stroke="#8b4513" points="577.52,-1398.1 586.54,-1392.55 576.02,-1391.26 577.52,-1398.1"/>
</g>
<!-- libldap -->
<g id="node26" class="node">
<title>libldap</title>
<ellipse fill="green" stroke="green" cx="339" cy="-1170" rx="35.19" ry="18"/>
<text text-anchor="middle" x="339" y="-1166.3" font-family="Times,serif" font-size="14.00">libldap</text>
</g>
<!-- sudo&#45;&gt;libldap -->
<g id="edge57" class="edge">
<title>sudo&#45;&gt;libldap</title>
<path fill="none" stroke="#8b4513" d="M293.86,-1439.97C301.9,-1392.08 324.74,-1255.98 334.49,-1197.85"/>
<polygon fill="#8b4513" stroke="#8b4513" points="337.95,-1198.39 336.16,-1187.94 331.05,-1197.23 337.95,-1198.39"/>
</g>
<!-- linux&#45;api&#45;headers&gt;=4.10 -->
<g id="node4" class="node">
<title>linux&#45;api&#45;headers&gt;=4.10</title>
<ellipse fill="green" stroke="green" cx="334" cy="-90" rx="98.28" ry="18"/>
<text text-anchor="middle" x="334" y="-86.3" font-family="Times,serif" font-size="14.00">linux&#45;api&#45;headers&gt;=4.10</text>
</g>
<!-- glibc&#45;&gt;linux&#45;api&#45;headers&gt;=4.10 -->
<g id="edge3" class="edge">
<title>glibc&#45;&gt;linux&#45;api&#45;headers&gt;=4.10</title>
<path fill="none" stroke="#8b4513" d="M459.84,-150.52C438.06,-140.22 404.23,-124.22 377.13,-111.4"/>
<polygon fill="#8b4513" stroke="#8b4513" points="378.39,-108.12 367.85,-107.01 375.4,-114.45 378.39,-108.12"/>
</g>
<!-- tzdata -->
<g id="node6" class="node">
<title>tzdata</title>
<ellipse fill="green" stroke="green" cx="482" cy="-90" rx="31.7" ry="18"/>
<text text-anchor="middle" x="482" y="-86.3" font-family="Times,serif" font-size="14.00">tzdata</text>
</g>
<!-- glibc&#45;&gt;tzdata -->
<g id="edge5" class="edge">
<title>glibc&#45;&gt;tzdata</title>
<path fill="none" stroke="#8b4513" d="M482,-143.7C482,-135.98 482,-126.71 482,-118.11"/>
<polygon fill="#8b4513" stroke="#8b4513" points="485.5,-118.1 482,-108.1 478.5,-118.1 485.5,-118.1"/>
</g>
<!-- filesystem -->
<g id="node7" class="node">
<title>filesystem</title>
<ellipse fill="green" stroke="green" cx="579" cy="-90" rx="46.59" ry="18"/>
<text text-anchor="middle" x="579" y="-86.3" font-family="Times,serif" font-size="14.00">filesystem</text>
</g>
<!-- glibc&#45;&gt;filesystem -->
<g id="edge6" class="edge">
<title>glibc&#45;&gt;filesystem</title>
<path fill="none" stroke="#8b4513" d="M500.24,-147.83C514.04,-137.88 533.28,-123.99 549.29,-112.44"/>
<polygon fill="#8b4513" stroke="#8b4513" points="551.74,-114.99 557.8,-106.3 547.64,-109.31 551.74,-114.99"/>
</g>
<!-- linux&#45;api&#45;headers -->
<g id="node5" class="node">
<title>linux&#45;api&#45;headers</title>
<ellipse fill="green" stroke="green" cx="334" cy="-18" rx="71.49" ry="18"/>
<text text-anchor="middle" x="334" y="-14.3" font-family="Times,serif" font-size="14.00">linux&#45;api&#45;headers</text>
</g>
<!-- linux&#45;api&#45;headers&gt;=4.10&#45;&gt;linux&#45;api&#45;headers -->
<g id="edge4" class="edge">
<title>linux&#45;api&#45;headers&gt;=4.10&#45;&gt;linux&#45;api&#45;headers</title>
<path fill="none" stroke="grey" d="M334,-71.7C334,-60.85 334,-46.92 334,-36.1"/>
</g>
<!-- iana&#45;etc -->
<g id="node8" class="node">
<title>iana&#45;etc</title>
<ellipse fill="green" stroke="green" cx="579" cy="-18" rx="38.19" ry="18"/>
<text text-anchor="middle" x="579" y="-14.3" font-family="Times,serif" font-size="14.00">iana&#45;etc</text>
</g>
<!-- filesystem&#45;&gt;iana&#45;etc -->
<g id="edge7" class="edge">
<title>filesystem&#45;&gt;iana&#45;etc</title>
<path fill="none" stroke="#8b4513" d="M579,-71.7C579,-63.98 579,-54.71 579,-46.11"/>
<polygon fill="#8b4513" stroke="#8b4513" points="582.5,-46.1 579,-36.1 575.5,-46.1 582.5,-46.1"/>
</g>
<!-- libgpg&#45;error -->
<g id="node10" class="node">
<title>libgpg&#45;error</title>
<ellipse fill="green" stroke="green" cx="82" cy="-810" rx="53.89" ry="18"/>
<text text-anchor="middle" x="82" y="-806.3" font-family="Times,serif" font-size="14.00">libgpg&#45;error</text>
</g>
<!-- libgcrypt&#45;&gt;libgpg&#45;error -->
<g id="edge9" class="edge">
<title>libgcrypt&#45;&gt;libgpg&#45;error</title>
<path fill="none" stroke="#8b4513" d="M127.13,-1367.74C118.66,-1341.25 104,-1288.79 104,-1243 104,-1243 104,-1243 104,-953 104,-912.74 95.26,-866.81 88.79,-838.36"/>
<polygon fill="#8b4513" stroke="#8b4513" points="92.14,-837.29 86.45,-828.35 85.32,-838.89 92.14,-837.29"/>
</g>
<!-- libgpg&#45;error&#45;&gt;glibc -->
<g id="edge10" class="edge">
<title>libgpg&#45;error&#45;&gt;glibc</title>
<path fill="none" stroke="#8b4513" d="M82.2,-791.95C82.49,-765.29 83,-712.12 83,-667 83,-667 83,-667 83,-305 83,-263.91 77.08,-243.06 108,-216 157.33,-172.83 357.69,-164.76 443.11,-163.3"/>
<polygon fill="#8b4513" stroke="#8b4513" points="443.24,-166.8 453.18,-163.15 443.13,-159.8 443.24,-166.8"/>
</g>
<!-- sh -->
<g id="node11" class="node">
<title>sh</title>
<ellipse fill="green" stroke="green" cx="350" cy="-738" rx="27" ry="18"/>
<text text-anchor="middle" x="350" y="-734.3" font-family="Times,serif" font-size="14.00">sh</text>
</g>
<!-- libgpg&#45;error&#45;&gt;sh -->
<g id="edge11" class="edge">
<title>libgpg&#45;error&#45;&gt;sh</title>
<path fill="none" stroke="#8b4513" d="M123,-798.29C175.56,-784.56 265.81,-760.99 315.2,-748.09"/>
<polygon fill="#8b4513" stroke="#8b4513" points="316.3,-751.42 325.09,-745.51 314.53,-744.65 316.3,-751.42"/>
</g>
<!-- bash -->
<g id="node12" class="node">
<title>bash</title>
<ellipse fill="green" stroke="green" cx="350" cy="-666" rx="27" ry="18"/>
<text text-anchor="middle" x="350" y="-662.3" font-family="Times,serif" font-size="14.00">bash</text>
</g>
<!-- sh&#45;&gt;bash -->
<g id="edge12" class="edge">
<title>sh&#45;&gt;bash</title>
<path fill="none" stroke="grey" d="M329.75,-726.06C320.79,-712.99 320.75,-691.23 329.64,-678.09"/>
</g>
<!-- sh&#45;&gt;bash -->
<g id="edge35" class="edge">
<title>sh&#45;&gt;bash</title>
<path fill="none" stroke="grey" d="M338.56,-721.46C335.81,-709.86 335.81,-694.08 338.57,-682.49"/>
</g>
<!-- sh&#45;&gt;bash -->
<g id="edge45" class="edge">
<title>sh&#45;&gt;bash</title>
<path fill="none" stroke="grey" d="M350,-719.7C350,-708.85 350,-694.92 350,-684.1"/>
</g>
<!-- sh&#45;&gt;bash -->
<g id="edge49" class="edge">
<title>sh&#45;&gt;bash</title>
<path fill="none" stroke="grey" d="M361.44,-721.46C364.19,-709.86 364.19,-694.08 361.43,-682.49"/>
</g>
<!-- sh&#45;&gt;bash -->
<g id="edge55" class="edge">
<title>sh&#45;&gt;bash</title>
<path fill="none" stroke="grey" d="M370.25,-726.06C379.21,-712.99 379.25,-691.23 370.36,-678.09"/>
</g>
<!-- bash&#45;&gt;glibc -->
<g id="edge23" class="edge">
<title>bash&#45;&gt;glibc</title>
<path fill="none" stroke="#8b4513" d="M374.7,-658.71C425.3,-644.19 536,-603.24 536,-523 536,-523 536,-523 536,-305 536,-261.59 513.68,-215.3 497.74,-187.78"/>
<polygon fill="#8b4513" stroke="#8b4513" points="500.54,-185.65 492.41,-178.86 494.53,-189.24 500.54,-185.65"/>
</g>
<!-- readline&gt;=7.0 -->
<g id="node13" class="node">
<title>readline&gt;=7.0</title>
<ellipse fill="green" stroke="green" cx="377" cy="-594" rx="61.19" ry="18"/>
<text text-anchor="middle" x="377" y="-590.3" font-family="Times,serif" font-size="14.00">readline&gt;=7.0</text>
</g>
<!-- bash&#45;&gt;readline&gt;=7.0 -->
<g id="edge13" class="edge">
<title>bash&#45;&gt;readline&gt;=7.0</title>
<path fill="none" stroke="#8b4513" d="M356.4,-648.41C359.51,-640.34 363.33,-630.43 366.83,-621.35"/>
<polygon fill="#8b4513" stroke="#8b4513" points="370.13,-622.55 370.46,-611.96 363.6,-620.03 370.13,-622.55"/>
</g>
<!-- ncurses -->
<g id="node15" class="node">
<title>ncurses</title>
<ellipse fill="green" stroke="green" cx="352" cy="-378" rx="37.09" ry="18"/>
<text text-anchor="middle" x="352" y="-374.3" font-family="Times,serif" font-size="14.00">ncurses</text>
</g>
<!-- bash&#45;&gt;ncurses -->
<g id="edge24" class="edge">
<title>bash&#45;&gt;ncurses</title>
<path fill="none" stroke="#8b4513" d="M335.29,-650.66C298.58,-613.11 209.09,-509.4 255,-432 267,-411.77 289.75,-398.76 310.2,-390.69"/>
<polygon fill="#8b4513" stroke="#8b4513" points="311.5,-393.95 319.7,-387.23 309.1,-387.37 311.5,-393.95"/>
</g>
<!-- readline -->
<g id="node14" class="node">
<title>readline</title>
<ellipse fill="green" stroke="green" cx="404" cy="-522" rx="38.99" ry="18"/>
<text text-anchor="middle" x="404" y="-518.3" font-family="Times,serif" font-size="14.00">readline</text>
</g>
<!-- readline&gt;=7.0&#45;&gt;readline -->
<g id="edge14" class="edge">
<title>readline&gt;=7.0&#45;&gt;readline</title>
<path fill="none" stroke="grey" d="M383.54,-576.05C387.78,-565.05 393.29,-550.76 397.52,-539.79"/>
</g>
<!-- readline&#45;&gt;glibc -->
<g id="edge15" class="edge">
<title>readline&#45;&gt;glibc</title>
<path fill="none" stroke="#8b4513" d="M422.57,-506.14C449.97,-482.42 498,-433.1 498,-379 498,-379 498,-379 498,-305 498,-264.74 491.57,-218.47 486.86,-189.98"/>
<polygon fill="#8b4513" stroke="#8b4513" points="490.29,-189.25 485.16,-179.98 483.39,-190.43 490.29,-189.25"/>
</g>
<!-- readline&#45;&gt;ncurses -->
<g id="edge16" class="edge">
<title>readline&#45;&gt;ncurses</title>
<path fill="none" stroke="#8b4513" d="M419.03,-505.34C434.62,-487.13 454.89,-456.44 441,-432 430.41,-413.36 410.38,-400.59 392,-392.26"/>
<polygon fill="#8b4513" stroke="#8b4513" points="393.17,-388.96 382.6,-388.3 390.46,-395.41 393.17,-388.96"/>
</g>
<!-- libncursesw.so=6&#45;64 -->
<g id="node18" class="node">
<title>libncursesw.so=6&#45;64</title>
<ellipse fill="green" stroke="green" cx="348" cy="-450" rx="83.69" ry="18"/>
<text text-anchor="middle" x="348" y="-446.3" font-family="Times,serif" font-size="14.00">libncursesw.so=6&#45;64</text>
</g>
<!-- readline&#45;&gt;libncursesw.so=6&#45;64 -->
<g id="edge21" class="edge">
<title>readline&#45;&gt;libncursesw.so=6&#45;64</title>
<path fill="none" stroke="#8b4513" d="M391.01,-504.76C384.21,-496.27 375.74,-485.68 368.12,-476.15"/>
<polygon fill="#8b4513" stroke="#8b4513" points="370.68,-473.75 361.7,-468.12 365.21,-478.12 370.68,-473.75"/>
</g>
<!-- ncurses&#45;&gt;glibc -->
<g id="edge17" class="edge">
<title>ncurses&#45;&gt;glibc</title>
<path fill="none" stroke="#8b4513" d="M367.5,-361.62C377.24,-351.48 389.68,-337.59 399,-324 429.61,-279.33 456.59,-221.92 470.98,-189.11"/>
<polygon fill="#8b4513" stroke="#8b4513" points="474.26,-190.32 475.03,-179.76 467.84,-187.54 474.26,-190.32"/>
</g>
<!-- gcc&#45;libs -->
<g id="node16" class="node">
<title>gcc&#45;libs</title>
<ellipse fill="green" stroke="green" cx="352" cy="-306" rx="38.19" ry="18"/>
<text text-anchor="middle" x="352" y="-302.3" font-family="Times,serif" font-size="14.00">gcc&#45;libs</text>
</g>
<!-- ncurses&#45;&gt;gcc&#45;libs -->
<g id="edge18" class="edge">
<title>ncurses&#45;&gt;gcc&#45;libs</title>
<path fill="none" stroke="#8b4513" d="M352,-359.7C352,-351.98 352,-342.71 352,-334.11"/>
<polygon fill="#8b4513" stroke="#8b4513" points="355.5,-334.1 352,-324.1 348.5,-334.1 355.5,-334.1"/>
</g>
<!-- glibc&gt;=2.27 -->
<g id="node17" class="node">
<title>glibc&gt;=2.27</title>
<ellipse fill="green" stroke="green" cx="359" cy="-234" rx="54.69" ry="18"/>
<text text-anchor="middle" x="359" y="-230.3" font-family="Times,serif" font-size="14.00">glibc&gt;=2.27</text>
</g>
<!-- gcc&#45;libs&#45;&gt;glibc&gt;=2.27 -->
<g id="edge19" class="edge">
<title>gcc&#45;libs&#45;&gt;glibc&gt;=2.27</title>
<path fill="none" stroke="#8b4513" d="M353.73,-287.7C354.5,-279.98 355.43,-270.71 356.29,-262.11"/>
<polygon fill="#8b4513" stroke="#8b4513" points="359.78,-262.4 357.29,-252.1 352.81,-261.71 359.78,-262.4"/>
</g>
<!-- glibc&gt;=2.27&#45;&gt;glibc -->
<g id="edge20" class="edge">
<title>glibc&gt;=2.27&#45;&gt;glibc</title>
<path fill="none" stroke="grey" d="M385.09,-218.15C407.79,-205.23 440.27,-186.75 461.25,-174.81"/>
</g>
<!-- libncursesw.so=6&#45;64&#45;&gt;ncurses -->
<g id="edge22" class="edge">
<title>libncursesw.so=6&#45;64&#45;&gt;ncurses</title>
<path fill="none" stroke="grey" d="M348.99,-431.7C349.61,-420.85 350.4,-406.92 351.02,-396.1"/>
</g>
<!-- pam&#45;&gt;glibc -->
<g id="edge26" class="edge">
<title>pam&#45;&gt;glibc</title>
<path fill="none" stroke="#8b4513" d="M612,-1367.95C612,-1341.29 612,-1288.11 612,-1243 612,-1243 612,-1243 612,-305 612,-246.36 550.95,-201.41 512.52,-178.92"/>
<polygon fill="#8b4513" stroke="#8b4513" points="514.18,-175.84 503.76,-173.95 510.73,-181.92 514.18,-175.84"/>
</g>
<!-- cracklib -->
<g id="node20" class="node">
<title>cracklib</title>
<ellipse fill="green" stroke="green" cx="705" cy="-306" rx="39.79" ry="18"/>
<text text-anchor="middle" x="705" y="-302.3" font-family="Times,serif" font-size="14.00">cracklib</text>
</g>
<!-- pam&#45;&gt;cracklib -->
<g id="edge27" class="edge">
<title>pam&#45;&gt;cracklib</title>
<path fill="none" stroke="#8b4513" d="M637.93,-1380.79C665.73,-1374.87 709.08,-1361.33 733,-1332 758.56,-1300.66 752,-1283.45 752,-1243 752,-1243 752,-1243 752,-449 752,-406.72 732.99,-360.79 719.15,-332.95"/>
<polygon fill="#8b4513" stroke="#8b4513" points="722.19,-331.19 714.51,-323.89 715.96,-334.38 722.19,-331.19"/>
</g>
<!-- libtirpc -->
<g id="node22" class="node">
<title>libtirpc</title>
<ellipse fill="green" stroke="green" cx="512" cy="-1314" rx="36.29" ry="18"/>
<text text-anchor="middle" x="512" y="-1310.3" font-family="Times,serif" font-size="14.00">libtirpc</text>
</g>
<!-- pam&#45;&gt;libtirpc -->
<g id="edge31" class="edge">
<title>pam&#45;&gt;libtirpc</title>
<path fill="none" stroke="#8b4513" d="M594.12,-1372.49C579.29,-1362.1 557.92,-1347.15 540.7,-1335.09"/>
<polygon fill="#8b4513" stroke="#8b4513" points="542.33,-1331.96 532.13,-1329.09 538.31,-1337.69 542.33,-1331.96"/>
</g>
<!-- pambase -->
<g id="node34" class="node">
<title>pambase</title>
<ellipse fill="green" stroke="green" cx="682" cy="-1314" rx="42.49" ry="18"/>
<text text-anchor="middle" x="682" y="-1310.3" font-family="Times,serif" font-size="14.00">pambase</text>
</g>
<!-- pam&#45;&gt;pambase -->
<g id="edge56" class="edge">
<title>pam&#45;&gt;pambase</title>
<path fill="none" stroke="#8b4513" d="M626.5,-1370.5C635.87,-1361.13 648.27,-1348.73 658.97,-1338.03"/>
<polygon fill="#8b4513" stroke="#8b4513" points="661.45,-1340.5 666.05,-1330.95 656.5,-1335.55 661.45,-1340.5"/>
</g>
<!-- cracklib&#45;&gt;glibc -->
<g id="edge28" class="edge">
<title>cracklib&#45;&gt;glibc</title>
<path fill="none" stroke="#8b4513" d="M694.31,-288.67C680.63,-268.93 655.18,-235.91 626,-216 592.98,-193.47 549.2,-179.15 518.62,-171.15"/>
<polygon fill="#8b4513" stroke="#8b4513" points="519.34,-167.72 508.79,-168.67 517.63,-174.51 519.34,-167.72"/>
</g>
<!-- zlib -->
<g id="node21" class="node">
<title>zlib</title>
<ellipse fill="green" stroke="green" cx="705" cy="-234" rx="27" ry="18"/>
<text text-anchor="middle" x="705" y="-230.3" font-family="Times,serif" font-size="14.00">zlib</text>
</g>
<!-- cracklib&#45;&gt;zlib -->
<g id="edge29" class="edge">
<title>cracklib&#45;&gt;zlib</title>
<path fill="none" stroke="#8b4513" d="M705,-287.7C705,-279.98 705,-270.71 705,-262.11"/>
<polygon fill="#8b4513" stroke="#8b4513" points="708.5,-262.1 705,-252.1 701.5,-262.1 708.5,-262.1"/>
</g>
<!-- zlib&#45;&gt;glibc -->
<g id="edge30" class="edge">
<title>zlib&#45;&gt;glibc</title>
<path fill="none" stroke="#8b4513" d="M683.04,-223.38C676.93,-220.84 670.25,-218.2 664,-216 614.06,-198.43 555.01,-182.01 518.02,-172.24"/>
<polygon fill="#8b4513" stroke="#8b4513" points="518.77,-168.81 508.2,-169.66 516.99,-175.59 518.77,-168.81"/>
</g>
<!-- krb5 -->
<g id="node23" class="node">
<title>krb5</title>
<ellipse fill="green" stroke="green" cx="511" cy="-1242" rx="27.1" ry="18"/>
<text text-anchor="middle" x="511" y="-1238.3" font-family="Times,serif" font-size="14.00">krb5</text>
</g>
<!-- libtirpc&#45;&gt;krb5 -->
<g id="edge32" class="edge">
<title>libtirpc&#45;&gt;krb5</title>
<path fill="none" stroke="#8b4513" d="M511.75,-1295.7C511.64,-1287.98 511.51,-1278.71 511.39,-1270.11"/>
<polygon fill="#8b4513" stroke="#8b4513" points="514.89,-1270.05 511.24,-1260.1 507.89,-1270.15 514.89,-1270.05"/>
</g>
<!-- e2fsprogs -->
<g id="node24" class="node">
<title>e2fsprogs</title>
<ellipse fill="green" stroke="green" cx="419" cy="-1098" rx="44.69" ry="18"/>
<text text-anchor="middle" x="419" y="-1094.3" font-family="Times,serif" font-size="14.00">e2fsprogs</text>
</g>
<!-- krb5&#45;&gt;e2fsprogs -->
<g id="edge33" class="edge">
<title>krb5&#45;&gt;e2fsprogs</title>
<path fill="none" stroke="#8b4513" d="M500.8,-1225.26C484.95,-1200.79 454.24,-1153.38 435.29,-1124.14"/>
<polygon fill="#8b4513" stroke="#8b4513" points="438.19,-1122.18 429.81,-1115.69 432.31,-1125.98 438.19,-1122.18"/>
</g>
<!-- krb5&#45;&gt;libldap -->
<g id="edge37" class="edge">
<title>krb5&#45;&gt;libldap</title>
<path fill="none" stroke="#8b4513" d="M488.16,-1231.7C459.3,-1219.96 409.29,-1199.61 375.2,-1185.73"/>
<polygon fill="#8b4513" stroke="#8b4513" points="376.19,-1182.36 365.61,-1181.83 373.55,-1188.84 376.19,-1182.36"/>
</g>
<!-- keyutils -->
<g id="node33" class="node">
<title>keyutils</title>
<ellipse fill="green" stroke="green" cx="540" cy="-810" rx="38.19" ry="18"/>
<text text-anchor="middle" x="540" y="-806.3" font-family="Times,serif" font-size="14.00">keyutils</text>
</g>
<!-- krb5&#45;&gt;keyutils -->
<g id="edge52" class="edge">
<title>krb5&#45;&gt;keyutils</title>
<path fill="none" stroke="#8b4513" d="M516.73,-1224.18C525.18,-1197.82 540,-1145.05 540,-1099 540,-1099 540,-1099 540,-953 540,-913 540,-866.65 540,-838.08"/>
<polygon fill="#8b4513" stroke="#8b4513" points="543.5,-838.05 540,-828.05 536.5,-838.05 543.5,-838.05"/>
</g>
<!-- e2fsprogs&#45;&gt;sh -->
<g id="edge34" class="edge">
<title>e2fsprogs&#45;&gt;sh</title>
<path fill="none" stroke="#8b4513" d="M410.7,-1079.97C398.72,-1053.77 378,-1001.7 378,-955 378,-955 378,-955 378,-881 378,-840.23 366.75,-794.09 358.51,-765.77"/>
<polygon fill="#8b4513" stroke="#8b4513" points="361.76,-764.41 355.53,-755.84 355.05,-766.42 361.76,-764.41"/>
</g>
<!-- libutil&#45;linux -->
<g id="node25" class="node">
<title>libutil&#45;linux</title>
<ellipse fill="green" stroke="green" cx="459" cy="-1026" rx="52.79" ry="18"/>
<text text-anchor="middle" x="459" y="-1022.3" font-family="Times,serif" font-size="14.00">libutil&#45;linux</text>
</g>
<!-- e2fsprogs&#45;&gt;libutil&#45;linux -->
<g id="edge36" class="edge">
<title>e2fsprogs&#45;&gt;libutil&#45;linux</title>
<path fill="none" stroke="#8b4513" d="M428.68,-1080.05C433.4,-1071.8 439.17,-1061.7 444.41,-1052.54"/>
<polygon fill="#8b4513" stroke="#8b4513" points="447.48,-1054.21 449.41,-1043.79 441.41,-1050.73 447.48,-1054.21"/>
</g>
<!-- libldap&#45;&gt;e2fsprogs -->
<g id="edge51" class="edge">
<title>libldap&#45;&gt;e2fsprogs</title>
<path fill="none" stroke="#8b4513" d="M355.97,-1154.15C366.88,-1144.61 381.26,-1132.03 393.53,-1121.29"/>
<polygon fill="#8b4513" stroke="#8b4513" points="396.01,-1123.77 401.23,-1114.55 391.4,-1118.5 396.01,-1123.77"/>
</g>
<!-- libsasl -->
<g id="node27" class="node">
<title>libsasl</title>
<ellipse fill="green" stroke="green" cx="311" cy="-1098" rx="33.29" ry="18"/>
<text text-anchor="middle" x="311" y="-1094.3" font-family="Times,serif" font-size="14.00">libsasl</text>
</g>
<!-- libldap&#45;&gt;libsasl -->
<g id="edge38" class="edge">
<title>libldap&#45;&gt;libsasl</title>
<path fill="none" stroke="#8b4513" d="M332.22,-1152.05C328.99,-1143.97 325.05,-1134.12 321.44,-1125.11"/>
<polygon fill="#8b4513" stroke="#8b4513" points="324.68,-1123.77 317.72,-1115.79 318.18,-1126.37 324.68,-1123.77"/>
</g>
<!-- openssl -->
<g id="node28" class="node">
<title>openssl</title>
<ellipse fill="green" stroke="green" cx="299" cy="-1026" rx="37.09" ry="18"/>
<text text-anchor="middle" x="299" y="-1022.3" font-family="Times,serif" font-size="14.00">openssl</text>
</g>
<!-- libsasl&#45;&gt;openssl -->
<g id="edge39" class="edge">
<title>libsasl&#45;&gt;openssl</title>
<path fill="none" stroke="#8b4513" d="M308.1,-1080.05C306.77,-1072.35 305.18,-1063.03 303.69,-1054.36"/>
<polygon fill="#8b4513" stroke="#8b4513" points="307.1,-1053.54 301.96,-1044.28 300.2,-1054.72 307.1,-1053.54"/>
</g>
<!-- perl -->
<g id="node29" class="node">
<title>perl</title>
<ellipse fill="green" stroke="green" cx="266" cy="-954" rx="27" ry="18"/>
<text text-anchor="middle" x="266" y="-950.3" font-family="Times,serif" font-size="14.00">perl</text>
</g>
<!-- openssl&#45;&gt;perl -->
<g id="edge40" class="edge">
<title>openssl&#45;&gt;perl</title>
<path fill="none" stroke="#8b4513" d="M291.01,-1008.05C287.1,-999.77 282.32,-989.62 277.99,-980.42"/>
<polygon fill="#8b4513" stroke="#8b4513" points="281.12,-978.86 273.69,-971.31 274.79,-981.84 281.12,-978.86"/>
</g>
<!-- perl&#45;&gt;glibc -->
<g id="edge50" class="edge">
<title>perl&#45;&gt;glibc</title>
<path fill="none" stroke="#8b4513" d="M243.23,-944.1C224.34,-935.56 198.19,-920.87 183,-900 167.25,-878.36 122,-693.76 122,-667 122,-667 122,-667 122,-305 122,-259.41 135.64,-242.12 173,-216 216.15,-185.83 370.59,-170.99 443.44,-165.54"/>
<polygon fill="#8b4513" stroke="#8b4513" points="443.85,-169.02 453.57,-164.8 443.35,-162.04 443.85,-169.02"/>
</g>
<!-- gdbm&gt;=1.17 -->
<g id="node30" class="node">
<title>gdbm&gt;=1.17</title>
<ellipse fill="green" stroke="green" cx="250" cy="-882" rx="57.69" ry="18"/>
<text text-anchor="middle" x="250" y="-878.3" font-family="Times,serif" font-size="14.00">gdbm&gt;=1.17</text>
</g>
<!-- perl&#45;&gt;gdbm&gt;=1.17 -->
<g id="edge41" class="edge">
<title>perl&#45;&gt;gdbm&gt;=1.17</title>
<path fill="none" stroke="#8b4513" d="M262.13,-936.05C260.35,-928.26 258.19,-918.82 256.19,-910.08"/>
<polygon fill="#8b4513" stroke="#8b4513" points="259.59,-909.24 253.95,-900.28 252.76,-910.8 259.59,-909.24"/>
</g>
<!-- db -->
<g id="node32" class="node">
<title>db</title>
<ellipse fill="green" stroke="green" cx="323" cy="-810" rx="27" ry="18"/>
<text text-anchor="middle" x="323" y="-806.3" font-family="Times,serif" font-size="14.00">db</text>
</g>
<!-- perl&#45;&gt;db -->
<g id="edge46" class="edge">
<title>perl&#45;&gt;db</title>
<path fill="none" stroke="#8b4513" d="M283.72,-940.08C295.4,-930.46 309.82,-916.23 317,-900 325.55,-880.68 326.69,-856.67 325.89,-838.46"/>
<polygon fill="#8b4513" stroke="#8b4513" points="329.37,-837.97 325.22,-828.22 322.38,-838.43 329.37,-837.97"/>
</g>
<!-- gdbm -->
<g id="node31" class="node">
<title>gdbm</title>
<ellipse fill="green" stroke="green" cx="247" cy="-810" rx="31.4" ry="18"/>
<text text-anchor="middle" x="247" y="-806.3" font-family="Times,serif" font-size="14.00">gdbm</text>
</g>
<!-- gdbm&gt;=1.17&#45;&gt;gdbm -->
<g id="edge42" class="edge">
<title>gdbm&gt;=1.17&#45;&gt;gdbm</title>
<path fill="none" stroke="grey" d="M249.26,-863.7C248.79,-852.85 248.2,-838.92 247.73,-828.1"/>
</g>
<!-- gdbm&#45;&gt;glibc -->
<g id="edge43" class="edge">
<title>gdbm&#45;&gt;glibc</title>
<path fill="none" stroke="#8b4513" d="M230.64,-794.63C205.43,-770.83 160,-720.49 160,-667 160,-667 160,-667 160,-305 160,-182.57 357.3,-164.8 443.02,-162.86"/>
<polygon fill="#8b4513" stroke="#8b4513" points="443.2,-166.36 453.14,-162.69 443.08,-159.36 443.2,-166.36"/>
</g>
<!-- gdbm&#45;&gt;sh -->
<g id="edge44" class="edge">
<title>gdbm&#45;&gt;sh</title>
<path fill="none" stroke="#8b4513" d="M266.37,-795.83C282.5,-784.87 305.62,-769.16 323.47,-757.03"/>
<polygon fill="#8b4513" stroke="#8b4513" points="325.45,-759.92 331.75,-751.4 321.51,-754.13 325.45,-759.92"/>
</g>
<!-- db&#45;&gt;sh -->
<g id="edge48" class="edge">
<title>db&#45;&gt;sh</title>
<path fill="none" stroke="#8b4513" d="M329.4,-792.41C332.51,-784.34 336.33,-774.43 339.83,-765.35"/>
<polygon fill="#8b4513" stroke="#8b4513" points="343.13,-766.55 343.46,-755.96 336.6,-764.03 343.13,-766.55"/>
</g>
<!-- db&#45;&gt;gcc&#45;libs -->
<g id="edge47" class="edge">
<title>db&#45;&gt;gcc&#45;libs</title>
<path fill="none" stroke="#8b4513" d="M302.64,-798.16C267.22,-777.65 198,-729.57 198,-667 198,-667 198,-667 198,-449 198,-386.02 268.48,-343.26 314.08,-322.19"/>
<polygon fill="#8b4513" stroke="#8b4513" points="315.69,-325.3 323.39,-318.03 312.84,-318.91 315.69,-325.3"/>
</g>
<!-- keyutils&#45;&gt;glibc -->
<g id="edge53" class="edge">
<title>keyutils&#45;&gt;glibc</title>
<path fill="none" stroke="#8b4513" d="M546.72,-792.26C556.63,-766.02 574,-713.39 574,-667 574,-667 574,-667 574,-305 574,-255.27 533.77,-209.22 506.51,-183.72"/>
<polygon fill="#8b4513" stroke="#8b4513" points="508.63,-180.92 498.87,-176.79 503.93,-186.1 508.63,-180.92"/>
</g>
<!-- keyutils&#45;&gt;sh -->
<g id="edge54" class="edge">
<title>keyutils&#45;&gt;sh</title>
<path fill="none" stroke="#8b4513" d="M510.73,-798.22C476.09,-785.46 418.6,-764.27 382.58,-751"/>
<polygon fill="#8b4513" stroke="#8b4513" points="383.62,-747.66 373.03,-747.48 381.2,-754.23 383.62,-747.66"/>
</g>
</g>
</svg>
