<?xml version="1.0" encoding="UTF-8" standalone="no"?>
<!DOCTYPE svg PUBLIC "-//W3C//DTD SVG 1.1//EN"
 "http://www.w3.org/Graphics/SVG/1.1/DTD/svg11.dtd">
<!-- Generated by graphviz version 2.44.0 (0)
 -->
<!-- Title: G Pages: 1 -->
<svg width="592pt" height="1052pt"
 viewBox="0.00 0.00 592.14 1052.00" xmlns="http://www.w3.org/2000/svg" xmlns:xlink="http://www.w3.org/1999/xlink">
<g id="graph0" class="graph" transform="scale(1 1) rotate(0) translate(4 1048)">
<title>G</title>
<polygon fill="white" stroke="transparent" points="-4,4 -4,-1048 588.14,-1048 588.14,4 -4,4"/>
<!-- START -->
<g id="node1" class="node">
<title>START</title>
<ellipse fill="red" stroke="red" cx="182.14" cy="-1026" rx="38.19" ry="18"/>
<text text-anchor="middle" x="182.14" y="-1022.3" font-family="Times,serif" font-size="14.00">START</text>
</g>
<!-- systemd&#45;libs -->
<g id="node2" class="node">
<title>systemd&#45;libs</title>
<ellipse fill="green" stroke="green" cx="182.14" cy="-954" rx="55.79" ry="18"/>
<text text-anchor="middle" x="182.14" y="-950.3" font-family="Times,serif" font-size="14.00">systemd&#45;libs</text>
</g>
<!-- START&#45;&gt;systemd&#45;libs -->
<g id="edge1" class="edge">
<title>START&#45;&gt;systemd&#45;libs</title>
<path fill="none" stroke="black" d="M182.14,-1007.7C182.14,-999.98 182.14,-990.71 182.14,-982.11"/>
<polygon fill="black" stroke="black" points="185.64,-982.1 182.14,-972.1 178.64,-982.1 185.64,-982.1"/>
</g>
<!-- glibc -->
<g id="node3" class="node">
<title>glibc</title>
<ellipse fill="green" stroke="green" cx="246.14" cy="-162" rx="28.7" ry="18"/>
<text text-anchor="middle" x="246.14" y="-158.3" font-family="Times,serif" font-size="14.00">glibc</text>
</g>
<!-- systemd&#45;libs&#45;&gt;glibc -->
<g id="edge2" class="edge">
<title>systemd&#45;libs&#45;&gt;glibc</title>
<path fill="none" stroke="#8b4513" d="M155.67,-937.98C119.79,-915.42 60.14,-869.18 60.14,-811 60.14,-811 60.14,-811 60.14,-305 60.14,-264.55 51.96,-245.95 79.14,-216 111.93,-179.86 169.2,-168.2 207.4,-164.54"/>
<polygon fill="#8b4513" stroke="#8b4513" points="207.95,-168 217.63,-163.7 207.38,-161.03 207.95,-168"/>
</g>
<!-- libcap -->
<g id="node9" class="node">
<title>libcap</title>
<ellipse fill="green" stroke="green" cx="136.14" cy="-306" rx="32.49" ry="18"/>
<text text-anchor="middle" x="136.14" y="-302.3" font-family="Times,serif" font-size="14.00">libcap</text>
</g>
<!-- systemd&#45;libs&#45;&gt;libcap -->
<g id="edge8" class="edge">
<title>systemd&#45;libs&#45;&gt;libcap</title>
<path fill="none" stroke="#8b4513" d="M172.83,-936.09C159.39,-910.04 136.14,-858.16 136.14,-811 136.14,-811 136.14,-811 136.14,-449 136.14,-409 136.14,-362.65 136.14,-334.08"/>
<polygon fill="#8b4513" stroke="#8b4513" points="139.64,-334.05 136.14,-324.05 132.64,-334.05 139.64,-334.05"/>
</g>
<!-- libgcrypt -->
<g id="node11" class="node">
<title>libgcrypt</title>
<ellipse fill="green" stroke="green" cx="258.14" cy="-882" rx="42.79" ry="18"/>
<text text-anchor="middle" x="258.14" y="-878.3" font-family="Times,serif" font-size="14.00">libgcrypt</text>
</g>
<!-- systemd&#45;libs&#45;&gt;libgcrypt -->
<g id="edge12" class="edge">
<title>systemd&#45;libs&#45;&gt;libgcrypt</title>
<path fill="none" stroke="#8b4513" d="M199.77,-936.76C209.79,-927.53 222.49,-915.83 233.49,-905.7"/>
<polygon fill="#8b4513" stroke="#8b4513" points="236.15,-908.01 241.13,-898.67 231.41,-902.87 236.15,-908.01"/>
</g>
<!-- lz4 -->
<g id="node21" class="node">
<title>lz4</title>
<ellipse fill="green" stroke="green" cx="191.14" cy="-738" rx="27" ry="18"/>
<text text-anchor="middle" x="191.14" y="-734.3" font-family="Times,serif" font-size="14.00">lz4</text>
</g>
<!-- systemd&#45;libs&#45;&gt;lz4 -->
<g id="edge29" class="edge">
<title>systemd&#45;libs&#45;&gt;lz4</title>
<path fill="none" stroke="#8b4513" d="M182.86,-935.85C184.42,-898.83 188.11,-811.18 189.99,-766.39"/>
<polygon fill="#8b4513" stroke="#8b4513" points="193.49,-766.37 190.42,-756.23 186.5,-766.08 193.49,-766.37"/>
</g>
<!-- xz -->
<g id="node22" class="node">
<title>xz</title>
<ellipse fill="green" stroke="green" cx="379.14" cy="-810" rx="27" ry="18"/>
<text text-anchor="middle" x="379.14" y="-806.3" font-family="Times,serif" font-size="14.00">xz</text>
</g>
<!-- systemd&#45;libs&#45;&gt;xz -->
<g id="edge31" class="edge">
<title>systemd&#45;libs&#45;&gt;xz</title>
<path fill="none" stroke="#8b4513" d="M223.6,-941.88C250.15,-933.36 284.33,-919.7 310.14,-900 333.08,-882.49 352.51,-855.58 364.85,-835.93"/>
<polygon fill="#8b4513" stroke="#8b4513" points="367.95,-837.57 370.16,-827.21 361.97,-833.93 367.95,-837.57"/>
</g>
<!-- linux&#45;api&#45;headers&gt;=4.10 -->
<g id="node4" class="node">
<title>linux&#45;api&#45;headers&gt;=4.10</title>
<ellipse fill="green" stroke="green" cx="98.14" cy="-90" rx="98.28" ry="18"/>
<text text-anchor="middle" x="98.14" y="-86.3" font-family="Times,serif" font-size="14.00">linux&#45;api&#45;headers&gt;=4.10</text>
</g>
<!-- glibc&#45;&gt;linux&#45;api&#45;headers&gt;=4.10 -->
<g id="edge3" class="edge">
<title>glibc&#45;&gt;linux&#45;api&#45;headers&gt;=4.10</title>
<path fill="none" stroke="#8b4513" d="M223.98,-150.52C202.2,-140.22 168.37,-124.22 141.27,-111.4"/>
<polygon fill="#8b4513" stroke="#8b4513" points="142.53,-108.12 132,-107.01 139.54,-114.45 142.53,-108.12"/>
</g>
<!-- tzdata -->
<g id="node6" class="node">
<title>tzdata</title>
<ellipse fill="green" stroke="green" cx="246.14" cy="-90" rx="31.7" ry="18"/>
<text text-anchor="middle" x="246.14" y="-86.3" font-family="Times,serif" font-size="14.00">tzdata</text>
</g>
<!-- glibc&#45;&gt;tzdata -->
<g id="edge5" class="edge">
<title>glibc&#45;&gt;tzdata</title>
<path fill="none" stroke="#8b4513" d="M246.14,-143.7C246.14,-135.98 246.14,-126.71 246.14,-118.11"/>
<polygon fill="#8b4513" stroke="#8b4513" points="249.64,-118.1 246.14,-108.1 242.64,-118.1 249.64,-118.1"/>
</g>
<!-- filesystem -->
<g id="node7" class="node">
<title>filesystem</title>
<ellipse fill="green" stroke="green" cx="343.14" cy="-90" rx="46.59" ry="18"/>
<text text-anchor="middle" x="343.14" y="-86.3" font-family="Times,serif" font-size="14.00">filesystem</text>
</g>
<!-- glibc&#45;&gt;filesystem -->
<g id="edge6" class="edge">
<title>glibc&#45;&gt;filesystem</title>
<path fill="none" stroke="#8b4513" d="M264.39,-147.83C278.19,-137.88 297.42,-123.99 313.43,-112.44"/>
<polygon fill="#8b4513" stroke="#8b4513" points="315.88,-114.99 321.94,-106.3 311.78,-109.31 315.88,-114.99"/>
</g>
<!-- linux&#45;api&#45;headers -->
<g id="node5" class="node">
<title>linux&#45;api&#45;headers</title>
<ellipse fill="green" stroke="green" cx="98.14" cy="-18" rx="71.49" ry="18"/>
<text text-anchor="middle" x="98.14" y="-14.3" font-family="Times,serif" font-size="14.00">linux&#45;api&#45;headers</text>
</g>
<!-- linux&#45;api&#45;headers&gt;=4.10&#45;&gt;linux&#45;api&#45;headers -->
<g id="edge4" class="edge">
<title>linux&#45;api&#45;headers&gt;=4.10&#45;&gt;linux&#45;api&#45;headers</title>
<path fill="none" stroke="grey" d="M98.14,-71.7C98.14,-60.85 98.14,-46.92 98.14,-36.1"/>
</g>
<!-- iana&#45;etc -->
<g id="node8" class="node">
<title>iana&#45;etc</title>
<ellipse fill="green" stroke="green" cx="343.14" cy="-18" rx="38.19" ry="18"/>
<text text-anchor="middle" x="343.14" y="-14.3" font-family="Times,serif" font-size="14.00">iana&#45;etc</text>
</g>
<!-- filesystem&#45;&gt;iana&#45;etc -->
<g id="edge7" class="edge">
<title>filesystem&#45;&gt;iana&#45;etc</title>
<path fill="none" stroke="#8b4513" d="M343.14,-71.7C343.14,-63.98 343.14,-54.71 343.14,-46.11"/>
<polygon fill="#8b4513" stroke="#8b4513" points="346.64,-46.1 343.14,-36.1 339.64,-46.1 346.64,-46.1"/>
</g>
<!-- libcap&#45;&gt;glibc -->
<g id="edge9" class="edge">
<title>libcap&#45;&gt;glibc</title>
<path fill="none" stroke="#8b4513" d="M145.5,-288.58C156.27,-270.2 174.97,-239.87 194.14,-216 202.93,-205.06 213.65,-193.83 223.07,-184.55"/>
<polygon fill="#8b4513" stroke="#8b4513" points="225.54,-187.03 230.28,-177.56 220.67,-182.01 225.54,-187.03"/>
</g>
<!-- attr -->
<g id="node10" class="node">
<title>attr</title>
<ellipse fill="green" stroke="green" cx="115.14" cy="-234" rx="27" ry="18"/>
<text text-anchor="middle" x="115.14" y="-230.3" font-family="Times,serif" font-size="14.00">attr</text>
</g>
<!-- libcap&#45;&gt;attr -->
<g id="edge10" class="edge">
<title>libcap&#45;&gt;attr</title>
<path fill="none" stroke="#8b4513" d="M131.06,-288.05C128.66,-280.06 125.74,-270.33 123.06,-261.4"/>
<polygon fill="#8b4513" stroke="#8b4513" points="126.4,-260.36 120.18,-251.79 119.7,-262.37 126.4,-260.36"/>
</g>
<!-- attr&#45;&gt;glibc -->
<g id="edge11" class="edge">
<title>attr&#45;&gt;glibc</title>
<path fill="none" stroke="#8b4513" d="M135.61,-222.06C157.18,-210.54 191.37,-192.27 216.02,-179.1"/>
<polygon fill="#8b4513" stroke="#8b4513" points="217.78,-182.12 224.95,-174.32 214.48,-175.95 217.78,-182.12"/>
</g>
<!-- libgpg&#45;error -->
<g id="node12" class="node">
<title>libgpg&#45;error</title>
<ellipse fill="green" stroke="green" cx="264.14" cy="-810" rx="53.89" ry="18"/>
<text text-anchor="middle" x="264.14" y="-806.3" font-family="Times,serif" font-size="14.00">libgpg&#45;error</text>
</g>
<!-- libgcrypt&#45;&gt;libgpg&#45;error -->
<g id="edge13" class="edge">
<title>libgcrypt&#45;&gt;libgpg&#45;error</title>
<path fill="none" stroke="#8b4513" d="M259.62,-863.7C260.29,-855.98 261.08,-846.71 261.82,-838.11"/>
<polygon fill="#8b4513" stroke="#8b4513" points="265.31,-838.37 262.68,-828.1 258.33,-837.77 265.31,-838.37"/>
</g>
<!-- libgpg&#45;error&#45;&gt;glibc -->
<g id="edge14" class="edge">
<title>libgpg&#45;error&#45;&gt;glibc</title>
<path fill="none" stroke="#8b4513" d="M260.59,-792.04C255.34,-765.5 246.14,-712.48 246.14,-667 246.14,-667 246.14,-667 246.14,-305 246.14,-265 246.14,-218.65 246.14,-190.08"/>
<polygon fill="#8b4513" stroke="#8b4513" points="249.64,-190.05 246.14,-180.05 242.64,-190.05 249.64,-190.05"/>
</g>
<!-- sh -->
<g id="node13" class="node">
<title>sh</title>
<ellipse fill="green" stroke="green" cx="387.14" cy="-738" rx="27" ry="18"/>
<text text-anchor="middle" x="387.14" y="-734.3" font-family="Times,serif" font-size="14.00">sh</text>
</g>
<!-- libgpg&#45;error&#45;&gt;sh -->
<g id="edge15" class="edge">
<title>libgpg&#45;error&#45;&gt;sh</title>
<path fill="none" stroke="#8b4513" d="M290.23,-794.15C310.16,-782.81 337.63,-767.18 358.23,-755.45"/>
<polygon fill="#8b4513" stroke="#8b4513" points="360.21,-758.36 367.17,-750.37 356.74,-752.27 360.21,-758.36"/>
</g>
<!-- bash -->
<g id="node14" class="node">
<title>bash</title>
<ellipse fill="green" stroke="green" cx="396.14" cy="-666" rx="27" ry="18"/>
<text text-anchor="middle" x="396.14" y="-662.3" font-family="Times,serif" font-size="14.00">bash</text>
</g>
<!-- sh&#45;&gt;bash -->
<g id="edge16" class="edge">
<title>sh&#45;&gt;bash</title>
<path fill="none" stroke="grey" d="M383.44,-720.05C383.69,-708.89 385.59,-694.34 388.24,-683.31"/>
</g>
<!-- sh&#45;&gt;bash -->
<g id="edge33" class="edge">
<title>sh&#45;&gt;bash</title>
<path fill="none" stroke="grey" d="M395.03,-720.76C397.67,-709.78 399.57,-695.29 399.84,-684.12"/>
</g>
<!-- bash&#45;&gt;glibc -->
<g id="edge27" class="edge">
<title>bash&#45;&gt;glibc</title>
<path fill="none" stroke="#8b4513" d="M421.11,-658.8C472.25,-644.44 584.14,-603.78 584.14,-523 584.14,-523 584.14,-523 584.14,-305 584.14,-176.56 374.12,-162.38 285.18,-162.13"/>
<polygon fill="#8b4513" stroke="#8b4513" points="284.95,-158.63 274.96,-162.16 284.97,-165.63 284.95,-158.63"/>
</g>
<!-- readline&gt;=7.0 -->
<g id="node15" class="node">
<title>readline&gt;=7.0</title>
<ellipse fill="green" stroke="green" cx="396.14" cy="-594" rx="61.19" ry="18"/>
<text text-anchor="middle" x="396.14" y="-590.3" font-family="Times,serif" font-size="14.00">readline&gt;=7.0</text>
</g>
<!-- bash&#45;&gt;readline&gt;=7.0 -->
<g id="edge17" class="edge">
<title>bash&#45;&gt;readline&gt;=7.0</title>
<path fill="none" stroke="#8b4513" d="M396.14,-647.7C396.14,-639.98 396.14,-630.71 396.14,-622.11"/>
<polygon fill="#8b4513" stroke="#8b4513" points="399.64,-622.1 396.14,-612.1 392.64,-622.1 399.64,-622.1"/>
</g>
<!-- ncurses -->
<g id="node17" class="node">
<title>ncurses</title>
<ellipse fill="green" stroke="green" cx="450.14" cy="-378" rx="37.09" ry="18"/>
<text text-anchor="middle" x="450.14" y="-374.3" font-family="Times,serif" font-size="14.00">ncurses</text>
</g>
<!-- bash&#45;&gt;ncurses -->
<g id="edge28" class="edge">
<title>bash&#45;&gt;ncurses</title>
<path fill="none" stroke="#8b4513" d="M416.91,-654.27C432.68,-645.09 453.69,-630.45 466.14,-612 503.23,-557.04 496.4,-533.73 505.14,-468 507.25,-452.14 511.4,-446.72 505.14,-432 499.74,-419.29 489.63,-408.15 479.53,-399.4"/>
<polygon fill="#8b4513" stroke="#8b4513" points="481.51,-396.5 471.53,-392.92 477.1,-401.94 481.51,-396.5"/>
</g>
<!-- readline -->
<g id="node16" class="node">
<title>readline</title>
<ellipse fill="green" stroke="green" cx="396.14" cy="-522" rx="38.99" ry="18"/>
<text text-anchor="middle" x="396.14" y="-518.3" font-family="Times,serif" font-size="14.00">readline</text>
</g>
<!-- readline&gt;=7.0&#45;&gt;readline -->
<g id="edge18" class="edge">
<title>readline&gt;=7.0&#45;&gt;readline</title>
<path fill="none" stroke="grey" d="M396.14,-575.7C396.14,-564.85 396.14,-550.92 396.14,-540.1"/>
</g>
<!-- readline&#45;&gt;glibc -->
<g id="edge19" class="edge">
<title>readline&#45;&gt;glibc</title>
<path fill="none" stroke="#8b4513" d="M365.18,-510.97C344.5,-502.68 318.39,-488.85 303.14,-468 279.26,-435.36 284.14,-419.45 284.14,-379 284.14,-379 284.14,-379 284.14,-305 284.14,-263.41 268.74,-217.22 257.55,-189.14"/>
<polygon fill="#8b4513" stroke="#8b4513" points="260.69,-187.58 253.65,-179.66 254.21,-190.24 260.69,-187.58"/>
</g>
<!-- readline&#45;&gt;ncurses -->
<g id="edge20" class="edge">
<title>readline&#45;&gt;ncurses</title>
<path fill="none" stroke="#8b4513" d="M428.53,-511.9C449.86,-504.04 476.16,-490.33 489.14,-468 501.49,-446.75 487.15,-420.86 472.5,-402.5"/>
<polygon fill="#8b4513" stroke="#8b4513" points="474.98,-400 465.85,-394.63 469.64,-404.53 474.98,-400"/>
</g>
<!-- libncursesw.so=6&#45;64 -->
<g id="node20" class="node">
<title>libncursesw.so=6&#45;64</title>
<ellipse fill="green" stroke="green" cx="396.14" cy="-450" rx="83.69" ry="18"/>
<text text-anchor="middle" x="396.14" y="-446.3" font-family="Times,serif" font-size="14.00">libncursesw.so=6&#45;64</text>
</g>
<!-- readline&#45;&gt;libncursesw.so=6&#45;64 -->
<g id="edge25" class="edge">
<title>readline&#45;&gt;libncursesw.so=6&#45;64</title>
<path fill="none" stroke="#8b4513" d="M396.14,-503.7C396.14,-495.98 396.14,-486.71 396.14,-478.11"/>
<polygon fill="#8b4513" stroke="#8b4513" points="399.64,-478.1 396.14,-468.1 392.64,-478.1 399.64,-478.1"/>
</g>
<!-- ncurses&#45;&gt;glibc -->
<g id="edge21" class="edge">
<title>ncurses&#45;&gt;glibc</title>
<path fill="none" stroke="#8b4513" d="M453.65,-360.07C459.26,-327.88 466.33,-257.38 431.14,-216 395.15,-173.67 327.86,-163.97 285.12,-162.37"/>
<polygon fill="#8b4513" stroke="#8b4513" points="285.16,-158.87 275.08,-162.13 284.99,-165.87 285.16,-158.87"/>
</g>
<!-- gcc&#45;libs -->
<g id="node18" class="node">
<title>gcc&#45;libs</title>
<ellipse fill="green" stroke="green" cx="376.14" cy="-306" rx="38.19" ry="18"/>
<text text-anchor="middle" x="376.14" y="-302.3" font-family="Times,serif" font-size="14.00">gcc&#45;libs</text>
</g>
<!-- ncurses&#45;&gt;gcc&#45;libs -->
<g id="edge22" class="edge">
<title>ncurses&#45;&gt;gcc&#45;libs</title>
<path fill="none" stroke="#8b4513" d="M433.72,-361.46C423.75,-352.04 410.87,-339.85 399.82,-329.4"/>
<polygon fill="#8b4513" stroke="#8b4513" points="402.19,-326.82 392.52,-322.49 397.38,-331.91 402.19,-326.82"/>
</g>
<!-- glibc&gt;=2.27 -->
<g id="node19" class="node">
<title>glibc&gt;=2.27</title>
<ellipse fill="green" stroke="green" cx="367.14" cy="-234" rx="54.69" ry="18"/>
<text text-anchor="middle" x="367.14" y="-230.3" font-family="Times,serif" font-size="14.00">glibc&gt;=2.27</text>
</g>
<!-- gcc&#45;libs&#45;&gt;glibc&gt;=2.27 -->
<g id="edge23" class="edge">
<title>gcc&#45;libs&#45;&gt;glibc&gt;=2.27</title>
<path fill="none" stroke="#8b4513" d="M373.92,-287.7C372.92,-279.98 371.73,-270.71 370.63,-262.11"/>
<polygon fill="#8b4513" stroke="#8b4513" points="374.09,-261.58 369.34,-252.1 367.14,-262.47 374.09,-261.58"/>
</g>
<!-- glibc&gt;=2.27&#45;&gt;glibc -->
<g id="edge24" class="edge">
<title>glibc&gt;=2.27&#45;&gt;glibc</title>
<path fill="none" stroke="grey" d="M341.18,-217.98C318.82,-205.05 287,-186.64 266.45,-174.75"/>
</g>
<!-- libncursesw.so=6&#45;64&#45;&gt;ncurses -->
<g id="edge26" class="edge">
<title>libncursesw.so=6&#45;64&#45;&gt;ncurses</title>
<path fill="none" stroke="grey" d="M409.21,-432.05C417.83,-420.89 429.05,-406.34 437.56,-395.31"/>
</g>
<!-- lz4&#45;&gt;glibc -->
<g id="edge30" class="edge">
<title>lz4&#45;&gt;glibc</title>
<path fill="none" stroke="#8b4513" d="M194.5,-720.03C199.45,-693.48 208.14,-640.44 208.14,-595 208.14,-595 208.14,-595 208.14,-305 208.14,-263.41 223.54,-217.22 234.74,-189.14"/>
<polygon fill="#8b4513" stroke="#8b4513" points="238.07,-190.24 238.63,-179.66 231.59,-187.58 238.07,-190.24"/>
</g>
<!-- xz&#45;&gt;sh -->
<g id="edge32" class="edge">
<title>xz&#45;&gt;sh</title>
<path fill="none" stroke="#8b4513" d="M381.12,-791.7C382,-783.98 383.06,-774.71 384.04,-766.11"/>
<polygon fill="#8b4513" stroke="#8b4513" points="387.53,-766.44 385.19,-756.1 380.57,-765.64 387.53,-766.44"/>
</g>
</g>
</svg>
