<?xml version="1.0" encoding="UTF-8" standalone="no"?>
<!DOCTYPE svg PUBLIC "-//W3C//DTD SVG 1.1//EN"
 "http://www.w3.org/Graphics/SVG/1.1/DTD/svg11.dtd">
<!-- Generated by graphviz version 2.44.0 (0)
 -->
<!-- Title: G Pages: 1 -->
<svg width="398pt" height="476pt"
 viewBox="0.00 0.00 397.94 476.00" xmlns="http://www.w3.org/2000/svg" xmlns:xlink="http://www.w3.org/1999/xlink">
<g id="graph0" class="graph" transform="scale(1 1) rotate(0) translate(4 472)">
<title>G</title>
<polygon fill="white" stroke="transparent" points="-4,4 -4,-472 393.94,-472 393.94,4 -4,4"/>
<!-- START -->
<g id="node1" class="node">
<title>START</title>
<ellipse fill="red" stroke="red" cx="274.14" cy="-450" rx="38.19" ry="18"/>
<text text-anchor="middle" x="274.14" y="-446.3" font-family="Times,serif" font-size="14.00">START</text>
</g>
<!-- tar -->
<g id="node2" class="node">
<title>tar</title>
<ellipse fill="green" stroke="green" cx="274.14" cy="-378" rx="27" ry="18"/>
<text text-anchor="middle" x="274.14" y="-374.3" font-family="Times,serif" font-size="14.00">tar</text>
</g>
<!-- START&#45;&gt;tar -->
<g id="edge1" class="edge">
<title>START&#45;&gt;tar</title>
<path fill="none" stroke="black" d="M274.14,-431.7C274.14,-423.98 274.14,-414.71 274.14,-406.11"/>
<polygon fill="black" stroke="black" points="277.64,-406.1 274.14,-396.1 270.64,-406.1 277.64,-406.1"/>
</g>
<!-- glibc -->
<g id="node3" class="node">
<title>glibc</title>
<ellipse fill="green" stroke="green" cx="246.14" cy="-162" rx="28.7" ry="18"/>
<text text-anchor="middle" x="246.14" y="-158.3" font-family="Times,serif" font-size="14.00">glibc</text>
</g>
<!-- tar&#45;&gt;glibc -->
<g id="edge2" class="edge">
<title>tar&#45;&gt;glibc</title>
<path fill="none" stroke="#8b4513" d="M260.39,-362.07C252.18,-352.1 242.52,-338.25 238.14,-324 224.17,-278.58 232.26,-222.58 239.28,-190.02"/>
<polygon fill="#8b4513" stroke="#8b4513" points="242.77,-190.45 241.59,-179.92 235.95,-188.89 242.77,-190.45"/>
</g>
<!-- acl -->
<g id="node9" class="node">
<title>acl</title>
<ellipse fill="green" stroke="green" cx="274.14" cy="-306" rx="27" ry="18"/>
<text text-anchor="middle" x="274.14" y="-302.3" font-family="Times,serif" font-size="14.00">acl</text>
</g>
<!-- tar&#45;&gt;acl -->
<g id="edge8" class="edge">
<title>tar&#45;&gt;acl</title>
<path fill="none" stroke="#8b4513" d="M274.14,-359.7C274.14,-351.98 274.14,-342.71 274.14,-334.11"/>
<polygon fill="#8b4513" stroke="#8b4513" points="277.64,-334.1 274.14,-324.1 270.64,-334.1 277.64,-334.1"/>
</g>
<!-- attr -->
<g id="node10" class="node">
<title>attr</title>
<ellipse fill="green" stroke="green" cx="274.14" cy="-234" rx="27" ry="18"/>
<text text-anchor="middle" x="274.14" y="-230.3" font-family="Times,serif" font-size="14.00">attr</text>
</g>
<!-- tar&#45;&gt;attr -->
<g id="edge11" class="edge">
<title>tar&#45;&gt;attr</title>
<path fill="none" stroke="#8b4513" d="M287.89,-362.07C296.1,-352.1 305.76,-338.25 310.14,-324 314.84,-308.71 314.84,-303.29 310.14,-288 306.86,-277.31 300.6,-266.85 294.22,-258.08"/>
<polygon fill="#8b4513" stroke="#8b4513" points="296.79,-255.69 287.89,-249.93 291.26,-259.98 296.79,-255.69"/>
</g>
<!-- linux&#45;api&#45;headers&gt;=4.10 -->
<g id="node4" class="node">
<title>linux&#45;api&#45;headers&gt;=4.10</title>
<ellipse fill="green" stroke="green" cx="98.14" cy="-90" rx="98.28" ry="18"/>
<text text-anchor="middle" x="98.14" y="-86.3" font-family="Times,serif" font-size="14.00">linux&#45;api&#45;headers&gt;=4.10</text>
</g>
<!-- glibc&#45;&gt;linux&#45;api&#45;headers&gt;=4.10 -->
<g id="edge3" class="edge">
<title>glibc&#45;&gt;linux&#45;api&#45;headers&gt;=4.10</title>
<path fill="none" stroke="#8b4513" d="M223.98,-150.52C202.2,-140.22 168.37,-124.22 141.27,-111.4"/>
<polygon fill="#8b4513" stroke="#8b4513" points="142.53,-108.12 132,-107.01 139.54,-114.45 142.53,-108.12"/>
</g>
<!-- tzdata -->
<g id="node6" class="node">
<title>tzdata</title>
<ellipse fill="green" stroke="green" cx="246.14" cy="-90" rx="31.7" ry="18"/>
<text text-anchor="middle" x="246.14" y="-86.3" font-family="Times,serif" font-size="14.00">tzdata</text>
</g>
<!-- glibc&#45;&gt;tzdata -->
<g id="edge5" class="edge">
<title>glibc&#45;&gt;tzdata</title>
<path fill="none" stroke="#8b4513" d="M246.14,-143.7C246.14,-135.98 246.14,-126.71 246.14,-118.11"/>
<polygon fill="#8b4513" stroke="#8b4513" points="249.64,-118.1 246.14,-108.1 242.64,-118.1 249.64,-118.1"/>
</g>
<!-- filesystem -->
<g id="node7" class="node">
<title>filesystem</title>
<ellipse fill="green" stroke="green" cx="343.14" cy="-90" rx="46.59" ry="18"/>
<text text-anchor="middle" x="343.14" y="-86.3" font-family="Times,serif" font-size="14.00">filesystem</text>
</g>
<!-- glibc&#45;&gt;filesystem -->
<g id="edge6" class="edge">
<title>glibc&#45;&gt;filesystem</title>
<path fill="none" stroke="#8b4513" d="M264.39,-147.83C278.19,-137.88 297.42,-123.99 313.43,-112.44"/>
<polygon fill="#8b4513" stroke="#8b4513" points="315.88,-114.99 321.94,-106.3 311.78,-109.31 315.88,-114.99"/>
</g>
<!-- linux&#45;api&#45;headers -->
<g id="node5" class="node">
<title>linux&#45;api&#45;headers</title>
<ellipse fill="green" stroke="green" cx="98.14" cy="-18" rx="71.49" ry="18"/>
<text text-anchor="middle" x="98.14" y="-14.3" font-family="Times,serif" font-size="14.00">linux&#45;api&#45;headers</text>
</g>
<!-- linux&#45;api&#45;headers&gt;=4.10&#45;&gt;linux&#45;api&#45;headers -->
<g id="edge4" class="edge">
<title>linux&#45;api&#45;headers&gt;=4.10&#45;&gt;linux&#45;api&#45;headers</title>
<path fill="none" stroke="grey" d="M98.14,-71.7C98.14,-60.85 98.14,-46.92 98.14,-36.1"/>
</g>
<!-- iana&#45;etc -->
<g id="node8" class="node">
<title>iana&#45;etc</title>
<ellipse fill="green" stroke="green" cx="343.14" cy="-18" rx="38.19" ry="18"/>
<text text-anchor="middle" x="343.14" y="-14.3" font-family="Times,serif" font-size="14.00">iana&#45;etc</text>
</g>
<!-- filesystem&#45;&gt;iana&#45;etc -->
<g id="edge7" class="edge">
<title>filesystem&#45;&gt;iana&#45;etc</title>
<path fill="none" stroke="#8b4513" d="M343.14,-71.7C343.14,-63.98 343.14,-54.71 343.14,-46.11"/>
<polygon fill="#8b4513" stroke="#8b4513" points="346.64,-46.1 343.14,-36.1 339.64,-46.1 346.64,-46.1"/>
</g>
<!-- acl&#45;&gt;attr -->
<g id="edge9" class="edge">
<title>acl&#45;&gt;attr</title>
<path fill="none" stroke="#8b4513" d="M274.14,-287.7C274.14,-279.98 274.14,-270.71 274.14,-262.11"/>
<polygon fill="#8b4513" stroke="#8b4513" points="277.64,-262.1 274.14,-252.1 270.64,-262.1 277.64,-262.1"/>
</g>
<!-- attr&#45;&gt;glibc -->
<g id="edge10" class="edge">
<title>attr&#45;&gt;glibc</title>
<path fill="none" stroke="#8b4513" d="M267.51,-216.41C264.28,-208.34 260.31,-198.43 256.68,-189.35"/>
<polygon fill="#8b4513" stroke="#8b4513" points="259.89,-187.94 252.92,-179.96 253.39,-190.54 259.89,-187.94"/>
</g>
</g>
</svg>
