<?xml version="1.0" encoding="UTF-8" standalone="no"?>
<!DOCTYPE svg PUBLIC "-//W3C//DTD SVG 1.1//EN"
 "http://www.w3.org/Graphics/SVG/1.1/DTD/svg11.dtd">
<!-- Generated by graphviz version 2.44.0 (0)
 -->
<!-- Title: G Pages: 1 -->
<svg width="751pt" height="1196pt"
 viewBox="0.00 0.00 750.57 1196.00" xmlns="http://www.w3.org/2000/svg" xmlns:xlink="http://www.w3.org/1999/xlink">
<g id="graph0" class="graph" transform="scale(1 1) rotate(0) translate(4 1192)">
<title>G</title>
<polygon fill="white" stroke="transparent" points="-4,4 -4,-1192 746.57,-1192 746.57,4 -4,4"/>
<!-- START -->
<g id="node1" class="node">
<title>START</title>
<ellipse fill="red" stroke="red" cx="489.14" cy="-1170" rx="38.19" ry="18"/>
<text text-anchor="middle" x="489.14" y="-1166.3" font-family="Times,serif" font-size="14.00">START</text>
</g>
<!-- texinfo -->
<g id="node2" class="node">
<title>texinfo</title>
<ellipse fill="green" stroke="green" cx="489.14" cy="-1098" rx="36" ry="18"/>
<text text-anchor="middle" x="489.14" y="-1094.3" font-family="Times,serif" font-size="14.00">texinfo</text>
</g>
<!-- START&#45;&gt;texinfo -->
<g id="edge1" class="edge">
<title>START&#45;&gt;texinfo</title>
<path fill="none" stroke="black" d="M489.14,-1151.7C489.14,-1143.98 489.14,-1134.71 489.14,-1126.11"/>
<polygon fill="black" stroke="black" points="492.64,-1126.1 489.14,-1116.1 485.64,-1126.1 492.64,-1126.1"/>
</g>
<!-- ncurses -->
<g id="node3" class="node">
<title>ncurses</title>
<ellipse fill="green" stroke="green" cx="340.14" cy="-378" rx="37.09" ry="18"/>
<text text-anchor="middle" x="340.14" y="-374.3" font-family="Times,serif" font-size="14.00">ncurses</text>
</g>
<!-- texinfo&#45;&gt;ncurses -->
<g id="edge2" class="edge">
<title>texinfo&#45;&gt;ncurses</title>
<path fill="none" stroke="#8b4513" d="M496.85,-1080.36C508.21,-1054.24 528.14,-1001.79 528.14,-955 528.14,-955 528.14,-955 528.14,-881 528.14,-678.75 581.9,-588.79 454.14,-432 436.33,-410.14 407.46,-396.84 383.23,-389.04"/>
<polygon fill="#8b4513" stroke="#8b4513" points="384.1,-385.65 373.52,-386.12 382.09,-392.35 384.1,-385.65"/>
</g>
<!-- gzip -->
<g id="node12" class="node">
<title>gzip</title>
<ellipse fill="green" stroke="green" cx="300.14" cy="-1026" rx="27" ry="18"/>
<text text-anchor="middle" x="300.14" y="-1022.3" font-family="Times,serif" font-size="14.00">gzip</text>
</g>
<!-- texinfo&#45;&gt;gzip -->
<g id="edge12" class="edge">
<title>texinfo&#45;&gt;gzip</title>
<path fill="none" stroke="#8b4513" d="M461.25,-1086.67C427,-1073.98 368.97,-1052.49 332.7,-1039.06"/>
<polygon fill="#8b4513" stroke="#8b4513" points="333.68,-1035.69 323.09,-1035.5 331.25,-1042.25 333.68,-1035.69"/>
</g>
<!-- sh -->
<g id="node21" class="node">
<title>sh</title>
<ellipse fill="green" stroke="green" cx="435.14" cy="-738" rx="27" ry="18"/>
<text text-anchor="middle" x="435.14" y="-734.3" font-family="Times,serif" font-size="14.00">sh</text>
</g>
<!-- texinfo&#45;&gt;sh -->
<g id="edge47" class="edge">
<title>texinfo&#45;&gt;sh</title>
<path fill="none" stroke="#8b4513" d="M480.05,-1080.51C466.65,-1054.61 443.14,-1002.42 443.14,-955 443.14,-955 443.14,-955 443.14,-881 443.14,-840.93 439.93,-794.61 437.57,-766.05"/>
<polygon fill="#8b4513" stroke="#8b4513" points="441.06,-765.7 436.72,-756.03 434.08,-766.29 441.06,-765.7"/>
</g>
<!-- perl -->
<g id="node22" class="node">
<title>perl</title>
<ellipse fill="green" stroke="green" cx="617.14" cy="-954" rx="27" ry="18"/>
<text text-anchor="middle" x="617.14" y="-950.3" font-family="Times,serif" font-size="14.00">perl</text>
</g>
<!-- texinfo&#45;&gt;perl -->
<g id="edge36" class="edge">
<title>texinfo&#45;&gt;perl</title>
<path fill="none" stroke="#8b4513" d="M505.27,-1081.57C515.96,-1071.18 530.17,-1057.04 542.14,-1044 562.17,-1022.19 583.85,-996.18 598.72,-977.93"/>
<polygon fill="#8b4513" stroke="#8b4513" points="601.46,-980.11 605.05,-970.14 596.03,-975.7 601.46,-980.11"/>
</g>
<!-- glibc -->
<g id="node4" class="node">
<title>glibc</title>
<ellipse fill="green" stroke="green" cx="246.14" cy="-162" rx="28.7" ry="18"/>
<text text-anchor="middle" x="246.14" y="-158.3" font-family="Times,serif" font-size="14.00">glibc</text>
</g>
<!-- ncurses&#45;&gt;glibc -->
<g id="edge3" class="edge">
<title>ncurses&#45;&gt;glibc</title>
<path fill="none" stroke="#8b4513" d="M332.77,-360.21C316.39,-322.92 276.91,-233.04 257.41,-188.67"/>
<polygon fill="#8b4513" stroke="#8b4513" points="260.58,-187.17 253.35,-179.42 254.17,-189.98 260.58,-187.17"/>
</g>
<!-- gcc&#45;libs -->
<g id="node10" class="node">
<title>gcc&#45;libs</title>
<ellipse fill="green" stroke="green" cx="460.14" cy="-306" rx="38.19" ry="18"/>
<text text-anchor="middle" x="460.14" y="-302.3" font-family="Times,serif" font-size="14.00">gcc&#45;libs</text>
</g>
<!-- ncurses&#45;&gt;gcc&#45;libs -->
<g id="edge9" class="edge">
<title>ncurses&#45;&gt;gcc&#45;libs</title>
<path fill="none" stroke="#8b4513" d="M362.99,-363.67C381.48,-352.89 407.71,-337.58 428.26,-325.6"/>
<polygon fill="#8b4513" stroke="#8b4513" points="430.09,-328.58 436.96,-320.52 426.56,-322.54 430.09,-328.58"/>
</g>
<!-- linux&#45;api&#45;headers&gt;=4.10 -->
<g id="node5" class="node">
<title>linux&#45;api&#45;headers&gt;=4.10</title>
<ellipse fill="green" stroke="green" cx="98.14" cy="-90" rx="98.28" ry="18"/>
<text text-anchor="middle" x="98.14" y="-86.3" font-family="Times,serif" font-size="14.00">linux&#45;api&#45;headers&gt;=4.10</text>
</g>
<!-- glibc&#45;&gt;linux&#45;api&#45;headers&gt;=4.10 -->
<g id="edge4" class="edge">
<title>glibc&#45;&gt;linux&#45;api&#45;headers&gt;=4.10</title>
<path fill="none" stroke="#8b4513" d="M223.98,-150.52C202.2,-140.22 168.37,-124.22 141.27,-111.4"/>
<polygon fill="#8b4513" stroke="#8b4513" points="142.53,-108.12 132,-107.01 139.54,-114.45 142.53,-108.12"/>
</g>
<!-- tzdata -->
<g id="node7" class="node">
<title>tzdata</title>
<ellipse fill="green" stroke="green" cx="246.14" cy="-90" rx="31.7" ry="18"/>
<text text-anchor="middle" x="246.14" y="-86.3" font-family="Times,serif" font-size="14.00">tzdata</text>
</g>
<!-- glibc&#45;&gt;tzdata -->
<g id="edge6" class="edge">
<title>glibc&#45;&gt;tzdata</title>
<path fill="none" stroke="#8b4513" d="M246.14,-143.7C246.14,-135.98 246.14,-126.71 246.14,-118.11"/>
<polygon fill="#8b4513" stroke="#8b4513" points="249.64,-118.1 246.14,-108.1 242.64,-118.1 249.64,-118.1"/>
</g>
<!-- filesystem -->
<g id="node8" class="node">
<title>filesystem</title>
<ellipse fill="green" stroke="green" cx="343.14" cy="-90" rx="46.59" ry="18"/>
<text text-anchor="middle" x="343.14" y="-86.3" font-family="Times,serif" font-size="14.00">filesystem</text>
</g>
<!-- glibc&#45;&gt;filesystem -->
<g id="edge7" class="edge">
<title>glibc&#45;&gt;filesystem</title>
<path fill="none" stroke="#8b4513" d="M264.39,-147.83C278.19,-137.88 297.42,-123.99 313.43,-112.44"/>
<polygon fill="#8b4513" stroke="#8b4513" points="315.88,-114.99 321.94,-106.3 311.78,-109.31 315.88,-114.99"/>
</g>
<!-- linux&#45;api&#45;headers -->
<g id="node6" class="node">
<title>linux&#45;api&#45;headers</title>
<ellipse fill="green" stroke="green" cx="98.14" cy="-18" rx="71.49" ry="18"/>
<text text-anchor="middle" x="98.14" y="-14.3" font-family="Times,serif" font-size="14.00">linux&#45;api&#45;headers</text>
</g>
<!-- linux&#45;api&#45;headers&gt;=4.10&#45;&gt;linux&#45;api&#45;headers -->
<g id="edge5" class="edge">
<title>linux&#45;api&#45;headers&gt;=4.10&#45;&gt;linux&#45;api&#45;headers</title>
<path fill="none" stroke="grey" d="M98.14,-71.7C98.14,-60.85 98.14,-46.92 98.14,-36.1"/>
</g>
<!-- iana&#45;etc -->
<g id="node9" class="node">
<title>iana&#45;etc</title>
<ellipse fill="green" stroke="green" cx="343.14" cy="-18" rx="38.19" ry="18"/>
<text text-anchor="middle" x="343.14" y="-14.3" font-family="Times,serif" font-size="14.00">iana&#45;etc</text>
</g>
<!-- filesystem&#45;&gt;iana&#45;etc -->
<g id="edge8" class="edge">
<title>filesystem&#45;&gt;iana&#45;etc</title>
<path fill="none" stroke="#8b4513" d="M343.14,-71.7C343.14,-63.98 343.14,-54.71 343.14,-46.11"/>
<polygon fill="#8b4513" stroke="#8b4513" points="346.64,-46.1 343.14,-36.1 339.64,-46.1 346.64,-46.1"/>
</g>
<!-- glibc&gt;=2.27 -->
<g id="node11" class="node">
<title>glibc&gt;=2.27</title>
<ellipse fill="green" stroke="green" cx="430.14" cy="-234" rx="54.69" ry="18"/>
<text text-anchor="middle" x="430.14" y="-230.3" font-family="Times,serif" font-size="14.00">glibc&gt;=2.27</text>
</g>
<!-- gcc&#45;libs&#45;&gt;glibc&gt;=2.27 -->
<g id="edge10" class="edge">
<title>gcc&#45;libs&#45;&gt;glibc&gt;=2.27</title>
<path fill="none" stroke="#8b4513" d="M452.88,-288.05C449.47,-280.09 445.32,-270.41 441.5,-261.51"/>
<polygon fill="#8b4513" stroke="#8b4513" points="444.7,-260.09 437.54,-252.28 438.27,-262.85 444.7,-260.09"/>
</g>
<!-- glibc&gt;=2.27&#45;&gt;glibc -->
<g id="edge11" class="edge">
<title>glibc&gt;=2.27&#45;&gt;glibc</title>
<path fill="none" stroke="grey" d="M395.53,-219.83C358.89,-205.89 302.02,-184.26 270.05,-172.1"/>
</g>
<!-- gzip&#45;&gt;glibc -->
<g id="edge13" class="edge">
<title>gzip&#45;&gt;glibc</title>
<path fill="none" stroke="#8b4513" d="M272.99,-1024.56C199.14,-1021.78 0.14,-1003.14 0.14,-883 0.14,-883 0.14,-883 0.14,-305 0.14,-261.07 9.21,-243.9 43.14,-216 90.42,-177.13 163.09,-166.46 207.45,-163.71"/>
<polygon fill="#8b4513" stroke="#8b4513" points="207.74,-167.2 217.55,-163.19 207.38,-160.2 207.74,-167.2"/>
</g>
<!-- bash -->
<g id="node13" class="node">
<title>bash</title>
<ellipse fill="green" stroke="green" cx="435.14" cy="-666" rx="27" ry="18"/>
<text text-anchor="middle" x="435.14" y="-662.3" font-family="Times,serif" font-size="14.00">bash</text>
</g>
<!-- gzip&#45;&gt;bash -->
<g id="edge14" class="edge">
<title>gzip&#45;&gt;bash</title>
<path fill="none" stroke="#8b4513" d="M314.81,-1010.76C337.91,-986.74 380.14,-935.63 380.14,-883 380.14,-883 380.14,-883 380.14,-809 380.14,-768.55 383.26,-757.2 399.14,-720 403.53,-709.72 410.02,-699.34 416.29,-690.53"/>
<polygon fill="#8b4513" stroke="#8b4513" points="419.25,-692.41 422.39,-682.3 413.62,-688.24 419.25,-692.41"/>
</g>
<!-- less -->
<g id="node17" class="node">
<title>less</title>
<ellipse fill="green" stroke="green" cx="219.14" cy="-954" rx="27" ry="18"/>
<text text-anchor="middle" x="219.14" y="-950.3" font-family="Times,serif" font-size="14.00">less</text>
</g>
<!-- gzip&#45;&gt;less -->
<g id="edge23" class="edge">
<title>gzip&#45;&gt;less</title>
<path fill="none" stroke="#8b4513" d="M284.14,-1011.17C272.38,-1001.01 256.21,-987.03 242.93,-975.56"/>
<polygon fill="#8b4513" stroke="#8b4513" points="244.97,-972.69 235.11,-968.8 240.39,-977.99 244.97,-972.69"/>
</g>
<!-- bash&#45;&gt;ncurses -->
<g id="edge22" class="edge">
<title>bash&#45;&gt;ncurses</title>
<path fill="none" stroke="#8b4513" d="M440.26,-648.28C451.61,-607.84 474.7,-502.82 433.14,-432 421.74,-412.58 400.3,-399.67 380.87,-391.46"/>
<polygon fill="#8b4513" stroke="#8b4513" points="382.14,-388.19 371.55,-387.8 379.58,-394.71 382.14,-388.19"/>
</g>
<!-- bash&#45;&gt;glibc -->
<g id="edge21" class="edge">
<title>bash&#45;&gt;glibc</title>
<path fill="none" stroke="#8b4513" d="M444.93,-649.12C483.23,-584.75 615.03,-340.81 494.14,-216 465.55,-186.48 346.76,-171.83 284.54,-166.06"/>
<polygon fill="#8b4513" stroke="#8b4513" points="284.61,-162.55 274.34,-165.15 283.98,-169.52 284.61,-162.55"/>
</g>
<!-- readline&gt;=7.0 -->
<g id="node14" class="node">
<title>readline&gt;=7.0</title>
<ellipse fill="green" stroke="green" cx="360.14" cy="-594" rx="61.19" ry="18"/>
<text text-anchor="middle" x="360.14" y="-590.3" font-family="Times,serif" font-size="14.00">readline&gt;=7.0</text>
</g>
<!-- bash&#45;&gt;readline&gt;=7.0 -->
<g id="edge15" class="edge">
<title>bash&#45;&gt;readline&gt;=7.0</title>
<path fill="none" stroke="#8b4513" d="M419.96,-650.83C410.02,-641.55 396.78,-629.19 385.28,-618.46"/>
<polygon fill="#8b4513" stroke="#8b4513" points="387.36,-615.62 377.66,-611.35 382.59,-620.74 387.36,-615.62"/>
</g>
<!-- readline -->
<g id="node15" class="node">
<title>readline</title>
<ellipse fill="green" stroke="green" cx="253.14" cy="-522" rx="38.99" ry="18"/>
<text text-anchor="middle" x="253.14" y="-518.3" font-family="Times,serif" font-size="14.00">readline</text>
</g>
<!-- readline&gt;=7.0&#45;&gt;readline -->
<g id="edge16" class="edge">
<title>readline&gt;=7.0&#45;&gt;readline</title>
<path fill="none" stroke="grey" d="M336.13,-577.29C317.77,-565.28 292.67,-548.86 274.89,-537.23"/>
</g>
<!-- readline&#45;&gt;ncurses -->
<g id="edge18" class="edge">
<title>readline&#45;&gt;ncurses</title>
<path fill="none" stroke="#8b4513" d="M246.65,-503.98C240.58,-485.05 234.23,-454.23 247.14,-432 258.46,-412.53 279.89,-399.62 299.34,-391.42"/>
<polygon fill="#8b4513" stroke="#8b4513" points="300.64,-394.67 308.67,-387.76 298.08,-388.15 300.64,-394.67"/>
</g>
<!-- readline&#45;&gt;glibc -->
<g id="edge17" class="edge">
<title>readline&#45;&gt;glibc</title>
<path fill="none" stroke="#8b4513" d="M233.19,-506.45C203.75,-483.14 152.14,-434.36 152.14,-379 152.14,-379 152.14,-379 152.14,-305 152.14,-254.95 193.25,-209 221.09,-183.61"/>
<polygon fill="#8b4513" stroke="#8b4513" points="223.73,-185.96 228.9,-176.71 219.09,-180.71 223.73,-185.96"/>
</g>
<!-- libncursesw.so=6&#45;64 -->
<g id="node16" class="node">
<title>libncursesw.so=6&#45;64</title>
<ellipse fill="green" stroke="green" cx="340.14" cy="-450" rx="83.69" ry="18"/>
<text text-anchor="middle" x="340.14" y="-446.3" font-family="Times,serif" font-size="14.00">libncursesw.so=6&#45;64</text>
</g>
<!-- readline&#45;&gt;libncursesw.so=6&#45;64 -->
<g id="edge19" class="edge">
<title>readline&#45;&gt;libncursesw.so=6&#45;64</title>
<path fill="none" stroke="#8b4513" d="M272.02,-505.81C283.5,-496.58 298.39,-484.6 311.32,-474.19"/>
<polygon fill="#8b4513" stroke="#8b4513" points="313.88,-476.62 319.48,-467.63 309.49,-471.17 313.88,-476.62"/>
</g>
<!-- libncursesw.so=6&#45;64&#45;&gt;ncurses -->
<g id="edge20" class="edge">
<title>libncursesw.so=6&#45;64&#45;&gt;ncurses</title>
<path fill="none" stroke="grey" d="M340.14,-431.7C340.14,-420.85 340.14,-406.92 340.14,-396.1"/>
</g>
<!-- less&#45;&gt;ncurses -->
<g id="edge25" class="edge">
<title>less&#45;&gt;ncurses</title>
<path fill="none" stroke="#8b4513" d="M212.62,-936.24C203,-909.98 186.14,-857.32 186.14,-811 186.14,-811 186.14,-811 186.14,-593 186.14,-518.2 184.21,-486.77 235.14,-432 252.51,-413.33 277.91,-400.26 299.39,-391.77"/>
<polygon fill="#8b4513" stroke="#8b4513" points="300.8,-394.98 308.93,-388.19 298.34,-388.43 300.8,-394.98"/>
</g>
<!-- less&#45;&gt;glibc -->
<g id="edge24" class="edge">
<title>less&#45;&gt;glibc</title>
<path fill="none" stroke="#8b4513" d="M194.35,-946.27C144.78,-931.14 38.14,-889.48 38.14,-811 38.14,-811 38.14,-811 38.14,-305 38.14,-262.16 43.47,-244.84 75.14,-216 111.9,-182.52 169.49,-170.19 207.52,-165.65"/>
<polygon fill="#8b4513" stroke="#8b4513" points="208.12,-169.1 217.69,-164.56 207.38,-162.14 208.12,-169.1"/>
</g>
<!-- pcre -->
<g id="node18" class="node">
<title>pcre</title>
<ellipse fill="green" stroke="green" cx="252.14" cy="-882" rx="27" ry="18"/>
<text text-anchor="middle" x="252.14" y="-878.3" font-family="Times,serif" font-size="14.00">pcre</text>
</g>
<!-- less&#45;&gt;pcre -->
<g id="edge26" class="edge">
<title>less&#45;&gt;pcre</title>
<path fill="none" stroke="#8b4513" d="M226.96,-936.41C230.87,-928.13 235.68,-917.92 240.04,-908.66"/>
<polygon fill="#8b4513" stroke="#8b4513" points="243.28,-910.01 244.38,-899.47 236.95,-907.02 243.28,-910.01"/>
</g>
<!-- pcre&#45;&gt;gcc&#45;libs -->
<g id="edge27" class="edge">
<title>pcre&#45;&gt;gcc&#45;libs</title>
<path fill="none" stroke="#8b4513" d="M278.52,-877.82C340.49,-868.73 490.14,-836.67 490.14,-739 490.14,-739 490.14,-739 490.14,-449 490.14,-407.93 477.98,-361.6 469.14,-333.35"/>
<polygon fill="#8b4513" stroke="#8b4513" points="472.47,-332.25 466.07,-323.81 465.8,-334.4 472.47,-332.25"/>
</g>
<!-- pcre&#45;&gt;bash -->
<g id="edge35" class="edge">
<title>pcre&#45;&gt;bash</title>
<path fill="none" stroke="#8b4513" d="M254.8,-864.04C258.37,-845.17 266.1,-814.39 281.14,-792 313.93,-743.19 371.48,-703.89 406.18,-683.12"/>
<polygon fill="#8b4513" stroke="#8b4513" points="408.05,-686.08 414.91,-678 404.51,-680.04 408.05,-686.08"/>
</g>
<!-- pcre&#45;&gt;readline -->
<g id="edge28" class="edge">
<title>pcre&#45;&gt;readline</title>
<path fill="none" stroke="#8b4513" d="M246.61,-864.16C238.45,-837.79 224.14,-784.98 224.14,-739 224.14,-739 224.14,-739 224.14,-665 224.14,-623.99 235.9,-577.64 244.44,-549.37"/>
<polygon fill="#8b4513" stroke="#8b4513" points="247.78,-550.41 247.41,-539.82 241.1,-548.33 247.78,-550.41"/>
</g>
<!-- zlib -->
<g id="node19" class="node">
<title>zlib</title>
<ellipse fill="green" stroke="green" cx="107.14" cy="-738" rx="27" ry="18"/>
<text text-anchor="middle" x="107.14" y="-734.3" font-family="Times,serif" font-size="14.00">zlib</text>
</g>
<!-- pcre&#45;&gt;zlib -->
<g id="edge29" class="edge">
<title>pcre&#45;&gt;zlib</title>
<path fill="none" stroke="#8b4513" d="M237.44,-866.6C211.93,-841.62 159.32,-790.1 129.34,-760.74"/>
<polygon fill="#8b4513" stroke="#8b4513" points="131.48,-757.93 121.88,-753.44 126.58,-762.93 131.48,-757.93"/>
</g>
<!-- bzip2 -->
<g id="node20" class="node">
<title>bzip2</title>
<ellipse fill="green" stroke="green" cx="321.14" cy="-810" rx="30.59" ry="18"/>
<text text-anchor="middle" x="321.14" y="-806.3" font-family="Times,serif" font-size="14.00">bzip2</text>
</g>
<!-- pcre&#45;&gt;bzip2 -->
<g id="edge31" class="edge">
<title>pcre&#45;&gt;bzip2</title>
<path fill="none" stroke="#8b4513" d="M266.44,-866.5C275.93,-856.86 288.58,-844.04 299.32,-833.14"/>
<polygon fill="#8b4513" stroke="#8b4513" points="301.86,-835.55 306.39,-825.97 296.87,-830.63 301.86,-835.55"/>
</g>
<!-- zlib&#45;&gt;glibc -->
<g id="edge30" class="edge">
<title>zlib&#45;&gt;glibc</title>
<path fill="none" stroke="#8b4513" d="M101.02,-720.21C91.98,-693.9 76.14,-641.18 76.14,-595 76.14,-595 76.14,-595 76.14,-305 76.14,-264.03 72.43,-246.17 100.14,-216 128.04,-185.63 174.72,-172.63 207.78,-167.08"/>
<polygon fill="#8b4513" stroke="#8b4513" points="208.63,-170.5 217.99,-165.53 207.58,-163.58 208.63,-170.5"/>
</g>
<!-- bzip2&#45;&gt;glibc -->
<g id="edge32" class="edge">
<title>bzip2&#45;&gt;glibc</title>
<path fill="none" stroke="#8b4513" d="M307.24,-793.52C260.83,-740.2 114.14,-557.55 114.14,-379 114.14,-379 114.14,-379 114.14,-305 114.14,-245.79 176.46,-200.91 215.46,-178.62"/>
<polygon fill="#8b4513" stroke="#8b4513" points="217.29,-181.6 224.34,-173.7 213.9,-175.48 217.29,-181.6"/>
</g>
<!-- bzip2&#45;&gt;sh -->
<g id="edge33" class="edge">
<title>bzip2&#45;&gt;sh</title>
<path fill="none" stroke="#8b4513" d="M341.52,-796.49C359.82,-785.25 386.85,-768.65 407.17,-756.18"/>
<polygon fill="#8b4513" stroke="#8b4513" points="409.01,-759.15 415.7,-750.94 405.34,-753.19 409.01,-759.15"/>
</g>
<!-- sh&#45;&gt;bash -->
<g id="edge34" class="edge">
<title>sh&#45;&gt;bash</title>
<path fill="none" stroke="grey" d="M418.77,-723.5C413.59,-711.11 413.6,-692.84 418.78,-680.46"/>
</g>
<!-- sh&#45;&gt;bash -->
<g id="edge41" class="edge">
<title>sh&#45;&gt;bash</title>
<path fill="none" stroke="grey" d="M429.3,-720.41C428.1,-709.41 428.09,-695.03 429.26,-683.96"/>
</g>
<!-- sh&#45;&gt;bash -->
<g id="edge45" class="edge">
<title>sh&#45;&gt;bash</title>
<path fill="none" stroke="grey" d="M440.98,-720.41C442.18,-709.41 442.19,-695.03 441.02,-683.96"/>
</g>
<!-- sh&#45;&gt;bash -->
<g id="edge48" class="edge">
<title>sh&#45;&gt;bash</title>
<path fill="none" stroke="grey" d="M451.52,-723.5C456.69,-711.11 456.68,-692.84 451.5,-680.46"/>
</g>
<!-- perl&#45;&gt;glibc -->
<g id="edge46" class="edge">
<title>perl&#45;&gt;glibc</title>
<path fill="none" stroke="#8b4513" d="M642.4,-947.01C666.61,-939.93 702.32,-925.71 722.14,-900 746.84,-867.97 741.14,-851.45 741.14,-811 741.14,-811 741.14,-811 741.14,-305 741.14,-210.18 401.27,-175 284.77,-165.73"/>
<polygon fill="#8b4513" stroke="#8b4513" points="284.77,-162.22 274.53,-164.93 284.23,-169.2 284.77,-162.22"/>
</g>
<!-- gdbm&gt;=1.17 -->
<g id="node23" class="node">
<title>gdbm&gt;=1.17</title>
<ellipse fill="green" stroke="green" cx="655.14" cy="-882" rx="57.69" ry="18"/>
<text text-anchor="middle" x="655.14" y="-878.3" font-family="Times,serif" font-size="14.00">gdbm&gt;=1.17</text>
</g>
<!-- perl&#45;&gt;gdbm&gt;=1.17 -->
<g id="edge37" class="edge">
<title>perl&#45;&gt;gdbm&gt;=1.17</title>
<path fill="none" stroke="#8b4513" d="M625.95,-936.76C630.43,-928.53 635.97,-918.32 641.02,-909.02"/>
<polygon fill="#8b4513" stroke="#8b4513" points="644.15,-910.58 645.85,-900.12 638,-907.24 644.15,-910.58"/>
</g>
<!-- db -->
<g id="node25" class="node">
<title>db</title>
<ellipse fill="green" stroke="green" cx="583.14" cy="-810" rx="27" ry="18"/>
<text text-anchor="middle" x="583.14" y="-806.3" font-family="Times,serif" font-size="14.00">db</text>
</g>
<!-- perl&#45;&gt;db -->
<g id="edge42" class="edge">
<title>perl&#45;&gt;db</title>
<path fill="none" stroke="#8b4513" d="M606,-937.11C599.54,-926.99 591.95,-913.31 588.14,-900 582.37,-879.82 581.31,-856.04 581.59,-838.14"/>
<polygon fill="#8b4513" stroke="#8b4513" points="585.09,-838.2 581.9,-828.1 578.1,-837.99 585.09,-838.2"/>
</g>
<!-- gdbm -->
<g id="node24" class="node">
<title>gdbm</title>
<ellipse fill="green" stroke="green" cx="659.14" cy="-810" rx="31.4" ry="18"/>
<text text-anchor="middle" x="659.14" y="-806.3" font-family="Times,serif" font-size="14.00">gdbm</text>
</g>
<!-- gdbm&gt;=1.17&#45;&gt;gdbm -->
<g id="edge38" class="edge">
<title>gdbm&gt;=1.17&#45;&gt;gdbm</title>
<path fill="none" stroke="grey" d="M656.13,-863.7C656.75,-852.85 657.55,-838.92 658.16,-828.1"/>
</g>
<!-- gdbm&#45;&gt;glibc -->
<g id="edge39" class="edge">
<title>gdbm&#45;&gt;glibc</title>
<path fill="none" stroke="#8b4513" d="M657.36,-791.97C654.74,-765.34 650.14,-712.21 650.14,-667 650.14,-667 650.14,-667 650.14,-305 650.14,-234.98 584.75,-242.99 520.14,-216 440.51,-182.73 339.04,-170.1 284.67,-165.49"/>
<polygon fill="#8b4513" stroke="#8b4513" points="284.7,-161.99 274.45,-164.68 284.14,-168.96 284.7,-161.99"/>
</g>
<!-- gdbm&#45;&gt;sh -->
<g id="edge40" class="edge">
<title>gdbm&#45;&gt;sh</title>
<path fill="none" stroke="#8b4513" d="M635.21,-798.27C629.97,-796.08 624.4,-793.87 619.14,-792 568.03,-773.85 507.33,-757.31 470.02,-747.7"/>
<polygon fill="#8b4513" stroke="#8b4513" points="470.7,-744.26 460.15,-745.17 468.97,-751.04 470.7,-744.26"/>
</g>
<!-- db&#45;&gt;gcc&#45;libs -->
<g id="edge43" class="edge">
<title>db&#45;&gt;gcc&#45;libs</title>
<path fill="none" stroke="#8b4513" d="M587.29,-792.07C593.41,-765.57 604.14,-712.61 604.14,-667 604.14,-667 604.14,-667 604.14,-521 604.14,-480.03 600.29,-467.67 580.14,-432 556.27,-389.75 514.84,-351.11 487.45,-328.31"/>
<polygon fill="#8b4513" stroke="#8b4513" points="489.39,-325.38 479.44,-321.76 484.96,-330.8 489.39,-325.38"/>
</g>
<!-- db&#45;&gt;sh -->
<g id="edge44" class="edge">
<title>db&#45;&gt;sh</title>
<path fill="none" stroke="#8b4513" d="M561.62,-798.82C536.41,-786.9 494.46,-767.06 465.84,-753.52"/>
<polygon fill="#8b4513" stroke="#8b4513" points="467.22,-750.3 456.69,-749.19 464.23,-756.63 467.22,-750.3"/>
</g>
</g>
</svg>
