<?xml version="1.0" encoding="UTF-8" standalone="no"?>
<!DOCTYPE svg PUBLIC "-//W3C//DTD SVG 1.1//EN"
 "http://www.w3.org/Graphics/SVG/1.1/DTD/svg11.dtd">
<!-- Generated by graphviz version 2.44.0 (0)
 -->
<!-- Title: G Pages: 1 -->
<svg width="1125pt" height="1628pt"
 viewBox="0.00 0.00 1124.76 1628.00" xmlns="http://www.w3.org/2000/svg" xmlns:xlink="http://www.w3.org/1999/xlink">
<g id="graph0" class="graph" transform="scale(1 1) rotate(0) translate(4 1624)">
<title>G</title>
<polygon fill="white" stroke="transparent" points="-4,4 -4,-1624 1120.76,-1624 1120.76,4 -4,4"/>
<!-- START -->
<g id="node1" class="node">
<title>START</title>
<ellipse fill="red" stroke="red" cx="460.76" cy="-1602" rx="38.19" ry="18"/>
<text text-anchor="middle" x="460.76" y="-1598.3" font-family="Times,serif" font-size="14.00">START</text>
</g>
<!-- util&#45;linux -->
<g id="node2" class="node">
<title>util&#45;linux</title>
<ellipse fill="green" stroke="green" cx="460.76" cy="-1530" rx="43.59" ry="18"/>
<text text-anchor="middle" x="460.76" y="-1526.3" font-family="Times,serif" font-size="14.00">util&#45;linux</text>
</g>
<!-- START&#45;&gt;util&#45;linux -->
<g id="edge1" class="edge">
<title>START&#45;&gt;util&#45;linux</title>
<path fill="none" stroke="black" d="M460.76,-1583.7C460.76,-1575.98 460.76,-1566.71 460.76,-1558.11"/>
<polygon fill="black" stroke="black" points="464.26,-1558.1 460.76,-1548.1 457.26,-1558.1 464.26,-1558.1"/>
</g>
<!-- pam -->
<g id="node3" class="node">
<title>pam</title>
<ellipse fill="green" stroke="green" cx="226.76" cy="-1386" rx="27" ry="18"/>
<text text-anchor="middle" x="226.76" y="-1382.3" font-family="Times,serif" font-size="14.00">pam</text>
</g>
<!-- util&#45;linux&#45;&gt;pam -->
<g id="edge2" class="edge">
<title>util&#45;linux&#45;&gt;pam</title>
<path fill="none" stroke="#8b4513" d="M430.09,-1516.95C406.4,-1507.14 373.15,-1492.31 345.76,-1476 311.01,-1455.31 274.2,-1426.59 250.88,-1407.43"/>
<polygon fill="#8b4513" stroke="#8b4513" points="252.86,-1404.53 242.93,-1400.84 248.39,-1409.91 252.86,-1404.53"/>
</g>
<!-- libutil&#45;linux -->
<g id="node23" class="node">
<title>libutil&#45;linux</title>
<ellipse fill="green" stroke="green" cx="527.76" cy="-1026" rx="52.79" ry="18"/>
<text text-anchor="middle" x="527.76" y="-1022.3" font-family="Times,serif" font-size="14.00">libutil&#45;linux</text>
</g>
<!-- util&#45;linux&#45;&gt;libutil&#45;linux -->
<g id="edge88" class="edge">
<title>util&#45;linux&#45;&gt;libutil&#45;linux</title>
<path fill="none" stroke="#8b4513" d="M474.52,-1512.73C494.39,-1487.53 528.76,-1436.75 528.76,-1387 528.76,-1387 528.76,-1387 528.76,-1313 528.76,-1217.94 528.2,-1105.1 527.92,-1054.25"/>
<polygon fill="#8b4513" stroke="#8b4513" points="531.42,-1054.07 527.86,-1044.09 524.42,-1054.1 531.42,-1054.07"/>
</g>
<!-- shadow -->
<g id="node33" class="node">
<title>shadow</title>
<ellipse fill="green" stroke="green" cx="392.76" cy="-1458" rx="37.89" ry="18"/>
<text text-anchor="middle" x="392.76" y="-1454.3" font-family="Times,serif" font-size="14.00">shadow</text>
</g>
<!-- util&#45;linux&#45;&gt;shadow -->
<g id="edge51" class="edge">
<title>util&#45;linux&#45;&gt;shadow</title>
<path fill="none" stroke="#8b4513" d="M445.33,-1513.12C436.46,-1503.99 425.16,-1492.36 415.31,-1482.22"/>
<polygon fill="#8b4513" stroke="#8b4513" points="417.61,-1479.56 408.13,-1474.82 412.58,-1484.43 417.61,-1479.56"/>
</g>
<!-- libcap&#45;ng -->
<g id="node37" class="node">
<title>libcap&#45;ng</title>
<ellipse fill="green" stroke="green" cx="142.76" cy="-1242" rx="44.39" ry="18"/>
<text text-anchor="middle" x="142.76" y="-1238.3" font-family="Times,serif" font-size="14.00">libcap&#45;ng</text>
</g>
<!-- util&#45;linux&#45;&gt;libcap&#45;ng -->
<g id="edge87" class="edge">
<title>util&#45;linux&#45;&gt;libcap&#45;ng</title>
<path fill="none" stroke="#8b4513" d="M421.19,-1522.32C361.47,-1510.05 249.09,-1478.05 190.76,-1404 159.57,-1364.41 148.62,-1304.91 144.79,-1270.42"/>
<polygon fill="#8b4513" stroke="#8b4513" points="148.24,-1269.76 143.78,-1260.15 141.28,-1270.45 148.24,-1269.76"/>
</g>
<!-- coreutils -->
<g id="node39" class="node">
<title>coreutils</title>
<ellipse fill="green" stroke="green" cx="663.76" cy="-1098" rx="40.89" ry="18"/>
<text text-anchor="middle" x="663.76" y="-1094.3" font-family="Times,serif" font-size="14.00">coreutils</text>
</g>
<!-- util&#45;linux&#45;&gt;coreutils -->
<g id="edge62" class="edge">
<title>util&#45;linux&#45;&gt;coreutils</title>
<path fill="none" stroke="#8b4513" d="M494.52,-1518.44C544.87,-1500.35 633.76,-1458.3 633.76,-1387 633.76,-1387 633.76,-1387 633.76,-1241 633.76,-1200.16 645.79,-1154.11 654.61,-1125.82"/>
<polygon fill="#8b4513" stroke="#8b4513" points="657.96,-1126.83 657.69,-1116.24 651.3,-1124.69 657.96,-1126.83"/>
</g>
<!-- systemd&#45;libs -->
<g id="node42" class="node">
<title>systemd&#45;libs</title>
<ellipse fill="green" stroke="green" cx="933.76" cy="-954" rx="55.79" ry="18"/>
<text text-anchor="middle" x="933.76" y="-950.3" font-family="Times,serif" font-size="14.00">systemd&#45;libs</text>
</g>
<!-- util&#45;linux&#45;&gt;systemd&#45;libs -->
<g id="edge74" class="edge">
<title>util&#45;linux&#45;&gt;systemd&#45;libs</title>
<path fill="none" stroke="#8b4513" d="M501.89,-1524.06C607.83,-1510.19 881.76,-1466.64 881.76,-1387 881.76,-1387 881.76,-1387 881.76,-1097 881.76,-1054.26 902.79,-1008.45 918.1,-980.76"/>
<polygon fill="#8b4513" stroke="#8b4513" points="921.32,-982.18 923.23,-971.76 915.24,-978.71 921.32,-982.18"/>
</g>
<!-- glibc -->
<g id="node4" class="node">
<title>glibc</title>
<ellipse fill="green" stroke="green" cx="512.76" cy="-162" rx="28.7" ry="18"/>
<text text-anchor="middle" x="512.76" y="-158.3" font-family="Times,serif" font-size="14.00">glibc</text>
</g>
<!-- pam&#45;&gt;glibc -->
<g id="edge3" class="edge">
<title>pam&#45;&gt;glibc</title>
<path fill="none" stroke="#8b4513" d="M200.62,-1381.05C141.54,-1370.48 2.76,-1335.78 2.76,-1243 2.76,-1243 2.76,-1243 2.76,-305 2.76,-264.55 -8.27,-243.09 21.76,-216 55.18,-185.85 364.1,-169.5 474.1,-164.6"/>
<polygon fill="#8b4513" stroke="#8b4513" points="474.27,-168.1 484.1,-164.16 473.96,-161.1 474.27,-168.1"/>
</g>
<!-- cracklib -->
<g id="node10" class="node">
<title>cracklib</title>
<ellipse fill="green" stroke="green" cx="70.76" cy="-306" rx="39.79" ry="18"/>
<text text-anchor="middle" x="70.76" y="-302.3" font-family="Times,serif" font-size="14.00">cracklib</text>
</g>
<!-- pam&#45;&gt;cracklib -->
<g id="edge9" class="edge">
<title>pam&#45;&gt;cracklib</title>
<path fill="none" stroke="#8b4513" d="M203.74,-1376.55C160.35,-1358.96 70.76,-1314.05 70.76,-1243 70.76,-1243 70.76,-1243 70.76,-449 70.76,-409 70.76,-362.65 70.76,-334.08"/>
<polygon fill="#8b4513" stroke="#8b4513" points="74.26,-334.05 70.76,-324.05 67.26,-334.05 74.26,-334.05"/>
</g>
<!-- libtirpc -->
<g id="node12" class="node">
<title>libtirpc</title>
<ellipse fill="green" stroke="green" cx="309.76" cy="-1314" rx="36.29" ry="18"/>
<text text-anchor="middle" x="309.76" y="-1310.3" font-family="Times,serif" font-size="14.00">libtirpc</text>
</g>
<!-- pam&#45;&gt;libtirpc -->
<g id="edge13" class="edge">
<title>pam&#45;&gt;libtirpc</title>
<path fill="none" stroke="#8b4513" d="M243.16,-1371.17C254.81,-1361.34 270.71,-1347.93 284.04,-1336.69"/>
<polygon fill="#8b4513" stroke="#8b4513" points="286.57,-1339.14 291.96,-1330.01 282.06,-1333.78 286.57,-1339.14"/>
</g>
<!-- pambase -->
<g id="node32" class="node">
<title>pambase</title>
<ellipse fill="green" stroke="green" cx="212.76" cy="-1314" rx="42.49" ry="18"/>
<text text-anchor="middle" x="212.76" y="-1310.3" font-family="Times,serif" font-size="14.00">pambase</text>
</g>
<!-- pam&#45;&gt;pambase -->
<g id="edge50" class="edge">
<title>pam&#45;&gt;pambase</title>
<path fill="none" stroke="#8b4513" d="M223.37,-1368.05C221.83,-1360.35 219.96,-1351.03 218.23,-1342.36"/>
<polygon fill="#8b4513" stroke="#8b4513" points="221.61,-1341.39 216.21,-1332.28 214.74,-1342.77 221.61,-1341.39"/>
</g>
<!-- linux&#45;api&#45;headers&gt;=4.10 -->
<g id="node5" class="node">
<title>linux&#45;api&#45;headers&gt;=4.10</title>
<ellipse fill="green" stroke="green" cx="364.76" cy="-90" rx="98.28" ry="18"/>
<text text-anchor="middle" x="364.76" y="-86.3" font-family="Times,serif" font-size="14.00">linux&#45;api&#45;headers&gt;=4.10</text>
</g>
<!-- glibc&#45;&gt;linux&#45;api&#45;headers&gt;=4.10 -->
<g id="edge4" class="edge">
<title>glibc&#45;&gt;linux&#45;api&#45;headers&gt;=4.10</title>
<path fill="none" stroke="#8b4513" d="M490.6,-150.52C468.82,-140.22 434.99,-124.22 407.89,-111.4"/>
<polygon fill="#8b4513" stroke="#8b4513" points="409.15,-108.12 398.61,-107.01 406.16,-114.45 409.15,-108.12"/>
</g>
<!-- tzdata -->
<g id="node7" class="node">
<title>tzdata</title>
<ellipse fill="green" stroke="green" cx="512.76" cy="-90" rx="31.7" ry="18"/>
<text text-anchor="middle" x="512.76" y="-86.3" font-family="Times,serif" font-size="14.00">tzdata</text>
</g>
<!-- glibc&#45;&gt;tzdata -->
<g id="edge6" class="edge">
<title>glibc&#45;&gt;tzdata</title>
<path fill="none" stroke="#8b4513" d="M512.76,-143.7C512.76,-135.98 512.76,-126.71 512.76,-118.11"/>
<polygon fill="#8b4513" stroke="#8b4513" points="516.26,-118.1 512.76,-108.1 509.26,-118.1 516.26,-118.1"/>
</g>
<!-- filesystem -->
<g id="node8" class="node">
<title>filesystem</title>
<ellipse fill="green" stroke="green" cx="609.76" cy="-90" rx="46.59" ry="18"/>
<text text-anchor="middle" x="609.76" y="-86.3" font-family="Times,serif" font-size="14.00">filesystem</text>
</g>
<!-- glibc&#45;&gt;filesystem -->
<g id="edge7" class="edge">
<title>glibc&#45;&gt;filesystem</title>
<path fill="none" stroke="#8b4513" d="M531,-147.83C544.8,-137.88 564.04,-123.99 580.05,-112.44"/>
<polygon fill="#8b4513" stroke="#8b4513" points="582.49,-114.99 588.56,-106.3 578.4,-109.31 582.49,-114.99"/>
</g>
<!-- linux&#45;api&#45;headers -->
<g id="node6" class="node">
<title>linux&#45;api&#45;headers</title>
<ellipse fill="green" stroke="green" cx="364.76" cy="-18" rx="71.49" ry="18"/>
<text text-anchor="middle" x="364.76" y="-14.3" font-family="Times,serif" font-size="14.00">linux&#45;api&#45;headers</text>
</g>
<!-- linux&#45;api&#45;headers&gt;=4.10&#45;&gt;linux&#45;api&#45;headers -->
<g id="edge5" class="edge">
<title>linux&#45;api&#45;headers&gt;=4.10&#45;&gt;linux&#45;api&#45;headers</title>
<path fill="none" stroke="grey" d="M364.76,-71.7C364.76,-60.85 364.76,-46.92 364.76,-36.1"/>
</g>
<!-- iana&#45;etc -->
<g id="node9" class="node">
<title>iana&#45;etc</title>
<ellipse fill="green" stroke="green" cx="609.76" cy="-18" rx="38.19" ry="18"/>
<text text-anchor="middle" x="609.76" y="-14.3" font-family="Times,serif" font-size="14.00">iana&#45;etc</text>
</g>
<!-- filesystem&#45;&gt;iana&#45;etc -->
<g id="edge8" class="edge">
<title>filesystem&#45;&gt;iana&#45;etc</title>
<path fill="none" stroke="#8b4513" d="M609.76,-71.7C609.76,-63.98 609.76,-54.71 609.76,-46.11"/>
<polygon fill="#8b4513" stroke="#8b4513" points="613.26,-46.1 609.76,-36.1 606.26,-46.1 613.26,-46.1"/>
</g>
<!-- cracklib&#45;&gt;glibc -->
<g id="edge10" class="edge">
<title>cracklib&#45;&gt;glibc</title>
<path fill="none" stroke="#8b4513" d="M78.23,-288C88.3,-267.27 108.32,-232.91 136.76,-216 193.27,-182.4 389.99,-168.98 474.12,-164.7"/>
<polygon fill="#8b4513" stroke="#8b4513" points="474.46,-168.18 484.27,-164.2 474.11,-161.19 474.46,-168.18"/>
</g>
<!-- zlib -->
<g id="node11" class="node">
<title>zlib</title>
<ellipse fill="green" stroke="green" cx="57.76" cy="-234" rx="27" ry="18"/>
<text text-anchor="middle" x="57.76" y="-230.3" font-family="Times,serif" font-size="14.00">zlib</text>
</g>
<!-- cracklib&#45;&gt;zlib -->
<g id="edge11" class="edge">
<title>cracklib&#45;&gt;zlib</title>
<path fill="none" stroke="#8b4513" d="M67.61,-288.05C66.18,-280.35 64.45,-271.03 62.84,-262.36"/>
<polygon fill="#8b4513" stroke="#8b4513" points="66.23,-261.47 60.97,-252.28 59.35,-262.75 66.23,-261.47"/>
</g>
<!-- zlib&#45;&gt;glibc -->
<g id="edge12" class="edge">
<title>zlib&#45;&gt;glibc</title>
<path fill="none" stroke="#8b4513" d="M79.09,-222.9C85.31,-220.3 92.21,-217.74 98.76,-216 233.57,-180.11 399.77,-168.23 473.89,-164.54"/>
<polygon fill="#8b4513" stroke="#8b4513" points="474.32,-168.02 484.15,-164.05 473.99,-161.03 474.32,-168.02"/>
</g>
<!-- krb5 -->
<g id="node13" class="node">
<title>krb5</title>
<ellipse fill="green" stroke="green" cx="362.76" cy="-1242" rx="27.1" ry="18"/>
<text text-anchor="middle" x="362.76" y="-1238.3" font-family="Times,serif" font-size="14.00">krb5</text>
</g>
<!-- libtirpc&#45;&gt;krb5 -->
<g id="edge14" class="edge">
<title>libtirpc&#45;&gt;krb5</title>
<path fill="none" stroke="#8b4513" d="M322.05,-1296.76C328.77,-1287.89 337.21,-1276.74 344.67,-1266.89"/>
<polygon fill="#8b4513" stroke="#8b4513" points="347.65,-1268.75 350.9,-1258.67 342.07,-1264.53 347.65,-1268.75"/>
</g>
<!-- e2fsprogs -->
<g id="node14" class="node">
<title>e2fsprogs</title>
<ellipse fill="green" stroke="green" cx="450.76" cy="-1098" rx="44.69" ry="18"/>
<text text-anchor="middle" x="450.76" y="-1094.3" font-family="Times,serif" font-size="14.00">e2fsprogs</text>
</g>
<!-- krb5&#45;&gt;e2fsprogs -->
<g id="edge15" class="edge">
<title>krb5&#45;&gt;e2fsprogs</title>
<path fill="none" stroke="#8b4513" d="M376.46,-1226.42C385.69,-1216.16 397.77,-1201.84 406.76,-1188 419.75,-1168 431.55,-1143.62 439.65,-1125.43"/>
<polygon fill="#8b4513" stroke="#8b4513" points="442.96,-1126.6 443.76,-1116.04 436.55,-1123.8 442.96,-1126.6"/>
</g>
<!-- libldap -->
<g id="node24" class="node">
<title>libldap</title>
<ellipse fill="green" stroke="green" cx="362.76" cy="-1170" rx="35.19" ry="18"/>
<text text-anchor="middle" x="362.76" y="-1166.3" font-family="Times,serif" font-size="14.00">libldap</text>
</g>
<!-- krb5&#45;&gt;libldap -->
<g id="edge31" class="edge">
<title>krb5&#45;&gt;libldap</title>
<path fill="none" stroke="#8b4513" d="M362.76,-1223.7C362.76,-1215.98 362.76,-1206.71 362.76,-1198.11"/>
<polygon fill="#8b4513" stroke="#8b4513" points="366.26,-1198.1 362.76,-1188.1 359.26,-1198.1 366.26,-1198.1"/>
</g>
<!-- keyutils -->
<g id="node31" class="node">
<title>keyutils</title>
<ellipse fill="green" stroke="green" cx="206.76" cy="-810" rx="38.19" ry="18"/>
<text text-anchor="middle" x="206.76" y="-806.3" font-family="Times,serif" font-size="14.00">keyutils</text>
</g>
<!-- krb5&#45;&gt;keyutils -->
<g id="edge46" class="edge">
<title>krb5&#45;&gt;keyutils</title>
<path fill="none" stroke="#8b4513" d="M340.57,-1231.36C300.63,-1212.34 220.76,-1165.94 220.76,-1099 220.76,-1099 220.76,-1099 220.76,-953 220.76,-912.8 215.13,-866.51 211.01,-838"/>
<polygon fill="#8b4513" stroke="#8b4513" points="214.46,-837.37 209.52,-828 207.54,-838.4 214.46,-837.37"/>
</g>
<!-- sh -->
<g id="node15" class="node">
<title>sh</title>
<ellipse fill="green" stroke="green" cx="555.76" cy="-738" rx="27" ry="18"/>
<text text-anchor="middle" x="555.76" y="-734.3" font-family="Times,serif" font-size="14.00">sh</text>
</g>
<!-- e2fsprogs&#45;&gt;sh -->
<g id="edge16" class="edge">
<title>e2fsprogs&#45;&gt;sh</title>
<path fill="none" stroke="#8b4513" d="M451.08,-1079.84C452.62,-1031.83 461.34,-893.09 510.76,-792 516.33,-780.59 524.93,-769.61 533.11,-760.63"/>
<polygon fill="#8b4513" stroke="#8b4513" points="535.74,-762.95 540.12,-753.3 530.68,-758.11 535.74,-762.95"/>
</g>
<!-- e2fsprogs&#45;&gt;libutil&#45;linux -->
<g id="edge30" class="edge">
<title>e2fsprogs&#45;&gt;libutil&#45;linux</title>
<path fill="none" stroke="#8b4513" d="M468.23,-1081.12C478.4,-1071.87 491.39,-1060.07 502.63,-1049.84"/>
<polygon fill="#8b4513" stroke="#8b4513" points="505.04,-1052.38 510.09,-1043.06 500.33,-1047.2 505.04,-1052.38"/>
</g>
<!-- bash -->
<g id="node16" class="node">
<title>bash</title>
<ellipse fill="green" stroke="green" cx="555.76" cy="-666" rx="27" ry="18"/>
<text text-anchor="middle" x="555.76" y="-662.3" font-family="Times,serif" font-size="14.00">bash</text>
</g>
<!-- sh&#45;&gt;bash -->
<g id="edge17" class="edge">
<title>sh&#45;&gt;bash</title>
<path fill="none" stroke="grey" d="M531.08,-730.54C509.98,-717.2 509.98,-686.77 531.1,-673.44"/>
</g>
<!-- sh&#45;&gt;bash -->
<g id="edge39" class="edge">
<title>sh&#45;&gt;bash</title>
<path fill="none" stroke="grey" d="M535.51,-726.06C526.54,-712.99 526.51,-691.23 535.4,-678.09"/>
</g>
<!-- sh&#45;&gt;bash -->
<g id="edge43" class="edge">
<title>sh&#45;&gt;bash</title>
<path fill="none" stroke="grey" d="M544.32,-721.46C541.57,-709.86 541.57,-694.08 544.33,-682.49"/>
</g>
<!-- sh&#45;&gt;bash -->
<g id="edge49" class="edge">
<title>sh&#45;&gt;bash</title>
<path fill="none" stroke="grey" d="M555.76,-719.7C555.76,-708.85 555.76,-694.92 555.76,-684.1"/>
</g>
<!-- sh&#45;&gt;bash -->
<g id="edge69" class="edge">
<title>sh&#45;&gt;bash</title>
<path fill="none" stroke="grey" d="M567.2,-721.46C569.95,-709.86 569.94,-694.08 567.19,-682.49"/>
</g>
<!-- sh&#45;&gt;bash -->
<g id="edge81" class="edge">
<title>sh&#45;&gt;bash</title>
<path fill="none" stroke="grey" d="M576.01,-726.06C584.97,-712.99 585.01,-691.23 576.11,-678.09"/>
</g>
<!-- sh&#45;&gt;bash -->
<g id="edge86" class="edge">
<title>sh&#45;&gt;bash</title>
<path fill="none" stroke="grey" d="M580.44,-730.54C601.54,-717.2 601.53,-686.77 580.41,-673.44"/>
</g>
<!-- bash&#45;&gt;glibc -->
<g id="edge28" class="edge">
<title>bash&#45;&gt;glibc</title>
<path fill="none" stroke="#8b4513" d="M559.03,-648.04C567.49,-601.66 588.32,-468.94 572.76,-360 563.75,-296.91 538.2,-226.18 523.51,-189.02"/>
<polygon fill="#8b4513" stroke="#8b4513" points="526.65,-187.45 519.68,-179.47 520.15,-190.05 526.65,-187.45"/>
</g>
<!-- readline&gt;=7.0 -->
<g id="node17" class="node">
<title>readline&gt;=7.0</title>
<ellipse fill="green" stroke="green" cx="459.76" cy="-594" rx="61.19" ry="18"/>
<text text-anchor="middle" x="459.76" y="-590.3" font-family="Times,serif" font-size="14.00">readline&gt;=7.0</text>
</g>
<!-- bash&#45;&gt;readline&gt;=7.0 -->
<g id="edge18" class="edge">
<title>bash&#45;&gt;readline&gt;=7.0</title>
<path fill="none" stroke="#8b4513" d="M538.15,-652.16C524.72,-642.37 505.9,-628.65 490.07,-617.1"/>
<polygon fill="#8b4513" stroke="#8b4513" points="491.78,-614.02 481.64,-610.95 487.65,-619.67 491.78,-614.02"/>
</g>
<!-- ncurses -->
<g id="node19" class="node">
<title>ncurses</title>
<ellipse fill="green" stroke="green" cx="526.76" cy="-378" rx="37.09" ry="18"/>
<text text-anchor="middle" x="526.76" y="-374.3" font-family="Times,serif" font-size="14.00">ncurses</text>
</g>
<!-- bash&#45;&gt;ncurses -->
<g id="edge29" class="edge">
<title>bash&#45;&gt;ncurses</title>
<path fill="none" stroke="#8b4513" d="M554.03,-647.97C549.19,-600.19 535.44,-464.62 529.52,-406.27"/>
<polygon fill="#8b4513" stroke="#8b4513" points="533,-405.9 528.51,-396.31 526.04,-406.61 533,-405.9"/>
</g>
<!-- readline -->
<g id="node18" class="node">
<title>readline</title>
<ellipse fill="green" stroke="green" cx="429.76" cy="-522" rx="38.99" ry="18"/>
<text text-anchor="middle" x="429.76" y="-518.3" font-family="Times,serif" font-size="14.00">readline</text>
</g>
<!-- readline&gt;=7.0&#45;&gt;readline -->
<g id="edge19" class="edge">
<title>readline&gt;=7.0&#45;&gt;readline</title>
<path fill="none" stroke="grey" d="M452.5,-576.05C447.78,-565.05 441.66,-550.76 436.95,-539.79"/>
</g>
<!-- readline&#45;&gt;glibc -->
<g id="edge20" class="edge">
<title>readline&#45;&gt;glibc</title>
<path fill="none" stroke="#8b4513" d="M395.94,-512.9C371.67,-505.33 340.13,-491.55 321.76,-468 296.88,-436.11 302.76,-419.45 302.76,-379 302.76,-379 302.76,-379 302.76,-305 302.76,-222.42 415.58,-184.61 475.84,-170.3"/>
<polygon fill="#8b4513" stroke="#8b4513" points="476.76,-173.68 485.73,-168.05 475.21,-166.86 476.76,-173.68"/>
</g>
<!-- readline&#45;&gt;ncurses -->
<g id="edge21" class="edge">
<title>readline&#45;&gt;ncurses</title>
<path fill="none" stroke="#8b4513" d="M457.29,-508.96C474.41,-500.08 495.42,-486.34 507.76,-468 520.05,-449.72 524.59,-424.96 526.17,-406.19"/>
<polygon fill="#8b4513" stroke="#8b4513" points="529.67,-406.39 526.79,-396.2 522.68,-405.96 529.67,-406.39"/>
</g>
<!-- libncursesw.so=6&#45;64 -->
<g id="node22" class="node">
<title>libncursesw.so=6&#45;64</title>
<ellipse fill="green" stroke="green" cx="414.76" cy="-450" rx="83.69" ry="18"/>
<text text-anchor="middle" x="414.76" y="-446.3" font-family="Times,serif" font-size="14.00">libncursesw.so=6&#45;64</text>
</g>
<!-- readline&#45;&gt;libncursesw.so=6&#45;64 -->
<g id="edge26" class="edge">
<title>readline&#45;&gt;libncursesw.so=6&#45;64</title>
<path fill="none" stroke="#8b4513" d="M426.13,-504.05C424.46,-496.26 422.43,-486.82 420.56,-478.08"/>
<polygon fill="#8b4513" stroke="#8b4513" points="423.98,-477.32 418.46,-468.28 417.13,-478.79 423.98,-477.32"/>
</g>
<!-- ncurses&#45;&gt;glibc -->
<g id="edge22" class="edge">
<title>ncurses&#45;&gt;glibc</title>
<path fill="none" stroke="#8b4513" d="M525.64,-359.85C523.21,-322.83 517.48,-235.18 514.55,-190.39"/>
<polygon fill="#8b4513" stroke="#8b4513" points="518.03,-189.98 513.89,-180.23 511.05,-190.44 518.03,-189.98"/>
</g>
<!-- gcc&#45;libs -->
<g id="node20" class="node">
<title>gcc&#45;libs</title>
<ellipse fill="green" stroke="green" cx="637.76" cy="-306" rx="38.19" ry="18"/>
<text text-anchor="middle" x="637.76" y="-302.3" font-family="Times,serif" font-size="14.00">gcc&#45;libs</text>
</g>
<!-- ncurses&#45;&gt;gcc&#45;libs -->
<g id="edge23" class="edge">
<title>ncurses&#45;&gt;gcc&#45;libs</title>
<path fill="none" stroke="#8b4513" d="M548.42,-363.34C565.2,-352.76 588.64,-337.97 607.31,-326.2"/>
<polygon fill="#8b4513" stroke="#8b4513" points="609.18,-329.16 615.77,-320.87 605.44,-323.24 609.18,-329.16"/>
</g>
<!-- glibc&gt;=2.27 -->
<g id="node21" class="node">
<title>glibc&gt;=2.27</title>
<ellipse fill="green" stroke="green" cx="633.76" cy="-234" rx="54.69" ry="18"/>
<text text-anchor="middle" x="633.76" y="-230.3" font-family="Times,serif" font-size="14.00">glibc&gt;=2.27</text>
</g>
<!-- gcc&#45;libs&#45;&gt;glibc&gt;=2.27 -->
<g id="edge24" class="edge">
<title>gcc&#45;libs&#45;&gt;glibc&gt;=2.27</title>
<path fill="none" stroke="#8b4513" d="M636.77,-287.7C636.33,-279.98 635.8,-270.71 635.31,-262.11"/>
<polygon fill="#8b4513" stroke="#8b4513" points="638.8,-261.89 634.74,-252.1 631.81,-262.29 638.8,-261.89"/>
</g>
<!-- glibc&gt;=2.27&#45;&gt;glibc -->
<g id="edge25" class="edge">
<title>glibc&gt;=2.27&#45;&gt;glibc</title>
<path fill="none" stroke="grey" d="M607.8,-217.98C585.44,-205.05 553.61,-186.64 533.07,-174.75"/>
</g>
<!-- libncursesw.so=6&#45;64&#45;&gt;ncurses -->
<g id="edge27" class="edge">
<title>libncursesw.so=6&#45;64&#45;&gt;ncurses</title>
<path fill="none" stroke="grey" d="M440.73,-432.76C460.12,-420.65 486.32,-404.27 504.7,-392.79"/>
</g>
<!-- libldap&#45;&gt;e2fsprogs -->
<g id="edge45" class="edge">
<title>libldap&#45;&gt;e2fsprogs</title>
<path fill="none" stroke="#8b4513" d="M380.99,-1154.5C393.17,-1144.81 409.4,-1131.9 423.15,-1120.96"/>
<polygon fill="#8b4513" stroke="#8b4513" points="425.68,-1123.42 431.33,-1114.46 421.32,-1117.94 425.68,-1123.42"/>
</g>
<!-- libsasl -->
<g id="node25" class="node">
<title>libsasl</title>
<ellipse fill="green" stroke="green" cx="354.76" cy="-1098" rx="33.29" ry="18"/>
<text text-anchor="middle" x="354.76" y="-1094.3" font-family="Times,serif" font-size="14.00">libsasl</text>
</g>
<!-- libldap&#45;&gt;libsasl -->
<g id="edge32" class="edge">
<title>libldap&#45;&gt;libsasl</title>
<path fill="none" stroke="#8b4513" d="M360.78,-1151.7C359.9,-1143.98 358.84,-1134.71 357.86,-1126.11"/>
<polygon fill="#8b4513" stroke="#8b4513" points="361.33,-1125.64 356.71,-1116.1 354.37,-1126.44 361.33,-1125.64"/>
</g>
<!-- openssl -->
<g id="node26" class="node">
<title>openssl</title>
<ellipse fill="green" stroke="green" cx="358.76" cy="-1026" rx="37.09" ry="18"/>
<text text-anchor="middle" x="358.76" y="-1022.3" font-family="Times,serif" font-size="14.00">openssl</text>
</g>
<!-- libsasl&#45;&gt;openssl -->
<g id="edge33" class="edge">
<title>libsasl&#45;&gt;openssl</title>
<path fill="none" stroke="#8b4513" d="M355.75,-1079.7C356.19,-1071.98 356.72,-1062.71 357.21,-1054.11"/>
<polygon fill="#8b4513" stroke="#8b4513" points="360.7,-1054.29 357.78,-1044.1 353.72,-1053.89 360.7,-1054.29"/>
</g>
<!-- perl -->
<g id="node27" class="node">
<title>perl</title>
<ellipse fill="green" stroke="green" cx="358.76" cy="-954" rx="27" ry="18"/>
<text text-anchor="middle" x="358.76" y="-950.3" font-family="Times,serif" font-size="14.00">perl</text>
</g>
<!-- openssl&#45;&gt;perl -->
<g id="edge34" class="edge">
<title>openssl&#45;&gt;perl</title>
<path fill="none" stroke="#8b4513" d="M358.76,-1007.7C358.76,-999.98 358.76,-990.71 358.76,-982.11"/>
<polygon fill="#8b4513" stroke="#8b4513" points="362.26,-982.1 358.76,-972.1 355.26,-982.1 362.26,-982.1"/>
</g>
<!-- perl&#45;&gt;glibc -->
<g id="edge44" class="edge">
<title>perl&#45;&gt;glibc</title>
<path fill="none" stroke="#8b4513" d="M338.61,-941.85C323.58,-932.53 303.67,-917.91 291.76,-900 276.88,-877.62 226.76,-693.88 226.76,-667 226.76,-667 226.76,-667 226.76,-305 226.76,-259.85 239.64,-243.1 275.76,-216 334.63,-171.82 423.43,-163.25 473.95,-162.27"/>
<polygon fill="#8b4513" stroke="#8b4513" points="474.17,-165.76 484.13,-162.16 474.1,-158.76 474.17,-165.76"/>
</g>
<!-- gdbm&gt;=1.17 -->
<g id="node28" class="node">
<title>gdbm&gt;=1.17</title>
<ellipse fill="green" stroke="green" cx="358.76" cy="-882" rx="57.69" ry="18"/>
<text text-anchor="middle" x="358.76" y="-878.3" font-family="Times,serif" font-size="14.00">gdbm&gt;=1.17</text>
</g>
<!-- perl&#45;&gt;gdbm&gt;=1.17 -->
<g id="edge35" class="edge">
<title>perl&#45;&gt;gdbm&gt;=1.17</title>
<path fill="none" stroke="#8b4513" d="M358.76,-935.7C358.76,-927.98 358.76,-918.71 358.76,-910.11"/>
<polygon fill="#8b4513" stroke="#8b4513" points="362.26,-910.1 358.76,-900.1 355.26,-910.1 362.26,-910.1"/>
</g>
<!-- db -->
<g id="node30" class="node">
<title>db</title>
<ellipse fill="green" stroke="green" cx="546.76" cy="-810" rx="27" ry="18"/>
<text text-anchor="middle" x="546.76" y="-806.3" font-family="Times,serif" font-size="14.00">db</text>
</g>
<!-- perl&#45;&gt;db -->
<g id="edge40" class="edge">
<title>perl&#45;&gt;db</title>
<path fill="none" stroke="#8b4513" d="M376.11,-939.9C409.4,-914.75 482.4,-859.61 521.25,-830.26"/>
<polygon fill="#8b4513" stroke="#8b4513" points="523.58,-832.89 529.45,-824.07 519.36,-827.31 523.58,-832.89"/>
</g>
<!-- gdbm -->
<g id="node29" class="node">
<title>gdbm</title>
<ellipse fill="green" stroke="green" cx="358.76" cy="-810" rx="31.4" ry="18"/>
<text text-anchor="middle" x="358.76" y="-806.3" font-family="Times,serif" font-size="14.00">gdbm</text>
</g>
<!-- gdbm&gt;=1.17&#45;&gt;gdbm -->
<g id="edge36" class="edge">
<title>gdbm&gt;=1.17&#45;&gt;gdbm</title>
<path fill="none" stroke="grey" d="M358.76,-863.7C358.76,-852.85 358.76,-838.92 358.76,-828.1"/>
</g>
<!-- gdbm&#45;&gt;glibc -->
<g id="edge37" class="edge">
<title>gdbm&#45;&gt;glibc</title>
<path fill="none" stroke="#8b4513" d="M341.08,-794.91C313.85,-771.5 264.76,-721.7 264.76,-667 264.76,-667 264.76,-667 264.76,-305 264.76,-259.19 280.37,-243.84 316.76,-216 363.09,-180.56 431.41,-168.79 473.95,-164.9"/>
<polygon fill="#8b4513" stroke="#8b4513" points="474.49,-168.37 484.17,-164.07 473.92,-161.39 474.49,-168.37"/>
</g>
<!-- gdbm&#45;&gt;sh -->
<g id="edge38" class="edge">
<title>gdbm&#45;&gt;sh</title>
<path fill="none" stroke="#8b4513" d="M384.92,-799.7C420.47,-787.07 484.03,-764.49 522.8,-750.71"/>
<polygon fill="#8b4513" stroke="#8b4513" points="524.31,-753.89 532.56,-747.24 521.97,-747.29 524.31,-753.89"/>
</g>
<!-- db&#45;&gt;sh -->
<g id="edge42" class="edge">
<title>db&#45;&gt;sh</title>
<path fill="none" stroke="#8b4513" d="M548.94,-792.05C549.93,-784.35 551.13,-775.03 552.24,-766.36"/>
<polygon fill="#8b4513" stroke="#8b4513" points="555.73,-766.64 553.54,-756.28 548.79,-765.75 555.73,-766.64"/>
</g>
<!-- db&#45;&gt;gcc&#45;libs -->
<g id="edge41" class="edge">
<title>db&#45;&gt;gcc&#45;libs</title>
<path fill="none" stroke="#8b4513" d="M563.56,-795.66C590.6,-772.57 640.76,-722.29 640.76,-667 640.76,-667 640.76,-667 640.76,-449 640.76,-408.99 639.55,-362.65 638.67,-334.08"/>
<polygon fill="#8b4513" stroke="#8b4513" points="642.17,-333.93 638.35,-324.05 635.17,-334.15 642.17,-333.93"/>
</g>
<!-- keyutils&#45;&gt;glibc -->
<g id="edge47" class="edge">
<title>keyutils&#45;&gt;glibc</title>
<path fill="none" stroke="#8b4513" d="M203.2,-792.04C197.96,-765.5 188.76,-712.48 188.76,-667 188.76,-667 188.76,-667 188.76,-305 188.76,-264.03 182.54,-243.66 212.76,-216 250.41,-181.54 401.81,-168.92 474.04,-164.79"/>
<polygon fill="#8b4513" stroke="#8b4513" points="474.31,-168.28 484.1,-164.24 473.93,-161.29 474.31,-168.28"/>
</g>
<!-- keyutils&#45;&gt;sh -->
<g id="edge48" class="edge">
<title>keyutils&#45;&gt;sh</title>
<path fill="none" stroke="#8b4513" d="M241.5,-802.03C307.94,-788.71 452.41,-759.73 519.8,-746.21"/>
<polygon fill="#8b4513" stroke="#8b4513" points="520.81,-749.58 529.93,-744.18 519.43,-742.72 520.81,-749.58"/>
</g>
<!-- shadow&#45;&gt;pam -->
<g id="edge52" class="edge">
<title>shadow&#45;&gt;pam</title>
<path fill="none" stroke="#8b4513" d="M365.35,-1445.44C335.93,-1433.04 289.28,-1413.36 258.34,-1400.32"/>
<polygon fill="#8b4513" stroke="#8b4513" points="259.47,-1396.99 248.89,-1396.33 256.75,-1403.44 259.47,-1396.99"/>
</g>
<!-- acl -->
<g id="node34" class="node">
<title>acl</title>
<ellipse fill="green" stroke="green" cx="663.76" cy="-1026" rx="27" ry="18"/>
<text text-anchor="middle" x="663.76" y="-1022.3" font-family="Times,serif" font-size="14.00">acl</text>
</g>
<!-- shadow&#45;&gt;acl -->
<g id="edge53" class="edge">
<title>shadow&#45;&gt;acl</title>
<path fill="none" stroke="#8b4513" d="M418.32,-1444.74C435.32,-1435.52 457.14,-1421.48 471.76,-1404 572.62,-1283.39 526.98,-1211.11 613.76,-1080 621.29,-1068.63 631.34,-1057.43 640.46,-1048.29"/>
<polygon fill="#8b4513" stroke="#8b4513" points="643.1,-1050.6 647.82,-1041.12 638.21,-1045.59 643.1,-1050.6"/>
</g>
<!-- audit -->
<g id="node36" class="node">
<title>audit</title>
<ellipse fill="green" stroke="green" cx="392.76" cy="-1314" rx="28.7" ry="18"/>
<text text-anchor="middle" x="392.76" y="-1310.3" font-family="Times,serif" font-size="14.00">audit</text>
</g>
<!-- shadow&#45;&gt;audit -->
<g id="edge56" class="edge">
<title>shadow&#45;&gt;audit</title>
<path fill="none" stroke="#8b4513" d="M363.92,-1446.05C345.96,-1437.54 324.33,-1423.82 313.76,-1404 306.23,-1389.88 306.23,-1382.12 313.76,-1368 319.25,-1357.7 342.76,-1342.62 362.72,-1331.17"/>
<polygon fill="#8b4513" stroke="#8b4513" points="364.56,-1334.15 371.56,-1326.2 361.13,-1328.05 364.56,-1334.15"/>
</g>
<!-- libaudit.so=1&#45;64 -->
<g id="node38" class="node">
<title>libaudit.so=1&#45;64</title>
<ellipse fill="green" stroke="green" cx="392.76" cy="-1386" rx="69.59" ry="18"/>
<text text-anchor="middle" x="392.76" y="-1382.3" font-family="Times,serif" font-size="14.00">libaudit.so=1&#45;64</text>
</g>
<!-- shadow&#45;&gt;libaudit.so=1&#45;64 -->
<g id="edge60" class="edge">
<title>shadow&#45;&gt;libaudit.so=1&#45;64</title>
<path fill="none" stroke="#8b4513" d="M392.76,-1439.7C392.76,-1431.98 392.76,-1422.71 392.76,-1414.11"/>
<polygon fill="#8b4513" stroke="#8b4513" points="396.26,-1414.1 392.76,-1404.1 389.26,-1414.1 396.26,-1414.1"/>
</g>
<!-- attr -->
<g id="node35" class="node">
<title>attr</title>
<ellipse fill="green" stroke="green" cx="699.76" cy="-810" rx="27" ry="18"/>
<text text-anchor="middle" x="699.76" y="-806.3" font-family="Times,serif" font-size="14.00">attr</text>
</g>
<!-- acl&#45;&gt;attr -->
<g id="edge54" class="edge">
<title>acl&#45;&gt;attr</title>
<path fill="none" stroke="#8b4513" d="M665.63,-1007.99C668.99,-978.51 676.67,-916.11 686.76,-864 688.4,-855.5 690.53,-846.31 692.59,-838.01"/>
<polygon fill="#8b4513" stroke="#8b4513" points="696.04,-838.65 695.11,-828.09 689.25,-836.92 696.04,-838.65"/>
</g>
<!-- attr&#45;&gt;glibc -->
<g id="edge55" class="edge">
<title>attr&#45;&gt;glibc</title>
<path fill="none" stroke="#8b4513" d="M703.12,-792.03C708.07,-765.48 716.76,-712.44 716.76,-667 716.76,-667 716.76,-667 716.76,-305 716.76,-264.55 725.36,-245.57 697.76,-216 660.03,-175.59 593.78,-165.28 551.64,-163.04"/>
<polygon fill="#8b4513" stroke="#8b4513" points="551.61,-159.53 541.48,-162.63 551.33,-166.53 551.61,-159.53"/>
</g>
<!-- audit&#45;&gt;krb5 -->
<g id="edge57" class="edge">
<title>audit&#45;&gt;krb5</title>
<path fill="none" stroke="#8b4513" d="M385.65,-1296.41C382.1,-1288.13 377.73,-1277.92 373.76,-1268.66"/>
<polygon fill="#8b4513" stroke="#8b4513" points="376.97,-1267.28 369.82,-1259.47 370.54,-1270.04 376.97,-1267.28"/>
</g>
<!-- audit&#45;&gt;libcap&#45;ng -->
<g id="edge58" class="edge">
<title>audit&#45;&gt;libcap&#45;ng</title>
<path fill="none" stroke="#8b4513" d="M370.52,-1302.27C365.41,-1300.02 359.95,-1297.79 354.76,-1296 299.99,-1277.07 235.1,-1261.86 191.67,-1252.67"/>
<polygon fill="#8b4513" stroke="#8b4513" points="192.15,-1249.2 181.65,-1250.58 190.72,-1256.05 192.15,-1249.2"/>
</g>
<!-- libcap&#45;ng&#45;&gt;glibc -->
<g id="edge59" class="edge">
<title>libcap&#45;ng&#45;&gt;glibc</title>
<path fill="none" stroke="#8b4513" d="M142.36,-1223.95C141.78,-1197.29 140.76,-1144.12 140.76,-1099 140.76,-1099 140.76,-1099 140.76,-881 140.76,-732.87 81.81,-320.54 186.76,-216 226.53,-176.39 396.15,-166.37 473.74,-163.84"/>
<polygon fill="#8b4513" stroke="#8b4513" points="474.17,-167.33 484.06,-163.53 473.96,-160.33 474.17,-167.33"/>
</g>
<!-- libaudit.so=1&#45;64&#45;&gt;audit -->
<g id="edge61" class="edge">
<title>libaudit.so=1&#45;64&#45;&gt;audit</title>
<path fill="none" stroke="grey" d="M392.76,-1367.7C392.76,-1356.85 392.76,-1342.92 392.76,-1332.1"/>
</g>
<!-- coreutils&#45;&gt;glibc -->
<g id="edge63" class="edge">
<title>coreutils&#45;&gt;glibc</title>
<path fill="none" stroke="#8b4513" d="M693.89,-1085.81C713.46,-1077.13 738.13,-1063.31 753.76,-1044 841.69,-935.3 830.76,-878.81 830.76,-739 830.76,-739 830.76,-739 830.76,-305 830.76,-183.98 636.37,-165.4 551.56,-163.05"/>
<polygon fill="#8b4513" stroke="#8b4513" points="551.61,-159.55 541.54,-162.83 551.46,-166.55 551.61,-159.55"/>
</g>
<!-- coreutils&#45;&gt;openssl -->
<g id="edge73" class="edge">
<title>coreutils&#45;&gt;openssl</title>
<path fill="none" stroke="#8b4513" d="M628.17,-1088.83C571.87,-1075.91 462.45,-1050.8 401.81,-1036.88"/>
<polygon fill="#8b4513" stroke="#8b4513" points="402.33,-1033.41 391.8,-1034.58 400.76,-1040.23 402.33,-1033.41"/>
</g>
<!-- coreutils&#45;&gt;acl -->
<g id="edge64" class="edge">
<title>coreutils&#45;&gt;acl</title>
<path fill="none" stroke="#8b4513" d="M663.76,-1079.7C663.76,-1071.98 663.76,-1062.71 663.76,-1054.11"/>
<polygon fill="#8b4513" stroke="#8b4513" points="667.26,-1054.1 663.76,-1044.1 660.26,-1054.1 667.26,-1054.1"/>
</g>
<!-- coreutils&#45;&gt;attr -->
<g id="edge65" class="edge">
<title>coreutils&#45;&gt;attr</title>
<path fill="none" stroke="#8b4513" d="M678.62,-1080.71C686.57,-1070.86 695.57,-1057.61 699.76,-1044 721.84,-972.2 711.89,-881.97 704.75,-837.83"/>
<polygon fill="#8b4513" stroke="#8b4513" points="708.19,-837.16 703.07,-827.88 701.29,-838.33 708.19,-837.16"/>
</g>
<!-- gmp -->
<g id="node40" class="node">
<title>gmp</title>
<ellipse fill="green" stroke="green" cx="618.76" cy="-810" rx="27" ry="18"/>
<text text-anchor="middle" x="618.76" y="-806.3" font-family="Times,serif" font-size="14.00">gmp</text>
</g>
<!-- coreutils&#45;&gt;gmp -->
<g id="edge66" class="edge">
<title>coreutils&#45;&gt;gmp</title>
<path fill="none" stroke="#8b4513" d="M649.46,-1081.1C641.49,-1071.19 632.27,-1057.74 627.76,-1044 604.28,-972.59 610.13,-882.19 615.11,-837.91"/>
<polygon fill="#8b4513" stroke="#8b4513" points="618.59,-838.29 616.31,-827.94 611.64,-837.45 618.59,-838.29"/>
</g>
<!-- libcap -->
<g id="node41" class="node">
<title>libcap</title>
<ellipse fill="green" stroke="green" cx="760.76" cy="-882" rx="32.49" ry="18"/>
<text text-anchor="middle" x="760.76" y="-878.3" font-family="Times,serif" font-size="14.00">libcap</text>
</g>
<!-- coreutils&#45;&gt;libcap -->
<g id="edge70" class="edge">
<title>coreutils&#45;&gt;libcap</title>
<path fill="none" stroke="#8b4513" d="M689.38,-1083.75C704.42,-1074.62 722.44,-1061.06 732.76,-1044 757.93,-1002.38 761.95,-944.3 761.85,-910.47"/>
<polygon fill="#8b4513" stroke="#8b4513" points="765.35,-910.33 761.7,-900.39 758.35,-910.44 765.35,-910.33"/>
</g>
<!-- gmp&#45;&gt;sh -->
<g id="edge68" class="edge">
<title>gmp&#45;&gt;sh</title>
<path fill="none" stroke="#8b4513" d="M605.4,-794.15C596.88,-784.69 585.67,-772.24 576.06,-761.56"/>
<polygon fill="#8b4513" stroke="#8b4513" points="578.39,-758.92 569.1,-753.82 573.19,-763.6 578.39,-758.92"/>
</g>
<!-- gmp&#45;&gt;gcc&#45;libs -->
<g id="edge67" class="edge">
<title>gmp&#45;&gt;gcc&#45;libs</title>
<path fill="none" stroke="#8b4513" d="M631.26,-793.59C638.97,-783.43 648.54,-769.55 654.76,-756 671.84,-718.76 678.76,-707.97 678.76,-667 678.76,-667 678.76,-667 678.76,-449 678.76,-407.18 662.14,-361.05 650.06,-333.05"/>
<polygon fill="#8b4513" stroke="#8b4513" points="653.12,-331.31 645.86,-323.6 646.72,-334.16 653.12,-331.31"/>
</g>
<!-- libcap&#45;&gt;glibc -->
<g id="edge71" class="edge">
<title>libcap&#45;&gt;glibc</title>
<path fill="none" stroke="#8b4513" d="M759.57,-863.96C757.82,-837.31 754.76,-784.15 754.76,-739 754.76,-739 754.76,-739 754.76,-305 754.76,-262.66 752.38,-244.16 720.76,-216 673.52,-173.92 597.45,-164.34 551.57,-162.67"/>
<polygon fill="#8b4513" stroke="#8b4513" points="551.52,-159.16 541.43,-162.41 551.34,-166.16 551.52,-159.16"/>
</g>
<!-- libcap&#45;&gt;attr -->
<g id="edge72" class="edge">
<title>libcap&#45;&gt;attr</title>
<path fill="none" stroke="#8b4513" d="M747.22,-865.46C739.05,-856.09 728.51,-843.99 719.43,-833.57"/>
<polygon fill="#8b4513" stroke="#8b4513" points="722.05,-831.25 712.84,-826.01 716.77,-835.85 722.05,-831.25"/>
</g>
<!-- systemd&#45;libs&#45;&gt;glibc -->
<g id="edge75" class="edge">
<title>systemd&#45;libs&#45;&gt;glibc</title>
<path fill="none" stroke="#8b4513" d="M966.75,-939.27C983.9,-930.49 1003.73,-917.44 1015.76,-900 1038.72,-866.7 1034.76,-851.45 1034.76,-811 1034.76,-811 1034.76,-811 1034.76,-305 1034.76,-204.83 672.33,-173 551.46,-165.17"/>
<polygon fill="#8b4513" stroke="#8b4513" points="551.39,-161.66 541.19,-164.53 550.95,-168.65 551.39,-161.66"/>
</g>
<!-- systemd&#45;libs&#45;&gt;libcap -->
<g id="edge76" class="edge">
<title>systemd&#45;libs&#45;&gt;libcap</title>
<path fill="none" stroke="#8b4513" d="M900.4,-939.5C870.28,-927.31 826.12,-909.45 795.55,-897.08"/>
<polygon fill="#8b4513" stroke="#8b4513" points="796.73,-893.78 786.15,-893.27 794.1,-900.27 796.73,-893.78"/>
</g>
<!-- libgcrypt -->
<g id="node43" class="node">
<title>libgcrypt</title>
<ellipse fill="green" stroke="green" cx="963.76" cy="-882" rx="42.79" ry="18"/>
<text text-anchor="middle" x="963.76" y="-878.3" font-family="Times,serif" font-size="14.00">libgcrypt</text>
</g>
<!-- systemd&#45;libs&#45;&gt;libgcrypt -->
<g id="edge77" class="edge">
<title>systemd&#45;libs&#45;&gt;libgcrypt</title>
<path fill="none" stroke="#8b4513" d="M941.02,-936.05C944.48,-927.97 948.71,-918.12 952.57,-909.11"/>
<polygon fill="#8b4513" stroke="#8b4513" points="955.84,-910.36 956.56,-899.79 949.41,-907.6 955.84,-910.36"/>
</g>
<!-- lz4 -->
<g id="node45" class="node">
<title>lz4</title>
<ellipse fill="green" stroke="green" cx="1089.76" cy="-738" rx="27" ry="18"/>
<text text-anchor="middle" x="1089.76" y="-734.3" font-family="Times,serif" font-size="14.00">lz4</text>
</g>
<!-- systemd&#45;libs&#45;&gt;lz4 -->
<g id="edge82" class="edge">
<title>systemd&#45;libs&#45;&gt;lz4</title>
<path fill="none" stroke="#8b4513" d="M977.76,-942.72C1002.01,-934.88 1030.76,-921.63 1048.76,-900 1080.73,-861.59 1088.2,-801.43 1089.7,-766.55"/>
<polygon fill="#8b4513" stroke="#8b4513" points="1093.21,-766.27 1089.99,-756.18 1086.21,-766.07 1093.21,-766.27"/>
</g>
<!-- xz -->
<g id="node46" class="node">
<title>xz</title>
<ellipse fill="green" stroke="green" cx="875.76" cy="-882" rx="27" ry="18"/>
<text text-anchor="middle" x="875.76" y="-878.3" font-family="Times,serif" font-size="14.00">xz</text>
</g>
<!-- systemd&#45;libs&#45;&gt;xz -->
<g id="edge84" class="edge">
<title>systemd&#45;libs&#45;&gt;xz</title>
<path fill="none" stroke="#8b4513" d="M920.01,-936.41C912.48,-927.31 903.02,-915.9 894.78,-905.96"/>
<polygon fill="#8b4513" stroke="#8b4513" points="897.29,-903.51 888.22,-898.04 891.9,-907.97 897.29,-903.51"/>
</g>
<!-- libgpg&#45;error -->
<g id="node44" class="node">
<title>libgpg&#45;error</title>
<ellipse fill="green" stroke="green" cx="912.76" cy="-810" rx="53.89" ry="18"/>
<text text-anchor="middle" x="912.76" y="-806.3" font-family="Times,serif" font-size="14.00">libgpg&#45;error</text>
</g>
<!-- libgcrypt&#45;&gt;libgpg&#45;error -->
<g id="edge78" class="edge">
<title>libgcrypt&#45;&gt;libgpg&#45;error</title>
<path fill="none" stroke="#8b4513" d="M951.67,-864.41C945.54,-855.99 937.96,-845.58 931.12,-836.2"/>
<polygon fill="#8b4513" stroke="#8b4513" points="933.83,-833.98 925.11,-827.96 928.17,-838.1 933.83,-833.98"/>
</g>
<!-- libgpg&#45;error&#45;&gt;glibc -->
<g id="edge79" class="edge">
<title>libgpg&#45;error&#45;&gt;glibc</title>
<path fill="none" stroke="#8b4513" d="M908.31,-791.65C901.88,-765.02 890.76,-712.4 890.76,-667 890.76,-667 890.76,-667 890.76,-305 890.76,-260.47 880.84,-242.09 844.76,-216 798.45,-182.52 628.78,-169.25 551.53,-164.86"/>
<polygon fill="#8b4513" stroke="#8b4513" points="551.44,-161.35 541.26,-164.3 551.06,-168.34 551.44,-161.35"/>
</g>
<!-- libgpg&#45;error&#45;&gt;sh -->
<g id="edge80" class="edge">
<title>libgpg&#45;error&#45;&gt;sh</title>
<path fill="none" stroke="#8b4513" d="M867.54,-800.13C795.59,-786.03 656.51,-758.76 591.23,-745.96"/>
<polygon fill="#8b4513" stroke="#8b4513" points="591.89,-742.52 581.41,-744.03 590.55,-749.39 591.89,-742.52"/>
</g>
<!-- lz4&#45;&gt;glibc -->
<g id="edge83" class="edge">
<title>lz4&#45;&gt;glibc</title>
<path fill="none" stroke="#8b4513" d="M1087.98,-719.97C1085.36,-693.34 1080.76,-640.21 1080.76,-595 1080.76,-595 1080.76,-595 1080.76,-305 1080.76,-262.97 1081.91,-241.84 1048.76,-216 1009.69,-185.55 668.11,-169.2 551.54,-164.47"/>
<polygon fill="#8b4513" stroke="#8b4513" points="551.43,-160.96 541.3,-164.06 551.15,-167.95 551.43,-160.96"/>
</g>
<!-- xz&#45;&gt;sh -->
<g id="edge85" class="edge">
<title>xz&#45;&gt;sh</title>
<path fill="none" stroke="#8b4513" d="M858.55,-867.79C833,-848.73 782.96,-813.44 735.76,-792 687.63,-770.14 628.21,-754.7 591.14,-746.32"/>
<polygon fill="#8b4513" stroke="#8b4513" points="591.82,-742.89 581.3,-744.15 590.31,-749.73 591.82,-742.89"/>
</g>
</g>
</svg>
