<?xml version="1.0" encoding="UTF-8" standalone="no"?>
<!DOCTYPE svg PUBLIC "-//W3C//DTD SVG 1.1//EN"
 "http://www.w3.org/Graphics/SVG/1.1/DTD/svg11.dtd">
<!-- Generated by graphviz version 2.44.0 (0)
 -->
<!-- Title: G Pages: 1 -->
<svg width="398pt" height="908pt"
 viewBox="0.00 0.00 397.94 908.00" xmlns="http://www.w3.org/2000/svg" xmlns:xlink="http://www.w3.org/1999/xlink">
<g id="graph0" class="graph" transform="scale(1 1) rotate(0) translate(4 904)">
<title>G</title>
<polygon fill="white" stroke="transparent" points="-4,4 -4,-904 393.94,-904 393.94,4 -4,4"/>
<!-- START -->
<g id="node1" class="node">
<title>START</title>
<ellipse fill="red" stroke="red" cx="333.14" cy="-882" rx="38.19" ry="18"/>
<text text-anchor="middle" x="333.14" y="-878.3" font-family="Times,serif" font-size="14.00">START</text>
</g>
<!-- xz -->
<g id="node2" class="node">
<title>xz</title>
<ellipse fill="green" stroke="green" cx="333.14" cy="-810" rx="27" ry="18"/>
<text text-anchor="middle" x="333.14" y="-806.3" font-family="Times,serif" font-size="14.00">xz</text>
</g>
<!-- START&#45;&gt;xz -->
<g id="edge1" class="edge">
<title>START&#45;&gt;xz</title>
<path fill="none" stroke="black" d="M333.14,-863.7C333.14,-855.98 333.14,-846.71 333.14,-838.11"/>
<polygon fill="black" stroke="black" points="336.64,-838.1 333.14,-828.1 329.64,-838.1 336.64,-838.1"/>
</g>
<!-- sh -->
<g id="node3" class="node">
<title>sh</title>
<ellipse fill="green" stroke="green" cx="333.14" cy="-738" rx="27" ry="18"/>
<text text-anchor="middle" x="333.14" y="-734.3" font-family="Times,serif" font-size="14.00">sh</text>
</g>
<!-- xz&#45;&gt;sh -->
<g id="edge2" class="edge">
<title>xz&#45;&gt;sh</title>
<path fill="none" stroke="#8b4513" d="M333.14,-791.7C333.14,-783.98 333.14,-774.71 333.14,-766.11"/>
<polygon fill="#8b4513" stroke="#8b4513" points="336.64,-766.1 333.14,-756.1 329.64,-766.1 336.64,-766.1"/>
</g>
<!-- bash -->
<g id="node4" class="node">
<title>bash</title>
<ellipse fill="green" stroke="green" cx="333.14" cy="-666" rx="27" ry="18"/>
<text text-anchor="middle" x="333.14" y="-662.3" font-family="Times,serif" font-size="14.00">bash</text>
</g>
<!-- sh&#45;&gt;bash -->
<g id="edge3" class="edge">
<title>sh&#45;&gt;bash</title>
<path fill="none" stroke="grey" d="M333.14,-719.7C333.14,-708.85 333.14,-694.92 333.14,-684.1"/>
</g>
<!-- readline&gt;=7.0 -->
<g id="node5" class="node">
<title>readline&gt;=7.0</title>
<ellipse fill="green" stroke="green" cx="214.14" cy="-594" rx="61.19" ry="18"/>
<text text-anchor="middle" x="214.14" y="-590.3" font-family="Times,serif" font-size="14.00">readline&gt;=7.0</text>
</g>
<!-- bash&#45;&gt;readline&gt;=7.0 -->
<g id="edge4" class="edge">
<title>bash&#45;&gt;readline&gt;=7.0</title>
<path fill="none" stroke="#8b4513" d="M313.49,-653.44C296.05,-643.18 270.14,-627.94 249.16,-615.6"/>
<polygon fill="#8b4513" stroke="#8b4513" points="250.9,-612.56 240.51,-610.51 247.35,-618.6 250.9,-612.56"/>
</g>
<!-- glibc -->
<g id="node7" class="node">
<title>glibc</title>
<ellipse fill="green" stroke="green" cx="246.14" cy="-162" rx="28.7" ry="18"/>
<text text-anchor="middle" x="246.14" y="-158.3" font-family="Times,serif" font-size="14.00">glibc</text>
</g>
<!-- bash&#45;&gt;glibc -->
<g id="edge19" class="edge">
<title>bash&#45;&gt;glibc</title>
<path fill="none" stroke="#8b4513" d="M340.65,-648.34C351.72,-622.2 371.14,-569.7 371.14,-523 371.14,-523 371.14,-523 371.14,-305 371.14,-264.55 376.9,-247.98 352.14,-216 334.84,-193.65 305.58,-180.02 282.18,-172.2"/>
<polygon fill="#8b4513" stroke="#8b4513" points="283.16,-168.83 272.57,-169.19 281.07,-175.51 283.16,-168.83"/>
</g>
<!-- ncurses -->
<g id="node13" class="node">
<title>ncurses</title>
<ellipse fill="green" stroke="green" cx="288.14" cy="-378" rx="37.09" ry="18"/>
<text text-anchor="middle" x="288.14" y="-374.3" font-family="Times,serif" font-size="14.00">ncurses</text>
</g>
<!-- bash&#45;&gt;ncurses -->
<g id="edge20" class="edge">
<title>bash&#45;&gt;ncurses</title>
<path fill="none" stroke="#8b4513" d="M330.46,-647.97C322.94,-600.19 301.61,-464.62 292.43,-406.27"/>
<polygon fill="#8b4513" stroke="#8b4513" points="295.88,-405.64 290.86,-396.31 288.96,-406.73 295.88,-405.64"/>
</g>
<!-- readline -->
<g id="node6" class="node">
<title>readline</title>
<ellipse fill="green" stroke="green" cx="198.14" cy="-522" rx="38.99" ry="18"/>
<text text-anchor="middle" x="198.14" y="-518.3" font-family="Times,serif" font-size="14.00">readline</text>
</g>
<!-- readline&gt;=7.0&#45;&gt;readline -->
<g id="edge5" class="edge">
<title>readline&gt;=7.0&#45;&gt;readline</title>
<path fill="none" stroke="grey" d="M210.19,-575.7C207.71,-564.85 204.52,-550.92 202.05,-540.1"/>
</g>
<!-- readline&#45;&gt;glibc -->
<g id="edge6" class="edge">
<title>readline&#45;&gt;glibc</title>
<path fill="none" stroke="#8b4513" d="M164.33,-512.9C140.06,-505.33 108.51,-491.55 90.14,-468 65.26,-436.11 71.14,-419.45 71.14,-379 71.14,-379 71.14,-379 71.14,-305 71.14,-233.66 159.93,-191.9 211.02,-173.78"/>
<polygon fill="#8b4513" stroke="#8b4513" points="212.37,-177.02 220.69,-170.47 210.1,-170.4 212.37,-177.02"/>
</g>
<!-- readline&#45;&gt;ncurses -->
<g id="edge12" class="edge">
<title>readline&#45;&gt;ncurses</title>
<path fill="none" stroke="#8b4513" d="M226.15,-509.27C243.46,-500.51 264.51,-486.8 276.14,-468 287.52,-449.6 290.09,-425 290.06,-406.32"/>
<polygon fill="#8b4513" stroke="#8b4513" points="293.55,-406.01 289.78,-396.1 286.55,-406.19 293.55,-406.01"/>
</g>
<!-- libncursesw.so=6&#45;64 -->
<g id="node16" class="node">
<title>libncursesw.so=6&#45;64</title>
<ellipse fill="green" stroke="green" cx="183.14" cy="-450" rx="83.69" ry="18"/>
<text text-anchor="middle" x="183.14" y="-446.3" font-family="Times,serif" font-size="14.00">libncursesw.so=6&#45;64</text>
</g>
<!-- readline&#45;&gt;libncursesw.so=6&#45;64 -->
<g id="edge17" class="edge">
<title>readline&#45;&gt;libncursesw.so=6&#45;64</title>
<path fill="none" stroke="#8b4513" d="M194.51,-504.05C192.84,-496.26 190.82,-486.82 188.94,-478.08"/>
<polygon fill="#8b4513" stroke="#8b4513" points="192.36,-477.32 186.84,-468.28 185.52,-478.79 192.36,-477.32"/>
</g>
<!-- linux&#45;api&#45;headers&gt;=4.10 -->
<g id="node8" class="node">
<title>linux&#45;api&#45;headers&gt;=4.10</title>
<ellipse fill="green" stroke="green" cx="98.14" cy="-90" rx="98.28" ry="18"/>
<text text-anchor="middle" x="98.14" y="-86.3" font-family="Times,serif" font-size="14.00">linux&#45;api&#45;headers&gt;=4.10</text>
</g>
<!-- glibc&#45;&gt;linux&#45;api&#45;headers&gt;=4.10 -->
<g id="edge7" class="edge">
<title>glibc&#45;&gt;linux&#45;api&#45;headers&gt;=4.10</title>
<path fill="none" stroke="#8b4513" d="M223.98,-150.52C202.2,-140.22 168.37,-124.22 141.27,-111.4"/>
<polygon fill="#8b4513" stroke="#8b4513" points="142.53,-108.12 132,-107.01 139.54,-114.45 142.53,-108.12"/>
</g>
<!-- tzdata -->
<g id="node10" class="node">
<title>tzdata</title>
<ellipse fill="green" stroke="green" cx="246.14" cy="-90" rx="31.7" ry="18"/>
<text text-anchor="middle" x="246.14" y="-86.3" font-family="Times,serif" font-size="14.00">tzdata</text>
</g>
<!-- glibc&#45;&gt;tzdata -->
<g id="edge9" class="edge">
<title>glibc&#45;&gt;tzdata</title>
<path fill="none" stroke="#8b4513" d="M246.14,-143.7C246.14,-135.98 246.14,-126.71 246.14,-118.11"/>
<polygon fill="#8b4513" stroke="#8b4513" points="249.64,-118.1 246.14,-108.1 242.64,-118.1 249.64,-118.1"/>
</g>
<!-- filesystem -->
<g id="node11" class="node">
<title>filesystem</title>
<ellipse fill="green" stroke="green" cx="343.14" cy="-90" rx="46.59" ry="18"/>
<text text-anchor="middle" x="343.14" y="-86.3" font-family="Times,serif" font-size="14.00">filesystem</text>
</g>
<!-- glibc&#45;&gt;filesystem -->
<g id="edge10" class="edge">
<title>glibc&#45;&gt;filesystem</title>
<path fill="none" stroke="#8b4513" d="M264.39,-147.83C278.19,-137.88 297.42,-123.99 313.43,-112.44"/>
<polygon fill="#8b4513" stroke="#8b4513" points="315.88,-114.99 321.94,-106.3 311.78,-109.31 315.88,-114.99"/>
</g>
<!-- linux&#45;api&#45;headers -->
<g id="node9" class="node">
<title>linux&#45;api&#45;headers</title>
<ellipse fill="green" stroke="green" cx="98.14" cy="-18" rx="71.49" ry="18"/>
<text text-anchor="middle" x="98.14" y="-14.3" font-family="Times,serif" font-size="14.00">linux&#45;api&#45;headers</text>
</g>
<!-- linux&#45;api&#45;headers&gt;=4.10&#45;&gt;linux&#45;api&#45;headers -->
<g id="edge8" class="edge">
<title>linux&#45;api&#45;headers&gt;=4.10&#45;&gt;linux&#45;api&#45;headers</title>
<path fill="none" stroke="grey" d="M98.14,-71.7C98.14,-60.85 98.14,-46.92 98.14,-36.1"/>
</g>
<!-- iana&#45;etc -->
<g id="node12" class="node">
<title>iana&#45;etc</title>
<ellipse fill="green" stroke="green" cx="343.14" cy="-18" rx="38.19" ry="18"/>
<text text-anchor="middle" x="343.14" y="-14.3" font-family="Times,serif" font-size="14.00">iana&#45;etc</text>
</g>
<!-- filesystem&#45;&gt;iana&#45;etc -->
<g id="edge11" class="edge">
<title>filesystem&#45;&gt;iana&#45;etc</title>
<path fill="none" stroke="#8b4513" d="M343.14,-71.7C343.14,-63.98 343.14,-54.71 343.14,-46.11"/>
<polygon fill="#8b4513" stroke="#8b4513" points="346.64,-46.1 343.14,-36.1 339.64,-46.1 346.64,-46.1"/>
</g>
<!-- ncurses&#45;&gt;glibc -->
<g id="edge13" class="edge">
<title>ncurses&#45;&gt;glibc</title>
<path fill="none" stroke="#8b4513" d="M271.01,-361.88C260.88,-352.05 248.62,-338.41 241.14,-324 226,-294.82 227.94,-284.66 224.14,-252 222.29,-236.11 221.01,-231.69 224.14,-216 226.01,-206.63 229.56,-196.84 233.28,-188.26"/>
<polygon fill="#8b4513" stroke="#8b4513" points="236.46,-189.73 237.47,-179.18 230.1,-186.8 236.46,-189.73"/>
</g>
<!-- gcc&#45;libs -->
<g id="node14" class="node">
<title>gcc&#45;libs</title>
<ellipse fill="green" stroke="green" cx="288.14" cy="-306" rx="38.19" ry="18"/>
<text text-anchor="middle" x="288.14" y="-302.3" font-family="Times,serif" font-size="14.00">gcc&#45;libs</text>
</g>
<!-- ncurses&#45;&gt;gcc&#45;libs -->
<g id="edge14" class="edge">
<title>ncurses&#45;&gt;gcc&#45;libs</title>
<path fill="none" stroke="#8b4513" d="M288.14,-359.7C288.14,-351.98 288.14,-342.71 288.14,-334.11"/>
<polygon fill="#8b4513" stroke="#8b4513" points="291.64,-334.1 288.14,-324.1 284.64,-334.1 291.64,-334.1"/>
</g>
<!-- glibc&gt;=2.27 -->
<g id="node15" class="node">
<title>glibc&gt;=2.27</title>
<ellipse fill="green" stroke="green" cx="288.14" cy="-234" rx="54.69" ry="18"/>
<text text-anchor="middle" x="288.14" y="-230.3" font-family="Times,serif" font-size="14.00">glibc&gt;=2.27</text>
</g>
<!-- gcc&#45;libs&#45;&gt;glibc&gt;=2.27 -->
<g id="edge15" class="edge">
<title>gcc&#45;libs&#45;&gt;glibc&gt;=2.27</title>
<path fill="none" stroke="#8b4513" d="M288.14,-287.7C288.14,-279.98 288.14,-270.71 288.14,-262.11"/>
<polygon fill="#8b4513" stroke="#8b4513" points="291.64,-262.1 288.14,-252.1 284.64,-262.1 291.64,-262.1"/>
</g>
<!-- glibc&gt;=2.27&#45;&gt;glibc -->
<g id="edge16" class="edge">
<title>glibc&gt;=2.27&#45;&gt;glibc</title>
<path fill="none" stroke="grey" d="M277.97,-216.05C271.27,-204.89 262.55,-190.34 255.93,-179.31"/>
</g>
<!-- libncursesw.so=6&#45;64&#45;&gt;ncurses -->
<g id="edge18" class="edge">
<title>libncursesw.so=6&#45;64&#45;&gt;ncurses</title>
<path fill="none" stroke="grey" d="M207.49,-432.76C225.55,-420.73 249.91,-404.49 267.11,-393.02"/>
</g>
</g>
</svg>
