<?xml version="1.0" encoding="UTF-8" standalone="no"?>
<!DOCTYPE svg PUBLIC "-//W3C//DTD SVG 1.1//EN"
 "http://www.w3.org/Graphics/SVG/1.1/DTD/svg11.dtd">
<!-- Generated by graphviz version 2.44.0 (0)
 -->
<!-- Title: G Pages: 1 -->
<svg width="535pt" height="980pt"
 viewBox="0.00 0.00 535.14 980.00" xmlns="http://www.w3.org/2000/svg" xmlns:xlink="http://www.w3.org/1999/xlink">
<g id="graph0" class="graph" transform="scale(1 1) rotate(0) translate(4 976)">
<title>G</title>
<polygon fill="white" stroke="transparent" points="-4,4 -4,-976 531.14,-976 531.14,4 -4,4"/>
<!-- START -->
<g id="node1" class="node">
<title>START</title>
<ellipse fill="red" stroke="red" cx="278.14" cy="-954" rx="38.19" ry="18"/>
<text text-anchor="middle" x="278.14" y="-950.3" font-family="Times,serif" font-size="14.00">START</text>
</g>
<!-- zstd -->
<g id="node2" class="node">
<title>zstd</title>
<ellipse fill="green" stroke="green" cx="278.14" cy="-882" rx="27" ry="18"/>
<text text-anchor="middle" x="278.14" y="-878.3" font-family="Times,serif" font-size="14.00">zstd</text>
</g>
<!-- START&#45;&gt;zstd -->
<g id="edge1" class="edge">
<title>START&#45;&gt;zstd</title>
<path fill="none" stroke="black" d="M278.14,-935.7C278.14,-927.98 278.14,-918.71 278.14,-910.11"/>
<polygon fill="black" stroke="black" points="281.64,-910.1 278.14,-900.1 274.64,-910.1 281.64,-910.1"/>
</g>
<!-- zlib -->
<g id="node3" class="node">
<title>zlib</title>
<ellipse fill="green" stroke="green" cx="179.14" cy="-738" rx="27" ry="18"/>
<text text-anchor="middle" x="179.14" y="-734.3" font-family="Times,serif" font-size="14.00">zlib</text>
</g>
<!-- zstd&#45;&gt;zlib -->
<g id="edge2" class="edge">
<title>zstd&#45;&gt;zlib</title>
<path fill="none" stroke="#8b4513" d="M267.17,-865.26C249.92,-840.52 216.35,-792.37 196.02,-763.2"/>
<polygon fill="#8b4513" stroke="#8b4513" points="198.75,-761.01 190.16,-754.81 193.01,-765.01 198.75,-761.01"/>
</g>
<!-- xz -->
<g id="node10" class="node">
<title>xz</title>
<ellipse fill="green" stroke="green" cx="278.14" cy="-810" rx="27" ry="18"/>
<text text-anchor="middle" x="278.14" y="-806.3" font-family="Times,serif" font-size="14.00">xz</text>
</g>
<!-- zstd&#45;&gt;xz -->
<g id="edge9" class="edge">
<title>zstd&#45;&gt;xz</title>
<path fill="none" stroke="#8b4513" d="M278.14,-863.7C278.14,-855.98 278.14,-846.71 278.14,-838.11"/>
<polygon fill="#8b4513" stroke="#8b4513" points="281.64,-838.1 278.14,-828.1 274.64,-838.1 281.64,-838.1"/>
</g>
<!-- lz4 -->
<g id="node19" class="node">
<title>lz4</title>
<ellipse fill="green" stroke="green" cx="438.14" cy="-666" rx="27" ry="18"/>
<text text-anchor="middle" x="438.14" y="-662.3" font-family="Times,serif" font-size="14.00">lz4</text>
</g>
<!-- zstd&#45;&gt;lz4 -->
<g id="edge24" class="edge">
<title>zstd&#45;&gt;lz4</title>
<path fill="none" stroke="#8b4513" d="M289.65,-865.61C317.26,-828.68 387.41,-734.85 420.44,-690.68"/>
<polygon fill="#8b4513" stroke="#8b4513" points="423.34,-692.64 426.52,-682.54 417.73,-688.45 423.34,-692.64"/>
</g>
<!-- glibc -->
<g id="node4" class="node">
<title>glibc</title>
<ellipse fill="green" stroke="green" cx="246.14" cy="-162" rx="28.7" ry="18"/>
<text text-anchor="middle" x="246.14" y="-158.3" font-family="Times,serif" font-size="14.00">glibc</text>
</g>
<!-- zlib&#45;&gt;glibc -->
<g id="edge3" class="edge">
<title>zlib&#45;&gt;glibc</title>
<path fill="none" stroke="#8b4513" d="M173.61,-720.16C165.45,-693.79 151.14,-640.98 151.14,-595 151.14,-595 151.14,-595 151.14,-305 151.14,-254.79 192.68,-208.89 220.83,-183.56"/>
<polygon fill="#8b4513" stroke="#8b4513" points="223.48,-185.88 228.72,-176.67 218.88,-180.61 223.48,-185.88"/>
</g>
<!-- linux&#45;api&#45;headers&gt;=4.10 -->
<g id="node5" class="node">
<title>linux&#45;api&#45;headers&gt;=4.10</title>
<ellipse fill="green" stroke="green" cx="98.14" cy="-90" rx="98.28" ry="18"/>
<text text-anchor="middle" x="98.14" y="-86.3" font-family="Times,serif" font-size="14.00">linux&#45;api&#45;headers&gt;=4.10</text>
</g>
<!-- glibc&#45;&gt;linux&#45;api&#45;headers&gt;=4.10 -->
<g id="edge4" class="edge">
<title>glibc&#45;&gt;linux&#45;api&#45;headers&gt;=4.10</title>
<path fill="none" stroke="#8b4513" d="M223.98,-150.52C202.2,-140.22 168.37,-124.22 141.27,-111.4"/>
<polygon fill="#8b4513" stroke="#8b4513" points="142.53,-108.12 132,-107.01 139.54,-114.45 142.53,-108.12"/>
</g>
<!-- tzdata -->
<g id="node7" class="node">
<title>tzdata</title>
<ellipse fill="green" stroke="green" cx="246.14" cy="-90" rx="31.7" ry="18"/>
<text text-anchor="middle" x="246.14" y="-86.3" font-family="Times,serif" font-size="14.00">tzdata</text>
</g>
<!-- glibc&#45;&gt;tzdata -->
<g id="edge6" class="edge">
<title>glibc&#45;&gt;tzdata</title>
<path fill="none" stroke="#8b4513" d="M246.14,-143.7C246.14,-135.98 246.14,-126.71 246.14,-118.11"/>
<polygon fill="#8b4513" stroke="#8b4513" points="249.64,-118.1 246.14,-108.1 242.64,-118.1 249.64,-118.1"/>
</g>
<!-- filesystem -->
<g id="node8" class="node">
<title>filesystem</title>
<ellipse fill="green" stroke="green" cx="343.14" cy="-90" rx="46.59" ry="18"/>
<text text-anchor="middle" x="343.14" y="-86.3" font-family="Times,serif" font-size="14.00">filesystem</text>
</g>
<!-- glibc&#45;&gt;filesystem -->
<g id="edge7" class="edge">
<title>glibc&#45;&gt;filesystem</title>
<path fill="none" stroke="#8b4513" d="M264.39,-147.83C278.19,-137.88 297.42,-123.99 313.43,-112.44"/>
<polygon fill="#8b4513" stroke="#8b4513" points="315.88,-114.99 321.94,-106.3 311.78,-109.31 315.88,-114.99"/>
</g>
<!-- linux&#45;api&#45;headers -->
<g id="node6" class="node">
<title>linux&#45;api&#45;headers</title>
<ellipse fill="green" stroke="green" cx="98.14" cy="-18" rx="71.49" ry="18"/>
<text text-anchor="middle" x="98.14" y="-14.3" font-family="Times,serif" font-size="14.00">linux&#45;api&#45;headers</text>
</g>
<!-- linux&#45;api&#45;headers&gt;=4.10&#45;&gt;linux&#45;api&#45;headers -->
<g id="edge5" class="edge">
<title>linux&#45;api&#45;headers&gt;=4.10&#45;&gt;linux&#45;api&#45;headers</title>
<path fill="none" stroke="grey" d="M98.14,-71.7C98.14,-60.85 98.14,-46.92 98.14,-36.1"/>
</g>
<!-- iana&#45;etc -->
<g id="node9" class="node">
<title>iana&#45;etc</title>
<ellipse fill="green" stroke="green" cx="343.14" cy="-18" rx="38.19" ry="18"/>
<text text-anchor="middle" x="343.14" y="-14.3" font-family="Times,serif" font-size="14.00">iana&#45;etc</text>
</g>
<!-- filesystem&#45;&gt;iana&#45;etc -->
<g id="edge8" class="edge">
<title>filesystem&#45;&gt;iana&#45;etc</title>
<path fill="none" stroke="#8b4513" d="M343.14,-71.7C343.14,-63.98 343.14,-54.71 343.14,-46.11"/>
<polygon fill="#8b4513" stroke="#8b4513" points="346.64,-46.1 343.14,-36.1 339.64,-46.1 346.64,-46.1"/>
</g>
<!-- sh -->
<g id="node11" class="node">
<title>sh</title>
<ellipse fill="green" stroke="green" cx="278.14" cy="-738" rx="27" ry="18"/>
<text text-anchor="middle" x="278.14" y="-734.3" font-family="Times,serif" font-size="14.00">sh</text>
</g>
<!-- xz&#45;&gt;sh -->
<g id="edge10" class="edge">
<title>xz&#45;&gt;sh</title>
<path fill="none" stroke="#8b4513" d="M278.14,-791.7C278.14,-783.98 278.14,-774.71 278.14,-766.11"/>
<polygon fill="#8b4513" stroke="#8b4513" points="281.64,-766.1 278.14,-756.1 274.64,-766.1 281.64,-766.1"/>
</g>
<!-- bash -->
<g id="node12" class="node">
<title>bash</title>
<ellipse fill="green" stroke="green" cx="278.14" cy="-666" rx="27" ry="18"/>
<text text-anchor="middle" x="278.14" y="-662.3" font-family="Times,serif" font-size="14.00">bash</text>
</g>
<!-- sh&#45;&gt;bash -->
<g id="edge11" class="edge">
<title>sh&#45;&gt;bash</title>
<path fill="none" stroke="grey" d="M278.14,-719.7C278.14,-708.85 278.14,-694.92 278.14,-684.1"/>
</g>
<!-- bash&#45;&gt;glibc -->
<g id="edge22" class="edge">
<title>bash&#45;&gt;glibc</title>
<path fill="none" stroke="#8b4513" d="M257.09,-654.45C241.17,-645.38 220.09,-630.78 208.14,-612 186.43,-577.87 189.14,-563.45 189.14,-523 189.14,-523 189.14,-523 189.14,-305 189.14,-261.09 212.91,-214.67 229.75,-187.3"/>
<polygon fill="#8b4513" stroke="#8b4513" points="232.75,-189.1 235.15,-178.78 226.84,-185.35 232.75,-189.1"/>
</g>
<!-- readline&gt;=7.0 -->
<g id="node13" class="node">
<title>readline&gt;=7.0</title>
<ellipse fill="green" stroke="green" cx="278.14" cy="-594" rx="61.19" ry="18"/>
<text text-anchor="middle" x="278.14" y="-590.3" font-family="Times,serif" font-size="14.00">readline&gt;=7.0</text>
</g>
<!-- bash&#45;&gt;readline&gt;=7.0 -->
<g id="edge12" class="edge">
<title>bash&#45;&gt;readline&gt;=7.0</title>
<path fill="none" stroke="#8b4513" d="M278.14,-647.7C278.14,-639.98 278.14,-630.71 278.14,-622.11"/>
<polygon fill="#8b4513" stroke="#8b4513" points="281.64,-622.1 278.14,-612.1 274.64,-622.1 281.64,-622.1"/>
</g>
<!-- ncurses -->
<g id="node15" class="node">
<title>ncurses</title>
<ellipse fill="green" stroke="green" cx="348.14" cy="-378" rx="37.09" ry="18"/>
<text text-anchor="middle" x="348.14" y="-374.3" font-family="Times,serif" font-size="14.00">ncurses</text>
</g>
<!-- bash&#45;&gt;ncurses -->
<g id="edge23" class="edge">
<title>bash&#45;&gt;ncurses</title>
<path fill="none" stroke="#8b4513" d="M297.59,-653.32C339.55,-626.78 437.42,-557.23 470.14,-468 475.65,-452.98 478.92,-445.38 470.14,-432 453.17,-406.12 420.52,-392.81 393.27,-386"/>
<polygon fill="#8b4513" stroke="#8b4513" points="394.04,-382.59 383.51,-383.78 392.48,-389.41 394.04,-382.59"/>
</g>
<!-- readline -->
<g id="node14" class="node">
<title>readline</title>
<ellipse fill="green" stroke="green" cx="271.14" cy="-522" rx="38.99" ry="18"/>
<text text-anchor="middle" x="271.14" y="-518.3" font-family="Times,serif" font-size="14.00">readline</text>
</g>
<!-- readline&gt;=7.0&#45;&gt;readline -->
<g id="edge13" class="edge">
<title>readline&gt;=7.0&#45;&gt;readline</title>
<path fill="none" stroke="grey" d="M276.41,-575.7C275.33,-564.85 273.93,-550.92 272.85,-540.1"/>
</g>
<!-- readline&#45;&gt;glibc -->
<g id="edge14" class="edge">
<title>readline&#45;&gt;glibc</title>
<path fill="none" stroke="#8b4513" d="M262.24,-504.04C249.38,-477.93 227.14,-425.97 227.14,-379 227.14,-379 227.14,-379 227.14,-305 227.14,-264.64 234.78,-218.39 240.37,-189.94"/>
<polygon fill="#8b4513" stroke="#8b4513" points="243.83,-190.45 242.39,-179.95 236.97,-189.06 243.83,-190.45"/>
</g>
<!-- readline&#45;&gt;ncurses -->
<g id="edge15" class="edge">
<title>readline&#45;&gt;ncurses</title>
<path fill="none" stroke="#8b4513" d="M270.12,-503.77C269.77,-484.94 271.52,-454.46 284.14,-432 291.76,-418.44 304.32,-406.9 316.3,-398.08"/>
<polygon fill="#8b4513" stroke="#8b4513" points="318.62,-400.73 324.84,-392.16 314.63,-394.98 318.62,-400.73"/>
</g>
<!-- libncursesw.so=6&#45;64 -->
<g id="node18" class="node">
<title>libncursesw.so=6&#45;64</title>
<ellipse fill="green" stroke="green" cx="377.14" cy="-450" rx="83.69" ry="18"/>
<text text-anchor="middle" x="377.14" y="-446.3" font-family="Times,serif" font-size="14.00">libncursesw.so=6&#45;64</text>
</g>
<!-- readline&#45;&gt;libncursesw.so=6&#45;64 -->
<g id="edge20" class="edge">
<title>readline&#45;&gt;libncursesw.so=6&#45;64</title>
<path fill="none" stroke="#8b4513" d="M292.59,-506.83C307.33,-497.1 327.17,-484 343.94,-472.93"/>
<polygon fill="#8b4513" stroke="#8b4513" points="345.96,-475.79 352.38,-467.35 342.1,-469.94 345.96,-475.79"/>
</g>
<!-- ncurses&#45;&gt;glibc -->
<g id="edge16" class="edge">
<title>ncurses&#45;&gt;glibc</title>
<path fill="none" stroke="#8b4513" d="M331.49,-361.62C321.55,-351.68 309.31,-338.03 301.14,-324 275.66,-280.24 259.64,-222.88 251.84,-189.77"/>
<polygon fill="#8b4513" stroke="#8b4513" points="255.23,-188.89 249.59,-179.92 248.4,-190.44 255.23,-188.89"/>
</g>
<!-- gcc&#45;libs -->
<g id="node16" class="node">
<title>gcc&#45;libs</title>
<ellipse fill="green" stroke="green" cx="348.14" cy="-306" rx="38.19" ry="18"/>
<text text-anchor="middle" x="348.14" y="-302.3" font-family="Times,serif" font-size="14.00">gcc&#45;libs</text>
</g>
<!-- ncurses&#45;&gt;gcc&#45;libs -->
<g id="edge17" class="edge">
<title>ncurses&#45;&gt;gcc&#45;libs</title>
<path fill="none" stroke="#8b4513" d="M348.14,-359.7C348.14,-351.98 348.14,-342.71 348.14,-334.11"/>
<polygon fill="#8b4513" stroke="#8b4513" points="351.64,-334.1 348.14,-324.1 344.64,-334.1 351.64,-334.1"/>
</g>
<!-- glibc&gt;=2.27 -->
<g id="node17" class="node">
<title>glibc&gt;=2.27</title>
<ellipse fill="green" stroke="green" cx="348.14" cy="-234" rx="54.69" ry="18"/>
<text text-anchor="middle" x="348.14" y="-230.3" font-family="Times,serif" font-size="14.00">glibc&gt;=2.27</text>
</g>
<!-- gcc&#45;libs&#45;&gt;glibc&gt;=2.27 -->
<g id="edge18" class="edge">
<title>gcc&#45;libs&#45;&gt;glibc&gt;=2.27</title>
<path fill="none" stroke="#8b4513" d="M348.14,-287.7C348.14,-279.98 348.14,-270.71 348.14,-262.11"/>
<polygon fill="#8b4513" stroke="#8b4513" points="351.64,-262.1 348.14,-252.1 344.64,-262.1 351.64,-262.1"/>
</g>
<!-- glibc&gt;=2.27&#45;&gt;glibc -->
<g id="edge19" class="edge">
<title>glibc&gt;=2.27&#45;&gt;glibc</title>
<path fill="none" stroke="grey" d="M325.5,-217.46C307.31,-204.98 282.05,-187.65 264.96,-175.91"/>
</g>
<!-- libncursesw.so=6&#45;64&#45;&gt;ncurses -->
<g id="edge21" class="edge">
<title>libncursesw.so=6&#45;64&#45;&gt;ncurses</title>
<path fill="none" stroke="grey" d="M370.12,-432.05C365.56,-421.05 359.64,-406.76 355.1,-395.79"/>
</g>
<!-- lz4&#45;&gt;glibc -->
<g id="edge25" class="edge">
<title>lz4&#45;&gt;glibc</title>
<path fill="none" stroke="#8b4513" d="M454.47,-651.09C480.16,-627.56 527.14,-577.12 527.14,-523 527.14,-523 527.14,-523 527.14,-305 527.14,-197.72 361.97,-171.47 284.9,-165.06"/>
<polygon fill="#8b4513" stroke="#8b4513" points="284.87,-161.55 274.63,-164.28 284.34,-168.53 284.87,-161.55"/>
</g>
</g>
</svg>
