<?xml version="1.0" encoding="UTF-8" standalone="no"?>
<!DOCTYPE svg PUBLIC "-//W3C//DTD SVG 1.1//EN"
 "http://www.w3.org/Graphics/SVG/1.1/DTD/svg11.dtd">
<!-- Generated by graphviz version 2.44.0 (0)
 -->
<!-- Title: G Pages: 1 -->
<svg width="551pt" height="404pt"
 viewBox="0.00 0.00 551.29 404.00" xmlns="http://www.w3.org/2000/svg" xmlns:xlink="http://www.w3.org/1999/xlink">
<g id="graph0" class="graph" transform="scale(1 1) rotate(0) translate(4 400)">
<title>G</title>
<polygon fill="white" stroke="transparent" points="-4,4 -4,-400 547.29,-400 547.29,4 -4,4"/>
<!-- START -->
<g id="node1" class="node">
<title>START</title>
<ellipse fill="red" stroke="red" cx="254.9" cy="-378" rx="38.19" ry="18"/>
<text text-anchor="middle" x="254.9" y="-374.3" font-family="Times,serif" font-size="14.00">START</text>
</g>
<!-- python&#45;regex -->
<g id="node2" class="node">
<title>python&#45;regex</title>
<ellipse fill="green" stroke="green" cx="254.9" cy="-306" rx="57.69" ry="18"/>
<text text-anchor="middle" x="254.9" y="-302.3" font-family="Times,serif" font-size="14.00">python&#45;regex</text>
</g>
<!-- START&#45;&gt;python&#45;regex -->
<g id="edge1" class="edge">
<title>START&#45;&gt;python&#45;regex</title>
<path fill="none" stroke="black" d="M254.9,-359.7C254.9,-351.98 254.9,-342.71 254.9,-334.11"/>
<polygon fill="black" stroke="black" points="258.4,-334.1 254.9,-324.1 251.4,-334.1 258.4,-334.1"/>
</g>
<!-- python -->
<g id="node3" class="node">
<title>python</title>
<ellipse fill="green" stroke="green" cx="254.9" cy="-234" rx="35.19" ry="18"/>
<text text-anchor="middle" x="254.9" y="-230.3" font-family="Times,serif" font-size="14.00">python</text>
</g>
<!-- python&#45;regex&#45;&gt;python -->
<g id="edge2" class="edge">
<title>python&#45;regex&#45;&gt;python</title>
<path fill="none" stroke="#8b4513" d="M254.9,-287.7C254.9,-279.98 254.9,-270.71 254.9,-262.11"/>
<polygon fill="#8b4513" stroke="#8b4513" points="258.4,-262.1 254.9,-252.1 251.4,-262.1 258.4,-262.1"/>
</g>
<!-- expat -->
<g id="node4" class="node">
<title>expat</title>
<ellipse fill="green" stroke="green" cx="29.9" cy="-162" rx="29.8" ry="18"/>
<text text-anchor="middle" x="29.9" y="-158.3" font-family="Times,serif" font-size="14.00">expat</text>
</g>
<!-- python&#45;&gt;expat -->
<g id="edge3" class="edge">
<title>python&#45;&gt;expat</title>
<path fill="none" stroke="#8b4513" d="M223.89,-225.52C186.64,-216.22 122.47,-199.21 68.9,-180 66.67,-179.2 64.39,-178.33 62.1,-177.43"/>
<polygon fill="#8b4513" stroke="#8b4513" points="63.37,-174.17 52.79,-173.58 60.69,-180.64 63.37,-174.17"/>
</g>
<!-- bzip2 -->
<g id="node6" class="node">
<title>bzip2</title>
<ellipse fill="green" stroke="green" cx="334.9" cy="-162" rx="30.59" ry="18"/>
<text text-anchor="middle" x="334.9" y="-158.3" font-family="Times,serif" font-size="14.00">bzip2</text>
</g>
<!-- python&#45;&gt;bzip2 -->
<g id="edge5" class="edge">
<title>python&#45;&gt;bzip2</title>
<path fill="none" stroke="#8b4513" d="M271.86,-218.15C283.15,-208.28 298.15,-195.15 310.69,-184.19"/>
<polygon fill="#8b4513" stroke="#8b4513" points="313.28,-186.56 318.5,-177.35 308.67,-181.3 313.28,-186.56"/>
</g>
<!-- gdbm -->
<g id="node9" class="node">
<title>gdbm</title>
<ellipse fill="green" stroke="green" cx="254.9" cy="-162" rx="31.4" ry="18"/>
<text text-anchor="middle" x="254.9" y="-158.3" font-family="Times,serif" font-size="14.00">gdbm</text>
</g>
<!-- python&#45;&gt;gdbm -->
<g id="edge9" class="edge">
<title>python&#45;&gt;gdbm</title>
<path fill="none" stroke="#8b4513" d="M254.9,-215.7C254.9,-207.98 254.9,-198.71 254.9,-190.11"/>
<polygon fill="#8b4513" stroke="#8b4513" points="258.4,-190.1 254.9,-180.1 251.4,-190.1 258.4,-190.1"/>
</g>
<!-- openssl -->
<g id="node10" class="node">
<title>openssl</title>
<ellipse fill="green" stroke="green" cx="420.9" cy="-162" rx="37.09" ry="18"/>
<text text-anchor="middle" x="420.9" y="-158.3" font-family="Times,serif" font-size="14.00">openssl</text>
</g>
<!-- python&#45;&gt;openssl -->
<g id="edge13" class="edge">
<title>python&#45;&gt;openssl</title>
<path fill="none" stroke="#8b4513" d="M281.2,-221.91C309.12,-210.13 353.44,-191.45 384.66,-178.28"/>
<polygon fill="#8b4513" stroke="#8b4513" points="386.04,-181.5 393.89,-174.39 383.32,-175.05 386.04,-181.5"/>
</g>
<!-- libffi -->
<g id="node12" class="node">
<title>libffi</title>
<ellipse fill="green" stroke="green" cx="105.9" cy="-162" rx="27.9" ry="18"/>
<text text-anchor="middle" x="105.9" y="-158.3" font-family="Times,serif" font-size="14.00">libffi</text>
</g>
<!-- python&#45;&gt;libffi -->
<g id="edge15" class="edge">
<title>python&#45;&gt;libffi</title>
<path fill="none" stroke="#8b4513" d="M229.96,-221.28C204.47,-209.31 164.8,-190.67 137.21,-177.71"/>
<polygon fill="#8b4513" stroke="#8b4513" points="138.54,-174.47 128,-173.38 135.56,-180.8 138.54,-174.47"/>
</g>
<!-- zlib -->
<g id="node13" class="node">
<title>zlib</title>
<ellipse fill="green" stroke="green" cx="178.9" cy="-162" rx="27" ry="18"/>
<text text-anchor="middle" x="178.9" y="-158.3" font-family="Times,serif" font-size="14.00">zlib</text>
</g>
<!-- python&#45;&gt;zlib -->
<g id="edge17" class="edge">
<title>python&#45;&gt;zlib</title>
<path fill="none" stroke="#8b4513" d="M238.41,-217.81C227.59,-207.85 213.31,-194.7 201.45,-183.77"/>
<polygon fill="#8b4513" stroke="#8b4513" points="203.79,-181.17 194.06,-176.97 199.05,-186.32 203.79,-181.17"/>
</g>
<!-- libnsl -->
<g id="node14" class="node">
<title>libnsl</title>
<ellipse fill="green" stroke="green" cx="506.9" cy="-162" rx="30.59" ry="18"/>
<text text-anchor="middle" x="506.9" y="-158.3" font-family="Times,serif" font-size="14.00">libnsl</text>
</g>
<!-- python&#45;&gt;libnsl -->
<g id="edge19" class="edge">
<title>python&#45;&gt;libnsl</title>
<path fill="none" stroke="#8b4513" d="M286.95,-226.63C328.86,-217.92 404.31,-200.98 466.9,-180 469.28,-179.2 471.71,-178.33 474.15,-177.4"/>
<polygon fill="#8b4513" stroke="#8b4513" points="475.46,-180.65 483.44,-173.69 472.86,-174.15 475.46,-180.65"/>
</g>
<!-- glibc -->
<g id="node5" class="node">
<title>glibc</title>
<ellipse fill="green" stroke="green" cx="178.9" cy="-90" rx="28.7" ry="18"/>
<text text-anchor="middle" x="178.9" y="-86.3" font-family="Times,serif" font-size="14.00">glibc</text>
</g>
<!-- expat&#45;&gt;glibc -->
<g id="edge4" class="edge">
<title>expat&#45;&gt;glibc</title>
<path fill="none" stroke="#8b4513" d="M52.85,-150.22C78.23,-138.29 119.25,-119.02 147.57,-105.72"/>
<polygon fill="#8b4513" stroke="#8b4513" points="149.08,-108.87 156.65,-101.45 146.11,-102.54 149.08,-108.87"/>
</g>
<!-- bzip2&#45;&gt;glibc -->
<g id="edge6" class="edge">
<title>bzip2&#45;&gt;glibc</title>
<path fill="none" stroke="#8b4513" d="M311.2,-150.37C284.36,-138.32 240.49,-118.64 210.68,-105.26"/>
<polygon fill="#8b4513" stroke="#8b4513" points="212.1,-102.06 201.54,-101.16 209.23,-108.45 212.1,-102.06"/>
</g>
<!-- sh -->
<g id="node7" class="node">
<title>sh</title>
<ellipse fill="green" stroke="green" cx="294.9" cy="-90" rx="27" ry="18"/>
<text text-anchor="middle" x="294.9" y="-86.3" font-family="Times,serif" font-size="14.00">sh</text>
</g>
<!-- bzip2&#45;&gt;sh -->
<g id="edge7" class="edge">
<title>bzip2&#45;&gt;sh</title>
<path fill="none" stroke="#8b4513" d="M325.62,-144.76C320.72,-136.19 314.61,-125.49 309.13,-115.9"/>
<polygon fill="#8b4513" stroke="#8b4513" points="312.12,-114.09 304.12,-107.15 306.05,-117.57 312.12,-114.09"/>
</g>
<!-- bash -->
<g id="node8" class="node">
<title>bash</title>
<ellipse fill="green" stroke="green" cx="294.9" cy="-18" rx="27" ry="18"/>
<text text-anchor="middle" x="294.9" y="-14.3" font-family="Times,serif" font-size="14.00">bash</text>
</g>
<!-- sh&#45;&gt;bash -->
<g id="edge8" class="edge">
<title>sh&#45;&gt;bash</title>
<path fill="none" stroke="grey" d="M289.06,-72.41C287.86,-61.41 287.84,-47.03 289.02,-35.96"/>
</g>
<!-- sh&#45;&gt;bash -->
<g id="edge12" class="edge">
<title>sh&#45;&gt;bash</title>
<path fill="none" stroke="grey" d="M300.74,-72.41C301.94,-61.41 301.95,-47.03 300.78,-35.96"/>
</g>
<!-- gdbm&#45;&gt;glibc -->
<g id="edge10" class="edge">
<title>gdbm&#45;&gt;glibc</title>
<path fill="none" stroke="#8b4513" d="M238.78,-146.15C228.06,-136.28 213.81,-123.15 201.9,-112.19"/>
<polygon fill="#8b4513" stroke="#8b4513" points="204.2,-109.55 194.47,-105.35 199.46,-114.69 204.2,-109.55"/>
</g>
<!-- gdbm&#45;&gt;sh -->
<g id="edge11" class="edge">
<title>gdbm&#45;&gt;sh</title>
<path fill="none" stroke="#8b4513" d="M264.17,-144.76C269.07,-136.19 275.19,-125.49 280.67,-115.9"/>
<polygon fill="#8b4513" stroke="#8b4513" points="283.75,-117.57 285.67,-107.15 277.67,-114.09 283.75,-117.57"/>
</g>
<!-- perl -->
<g id="node11" class="node">
<title>perl</title>
<ellipse fill="green" stroke="green" cx="420.9" cy="-90" rx="27" ry="18"/>
<text text-anchor="middle" x="420.9" y="-86.3" font-family="Times,serif" font-size="14.00">perl</text>
</g>
<!-- openssl&#45;&gt;perl -->
<g id="edge14" class="edge">
<title>openssl&#45;&gt;perl</title>
<path fill="none" stroke="#8b4513" d="M420.9,-143.7C420.9,-135.98 420.9,-126.71 420.9,-118.11"/>
<polygon fill="#8b4513" stroke="#8b4513" points="424.4,-118.1 420.9,-108.1 417.4,-118.1 424.4,-118.1"/>
</g>
<!-- libffi&#45;&gt;glibc -->
<g id="edge16" class="edge">
<title>libffi&#45;&gt;glibc</title>
<path fill="none" stroke="#8b4513" d="M121.02,-146.5C131.2,-136.73 144.81,-123.69 156.27,-112.7"/>
<polygon fill="#8b4513" stroke="#8b4513" points="159,-114.93 163.79,-105.49 154.15,-109.88 159,-114.93"/>
</g>
<!-- zlib&#45;&gt;glibc -->
<g id="edge18" class="edge">
<title>zlib&#45;&gt;glibc</title>
<path fill="none" stroke="#8b4513" d="M178.9,-143.7C178.9,-135.98 178.9,-126.71 178.9,-118.11"/>
<polygon fill="#8b4513" stroke="#8b4513" points="182.4,-118.1 178.9,-108.1 175.4,-118.1 182.4,-118.1"/>
</g>
<!-- libtirpc -->
<g id="node15" class="node">
<title>libtirpc</title>
<ellipse fill="green" stroke="green" cx="506.9" cy="-90" rx="36.29" ry="18"/>
<text text-anchor="middle" x="506.9" y="-86.3" font-family="Times,serif" font-size="14.00">libtirpc</text>
</g>
<!-- libnsl&#45;&gt;libtirpc -->
<g id="edge20" class="edge">
<title>libnsl&#45;&gt;libtirpc</title>
<path fill="none" stroke="#8b4513" d="M506.9,-143.7C506.9,-135.98 506.9,-126.71 506.9,-118.11"/>
<polygon fill="#8b4513" stroke="#8b4513" points="510.4,-118.1 506.9,-108.1 503.4,-118.1 510.4,-118.1"/>
</g>
</g>
</svg>
